<?xml version="1.0"?>
<svg version="1.1" xmlns="http://www.w3.org/2000/svg" xmlns:xlink="http://www.w3.org/1999/xlink" width="223" height="312">
    <desc iVinci="yes" version="4.5" gridStep="20" showGrid="no" snapToGrid="no" codePlatform="0"/>
    <g id="Layer1" opacity="1">
        <g id="Shape1">
            <desc shapeID="1" type="0" basicInfo-basicType="0" basicInfo-roundedRectRadius="12" basicInfo-polygonSides="6" basicInfo-starPoints="5" bounding="rect(-111.614,-155.906,223.228,311.811)" text="" font-familyName="" font-pixelSize="20" font-bold="0" font-underline="0" font-alignment="1" strokeStyle="0" markerStart="0" markerEnd="0" shadowEnabled="0" shadowOffsetX="0" shadowOffsetY="2" shadowBlur="4" shadowOpacity="160" blurEnabled="0" blurRadius="4" transform="matrix(1,0,0,1,111.614,155.906)" pers-center="0,0" pers-size="0,0" pers-start="0,0" pers-end="0,0" locked="0" mesh="" flag=""/>
            <path id="shapePath1" d="M223.228,302.457 C223.228,307.623 218.731,311.811 213.183,311.811 L10.0453,311.811 C4.49747,311.811 3.05176e-05,307.623 3.05176e-05,302.457 L3.05176e-05,9.35434 C3.05176e-05,4.18808 4.49747,0 10.0453,0 L213.183,0 C218.731,0 223.228,4.18808 223.228,9.35434 L223.228,302.457 Z" style="stroke:#000000;stroke-opacity:1;stroke-width:0.996733;stroke-linejoin:miter;stroke-miterlimit:2;stroke-linecap:butt;fill-rule:evenodd;fill:#ffffff;fill-opacity:1;"/>
        </g>
        <g id="Shape2">
            <desc shapeID="2" type="0" basicInfo-basicType="0" basicInfo-roundedRectRadius="12" basicInfo-polygonSides="6" basicInfo-starPoints="5" bounding="rect(-1.55539,-15.7534,3.11081,31.5067)" text="" font-familyName="" font-pixelSize="20" font-bold="0" font-underline="0" font-alignment="1" strokeStyle="0" markerStart="0" markerEnd="0" shadowEnabled="0" shadowOffsetX="0" shadowOffsetY="2" shadowBlur="4" shadowOpacity="160" blurEnabled="0" blurRadius="4" transform="matrix(1,0,0,1,214.045,282.22)" pers-center="0,0" pers-size="0,0" pers-start="0,0" pers-end="0,0" locked="0" mesh="" flag=""/>
            <path id="shapePath2" d="M215.6,266.467 L215.6,297.973 L212.489,297.973 L212.489,266.467 L215.6,266.467 Z" style="stroke:none;fill-rule:nonzero;fill:#000000;fill-opacity:1;"/>
        </g>
        <g id="Shape3">
            <desc shapeID="3" type="0" basicInfo-basicType="0" basicInfo-roundedRectRadius="12" basicInfo-polygonSides="6" basicInfo-starPoints="5" bounding="rect(-6.27621,-15.7534,12.5524,31.5067)" text="" font-familyName="" font-pixelSize="20" font-bold="0" font-underline="0" font-alignment="1" strokeStyle="0" markerStart="0" markerEnd="0" shadowEnabled="0" shadowOffsetX="0" shadowOffsetY="2" shadowBlur="4" shadowOpacity="160" blurEnabled="0" blurRadius="4" transform="matrix(1,0,0,1,202.396,282.22)" pers-center="0,0" pers-size="0,0" pers-start="0,0" pers-end="0,0" locked="0" mesh="" flag=""/>
            <path id="shapePath3" d="M203.271,297.973 C206.265,297.973 208.672,295.287 208.672,291.951 L208.672,272.489 C208.672,269.153 206.265,266.467 203.271,266.467 L201.525,266.467 C198.531,266.467 196.119,269.153 196.119,272.489 L196.119,291.951 C196.119,295.287 198.531,297.973 201.525,297.973 L203.271,297.973 M202.37,294.995 C200.601,294.995 199.178,293.658 199.178,291.994 L199.178,272.271 C199.178,270.606 200.601,269.265 202.37,269.265 C204.138,269.265 205.561,270.606 205.561,272.271 L205.561,291.994 C205.561,293.658 204.138,294.995 202.37,294.995 Z" style="stroke:none;fill-rule:nonzero;fill:#000000;fill-opacity:1;"/>
        </g>
        <g id="Shape4">
            <desc shapeID="4" type="0" basicInfo-basicType="0" basicInfo-roundedRectRadius="12" basicInfo-polygonSides="6" basicInfo-starPoints="5" bounding="rect(-1.55542,-15.7534,3.11084,31.5067)" text="" font-familyName="" font-pixelSize="20" font-bold="0" font-underline="0" font-alignment="1" strokeStyle="0" markerStart="0" markerEnd="0" shadowEnabled="0" shadowOffsetX="0" shadowOffsetY="2" shadowBlur="4" shadowOpacity="160" blurEnabled="0" blurRadius="4" transform="matrix(1,0,0,1,9.18369,29.5911)" pers-center="0,0" pers-size="0,0" pers-start="0,0" pers-end="0,0" locked="0" mesh="" flag=""/>
            <path id="shapePath4" d="M7.62827,45.3444 L7.62827,13.8377 L10.7391,13.8377 L10.7391,45.3444 L7.62827,45.3444 Z" style="stroke:none;fill-rule:nonzero;fill:#000000;fill-opacity:1;"/>
        </g>
        <g id="Shape5">
            <desc shapeID="5" type="0" basicInfo-basicType="0" basicInfo-roundedRectRadius="12" basicInfo-polygonSides="6" basicInfo-starPoints="5" bounding="rect(-6.27618,-15.7534,12.5524,31.5067)" text="" font-familyName="" font-pixelSize="20" font-bold="0" font-underline="0" font-alignment="1" strokeStyle="0" markerStart="0" markerEnd="0" shadowEnabled="0" shadowOffsetX="0" shadowOffsetY="2" shadowBlur="4" shadowOpacity="160" blurEnabled="0" blurRadius="4" transform="matrix(1,0,0,1,20.8327,29.5911)" pers-center="0,0" pers-size="0,0" pers-start="0,0" pers-end="0,0" locked="0" mesh="" flag=""/>
            <path id="shapePath5" d="M19.9578,13.8377 C16.9636,13.8377 14.5565,16.5244 14.5565,19.8602 L14.5565,39.3219 C14.5565,42.6578 16.9636,45.3444 19.9578,45.3444 L21.7029,45.3444 C24.6971,45.3444 27.1089,42.6578 27.1089,39.3219 L27.1089,19.8602 C27.1089,16.5244 24.6971,13.8377 21.7029,13.8377 L19.9578,13.8377 M20.8588,16.8158 C22.6273,16.8158 24.0503,18.1527 24.0503,19.8175 L24.0503,39.54 C24.0503,41.2048 22.6273,42.5465 20.8588,42.5465 C19.0903,42.5465 17.6674,41.2048 17.6674,39.54 L17.6674,19.8175 C17.6674,18.1527 19.0903,16.8158 20.8588,16.8158 Z" style="stroke:none;fill-rule:nonzero;fill:#000000;fill-opacity:1;"/>
        </g>
        <g id="Shape6">
            <desc shapeID="6" type="0" basicInfo-basicType="0" basicInfo-roundedRectRadius="12" basicInfo-polygonSides="6" basicInfo-starPoints="5" bounding="rect(-28.3268,-28.5706,56.6536,57.1411)" text="" font-familyName="" font-pixelSize="20" font-bold="0" font-underline="0" font-alignment="1" strokeStyle="0" markerStart="0" markerEnd="0" shadowEnabled="0" shadowOffsetX="0" shadowOffsetY="2" shadowBlur="4" shadowOpacity="160" blurEnabled="0" blurRadius="4" transform="matrix(1,0,0,1,162.609,122.4)" pers-center="0,0" pers-size="0,0" pers-start="0,0" pers-end="0,0" locked="0" mesh="" flag=""/>
            <path id="shapePath6" d="M155.258,150.971 C158.137,145.195 160.234,139.27 160.606,132.934 C160.948,130.602 159.532,130.563 159.318,132.205 C155.242,147.798 133.555,143.575 134.301,128.908 C134.906,117.014 146.721,114.455 152.883,118.344 C155.317,119.777 155.18,118.919 153.851,117.432 C144.697,107.221 150.241,94.0704 162.612,93.8297 C175.992,94.6231 179.464,108.7 171.257,116.978 C170.236,117.973 167.973,121.169 171.38,118.934 C179.667,113.046 191.167,119.377 190.932,128.455 C190.5,145.194 170.093,146.442 165.729,132.461 C165.309,130.911 164.1,130.132 164.434,132.765 C165.039,137.532 166.291,144.719 169.872,150.971 L155.258,150.971 Z" style="stroke:none;fill-rule:nonzero;fill:#000000;fill-opacity:1;"/>
        </g>
        <g id="Shape7">
            <desc shapeID="7" type="0" basicInfo-basicType="0" basicInfo-roundedRectRadius="12" basicInfo-polygonSides="6" basicInfo-starPoints="5" bounding="rect(-28.3268,-28.5706,56.6536,57.1411)" text="" font-familyName="" font-pixelSize="20" font-bold="0" font-underline="0" font-alignment="1" strokeStyle="0" markerStart="0" markerEnd="0" shadowEnabled="0" shadowOffsetX="0" shadowOffsetY="2" shadowBlur="4" shadowOpacity="160" blurEnabled="0" blurRadius="4" transform="matrix(1,0,0,1,59.0763,122.4)" pers-center="0,0" pers-size="0,0" pers-start="0,0" pers-end="0,0" locked="0" mesh="" flag=""/>
            <path id="shapePath7" d="M51.7254,150.971 C54.6044,145.195 56.7013,139.27 57.0735,132.934 C57.4151,130.602 55.9989,130.563 55.7854,132.205 C51.709,147.798 30.0227,143.575 30.7683,128.908 C31.3733,117.014 43.1878,114.455 49.3506,118.344 C51.7842,119.777 51.6467,118.919 50.3185,117.432 C41.1637,107.221 46.7084,94.0704 59.0797,93.8297 C72.4593,94.6231 75.9309,108.7 67.7239,116.978 C66.7033,117.973 64.4404,121.169 67.8469,118.934 C76.1337,113.046 87.6342,119.377 87.3996,128.455 C86.9669,145.194 66.5605,146.442 62.1964,132.461 C61.7766,130.911 60.5673,130.132 60.9014,132.765 C61.5063,137.532 62.7579,144.719 66.3388,150.971 L51.7254,150.971 Z" style="stroke:none;fill-rule:nonzero;fill:#000000;fill-opacity:1;"/>
        </g>
        <g id="Shape8">
            <desc shapeID="8" type="0" basicInfo-basicType="0" basicInfo-roundedRectRadius="12" basicInfo-polygonSides="6" basicInfo-starPoints="5" bounding="rect(-28.3268,-28.5706,56.6536,57.1411)" text="" font-familyName="" font-pixelSize="20" font-bold="0" font-underline="0" font-alignment="1" strokeStyle="0" markerStart="0" markerEnd="0" shadowEnabled="0" shadowOffsetX="0" shadowOffsetY="2" shadowBlur="4" shadowOpacity="160" blurEnabled="0" blurRadius="4" transform="matrix(1,0,0,1,110.792,89.735)" pers-center="0,0" pers-size="0,0" pers-start="0,0" pers-end="0,0" locked="0" mesh="" flag=""/>
            <path id="shapePath8" d="M103.441,118.306 C106.32,112.53 108.417,106.605 108.789,100.268 C109.131,97.9366 107.715,97.8975 107.501,99.5396 C103.425,115.132 81.7383,110.91 82.4839,96.2432 C83.0889,84.3484 94.9034,81.7894 101.066,85.6786 C103.5,87.1115 103.362,86.2533 102.034,84.7668 C92.8793,74.5555 98.424,61.4051 110.795,61.1644 C124.175,61.9579 127.646,76.0344 119.439,84.3127 C118.419,85.3073 116.156,88.5041 119.562,86.269 C127.849,80.381 139.35,86.7119 139.115,95.7898 C138.682,112.529 118.276,113.777 113.912,99.7956 C113.492,98.2454 112.283,97.4669 112.617,100.1 C113.222,104.866 114.473,112.053 118.054,118.306 L103.441,118.306 Z" style="stroke:none;fill-rule:nonzero;fill:#000000;fill-opacity:1;"/>
        </g>
        <g id="Shape9">
            <desc shapeID="9" type="0" basicInfo-basicType="0" basicInfo-roundedRectRadius="12" basicInfo-polygonSides="6" basicInfo-starPoints="5" bounding="rect(-28.3268,-28.5706,56.6536,57.1411)" text="" font-familyName="" font-pixelSize="20" font-bold="0" font-underline="0" font-alignment="1" strokeStyle="0" markerStart="0" markerEnd="0" shadowEnabled="0" shadowOffsetX="0" shadowOffsetY="2" shadowBlur="4" shadowOpacity="160" blurEnabled="0" blurRadius="4" transform="matrix(1,0,0,1,162.609,57.0697)" pers-center="0,0" pers-size="0,0" pers-start="0,0" pers-end="0,0" locked="0" mesh="" flag=""/>
            <path id="shapePath9" d="M155.258,85.6403 C158.137,79.8647 160.234,73.9392 160.606,67.6029 C160.948,65.2712 159.532,65.2321 159.318,66.8744 C155.242,82.4671 133.555,78.2448 134.301,63.5779 C134.906,51.683 146.721,49.1241 152.883,53.0133 C155.317,54.4461 155.18,53.588 153.851,52.1015 C144.697,41.8901 150.241,28.7398 162.612,28.4991 C175.992,29.2925 179.464,43.369 171.257,51.6475 C170.236,52.6421 167.973,55.8387 171.38,53.6038 C179.667,47.7158 191.167,54.0465 190.932,63.1245 C190.5,79.8633 170.093,81.1118 165.729,67.1302 C165.309,65.58 164.1,64.8016 164.434,67.4345 C165.039,72.2011 166.291,79.3879 169.872,85.6403 L155.258,85.6403 Z" style="stroke:none;fill-rule:nonzero;fill:#000000;fill-opacity:1;"/>
        </g>
        <g id="Shape10">
            <desc shapeID="10" type="0" basicInfo-basicType="0" basicInfo-roundedRectRadius="12" basicInfo-polygonSides="6" basicInfo-starPoints="5" bounding="rect(-28.3268,-28.5706,56.6536,57.1411)" text="" font-familyName="" font-pixelSize="20" font-bold="0" font-underline="0" font-alignment="1" strokeStyle="0" markerStart="0" markerEnd="0" shadowEnabled="0" shadowOffsetX="0" shadowOffsetY="2" shadowBlur="4" shadowOpacity="160" blurEnabled="0" blurRadius="4" transform="matrix(1,0,0,1,59.0763,57.0697)" pers-center="0,0" pers-size="0,0" pers-start="0,0" pers-end="0,0" locked="0" mesh="" flag=""/>
            <path id="shapePath10" d="M51.7254,85.6403 C54.6044,79.8647 56.7013,73.9392 57.0735,67.6029 C57.4151,65.2712 55.9989,65.2321 55.7854,66.8744 C51.709,82.4671 30.0227,78.2448 30.7683,63.5779 C31.3733,51.683 43.1878,49.1241 49.3506,53.0133 C51.7842,54.4461 51.6467,53.588 50.3185,52.1015 C41.1637,41.8901 46.7084,28.7398 59.0797,28.4991 C72.4593,29.2925 75.9309,43.369 67.7239,51.6475 C66.7033,52.6421 64.4404,55.8387 67.8469,53.6038 C76.1337,47.7158 87.6342,54.0465 87.3996,63.1245 C86.9669,79.8633 66.5605,81.1118 62.1964,67.1302 C61.7766,65.58 60.5673,64.8016 60.9014,67.4345 C61.5063,72.2011 62.7579,79.3879 66.3388,85.6403 L51.7254,85.6403 Z" style="stroke:none;fill-rule:nonzero;fill:#000000;fill-opacity:1;"/>
        </g>
        <g id="Shape11">
            <desc shapeID="11" type="0" basicInfo-basicType="0" basicInfo-roundedRectRadius="12" basicInfo-polygonSides="6" basicInfo-starPoints="5" bounding="rect(-28.3268,-28.5706,56.6536,57.1411)" text="" font-familyName="" font-pixelSize="20" font-bold="0" font-underline="0" font-alignment="1" strokeStyle="0" markerStart="0" markerEnd="0" shadowEnabled="0" shadowOffsetX="0" shadowOffsetY="2" shadowBlur="4" shadowOpacity="160" blurEnabled="0" blurRadius="4" transform="matrix(1,0,0,1,59.0765,189.41)" pers-center="0,0" pers-size="0,0" pers-start="0,0" pers-end="0,0" locked="0" mesh="" flag=""/>
            <path id="shapePath11" d="M66.4274,160.84 C63.5484,166.615 61.4515,172.541 61.0793,178.877 C60.7377,181.209 62.1539,181.248 62.3674,179.606 C66.4438,164.013 88.1301,168.235 87.3845,182.902 C86.7795,194.797 74.965,197.356 68.8022,193.467 C66.3686,192.034 66.5061,192.892 67.8343,194.379 C76.9891,204.59 71.4444,217.74 59.0731,217.981 C45.6935,217.188 42.2219,203.111 50.4289,194.833 C51.4495,193.838 53.7124,190.641 50.3059,192.876 C42.0191,198.764 30.5186,192.434 30.7532,183.356 C31.1859,166.617 51.5923,165.368 55.9564,179.35 C56.3762,180.9 57.5855,181.678 57.2514,179.046 C56.6465,174.279 55.3949,167.092 51.814,160.84 L66.4274,160.84 Z" style="stroke:none;fill-rule:nonzero;fill:#000000;fill-opacity:1;"/>
        </g>
        <g id="Shape12">
            <desc shapeID="12" type="0" basicInfo-basicType="0" basicInfo-roundedRectRadius="12" basicInfo-polygonSides="6" basicInfo-starPoints="5" bounding="rect(-28.3268,-28.5706,56.6536,57.1412)" text="" font-familyName="" font-pixelSize="20" font-bold="0" font-underline="0" font-alignment="1" strokeStyle="0" markerStart="0" markerEnd="0" shadowEnabled="0" shadowOffsetX="0" shadowOffsetY="2" shadowBlur="4" shadowOpacity="160" blurEnabled="0" blurRadius="4" transform="matrix(1,0,0,1,59.0765,254.741)" pers-center="0,0" pers-size="0,0" pers-start="0,0" pers-end="0,0" locked="0" mesh="" flag=""/>
            <path id="shapePath12" d="M66.4274,226.17 C63.5484,231.946 61.4515,237.871 61.0793,244.208 C60.7377,246.539 62.1539,246.579 62.3674,244.936 C66.4438,229.344 88.1301,233.566 87.3845,248.233 C86.7795,260.128 74.965,262.687 68.8022,258.797 C66.3686,257.365 66.5061,258.223 67.8343,259.709 C76.9891,269.921 71.4444,283.071 59.0731,283.312 C45.6935,282.518 42.2219,268.442 50.4289,260.163 C51.4495,259.169 53.7124,255.972 50.3059,258.207 C42.0191,264.095 30.5186,257.764 30.7532,248.686 C31.1859,231.947 51.5923,230.699 55.9564,244.68 C56.3762,246.231 57.5855,247.009 57.2514,244.376 C56.6465,239.609 55.3949,232.423 51.814,226.17 L66.4274,226.17 Z" style="stroke:none;fill-rule:nonzero;fill:#000000;fill-opacity:1;"/>
        </g>
        <g id="Shape13">
            <desc shapeID="13" type="0" basicInfo-basicType="0" basicInfo-roundedRectRadius="12" basicInfo-polygonSides="6" basicInfo-starPoints="5" bounding="rect(-28.3268,-28.5706,56.6536,57.1411)" text="" font-familyName="" font-pixelSize="20" font-bold="0" font-underline="0" font-alignment="1" strokeStyle="0" markerStart="0" markerEnd="0" shadowEnabled="0" shadowOffsetX="0" shadowOffsetY="2" shadowBlur="4" shadowOpacity="160" blurEnabled="0" blurRadius="4" transform="matrix(1,0,0,1,162.609,189.41)" pers-center="0,0" pers-size="0,0" pers-start="0,0" pers-end="0,0" locked="0" mesh="" flag=""/>
            <path id="shapePath13" d="M169.96,160.84 C167.081,166.615 164.984,172.541 164.612,178.877 C164.271,181.209 165.687,181.248 165.9,179.606 C169.977,164.013 191.663,168.235 190.917,182.902 C190.312,194.797 178.498,197.356 172.335,193.467 C169.901,192.034 170.039,192.892 171.367,194.379 C180.522,204.59 174.977,217.74 162.606,217.981 C149.226,217.188 145.755,203.111 153.962,194.833 C154.982,193.838 157.245,190.641 153.839,192.876 C145.552,198.764 134.051,192.434 134.286,183.356 C134.719,166.617 155.125,165.368 159.489,179.35 C159.909,180.9 161.118,181.678 160.784,179.046 C160.179,174.279 158.928,167.092 155.347,160.84 L169.96,160.84 Z" style="stroke:none;fill-rule:nonzero;fill:#000000;fill-opacity:1;"/>
        </g>
        <g id="Shape14">
            <desc shapeID="14" type="0" basicInfo-basicType="0" basicInfo-roundedRectRadius="12" basicInfo-polygonSides="6" basicInfo-starPoints="5" bounding="rect(-28.3268,-28.5706,56.6536,57.1411)" text="" font-familyName="" font-pixelSize="20" font-bold="0" font-underline="0" font-alignment="1" strokeStyle="0" markerStart="0" markerEnd="0" shadowEnabled="0" shadowOffsetX="0" shadowOffsetY="2" shadowBlur="4" shadowOpacity="160" blurEnabled="0" blurRadius="4" transform="matrix(1,0,0,1,162.609,254.741)" pers-center="0,0" pers-size="0,0" pers-start="0,0" pers-end="0,0" locked="0" mesh="" flag=""/>
            <path id="shapePath14" d="M169.96,226.17 C167.081,231.946 164.984,237.871 164.612,244.208 C164.271,246.539 165.687,246.578 165.9,244.936 C169.977,229.344 191.663,233.566 190.917,248.233 C190.312,260.128 178.498,262.687 172.335,258.797 C169.901,257.365 170.039,258.223 171.367,259.709 C180.522,269.921 174.977,283.071 162.606,283.312 C149.226,282.518 145.755,268.442 153.962,260.163 C154.982,259.169 157.245,255.972 153.839,258.207 C145.552,264.095 134.051,257.764 134.286,248.686 C134.719,231.947 155.125,230.699 159.489,244.68 C159.909,246.231 161.118,247.009 160.784,244.376 C160.179,239.609 158.928,232.423 155.347,226.17 L169.96,226.17 Z" style="stroke:none;fill-rule:nonzero;fill:#000000;fill-opacity:1;"/>
        </g>
        <g id="Shape15">
            <desc shapeID="15" type="0" basicInfo-basicType="0" basicInfo-roundedRectRadius="12" basicInfo-polygonSides="6" basicInfo-starPoints="5" bounding="rect(-28.3268,-28.5706,56.6536,57.1411)" text="" font-familyName="" font-pixelSize="20" font-bold="0" font-underline="0" font-alignment="1" strokeStyle="0" markerStart="0" markerEnd="0" shadowEnabled="0" shadowOffsetX="0" shadowOffsetY="2" shadowBlur="4" shadowOpacity="160" blurEnabled="0" blurRadius="4" transform="matrix(1,0,0,1,111.26,222.076)" pers-center="0,0" pers-size="0,0" pers-start="0,0" pers-end="0,0" locked="0" mesh="" flag=""/>
            <path id="shapePath15" d="M118.611,193.505 C115.732,199.281 113.635,205.206 113.262,211.542 C112.921,213.874 114.337,213.913 114.551,212.271 C118.627,196.678 140.313,200.901 139.568,215.568 C138.963,227.462 127.148,230.021 120.985,226.132 C118.552,224.699 118.689,225.557 120.017,227.044 C129.172,237.255 123.628,250.406 111.256,250.646 C97.8767,249.853 94.4051,235.776 102.612,227.498 C103.633,226.503 105.896,223.307 102.489,225.542 C94.2023,231.43 82.7018,225.099 82.9364,216.021 C83.3691,199.282 103.775,198.034 108.14,212.015 C108.559,213.565 109.769,214.344 109.435,211.711 C108.83,206.944 107.578,199.757 103.997,193.505 L118.611,193.505 Z" style="stroke:none;fill-rule:nonzero;fill:#000000;fill-opacity:1;"/>
        </g>
        <g id="Shape16">
            <desc shapeID="16" type="0" basicInfo-basicType="0" basicInfo-roundedRectRadius="12" basicInfo-polygonSides="6" basicInfo-starPoints="5" bounding="rect(-11.544,-11.9271,23.0879,23.8543)" text="" font-familyName="" font-pixelSize="20" font-bold="0" font-underline="0" font-alignment="1" strokeStyle="0" markerStart="0" markerEnd="0" shadowEnabled="0" shadowOffsetX="0" shadowOffsetY="2" shadowBlur="4" shadowOpacity="160" blurEnabled="0" blurRadius="4" transform="matrix(1,0,0,1,17.2166,63.3139)" pers-center="0,0" pers-size="0,0" pers-start="0,0" pers-end="0,0" locked="0" mesh="" flag=""/>
            <path id="shapePath16" d="M13.1719,75.241 C14.364,72.796 15.5241,70.5203 16.1562,67.8402 C16.5754,65.3126 15.7179,66.2516 15.231,67.9084 C14.5098,70.2058 12.5084,71.2521 10.651,71.2772 C7.27991,71.3227 5.5983,68.673 5.70309,65.8233 C5.33499,62.8248 8.37408,60.7032 10.6648,60.8666 C12.3871,60.9895 13.8888,61.9187 14.7977,62.6417 C15.394,62.957 16.0317,63.0963 15.1426,62.2832 C13.465,60.4503 12.066,59.3191 12.0966,56.5724 C12.1256,53.9937 14.3301,51.3043 17.252,51.3887 C20.9035,51.4941 22.564,54.2788 22.5553,56.8692 C22.5453,58.7575 21.6017,60.4955 20.1439,61.5719 C19.1997,62.338 19.4645,62.9117 20.5416,62.1867 C21.5765,61.2947 22.8087,60.9041 24.0864,60.8767 C27.5769,60.822 28.9414,63.8382 28.7415,66.6409 C28.5541,69.2666 26.3187,71.9693 23.3725,71.6632 C20.7418,71.3617 19.3595,69.1533 18.5674,66.8864 C18.3051,66.1913 17.8914,66.0035 17.9029,67.0394 C18.5106,72.0969 20.3945,75.2439 20.4082,75.241 L13.1719,75.241 Z" style="stroke:none;fill-rule:nonzero;fill:#000000;fill-opacity:1;"/>
        </g>
        <g id="Shape17">
            <desc shapeID="17" type="0" basicInfo-basicType="0" basicInfo-roundedRectRadius="12" basicInfo-polygonSides="6" basicInfo-starPoints="5" bounding="rect(-11.544,-11.9271,23.0879,23.8543)" text="" font-familyName="" font-pixelSize="20" font-bold="0" font-underline="0" font-alignment="1" strokeStyle="0" markerStart="0" markerEnd="0" shadowEnabled="0" shadowOffsetX="0" shadowOffsetY="2" shadowBlur="4" shadowOpacity="160" blurEnabled="0" blurRadius="4" transform="matrix(1,0,0,1,206.032,249.172)" pers-center="0,0" pers-size="0,0" pers-start="0,0" pers-end="0,0" locked="0" mesh="" flag=""/>
            <path id="shapePath17" d="M210.076,237.244 C208.884,239.689 207.724,241.965 207.092,244.645 C206.673,247.173 207.53,246.234 208.017,244.577 C208.738,242.28 210.74,241.233 212.597,241.208 C215.968,241.163 217.65,243.812 217.545,246.662 C217.913,249.661 214.874,251.782 212.583,251.619 C210.861,251.496 209.359,250.567 208.451,249.844 C207.854,249.528 207.217,249.389 208.106,250.202 C209.783,252.035 211.182,253.166 211.152,255.913 C211.123,258.492 208.918,261.181 205.996,261.097 C202.345,260.991 200.684,258.207 200.693,255.616 C200.703,253.728 201.647,251.99 203.104,250.914 C204.049,250.147 203.784,249.574 202.707,250.299 C201.672,251.191 200.44,251.581 199.162,251.609 C195.671,251.663 194.307,248.647 194.507,245.844 C194.694,243.219 196.93,240.516 199.876,240.822 C202.507,241.124 203.889,243.332 204.681,245.599 C204.943,246.294 205.357,246.482 205.345,245.446 C204.738,240.389 202.854,237.242 202.84,237.244 L210.076,237.244 Z" style="stroke:none;fill-rule:nonzero;fill:#000000;fill-opacity:1;"/>
        </g>
    </g>
</svg>
