<?xml version="1.0"?>
<svg version="1.1" xmlns="http://www.w3.org/2000/svg" xmlns:xlink="http://www.w3.org/1999/xlink" width="223" height="312">
    <desc iVinci="yes" version="4.5" gridStep="20" showGrid="no" snapToGrid="no" codePlatform="0"/>
    <g id="Layer1" opacity="1">
        <g id="Shape1">
            <desc shapeID="1" type="0" basicInfo-basicType="0" basicInfo-roundedRectRadius="12" basicInfo-polygonSides="6" basicInfo-starPoints="5" bounding="rect(-111.614,-155.906,223.228,311.811)" text="" font-familyName="" font-pixelSize="20" font-bold="0" font-underline="0" font-alignment="1" strokeStyle="0" markerStart="0" markerEnd="0" shadowEnabled="0" shadowOffsetX="0" shadowOffsetY="2" shadowBlur="4" shadowOpacity="160" blurEnabled="0" blurRadius="4" transform="matrix(1,0,0,1,111.614,155.906)" pers-center="0,0" pers-size="0,0" pers-start="0,0" pers-end="0,0" locked="0" mesh="" flag=""/>
            <path id="shapePath1" d="M-3.05176e-05,9.35434 C-3.05176e-05,4.18808 4.49738,0 10.0452,0 L213.183,0 C218.731,0 223.228,4.18808 223.228,9.35434 L223.228,302.457 C223.228,307.623 218.731,311.811 213.183,311.811 L10.0452,311.811 C4.49738,311.811 -3.05176e-05,307.623 -3.05176e-05,302.457 L-3.05176e-05,9.35434 Z" style="stroke:#000000;stroke-opacity:1;stroke-width:0.996733;stroke-linejoin:miter;stroke-miterlimit:2;stroke-linecap:butt;fill-rule:evenodd;fill:#ffffff;fill-opacity:1;"/>
        </g>
        <g id="Shape2">
            <desc shapeID="2" type="0" basicInfo-basicType="0" basicInfo-roundedRectRadius="12" basicInfo-polygonSides="6" basicInfo-starPoints="5" bounding="rect(-1.55542,-15.7534,3.11081,31.5067)" text="" font-familyName="" font-pixelSize="20" font-bold="0" font-underline="0" font-alignment="1" strokeStyle="0" markerStart="0" markerEnd="0" shadowEnabled="0" shadowOffsetX="0" shadowOffsetY="2" shadowBlur="4" shadowOpacity="160" blurEnabled="0" blurRadius="4" transform="matrix(1,0,0,1,9.18372,29.591)" pers-center="0,0" pers-size="0,0" pers-start="0,0" pers-end="0,0" locked="0" mesh="" flag=""/>
            <path id="shapePath2" d="M7.6283,45.3443 L7.6283,13.8376 L10.7391,13.8376 L10.7391,45.3443 L7.6283,45.3443 Z" style="stroke:none;fill-rule:nonzero;fill:#d40000;fill-opacity:1;"/>
        </g>
        <g id="Shape3">
            <desc shapeID="3" type="0" basicInfo-basicType="0" basicInfo-roundedRectRadius="12" basicInfo-polygonSides="6" basicInfo-starPoints="5" bounding="rect(-6.27621,-15.7534,12.5524,31.5067)" text="" font-familyName="" font-pixelSize="20" font-bold="0" font-underline="0" font-alignment="1" strokeStyle="0" markerStart="0" markerEnd="0" shadowEnabled="0" shadowOffsetX="0" shadowOffsetY="2" shadowBlur="4" shadowOpacity="160" blurEnabled="0" blurRadius="4" transform="matrix(1,0,0,1,20.8327,29.591)" pers-center="0,0" pers-size="0,0" pers-start="0,0" pers-end="0,0" locked="0" mesh="" flag=""/>
            <path id="shapePath3" d="M19.9578,13.8376 C16.9636,13.8376 14.5565,16.5243 14.5565,19.8601 L14.5565,39.3218 C14.5565,42.6577 16.9636,45.3443 19.9578,45.3443 L21.7029,45.3443 C24.6971,45.3443 27.1089,42.6577 27.1089,39.3218 L27.1089,19.8601 C27.1089,16.5243 24.6971,13.8376 21.7029,13.8376 L19.9578,13.8376 M20.8588,16.8157 C22.6273,16.8157 24.0503,18.1526 24.0503,19.8175 L24.0503,39.5399 C24.0503,41.2048 22.6273,42.5465 20.8588,42.5465 C19.0903,42.5465 17.6674,41.2048 17.6674,39.5399 L17.6674,19.8175 C17.6674,18.1526 19.0903,16.8157 20.8588,16.8157 Z" style="stroke:none;fill-rule:nonzero;fill:#d40000;fill-opacity:1;"/>
        </g>
        <g id="Shape4">
            <desc shapeID="4" type="0" basicInfo-basicType="0" basicInfo-roundedRectRadius="12" basicInfo-polygonSides="6" basicInfo-starPoints="5" bounding="rect(-1.55542,-15.7534,3.11084,31.5067)" text="" font-familyName="" font-pixelSize="20" font-bold="0" font-underline="0" font-alignment="1" strokeStyle="0" markerStart="0" markerEnd="0" shadowEnabled="0" shadowOffsetX="0" shadowOffsetY="2" shadowBlur="4" shadowOpacity="160" blurEnabled="0" blurRadius="4" transform="matrix(1,0,0,1,214.045,282.22)" pers-center="0,0" pers-size="0,0" pers-start="0,0" pers-end="0,0" locked="0" mesh="" flag=""/>
            <path id="shapePath4" d="M215.6,266.467 L215.6,297.973 L212.489,297.973 L212.489,266.467 L215.6,266.467 Z" style="stroke:none;fill-rule:nonzero;fill:#d40000;fill-opacity:1;"/>
        </g>
        <g id="Shape5">
            <desc shapeID="5" type="0" basicInfo-basicType="0" basicInfo-roundedRectRadius="12" basicInfo-polygonSides="6" basicInfo-starPoints="5" bounding="rect(-6.27618,-15.7534,12.5524,31.5067)" text="" font-familyName="" font-pixelSize="20" font-bold="0" font-underline="0" font-alignment="1" strokeStyle="0" markerStart="0" markerEnd="0" shadowEnabled="0" shadowOffsetX="0" shadowOffsetY="2" shadowBlur="4" shadowOpacity="160" blurEnabled="0" blurRadius="4" transform="matrix(1,0,0,1,202.396,282.22)" pers-center="0,0" pers-size="0,0" pers-start="0,0" pers-end="0,0" locked="0" mesh="" flag=""/>
            <path id="shapePath5" d="M203.271,297.973 C206.265,297.973 208.672,295.287 208.672,291.951 L208.672,272.489 C208.672,269.153 206.265,266.467 203.271,266.467 L201.525,266.467 C198.531,266.467 196.119,269.153 196.119,272.489 L196.119,291.951 C196.119,295.287 198.531,297.973 201.525,297.973 L203.271,297.973 M202.37,294.995 C200.601,294.995 199.178,293.658 199.178,291.994 L199.178,272.271 C199.178,270.606 200.601,269.264 202.37,269.264 C204.138,269.264 205.561,270.606 205.561,272.271 L205.561,291.994 C205.561,293.658 204.138,294.995 202.37,294.995 Z" style="stroke:none;fill-rule:nonzero;fill:#d40000;fill-opacity:1;"/>
        </g>
        <g id="Shape6">
            <desc shapeID="6" type="0" basicInfo-basicType="0" basicInfo-roundedRectRadius="12" basicInfo-polygonSides="6" basicInfo-starPoints="5" bounding="rect(-9.675,-12.8329,19.35,25.6659)" text="" font-familyName="" font-pixelSize="20" font-bold="0" font-underline="0" font-alignment="1" strokeStyle="0" markerStart="0" markerEnd="0" shadowEnabled="0" shadowOffsetX="0" shadowOffsetY="2" shadowBlur="4" shadowOpacity="160" blurEnabled="0" blurRadius="4" transform="matrix(1,0,0,1,17.1967,62.6395)" pers-center="0,0" pers-size="0,0" pers-start="0,0" pers-end="0,0" locked="0" mesh="" flag=""/>
            <path id="shapePath6" d="M8.52417,60.1395 C6.94116,56.6672 6.76746,50.7341 11.4953,49.9315 C15.0573,49.473 16.507,51.1298 16.7952,53.6733 C16.9373,54.4164 17.3568,54.4618 17.49,53.615 C17.6944,51.0056 20.2772,49.4824 22.2964,49.8651 C27.823,50.8105 27.5002,56.8935 25.6949,61.0206 C22.964,66.5001 20.0943,69.9582 17.4499,75.4724 C14.4117,69.7314 10.9426,65.0674 8.52417,60.1395 L8.52417,60.1395 Z" style="stroke:none;fill-rule:nonzero;fill:#d40000;fill-opacity:1;"/>
        </g>
        <g id="Shape7">
            <desc shapeID="7" type="0" basicInfo-basicType="0" basicInfo-roundedRectRadius="12" basicInfo-polygonSides="6" basicInfo-starPoints="5" bounding="rect(-23.58,-28.946,47.16,57.892)" text="" font-familyName="" font-pixelSize="20" font-bold="0" font-underline="0" font-alignment="1" strokeStyle="0" markerStart="0" markerEnd="0" shadowEnabled="0" shadowOffsetX="0" shadowOffsetY="2" shadowBlur="4" shadowOpacity="160" blurEnabled="0" blurRadius="4" transform="matrix(1,0,0,1,55.0764,57.0699)" pers-center="0,0" pers-size="0,0" pers-start="0,0" pers-end="0,0" locked="0" mesh="" flag=""/>
            <path id="shapePath7" d="M43.0266,28.3232 C50.1707,27.8488 53.8951,33.9506 54.6219,38.7596 C55.0553,39.5235 55.2925,39.3083 55.4588,38.7173 C55.808,32.5432 61.3336,27.4972 66.4514,28.1872 C74.7794,28.2954 79.8409,37.5626 78.4178,45.4059 C76.6793,54.9875 71.5181,60.757 67.61,66.699 C63.1887,72.8514 57.2372,81.7385 55.3199,86.0159 C55.3199,86.0159 49.2715,76.8113 41.4026,65.9863 C36.1409,58.7477 31.9296,50.9039 31.5376,44.1509 C31.0897,36.4354 34.2569,29.5191 43.0266,28.3232 L43.0266,28.3232 Z" style="stroke:none;fill-rule:nonzero;fill:#d40000;fill-opacity:1;"/>
        </g>
        <g id="Shape8">
            <desc shapeID="8" type="0" basicInfo-basicType="0" basicInfo-roundedRectRadius="12" basicInfo-polygonSides="6" basicInfo-starPoints="5" bounding="rect(-23.58,-28.946,47.16,57.892)" text="" font-familyName="" font-pixelSize="20" font-bold="0" font-underline="0" font-alignment="1" strokeStyle="0" markerStart="0" markerEnd="0" shadowEnabled="0" shadowOffsetX="0" shadowOffsetY="2" shadowBlur="4" shadowOpacity="160" blurEnabled="0" blurRadius="4" transform="matrix(1,0,0,1,111.26,89.7352)" pers-center="0,0" pers-size="0,0" pers-start="0,0" pers-end="0,0" locked="0" mesh="" flag=""/>
            <path id="shapePath8" d="M99.2099,60.9885 C106.354,60.5141 110.078,66.6159 110.805,71.4249 C111.238,72.1888 111.476,71.9736 111.642,71.3826 C111.991,65.2085 117.517,60.1624 122.635,60.8524 C130.963,60.9607 136.024,70.2278 134.601,78.0712 C132.862,87.6528 127.701,93.4223 123.793,99.3643 C119.372,105.517 113.42,114.404 111.503,118.681 C111.503,118.681 105.455,109.477 97.5858,98.6516 C92.3241,91.4131 88.1128,83.5692 87.7208,76.8162 C87.2729,69.1007 90.4401,62.1844 99.2099,60.9885 L99.2099,60.9885 Z" style="stroke:none;fill-rule:nonzero;fill:#d40000;fill-opacity:1;"/>
        </g>
        <g id="Shape9">
            <desc shapeID="9" type="0" basicInfo-basicType="0" basicInfo-roundedRectRadius="12" basicInfo-polygonSides="6" basicInfo-starPoints="5" bounding="rect(-23.58,-28.946,47.16,57.892)" text="" font-familyName="" font-pixelSize="20" font-bold="0" font-underline="0" font-alignment="1" strokeStyle="0" markerStart="0" markerEnd="0" shadowEnabled="0" shadowOffsetX="0" shadowOffsetY="2" shadowBlur="4" shadowOpacity="160" blurEnabled="0" blurRadius="4" transform="matrix(1,0,0,1,166.609,57.0699)" pers-center="0,0" pers-size="0,0" pers-start="0,0" pers-end="0,0" locked="0" mesh="" flag=""/>
            <path id="shapePath9" d="M154.559,28.3232 C161.703,27.8488 165.428,33.9506 166.155,38.7596 C166.588,39.5235 166.825,39.3083 166.992,38.7173 C167.341,32.5432 172.866,27.4972 177.984,28.1872 C186.312,28.2954 191.374,37.5626 189.951,45.4059 C188.212,54.9875 183.051,60.757 179.143,66.699 C174.721,72.8514 168.77,81.7385 166.853,86.0159 C166.853,86.0159 160.804,76.8113 152.935,65.9863 C147.674,58.7477 143.462,50.9039 143.07,44.1509 C142.622,36.4354 145.79,29.5191 154.559,28.3232 L154.559,28.3232 Z" style="stroke:none;fill-rule:nonzero;fill:#d40000;fill-opacity:1;"/>
        </g>
        <g id="Shape10">
            <desc shapeID="10" type="0" basicInfo-basicType="0" basicInfo-roundedRectRadius="12" basicInfo-polygonSides="6" basicInfo-starPoints="5" bounding="rect(-23.58,-28.946,47.16,57.892)" text="" font-familyName="" font-pixelSize="20" font-bold="0" font-underline="0" font-alignment="1" strokeStyle="0" markerStart="0" markerEnd="0" shadowEnabled="0" shadowOffsetX="0" shadowOffsetY="2" shadowBlur="4" shadowOpacity="160" blurEnabled="0" blurRadius="4" transform="matrix(1,0,0,1,166.609,122.4)" pers-center="0,0" pers-size="0,0" pers-start="0,0" pers-end="0,0" locked="0" mesh="" flag=""/>
            <path id="shapePath10" d="M154.559,93.6538 C161.703,93.1794 165.428,99.2812 166.155,104.09 C166.588,104.854 166.825,104.639 166.992,104.048 C167.341,97.8738 172.866,92.8278 177.984,93.5178 C186.312,93.626 191.374,102.893 189.951,110.737 C188.212,120.318 183.051,126.088 179.143,132.03 C174.721,138.182 168.77,147.069 166.853,151.346 C166.853,151.346 160.804,142.142 152.935,131.317 C147.674,124.078 143.462,116.235 143.07,109.481 C142.622,101.766 145.79,94.8497 154.559,93.6538 L154.559,93.6538 Z" style="stroke:none;fill-rule:nonzero;fill:#d40000;fill-opacity:1;"/>
        </g>
        <g id="Shape11">
            <desc shapeID="11" type="0" basicInfo-basicType="0" basicInfo-roundedRectRadius="12" basicInfo-polygonSides="6" basicInfo-starPoints="5" bounding="rect(-23.58,-28.946,47.16,57.892)" text="" font-familyName="" font-pixelSize="20" font-bold="0" font-underline="0" font-alignment="1" strokeStyle="0" markerStart="0" markerEnd="0" shadowEnabled="0" shadowOffsetX="0" shadowOffsetY="2" shadowBlur="4" shadowOpacity="160" blurEnabled="0" blurRadius="4" transform="matrix(1,0,0,1,55.0764,122.4)" pers-center="0,0" pers-size="0,0" pers-start="0,0" pers-end="0,0" locked="0" mesh="" flag=""/>
            <path id="shapePath11" d="M43.0266,93.6538 C50.1707,93.1794 53.8951,99.2812 54.6219,104.09 C55.0553,104.854 55.2925,104.639 55.4588,104.048 C55.808,97.8738 61.3336,92.8278 66.4514,93.5178 C74.7794,93.626 79.8409,102.893 78.4178,110.737 C76.6793,120.318 71.5181,126.088 67.61,132.03 C63.1887,138.182 57.2372,147.069 55.3199,151.346 C55.3199,151.346 49.2715,142.142 41.4026,131.317 C36.1409,124.078 31.9296,116.235 31.5376,109.481 C31.0897,101.766 34.2569,94.8497 43.0266,93.6538 L43.0266,93.6538 Z" style="stroke:none;fill-rule:nonzero;fill:#d40000;fill-opacity:1;"/>
        </g>
        <g id="Shape12">
            <desc shapeID="12" type="0" basicInfo-basicType="0" basicInfo-roundedRectRadius="12" basicInfo-polygonSides="6" basicInfo-starPoints="5" bounding="rect(-23.58,-28.946,47.16,57.892)" text="" font-familyName="" font-pixelSize="20" font-bold="0" font-underline="0" font-alignment="1" strokeStyle="0" markerStart="0" markerEnd="0" shadowEnabled="0" shadowOffsetX="0" shadowOffsetY="2" shadowBlur="4" shadowOpacity="160" blurEnabled="0" blurRadius="4" transform="matrix(1,0,0,1,166.609,189.297)" pers-center="0,0" pers-size="0,0" pers-start="0,0" pers-end="0,0" locked="0" mesh="" flag=""/>
            <path id="shapePath12" d="M154.559,218.044 C161.703,218.518 165.428,212.417 166.155,207.608 C166.588,206.844 166.825,207.059 166.992,207.65 C167.341,213.824 172.866,218.87 177.984,218.18 C186.312,218.072 191.374,208.805 189.951,200.961 C188.212,191.38 183.051,185.61 179.143,179.668 C174.721,173.516 168.77,164.629 166.853,160.351 C166.853,160.351 160.804,169.556 152.935,180.381 C147.674,187.619 143.462,195.463 143.07,202.216 C142.622,209.932 145.79,216.848 154.559,218.044 L154.559,218.044 Z" style="stroke:none;fill-rule:nonzero;fill:#d40000;fill-opacity:1;"/>
        </g>
        <g id="Shape13">
            <desc shapeID="13" type="0" basicInfo-basicType="0" basicInfo-roundedRectRadius="12" basicInfo-polygonSides="6" basicInfo-starPoints="5" bounding="rect(-23.58,-28.946,47.16,57.892)" text="" font-familyName="" font-pixelSize="20" font-bold="0" font-underline="0" font-alignment="1" strokeStyle="0" markerStart="0" markerEnd="0" shadowEnabled="0" shadowOffsetX="0" shadowOffsetY="2" shadowBlur="4" shadowOpacity="160" blurEnabled="0" blurRadius="4" transform="matrix(1,0,0,1,166.609,254.403)" pers-center="0,0" pers-size="0,0" pers-start="0,0" pers-end="0,0" locked="0" mesh="" flag=""/>
            <path id="shapePath13" d="M154.559,283.149 C161.703,283.624 165.428,277.522 166.155,272.713 C166.588,271.949 166.825,272.164 166.992,272.755 C167.341,278.929 172.866,283.975 177.984,283.285 C186.312,283.177 191.374,273.91 189.951,266.067 C188.212,256.485 183.051,250.716 179.143,244.774 C174.721,238.621 168.77,229.734 166.853,225.457 C166.853,225.457 160.804,234.661 152.935,245.486 C147.674,252.725 143.462,260.569 143.07,267.322 C142.622,275.037 145.79,281.953 154.559,283.149 L154.559,283.149 Z" style="stroke:none;fill-rule:nonzero;fill:#d40000;fill-opacity:1;"/>
        </g>
        <g id="Shape14">
            <desc shapeID="14" type="0" basicInfo-basicType="0" basicInfo-roundedRectRadius="12" basicInfo-polygonSides="6" basicInfo-starPoints="5" bounding="rect(-23.58,-28.946,47.16,57.892)" text="" font-familyName="" font-pixelSize="20" font-bold="0" font-underline="0" font-alignment="1" strokeStyle="0" markerStart="0" markerEnd="0" shadowEnabled="0" shadowOffsetX="0" shadowOffsetY="2" shadowBlur="4" shadowOpacity="160" blurEnabled="0" blurRadius="4" transform="matrix(1,0,0,1,110.792,221.85)" pers-center="0,0" pers-size="0,0" pers-start="0,0" pers-end="0,0" locked="0" mesh="" flag=""/>
            <path id="shapePath14" d="M98.7422,250.597 C105.886,251.071 109.611,244.969 110.337,240.16 C110.771,239.396 111.008,239.612 111.174,240.203 C111.524,246.377 117.049,251.423 122.167,250.733 C130.495,250.624 135.556,241.357 134.133,233.514 C132.395,223.932 127.234,218.163 123.326,212.221 C118.904,206.069 112.953,197.181 111.035,192.904 C111.035,192.904 104.987,202.109 97.1183,212.934 C91.8564,220.172 87.6451,228.016 87.2531,234.769 C86.8053,242.484 89.9724,249.401 98.7422,250.597 L98.7422,250.597 Z" style="stroke:none;fill-rule:nonzero;fill:#d40000;fill-opacity:1;"/>
        </g>
        <g id="Shape15">
            <desc shapeID="15" type="0" basicInfo-basicType="0" basicInfo-roundedRectRadius="12" basicInfo-polygonSides="6" basicInfo-starPoints="5" bounding="rect(-23.58,-28.946,47.16,57.892)" text="" font-familyName="" font-pixelSize="20" font-bold="0" font-underline="0" font-alignment="1" strokeStyle="0" markerStart="0" markerEnd="0" shadowEnabled="0" shadowOffsetX="0" shadowOffsetY="2" shadowBlur="4" shadowOpacity="160" blurEnabled="0" blurRadius="4" transform="matrix(1,0,0,1,55.0764,189.297)" pers-center="0,0" pers-size="0,0" pers-start="0,0" pers-end="0,0" locked="0" mesh="" flag=""/>
            <path id="shapePath15" d="M43.0266,218.044 C50.1707,218.518 53.8951,212.417 54.6219,207.608 C55.0553,206.844 55.2925,207.059 55.4588,207.65 C55.808,213.824 61.3336,218.87 66.4514,218.18 C74.7794,218.072 79.8409,208.805 78.4178,200.961 C76.6793,191.38 71.5181,185.61 67.61,179.668 C63.1887,173.516 57.2372,164.629 55.3199,160.351 C55.3199,160.351 49.2715,169.556 41.4026,180.381 C36.1409,187.619 31.9296,195.463 31.5376,202.216 C31.0897,209.932 34.2569,216.848 43.0266,218.044 L43.0266,218.044 Z" style="stroke:none;fill-rule:nonzero;fill:#d40000;fill-opacity:1;"/>
        </g>
        <g id="Shape16">
            <desc shapeID="16" type="0" basicInfo-basicType="0" basicInfo-roundedRectRadius="12" basicInfo-polygonSides="6" basicInfo-starPoints="5" bounding="rect(-23.58,-28.946,47.16,57.892)" text="" font-familyName="" font-pixelSize="20" font-bold="0" font-underline="0" font-alignment="1" strokeStyle="0" markerStart="0" markerEnd="0" shadowEnabled="0" shadowOffsetX="0" shadowOffsetY="2" shadowBlur="4" shadowOpacity="160" blurEnabled="0" blurRadius="4" transform="matrix(1,0,0,1,55.0764,254.403)" pers-center="0,0" pers-size="0,0" pers-start="0,0" pers-end="0,0" locked="0" mesh="" flag=""/>
            <path id="shapePath16" d="M43.0266,283.149 C50.1707,283.624 53.8951,277.522 54.6219,272.713 C55.0553,271.949 55.2925,272.164 55.4588,272.755 C55.808,278.929 61.3336,283.975 66.4514,283.285 C74.7794,283.177 79.8409,273.91 78.4178,266.067 C76.6793,256.485 71.5181,250.716 67.61,244.774 C63.1887,238.621 57.2372,229.734 55.3199,225.457 C55.3199,225.457 49.2715,234.661 41.4026,245.486 C36.1409,252.725 31.9296,260.569 31.5376,267.322 C31.0897,275.037 34.2569,281.953 43.0266,283.149 L43.0266,283.149 Z" style="stroke:none;fill-rule:nonzero;fill:#d40000;fill-opacity:1;"/>
        </g>
        <g id="Shape17">
            <desc shapeID="17" type="0" basicInfo-basicType="0" basicInfo-roundedRectRadius="12" basicInfo-polygonSides="6" basicInfo-starPoints="5" bounding="rect(-9.675,-12.8329,19.35,25.6658)" text="" font-familyName="" font-pixelSize="20" font-bold="0" font-underline="0" font-alignment="1" strokeStyle="0" markerStart="0" markerEnd="0" shadowEnabled="0" shadowOffsetX="0" shadowOffsetY="2" shadowBlur="4" shadowOpacity="160" blurEnabled="0" blurRadius="4" transform="matrix(1,0,0,1,206.012,248.497)" pers-center="0,0" pers-size="0,0" pers-start="0,0" pers-end="0,0" locked="0" mesh="" flag=""/>
            <path id="shapePath17" d="M197.339,250.997 C195.756,254.469 195.583,260.403 200.31,261.205 C203.873,261.664 205.322,260.007 205.61,257.463 C205.753,256.72 206.172,256.675 206.305,257.522 C206.51,260.131 209.092,261.654 211.112,261.272 C216.638,260.326 216.315,254.243 214.51,250.116 C211.779,244.637 208.909,241.178 206.265,235.664 C203.227,241.405 199.758,246.069 197.339,250.997 Z" style="stroke:none;fill-rule:nonzero;fill:#d40000;fill-opacity:1;"/>
        </g>
    </g>
</svg>
