<?xml version="1.0"?>
<svg version="1.1" xmlns="http://www.w3.org/2000/svg" xmlns:xlink="http://www.w3.org/1999/xlink" width="223" height="312">
    <desc iVinci="yes" version="4.5" gridStep="20" showGrid="no" snapToGrid="no" codePlatform="0"/>
    <g id="Layer1" opacity="1">
        <g id="Shape1">
            <desc shapeID="1" type="0" basicInfo-basicType="0" basicInfo-roundedRectRadius="12" basicInfo-polygonSides="6" basicInfo-starPoints="5" bounding="rect(-111.614,-155.906,223.228,311.811)" text="" font-familyName="" font-pixelSize="20" font-bold="0" font-underline="0" font-alignment="1" strokeStyle="0" markerStart="0" markerEnd="0" shadowEnabled="0" shadowOffsetX="0" shadowOffsetY="2" shadowBlur="4" shadowOpacity="160" blurEnabled="0" blurRadius="4" transform="matrix(1,0,0,1,111.614,155.906)" pers-center="0,0" pers-size="0,0" pers-start="0,0" pers-end="0,0" locked="0" mesh="" flag=""/>
            <path id="shapePath1" d="M223.228,302.457 C223.228,307.623 218.731,311.811 213.183,311.811 L10.0453,311.811 C4.49747,311.811 3.05176e-05,307.623 3.05176e-05,302.457 L3.05176e-05,9.35434 C3.05176e-05,4.18808 4.49747,0 10.0453,0 L213.183,0 C218.731,0 223.228,4.18808 223.228,9.35434 L223.228,302.457 Z" style="stroke:#000000;stroke-opacity:1;stroke-width:0.996733;stroke-linejoin:miter;stroke-miterlimit:2;stroke-linecap:butt;fill-rule:evenodd;fill:#ffffff;fill-opacity:1;"/>
        </g>
        <g id="Shape2">
            <desc shapeID="2" type="0" basicInfo-basicType="0" basicInfo-roundedRectRadius="12" basicInfo-polygonSides="6" basicInfo-starPoints="5" bounding="rect(-1.55539,-15.7534,3.11081,31.5067)" text="" font-familyName="" font-pixelSize="20" font-bold="0" font-underline="0" font-alignment="1" strokeStyle="0" markerStart="0" markerEnd="0" shadowEnabled="0" shadowOffsetX="0" shadowOffsetY="2" shadowBlur="4" shadowOpacity="160" blurEnabled="0" blurRadius="4" transform="matrix(1,0,0,1,214.045,282.22)" pers-center="0,0" pers-size="0,0" pers-start="0,0" pers-end="0,0" locked="0" mesh="" flag=""/>
            <path id="shapePath2" d="M215.6,266.467 L215.6,297.973 L212.489,297.973 L212.489,266.467 L215.6,266.467 Z" style="stroke:none;fill-rule:nonzero;fill:#000000;fill-opacity:1;"/>
        </g>
        <g id="Shape3">
            <desc shapeID="3" type="0" basicInfo-basicType="0" basicInfo-roundedRectRadius="12" basicInfo-polygonSides="6" basicInfo-starPoints="5" bounding="rect(-6.27621,-15.7534,12.5524,31.5067)" text="" font-familyName="" font-pixelSize="20" font-bold="0" font-underline="0" font-alignment="1" strokeStyle="0" markerStart="0" markerEnd="0" shadowEnabled="0" shadowOffsetX="0" shadowOffsetY="2" shadowBlur="4" shadowOpacity="160" blurEnabled="0" blurRadius="4" transform="matrix(1,0,0,1,202.396,282.22)" pers-center="0,0" pers-size="0,0" pers-start="0,0" pers-end="0,0" locked="0" mesh="" flag=""/>
            <path id="shapePath3" d="M203.271,297.973 C206.265,297.973 208.672,295.287 208.672,291.951 L208.672,272.489 C208.672,269.153 206.265,266.467 203.271,266.467 L201.525,266.467 C198.531,266.467 196.119,269.153 196.119,272.489 L196.119,291.951 C196.119,295.287 198.531,297.973 201.525,297.973 L203.271,297.973 M202.37,294.995 C200.601,294.995 199.178,293.658 199.178,291.994 L199.178,272.271 C199.178,270.606 200.601,269.265 202.37,269.265 C204.138,269.265 205.561,270.606 205.561,272.271 L205.561,291.994 C205.561,293.658 204.138,294.995 202.37,294.995 Z" style="stroke:none;fill-rule:nonzero;fill:#000000;fill-opacity:1;"/>
        </g>
        <g id="Shape4">
            <desc shapeID="4" type="0" basicInfo-basicType="0" basicInfo-roundedRectRadius="12" basicInfo-polygonSides="6" basicInfo-starPoints="5" bounding="rect(-1.55539,-15.7534,3.11081,31.5067)" text="" font-familyName="" font-pixelSize="20" font-bold="0" font-underline="0" font-alignment="1" strokeStyle="0" markerStart="0" markerEnd="0" shadowEnabled="0" shadowOffsetX="0" shadowOffsetY="2" shadowBlur="4" shadowOpacity="160" blurEnabled="0" blurRadius="4" transform="matrix(1,0,0,1,9.18365,29.5911)" pers-center="0,0" pers-size="0,0" pers-start="0,0" pers-end="0,0" locked="0" mesh="" flag=""/>
            <path id="shapePath4" d="M7.62827,45.3444 L7.62827,13.8377 L10.7391,13.8377 L10.7391,45.3444 L7.62827,45.3444 Z" style="stroke:none;fill-rule:nonzero;fill:#000000;fill-opacity:1;"/>
        </g>
        <g id="Shape5">
            <desc shapeID="5" type="0" basicInfo-basicType="0" basicInfo-roundedRectRadius="12" basicInfo-polygonSides="6" basicInfo-starPoints="5" bounding="rect(-6.27621,-15.7534,12.5524,31.5067)" text="" font-familyName="" font-pixelSize="20" font-bold="0" font-underline="0" font-alignment="1" strokeStyle="0" markerStart="0" markerEnd="0" shadowEnabled="0" shadowOffsetX="0" shadowOffsetY="2" shadowBlur="4" shadowOpacity="160" blurEnabled="0" blurRadius="4" transform="matrix(1,0,0,1,20.8327,29.5911)" pers-center="0,0" pers-size="0,0" pers-start="0,0" pers-end="0,0" locked="0" mesh="" flag=""/>
            <path id="shapePath5" d="M19.9578,13.8377 C16.9636,13.8377 14.5565,16.5243 14.5565,19.8602 L14.5565,39.3219 C14.5565,42.6578 16.9636,45.3444 19.9578,45.3444 L21.7029,45.3444 C24.6971,45.3444 27.1089,42.6578 27.1089,39.3219 L27.1089,19.8602 C27.1089,16.5243 24.6971,13.8377 21.7029,13.8377 L19.9578,13.8377 M20.8588,16.8158 C22.6273,16.8158 24.0502,18.1527 24.0502,19.8175 L24.0502,39.54 C24.0502,41.2048 22.6273,42.5465 20.8588,42.5465 C19.0903,42.5465 17.6673,41.2048 17.6673,39.54 L17.6673,19.8175 C17.6673,18.1527 19.0903,16.8158 20.8588,16.8158 Z" style="stroke:none;fill-rule:nonzero;fill:#000000;fill-opacity:1;"/>
        </g>
        <g id="Shape6">
            <desc shapeID="6" type="0" basicInfo-basicType="0" basicInfo-roundedRectRadius="12" basicInfo-polygonSides="6" basicInfo-starPoints="5" bounding="rect(-23.895,-29.6864,47.79,59.3728)" text="" font-familyName="" font-pixelSize="20" font-bold="0" font-underline="0" font-alignment="1" strokeStyle="0" markerStart="0" markerEnd="0" shadowEnabled="0" shadowOffsetX="0" shadowOffsetY="2" shadowBlur="4" shadowOpacity="160" blurEnabled="0" blurRadius="4" transform="matrix(1,0,0,1,55.0656,57.0697)" pers-center="0,0" pers-size="0,0" pers-start="0,0" pers-end="0,0" locked="0" mesh="" flag=""/>
            <path id="shapePath6" d="M52.9359,68.5203 C52.9509,66.4946 51.3491,66.4559 51.3673,67.9345 C51.233,75.3632 44.9508,79.0209 40.3867,78.1533 C33.3506,76.8156 31.1049,69.8312 31.172,65.7178 C31.3792,53.0215 44.1598,43.6594 55.6922,27.3833 C64.1423,42.074 78.0894,53.6129 78.9151,64.969 C80.0128,80.067 60.9062,85.6987 58.1782,68.1017 C58.0022,66.8587 56.5385,66.3006 56.6521,68.0367 C57.0666,72.8593 56.4772,74.8681 61.9178,86.7561 L47.6961,86.7561 C50.8458,81.2012 52.7215,74.3816 52.9359,68.5204 L52.9359,68.5203 Z" style="stroke:none;fill-rule:nonzero;fill:#000000;fill-opacity:1;"/>
        </g>
        <g id="Shape7">
            <desc shapeID="7" type="0" basicInfo-basicType="0" basicInfo-roundedRectRadius="12" basicInfo-polygonSides="6" basicInfo-starPoints="5" bounding="rect(-23.895,-29.6864,47.79,59.3729)" text="" font-familyName="" font-pixelSize="20" font-bold="0" font-underline="0" font-alignment="1" strokeStyle="0" markerStart="0" markerEnd="0" shadowEnabled="0" shadowOffsetX="0" shadowOffsetY="2" shadowBlur="4" shadowOpacity="160" blurEnabled="0" blurRadius="4" transform="matrix(1,0,0,1,110.781,89.735)" pers-center="0,0" pers-size="0,0" pers-start="0,0" pers-end="0,0" locked="0" mesh="" flag=""/>
            <path id="shapePath7" d="M108.651,101.186 C108.667,99.1599 107.065,99.1212 107.083,100.6 C106.949,108.028 100.666,111.686 96.1023,110.819 C89.0662,109.481 86.8205,102.496 86.8876,98.3831 C87.0948,85.6868 99.8754,76.3247 111.408,60.0486 C119.858,74.7393 133.805,86.2782 134.631,97.6343 C135.728,112.732 116.622,118.364 113.894,100.767 C113.718,99.524 112.254,98.9659 112.368,100.702 C112.782,105.525 112.193,107.533 117.633,119.421 L103.412,119.421 C106.561,113.867 108.437,107.047 108.651,101.186 L108.651,101.186 Z" style="stroke:none;fill-rule:nonzero;fill:#000000;fill-opacity:1;"/>
        </g>
        <g id="Shape8">
            <desc shapeID="8" type="0" basicInfo-basicType="0" basicInfo-roundedRectRadius="12" basicInfo-polygonSides="6" basicInfo-starPoints="5" bounding="rect(-23.895,-29.6864,47.79,59.3728)" text="" font-familyName="" font-pixelSize="20" font-bold="0" font-underline="0" font-alignment="1" strokeStyle="0" markerStart="0" markerEnd="0" shadowEnabled="0" shadowOffsetX="0" shadowOffsetY="2" shadowBlur="4" shadowOpacity="160" blurEnabled="0" blurRadius="4" transform="matrix(1,0,0,1,166.598,57.0697)" pers-center="0,0" pers-size="0,0" pers-start="0,0" pers-end="0,0" locked="0" mesh="" flag=""/>
            <path id="shapePath8" d="M164.469,68.5203 C164.484,66.4946 162.882,66.4559 162.9,67.9345 C162.766,75.3632 156.484,79.0209 151.919,78.1533 C144.883,76.8156 142.638,69.8312 142.705,65.7178 C142.912,53.0215 155.693,43.6594 167.225,27.3833 C175.675,42.074 189.622,53.6129 190.448,64.969 C191.546,80.067 172.439,85.6987 169.711,68.1017 C169.535,66.8587 168.071,66.3006 168.185,68.0367 C168.599,72.8593 168.01,74.8681 173.451,86.7561 L159.229,86.7561 C162.379,81.2012 164.254,74.3816 164.469,68.5204 L164.469,68.5203 Z" style="stroke:none;fill-rule:nonzero;fill:#000000;fill-opacity:1;"/>
        </g>
        <g id="Shape9">
            <desc shapeID="9" type="0" basicInfo-basicType="0" basicInfo-roundedRectRadius="12" basicInfo-polygonSides="6" basicInfo-starPoints="5" bounding="rect(-23.895,-29.6864,47.79,59.3729)" text="" font-familyName="" font-pixelSize="20" font-bold="0" font-underline="0" font-alignment="1" strokeStyle="0" markerStart="0" markerEnd="0" shadowEnabled="0" shadowOffsetX="0" shadowOffsetY="2" shadowBlur="4" shadowOpacity="160" blurEnabled="0" blurRadius="4" transform="matrix(1,0,0,1,166.598,122.4)" pers-center="0,0" pers-size="0,0" pers-start="0,0" pers-end="0,0" locked="0" mesh="" flag=""/>
            <path id="shapePath9" d="M164.469,133.851 C164.484,131.825 162.882,131.786 162.9,133.265 C162.766,140.694 156.484,144.352 151.919,143.484 C144.883,142.146 142.638,135.162 142.705,131.048 C142.912,118.352 155.693,108.99 167.225,92.7139 C175.675,107.405 189.622,118.943 190.448,130.3 C191.546,145.398 172.439,151.029 169.711,133.432 C169.535,132.189 168.071,131.631 168.185,133.367 C168.599,138.19 168.01,140.199 173.451,152.087 L159.229,152.087 C162.379,146.532 164.254,139.712 164.469,133.851 L164.469,133.851 Z" style="stroke:none;fill-rule:nonzero;fill:#000000;fill-opacity:1;"/>
        </g>
        <g id="Shape10">
            <desc shapeID="10" type="0" basicInfo-basicType="0" basicInfo-roundedRectRadius="12" basicInfo-polygonSides="6" basicInfo-starPoints="5" bounding="rect(-23.895,-29.6864,47.79,59.3729)" text="" font-familyName="" font-pixelSize="20" font-bold="0" font-underline="0" font-alignment="1" strokeStyle="0" markerStart="0" markerEnd="0" shadowEnabled="0" shadowOffsetX="0" shadowOffsetY="2" shadowBlur="4" shadowOpacity="160" blurEnabled="0" blurRadius="4" transform="matrix(1,0,0,1,55.0656,122.4)" pers-center="0,0" pers-size="0,0" pers-start="0,0" pers-end="0,0" locked="0" mesh="" flag=""/>
            <path id="shapePath10" d="M52.9359,133.851 C52.9509,131.825 51.3491,131.786 51.3673,133.265 C51.233,140.694 44.9508,144.352 40.3867,143.484 C33.3506,142.146 31.1049,135.162 31.172,131.048 C31.3792,118.352 44.1598,108.99 55.6922,92.7139 C64.1423,107.405 78.0894,118.943 78.9151,130.3 C80.0128,145.398 60.9062,151.029 58.1782,133.432 C58.0022,132.189 56.5385,131.631 56.6521,133.367 C57.0666,138.19 56.4772,140.199 61.9178,152.087 L47.6961,152.087 C50.8458,146.532 52.7215,139.712 52.9359,133.851 L52.9359,133.851 Z" style="stroke:none;fill-rule:nonzero;fill:#000000;fill-opacity:1;"/>
        </g>
        <g id="Shape11">
            <desc shapeID="11" type="0" basicInfo-basicType="0" basicInfo-roundedRectRadius="12" basicInfo-polygonSides="6" basicInfo-starPoints="5" bounding="rect(-23.895,-29.6864,47.79,59.3729)" text="" font-familyName="" font-pixelSize="20" font-bold="0" font-underline="0" font-alignment="1" strokeStyle="0" markerStart="0" markerEnd="0" shadowEnabled="0" shadowOffsetX="0" shadowOffsetY="2" shadowBlur="4" shadowOpacity="160" blurEnabled="0" blurRadius="4" transform="matrix(1,0,0,1,166.609,189.436)" pers-center="0,0" pers-size="0,0" pers-start="0,0" pers-end="0,0" locked="0" mesh="" flag=""/>
            <path id="shapePath11" d="M164.479,177.985 C164.495,180.011 162.893,180.05 162.911,178.571 C162.777,171.142 156.494,167.485 151.93,168.352 C144.894,169.69 142.648,176.674 142.716,180.788 C142.923,193.484 155.703,202.846 167.236,219.122 C175.686,204.432 189.633,192.893 190.459,181.537 C191.556,166.439 172.45,160.807 169.722,178.404 C169.546,179.647 168.082,180.205 168.196,178.469 C168.61,173.646 168.021,171.638 173.461,159.749 L159.24,159.749 C162.389,165.304 164.265,172.124 164.479,177.985 L164.479,177.985 Z" style="stroke:none;fill-rule:nonzero;fill:#000000;fill-opacity:1;"/>
        </g>
        <g id="Shape12">
            <desc shapeID="12" type="0" basicInfo-basicType="0" basicInfo-roundedRectRadius="12" basicInfo-polygonSides="6" basicInfo-starPoints="5" bounding="rect(-23.895,-29.6865,47.79,59.3729)" text="" font-familyName="" font-pixelSize="20" font-bold="0" font-underline="0" font-alignment="1" strokeStyle="0" markerStart="0" markerEnd="0" shadowEnabled="0" shadowOffsetX="0" shadowOffsetY="2" shadowBlur="4" shadowOpacity="160" blurEnabled="0" blurRadius="4" transform="matrix(1,0,0,1,166.609,254.767)" pers-center="0,0" pers-size="0,0" pers-start="0,0" pers-end="0,0" locked="0" mesh="" flag=""/>
            <path id="shapePath12" d="M164.479,243.316 C164.495,245.342 162.893,245.38 162.911,243.902 C162.777,236.473 156.494,232.815 151.93,233.683 C144.894,235.021 142.648,242.005 142.716,246.118 C142.923,258.815 155.703,268.177 167.236,284.453 C175.686,269.762 189.633,258.223 190.459,246.867 C191.556,231.769 172.45,226.138 169.722,243.734 C169.546,244.978 168.082,245.536 168.196,243.799 C168.61,238.977 168.021,236.968 173.461,225.08 L159.24,225.08 C162.389,230.635 164.265,237.455 164.479,243.316 Z" style="stroke:none;fill-rule:nonzero;fill:#000000;fill-opacity:1;"/>
        </g>
        <g id="Shape13">
            <desc shapeID="13" type="0" basicInfo-basicType="0" basicInfo-roundedRectRadius="12" basicInfo-polygonSides="6" basicInfo-starPoints="5" bounding="rect(-23.895,-29.6865,47.79,59.3729)" text="" font-familyName="" font-pixelSize="20" font-bold="0" font-underline="0" font-alignment="1" strokeStyle="0" markerStart="0" markerEnd="0" shadowEnabled="0" shadowOffsetX="0" shadowOffsetY="2" shadowBlur="4" shadowOpacity="160" blurEnabled="0" blurRadius="4" transform="matrix(1,0,0,1,111.26,222.101)" pers-center="0,0" pers-size="0,0" pers-start="0,0" pers-end="0,0" locked="0" mesh="" flag=""/>
            <path id="shapePath13" d="M109.13,210.651 C109.145,212.676 107.543,212.715 107.561,211.236 C107.427,203.808 101.145,200.15 96.5807,201.018 C89.5446,202.355 87.2989,209.34 87.366,213.453 C87.5732,226.149 100.354,235.511 111.886,251.788 C120.336,237.097 134.283,225.558 135.109,214.202 C136.207,199.104 117.1,193.472 114.372,211.069 C114.196,212.312 112.732,212.87 112.846,211.134 C113.261,206.312 112.671,204.303 118.112,192.415 L103.89,192.415 C107.04,197.97 108.915,204.789 109.13,210.651 Z" style="stroke:none;fill-rule:nonzero;fill:#000000;fill-opacity:1;"/>
        </g>
        <g id="Shape14">
            <desc shapeID="14" type="0" basicInfo-basicType="0" basicInfo-roundedRectRadius="12" basicInfo-polygonSides="6" basicInfo-starPoints="5" bounding="rect(-23.895,-29.6864,47.79,59.3729)" text="" font-familyName="" font-pixelSize="20" font-bold="0" font-underline="0" font-alignment="1" strokeStyle="0" markerStart="0" markerEnd="0" shadowEnabled="0" shadowOffsetX="0" shadowOffsetY="2" shadowBlur="4" shadowOpacity="160" blurEnabled="0" blurRadius="4" transform="matrix(1,0,0,1,55.0764,189.436)" pers-center="0,0" pers-size="0,0" pers-start="0,0" pers-end="0,0" locked="0" mesh="" flag=""/>
            <path id="shapePath14" d="M52.9467,177.985 C52.9617,180.011 51.3599,180.05 51.3781,178.571 C51.2438,171.142 44.9616,167.485 40.3975,168.352 C33.3614,169.69 31.1157,176.674 31.1828,180.788 C31.39,193.484 44.1706,202.846 55.703,219.122 C64.1531,204.432 78.1002,192.893 78.9259,181.537 C80.0236,166.439 60.917,160.807 58.189,178.404 C58.013,179.647 56.5493,180.205 56.6629,178.469 C57.0774,173.646 56.488,171.638 61.9286,159.749 L47.7069,159.749 C50.8566,165.304 52.7323,172.124 52.9467,177.985 L52.9467,177.985 Z" style="stroke:none;fill-rule:nonzero;fill:#000000;fill-opacity:1;"/>
        </g>
        <g id="Shape15">
            <desc shapeID="15" type="0" basicInfo-basicType="0" basicInfo-roundedRectRadius="12" basicInfo-polygonSides="6" basicInfo-starPoints="5" bounding="rect(-23.895,-29.6865,47.79,59.3729)" text="" font-familyName="" font-pixelSize="20" font-bold="0" font-underline="0" font-alignment="1" strokeStyle="0" markerStart="0" markerEnd="0" shadowEnabled="0" shadowOffsetX="0" shadowOffsetY="2" shadowBlur="4" shadowOpacity="160" blurEnabled="0" blurRadius="4" transform="matrix(1,0,0,1,55.0764,254.767)" pers-center="0,0" pers-size="0,0" pers-start="0,0" pers-end="0,0" locked="0" mesh="" flag=""/>
            <path id="shapePath15" d="M52.9467,243.316 C52.9617,245.342 51.3599,245.38 51.3781,243.902 C51.2438,236.473 44.9616,232.815 40.3975,233.683 C33.3614,235.021 31.1157,242.005 31.1828,246.118 C31.39,258.815 44.1706,268.177 55.703,284.453 C64.1531,269.762 78.1002,258.223 78.9259,246.867 C80.0236,231.769 60.917,226.138 58.189,243.734 C58.013,244.978 56.5493,245.536 56.6629,243.799 C57.0774,238.977 56.488,236.968 61.9286,225.08 L47.7069,225.08 C50.8566,230.635 52.7323,237.455 52.9467,243.316 Z" style="stroke:none;fill-rule:nonzero;fill:#000000;fill-opacity:1;"/>
        </g>
        <g id="Shape16">
            <desc shapeID="16" type="0" basicInfo-basicType="0" basicInfo-roundedRectRadius="12" basicInfo-polygonSides="6" basicInfo-starPoints="5" bounding="rect(-8.46007,-12.905,16.9201,25.8099)" text="" font-familyName="" font-pixelSize="20" font-bold="0" font-underline="0" font-alignment="1" strokeStyle="0" markerStart="0" markerEnd="0" shadowEnabled="0" shadowOffsetX="0" shadowOffsetY="2" shadowBlur="4" shadowOpacity="160" blurEnabled="0" blurRadius="4" transform="matrix(1,0,0,1,17.2141,63.3139)" pers-center="0,0" pers-size="0,0" pers-start="0,0" pers-end="0,0" locked="0" mesh="" flag=""/>
            <path id="shapePath16" d="M16.7893,69.8699 C16.7993,68.9984 15.894,69.4052 15.7715,69.6796 C14.6083,71.6652 12.9067,72.1273 11.2236,71.4114 C9.5563,70.7022 8.61938,69.131 8.76968,66.8892 C9.0799,63.4514 11.8051,59.6897 13.1247,57.563 C14.3767,55.6331 15.7526,53.3409 17.2014,50.4089 C18.8987,53.7721 19.7601,54.7295 21.6066,57.8004 C23.2326,60.5048 25.4991,63.1534 25.6741,66.4228 C25.6741,68.9077 24.6281,71.2546 22.2747,71.6822 C20.9433,71.9241 19.696,71.2406 18.7709,69.6453 C18.4891,69.2388 17.9221,69.4507 17.9316,70.0072 C18.0968,72.1005 18.887,73.9904 20.7611,76.2188 L13.874,76.2188 C15.2841,74.6429 16.7227,72.5152 16.7893,69.8699 Z" style="stroke:none;fill-rule:nonzero;fill:#000000;fill-opacity:1;"/>
        </g>
        <g id="Shape17">
            <desc shapeID="17" type="0" basicInfo-basicType="0" basicInfo-roundedRectRadius="12" basicInfo-polygonSides="6" basicInfo-starPoints="5" bounding="rect(-8.46001,-12.905,16.92,25.81)" text="" font-familyName="" font-pixelSize="20" font-bold="0" font-underline="0" font-alignment="1" strokeStyle="0" markerStart="0" markerEnd="0" shadowEnabled="0" shadowOffsetX="0" shadowOffsetY="2" shadowBlur="4" shadowOpacity="160" blurEnabled="0" blurRadius="4" transform="matrix(1,0,0,1,206.029,249.172)" pers-center="0,0" pers-size="0,0" pers-start="0,0" pers-end="0,0" locked="0" mesh="" flag=""/>
            <path id="shapePath17" d="M205.605,242.616 C205.615,243.487 204.709,243.08 204.587,242.806 C203.424,240.82 201.722,240.358 200.039,241.074 C198.372,241.783 197.435,243.354 197.585,245.596 C197.895,249.034 200.62,252.796 201.94,254.922 C203.192,256.852 204.568,259.145 206.017,262.077 C207.714,258.713 208.575,257.756 210.422,254.685 C212.048,251.981 214.314,249.332 214.489,246.063 C214.489,243.578 213.443,241.231 211.09,240.803 C209.758,240.561 208.511,241.245 207.586,242.84 C207.304,243.247 206.737,243.035 206.747,242.478 C206.912,240.385 207.702,238.495 209.576,236.267 L202.689,236.267 C204.099,237.843 205.538,239.97 205.605,242.616 Z" style="stroke:none;fill-rule:nonzero;fill:#000000;fill-opacity:1;"/>
        </g>
    </g>
</svg>
