<?xml version="1.0"?>
<svg version="1.1" xmlns="http://www.w3.org/2000/svg" xmlns:xlink="http://www.w3.org/1999/xlink" width="223" height="312">
    <desc iVinci="yes" version="4.5" gridStep="20" showGrid="no" snapToGrid="no" codePlatform="0"/>
    <g id="Layer1" opacity="1">
        <g id="Shape1">
            <desc shapeID="1" type="0" basicInfo-basicType="0" basicInfo-roundedRectRadius="12" basicInfo-polygonSides="6" basicInfo-starPoints="5" bounding="rect(-111.614,-155.906,223.228,311.811)" text="" font-familyName="" font-pixelSize="20" font-bold="0" font-underline="0" font-alignment="1" strokeStyle="0" markerStart="0" markerEnd="0" shadowEnabled="0" shadowOffsetX="0" shadowOffsetY="2" shadowBlur="4" shadowOpacity="160" blurEnabled="0" blurRadius="4" transform="matrix(1,0,0,1,111.614,155.906)" pers-center="0,0" pers-size="0,0" pers-start="0,0" pers-end="0,0" locked="0" mesh="" flag=""/>
            <path id="shapePath1" d="M3.05176e-05,9.35431 C3.05176e-05,4.18805 4.49744,-3.05176e-05 10.0453,-3.05176e-05 L213.183,-3.05176e-05 C218.731,-3.05176e-05 223.228,4.18805 223.228,9.35431 L223.228,302.457 C223.228,307.623 218.731,311.811 213.183,311.811 L10.0453,311.811 C4.49744,311.811 3.05176e-05,307.623 3.05176e-05,302.457 L3.05176e-05,9.35431 Z" style="stroke:#000000;stroke-opacity:1;stroke-width:0.996733;stroke-linejoin:miter;stroke-miterlimit:2;stroke-linecap:butt;fill-rule:evenodd;fill:#ffffff;fill-opacity:1;"/>
        </g>
        <g id="Shape2">
            <desc shapeID="2" type="0" basicInfo-basicType="0" basicInfo-roundedRectRadius="12" basicInfo-polygonSides="6" basicInfo-starPoints="5" bounding="rect(-9.49237,-16.3724,18.9847,32.7448)" text="" font-familyName="" font-pixelSize="20" font-bold="0" font-underline="0" font-alignment="1" strokeStyle="0" markerStart="0" markerEnd="0" shadowEnabled="0" shadowOffsetX="0" shadowOffsetY="2" shadowBlur="4" shadowOpacity="160" blurEnabled="0" blurRadius="4" transform="matrix(1,0,0,1,17.6662,30.3336)" pers-center="0,0" pers-size="0,0" pers-start="0,0" pers-end="0,0" locked="0" mesh="" flag=""/>
            <path id="shapePath2" d="M8.1738,46.6368 L8.33865,44.6181 C8.84808,38.3791 10.213,36.2718 17.9605,29.7629 C21.7202,26.6042 22.9546,25.0455 23.1284,23.2366 C23.6192,18.9767 19.7772,17.6459 17.2734,17.6228 C14.0313,17.593 10.3638,19.5343 12.1123,24.0367 L8.4758,25.1046 C7.74149,20.9044 8.49268,16.9626 11.9012,15.2122 C16.4474,12.9325 22.2812,13.8269 25.2246,17.4189 C27.2028,19.833 27.6525,23.1651 26.5924,25.7746 C23.4918,32.4462 12.9713,35.381 12.1017,43.094 L23.7328,43.094 L23.7328,38.799 L27.1585,38.799 L27.1585,46.706 L8.1738,46.6368 Z" style="stroke:none;fill-rule:nonzero;fill:#000000;fill-opacity:1;"/>
        </g>
        <g id="Shape3">
            <desc shapeID="3" type="0" basicInfo-basicType="0" basicInfo-roundedRectRadius="12" basicInfo-polygonSides="6" basicInfo-starPoints="5" bounding="rect(-9.49237,-16.3724,18.9847,32.7448)" text="" font-familyName="" font-pixelSize="20" font-bold="0" font-underline="0" font-alignment="1" strokeStyle="0" markerStart="0" markerEnd="0" shadowEnabled="0" shadowOffsetX="0" shadowOffsetY="2" shadowBlur="4" shadowOpacity="160" blurEnabled="0" blurRadius="4" transform="matrix(1,0,0,1,205.29,281.477)" pers-center="0,0" pers-size="0,0" pers-start="0,0" pers-end="0,0" locked="0" mesh="" flag=""/>
            <path id="shapePath3" d="M214.782,265.174 L214.617,267.193 C214.108,273.432 212.743,275.539 204.995,282.048 C201.236,285.207 200.001,286.765 199.828,288.574 C199.337,292.834 203.179,294.165 205.683,294.188 C208.925,294.218 212.592,292.277 210.844,287.774 L214.48,286.706 C215.214,290.906 214.463,294.848 211.055,296.599 C206.509,298.878 200.675,297.984 197.731,294.392 C195.753,291.978 195.303,288.646 196.364,286.036 C199.464,279.365 209.985,276.43 210.854,268.717 L199.223,268.717 L199.223,273.012 L195.797,273.012 L195.797,265.105 L214.782,265.174 Z" style="stroke:none;fill-rule:nonzero;fill:#000000;fill-opacity:1;"/>
        </g>
        <g id="Shape4">
            <desc shapeID="4" type="0" basicInfo-basicType="0" basicInfo-roundedRectRadius="12" basicInfo-polygonSides="6" basicInfo-starPoints="5" bounding="rect(-28.3268,-28.5706,56.6536,57.1412)" text="" font-familyName="" font-pixelSize="20" font-bold="0" font-underline="0" font-alignment="1" strokeStyle="0" markerStart="0" markerEnd="0" shadowEnabled="0" shadowOffsetX="0" shadowOffsetY="2" shadowBlur="4" shadowOpacity="160" blurEnabled="0" blurRadius="4" transform="matrix(1,0,0,1,111.579,56.7122)" pers-center="0,0" pers-size="0,0" pers-start="0,0" pers-end="0,0" locked="0" mesh="" flag=""/>
            <path id="shapePath4" d="M104.228,85.2828 C107.107,79.5073 109.204,73.5818 109.576,67.2455 C109.918,64.9138 108.501,64.8747 108.288,66.5169 C104.211,82.1097 82.5252,77.8873 83.2708,63.2204 C83.8758,51.3256 95.6903,48.7666 101.853,52.6559 C104.287,54.0887 104.149,53.2305 102.821,51.7441 C93.6662,41.5327 99.2109,28.3824 111.582,28.1417 C124.962,28.9351 128.433,43.0116 120.226,51.29 C119.206,52.2846 116.943,55.4814 120.349,53.2463 C128.636,47.3583 140.137,53.6891 139.902,62.7671 C139.469,79.506 119.063,80.7543 114.699,66.7728 C114.279,65.2227 113.07,64.4442 113.404,67.0771 C114.009,71.8437 115.26,79.0305 118.841,85.2828 L104.228,85.2828 Z" style="stroke:none;fill-rule:nonzero;fill:#000000;fill-opacity:1;"/>
        </g>
        <g id="Shape5">
            <desc shapeID="5" type="0" basicInfo-basicType="0" basicInfo-roundedRectRadius="12" basicInfo-polygonSides="6" basicInfo-starPoints="5" bounding="rect(-28.3268,-28.5706,56.6536,57.1411)" text="" font-familyName="" font-pixelSize="20" font-bold="0" font-underline="0" font-alignment="1" strokeStyle="0" markerStart="0" markerEnd="0" shadowEnabled="0" shadowOffsetX="0" shadowOffsetY="2" shadowBlur="4" shadowOpacity="160" blurEnabled="0" blurRadius="4" transform="matrix(1,0,0,1,111.579,255.52)" pers-center="0,0" pers-size="0,0" pers-start="0,0" pers-end="0,0" locked="0" mesh="" flag=""/>
            <path id="shapePath5" d="M118.93,226.95 C116.051,232.725 113.954,238.651 113.582,244.987 C113.24,247.319 114.656,247.358 114.87,245.716 C118.946,230.123 140.633,234.345 139.887,249.012 C139.282,260.907 127.467,263.466 121.305,259.577 C118.871,258.144 119.009,259.002 120.337,260.488 C129.492,270.7 123.947,283.85 111.576,284.091 C98.196,283.297 94.7244,269.221 102.931,260.943 C103.952,259.948 106.215,256.751 102.808,258.986 C94.5216,264.874 83.0211,258.543 83.2557,249.465 C83.6884,232.727 104.095,231.478 108.459,245.46 C108.879,247.01 110.088,247.788 109.754,245.155 C109.149,240.389 107.897,233.202 104.316,226.95 L118.93,226.95 Z" style="stroke:none;fill-rule:nonzero;fill:#000000;fill-opacity:1;"/>
        </g>
        <g id="Shape6">
            <desc shapeID="6" type="0" basicInfo-basicType="0" basicInfo-roundedRectRadius="12" basicInfo-polygonSides="6" basicInfo-starPoints="5" bounding="rect(-11.544,-11.9271,23.0879,23.8543)" text="" font-familyName="" font-pixelSize="20" font-bold="0" font-underline="0" font-alignment="1" strokeStyle="0" markerStart="0" markerEnd="0" shadowEnabled="0" shadowOffsetX="0" shadowOffsetY="2" shadowBlur="4" shadowOpacity="160" blurEnabled="0" blurRadius="4" transform="matrix(1,0,0,1,17.7523,62.7315)" pers-center="0,0" pers-size="0,0" pers-start="0,0" pers-end="0,0" locked="0" mesh="" flag=""/>
            <path id="shapePath6" d="M13.7076,74.6587 C14.8997,72.2136 16.0598,69.9379 16.6919,67.2578 C17.1111,64.7303 16.2536,65.6693 15.7667,67.326 C15.0455,69.6234 13.0441,70.6698 11.1867,70.6949 C7.81558,70.7404 6.134,68.0907 6.2388,65.241 C5.8707,62.2424 8.90979,60.1208 11.2005,60.2843 C12.9228,60.4072 14.4245,61.3363 15.3334,62.0594 C15.9297,62.3747 16.5674,62.514 15.6783,61.7009 C14.0007,59.868 12.6017,58.7368 12.6323,55.9901 C12.6613,53.4114 14.8658,50.722 17.7877,50.8063 C21.4392,50.9118 23.0997,53.6964 23.091,56.2869 C23.081,58.1752 22.1374,59.9131 20.6796,60.9895 C19.7354,61.7556 20.0002,62.3293 21.0773,61.6044 C22.1122,60.7123 23.3444,60.3218 24.6221,60.2944 C28.1126,60.2397 29.4771,63.2559 29.2772,66.0586 C29.0898,68.6843 26.8544,71.387 23.9082,71.0809 C21.2775,70.7794 19.8952,68.571 19.1031,66.304 C18.8408,65.6089 18.4271,65.4212 18.4386,66.4571 C19.0463,71.5145 20.9302,74.6615 20.9439,74.6587 L13.7076,74.6587 Z" style="stroke:none;fill-rule:nonzero;fill:#000000;fill-opacity:1;"/>
        </g>
        <g id="Shape7">
            <desc shapeID="7" type="0" basicInfo-basicType="0" basicInfo-roundedRectRadius="12" basicInfo-polygonSides="6" basicInfo-starPoints="5" bounding="rect(-11.544,-11.9271,23.0879,23.8543)" text="" font-familyName="" font-pixelSize="20" font-bold="0" font-underline="0" font-alignment="1" strokeStyle="0" markerStart="0" markerEnd="0" shadowEnabled="0" shadowOffsetX="0" shadowOffsetY="2" shadowBlur="4" shadowOpacity="160" blurEnabled="0" blurRadius="4" transform="matrix(1,0,0,1,205.476,249.003)" pers-center="0,0" pers-size="0,0" pers-start="0,0" pers-end="0,0" locked="0" mesh="" flag=""/>
            <path id="shapePath7" d="M209.521,237.076 C208.329,239.521 207.169,241.797 206.536,244.477 C206.117,247.004 206.975,246.065 207.462,244.409 C208.183,242.111 210.184,241.065 212.042,241.04 C215.413,240.994 217.094,243.644 216.99,246.494 C217.358,249.492 214.319,251.614 212.028,251.45 C210.306,251.327 208.804,250.398 207.895,249.675 C207.299,249.36 206.661,249.221 207.55,250.034 C209.228,251.867 210.627,252.998 210.596,255.745 C210.567,258.323 208.363,261.013 205.441,260.928 C201.789,260.823 200.129,258.038 200.137,255.448 C200.147,253.559 201.091,251.821 202.549,250.745 C203.493,249.979 203.228,249.405 202.151,250.13 C201.116,251.022 199.884,251.413 198.606,251.44 C195.116,251.495 193.751,248.479 193.951,245.676 C194.139,243.05 196.374,240.348 199.32,240.654 C201.951,240.955 203.333,243.164 204.125,245.431 C204.388,246.126 204.801,246.313 204.79,245.278 C204.182,240.22 202.298,237.073 202.284,237.076 L209.521,237.076 Z" style="stroke:none;fill-rule:nonzero;fill:#000000;fill-opacity:1;"/>
        </g>
    </g>
</svg>
