<?xml version="1.0"?>
<svg version="1.1" xmlns="http://www.w3.org/2000/svg" xmlns:xlink="http://www.w3.org/1999/xlink" width="223" height="312">
    <desc iVinci="yes" version="4.5" gridStep="20" showGrid="no" snapToGrid="no" codePlatform="0"/>
    <g id="Layer1" opacity="1">
        <g id="Shape1">
            <desc shapeID="1" type="0" basicInfo-basicType="0" basicInfo-roundedRectRadius="12" basicInfo-polygonSides="6" basicInfo-starPoints="5" bounding="rect(-111.614,-155.906,223.228,311.811)" text="" font-familyName="" font-pixelSize="20" font-bold="0" font-underline="0" font-alignment="1" strokeStyle="0" markerStart="0" markerEnd="0" shadowEnabled="0" shadowOffsetX="0" shadowOffsetY="2" shadowBlur="4" shadowOpacity="160" blurEnabled="0" blurRadius="4" transform="matrix(1,0,0,1,111.614,155.906)" pers-center="0,0" pers-size="0,0" pers-start="0,0" pers-end="0,0" locked="0" mesh="" flag=""/>
            <path id="shapePath1" d="M0,9.35432 C0,4.18806 4.49741,-1.52588e-05 10.0453,-1.52588e-05 L213.183,-1.52588e-05 C218.731,-1.52588e-05 223.228,4.18806 223.228,9.35432 L223.228,302.457 C223.228,307.623 218.731,311.811 213.183,311.811 L10.0453,311.811 C4.49741,311.811 0,307.623 0,302.457 L0,9.35432 Z" style="stroke:#000000;stroke-opacity:1;stroke-width:0.996733;stroke-linejoin:miter;stroke-miterlimit:2;stroke-linecap:butt;fill-rule:evenodd;fill:#ffffff;fill-opacity:1;"/>
        </g>
        <g id="Shape2">
            <desc shapeID="2" type="0" basicInfo-basicType="0" basicInfo-roundedRectRadius="12" basicInfo-polygonSides="6" basicInfo-starPoints="5" bounding="rect(-22.2267,-30.1534,44.4533,60.3067)" text="" font-familyName="" font-pixelSize="20" font-bold="0" font-underline="0" font-alignment="1" strokeStyle="0" markerStart="0" markerEnd="0" shadowEnabled="0" shadowOffsetX="0" shadowOffsetY="2" shadowBlur="4" shadowOpacity="160" blurEnabled="0" blurRadius="4" transform="matrix(1,0,0,1,111.715,56.7123)" pers-center="0,0" pers-size="0,0" pers-start="0,0" pers-end="0,0" locked="0" mesh="" flag=""/>
            <path id="shapePath2" d="M89.4885,56.9478 C99.4091,47.2664 105.925,36.7105 112.156,26.5589 C117.62,37.7289 125.462,47.5012 133.942,56.9478 C124.869,66.3164 117.837,76.3342 112.183,86.8656 C105.915,76.07 99.3167,66.294 89.4885,56.9478 Z" style="stroke:none;fill-rule:nonzero;fill:#d40000;fill-opacity:1;"/>
        </g>
        <g id="Shape3">
            <desc shapeID="3" type="0" basicInfo-basicType="0" basicInfo-roundedRectRadius="12" basicInfo-polygonSides="6" basicInfo-starPoints="5" bounding="rect(-22.2267,-30.1534,44.4533,60.3067)" text="" font-familyName="" font-pixelSize="20" font-bold="0" font-underline="0" font-alignment="1" strokeStyle="0" markerStart="0" markerEnd="0" shadowEnabled="0" shadowOffsetX="0" shadowOffsetY="2" shadowBlur="4" shadowOpacity="160" blurEnabled="0" blurRadius="4" transform="matrix(1,0,0,1,111.715,255.52)" pers-center="0,0" pers-size="0,0" pers-start="0,0" pers-end="0,0" locked="0" mesh="" flag=""/>
            <path id="shapePath3" d="M89.4885,255.756 C99.4091,246.074 105.925,235.519 112.156,225.367 C117.62,236.537 125.462,246.309 133.942,255.756 C124.869,265.124 117.837,275.142 112.183,285.674 C105.915,274.878 99.3167,265.102 89.4885,255.756 Z" style="stroke:none;fill-rule:nonzero;fill:#d40000;fill-opacity:1;"/>
        </g>
        <g id="Shape4">
            <desc shapeID="4" type="0" basicInfo-basicType="0" basicInfo-roundedRectRadius="12" basicInfo-polygonSides="6" basicInfo-starPoints="5" bounding="rect(-9.10498,-12.3521,18.21,24.7042)" text="" font-familyName="" font-pixelSize="20" font-bold="0" font-underline="0" font-alignment="1" strokeStyle="0" markerStart="0" markerEnd="0" shadowEnabled="0" shadowOffsetX="0" shadowOffsetY="2" shadowBlur="4" shadowOpacity="160" blurEnabled="0" blurRadius="4" transform="matrix(1,0,0,1,205.612,249.003)" pers-center="0,0" pers-size="0,0" pers-start="0,0" pers-end="0,0" locked="0" mesh="" flag=""/>
            <path id="shapePath4" d="M196.507,249.1 C200.571,245.134 203.24,240.809 205.793,236.651 C208.031,241.227 211.243,245.23 214.717,249.1 C211,252.937 208.12,257.041 205.804,261.355 C203.236,256.933 200.533,252.928 196.507,249.1 Z" style="stroke:none;fill-rule:nonzero;fill:#d40000;fill-opacity:1;"/>
        </g>
        <g id="Shape5">
            <desc shapeID="5" type="0" basicInfo-basicType="0" basicInfo-roundedRectRadius="12" basicInfo-polygonSides="6" basicInfo-starPoints="5" bounding="rect(-9.10501,-12.3521,18.21,24.7042)" text="" font-familyName="" font-pixelSize="20" font-bold="0" font-underline="0" font-alignment="1" strokeStyle="0" markerStart="0" markerEnd="0" shadowEnabled="0" shadowOffsetX="0" shadowOffsetY="2" shadowBlur="4" shadowOpacity="160" blurEnabled="0" blurRadius="4" transform="matrix(1,0,0,1,17.8885,62.7315)" pers-center="0,0" pers-size="0,0" pers-start="0,0" pers-end="0,0" locked="0" mesh="" flag=""/>
            <path id="shapePath5" d="M8.78348,62.828 C12.8474,58.862 15.5164,54.5379 18.0689,50.3794 C20.3073,54.9551 23.5196,58.9582 26.9935,62.828 C23.2766,66.6658 20.3961,70.7695 18.08,75.0836 C15.5125,70.6612 12.8095,66.6566 8.78348,62.828 Z" style="stroke:none;fill-rule:nonzero;fill:#d40000;fill-opacity:1;"/>
        </g>
        <g id="Shape6">
            <desc shapeID="6" type="0" basicInfo-basicType="0" basicInfo-roundedRectRadius="12" basicInfo-polygonSides="6" basicInfo-starPoints="5" bounding="rect(-9.49237,-16.3724,18.9847,32.7448)" text="" font-familyName="" font-pixelSize="20" font-bold="0" font-underline="0" font-alignment="1" strokeStyle="0" markerStart="0" markerEnd="0" shadowEnabled="0" shadowOffsetX="0" shadowOffsetY="2" shadowBlur="4" shadowOpacity="160" blurEnabled="0" blurRadius="4" transform="matrix(1,0,0,1,17.8024,30.3336)" pers-center="0,0" pers-size="0,0" pers-start="0,0" pers-end="0,0" locked="0" mesh="" flag=""/>
            <path id="shapePath6" d="M8.31,46.6368 L8.47485,44.6181 C8.98428,38.3791 10.3492,36.2718 18.0967,29.7629 C21.8564,26.6042 23.0907,25.0454 23.2646,23.2366 C23.7554,18.9767 19.9134,17.6458 17.4096,17.6228 C14.1675,17.5929 10.5,19.5343 12.2485,24.0367 L8.612,25.1046 C7.87769,20.9044 8.62888,16.9626 12.0374,15.2121 C16.5836,12.9324 22.4174,13.8269 25.3608,17.4189 C27.339,19.833 27.7887,23.1651 26.7286,25.7746 C23.628,32.4462 13.1075,35.381 12.2379,43.094 L23.869,43.094 L23.869,38.7989 L27.2947,38.7989 L27.2947,46.706 L8.31,46.6368 Z" style="stroke:none;fill-rule:nonzero;fill:#d40000;fill-opacity:1;"/>
        </g>
        <g id="Shape7">
            <desc shapeID="7" type="0" basicInfo-basicType="0" basicInfo-roundedRectRadius="12" basicInfo-polygonSides="6" basicInfo-starPoints="5" bounding="rect(-9.49237,-16.3724,18.9847,32.7448)" text="" font-familyName="" font-pixelSize="20" font-bold="0" font-underline="0" font-alignment="1" strokeStyle="0" markerStart="0" markerEnd="0" shadowEnabled="0" shadowOffsetX="0" shadowOffsetY="2" shadowBlur="4" shadowOpacity="160" blurEnabled="0" blurRadius="4" transform="matrix(1,0,0,1,205.426,281.477)" pers-center="0,0" pers-size="0,0" pers-start="0,0" pers-end="0,0" locked="0" mesh="" flag=""/>
            <path id="shapePath7" d="M214.918,265.174 L214.754,267.193 C214.244,273.432 212.879,275.539 205.132,282.048 C201.372,285.207 200.138,286.765 199.964,288.574 C199.473,292.834 203.315,294.165 205.819,294.188 C209.061,294.218 212.728,292.277 210.98,287.774 L214.616,286.706 C215.351,290.906 214.599,294.848 211.191,296.599 C206.645,298.878 200.811,297.984 197.868,294.392 C195.889,291.978 195.44,288.646 196.5,286.036 C199.6,279.365 210.121,276.43 210.99,268.717 L199.359,268.717 L199.359,273.012 L195.934,273.012 L195.934,265.105 L214.918,265.174 Z" style="stroke:none;fill-rule:nonzero;fill:#d40000;fill-opacity:1;"/>
        </g>
    </g>
</svg>
