<?xml version="1.0"?>
<svg version="1.1" xmlns="http://www.w3.org/2000/svg" xmlns:xlink="http://www.w3.org/1999/xlink" width="223" height="312">
    <desc iVinci="yes" version="4.5" gridStep="20" showGrid="no" snapToGrid="no" codePlatform="0"/>
    <g id="Layer1" opacity="1">
        <g id="Shape1">
            <desc shapeID="1" type="0" basicInfo-basicType="0" basicInfo-roundedRectRadius="12" basicInfo-polygonSides="6" basicInfo-starPoints="5" bounding="rect(-111.614,-155.906,223.228,311.811)" text="" font-familyName="" font-pixelSize="20" font-bold="0" font-underline="0" font-alignment="1" strokeStyle="0" markerStart="0" markerEnd="0" shadowEnabled="0" shadowOffsetX="0" shadowOffsetY="2" shadowBlur="4" shadowOpacity="160" blurEnabled="0" blurRadius="4" transform="matrix(1,0,0,1,111.614,155.906)" pers-center="0,0" pers-size="0,0" pers-start="0,0" pers-end="0,0" locked="0" mesh="" flag=""/>
            <path id="shapePath1" d="M0,9.35431 C0,4.18805 4.49741,-3.05176e-05 10.0453,-3.05176e-05 L213.183,-3.05176e-05 C218.731,-3.05176e-05 223.228,4.18805 223.228,9.35431 L223.228,302.457 C223.228,307.623 218.731,311.811 213.183,311.811 L10.0453,311.811 C4.49741,311.811 0,307.623 0,302.457 L0,9.35431 Z" style="stroke:#000000;stroke-opacity:1;stroke-width:0.996733;stroke-linejoin:miter;stroke-miterlimit:2;stroke-linecap:butt;fill-rule:evenodd;fill:#ffffff;fill-opacity:1;"/>
        </g>
        <g id="Shape2">
            <desc shapeID="2" type="0" basicInfo-basicType="0" basicInfo-roundedRectRadius="12" basicInfo-polygonSides="6" basicInfo-starPoints="5" bounding="rect(-9.675,-12.8329,19.35,25.6659)" text="" font-familyName="" font-pixelSize="20" font-bold="0" font-underline="0" font-alignment="1" strokeStyle="0" markerStart="0" markerEnd="0" shadowEnabled="0" shadowOffsetX="0" shadowOffsetY="2" shadowBlur="4" shadowOpacity="160" blurEnabled="0" blurRadius="4" transform="matrix(1,0,0,1,17.7523,62.7315)" pers-center="0,0" pers-size="0,0" pers-start="0,0" pers-end="0,0" locked="0" mesh="" flag=""/>
            <path id="shapePath2" d="M9.07977,60.2315 C7.49677,56.7592 7.32306,50.8261 12.0509,50.0235 C15.613,49.565 17.0626,51.2218 17.3508,53.7653 C17.493,54.5084 17.9125,54.5538 18.0456,53.707 C18.25,51.0976 20.8328,49.5744 22.852,49.9571 C28.3786,50.9025 28.0559,56.9855 26.2505,61.1126 C23.5196,66.5921 20.6499,70.0502 18.0055,75.5645 C14.9673,69.8235 11.4982,65.1594 9.07977,60.2315 L9.07977,60.2315 Z" style="stroke:none;fill-rule:nonzero;fill:#d40000;fill-opacity:1;"/>
        </g>
        <g id="Shape3">
            <desc shapeID="3" type="0" basicInfo-basicType="0" basicInfo-roundedRectRadius="12" basicInfo-polygonSides="6" basicInfo-starPoints="5" bounding="rect(-9.675,-12.8329,19.35,25.6658)" text="" font-familyName="" font-pixelSize="20" font-bold="0" font-underline="0" font-alignment="1" strokeStyle="0" markerStart="0" markerEnd="0" shadowEnabled="0" shadowOffsetX="0" shadowOffsetY="2" shadowBlur="4" shadowOpacity="160" blurEnabled="0" blurRadius="4" transform="matrix(1,0,0,1,205.476,249.003)" pers-center="0,0" pers-size="0,0" pers-start="0,0" pers-end="0,0" locked="0" mesh="" flag=""/>
            <path id="shapePath3" d="M196.804,251.503 C195.221,254.975 195.047,260.909 199.775,261.711 C203.337,262.17 204.786,260.513 205.075,257.969 C205.217,257.226 205.636,257.181 205.769,258.028 C205.974,260.637 208.557,262.16 210.576,261.778 C216.102,260.832 215.78,254.749 213.974,250.622 C211.243,245.143 208.374,241.684 205.729,236.17 C202.691,241.911 199.222,246.575 196.804,251.503 L196.804,251.503 Z" style="stroke:none;fill-rule:nonzero;fill:#d40000;fill-opacity:1;"/>
        </g>
        <g id="Shape4">
            <desc shapeID="4" type="0" basicInfo-basicType="0" basicInfo-roundedRectRadius="12" basicInfo-polygonSides="6" basicInfo-starPoints="5" bounding="rect(-9.49234,-16.3724,18.9847,32.7448)" text="" font-familyName="" font-pixelSize="20" font-bold="0" font-underline="0" font-alignment="1" strokeStyle="0" markerStart="0" markerEnd="0" shadowEnabled="0" shadowOffsetX="0" shadowOffsetY="2" shadowBlur="4" shadowOpacity="160" blurEnabled="0" blurRadius="4" transform="matrix(1,0,0,1,17.6661,30.3336)" pers-center="0,0" pers-size="0,0" pers-start="0,0" pers-end="0,0" locked="0" mesh="" flag=""/>
            <path id="shapePath4" d="M8.1738,46.6368 L8.33862,44.6181 C8.84805,38.3791 10.213,36.2718 17.9605,29.7629 C21.7202,26.6042 22.9545,25.0455 23.1283,23.2366 C23.6192,18.9767 19.7772,17.6459 17.2734,17.6228 C14.0313,17.593 10.3637,19.5343 12.1123,24.0367 L8.47577,25.1046 C7.74146,20.9044 8.49265,16.9626 11.9012,15.2122 C16.4474,12.9325 22.2812,13.8269 25.2246,17.4189 C27.2028,19.833 27.6525,23.1651 26.5924,25.7746 C23.4917,32.4462 12.9713,35.381 12.1017,43.094 L23.7328,43.094 L23.7328,38.799 L27.1585,38.799 L27.1585,46.706 L8.1738,46.6368 Z" style="stroke:none;fill-rule:nonzero;fill:#d40000;fill-opacity:1;"/>
        </g>
        <g id="Shape5">
            <desc shapeID="5" type="0" basicInfo-basicType="0" basicInfo-roundedRectRadius="12" basicInfo-polygonSides="6" basicInfo-starPoints="5" bounding="rect(-9.49234,-16.3724,18.9847,32.7448)" text="" font-familyName="" font-pixelSize="20" font-bold="0" font-underline="0" font-alignment="1" strokeStyle="0" markerStart="0" markerEnd="0" shadowEnabled="0" shadowOffsetX="0" shadowOffsetY="2" shadowBlur="4" shadowOpacity="160" blurEnabled="0" blurRadius="4" transform="matrix(1,0,0,1,205.29,281.477)" pers-center="0,0" pers-size="0,0" pers-start="0,0" pers-end="0,0" locked="0" mesh="" flag=""/>
            <path id="shapePath5" d="M214.782,265.174 L214.617,267.193 C214.108,273.432 212.743,275.539 204.995,282.048 C201.236,285.207 200.001,286.765 199.828,288.574 C199.337,292.834 203.179,294.165 205.683,294.188 C208.925,294.218 212.592,292.277 210.844,287.774 L214.48,286.706 C215.214,290.906 214.463,294.848 211.055,296.599 C206.508,298.878 200.675,297.984 197.731,294.392 C195.753,291.978 195.303,288.646 196.364,286.036 C199.464,279.365 209.985,276.43 210.854,268.717 L199.223,268.717 L199.223,273.012 L195.797,273.012 L195.797,265.105 L214.782,265.174 Z" style="stroke:none;fill-rule:nonzero;fill:#d40000;fill-opacity:1;"/>
        </g>
        <g id="Shape6">
            <desc shapeID="6" type="0" basicInfo-basicType="0" basicInfo-roundedRectRadius="12" basicInfo-polygonSides="6" basicInfo-starPoints="5" bounding="rect(-23.58,-28.946,47.16,57.892)" text="" font-familyName="" font-pixelSize="20" font-bold="0" font-underline="0" font-alignment="1" strokeStyle="0" markerStart="0" markerEnd="0" shadowEnabled="0" shadowOffsetX="0" shadowOffsetY="2" shadowBlur="4" shadowOpacity="160" blurEnabled="0" blurRadius="4" transform="matrix(1,0,0,1,111.579,56.7123)" pers-center="0,0" pers-size="0,0" pers-start="0,0" pers-end="0,0" locked="0" mesh="" flag=""/>
            <path id="shapePath6" d="M99.5292,27.9656 C106.673,27.4912 110.398,33.593 111.124,38.4021 C111.558,39.166 111.795,38.9507 111.961,38.3598 C112.311,32.1856 117.836,27.1396 122.954,27.8296 C131.282,27.9379 136.343,37.205 134.92,45.0483 C133.182,54.6299 128.021,60.3994 124.112,66.3415 C119.691,72.4938 113.74,81.381 111.822,85.6583 C111.822,85.6583 105.774,76.4538 97.9052,65.6287 C92.6434,58.3902 88.4321,50.5464 88.0401,43.7933 C87.5922,36.0779 90.7594,29.1616 99.5292,27.9657 L99.5292,27.9656 Z" style="stroke:none;fill-rule:nonzero;fill:#d40000;fill-opacity:1;"/>
        </g>
        <g id="Shape7">
            <desc shapeID="7" type="0" basicInfo-basicType="0" basicInfo-roundedRectRadius="12" basicInfo-polygonSides="6" basicInfo-starPoints="5" bounding="rect(-23.58,-28.946,47.16,57.892)" text="" font-familyName="" font-pixelSize="20" font-bold="0" font-underline="0" font-alignment="1" strokeStyle="0" markerStart="0" markerEnd="0" shadowEnabled="0" shadowOffsetX="0" shadowOffsetY="2" shadowBlur="4" shadowOpacity="160" blurEnabled="0" blurRadius="4" transform="matrix(1,0,0,1,111.579,255.52)" pers-center="0,0" pers-size="0,0" pers-start="0,0" pers-end="0,0" locked="0" mesh="" flag=""/>
            <path id="shapePath7" d="M99.5292,284.267 C106.673,284.741 110.398,278.64 111.124,273.831 C111.558,273.067 111.795,273.282 111.961,273.873 C112.311,280.047 117.836,285.093 122.954,284.403 C131.282,284.295 136.343,275.028 134.92,267.184 C133.182,257.603 128.021,251.833 124.112,245.891 C119.691,239.739 113.74,230.852 111.822,226.574 C111.822,226.574 105.774,235.779 97.9052,246.604 C92.6434,253.842 88.4321,261.686 88.0401,268.439 C87.5922,276.155 90.7594,283.071 99.5292,284.267 L99.5292,284.267 Z" style="stroke:none;fill-rule:nonzero;fill:#d40000;fill-opacity:1;"/>
        </g>
    </g>
</svg>
