<?xml version="1.0"?>
<svg version="1.1" xmlns="http://www.w3.org/2000/svg" xmlns:xlink="http://www.w3.org/1999/xlink" width="223" height="312">
    <desc iVinci="yes" version="4.5" gridStep="20" showGrid="no" snapToGrid="no" codePlatform="0"/>
    <g id="Layer1" opacity="1">
        <g id="Shape1">
            <desc shapeID="1" type="0" basicInfo-basicType="0" basicInfo-roundedRectRadius="12" basicInfo-polygonSides="6" basicInfo-starPoints="5" bounding="rect(-111.614,-155.906,223.228,311.811)" text="" font-familyName="" font-pixelSize="20" font-bold="0" font-underline="0" font-alignment="1" strokeStyle="0" markerStart="0" markerEnd="0" shadowEnabled="0" shadowOffsetX="0" shadowOffsetY="2" shadowBlur="4" shadowOpacity="160" blurEnabled="0" blurRadius="4" transform="matrix(1,0,0,1,111.614,155.906)" pers-center="0,0" pers-size="0,0" pers-start="0,0" pers-end="0,0" locked="0" mesh="" flag=""/>
            <path id="shapePath1" d="M0,9.35431 C0,4.18805 4.49741,-3.05176e-05 10.0453,-3.05176e-05 L213.183,-3.05176e-05 C218.731,-3.05176e-05 223.228,4.18805 223.228,9.35431 L223.228,302.457 C223.228,307.623 218.731,311.811 213.183,311.811 L10.0453,311.811 C4.49741,311.811 0,307.623 0,302.457 L0,9.35431 Z" style="stroke:#000000;stroke-opacity:1;stroke-width:0.996733;stroke-linejoin:miter;stroke-miterlimit:2;stroke-linecap:butt;fill-rule:evenodd;fill:#ffffff;fill-opacity:1;"/>
        </g>
        <g id="Shape2">
            <desc shapeID="2" type="0" basicInfo-basicType="0" basicInfo-roundedRectRadius="12" basicInfo-polygonSides="6" basicInfo-starPoints="5" bounding="rect(-9.49237,-16.3724,18.9847,32.7448)" text="" font-familyName="" font-pixelSize="20" font-bold="0" font-underline="0" font-alignment="1" strokeStyle="0" markerStart="0" markerEnd="0" shadowEnabled="0" shadowOffsetX="0" shadowOffsetY="2" shadowBlur="4" shadowOpacity="160" blurEnabled="0" blurRadius="4" transform="matrix(1,0,0,1,17.8024,30.3336)" pers-center="0,0" pers-size="0,0" pers-start="0,0" pers-end="0,0" locked="0" mesh="" flag=""/>
            <path id="shapePath2" d="M8.31,46.6368 L8.47485,44.6181 C8.98428,38.3791 10.3492,36.2718 18.0967,29.7628 C21.8564,26.6042 23.0907,25.0454 23.2646,23.2366 C23.7554,18.9767 19.9134,17.6458 17.4096,17.6227 C14.1675,17.5929 10.5,19.5343 12.2485,24.0367 L8.612,25.1046 C7.87769,20.9044 8.62888,16.9626 12.0374,15.2121 C16.5836,12.9324 22.4174,13.8269 25.3608,17.4189 C27.339,19.833 27.7887,23.1651 26.7286,25.7746 C23.628,32.4461 13.1075,35.381 12.2379,43.094 L23.869,43.094 L23.869,38.7989 L27.2947,38.7989 L27.2947,46.706 L8.31,46.6368 Z" style="stroke:none;fill-rule:nonzero;fill:#000000;fill-opacity:1;"/>
        </g>
        <g id="Shape3">
            <desc shapeID="3" type="0" basicInfo-basicType="0" basicInfo-roundedRectRadius="12" basicInfo-polygonSides="6" basicInfo-starPoints="5" bounding="rect(-9.49237,-16.3724,18.9847,32.7448)" text="" font-familyName="" font-pixelSize="20" font-bold="0" font-underline="0" font-alignment="1" strokeStyle="0" markerStart="0" markerEnd="0" shadowEnabled="0" shadowOffsetX="0" shadowOffsetY="2" shadowBlur="4" shadowOpacity="160" blurEnabled="0" blurRadius="4" transform="matrix(1,0,0,1,205.426,281.477)" pers-center="0,0" pers-size="0,0" pers-start="0,0" pers-end="0,0" locked="0" mesh="" flag=""/>
            <path id="shapePath3" d="M214.918,265.174 L214.754,267.193 C214.244,273.432 212.879,275.539 205.132,282.048 C201.372,285.207 200.138,286.765 199.964,288.574 C199.473,292.834 203.315,294.165 205.819,294.188 C209.061,294.218 212.728,292.277 210.98,287.774 L214.616,286.706 C215.351,290.906 214.599,294.848 211.191,296.599 C206.645,298.878 200.811,297.984 197.868,294.392 C195.889,291.978 195.44,288.646 196.5,286.036 C199.6,279.365 210.121,276.43 210.99,268.717 L199.359,268.717 L199.359,273.012 L195.934,273.012 L195.934,265.105 L214.918,265.174 Z" style="stroke:none;fill-rule:nonzero;fill:#000000;fill-opacity:1;"/>
        </g>
        <g id="Shape4">
            <desc shapeID="4" type="0" basicInfo-basicType="0" basicInfo-roundedRectRadius="12" basicInfo-polygonSides="6" basicInfo-starPoints="5" bounding="rect(-23.895,-29.6864,47.79,59.3729)" text="" font-familyName="" font-pixelSize="20" font-bold="0" font-underline="0" font-alignment="1" strokeStyle="0" markerStart="0" markerEnd="0" shadowEnabled="0" shadowOffsetX="0" shadowOffsetY="2" shadowBlur="4" shadowOpacity="160" blurEnabled="0" blurRadius="4" transform="matrix(1,0,0,1,112.701,56.7122)" pers-center="0,0" pers-size="0,0" pers-start="0,0" pers-end="0,0" locked="0" mesh="" flag=""/>
            <path id="shapePath4" d="M110.571,68.1628 C110.586,66.1371 108.984,66.0984 109.003,67.5771 C108.868,75.0057 102.586,78.6635 98.022,77.7958 C90.9859,76.4582 88.7402,69.4737 88.8073,65.3604 C89.0145,52.6641 101.795,43.3019 113.327,27.0258 C121.778,41.7166 135.725,53.2554 136.55,64.6115 C137.648,79.7096 118.542,85.3412 115.814,67.7443 C115.637,66.5012 114.174,65.9431 114.287,67.6793 C114.702,72.5018 114.112,74.5106 119.553,86.3987 L105.331,86.3987 C108.481,80.8438 110.357,74.0241 110.571,68.1629 L110.571,68.1628 Z" style="stroke:none;fill-rule:nonzero;fill:#000000;fill-opacity:1;"/>
        </g>
        <g id="Shape5">
            <desc shapeID="5" type="0" basicInfo-basicType="0" basicInfo-roundedRectRadius="12" basicInfo-polygonSides="6" basicInfo-starPoints="5" bounding="rect(-23.895,-29.6865,47.79,59.3729)" text="" font-familyName="" font-pixelSize="20" font-bold="0" font-underline="0" font-alignment="1" strokeStyle="0" markerStart="0" markerEnd="0" shadowEnabled="0" shadowOffsetX="0" shadowOffsetY="2" shadowBlur="4" shadowOpacity="160" blurEnabled="0" blurRadius="4" transform="matrix(1,0,0,1,112.712,255.546)" pers-center="0,0" pers-size="0,0" pers-start="0,0" pers-end="0,0" locked="0" mesh="" flag=""/>
            <path id="shapePath5" d="M110.582,244.095 C110.597,246.121 108.995,246.16 109.013,244.681 C108.879,237.252 102.597,233.594 98.0328,234.462 C90.9967,235.8 88.751,242.784 88.8181,246.898 C89.0253,259.594 101.806,268.956 113.338,285.232 C121.788,270.541 135.736,259.003 136.561,247.646 C137.659,232.548 118.552,226.917 115.824,244.514 C115.648,245.757 114.185,246.315 114.298,244.579 C114.713,239.756 114.123,237.747 119.564,225.859 L105.342,225.859 C108.492,231.414 110.368,238.234 110.582,244.095 Z" style="stroke:none;fill-rule:nonzero;fill:#000000;fill-opacity:1;"/>
        </g>
        <g id="Shape6">
            <desc shapeID="6" type="0" basicInfo-basicType="0" basicInfo-roundedRectRadius="12" basicInfo-polygonSides="6" basicInfo-starPoints="5" bounding="rect(-8.46001,-12.905,16.92,25.8099)" text="" font-familyName="" font-pixelSize="20" font-bold="0" font-underline="0" font-alignment="1" strokeStyle="0" markerStart="0" markerEnd="0" shadowEnabled="0" shadowOffsetX="0" shadowOffsetY="2" shadowBlur="4" shadowOpacity="160" blurEnabled="0" blurRadius="4" transform="matrix(1,0,0,1,18.8826,62.7315)" pers-center="0,0" pers-size="0,0" pers-start="0,0" pers-end="0,0" locked="0" mesh="" flag=""/>
            <path id="shapePath6" d="M18.4579,69.2875 C18.4679,68.416 17.5626,68.8229 17.4401,69.0972 C16.2769,71.0828 14.5753,71.5449 12.8922,70.829 C11.2249,70.1199 10.288,68.5487 10.4383,66.3069 C10.7485,62.869 13.4737,59.1073 14.7933,56.9807 C16.0453,55.0508 17.4212,52.7585 18.87,49.8266 C20.5672,53.1898 21.4286,54.1471 23.2751,57.218 C24.9011,59.9225 27.1676,62.571 27.3426,65.8404 C27.3426,68.3253 26.2966,70.6722 23.9432,71.0998 C22.6118,71.3417 21.3645,70.6583 20.4394,69.063 C20.1576,68.6564 19.5907,68.8683 19.6002,69.4249 C19.7653,71.5182 20.5555,73.4081 22.4296,75.6365 L15.5426,75.6365 C16.9527,74.0605 18.3913,71.9328 18.4579,69.2875 Z" style="stroke:none;fill-rule:nonzero;fill:#000000;fill-opacity:1;"/>
        </g>
        <g id="Shape7">
            <desc shapeID="7" type="0" basicInfo-basicType="0" basicInfo-roundedRectRadius="12" basicInfo-polygonSides="6" basicInfo-starPoints="5" bounding="rect(-8.46001,-12.905,16.92,25.81)" text="" font-familyName="" font-pixelSize="20" font-bold="0" font-underline="0" font-alignment="1" strokeStyle="0" markerStart="0" markerEnd="0" shadowEnabled="0" shadowOffsetX="0" shadowOffsetY="2" shadowBlur="4" shadowOpacity="160" blurEnabled="0" blurRadius="4" transform="matrix(1,0,0,1,206.607,249.003)" pers-center="0,0" pers-size="0,0" pers-start="0,0" pers-end="0,0" locked="0" mesh="" flag=""/>
            <path id="shapePath7" d="M206.182,242.447 C206.192,243.319 205.286,242.912 205.164,242.637 C204.001,240.652 202.299,240.19 200.616,240.906 C198.949,241.615 198.012,243.186 198.162,245.428 C198.472,248.866 201.198,252.627 202.517,254.754 C203.769,256.684 205.145,258.976 206.594,261.908 C208.291,258.545 209.152,257.587 210.999,254.517 C212.625,251.812 214.892,249.164 215.066,245.894 C215.066,243.409 214.021,241.062 211.667,240.635 C210.336,240.393 209.088,241.076 208.163,242.672 C207.882,243.078 207.315,242.866 207.324,242.31 C207.489,240.216 208.279,238.327 210.154,236.098 L203.267,236.098 C204.677,237.674 206.115,239.802 206.182,242.447 Z" style="stroke:none;fill-rule:nonzero;fill:#000000;fill-opacity:1;"/>
        </g>
    </g>
</svg>
