<?xml version="1.0"?>
<svg version="1.1" xmlns="http://www.w3.org/2000/svg" xmlns:xlink="http://www.w3.org/1999/xlink" width="223" height="312">
    <desc iVinci="yes" version="4.5" gridStep="20" showGrid="no" snapToGrid="no" codePlatform="0"/>
    <g id="Layer1" opacity="1">
        <g id="Shape1">
            <desc shapeID="1" type="0" basicInfo-basicType="0" basicInfo-roundedRectRadius="12" basicInfo-polygonSides="6" basicInfo-starPoints="5" bounding="rect(-111.614,-155.906,223.228,311.811)" text="" font-familyName="" font-pixelSize="20" font-bold="0" font-underline="0" font-alignment="1" strokeStyle="0" markerStart="0" markerEnd="0" shadowEnabled="0" shadowOffsetX="0" shadowOffsetY="2" shadowBlur="4" shadowOpacity="160" blurEnabled="0" blurRadius="4" transform="matrix(1,0,0,1,111.614,155.906)" pers-center="0,0" pers-size="0,0" pers-start="0,0" pers-end="0,0" locked="0" mesh="" flag=""/>
            <path id="shapePath1" d="M0,9.35434 C0,4.18808 4.49741,0 10.0453,0 L213.183,0 C218.731,0 223.228,4.18808 223.228,9.35434 L223.228,302.457 C223.228,307.623 218.731,311.811 213.183,311.811 L10.0453,311.811 C4.49741,311.811 0,307.623 0,302.457 L0,9.35434 Z" style="stroke:#000000;stroke-opacity:1;stroke-width:0.996733;stroke-linejoin:miter;stroke-miterlimit:2;stroke-linecap:butt;fill-rule:evenodd;fill:#ffffff;fill-opacity:1;"/>
        </g>
        <g id="Shape2">
            <desc shapeID="2" type="0" basicInfo-basicType="0" basicInfo-roundedRectRadius="12" basicInfo-polygonSides="6" basicInfo-starPoints="5" bounding="rect(-10.8663,-16.4354,21.7326,32.8707)" text="" font-familyName="" font-pixelSize="20" font-bold="0" font-underline="0" font-alignment="1" strokeStyle="0" markerStart="0" markerEnd="0" shadowEnabled="0" shadowOffsetX="0" shadowOffsetY="2" shadowBlur="4" shadowOpacity="160" blurEnabled="0" blurRadius="4" transform="matrix(1,0,0,1,17.7781,28.5831)" pers-center="0,0" pers-size="0,0" pers-start="0,0" pers-end="0,0" locked="0" mesh="" flag=""/>
            <path id="shapePath2" d="M6.91177,37.8116 L9.48959,35.9495 C11.7301,39.5257 14.2311,41.883 18.0566,41.4775 C23.7983,41.0914 26.1759,35.1827 24.974,30.727 C23.8134,26.7348 19.058,24.7871 15.2805,26.919 C14.3898,27.4218 13.3595,28.0425 13.3595,28.0425 L12.0147,25.8506 L20.8837,15.5333 L11.2591,15.5333 L11.2591,19.8036 L7.56583,19.8036 L7.56583,12.1478 L26.3784,12.1478 L26.3784,14.7462 C26.3784,14.7462 21.3395,19.876 19.6715,22.6879 C23.7753,22.8371 27.0823,25.3887 28.2659,29.4261 C28.9605,31.5498 28.6483,36.4101 27.7429,38.5019 C26.2313,41.9945 22.0918,44.8268 18.3093,44.9904 C11.9634,45.4096 8.59216,41.0416 6.91177,37.8116 Z" style="stroke:none;fill-rule:nonzero;fill:#000000;fill-opacity:1;"/>
        </g>
        <g id="Shape3">
            <desc shapeID="3" type="0" basicInfo-basicType="0" basicInfo-roundedRectRadius="12" basicInfo-polygonSides="6" basicInfo-starPoints="5" bounding="rect(-10.8663,-16.4354,21.7326,32.8708)" text="" font-familyName="" font-pixelSize="20" font-bold="0" font-underline="0" font-alignment="1" strokeStyle="0" markerStart="0" markerEnd="0" shadowEnabled="0" shadowOffsetX="0" shadowOffsetY="2" shadowBlur="4" shadowOpacity="160" blurEnabled="0" blurRadius="4" transform="matrix(1,0,0,1,204.854,283.228)" pers-center="0,0" pers-size="0,0" pers-start="0,0" pers-end="0,0" locked="0" mesh="" flag=""/>
            <path id="shapePath3" d="M215.721,273.999 L213.143,275.861 C210.902,272.285 208.401,269.928 204.576,270.333 C198.834,270.72 196.457,276.628 197.658,281.084 C198.819,285.076 203.574,287.024 207.352,284.892 C208.243,284.389 209.273,283.864 209.273,283.864 L210.865,285.922 L201.749,296.278 L211.373,296.278 L211.373,292.007 L215.067,292.007 L215.067,299.663 L196.254,299.663 L196.254,297.065 C196.254,297.065 201.293,291.935 202.961,289.123 C198.857,288.974 195.55,286.422 194.367,282.385 C193.672,280.261 193.984,275.401 194.89,273.309 C196.401,269.816 200.541,266.984 204.323,266.821 C210.669,266.401 214.04,270.769 215.721,273.999 Z" style="stroke:none;fill-rule:nonzero;fill:#000000;fill-opacity:1;"/>
        </g>
        <g id="Shape4">
            <desc shapeID="4" type="0" basicInfo-basicType="0" basicInfo-roundedRectRadius="12" basicInfo-polygonSides="6" basicInfo-starPoints="5" bounding="rect(-28.6671,-28.9138,57.3342,57.8276)" text="" font-familyName="" font-pixelSize="20" font-bold="0" font-underline="0" font-alignment="1" strokeStyle="0" markerStart="0" markerEnd="0" shadowEnabled="0" shadowOffsetX="0" shadowOffsetY="2" shadowBlur="4" shadowOpacity="160" blurEnabled="0" blurRadius="4" transform="matrix(1,0,0,1,111.316,155.906)" pers-center="0,0" pers-size="0,0" pers-start="0,0" pers-end="0,0" locked="0" mesh="" flag=""/>
            <path id="shapePath4" d="M103.877,184.819 C106.791,178.974 108.913,172.978 109.289,166.565 C109.635,164.206 108.202,164.166 107.986,165.828 C103.86,181.608 81.9136,177.335 82.6681,162.492 C83.2804,150.454 95.2368,147.864 101.474,151.8 C103.936,153.25 103.797,152.382 102.453,150.878 C93.1884,140.544 98.7997,127.235 111.32,126.992 C124.86,127.795 128.373,142.04 120.068,150.418 C119.035,151.425 116.745,154.66 120.192,152.398 C128.579,146.439 140.217,152.846 139.98,162.033 C139.542,178.973 118.89,180.236 114.474,166.087 C114.049,164.518 112.825,163.73 113.163,166.395 C113.775,171.219 115.042,178.492 118.666,184.819 L103.877,184.819 Z" style="stroke:none;fill-rule:nonzero;fill:#000000;fill-opacity:1;"/>
        </g>
        <g id="Shape5">
            <desc shapeID="5" type="0" basicInfo-basicType="0" basicInfo-roundedRectRadius="12" basicInfo-polygonSides="6" basicInfo-starPoints="5" bounding="rect(-28.6671,-28.9138,57.3342,57.8276)" text="" font-familyName="" font-pixelSize="20" font-bold="0" font-underline="0" font-alignment="1" strokeStyle="0" markerStart="0" markerEnd="0" shadowEnabled="0" shadowOffsetX="0" shadowOffsetY="2" shadowBlur="4" shadowOpacity="160" blurEnabled="0" blurRadius="4" transform="matrix(1,0,0,1,111.252,56.3013)" pers-center="0,0" pers-size="0,0" pers-start="0,0" pers-end="0,0" locked="0" mesh="" flag=""/>
            <path id="shapePath5" d="M103.813,85.2151 C106.726,79.3702 108.848,73.3736 109.225,66.9611 C109.571,64.6014 108.138,64.5619 107.922,66.2238 C103.796,82.0039 81.8493,77.7308 82.6039,62.8877 C83.2161,50.85 95.1725,48.2603 101.409,52.1962 C103.872,53.6462 103.733,52.7777 102.389,51.2735 C93.1241,40.9394 98.7354,27.6311 111.255,27.3875 C124.796,28.1905 128.309,42.436 120.003,50.8139 C118.971,51.8205 116.68,55.0556 120.128,52.7937 C128.514,46.835 140.153,53.2419 139.915,62.4289 C139.478,79.3688 118.826,80.6322 114.41,66.4828 C113.985,64.914 112.761,64.1261 113.099,66.7907 C113.711,71.6146 114.978,78.8877 118.602,85.2151 L103.813,85.2151 Z" style="stroke:none;fill-rule:nonzero;fill:#000000;fill-opacity:1;"/>
        </g>
        <g id="Shape6">
            <desc shapeID="6" type="0" basicInfo-basicType="0" basicInfo-roundedRectRadius="12" basicInfo-polygonSides="6" basicInfo-starPoints="5" bounding="rect(-28.6671,-28.9138,57.3342,57.8276)" text="" font-familyName="" font-pixelSize="20" font-bold="0" font-underline="0" font-alignment="1" strokeStyle="0" markerStart="0" markerEnd="0" shadowEnabled="0" shadowOffsetX="0" shadowOffsetY="2" shadowBlur="4" shadowOpacity="160" blurEnabled="0" blurRadius="4" transform="matrix(1,0,0,1,111.252,255.772)" pers-center="0,0" pers-size="0,0" pers-start="0,0" pers-end="0,0" locked="0" mesh="" flag=""/>
            <path id="shapePath6" d="M118.691,226.858 C115.778,232.703 113.656,238.7 113.279,245.112 C112.933,247.472 114.367,247.512 114.583,245.85 C118.708,230.07 140.655,234.343 139.9,249.186 C139.288,261.224 127.332,263.813 121.095,259.877 C118.632,258.427 118.771,259.296 120.115,260.8 C129.38,271.134 123.769,284.442 111.249,284.686 C97.7084,283.883 94.1951,269.637 102.501,261.26 C103.534,260.253 105.824,257.018 102.376,259.28 C93.9898,265.238 82.3512,258.832 82.5886,249.645 C83.0265,232.705 103.678,231.441 108.095,245.591 C108.519,247.16 109.743,247.947 109.405,245.283 C108.793,240.459 107.526,233.186 103.902,226.858 L118.691,226.858 Z" style="stroke:none;fill-rule:nonzero;fill:#000000;fill-opacity:1;"/>
        </g>
        <g id="Shape7">
            <desc shapeID="7" type="0" basicInfo-basicType="0" basicInfo-roundedRectRadius="12" basicInfo-polygonSides="6" basicInfo-starPoints="5" bounding="rect(-11.6826,-12.0704,23.3653,24.1409)" text="" font-familyName="" font-pixelSize="20" font-bold="0" font-underline="0" font-alignment="1" strokeStyle="0" markerStart="0" markerEnd="0" shadowEnabled="0" shadowOffsetX="0" shadowOffsetY="2" shadowBlur="4" shadowOpacity="160" blurEnabled="0" blurRadius="4" transform="matrix(1,0,0,1,16.9976,62.0504)" pers-center="0,0" pers-size="0,0" pers-start="0,0" pers-end="0,0" locked="0" mesh="" flag=""/>
            <path id="shapePath7" d="M12.9044,74.1208 C14.1108,71.6464 15.2849,69.3433 15.9245,66.631 C16.3488,64.0731 15.481,65.0234 14.9882,66.7 C14.2584,69.0251 12.2329,70.084 10.3532,70.1094 C6.94159,70.1554 5.23981,67.4739 5.34586,64.59 C4.97333,61.5554 8.04895,59.4083 10.3672,59.5737 C12.1101,59.6981 13.6299,60.6384 14.5497,61.3701 C15.1532,61.6892 15.7985,61.8302 14.8987,61.0074 C13.201,59.1524 11.7852,58.0076 11.8162,55.2279 C11.8455,52.6183 14.0765,49.8965 17.0335,49.9819 C20.7289,50.0886 22.4093,52.9067 22.4005,55.5283 C22.3904,57.4393 21.4355,59.1981 19.9601,60.2874 C19.0046,61.0627 19.2726,61.6433 20.3626,60.9096 C21.4099,60.0069 22.657,59.6117 23.95,59.584 C27.4824,59.5286 28.8633,62.581 28.661,65.4174 C28.4714,68.0746 26.2091,70.8098 23.2275,70.5 C20.5652,70.1949 19.1663,67.96 18.3647,65.6658 C18.0992,64.9623 17.6806,64.7723 17.6922,65.8207 C18.3072,70.9388 20.2137,74.1237 20.2276,74.1208 L12.9044,74.1208 Z" style="stroke:none;fill-rule:nonzero;fill:#000000;fill-opacity:1;"/>
        </g>
        <g id="Shape8">
            <desc shapeID="8" type="0" basicInfo-basicType="0" basicInfo-roundedRectRadius="12" basicInfo-polygonSides="6" basicInfo-starPoints="5" bounding="rect(-11.6826,-12.0704,23.3653,24.1409)" text="" font-familyName="" font-pixelSize="20" font-bold="0" font-underline="0" font-alignment="1" strokeStyle="0" markerStart="0" markerEnd="0" shadowEnabled="0" shadowOffsetX="0" shadowOffsetY="2" shadowBlur="4" shadowOpacity="160" blurEnabled="0" blurRadius="4" transform="matrix(1,0,0,1,206.231,250.499)" pers-center="0,0" pers-size="0,0" pers-start="0,0" pers-end="0,0" locked="0" mesh="" flag=""/>
            <path id="shapePath8" d="M210.324,238.429 C209.118,240.903 207.944,243.206 207.304,245.919 C206.88,248.477 207.747,247.526 208.24,245.85 C208.97,243.525 210.995,242.466 212.875,242.44 C216.287,242.394 217.989,245.076 217.883,247.96 C218.255,250.994 215.179,253.141 212.861,252.976 C211.118,252.852 209.598,251.911 208.679,251.179 C208.075,250.86 207.43,250.719 208.33,251.542 C210.027,253.397 211.443,254.542 211.412,257.322 C211.383,259.931 209.152,262.653 206.195,262.568 C202.5,262.461 200.819,259.643 200.828,257.021 C200.838,255.11 201.793,253.351 203.268,252.262 C204.224,251.487 203.956,250.906 202.866,251.64 C201.818,252.543 200.571,252.938 199.278,252.966 C195.746,253.021 194.365,249.969 194.567,247.132 C194.757,244.475 197.019,241.74 200.001,242.05 C202.663,242.355 204.062,244.59 204.864,246.884 C205.129,247.587 205.548,247.777 205.536,246.729 C204.921,241.611 203.015,238.426 203.001,238.429 L210.324,238.429 Z" style="stroke:none;fill-rule:nonzero;fill:#000000;fill-opacity:1;"/>
        </g>
    </g>
</svg>
