<?xml version="1.0"?>
<svg version="1.1" xmlns="http://www.w3.org/2000/svg" xmlns:xlink="http://www.w3.org/1999/xlink" width="223" height="312">
    <desc iVinci="yes" version="4.5" gridStep="20" showGrid="no" snapToGrid="no" codePlatform="0"/>
    <g id="Layer1" opacity="1">
        <g id="Shape1">
            <desc shapeID="1" type="0" basicInfo-basicType="0" basicInfo-roundedRectRadius="12" basicInfo-polygonSides="6" basicInfo-starPoints="5" bounding="rect(-111.614,-155.906,223.228,311.811)" text="" font-familyName="" font-pixelSize="20" font-bold="0" font-underline="0" font-alignment="1" strokeStyle="0" markerStart="0" markerEnd="0" shadowEnabled="0" shadowOffsetX="0" shadowOffsetY="2" shadowBlur="4" shadowOpacity="160" blurEnabled="0" blurRadius="4" transform="matrix(1,0,0,1,111.614,155.906)" pers-center="0,0" pers-size="0,0" pers-start="0,0" pers-end="0,0" locked="0" mesh="" flag=""/>
            <path id="shapePath1" d="M0,9.35431 C0,4.18805 4.49741,-3.05176e-05 10.0453,-3.05176e-05 L213.183,-3.05176e-05 C218.731,-3.05176e-05 223.228,4.18805 223.228,9.35431 L223.228,302.457 C223.228,307.623 218.731,311.811 213.183,311.811 L10.0453,311.811 C4.49741,311.811 0,307.623 0,302.457 L0,9.35431 Z" style="stroke:#000000;stroke-opacity:1;stroke-width:0.996733;stroke-linejoin:miter;stroke-miterlimit:2;stroke-linecap:butt;fill-rule:evenodd;fill:#ffffff;fill-opacity:1;"/>
        </g>
        <g id="Shape2">
            <desc shapeID="2" type="0" basicInfo-basicType="0" basicInfo-roundedRectRadius="12" basicInfo-polygonSides="6" basicInfo-starPoints="5" bounding="rect(-22.2267,-30.1534,44.4533,60.3067)" text="" font-familyName="" font-pixelSize="20" font-bold="0" font-underline="0" font-alignment="1" strokeStyle="0" markerStart="0" markerEnd="0" shadowEnabled="0" shadowOffsetX="0" shadowOffsetY="2" shadowBlur="4" shadowOpacity="160" blurEnabled="0" blurRadius="4" transform="matrix(1,0,0,1,111.551,57.4836)" pers-center="0,0" pers-size="0,0" pers-start="0,0" pers-end="0,0" locked="0" mesh="" flag=""/>
            <path id="shapePath2" d="M89.3241,57.7192 C99.2448,48.0377 105.76,37.4818 111.991,27.3303 C117.456,38.5003 125.297,48.2726 133.777,57.7192 C124.704,67.0878 117.672,77.1055 112.018,87.637 C105.751,76.8413 99.1523,67.0654 89.3241,57.7192 Z" style="stroke:none;fill-rule:nonzero;fill:#d40000;fill-opacity:1;"/>
        </g>
        <g id="Shape3">
            <desc shapeID="3" type="0" basicInfo-basicType="0" basicInfo-roundedRectRadius="12" basicInfo-polygonSides="6" basicInfo-starPoints="5" bounding="rect(-22.2267,-30.1533,44.4534,60.3067)" text="" font-familyName="" font-pixelSize="20" font-bold="0" font-underline="0" font-alignment="1" strokeStyle="0" markerStart="0" markerEnd="0" shadowEnabled="0" shadowOffsetX="0" shadowOffsetY="2" shadowBlur="4" shadowOpacity="160" blurEnabled="0" blurRadius="4" transform="matrix(1,0,0,1,111.551,254.587)" pers-center="0,0" pers-size="0,0" pers-start="0,0" pers-end="0,0" locked="0" mesh="" flag=""/>
            <path id="shapePath3" d="M89.3241,254.822 C99.2448,245.141 105.76,234.585 111.991,224.433 C117.456,235.603 125.297,245.376 133.777,254.822 C124.704,264.191 117.672,274.208 112.018,284.74 C105.751,273.944 99.1523,264.168 89.3241,254.822 Z" style="stroke:none;fill-rule:nonzero;fill:#d40000;fill-opacity:1;"/>
        </g>
        <g id="Shape4">
            <desc shapeID="4" type="0" basicInfo-basicType="0" basicInfo-roundedRectRadius="12" basicInfo-polygonSides="6" basicInfo-starPoints="5" bounding="rect(-22.2267,-30.1534,44.4534,60.3067)" text="" font-familyName="" font-pixelSize="20" font-bold="0" font-underline="0" font-alignment="1" strokeStyle="0" markerStart="0" markerEnd="0" shadowEnabled="0" shadowOffsetX="0" shadowOffsetY="2" shadowBlur="4" shadowOpacity="160" blurEnabled="0" blurRadius="4" transform="matrix(1,0,0,1,111.551,155.951)" pers-center="0,0" pers-size="0,0" pers-start="0,0" pers-end="0,0" locked="0" mesh="" flag=""/>
            <path id="shapePath4" d="M89.3241,156.186 C99.2448,146.505 105.76,135.949 111.991,125.798 C117.456,136.968 125.297,146.74 133.777,156.186 C124.704,165.555 117.672,175.573 112.018,186.104 C105.751,175.309 99.1523,165.533 89.3241,156.186 Z" style="stroke:none;fill-rule:nonzero;fill:#d40000;fill-opacity:1;"/>
        </g>
        <g id="Shape5">
            <desc shapeID="5" type="0" basicInfo-basicType="0" basicInfo-roundedRectRadius="12" basicInfo-polygonSides="6" basicInfo-starPoints="5" bounding="rect(-9.10501,-12.3521,18.21,24.7042)" text="" font-familyName="" font-pixelSize="20" font-bold="0" font-underline="0" font-alignment="1" strokeStyle="0" markerStart="0" markerEnd="0" shadowEnabled="0" shadowOffsetX="0" shadowOffsetY="2" shadowBlur="4" shadowOpacity="160" blurEnabled="0" blurRadius="4" transform="matrix(1,0,0,1,205.402,249.376)" pers-center="0,0" pers-size="0,0" pers-start="0,0" pers-end="0,0" locked="0" mesh="" flag=""/>
            <path id="shapePath5" d="M196.297,249.473 C200.361,245.507 203.03,241.183 205.583,237.024 C207.821,241.6 211.033,245.603 214.507,249.473 C210.79,253.311 207.91,257.414 205.594,261.728 C203.026,257.306 200.323,253.301 196.297,249.473 Z" style="stroke:none;fill-rule:nonzero;fill:#d40000;fill-opacity:1;"/>
        </g>
        <g id="Shape6">
            <desc shapeID="6" type="0" basicInfo-basicType="0" basicInfo-roundedRectRadius="12" basicInfo-polygonSides="6" basicInfo-starPoints="5" bounding="rect(-9.10498,-12.3521,18.21,24.7042)" text="" font-familyName="" font-pixelSize="20" font-bold="0" font-underline="0" font-alignment="1" strokeStyle="0" markerStart="0" markerEnd="0" shadowEnabled="0" shadowOffsetX="0" shadowOffsetY="2" shadowBlur="4" shadowOpacity="160" blurEnabled="0" blurRadius="4" transform="matrix(1,0,0,1,18.4153,63.1644)" pers-center="0,0" pers-size="0,0" pers-start="0,0" pers-end="0,0" locked="0" mesh="" flag=""/>
            <path id="shapePath6" d="M9.3103,63.2609 C13.3742,59.295 16.0432,54.9709 18.5957,50.8123 C20.8341,55.388 24.0464,59.3912 27.5203,63.2609 C23.8035,67.0987 20.9229,71.2024 18.6068,75.5165 C16.0393,71.0941 13.3363,67.0895 9.3103,63.2609 Z" style="stroke:none;fill-rule:nonzero;fill:#d40000;fill-opacity:1;"/>
        </g>
        <g id="Shape7">
            <desc shapeID="7" type="0" basicInfo-basicType="0" basicInfo-roundedRectRadius="12" basicInfo-polygonSides="6" basicInfo-starPoints="5" bounding="rect(-10.7373,-16.2403,21.4746,32.4805)" text="" font-familyName="" font-pixelSize="20" font-bold="0" font-underline="0" font-alignment="1" strokeStyle="0" markerStart="0" markerEnd="0" shadowEnabled="0" shadowOffsetX="0" shadowOffsetY="2" shadowBlur="4" shadowOpacity="160" blurEnabled="0" blurRadius="4" transform="matrix(1,0,0,1,19.1864,30.0945)" pers-center="0,0" pers-size="0,0" pers-start="0,0" pers-end="0,0" locked="0" mesh="" flag=""/>
            <path id="shapePath7" d="M8.44913,39.2134 L10.9963,37.3734 C13.2103,40.9072 15.6816,43.2365 19.4616,42.8358 C25.1352,42.4542 27.4845,36.6157 26.2969,32.2129 C25.1501,28.268 20.4512,26.3435 16.7185,28.4501 C15.8383,28.9469 14.8203,29.5603 14.8203,29.5603 L13.4915,27.3944 L22.2552,17.1995 L12.7448,17.1995 L12.7448,21.4191 L9.0954,21.4191 L9.0954,13.8542 L27.6847,13.8542 L27.6847,16.4218 C27.6847,16.4218 22.7056,21.4907 21.0574,24.2692 C25.1125,24.4167 28.3802,26.938 29.5497,30.9275 C30.2361,33.0259 29.9276,37.8285 29.033,39.8954 C27.5393,43.3466 23.4489,46.1453 19.7114,46.307 C13.4408,46.7212 10.1096,42.405 8.44913,39.2134 Z" style="stroke:none;fill-rule:nonzero;fill:#d40000;fill-opacity:1;"/>
        </g>
        <g id="Shape8">
            <desc shapeID="8" type="0" basicInfo-basicType="0" basicInfo-roundedRectRadius="12" basicInfo-polygonSides="6" basicInfo-starPoints="5" bounding="rect(-10.7373,-16.2403,21.4746,32.4806)" text="" font-familyName="" font-pixelSize="20" font-bold="0" font-underline="0" font-alignment="1" strokeStyle="0" markerStart="0" markerEnd="0" shadowEnabled="0" shadowOffsetX="0" shadowOffsetY="2" shadowBlur="4" shadowOpacity="160" blurEnabled="0" blurRadius="4" transform="matrix(1,0,0,1,204.042,281.716)" pers-center="0,0" pers-size="0,0" pers-start="0,0" pers-end="0,0" locked="0" mesh="" flag=""/>
            <path id="shapePath8" d="M214.779,272.597 L212.232,274.437 C210.018,270.904 207.547,268.574 203.767,268.975 C198.093,269.357 195.744,275.195 196.932,279.598 C198.078,283.543 202.777,285.467 206.51,283.361 C207.39,282.864 208.408,282.345 208.408,282.345 L209.982,284.379 L200.973,294.611 L210.484,294.611 L210.484,290.392 L214.133,290.392 L214.133,297.957 L195.544,297.957 L195.544,295.389 C195.544,295.389 200.523,290.32 202.171,287.542 C198.116,287.394 194.848,284.873 193.679,280.883 C192.992,278.785 193.301,273.982 194.195,271.915 C195.689,268.464 199.78,265.666 203.517,265.504 C209.788,265.09 213.119,269.406 214.779,272.597 Z" style="stroke:none;fill-rule:nonzero;fill:#d40000;fill-opacity:1;"/>
        </g>
    </g>
</svg>
