<?xml version="1.0"?>
<svg version="1.1" xmlns="http://www.w3.org/2000/svg" xmlns:xlink="http://www.w3.org/1999/xlink" width="223" height="312">
    <desc iVinci="yes" version="4.5" gridStep="20" showGrid="no" snapToGrid="no" codePlatform="0"/>
    <g id="Layer1" opacity="1">
        <g id="Shape1">
            <desc shapeID="1" type="0" basicInfo-basicType="0" basicInfo-roundedRectRadius="12" basicInfo-polygonSides="6" basicInfo-starPoints="5" bounding="rect(-111.614,-155.906,223.228,311.811)" text="" font-familyName="" font-pixelSize="20" font-bold="0" font-underline="0" font-alignment="1" strokeStyle="0" markerStart="0" markerEnd="0" shadowEnabled="0" shadowOffsetX="0" shadowOffsetY="2" shadowBlur="4" shadowOpacity="160" blurEnabled="0" blurRadius="4" transform="matrix(1,0,0,1,111.614,155.906)" pers-center="0,0" pers-size="0,0" pers-start="0,0" pers-end="0,0" locked="0" mesh="" flag=""/>
            <path id="shapePath1" d="M0,9.35431 C0,4.18805 4.49741,-3.05176e-05 10.0453,-3.05176e-05 L213.183,-3.05176e-05 C218.731,-3.05176e-05 223.228,4.18805 223.228,9.35431 L223.228,302.457 C223.228,307.623 218.731,311.811 213.183,311.811 L10.0453,311.811 C4.49741,311.811 0,307.623 0,302.457 L0,9.35431 Z" style="stroke:#000000;stroke-opacity:1;stroke-width:0.996733;stroke-linejoin:miter;stroke-miterlimit:2;stroke-linecap:butt;fill-rule:evenodd;fill:#ffffff;fill-opacity:1;"/>
        </g>
        <g id="Shape2">
            <desc shapeID="2" type="0" basicInfo-basicType="0" basicInfo-roundedRectRadius="12" basicInfo-polygonSides="6" basicInfo-starPoints="5" bounding="rect(-10.7373,-16.2403,21.4746,32.4805)" text="" font-familyName="" font-pixelSize="20" font-bold="0" font-underline="0" font-alignment="1" strokeStyle="0" markerStart="0" markerEnd="0" shadowEnabled="0" shadowOffsetX="0" shadowOffsetY="2" shadowBlur="4" shadowOpacity="160" blurEnabled="0" blurRadius="4" transform="matrix(1,0,0,1,19.1864,30.0945)" pers-center="0,0" pers-size="0,0" pers-start="0,0" pers-end="0,0" locked="0" mesh="" flag=""/>
            <path id="shapePath2" d="M8.44913,39.2134 L10.9963,37.3734 C13.2103,40.9072 15.6816,43.2365 19.4616,42.8358 C25.1352,42.4542 27.4845,36.6157 26.2969,32.2129 C25.1501,28.268 20.4512,26.3435 16.7185,28.4501 C15.8383,28.9469 14.8203,29.5603 14.8203,29.5603 L13.4915,27.3944 L22.2552,17.1995 L12.7448,17.1995 L12.7448,21.4191 L9.0954,21.4191 L9.0954,13.8542 L27.6847,13.8542 L27.6847,16.4218 C27.6847,16.4218 22.7056,21.4907 21.0574,24.2692 C25.1125,24.4167 28.3802,26.938 29.5497,30.9275 C30.2361,33.0259 29.9276,37.8286 29.033,39.8954 C27.5393,43.3466 23.4489,46.1453 19.7114,46.307 C13.4408,46.7212 10.1096,42.405 8.44913,39.2134 Z" style="stroke:none;fill-rule:nonzero;fill:#d40000;fill-opacity:1;"/>
        </g>
        <g id="Shape3">
            <desc shapeID="3" type="0" basicInfo-basicType="0" basicInfo-roundedRectRadius="12" basicInfo-polygonSides="6" basicInfo-starPoints="5" bounding="rect(-10.7373,-16.2403,21.4746,32.4806)" text="" font-familyName="" font-pixelSize="20" font-bold="0" font-underline="0" font-alignment="1" strokeStyle="0" markerStart="0" markerEnd="0" shadowEnabled="0" shadowOffsetX="0" shadowOffsetY="2" shadowBlur="4" shadowOpacity="160" blurEnabled="0" blurRadius="4" transform="matrix(1,0,0,1,204.042,281.716)" pers-center="0,0" pers-size="0,0" pers-start="0,0" pers-end="0,0" locked="0" mesh="" flag=""/>
            <path id="shapePath3" d="M214.779,272.597 L212.232,274.437 C210.018,270.904 207.547,268.574 203.767,268.975 C198.093,269.357 195.744,275.195 196.932,279.598 C198.078,283.543 202.777,285.467 206.51,283.361 C207.39,282.864 208.408,282.345 208.408,282.345 L209.982,284.379 L200.973,294.611 L210.484,294.611 L210.484,290.392 L214.133,290.392 L214.133,297.957 L195.544,297.957 L195.544,295.389 C195.544,295.389 200.523,290.32 202.171,287.542 C198.116,287.394 194.848,284.873 193.679,280.883 C192.992,278.785 193.301,273.982 194.195,271.915 C195.689,268.464 199.78,265.666 203.517,265.504 C209.788,265.09 213.119,269.406 214.779,272.597 Z" style="stroke:none;fill-rule:nonzero;fill:#d40000;fill-opacity:1;"/>
        </g>
        <g id="Shape4">
            <desc shapeID="4" type="0" basicInfo-basicType="0" basicInfo-roundedRectRadius="12" basicInfo-polygonSides="6" basicInfo-starPoints="5" bounding="rect(-9.675,-12.8329,19.35,25.6659)" text="" font-familyName="" font-pixelSize="20" font-bold="0" font-underline="0" font-alignment="1" strokeStyle="0" markerStart="0" markerEnd="0" shadowEnabled="0" shadowOffsetX="0" shadowOffsetY="2" shadowBlur="4" shadowOpacity="160" blurEnabled="0" blurRadius="4" transform="matrix(1,0,0,1,18.4153,63.1644)" pers-center="0,0" pers-size="0,0" pers-start="0,0" pers-end="0,0" locked="0" mesh="" flag=""/>
            <path id="shapePath4" d="M9.7428,60.6644 C8.15979,57.1921 7.98608,51.259 12.7139,50.4564 C16.276,49.9979 17.7256,51.6547 18.0138,54.1982 C18.156,54.9413 18.5755,54.9867 18.7086,54.1399 C18.913,51.5305 21.4958,50.0073 23.515,50.39 C29.0416,51.3354 28.7189,57.4184 26.9135,61.5455 C24.1826,67.025 21.3129,70.4831 18.6685,75.9973 C15.6303,70.2563 12.1612,65.5923 9.7428,60.6644 L9.7428,60.6644 Z" style="stroke:none;fill-rule:nonzero;fill:#d40000;fill-opacity:1;"/>
        </g>
        <g id="Shape5">
            <desc shapeID="5" type="0" basicInfo-basicType="0" basicInfo-roundedRectRadius="12" basicInfo-polygonSides="6" basicInfo-starPoints="5" bounding="rect(-23.58,-28.946,47.16,57.892)" text="" font-familyName="" font-pixelSize="20" font-bold="0" font-underline="0" font-alignment="1" strokeStyle="0" markerStart="0" markerEnd="0" shadowEnabled="0" shadowOffsetX="0" shadowOffsetY="2" shadowBlur="4" shadowOpacity="160" blurEnabled="0" blurRadius="4" transform="matrix(1,0,0,1,111.551,57.4836)" pers-center="0,0" pers-size="0,0" pers-start="0,0" pers-end="0,0" locked="0" mesh="" flag=""/>
            <path id="shapePath5" d="M99.501,28.7369 C106.645,28.2625 110.369,34.3643 111.096,39.1734 C111.53,39.9373 111.767,39.722 111.933,39.1311 C112.282,32.957 117.808,27.9109 122.926,28.6009 C131.254,28.7092 136.315,37.9763 134.892,45.8197 C133.154,55.4013 127.992,61.1708 124.084,67.1128 C119.663,73.2652 113.712,82.1523 111.794,86.4296 C111.794,86.4296 105.746,77.2251 97.877,66.4 C92.6152,59.1615 88.4039,51.3177 88.0119,44.5646 C87.564,36.8492 90.7312,29.9329 99.501,28.737 L99.501,28.7369 Z" style="stroke:none;fill-rule:nonzero;fill:#d40000;fill-opacity:1;"/>
        </g>
        <g id="Shape6">
            <desc shapeID="6" type="0" basicInfo-basicType="0" basicInfo-roundedRectRadius="12" basicInfo-polygonSides="6" basicInfo-starPoints="5" bounding="rect(-23.58,-28.946,47.16,57.892)" text="" font-familyName="" font-pixelSize="20" font-bold="0" font-underline="0" font-alignment="1" strokeStyle="0" markerStart="0" markerEnd="0" shadowEnabled="0" shadowOffsetX="0" shadowOffsetY="2" shadowBlur="4" shadowOpacity="160" blurEnabled="0" blurRadius="4" transform="matrix(1,0,0,1,111.614,155.905)" pers-center="0,0" pers-size="0,0" pers-start="0,0" pers-end="0,0" locked="0" mesh="" flag=""/>
            <path id="shapePath6" d="M99.5644,127.159 C106.708,126.684 110.433,132.786 111.16,137.595 C111.593,138.359 111.83,138.144 111.996,137.553 C112.346,131.379 117.871,126.333 122.989,127.023 C131.317,127.131 136.379,136.398 134.956,144.242 C133.217,153.823 128.056,159.593 124.148,165.535 C119.726,171.687 113.775,180.574 111.858,184.851 C111.858,184.851 105.809,175.647 97.9404,164.822 C92.6786,157.583 88.4673,149.74 88.0753,142.987 C87.6274,135.271 90.7946,128.355 99.5644,127.159 L99.5644,127.159 Z" style="stroke:none;fill-rule:nonzero;fill:#d40000;fill-opacity:1;"/>
        </g>
        <g id="Shape7">
            <desc shapeID="7" type="0" basicInfo-basicType="0" basicInfo-roundedRectRadius="12" basicInfo-polygonSides="6" basicInfo-starPoints="5" bounding="rect(-9.675,-12.8329,19.35,25.6659)" text="" font-familyName="" font-pixelSize="20" font-bold="0" font-underline="0" font-alignment="1" strokeStyle="0" markerStart="0" markerEnd="0" shadowEnabled="0" shadowOffsetX="0" shadowOffsetY="2" shadowBlur="4" shadowOpacity="160" blurEnabled="0" blurRadius="4" transform="matrix(1,0,0,1,205.402,249.376)" pers-center="0,0" pers-size="0,0" pers-start="0,0" pers-end="0,0" locked="0" mesh="" flag=""/>
            <path id="shapePath7" d="M196.73,251.876 C195.147,255.349 194.973,261.282 199.701,262.084 C203.263,262.543 204.712,260.886 205.001,258.342 C205.143,257.599 205.562,257.554 205.695,258.401 C205.9,261.01 208.483,262.533 210.502,262.151 C216.028,261.205 215.706,255.122 213.9,250.995 C211.169,245.516 208.3,242.058 205.655,236.543 C202.617,242.284 199.148,246.948 196.73,251.876 L196.73,251.876 Z" style="stroke:none;fill-rule:nonzero;fill:#d40000;fill-opacity:1;"/>
        </g>
        <g id="Shape8">
            <desc shapeID="8" type="0" basicInfo-basicType="0" basicInfo-roundedRectRadius="12" basicInfo-polygonSides="6" basicInfo-starPoints="5" bounding="rect(-23.58,-28.946,47.16,57.892)" text="" font-familyName="" font-pixelSize="20" font-bold="0" font-underline="0" font-alignment="1" strokeStyle="0" markerStart="0" markerEnd="0" shadowEnabled="0" shadowOffsetX="0" shadowOffsetY="2" shadowBlur="4" shadowOpacity="160" blurEnabled="0" blurRadius="4" transform="matrix(1,0,0,1,111.551,254.587)" pers-center="0,0" pers-size="0,0" pers-start="0,0" pers-end="0,0" locked="0" mesh="" flag=""/>
            <path id="shapePath8" d="M99.501,283.333 C106.645,283.808 110.369,277.706 111.096,272.897 C111.53,272.133 111.767,272.348 111.933,272.939 C112.282,279.113 117.808,284.159 122.926,283.469 C131.254,283.361 136.315,274.094 134.892,266.251 C133.154,256.669 127.992,250.899 124.084,244.957 C119.663,238.805 113.712,229.918 111.794,225.641 C111.794,225.641 105.746,234.845 97.877,245.67 C92.6152,252.909 88.4039,260.753 88.0119,267.506 C87.564,275.221 90.7312,282.137 99.501,283.333 L99.501,283.333 Z" style="stroke:none;fill-rule:nonzero;fill:#d40000;fill-opacity:1;"/>
        </g>
    </g>
</svg>
