<?xml version="1.0"?>
<svg version="1.1" xmlns="http://www.w3.org/2000/svg" xmlns:xlink="http://www.w3.org/1999/xlink" width="223" height="312">
    <desc iVinci="yes" version="4.5" gridStep="20" showGrid="no" snapToGrid="no" codePlatform="0"/>
    <g id="Layer1" opacity="1">
        <g id="Shape1">
            <desc shapeID="1" type="0" basicInfo-basicType="0" basicInfo-roundedRectRadius="12" basicInfo-polygonSides="6" basicInfo-starPoints="5" bounding="rect(-111.614,-155.906,223.228,311.811)" text="" font-familyName="" font-pixelSize="20" font-bold="0" font-underline="0" font-alignment="1" strokeStyle="0" markerStart="0" markerEnd="0" shadowEnabled="0" shadowOffsetX="0" shadowOffsetY="2" shadowBlur="4" shadowOpacity="160" blurEnabled="0" blurRadius="4" transform="matrix(1,0,0,1,111.614,155.906)" pers-center="0,0" pers-size="0,0" pers-start="0,0" pers-end="0,0" locked="0" mesh="" flag=""/>
            <path id="shapePath1" d="M0,9.35431 C0,4.18805 4.49741,-3.05176e-05 10.0453,-3.05176e-05 L213.183,-3.05176e-05 C218.731,-3.05176e-05 223.228,4.18805 223.228,9.35431 L223.228,302.457 C223.228,307.623 218.731,311.811 213.183,311.811 L10.0453,311.811 C4.49741,311.811 0,307.623 0,302.457 L0,9.35431 Z" style="stroke:#000000;stroke-opacity:1;stroke-width:0.996733;stroke-linejoin:miter;stroke-miterlimit:2;stroke-linecap:butt;fill-rule:evenodd;fill:#ffffff;fill-opacity:1;"/>
        </g>
        <g id="Shape2">
            <desc shapeID="2" type="0" basicInfo-basicType="0" basicInfo-roundedRectRadius="12" basicInfo-polygonSides="6" basicInfo-starPoints="5" bounding="rect(-10.7373,-16.2403,21.4746,32.4805)" text="" font-familyName="" font-pixelSize="20" font-bold="0" font-underline="0" font-alignment="1" strokeStyle="0" markerStart="0" markerEnd="0" shadowEnabled="0" shadowOffsetX="0" shadowOffsetY="2" shadowBlur="4" shadowOpacity="160" blurEnabled="0" blurRadius="4" transform="matrix(1,0,0,1,19.1864,30.0945)" pers-center="0,0" pers-size="0,0" pers-start="0,0" pers-end="0,0" locked="0" mesh="" flag=""/>
            <path id="shapePath2" d="M8.44913,39.2134 L10.9963,37.3734 C13.2103,40.9072 15.6816,43.2365 19.4616,42.8358 C25.1352,42.4542 27.4845,36.6157 26.2969,32.2129 C25.1501,28.268 20.4512,26.3435 16.7185,28.4501 C15.8383,28.9469 14.8203,29.5603 14.8203,29.5603 L13.4915,27.3944 L22.2552,17.1995 L12.7448,17.1995 L12.7448,21.4191 L9.0954,21.4191 L9.0954,13.8542 L27.6847,13.8542 L27.6847,16.4218 C27.6847,16.4218 22.7056,21.4907 21.0574,24.2692 C25.1125,24.4167 28.3802,26.938 29.5497,30.9275 C30.2361,33.0259 29.9276,37.8286 29.033,39.8954 C27.5393,43.3466 23.4489,46.1453 19.7114,46.307 C13.4408,46.7212 10.1096,42.405 8.44913,39.2134 Z" style="stroke:none;fill-rule:nonzero;fill:#000000;fill-opacity:1;"/>
        </g>
        <g id="Shape3">
            <desc shapeID="3" type="0" basicInfo-basicType="0" basicInfo-roundedRectRadius="12" basicInfo-polygonSides="6" basicInfo-starPoints="5" bounding="rect(-10.7373,-16.2403,21.4746,32.4806)" text="" font-familyName="" font-pixelSize="20" font-bold="0" font-underline="0" font-alignment="1" strokeStyle="0" markerStart="0" markerEnd="0" shadowEnabled="0" shadowOffsetX="0" shadowOffsetY="2" shadowBlur="4" shadowOpacity="160" blurEnabled="0" blurRadius="4" transform="matrix(1,0,0,1,204.042,281.716)" pers-center="0,0" pers-size="0,0" pers-start="0,0" pers-end="0,0" locked="0" mesh="" flag=""/>
            <path id="shapePath3" d="M214.779,272.597 L212.232,274.437 C210.018,270.904 207.547,268.574 203.767,268.975 C198.093,269.357 195.744,275.195 196.932,279.598 C198.078,283.543 202.777,285.467 206.51,283.361 C207.39,282.864 208.408,282.345 208.408,282.345 L209.982,284.379 L200.973,294.611 L210.484,294.611 L210.484,290.392 L214.133,290.392 L214.133,297.957 L195.544,297.957 L195.544,295.389 C195.544,295.389 200.523,290.32 202.171,287.542 C198.116,287.394 194.848,284.873 193.679,280.883 C192.992,278.785 193.301,273.982 194.195,271.915 C195.689,268.464 199.78,265.666 203.517,265.504 C209.788,265.09 213.119,269.406 214.779,272.597 Z" style="stroke:none;fill-rule:nonzero;fill:#000000;fill-opacity:1;"/>
        </g>
        <g id="Shape4">
            <desc shapeID="4" type="0" basicInfo-basicType="0" basicInfo-roundedRectRadius="12" basicInfo-polygonSides="6" basicInfo-starPoints="5" bounding="rect(-23.895,-29.6864,47.79,59.3729)" text="" font-familyName="" font-pixelSize="20" font-bold="0" font-underline="0" font-alignment="1" strokeStyle="0" markerStart="0" markerEnd="0" shadowEnabled="0" shadowOffsetX="0" shadowOffsetY="2" shadowBlur="4" shadowOpacity="160" blurEnabled="0" blurRadius="4" transform="matrix(1,0,0,1,111.54,57.4836)" pers-center="0,0" pers-size="0,0" pers-start="0,0" pers-end="0,0" locked="0" mesh="" flag=""/>
            <path id="shapePath4" d="M109.41,68.9343 C109.425,66.9086 107.823,66.8698 107.842,68.3484 C107.707,75.7771 101.425,79.4349 96.8611,78.5672 C89.825,77.2296 87.5793,70.2451 87.6464,66.1318 C87.8536,53.4355 100.634,44.0734 112.167,27.7972 C120.617,42.4879 134.564,54.0268 135.389,65.3829 C136.487,80.481 117.381,86.1126 114.653,68.5157 C114.477,67.2726 113.013,66.7145 113.126,68.4507 C113.541,73.2733 112.952,75.282 118.392,87.17 L104.171,87.17 C107.32,81.6152 109.196,74.7955 109.41,68.9343 L109.41,68.9343 Z" style="stroke:none;fill-rule:nonzero;fill:#000000;fill-opacity:1;"/>
        </g>
        <g id="Shape5">
            <desc shapeID="5" type="0" basicInfo-basicType="0" basicInfo-roundedRectRadius="12" basicInfo-polygonSides="6" basicInfo-starPoints="5" bounding="rect(-23.895,-29.6864,47.79,59.3729)" text="" font-familyName="" font-pixelSize="20" font-bold="0" font-underline="0" font-alignment="1" strokeStyle="0" markerStart="0" markerEnd="0" shadowEnabled="0" shadowOffsetX="0" shadowOffsetY="2" shadowBlur="4" shadowOpacity="160" blurEnabled="0" blurRadius="4" transform="matrix(1,0,0,1,111.614,155.931)" pers-center="0,0" pers-size="0,0" pers-start="0,0" pers-end="0,0" locked="0" mesh="" flag=""/>
            <path id="shapePath5" d="M109.484,144.48 C109.499,146.506 107.898,146.545 107.916,145.066 C107.782,137.637 101.499,133.98 96.9353,134.847 C89.8992,136.185 87.6535,143.169 87.7206,147.283 C87.9278,159.979 100.708,169.341 112.241,185.617 C120.691,170.927 134.638,159.388 135.464,148.032 C136.561,132.934 117.455,127.302 114.727,144.899 C114.551,146.142 113.087,146.7 113.201,144.964 C113.615,140.141 113.026,138.133 118.466,126.245 L104.245,126.245 C107.394,131.799 109.27,138.619 109.484,144.48 Z" style="stroke:none;fill-rule:nonzero;fill:#000000;fill-opacity:1;"/>
        </g>
        <g id="Shape6">
            <desc shapeID="6" type="0" basicInfo-basicType="0" basicInfo-roundedRectRadius="12" basicInfo-polygonSides="6" basicInfo-starPoints="5" bounding="rect(-23.895,-29.6865,47.79,59.3729)" text="" font-familyName="" font-pixelSize="20" font-bold="0" font-underline="0" font-alignment="1" strokeStyle="0" markerStart="0" markerEnd="0" shadowEnabled="0" shadowOffsetX="0" shadowOffsetY="2" shadowBlur="4" shadowOpacity="160" blurEnabled="0" blurRadius="4" transform="matrix(1,0,0,1,111.551,254.612)" pers-center="0,0" pers-size="0,0" pers-start="0,0" pers-end="0,0" locked="0" mesh="" flag=""/>
            <path id="shapePath6" d="M109.421,243.161 C109.436,245.187 107.834,245.226 107.853,243.747 C107.718,236.319 101.436,232.661 96.8719,233.529 C89.8358,234.866 87.5901,241.851 87.6572,245.964 C87.8644,258.66 100.645,268.022 112.177,284.299 C120.628,269.608 134.575,258.069 135.4,246.713 C136.498,231.615 117.391,225.983 114.663,243.58 C114.487,244.823 113.024,245.381 113.137,243.645 C113.552,238.823 112.962,236.814 118.403,224.926 L104.181,224.926 C107.331,230.481 109.207,237.3 109.421,243.161 Z" style="stroke:none;fill-rule:nonzero;fill:#000000;fill-opacity:1;"/>
        </g>
        <g id="Shape7">
            <desc shapeID="7" type="0" basicInfo-basicType="0" basicInfo-roundedRectRadius="12" basicInfo-polygonSides="6" basicInfo-starPoints="5" bounding="rect(-8.46007,-12.905,16.9201,25.8099)" text="" font-familyName="" font-pixelSize="20" font-bold="0" font-underline="0" font-alignment="1" strokeStyle="0" markerStart="0" markerEnd="0" shadowEnabled="0" shadowOffsetX="0" shadowOffsetY="2" shadowBlur="4" shadowOpacity="160" blurEnabled="0" blurRadius="4" transform="matrix(1,0,0,1,18.4178,63.1644)" pers-center="0,0" pers-size="0,0" pers-start="0,0" pers-end="0,0" locked="0" mesh="" flag=""/>
            <path id="shapePath7" d="M17.993,69.7204 C18.003,68.8489 17.0977,69.2558 16.9752,69.5301 C15.812,71.5157 14.1104,71.9778 12.4273,71.2619 C10.76,70.5528 9.82309,68.9816 9.97339,66.7398 C10.2836,63.3019 13.0088,59.5402 14.3284,57.4136 C15.5804,55.4836 16.9563,53.1914 18.4051,50.2595 C20.1024,53.6227 20.9638,54.58 22.8103,57.6509 C24.4363,60.3554 26.7028,63.0039 26.8778,66.2733 C26.8778,68.7582 25.8318,71.1052 23.4784,71.5327 C22.147,71.7746 20.8997,71.0912 19.9746,69.4958 C19.6928,69.0893 19.1258,69.3012 19.1353,69.8578 C19.3005,71.9511 20.0907,73.841 21.9648,76.0694 L15.0777,76.0694 C16.4878,74.4934 17.9264,72.3657 17.993,69.7204 Z" style="stroke:none;fill-rule:nonzero;fill:#000000;fill-opacity:1;"/>
        </g>
        <g id="Shape8">
            <desc shapeID="8" type="0" basicInfo-basicType="0" basicInfo-roundedRectRadius="12" basicInfo-polygonSides="6" basicInfo-starPoints="5" bounding="rect(-8.46001,-12.905,16.92,25.8099)" text="" font-familyName="" font-pixelSize="20" font-bold="0" font-underline="0" font-alignment="1" strokeStyle="0" markerStart="0" markerEnd="0" shadowEnabled="0" shadowOffsetX="0" shadowOffsetY="2" shadowBlur="4" shadowOpacity="160" blurEnabled="0" blurRadius="4" transform="matrix(1,0,0,1,205.4,249.376)" pers-center="0,0" pers-size="0,0" pers-start="0,0" pers-end="0,0" locked="0" mesh="" flag=""/>
            <path id="shapePath8" d="M204.975,242.82 C204.985,243.692 204.08,243.285 203.957,243.011 C202.794,241.025 201.092,240.563 199.409,241.279 C197.742,241.988 196.805,243.559 196.955,245.801 C197.266,249.239 199.991,253 201.31,255.127 C202.562,257.057 203.938,259.349 205.387,262.281 C207.084,258.918 207.946,257.961 209.792,254.89 C211.418,252.185 213.685,249.537 213.86,246.267 C213.86,243.782 212.814,241.436 210.46,241.008 C209.129,240.766 207.882,241.45 206.956,243.045 C206.675,243.451 206.108,243.24 206.117,242.683 C206.282,240.59 207.073,238.7 208.947,236.471 L202.06,236.471 C203.47,238.047 204.908,240.175 204.975,242.82 Z" style="stroke:none;fill-rule:nonzero;fill:#000000;fill-opacity:1;"/>
        </g>
    </g>
</svg>
