<?xml version="1.0"?>
<svg version="1.1" xmlns="http://www.w3.org/2000/svg" xmlns:xlink="http://www.w3.org/1999/xlink" width="223" height="312">
    <desc iVinci="yes" version="4.5" gridStep="20" showGrid="no" snapToGrid="no" codePlatform="0"/>
    <g id="Layer1" opacity="1">
        <g id="Shape1">
            <desc shapeID="1" type="0" basicInfo-basicType="0" basicInfo-roundedRectRadius="12" basicInfo-polygonSides="6" basicInfo-starPoints="5" bounding="rect(-111.614,-155.906,223.228,311.811)" text="" font-familyName="" font-pixelSize="20" font-bold="0" font-underline="0" font-alignment="1" strokeStyle="0" markerStart="0" markerEnd="0" shadowEnabled="0" shadowOffsetX="0" shadowOffsetY="2" shadowBlur="4" shadowOpacity="160" blurEnabled="0" blurRadius="4" transform="matrix(1,0,0,1,111.614,155.906)" pers-center="0,0" pers-size="0,0" pers-start="0,0" pers-end="0,0" locked="0" mesh="" flag=""/>
            <path id="shapePath1" d="M0,9.35431 C0,4.18805 4.49741,-3.05176e-05 10.0453,-3.05176e-05 L213.183,-3.05176e-05 C218.731,-3.05176e-05 223.228,4.18805 223.228,9.35431 L223.228,302.457 C223.228,307.623 218.731,311.811 213.183,311.811 L10.0453,311.811 C4.49741,311.811 0,307.623 0,302.457 L0,9.35431 Z" style="stroke:#000000;stroke-opacity:1;stroke-width:0.996733;stroke-linejoin:miter;stroke-miterlimit:2;stroke-linecap:butt;fill-rule:evenodd;fill:#ffffff;fill-opacity:1;"/>
        </g>
        <g id="Shape2">
            <desc shapeID="2" type="0" basicInfo-basicType="0" basicInfo-roundedRectRadius="12" basicInfo-polygonSides="6" basicInfo-starPoints="5" bounding="rect(-10.1119,-15.9092,20.2239,31.8184)" text="" font-familyName="" font-pixelSize="20" font-bold="0" font-underline="0" font-alignment="1" strokeStyle="0" markerStart="0" markerEnd="0" shadowEnabled="0" shadowOffsetX="0" shadowOffsetY="2" shadowBlur="4" shadowOpacity="160" blurEnabled="0" blurRadius="4" transform="matrix(1,0,0,1,18.1839,30.4644)" pers-center="0,0" pers-size="0,0" pers-start="0,0" pers-end="0,0" locked="0" mesh="" flag=""/>
            <path id="shapePath2" d="M18.412,46.3737 L18.412,43.5606 L20.997,43.5606 L20.997,38.9245 L8.07196,38.9245 L8.07196,35.6535 L22.0571,14.5552 L24.3423,14.5631 L24.3423,35.6535 L28.2958,35.6535 L28.2958,38.9245 L24.3423,38.9245 L24.2663,43.5606 L26.4331,43.5606 L26.4331,46.3737 L18.412,46.3737 M20.997,22.2766 L12.1178,35.6535 L20.997,35.6535 L20.997,22.2766 Z" style="stroke:none;fill-rule:nonzero;fill:#000000;fill-opacity:1;"/>
        </g>
        <g id="Shape3">
            <desc shapeID="3" type="0" basicInfo-basicType="0" basicInfo-roundedRectRadius="12" basicInfo-polygonSides="6" basicInfo-starPoints="5" bounding="rect(-10.1119,-15.9092,20.2239,31.8184)" text="" font-familyName="" font-pixelSize="20" font-bold="0" font-underline="0" font-alignment="1" strokeStyle="0" markerStart="0" markerEnd="0" shadowEnabled="0" shadowOffsetX="0" shadowOffsetY="2" shadowBlur="4" shadowOpacity="160" blurEnabled="0" blurRadius="4" transform="matrix(1,0,0,1,206.197,281.346)" pers-center="0,0" pers-size="0,0" pers-start="0,0" pers-end="0,0" locked="0" mesh="" flag=""/>
            <path id="shapePath3" d="M205.969,265.437 L205.969,268.25 L203.384,268.25 L203.384,272.886 L216.309,272.886 L216.309,276.157 L202.324,297.256 L200.039,297.248 L200.039,276.157 L196.085,276.157 L196.085,272.886 L200.039,272.886 L200.115,268.25 L197.948,268.25 L197.948,265.437 L205.969,265.437 M203.384,289.534 L212.263,276.157 L203.384,276.157 L203.384,289.534 Z" style="stroke:none;fill-rule:nonzero;fill:#000000;fill-opacity:1;"/>
        </g>
        <g id="Shape4">
            <desc shapeID="4" type="0" basicInfo-basicType="0" basicInfo-roundedRectRadius="12" basicInfo-polygonSides="6" basicInfo-starPoints="5" bounding="rect(-28.3268,-28.5706,56.6536,57.1411)" text="" font-familyName="" font-pixelSize="20" font-bold="0" font-underline="0" font-alignment="1" strokeStyle="0" markerStart="0" markerEnd="0" shadowEnabled="0" shadowOffsetX="0" shadowOffsetY="2" shadowBlur="4" shadowOpacity="160" blurEnabled="0" blurRadius="4" transform="matrix(1,0,0,1,161.156,54.8109)" pers-center="0,0" pers-size="0,0" pers-start="0,0" pers-end="0,0" locked="0" mesh="" flag=""/>
            <path id="shapePath4" d="M153.805,83.3815 C156.684,77.6059 158.781,71.6805 159.153,65.3441 C159.495,63.0125 158.079,62.9734 157.865,64.6155 C153.789,80.2083 132.102,75.986 132.848,61.319 C133.453,49.4243 145.268,46.8653 151.43,50.7545 C153.864,52.1873 153.726,51.3291 152.398,49.8428 C143.243,39.6313 148.788,26.481 161.159,26.2403 C174.539,27.0338 178.011,41.1102 169.804,49.3886 C168.783,50.3833 166.52,53.58 169.927,51.3449 C178.213,45.4569 189.714,51.7878 189.479,60.8657 C189.047,77.6046 168.64,78.853 164.276,64.8715 C163.856,63.3213 162.647,62.5428 162.981,65.1758 C163.586,69.9424 164.838,77.1292 168.419,83.3815 L153.805,83.3815 Z" style="stroke:none;fill-rule:nonzero;fill:#000000;fill-opacity:1;"/>
        </g>
        <g id="Shape5">
            <desc shapeID="5" type="0" basicInfo-basicType="0" basicInfo-roundedRectRadius="12" basicInfo-polygonSides="6" basicInfo-starPoints="5" bounding="rect(-28.3268,-28.5706,56.6536,57.1411)" text="" font-familyName="" font-pixelSize="20" font-bold="0" font-underline="0" font-alignment="1" strokeStyle="0" markerStart="0" markerEnd="0" shadowEnabled="0" shadowOffsetX="0" shadowOffsetY="2" shadowBlur="4" shadowOpacity="160" blurEnabled="0" blurRadius="4" transform="matrix(1,0,0,1,61.6233,54.8109)" pers-center="0,0" pers-size="0,0" pers-start="0,0" pers-end="0,0" locked="0" mesh="" flag=""/>
            <path id="shapePath5" d="M54.2723,83.3815 C57.1514,77.6059 59.2483,71.6805 59.6205,65.3441 C59.9621,63.0125 58.5458,62.9734 58.3324,64.6155 C54.256,80.2083 32.5696,75.986 33.3152,61.319 C33.9203,49.4243 45.7347,46.8653 51.8976,50.7545 C54.3311,52.1873 54.1937,51.3291 52.8654,49.8428 C43.7107,39.6313 49.2553,26.481 61.6266,26.2403 C75.0063,27.0338 78.4778,41.1102 70.2708,49.3886 C69.2502,50.3833 66.9874,53.58 70.3939,51.3449 C78.6807,45.4569 90.1812,51.7878 89.9466,60.8657 C89.5139,77.6046 69.1075,78.853 64.7433,64.8715 C64.3235,63.3213 63.1143,62.5428 63.4484,65.1758 C64.0533,69.9424 65.3048,77.1292 68.8857,83.3815 L54.2723,83.3815 Z" style="stroke:none;fill-rule:nonzero;fill:#000000;fill-opacity:1;"/>
        </g>
        <g id="Shape6">
            <desc shapeID="6" type="0" basicInfo-basicType="0" basicInfo-roundedRectRadius="12" basicInfo-polygonSides="6" basicInfo-starPoints="5" bounding="rect(-28.3268,-28.5706,56.6536,57.1411)" text="" font-familyName="" font-pixelSize="20" font-bold="0" font-underline="0" font-alignment="1" strokeStyle="0" markerStart="0" markerEnd="0" shadowEnabled="0" shadowOffsetX="0" shadowOffsetY="2" shadowBlur="4" shadowOpacity="160" blurEnabled="0" blurRadius="4" transform="matrix(1,0,0,1,161.156,253.658)" pers-center="0,0" pers-size="0,0" pers-start="0,0" pers-end="0,0" locked="0" mesh="" flag=""/>
            <path id="shapePath6" d="M168.507,225.087 C165.628,230.863 163.531,236.788 163.159,243.125 C162.817,245.456 164.234,245.495 164.447,243.853 C168.524,228.26 190.21,232.483 189.464,247.15 C188.859,259.045 177.045,261.604 170.882,257.714 C168.448,256.281 168.586,257.14 169.914,258.626 C179.069,268.837 173.524,281.988 161.153,282.228 C147.773,281.435 144.302,267.359 152.509,259.08 C153.529,258.086 155.792,254.889 152.386,257.124 C144.099,263.012 132.598,256.681 132.833,247.603 C133.266,230.864 153.672,229.616 158.036,243.597 C158.456,245.148 159.665,245.926 159.331,243.293 C158.726,238.526 157.475,231.34 153.894,225.087 L168.507,225.087 Z" style="stroke:none;fill-rule:nonzero;fill:#000000;fill-opacity:1;"/>
        </g>
        <g id="Shape7">
            <desc shapeID="7" type="0" basicInfo-basicType="0" basicInfo-roundedRectRadius="12" basicInfo-polygonSides="6" basicInfo-starPoints="5" bounding="rect(-28.3268,-28.5706,56.6536,57.1411)" text="" font-familyName="" font-pixelSize="20" font-bold="0" font-underline="0" font-alignment="1" strokeStyle="0" markerStart="0" markerEnd="0" shadowEnabled="0" shadowOffsetX="0" shadowOffsetY="2" shadowBlur="4" shadowOpacity="160" blurEnabled="0" blurRadius="4" transform="matrix(1,0,0,1,61.6234,253.658)" pers-center="0,0" pers-size="0,0" pers-start="0,0" pers-end="0,0" locked="0" mesh="" flag=""/>
            <path id="shapePath7" d="M68.9744,225.087 C66.0953,230.863 63.9984,236.788 63.6263,243.125 C63.2846,245.456 64.7009,245.495 64.9143,243.853 C68.9908,228.26 90.6771,232.483 89.9315,247.15 C89.3264,259.045 77.512,261.604 71.3492,257.714 C68.9156,256.281 69.053,257.14 70.3813,258.626 C79.536,268.837 73.9914,281.988 61.6201,282.228 C48.2404,281.435 44.7689,267.359 52.9759,259.08 C53.9965,258.086 56.2593,254.889 52.8528,257.124 C44.566,263.012 33.0656,256.681 33.3001,247.603 C33.7328,230.864 54.1393,229.616 58.5034,243.597 C58.9232,245.148 60.1324,245.926 59.7983,243.293 C59.1935,238.526 57.9419,231.34 54.361,225.087 L68.9744,225.087 Z" style="stroke:none;fill-rule:nonzero;fill:#000000;fill-opacity:1;"/>
        </g>
        <g id="Shape8">
            <desc shapeID="8" type="0" basicInfo-basicType="0" basicInfo-roundedRectRadius="12" basicInfo-polygonSides="6" basicInfo-starPoints="5" bounding="rect(-11.544,-11.9272,23.0879,23.8543)" text="" font-familyName="" font-pixelSize="20" font-bold="0" font-underline="0" font-alignment="1" strokeStyle="0" markerStart="0" markerEnd="0" shadowEnabled="0" shadowOffsetX="0" shadowOffsetY="2" shadowBlur="4" shadowOpacity="160" blurEnabled="0" blurRadius="4" transform="matrix(1,0,0,1,18.0049,63.4948)" pers-center="0,0" pers-size="0,0" pers-start="0,0" pers-end="0,0" locked="0" mesh="" flag=""/>
            <path id="shapePath8" d="M13.9603,75.422 C15.1523,72.9769 16.3124,70.7012 16.9445,68.0211 C17.3637,65.4935 16.5063,66.4326 16.0193,68.0893 C15.2982,70.3867 13.2968,71.433 11.4394,71.4582 C8.06824,71.5037 6.38666,68.8539 6.49146,66.0043 C6.12335,63.0057 9.16245,60.8841 11.4532,61.0475 C13.1754,61.1704 14.6772,62.0996 15.5861,62.8226 C16.1823,63.1379 16.82,63.2773 15.9309,62.4642 C14.2534,60.6312 12.8543,59.5 12.8849,56.7534 C12.9139,54.1747 15.1184,51.4852 18.0403,51.5696 C21.6919,51.675 23.3524,54.4597 23.3437,57.0501 C23.3336,58.9384 22.39,60.6764 20.9323,61.7528 C19.988,62.5189 20.2528,63.0926 21.33,62.3676 C22.3648,61.4756 23.597,61.0851 24.8748,61.0576 C28.3653,61.003 29.7298,64.0191 29.5298,66.8218 C29.3424,69.4475 27.1071,72.1502 24.1609,71.8441 C21.5302,71.5426 20.1479,69.3342 19.3557,67.0673 C19.0934,66.3722 18.6797,66.1844 18.6913,67.2203 C19.299,72.2778 21.1829,75.4248 21.1966,75.4219 L13.9603,75.422 Z" style="stroke:none;fill-rule:nonzero;fill:#000000;fill-opacity:1;"/>
        </g>
        <g id="Shape9">
            <desc shapeID="9" type="0" basicInfo-basicType="0" basicInfo-roundedRectRadius="12" basicInfo-polygonSides="6" basicInfo-starPoints="5" bounding="rect(-11.5439,-11.9271,23.0879,23.8543)" text="" font-familyName="" font-pixelSize="20" font-bold="0" font-underline="0" font-alignment="1" strokeStyle="0" markerStart="0" markerEnd="0" shadowEnabled="0" shadowOffsetX="0" shadowOffsetY="2" shadowBlur="4" shadowOpacity="160" blurEnabled="0" blurRadius="4" transform="matrix(1,0,0,1,205.223,248.607)" pers-center="0,0" pers-size="0,0" pers-start="0,0" pers-end="0,0" locked="0" mesh="" flag=""/>
            <path id="shapePath9" d="M209.268,236.68 C208.076,239.125 206.916,241.401 206.284,244.081 C205.865,246.609 206.722,245.669 207.209,244.013 C207.93,241.715 209.932,240.669 211.789,240.644 C215.16,240.598 216.842,243.248 216.737,246.098 C217.105,249.096 214.066,251.218 211.775,251.055 C210.053,250.932 208.551,250.003 207.642,249.279 C207.046,248.964 206.408,248.825 207.297,249.638 C208.975,251.471 210.374,252.602 210.343,255.349 C210.314,257.927 208.11,260.617 205.188,260.532 C201.537,260.427 199.876,257.642 199.885,255.052 C199.895,253.164 200.838,251.426 202.296,250.349 C203.24,249.583 202.976,249.009 201.898,249.734 C200.864,250.626 199.631,251.017 198.354,251.044 C194.863,251.099 193.499,248.083 193.699,245.28 C193.886,242.655 196.121,239.952 199.068,240.258 C201.698,240.559 203.081,242.768 203.873,245.035 C204.135,245.73 204.549,245.918 204.537,244.882 C203.929,239.824 202.046,236.677 202.032,236.68 L209.268,236.68 Z" style="stroke:none;fill-rule:nonzero;fill:#000000;fill-opacity:1;"/>
        </g>
    </g>
</svg>
