<?xml version="1.0"?>
<svg version="1.1" xmlns="http://www.w3.org/2000/svg" xmlns:xlink="http://www.w3.org/1999/xlink" width="223" height="312">
    <desc iVinci="yes" version="4.5" gridStep="20" showGrid="no" snapToGrid="no" codePlatform="0"/>
    <g id="Layer1" opacity="1">
        <g id="Shape1">
            <desc shapeID="1" type="0" basicInfo-basicType="0" basicInfo-roundedRectRadius="12" basicInfo-polygonSides="6" basicInfo-starPoints="5" bounding="rect(-111.614,-155.906,223.228,311.811)" text="" font-familyName="" font-pixelSize="20" font-bold="0" font-underline="0" font-alignment="1" strokeStyle="0" markerStart="0" markerEnd="0" shadowEnabled="0" shadowOffsetX="0" shadowOffsetY="2" shadowBlur="4" shadowOpacity="160" blurEnabled="0" blurRadius="4" transform="matrix(1,0,0,1,111.614,155.906)" pers-center="0,0" pers-size="0,0" pers-start="0,0" pers-end="0,0" locked="0" mesh="" flag=""/>
            <path id="shapePath1" d="M0,9.35431 C0,4.18805 4.49741,-3.05176e-05 10.0453,-3.05176e-05 L213.183,-3.05176e-05 C218.731,-3.05176e-05 223.228,4.18805 223.228,9.35431 L223.228,302.457 C223.228,307.623 218.731,311.811 213.183,311.811 L10.0453,311.811 C4.49741,311.811 0,307.623 0,302.457 L0,9.35431 Z" style="stroke:#000000;stroke-opacity:1;stroke-width:0.996733;stroke-linejoin:miter;stroke-miterlimit:2;stroke-linecap:butt;fill-rule:evenodd;fill:#ffffff;fill-opacity:1;"/>
        </g>
        <g id="Shape2">
            <desc shapeID="2" type="0" basicInfo-basicType="0" basicInfo-roundedRectRadius="12" basicInfo-polygonSides="6" basicInfo-starPoints="5" bounding="rect(-10.1119,-15.9092,20.2239,31.8184)" text="" font-familyName="" font-pixelSize="20" font-bold="0" font-underline="0" font-alignment="1" strokeStyle="0" markerStart="0" markerEnd="0" shadowEnabled="0" shadowOffsetX="0" shadowOffsetY="2" shadowBlur="4" shadowOpacity="160" blurEnabled="0" blurRadius="4" transform="matrix(1,0,0,1,17.6075,30.4645)" pers-center="0,0" pers-size="0,0" pers-start="0,0" pers-end="0,0" locked="0" mesh="" flag=""/>
            <path id="shapePath2" d="M17.8356,46.3737 L17.8356,43.5606 L20.4207,43.5606 L20.4207,38.9245 L7.49561,38.9245 L7.49561,35.6535 L21.4807,14.5553 L23.766,14.5631 L23.766,35.6535 L27.7195,35.6535 L27.7195,38.9245 L23.766,38.9245 L23.6899,43.5606 L25.8568,43.5606 L25.8568,46.3737 L17.8356,46.3737 M20.4207,22.2767 L11.5415,35.6535 L20.4207,35.6535 L20.4207,22.2767 Z" style="stroke:none;fill-rule:nonzero;fill:#d40000;fill-opacity:1;"/>
        </g>
        <g id="Shape3">
            <desc shapeID="3" type="0" basicInfo-basicType="0" basicInfo-roundedRectRadius="12" basicInfo-polygonSides="6" basicInfo-starPoints="5" bounding="rect(-10.1119,-15.9092,20.2239,31.8184)" text="" font-familyName="" font-pixelSize="20" font-bold="0" font-underline="0" font-alignment="1" strokeStyle="0" markerStart="0" markerEnd="0" shadowEnabled="0" shadowOffsetX="0" shadowOffsetY="2" shadowBlur="4" shadowOpacity="160" blurEnabled="0" blurRadius="4" transform="matrix(1,0,0,1,205.621,281.346)" pers-center="0,0" pers-size="0,0" pers-start="0,0" pers-end="0,0" locked="0" mesh="" flag=""/>
            <path id="shapePath3" d="M205.393,265.437 L205.393,268.25 L202.808,268.25 L202.808,272.886 L215.733,272.886 L215.733,276.157 L201.748,297.256 L199.462,297.248 L199.462,276.157 L195.509,276.157 L195.509,272.886 L199.462,272.886 L199.538,268.25 L197.372,268.25 L197.372,265.437 L205.393,265.437 M202.808,289.534 L211.687,276.157 L202.808,276.157 L202.808,289.534 Z" style="stroke:none;fill-rule:nonzero;fill:#d40000;fill-opacity:1;"/>
        </g>
        <g id="Shape4">
            <desc shapeID="4" type="0" basicInfo-basicType="0" basicInfo-roundedRectRadius="12" basicInfo-polygonSides="6" basicInfo-starPoints="5" bounding="rect(-9.675,-12.8329,19.35,25.6659)" text="" font-familyName="" font-pixelSize="20" font-bold="0" font-underline="0" font-alignment="1" strokeStyle="0" markerStart="0" markerEnd="0" shadowEnabled="0" shadowOffsetX="0" shadowOffsetY="2" shadowBlur="4" shadowOpacity="160" blurEnabled="0" blurRadius="4" transform="matrix(1,0,0,1,17.4286,63.4948)" pers-center="0,0" pers-size="0,0" pers-start="0,0" pers-end="0,0" locked="0" mesh="" flag=""/>
            <path id="shapePath4" d="M8.75607,60.9947 C7.1731,57.5224 6.99939,51.5893 11.7272,50.7867 C15.2893,50.3283 16.7389,51.985 17.0271,54.5286 C17.1693,55.2716 17.5888,55.3171 17.7219,54.4703 C17.9263,51.8609 20.5091,50.3377 22.5283,50.7203 C28.0549,51.6657 27.7322,57.7488 25.9268,61.8759 C23.1959,67.3553 20.3262,70.8135 17.6818,76.3277 C14.6436,70.5867 11.1745,65.9226 8.75607,60.9948 L8.75607,60.9947 Z" style="stroke:none;fill-rule:nonzero;fill:#d40000;fill-opacity:1;"/>
        </g>
        <g id="Shape5">
            <desc shapeID="5" type="0" basicInfo-basicType="0" basicInfo-roundedRectRadius="12" basicInfo-polygonSides="6" basicInfo-starPoints="5" bounding="rect(-23.58,-28.946,47.16,57.892)" text="" font-familyName="" font-pixelSize="20" font-bold="0" font-underline="0" font-alignment="1" strokeStyle="0" markerStart="0" markerEnd="0" shadowEnabled="0" shadowOffsetX="0" shadowOffsetY="2" shadowBlur="4" shadowOpacity="160" blurEnabled="0" blurRadius="4" transform="matrix(1,0,0,1,57.047,54.8109)" pers-center="0,0" pers-size="0,0" pers-start="0,0" pers-end="0,0" locked="0" mesh="" flag=""/>
            <path id="shapePath5" d="M44.9973,26.0642 C52.1413,25.5898 55.8657,31.6917 56.5925,36.5007 C57.0259,37.2646 57.2632,37.0493 57.4294,36.4584 C57.7787,30.2842 63.3043,25.2382 68.422,25.9282 C76.75,26.0365 81.8115,35.3036 80.3884,43.147 C78.6499,52.7285 73.4887,58.498 69.5806,64.4401 C65.1593,70.5925 59.2079,79.4796 57.2905,83.7569 C57.2905,83.7569 51.2422,74.5524 43.3733,63.7273 C38.1115,56.4888 33.9002,48.645 33.5082,41.8919 C33.0603,34.1765 36.2275,27.2602 44.9973,26.0643 L44.9973,26.0642 Z" style="stroke:none;fill-rule:nonzero;fill:#d40000;fill-opacity:1;"/>
        </g>
        <g id="Shape6">
            <desc shapeID="6" type="0" basicInfo-basicType="0" basicInfo-roundedRectRadius="12" basicInfo-polygonSides="6" basicInfo-starPoints="5" bounding="rect(-23.58,-28.946,47.16,57.892)" text="" font-familyName="" font-pixelSize="20" font-bold="0" font-underline="0" font-alignment="1" strokeStyle="0" markerStart="0" markerEnd="0" shadowEnabled="0" shadowOffsetX="0" shadowOffsetY="2" shadowBlur="4" shadowOpacity="160" blurEnabled="0" blurRadius="4" transform="matrix(1,0,0,1,166.58,54.8109)" pers-center="0,0" pers-size="0,0" pers-start="0,0" pers-end="0,0" locked="0" mesh="" flag=""/>
            <path id="shapePath6" d="M154.53,26.0642 C161.674,25.5898 165.398,31.6917 166.125,36.5007 C166.559,37.2646 166.796,37.0493 166.962,36.4584 C167.311,30.2842 172.837,25.2382 177.955,25.9282 C186.283,26.0365 191.344,35.3036 189.921,43.147 C188.183,52.7285 183.021,58.498 179.113,64.4401 C174.692,70.5925 168.741,79.4796 166.823,83.7569 C166.823,83.7569 160.775,74.5524 152.906,63.7273 C147.644,56.4888 143.433,48.645 143.041,41.8919 C142.593,34.1765 145.76,27.2602 154.53,26.0643 L154.53,26.0642 Z" style="stroke:none;fill-rule:nonzero;fill:#d40000;fill-opacity:1;"/>
        </g>
        <g id="Shape7">
            <desc shapeID="7" type="0" basicInfo-basicType="0" basicInfo-roundedRectRadius="12" basicInfo-polygonSides="6" basicInfo-starPoints="5" bounding="rect(-23.58,-28.946,47.16,57.892)" text="" font-familyName="" font-pixelSize="20" font-bold="0" font-underline="0" font-alignment="1" strokeStyle="0" markerStart="0" markerEnd="0" shadowEnabled="0" shadowOffsetX="0" shadowOffsetY="2" shadowBlur="4" shadowOpacity="160" blurEnabled="0" blurRadius="4" transform="matrix(1,0,0,1,57.047,253.658)" pers-center="0,0" pers-size="0,0" pers-start="0,0" pers-end="0,0" locked="0" mesh="" flag=""/>
            <path id="shapePath7" d="M44.9973,282.405 C52.1413,282.879 55.8657,276.777 56.5925,271.968 C57.0259,271.204 57.2632,271.419 57.4294,272.01 C57.7787,278.185 63.3043,283.231 68.422,282.541 C76.75,282.432 81.8115,273.165 80.3884,265.322 C78.6499,255.74 73.4887,249.971 69.5806,244.029 C65.1593,237.876 59.2079,228.989 57.2905,224.712 C57.2905,224.712 51.2422,233.916 43.3733,244.742 C38.1115,251.98 33.9002,259.824 33.5082,266.577 C33.0603,274.292 36.2275,281.209 44.9973,282.405 L44.9973,282.405 Z" style="stroke:none;fill-rule:nonzero;fill:#d40000;fill-opacity:1;"/>
        </g>
        <g id="Shape8">
            <desc shapeID="8" type="0" basicInfo-basicType="0" basicInfo-roundedRectRadius="12" basicInfo-polygonSides="6" basicInfo-starPoints="5" bounding="rect(-23.58,-28.946,47.16,57.892)" text="" font-familyName="" font-pixelSize="20" font-bold="0" font-underline="0" font-alignment="1" strokeStyle="0" markerStart="0" markerEnd="0" shadowEnabled="0" shadowOffsetX="0" shadowOffsetY="2" shadowBlur="4" shadowOpacity="160" blurEnabled="0" blurRadius="4" transform="matrix(1,0,0,1,166.58,253.658)" pers-center="0,0" pers-size="0,0" pers-start="0,0" pers-end="0,0" locked="0" mesh="" flag=""/>
            <path id="shapePath8" d="M154.53,282.405 C161.674,282.879 165.398,276.777 166.125,271.968 C166.559,271.204 166.796,271.419 166.962,272.01 C167.311,278.185 172.837,283.231 177.955,282.541 C186.283,282.432 191.344,273.165 189.921,265.322 C188.183,255.74 183.021,249.971 179.113,244.029 C174.692,237.876 168.741,228.989 166.823,224.712 C166.823,224.712 160.775,233.916 152.906,244.742 C147.644,251.98 143.433,259.824 143.041,266.577 C142.593,274.292 145.76,281.209 154.53,282.405 L154.53,282.405 Z" style="stroke:none;fill-rule:nonzero;fill:#d40000;fill-opacity:1;"/>
        </g>
        <g id="Shape9">
            <desc shapeID="9" type="0" basicInfo-basicType="0" basicInfo-roundedRectRadius="12" basicInfo-polygonSides="6" basicInfo-starPoints="5" bounding="rect(-9.675,-12.8329,19.35,25.6659)" text="" font-familyName="" font-pixelSize="20" font-bold="0" font-underline="0" font-alignment="1" strokeStyle="0" markerStart="0" markerEnd="0" shadowEnabled="0" shadowOffsetX="0" shadowOffsetY="2" shadowBlur="4" shadowOpacity="160" blurEnabled="0" blurRadius="4" transform="matrix(1,0,0,1,204.647,248.607)" pers-center="0,0" pers-size="0,0" pers-start="0,0" pers-end="0,0" locked="0" mesh="" flag=""/>
            <path id="shapePath9" d="M195.975,251.107 C194.392,254.58 194.218,260.513 198.946,261.315 C202.508,261.774 203.957,260.117 204.246,257.573 C204.388,256.83 204.807,256.785 204.94,257.632 C205.145,260.241 207.728,261.764 209.747,261.382 C215.273,260.436 214.951,254.353 213.145,250.226 C210.414,244.747 207.545,241.289 204.9,235.774 C201.862,241.515 198.393,246.179 195.975,251.107 Z" style="stroke:none;fill-rule:nonzero;fill:#d40000;fill-opacity:1;"/>
        </g>
    </g>
</svg>
