<?xml version="1.0"?>
<svg version="1.1" xmlns="http://www.w3.org/2000/svg" xmlns:xlink="http://www.w3.org/1999/xlink" width="223" height="312">
    <desc iVinci="yes" version="4.5" gridStep="20" showGrid="no" snapToGrid="no" codePlatform="0"/>
    <g id="Layer1" opacity="1">
        <g id="Shape1">
            <desc shapeID="1" type="0" basicInfo-basicType="0" basicInfo-roundedRectRadius="12" basicInfo-polygonSides="6" basicInfo-starPoints="5" bounding="rect(-111.614,-155.906,223.228,311.811)" text="" font-familyName="" font-pixelSize="20" font-bold="0" font-underline="0" font-alignment="1" strokeStyle="0" markerStart="0" markerEnd="0" shadowEnabled="0" shadowOffsetX="0" shadowOffsetY="2" shadowBlur="4" shadowOpacity="160" blurEnabled="0" blurRadius="4" transform="matrix(1,0,0,1,111.614,155.906)" pers-center="0,0" pers-size="0,0" pers-start="0,0" pers-end="0,0" locked="0" mesh="" flag=""/>
            <path id="shapePath1" d="M0,9.35431 C0,4.18805 4.49741,-3.05176e-05 10.0453,-3.05176e-05 L213.183,-3.05176e-05 C218.731,-3.05176e-05 223.228,4.18805 223.228,9.35431 L223.228,302.457 C223.228,307.623 218.731,311.811 213.183,311.811 L10.0453,311.811 C4.49741,311.811 0,307.623 0,302.457 L0,9.35431 Z" style="stroke:#000000;stroke-opacity:1;stroke-width:0.996733;stroke-linejoin:miter;stroke-miterlimit:2;stroke-linecap:butt;fill-rule:evenodd;fill:#ffffff;fill-opacity:1;"/>
        </g>
        <g id="Shape2">
            <desc shapeID="2" type="0" basicInfo-basicType="0" basicInfo-roundedRectRadius="12" basicInfo-polygonSides="6" basicInfo-starPoints="5" bounding="rect(-10.1119,-15.9092,20.2239,31.8184)" text="" font-familyName="" font-pixelSize="20" font-bold="0" font-underline="0" font-alignment="1" strokeStyle="0" markerStart="0" markerEnd="0" shadowEnabled="0" shadowOffsetX="0" shadowOffsetY="2" shadowBlur="4" shadowOpacity="160" blurEnabled="0" blurRadius="4" transform="matrix(1,0,0,1,17.6075,30.4645)" pers-center="0,0" pers-size="0,0" pers-start="0,0" pers-end="0,0" locked="0" mesh="" flag=""/>
            <path id="shapePath2" d="M17.8357,46.3737 L17.8357,43.5606 L20.4207,43.5606 L20.4207,38.9245 L7.49561,38.9245 L7.49561,35.6535 L21.4807,14.5553 L23.766,14.5631 L23.766,35.6535 L27.7195,35.6535 L27.7195,38.9245 L23.766,38.9245 L23.6899,43.5606 L25.8568,43.5606 L25.8568,46.3737 L17.8357,46.3737 M20.4207,22.2767 L11.5415,35.6535 L20.4207,35.6535 L20.4207,22.2767 Z" style="stroke:none;fill-rule:nonzero;fill:#000000;fill-opacity:1;"/>
        </g>
        <g id="Shape3">
            <desc shapeID="3" type="0" basicInfo-basicType="0" basicInfo-roundedRectRadius="12" basicInfo-polygonSides="6" basicInfo-starPoints="5" bounding="rect(-10.1119,-15.9092,20.2239,31.8184)" text="" font-familyName="" font-pixelSize="20" font-bold="0" font-underline="0" font-alignment="1" strokeStyle="0" markerStart="0" markerEnd="0" shadowEnabled="0" shadowOffsetX="0" shadowOffsetY="2" shadowBlur="4" shadowOpacity="160" blurEnabled="0" blurRadius="4" transform="matrix(1,0,0,1,205.621,281.346)" pers-center="0,0" pers-size="0,0" pers-start="0,0" pers-end="0,0" locked="0" mesh="" flag=""/>
            <path id="shapePath3" d="M205.393,265.437 L205.393,268.25 L202.808,268.25 L202.808,272.886 L215.733,272.886 L215.733,276.157 L201.748,297.256 L199.462,297.248 L199.462,276.157 L195.509,276.157 L195.509,272.886 L199.462,272.886 L199.538,268.25 L197.372,268.25 L197.372,265.437 L205.393,265.437 M202.808,289.534 L211.687,276.157 L202.808,276.157 L202.808,289.534 Z" style="stroke:none;fill-rule:nonzero;fill:#000000;fill-opacity:1;"/>
        </g>
        <g id="Shape4">
            <desc shapeID="4" type="0" basicInfo-basicType="0" basicInfo-roundedRectRadius="12" basicInfo-polygonSides="6" basicInfo-starPoints="5" bounding="rect(-23.895,-29.6864,47.79,59.3729)" text="" font-familyName="" font-pixelSize="20" font-bold="0" font-underline="0" font-alignment="1" strokeStyle="0" markerStart="0" markerEnd="0" shadowEnabled="0" shadowOffsetX="0" shadowOffsetY="2" shadowBlur="4" shadowOpacity="160" blurEnabled="0" blurRadius="4" transform="matrix(1,0,0,1,57.0362,54.8109)" pers-center="0,0" pers-size="0,0" pers-start="0,0" pers-end="0,0" locked="0" mesh="" flag=""/>
            <path id="shapePath4" d="M54.9066,66.2616 C54.9216,64.2358 53.3198,64.1971 53.338,65.6758 C53.2036,73.1044 46.9214,76.7622 42.3574,75.8945 C35.3213,74.5569 33.0756,67.5724 33.1427,63.4591 C33.3499,50.7628 46.1305,41.4007 57.6628,25.1245 C66.1129,39.8152 80.0601,51.3541 80.8857,62.7102 C81.9835,77.8083 62.8769,83.4399 60.1489,65.843 C59.9729,64.5999 58.5092,64.0418 58.6227,65.778 C59.0373,70.6006 58.4478,72.6093 63.8885,84.4973 L49.6667,84.4973 C52.8165,78.9425 54.6922,72.1228 54.9066,66.2616 L54.9066,66.2616 Z" style="stroke:none;fill-rule:nonzero;fill:#000000;fill-opacity:1;"/>
        </g>
        <g id="Shape5">
            <desc shapeID="5" type="0" basicInfo-basicType="0" basicInfo-roundedRectRadius="12" basicInfo-polygonSides="6" basicInfo-starPoints="5" bounding="rect(-23.895,-29.6864,47.79,59.3729)" text="" font-familyName="" font-pixelSize="20" font-bold="0" font-underline="0" font-alignment="1" strokeStyle="0" markerStart="0" markerEnd="0" shadowEnabled="0" shadowOffsetX="0" shadowOffsetY="2" shadowBlur="4" shadowOpacity="160" blurEnabled="0" blurRadius="4" transform="matrix(1,0,0,1,168.569,54.8109)" pers-center="0,0" pers-size="0,0" pers-start="0,0" pers-end="0,0" locked="0" mesh="" flag=""/>
            <path id="shapePath5" d="M166.439,66.2616 C166.454,64.2358 164.853,64.1971 164.871,65.6758 C164.736,73.1044 158.454,76.7622 153.89,75.8945 C146.854,74.5569 144.608,67.5724 144.675,63.4591 C144.883,50.7628 157.663,41.4007 169.196,25.1245 C177.646,39.8152 191.593,51.3541 192.419,62.7102 C193.516,77.8083 174.41,83.4399 171.682,65.843 C171.506,64.5999 170.042,64.0418 170.156,65.778 C170.57,70.6006 169.981,72.6093 175.421,84.4973 L161.2,84.4973 C164.349,78.9425 166.225,72.1228 166.439,66.2616 L166.439,66.2616 Z" style="stroke:none;fill-rule:nonzero;fill:#000000;fill-opacity:1;"/>
        </g>
        <g id="Shape6">
            <desc shapeID="6" type="0" basicInfo-basicType="0" basicInfo-roundedRectRadius="12" basicInfo-polygonSides="6" basicInfo-starPoints="5" bounding="rect(-23.895,-29.6865,47.79,59.3729)" text="" font-familyName="" font-pixelSize="20" font-bold="0" font-underline="0" font-alignment="1" strokeStyle="0" markerStart="0" markerEnd="0" shadowEnabled="0" shadowOffsetX="0" shadowOffsetY="2" shadowBlur="4" shadowOpacity="160" blurEnabled="0" blurRadius="4" transform="matrix(1,0,0,1,57.047,253.683)" pers-center="0,0" pers-size="0,0" pers-start="0,0" pers-end="0,0" locked="0" mesh="" flag=""/>
            <path id="shapePath6" d="M54.9174,242.233 C54.9323,244.258 53.3306,244.297 53.3488,242.819 C53.2144,235.39 46.9323,231.732 42.3682,232.6 C35.3321,233.938 33.0864,240.922 33.1534,245.035 C33.3607,257.732 46.1413,267.094 57.6736,283.37 C66.1237,268.679 80.0709,257.14 80.8965,245.784 C81.9943,230.686 62.8877,225.054 60.1597,242.651 C59.9836,243.894 58.52,244.453 58.6335,242.716 C59.0481,237.894 58.4586,235.885 63.8993,223.997 L49.6776,223.997 C52.8273,229.552 54.7029,236.372 54.9174,242.233 Z" style="stroke:none;fill-rule:nonzero;fill:#000000;fill-opacity:1;"/>
        </g>
        <g id="Shape7">
            <desc shapeID="7" type="0" basicInfo-basicType="0" basicInfo-roundedRectRadius="12" basicInfo-polygonSides="6" basicInfo-starPoints="5" bounding="rect(-23.895,-29.6865,47.79,59.3729)" text="" font-familyName="" font-pixelSize="20" font-bold="0" font-underline="0" font-alignment="1" strokeStyle="0" markerStart="0" markerEnd="0" shadowEnabled="0" shadowOffsetX="0" shadowOffsetY="2" shadowBlur="4" shadowOpacity="160" blurEnabled="0" blurRadius="4" transform="matrix(1,0,0,1,168.58,253.683)" pers-center="0,0" pers-size="0,0" pers-start="0,0" pers-end="0,0" locked="0" mesh="" flag=""/>
            <path id="shapePath7" d="M166.45,242.233 C166.465,244.258 164.863,244.297 164.882,242.819 C164.747,235.39 158.465,231.732 153.901,232.6 C146.865,233.938 144.619,240.922 144.686,245.035 C144.893,257.732 157.674,267.094 169.206,283.37 C177.657,268.679 191.604,257.14 192.429,245.784 C193.527,230.686 174.42,225.054 171.692,242.651 C171.516,243.894 170.053,244.453 170.166,242.716 C170.581,237.894 169.991,235.885 175.432,223.997 L161.21,223.997 C164.36,229.552 166.236,236.372 166.45,242.233 Z" style="stroke:none;fill-rule:nonzero;fill:#000000;fill-opacity:1;"/>
        </g>
        <g id="Shape8">
            <desc shapeID="8" type="0" basicInfo-basicType="0" basicInfo-roundedRectRadius="12" basicInfo-polygonSides="6" basicInfo-starPoints="5" bounding="rect(-8.46007,-12.905,16.9201,25.8099)" text="" font-familyName="" font-pixelSize="20" font-bold="0" font-underline="0" font-alignment="1" strokeStyle="0" markerStart="0" markerEnd="0" shadowEnabled="0" shadowOffsetX="0" shadowOffsetY="2" shadowBlur="4" shadowOpacity="160" blurEnabled="0" blurRadius="4" transform="matrix(1,0,0,1,17.4261,63.4948)" pers-center="0,0" pers-size="0,0" pers-start="0,0" pers-end="0,0" locked="0" mesh="" flag=""/>
            <path id="shapePath8" d="M17.0013,70.0508 C17.0114,69.1793 16.106,69.5862 15.9836,69.8605 C14.8203,71.8461 13.1187,72.3082 11.4357,71.5923 C9.76834,70.8832 8.83145,69.312 8.98175,67.0702 C9.29196,63.6323 12.0172,59.8706 13.3368,57.744 C14.5887,55.8141 15.9647,53.5218 17.4135,50.5898 C19.1107,53.9531 19.9722,54.9104 21.8187,57.9814 C23.4446,60.6858 25.7112,63.3343 25.8862,66.6037 C25.8862,69.0886 24.8401,71.4355 22.4868,71.8631 C21.1554,72.105 19.9081,71.4216 18.9829,69.8263 C18.7011,69.4197 18.1342,69.6316 18.1436,70.1881 C18.3089,72.2815 19.0991,74.1714 20.9731,76.3998 L14.0861,76.3998 C15.4962,74.8238 16.9348,72.6961 17.0013,70.0508 Z" style="stroke:none;fill-rule:nonzero;fill:#000000;fill-opacity:1;"/>
        </g>
        <g id="Shape9">
            <desc shapeID="9" type="0" basicInfo-basicType="0" basicInfo-roundedRectRadius="12" basicInfo-polygonSides="6" basicInfo-starPoints="5" bounding="rect(-8.46001,-12.905,16.92,25.81)" text="" font-familyName="" font-pixelSize="20" font-bold="0" font-underline="0" font-alignment="1" strokeStyle="0" markerStart="0" markerEnd="0" shadowEnabled="0" shadowOffsetX="0" shadowOffsetY="2" shadowBlur="4" shadowOpacity="160" blurEnabled="0" blurRadius="4" transform="matrix(1,0,0,1,204.645,248.607)" pers-center="0,0" pers-size="0,0" pers-start="0,0" pers-end="0,0" locked="0" mesh="" flag=""/>
            <path id="shapePath9" d="M204.22,242.051 C204.23,242.923 203.325,242.516 203.202,242.242 C202.039,240.256 200.337,239.794 198.654,240.51 C196.987,241.219 196.05,242.79 196.2,245.032 C196.511,248.47 199.236,252.231 200.555,254.358 C201.807,256.288 203.183,258.58 204.632,261.512 C206.329,258.149 207.191,257.192 209.037,254.121 C210.663,251.416 212.93,248.768 213.105,245.498 C213.105,243.013 212.059,240.667 209.705,240.239 C208.374,239.997 207.127,240.681 206.202,242.276 C205.92,242.682 205.353,242.471 205.362,241.914 C205.527,239.821 206.318,237.931 208.192,235.702 L201.305,235.702 C202.715,237.278 204.153,239.406 204.22,242.051 Z" style="stroke:none;fill-rule:nonzero;fill:#000000;fill-opacity:1;"/>
        </g>
    </g>
</svg>
