<?xml version="1.0"?>
<svg version="1.1" xmlns="http://www.w3.org/2000/svg" xmlns:xlink="http://www.w3.org/1999/xlink" width="223" height="312">
    <desc iVinci="yes" version="4.5" gridStep="20" showGrid="no" snapToGrid="no" codePlatform="0"/>
    <g id="Layer1" opacity="1">
        <g id="Shape1">
            <desc shapeID="1" type="0" basicInfo-basicType="0" basicInfo-roundedRectRadius="12" basicInfo-polygonSides="6" basicInfo-starPoints="5" bounding="rect(-111.614,-155.906,223.228,311.811)" text="" font-familyName="" font-pixelSize="20" font-bold="0" font-underline="0" font-alignment="1" strokeStyle="0" markerStart="0" markerEnd="0" shadowEnabled="0" shadowOffsetX="0" shadowOffsetY="2" shadowBlur="4" shadowOpacity="160" blurEnabled="0" blurRadius="4" transform="matrix(1,0,0,1,111.614,155.906)" pers-center="0,0" pers-size="0,0" pers-start="0,0" pers-end="0,0" locked="0" mesh="" flag=""/>
            <path id="shapePath1" d="M0,9.35431 C0,4.18805 4.49744,-3.05176e-05 10.0453,-3.05176e-05 L213.183,-3.05176e-05 C218.731,-3.05176e-05 223.228,4.18805 223.228,9.35431 L223.228,302.457 C223.228,307.623 218.731,311.811 213.183,311.811 L10.0453,311.811 C4.49744,311.811 0,307.623 0,302.457 L0,9.35431 Z" style="stroke:#000000;stroke-opacity:1;stroke-width:0.996733;stroke-linejoin:miter;stroke-miterlimit:2;stroke-linecap:butt;fill-rule:evenodd;fill:#ffffff;fill-opacity:1;"/>
        </g>
        <g id="Shape2">
            <desc shapeID="2" type="0" basicInfo-basicType="0" basicInfo-roundedRectRadius="12" basicInfo-polygonSides="6" basicInfo-starPoints="5" bounding="rect(-10.3521,-16.1221,20.7043,32.2442)" text="" font-familyName="" font-pixelSize="20" font-bold="0" font-underline="0" font-alignment="1" strokeStyle="0" markerStart="0" markerEnd="0" shadowEnabled="0" shadowOffsetX="0" shadowOffsetY="2" shadowBlur="4" shadowOpacity="160" blurEnabled="0" blurRadius="4" transform="matrix(1,0,0,1,18.6072,29.7676)" pers-center="0,0" pers-size="0,0" pers-start="0,0" pers-end="0,0" locked="0" mesh="" flag=""/>
            <path id="shapePath2" d="M8.25528,37.5377 L11.4754,37.5094 C12.0877,39.4535 13.4474,41.4356 15.2923,41.9828 C20.5042,43.2067 23.8597,40.2955 24.9649,36.9363 C26.3051,32.8627 24.9345,27.1408 21.3474,25.1086 C18.3717,23.4228 13.9524,24.8445 11.9253,28.4471 L9.66812,27.0673 L10.8795,13.6455 L25.61,13.6455 L25.61,16.8174 L13.6723,16.8174 L13.485,22.4085 C16.0503,20.6064 20.0031,20.6239 22.5704,21.8886 C27.4352,24.2075 29.6944,29.4814 28.7477,35.6992 C27.4372,41.8824 24.5502,45.3857 18.0302,45.8891 C10.7855,45.9517 8.22644,40.9711 8.25528,37.5379 L8.25528,37.5377 Z" style="stroke:none;fill-rule:nonzero;fill:#000000;fill-opacity:1;"/>
        </g>
        <g id="Shape3">
            <desc shapeID="3" type="0" basicInfo-basicType="0" basicInfo-roundedRectRadius="12" basicInfo-polygonSides="6" basicInfo-starPoints="5" bounding="rect(-10.3521,-16.1221,20.7043,32.2442)" text="" font-familyName="" font-pixelSize="20" font-bold="0" font-underline="0" font-alignment="1" strokeStyle="0" markerStart="0" markerEnd="0" shadowEnabled="0" shadowOffsetX="0" shadowOffsetY="2" shadowBlur="4" shadowOpacity="160" blurEnabled="0" blurRadius="4" transform="matrix(1,0,0,1,204.773,282.043)" pers-center="0,0" pers-size="0,0" pers-start="0,0" pers-end="0,0" locked="0" mesh="" flag=""/>
            <path id="shapePath3" d="M215.125,274.273 L211.905,274.301 C211.293,272.357 209.933,270.375 208.088,269.828 C202.876,268.604 199.521,271.515 198.416,274.875 C197.076,278.948 198.446,284.67 202.033,286.702 C205.009,288.388 209.428,286.966 211.455,283.364 L213.712,284.744 L212.501,298.165 L197.771,298.165 L197.771,294.994 L209.708,294.994 L209.896,289.402 C207.33,291.204 203.378,291.187 200.81,289.922 C195.945,287.603 193.686,282.33 194.633,276.112 C195.943,269.928 198.83,266.425 205.35,265.922 C212.595,265.859 215.154,270.84 215.125,274.273 L215.125,274.273 Z" style="stroke:none;fill-rule:nonzero;fill:#000000;fill-opacity:1;"/>
        </g>
        <g id="Shape4">
            <desc shapeID="4" type="0" basicInfo-basicType="0" basicInfo-roundedRectRadius="12" basicInfo-polygonSides="6" basicInfo-starPoints="5" bounding="rect(-28.3268,-28.5706,56.6536,57.1412)" text="" font-familyName="" font-pixelSize="20" font-bold="0" font-underline="0" font-alignment="1" strokeStyle="0" markerStart="0" markerEnd="0" shadowEnabled="0" shadowOffsetX="0" shadowOffsetY="2" shadowBlur="4" shadowOpacity="160" blurEnabled="0" blurRadius="4" transform="matrix(1,0,0,1,111.62,155.931)" pers-center="0,0" pers-size="0,0" pers-start="0,0" pers-end="0,0" locked="0" mesh="" flag=""/>
            <path id="shapePath4" d="M104.269,184.502 C107.148,178.726 109.245,172.801 109.617,166.464 C109.958,164.133 108.542,164.093 108.329,165.736 C104.252,181.328 82.566,177.106 83.3116,162.439 C83.9166,150.544 95.7311,147.985 101.894,151.875 C104.327,153.307 104.19,152.449 102.862,150.963 C93.707,140.751 99.2517,127.601 111.623,127.36 C125.003,128.154 128.474,142.23 120.267,150.509 C119.247,151.503 116.984,154.7 120.39,152.465 C128.677,146.577 140.177,152.908 139.943,161.986 C139.51,178.725 119.104,179.973 114.74,165.992 C114.32,164.441 113.111,163.663 113.445,166.296 C114.05,171.062 115.301,178.249 118.882,184.502 L104.269,184.502 Z" style="stroke:none;fill-rule:nonzero;fill:#000000;fill-opacity:1;"/>
        </g>
        <g id="Shape5">
            <desc shapeID="5" type="0" basicInfo-basicType="0" basicInfo-roundedRectRadius="12" basicInfo-polygonSides="6" basicInfo-starPoints="5" bounding="rect(-28.3268,-28.5706,56.6536,57.1411)" text="" font-familyName="" font-pixelSize="20" font-bold="0" font-underline="0" font-alignment="1" strokeStyle="0" markerStart="0" markerEnd="0" shadowEnabled="0" shadowOffsetX="0" shadowOffsetY="2" shadowBlur="4" shadowOpacity="160" blurEnabled="0" blurRadius="4" transform="matrix(1,0,0,1,160.862,56.6687)" pers-center="0,0" pers-size="0,0" pers-start="0,0" pers-end="0,0" locked="0" mesh="" flag=""/>
            <path id="shapePath5" d="M153.511,85.2393 C156.39,79.4637 158.487,73.5383 158.86,67.2019 C159.201,64.8702 157.785,64.8311 157.571,66.4733 C153.495,82.0661 131.809,77.8438 132.554,63.1768 C133.159,51.282 144.974,48.7231 151.137,52.6123 C153.57,54.0451 153.433,53.1869 152.105,51.7005 C142.95,41.4891 148.494,28.3388 160.866,28.0981 C174.245,28.8915 177.717,42.968 169.51,51.2464 C168.489,52.2411 166.227,55.4378 169.633,53.2027 C177.92,47.3147 189.42,53.6456 189.186,62.7235 C188.753,79.4624 168.347,80.7108 163.982,66.7292 C163.563,65.1791 162.353,64.4006 162.688,67.0335 C163.292,71.8001 164.544,78.9869 168.125,85.2393 L153.511,85.2393 Z" style="stroke:none;fill-rule:nonzero;fill:#000000;fill-opacity:1;"/>
        </g>
        <g id="Shape6">
            <desc shapeID="6" type="0" basicInfo-basicType="0" basicInfo-roundedRectRadius="12" basicInfo-polygonSides="6" basicInfo-starPoints="5" bounding="rect(-28.3268,-28.5706,56.6536,57.1411)" text="" font-familyName="" font-pixelSize="20" font-bold="0" font-underline="0" font-alignment="1" strokeStyle="0" markerStart="0" markerEnd="0" shadowEnabled="0" shadowOffsetX="0" shadowOffsetY="2" shadowBlur="4" shadowOpacity="160" blurEnabled="0" blurRadius="4" transform="matrix(1,0,0,1,62.1811,56.6687)" pers-center="0,0" pers-size="0,0" pers-start="0,0" pers-end="0,0" locked="0" mesh="" flag=""/>
            <path id="shapePath6" d="M54.8302,85.2393 C57.7092,79.4637 59.8061,73.5383 60.1783,67.2019 C60.5199,64.8702 59.1037,64.8311 58.8902,66.4733 C54.8138,82.0661 33.1275,77.8438 33.8731,63.1768 C34.4781,51.282 46.2926,48.7231 52.4554,52.6123 C54.889,54.0451 54.7515,53.1869 53.4233,51.7005 C44.2685,41.4891 49.8132,28.3388 62.1845,28.0981 C75.5641,28.8915 79.0357,42.968 70.8287,51.2464 C69.8081,52.2411 67.5452,55.4378 70.9517,53.2027 C79.2385,47.3147 90.739,53.6456 90.5044,62.7235 C90.0717,79.4624 69.6653,80.7108 65.3012,66.7292 C64.8814,65.1791 63.6721,64.4006 64.0062,67.0335 C64.6111,71.8001 65.8627,78.9869 69.4436,85.2393 L54.8302,85.2393 Z" style="stroke:none;fill-rule:nonzero;fill:#000000;fill-opacity:1;"/>
        </g>
        <g id="Shape7">
            <desc shapeID="7" type="0" basicInfo-basicType="0" basicInfo-roundedRectRadius="12" basicInfo-polygonSides="6" basicInfo-starPoints="5" bounding="rect(-28.3268,-28.5706,56.6536,57.1411)" text="" font-familyName="" font-pixelSize="20" font-bold="0" font-underline="0" font-alignment="1" strokeStyle="0" markerStart="0" markerEnd="0" shadowEnabled="0" shadowOffsetX="0" shadowOffsetY="2" shadowBlur="4" shadowOpacity="160" blurEnabled="0" blurRadius="4" transform="matrix(1,0,0,1,160.863,253.32)" pers-center="0,0" pers-size="0,0" pers-start="0,0" pers-end="0,0" locked="0" mesh="" flag=""/>
            <path id="shapePath7" d="M168.214,224.75 C165.334,230.525 163.238,236.451 162.865,242.787 C162.524,245.119 163.94,245.158 164.153,243.515 C168.23,227.923 189.916,232.145 189.171,246.812 C188.566,258.707 176.751,261.266 170.588,257.376 C168.155,255.944 168.292,256.802 169.62,258.288 C178.775,268.5 173.23,281.65 160.859,281.891 C147.48,281.097 144.008,267.021 152.215,258.742 C153.236,257.748 155.498,254.551 152.092,256.786 C143.805,262.674 132.305,256.343 132.539,247.265 C132.972,230.526 153.378,229.278 157.742,243.26 C158.162,244.81 159.372,245.588 159.037,242.955 C158.433,238.189 157.181,231.002 153.6,224.75 L168.214,224.75 Z" style="stroke:none;fill-rule:nonzero;fill:#000000;fill-opacity:1;"/>
        </g>
        <g id="Shape8">
            <desc shapeID="8" type="0" basicInfo-basicType="0" basicInfo-roundedRectRadius="12" basicInfo-polygonSides="6" basicInfo-starPoints="5" bounding="rect(-28.3268,-28.5706,56.6536,57.1411)" text="" font-familyName="" font-pixelSize="20" font-bold="0" font-underline="0" font-alignment="1" strokeStyle="0" markerStart="0" markerEnd="0" shadowEnabled="0" shadowOffsetX="0" shadowOffsetY="2" shadowBlur="4" shadowOpacity="160" blurEnabled="0" blurRadius="4" transform="matrix(1,0,0,1,62.1812,253.32)" pers-center="0,0" pers-size="0,0" pers-start="0,0" pers-end="0,0" locked="0" mesh="" flag=""/>
            <path id="shapePath8" d="M69.5322,224.75 C66.6532,230.525 64.5563,236.451 64.1841,242.787 C63.8425,245.119 65.2587,245.158 65.4722,243.515 C69.5486,227.923 91.2349,232.145 90.4893,246.812 C89.8843,258.707 78.0698,261.266 71.907,257.376 C69.4734,255.944 69.6109,256.802 70.9391,258.288 C80.0939,268.5 74.5492,281.65 62.1779,281.891 C48.7983,281.097 45.3267,267.021 53.5337,258.742 C54.5543,257.748 56.8172,254.551 53.4107,256.786 C45.1239,262.674 33.6234,256.343 33.858,247.265 C34.2907,230.526 54.6971,229.278 59.0612,243.26 C59.481,244.81 60.6903,245.588 60.3562,242.955 C59.7513,238.189 58.4997,231.002 54.9188,224.75 L69.5322,224.75 Z" style="stroke:none;fill-rule:nonzero;fill:#000000;fill-opacity:1;"/>
        </g>
        <g id="Shape9">
            <desc shapeID="9" type="0" basicInfo-basicType="0" basicInfo-roundedRectRadius="12" basicInfo-polygonSides="6" basicInfo-starPoints="5" bounding="rect(-11.544,-11.9271,23.0879,23.8543)" text="" font-familyName="" font-pixelSize="20" font-bold="0" font-underline="0" font-alignment="1" strokeStyle="0" markerStart="0" markerEnd="0" shadowEnabled="0" shadowOffsetX="0" shadowOffsetY="2" shadowBlur="4" shadowOpacity="160" blurEnabled="0" blurRadius="4" transform="matrix(1,0,0,1,18.2603,63.0971)" pers-center="0,0" pers-size="0,0" pers-start="0,0" pers-end="0,0" locked="0" mesh="" flag=""/>
            <path id="shapePath9" d="M14.2156,75.0242 C15.4077,72.5792 16.5678,70.3035 17.1999,67.6234 C17.6191,65.0958 16.7616,66.0348 16.2747,67.6916 C15.5535,69.989 13.5521,71.0353 11.6947,71.0604 C8.32358,71.1059 6.642,68.4562 6.7468,65.6065 C6.37869,62.6079 9.41779,60.4864 11.7085,60.6498 C13.4308,60.7727 14.9325,61.7018 15.8414,62.4249 C16.4377,62.7402 17.0754,62.8795 16.1863,62.0664 C14.5087,60.2335 13.1097,59.1023 13.1403,56.3556 C13.1693,53.7769 15.3738,51.0875 18.2957,51.1719 C21.9472,51.2773 23.6077,54.062 23.599,56.6524 C23.589,58.5407 22.6454,60.2787 21.1876,61.3551 C20.2434,62.1212 20.5082,62.6949 21.5853,61.9699 C22.6202,61.0779 23.8524,60.6873 25.1301,60.6599 C28.6206,60.6052 29.9851,63.6214 29.7852,66.4241 C29.5978,69.0498 27.3624,71.7525 24.4162,71.4464 C21.7855,71.1449 20.4032,68.9365 19.6111,66.6696 C19.3488,65.9745 18.9351,65.7867 18.9466,66.8226 C19.5543,71.8801 21.4382,75.0271 21.4519,75.0242 L14.2156,75.0242 Z" style="stroke:none;fill-rule:nonzero;fill:#000000;fill-opacity:1;"/>
        </g>
        <g id="Shape10">
            <desc shapeID="10" type="0" basicInfo-basicType="0" basicInfo-roundedRectRadius="12" basicInfo-polygonSides="6" basicInfo-starPoints="5" bounding="rect(-11.5439,-11.9271,23.0879,23.8543)" text="" font-familyName="" font-pixelSize="20" font-bold="0" font-underline="0" font-alignment="1" strokeStyle="0" markerStart="0" markerEnd="0" shadowEnabled="0" shadowOffsetX="0" shadowOffsetY="2" shadowBlur="4" shadowOpacity="160" blurEnabled="0" blurRadius="4" transform="matrix(1,0,0,1,204.968,248.955)" pers-center="0,0" pers-size="0,0" pers-start="0,0" pers-end="0,0" locked="0" mesh="" flag=""/>
            <path id="shapePath10" d="M209.013,237.028 C207.821,239.473 206.66,241.748 206.028,244.428 C205.609,246.956 206.467,246.017 206.954,244.36 C207.675,242.063 209.676,241.016 211.534,240.991 C214.905,240.946 216.586,243.596 216.481,246.445 C216.85,249.444 213.81,251.565 211.52,251.402 C209.797,251.279 208.296,250.35 207.387,249.627 C206.791,249.312 206.153,249.172 207.042,249.985 C208.72,251.818 210.119,252.95 210.088,255.696 C210.059,258.275 207.854,260.964 204.933,260.88 C201.281,260.774 199.621,257.99 199.629,255.399 C199.639,253.511 200.583,251.773 202.041,250.697 C202.985,249.931 202.72,249.357 201.643,250.082 C200.608,250.974 199.376,251.365 198.098,251.392 C194.608,251.447 193.243,248.43 193.443,245.628 C193.63,243.002 195.866,240.299 198.812,240.605 C201.443,240.907 202.825,243.115 203.617,245.382 C203.879,246.077 204.293,246.265 204.282,245.229 C203.674,240.172 201.79,237.025 201.776,237.028 L209.013,237.028 Z" style="stroke:none;fill-rule:nonzero;fill:#000000;fill-opacity:1;"/>
        </g>
    </g>
</svg>
