<?xml version="1.0"?>
<svg version="1.1" xmlns="http://www.w3.org/2000/svg" xmlns:xlink="http://www.w3.org/1999/xlink" width="223" height="312">
    <desc iVinci="yes" version="4.5" gridStep="20" showGrid="no" snapToGrid="no" codePlatform="0"/>
    <g id="Layer1" opacity="1">
        <g id="Shape1">
            <desc shapeID="1" type="0" basicInfo-basicType="0" basicInfo-roundedRectRadius="12" basicInfo-polygonSides="6" basicInfo-starPoints="5" bounding="rect(-111.614,-155.906,223.228,311.811)" text="" font-familyName="" font-pixelSize="20" font-bold="0" font-underline="0" font-alignment="1" strokeStyle="0" markerStart="0" markerEnd="0" shadowEnabled="0" shadowOffsetX="0" shadowOffsetY="2" shadowBlur="4" shadowOpacity="160" blurEnabled="0" blurRadius="4" transform="matrix(1,0,0,1,111.614,155.906)" pers-center="0,0" pers-size="0,0" pers-start="0,0" pers-end="0,0" locked="0" mesh="" flag=""/>
            <path id="shapePath1" d="M0,9.35434 C0,4.18808 4.49741,0 10.0453,0 L213.183,0 C218.731,0 223.228,4.18808 223.228,9.35434 L223.228,302.457 C223.228,307.623 218.731,311.811 213.183,311.811 L10.0453,311.811 C4.49741,311.811 0,307.623 0,302.457 L0,9.35434 Z" style="stroke:#000000;stroke-opacity:1;stroke-width:0.996733;stroke-linejoin:miter;stroke-miterlimit:2;stroke-linecap:butt;fill-rule:evenodd;fill:#ffffff;fill-opacity:1;"/>
        </g>
        <g id="Shape2">
            <desc shapeID="2" type="0" basicInfo-basicType="0" basicInfo-roundedRectRadius="12" basicInfo-polygonSides="6" basicInfo-starPoints="5" bounding="rect(-10.3521,-16.1221,20.7042,32.2442)" text="" font-familyName="" font-pixelSize="20" font-bold="0" font-underline="0" font-alignment="1" strokeStyle="0" markerStart="0" markerEnd="0" shadowEnabled="0" shadowOffsetX="0" shadowOffsetY="2" shadowBlur="4" shadowOpacity="160" blurEnabled="0" blurRadius="4" transform="matrix(1,0,0,1,18.531,29.7677)" pers-center="0,0" pers-size="0,0" pers-start="0,0" pers-end="0,0" locked="0" mesh="" flag=""/>
            <path id="shapePath2" d="M8.17911,37.5378 L11.3992,37.5095 C12.0116,39.4536 13.3712,41.4357 15.2162,41.9829 C20.428,43.2068 23.7836,40.2956 24.8887,36.9363 C26.2289,32.8628 24.8584,27.1409 21.2712,25.1086 C18.2955,23.4228 13.8762,24.8446 11.8491,28.4471 L9.59192,27.0674 L10.8033,13.6456 L25.5338,13.6456 L25.5338,16.8174 L13.5961,16.8174 L13.4088,22.4086 C15.9741,20.6065 19.9269,20.624 22.4942,21.8887 C27.359,24.2076 29.6182,29.4814 28.6714,35.6992 C27.361,41.8825 24.4741,45.3857 17.9539,45.8892 C10.7093,45.9518 8.15027,40.9712 8.17911,37.5379 L8.17911,37.5378 Z" style="stroke:none;fill-rule:nonzero;fill:#d40000;fill-opacity:1;"/>
        </g>
        <g id="Shape3">
            <desc shapeID="3" type="0" basicInfo-basicType="0" basicInfo-roundedRectRadius="12" basicInfo-polygonSides="6" basicInfo-starPoints="5" bounding="rect(-10.3521,-16.1221,20.7043,32.2442)" text="" font-familyName="" font-pixelSize="20" font-bold="0" font-underline="0" font-alignment="1" strokeStyle="0" markerStart="0" markerEnd="0" shadowEnabled="0" shadowOffsetX="0" shadowOffsetY="2" shadowBlur="4" shadowOpacity="160" blurEnabled="0" blurRadius="4" transform="matrix(1,0,0,1,204.697,282.043)" pers-center="0,0" pers-size="0,0" pers-start="0,0" pers-end="0,0" locked="0" mesh="" flag=""/>
            <path id="shapePath3" d="M215.049,274.273 L211.829,274.302 C211.217,272.357 209.857,270.375 208.012,269.828 C202.8,268.604 199.445,271.515 198.34,274.875 C196.999,278.948 198.37,284.67 201.957,286.702 C204.933,288.388 209.352,286.966 211.379,283.364 L213.636,284.744 L212.425,298.165 L197.694,298.165 L197.694,294.994 L209.632,294.994 L209.819,289.402 C207.254,291.205 203.301,291.187 200.734,289.922 C195.869,287.603 193.61,282.33 194.557,276.112 C195.867,269.929 198.754,266.425 205.274,265.922 C212.519,265.859 215.078,270.84 215.049,274.273 L215.049,274.273 Z" style="stroke:none;fill-rule:nonzero;fill:#d40000;fill-opacity:1;"/>
        </g>
        <g id="Shape4">
            <desc shapeID="4" type="0" basicInfo-basicType="0" basicInfo-roundedRectRadius="12" basicInfo-polygonSides="6" basicInfo-starPoints="5" bounding="rect(-9.675,-12.8329,19.35,25.6659)" text="" font-familyName="" font-pixelSize="20" font-bold="0" font-underline="0" font-alignment="1" strokeStyle="0" markerStart="0" markerEnd="0" shadowEnabled="0" shadowOffsetX="0" shadowOffsetY="2" shadowBlur="4" shadowOpacity="160" blurEnabled="0" blurRadius="4" transform="matrix(1,0,0,1,18.1841,63.0972)" pers-center="0,0" pers-size="0,0" pers-start="0,0" pers-end="0,0" locked="0" mesh="" flag=""/>
            <path id="shapePath4" d="M9.5116,60.5971 C7.92859,57.1248 7.75488,51.1917 12.4827,50.3891 C16.0448,49.9307 17.4944,51.5874 17.7826,54.131 C17.9248,54.874 18.3443,54.9195 18.4774,54.0727 C18.6818,51.4633 21.2646,49.9401 23.2838,50.3227 C28.8104,51.2681 28.4877,57.3512 26.6823,61.4782 C23.9514,66.9577 21.0817,70.4159 18.4373,75.9301 C15.3991,70.1891 11.93,65.525 9.5116,60.5972 L9.5116,60.5971 Z" style="stroke:none;fill-rule:nonzero;fill:#d40000;fill-opacity:1;"/>
        </g>
        <g id="Shape5">
            <desc shapeID="5" type="0" basicInfo-basicType="0" basicInfo-roundedRectRadius="12" basicInfo-polygonSides="6" basicInfo-starPoints="5" bounding="rect(-23.58,-28.946,47.16,57.892)" text="" font-familyName="" font-pixelSize="20" font-bold="0" font-underline="0" font-alignment="1" strokeStyle="0" markerStart="0" markerEnd="0" shadowEnabled="0" shadowOffsetX="0" shadowOffsetY="2" shadowBlur="4" shadowOpacity="160" blurEnabled="0" blurRadius="4" transform="matrix(1,0,0,1,56.105,56.6688)" pers-center="0,0" pers-size="0,0" pers-start="0,0" pers-end="0,0" locked="0" mesh="" flag=""/>
            <path id="shapePath5" d="M44.0553,27.9221 C51.1993,27.4477 54.9237,33.5495 55.6505,38.3585 C56.0839,39.1224 56.3212,38.9072 56.4874,38.3162 C56.8367,32.1421 62.3623,27.096 67.48,27.786 C75.808,27.8943 80.8695,37.1614 79.4464,45.0048 C77.7079,54.5864 72.5467,60.3559 68.6386,66.2979 C64.2173,72.4503 58.2659,81.3374 56.3485,85.6147 C56.3485,85.6147 50.3002,76.4102 42.4313,65.5851 C37.1695,58.3466 32.9582,50.5028 32.5662,43.7498 C32.1183,36.0343 35.2855,29.118 44.0553,27.9221 L44.0553,27.9221 Z" style="stroke:none;fill-rule:nonzero;fill:#d40000;fill-opacity:1;"/>
        </g>
        <g id="Shape6">
            <desc shapeID="6" type="0" basicInfo-basicType="0" basicInfo-roundedRectRadius="12" basicInfo-polygonSides="6" basicInfo-starPoints="5" bounding="rect(-23.58,-28.946,47.16,57.892)" text="" font-familyName="" font-pixelSize="20" font-bold="0" font-underline="0" font-alignment="1" strokeStyle="0" markerStart="0" markerEnd="0" shadowEnabled="0" shadowOffsetX="0" shadowOffsetY="2" shadowBlur="4" shadowOpacity="160" blurEnabled="0" blurRadius="4" transform="matrix(1,0,0,1,166.786,56.6688)" pers-center="0,0" pers-size="0,0" pers-start="0,0" pers-end="0,0" locked="0" mesh="" flag=""/>
            <path id="shapePath6" d="M154.737,27.9221 C161.881,27.4477 165.605,33.5495 166.332,38.3585 C166.765,39.1224 167.003,38.9072 167.169,38.3162 C167.518,32.1421 173.044,27.096 178.161,27.786 C186.489,27.8943 191.551,37.1614 190.128,45.0048 C188.389,54.5864 183.228,60.3559 179.32,66.2979 C174.899,72.4503 168.947,81.3374 167.03,85.6147 C167.03,85.6147 160.982,76.4102 153.113,65.5851 C147.851,58.3466 143.639,50.5028 143.247,43.7498 C142.8,36.0343 145.967,29.118 154.737,27.9221 L154.737,27.9221 Z" style="stroke:none;fill-rule:nonzero;fill:#d40000;fill-opacity:1;"/>
        </g>
        <g id="Shape7">
            <desc shapeID="7" type="0" basicInfo-basicType="0" basicInfo-roundedRectRadius="12" basicInfo-polygonSides="6" basicInfo-starPoints="5" bounding="rect(-23.58,-28.946,47.16,57.892)" text="" font-familyName="" font-pixelSize="20" font-bold="0" font-underline="0" font-alignment="1" strokeStyle="0" markerStart="0" markerEnd="0" shadowEnabled="0" shadowOffsetX="0" shadowOffsetY="2" shadowBlur="4" shadowOpacity="160" blurEnabled="0" blurRadius="4" transform="matrix(1,0,0,1,111.614,155.905)" pers-center="0,0" pers-size="0,0" pers-start="0,0" pers-end="0,0" locked="0" mesh="" flag=""/>
            <path id="shapePath7" d="M99.5644,127.159 C106.708,126.684 110.433,132.786 111.16,137.595 C111.593,138.359 111.83,138.144 111.996,137.553 C112.346,131.379 117.871,126.333 122.989,127.023 C131.317,127.131 136.379,136.398 134.956,144.242 C133.217,153.823 128.056,159.593 124.148,165.535 C119.726,171.687 113.775,180.574 111.858,184.851 C111.858,184.851 105.809,175.647 97.9404,164.822 C92.6786,157.583 88.4673,149.74 88.0753,142.987 C87.6274,135.271 90.7946,128.355 99.5644,127.159 L99.5644,127.159 Z" style="stroke:none;fill-rule:nonzero;fill:#d40000;fill-opacity:1;"/>
        </g>
        <g id="Shape8">
            <desc shapeID="8" type="0" basicInfo-basicType="0" basicInfo-roundedRectRadius="12" basicInfo-polygonSides="6" basicInfo-starPoints="5" bounding="rect(-23.58,-28.946,47.16,57.892)" text="" font-familyName="" font-pixelSize="20" font-bold="0" font-underline="0" font-alignment="1" strokeStyle="0" markerStart="0" markerEnd="0" shadowEnabled="0" shadowOffsetX="0" shadowOffsetY="2" shadowBlur="4" shadowOpacity="160" blurEnabled="0" blurRadius="4" transform="matrix(1,0,0,1,56.105,253.32)" pers-center="0,0" pers-size="0,0" pers-start="0,0" pers-end="0,0" locked="0" mesh="" flag=""/>
            <path id="shapePath8" d="M44.0553,282.067 C51.1993,282.541 54.9237,276.439 55.6505,271.63 C56.0839,270.866 56.3212,271.082 56.4874,271.673 C56.8367,277.847 62.3623,282.893 67.48,282.203 C75.808,282.095 80.8695,272.827 79.4464,264.984 C77.7079,255.402 72.5467,249.633 68.6386,243.691 C64.2173,237.539 58.2659,228.652 56.3485,224.374 C56.3485,224.374 50.3002,233.579 42.4313,244.404 C37.1695,251.642 32.9582,259.486 32.5662,266.239 C32.1183,273.955 35.2855,280.871 44.0553,282.067 L44.0553,282.067 Z" style="stroke:none;fill-rule:nonzero;fill:#d40000;fill-opacity:1;"/>
        </g>
        <g id="Shape9">
            <desc shapeID="9" type="0" basicInfo-basicType="0" basicInfo-roundedRectRadius="12" basicInfo-polygonSides="6" basicInfo-starPoints="5" bounding="rect(-23.58,-28.946,47.16,57.892)" text="" font-familyName="" font-pixelSize="20" font-bold="0" font-underline="0" font-alignment="1" strokeStyle="0" markerStart="0" markerEnd="0" shadowEnabled="0" shadowOffsetX="0" shadowOffsetY="2" shadowBlur="4" shadowOpacity="160" blurEnabled="0" blurRadius="4" transform="matrix(1,0,0,1,166.786,253.32)" pers-center="0,0" pers-size="0,0" pers-start="0,0" pers-end="0,0" locked="0" mesh="" flag=""/>
            <path id="shapePath9" d="M154.737,282.067 C161.881,282.541 165.605,276.439 166.332,271.63 C166.765,270.866 167.003,271.082 167.169,271.673 C167.518,277.847 173.044,282.893 178.161,282.203 C186.489,282.095 191.551,272.827 190.128,264.984 C188.389,255.402 183.228,249.633 179.32,243.691 C174.899,237.539 168.947,228.652 167.03,224.374 C167.03,224.374 160.982,233.579 153.113,244.404 C147.851,251.642 143.639,259.486 143.247,266.239 C142.8,273.955 145.967,280.871 154.737,282.067 L154.737,282.067 Z" style="stroke:none;fill-rule:nonzero;fill:#d40000;fill-opacity:1;"/>
        </g>
        <g id="Shape10">
            <desc shapeID="10" type="0" basicInfo-basicType="0" basicInfo-roundedRectRadius="12" basicInfo-polygonSides="6" basicInfo-starPoints="5" bounding="rect(-9.675,-12.8329,19.35,25.6658)" text="" font-familyName="" font-pixelSize="20" font-bold="0" font-underline="0" font-alignment="1" strokeStyle="0" markerStart="0" markerEnd="0" shadowEnabled="0" shadowOffsetX="0" shadowOffsetY="2" shadowBlur="4" shadowOpacity="160" blurEnabled="0" blurRadius="4" transform="matrix(1,0,0,1,204.892,248.955)" pers-center="0,0" pers-size="0,0" pers-start="0,0" pers-end="0,0" locked="0" mesh="" flag=""/>
            <path id="shapePath10" d="M196.219,251.455 C194.636,254.927 194.463,260.86 199.19,261.663 C202.753,262.121 204.202,260.465 204.49,257.921 C204.633,257.178 205.052,257.132 205.185,257.979 C205.389,260.589 207.972,262.112 209.991,261.729 C215.518,260.784 215.195,254.701 213.39,250.574 C210.659,245.094 207.789,241.636 205.145,236.122 C202.107,241.863 198.638,246.527 196.219,251.455 Z" style="stroke:none;fill-rule:nonzero;fill:#d40000;fill-opacity:1;"/>
        </g>
    </g>
</svg>
