<?xml version="1.0"?>
<svg version="1.1" xmlns="http://www.w3.org/2000/svg" xmlns:xlink="http://www.w3.org/1999/xlink" width="223" height="312">
    <desc iVinci="yes" version="4.5" gridStep="20" showGrid="no" snapToGrid="no" codePlatform="0"/>
    <g id="Layer1" opacity="1">
        <g id="Shape1">
            <desc shapeID="1" type="0" basicInfo-basicType="0" basicInfo-roundedRectRadius="12" basicInfo-polygonSides="6" basicInfo-starPoints="5" bounding="rect(-111.614,-155.906,223.228,311.811)" text="" font-familyName="" font-pixelSize="20" font-bold="0" font-underline="0" font-alignment="1" strokeStyle="0" markerStart="0" markerEnd="0" shadowEnabled="0" shadowOffsetX="0" shadowOffsetY="2" shadowBlur="4" shadowOpacity="160" blurEnabled="0" blurRadius="4" transform="matrix(1,0,0,1,111.614,155.906)" pers-center="0,0" pers-size="0,0" pers-start="0,0" pers-end="0,0" locked="0" mesh="" flag=""/>
            <path id="shapePath1" d="M0,9.35431 C0,4.18805 4.49741,-3.05176e-05 10.0453,-3.05176e-05 L213.183,-3.05176e-05 C218.731,-3.05176e-05 223.228,4.18805 223.228,9.35431 L223.228,302.457 C223.228,307.623 218.731,311.811 213.183,311.811 L10.0453,311.811 C4.49741,311.811 0,307.623 0,302.457 L0,9.35431 Z" style="stroke:#000000;stroke-opacity:1;stroke-width:0.996733;stroke-linejoin:miter;stroke-miterlimit:2;stroke-linecap:butt;fill-rule:evenodd;fill:#ffffff;fill-opacity:1;"/>
        </g>
        <g id="Shape2">
            <desc shapeID="2" type="0" basicInfo-basicType="0" basicInfo-roundedRectRadius="12" basicInfo-polygonSides="6" basicInfo-starPoints="5" bounding="rect(-10.3521,-16.1221,20.7042,32.2442)" text="" font-familyName="" font-pixelSize="20" font-bold="0" font-underline="0" font-alignment="1" strokeStyle="0" markerStart="0" markerEnd="0" shadowEnabled="0" shadowOffsetX="0" shadowOffsetY="2" shadowBlur="4" shadowOpacity="160" blurEnabled="0" blurRadius="4" transform="matrix(1,0,0,1,18.531,29.7677)" pers-center="0,0" pers-size="0,0" pers-start="0,0" pers-end="0,0" locked="0" mesh="" flag=""/>
            <path id="shapePath2" d="M8.17911,37.5378 L11.3992,37.5095 C12.0116,39.4535 13.3712,41.4357 15.2162,41.9829 C20.428,43.2068 23.7836,40.2956 24.8887,36.9363 C26.2289,32.8628 24.8584,27.1408 21.2712,25.1086 C18.2955,23.4228 13.8762,24.8445 11.8491,28.4471 L9.59192,27.0673 L10.8033,13.6455 L25.5338,13.6455 L25.5338,16.8174 L13.5961,16.8174 L13.4088,22.4085 C15.9741,20.6064 19.9269,20.624 22.4942,21.8887 C27.359,24.2076 29.6182,29.4814 28.6714,35.6992 C27.361,41.8824 24.4741,45.3857 17.9539,45.8892 C10.7093,45.9518 8.15027,40.9712 8.17911,37.5379 L8.17911,37.5378 Z" style="stroke:none;fill-rule:nonzero;fill:#000000;fill-opacity:1;"/>
        </g>
        <g id="Shape3">
            <desc shapeID="3" type="0" basicInfo-basicType="0" basicInfo-roundedRectRadius="12" basicInfo-polygonSides="6" basicInfo-starPoints="5" bounding="rect(-10.3521,-16.1221,20.7043,32.2442)" text="" font-familyName="" font-pixelSize="20" font-bold="0" font-underline="0" font-alignment="1" strokeStyle="0" markerStart="0" markerEnd="0" shadowEnabled="0" shadowOffsetX="0" shadowOffsetY="2" shadowBlur="4" shadowOpacity="160" blurEnabled="0" blurRadius="4" transform="matrix(1,0,0,1,204.697,282.043)" pers-center="0,0" pers-size="0,0" pers-start="0,0" pers-end="0,0" locked="0" mesh="" flag=""/>
            <path id="shapePath3" d="M215.049,274.273 L211.829,274.302 C211.217,272.357 209.857,270.375 208.012,269.828 C202.8,268.604 199.445,271.515 198.34,274.875 C196.999,278.948 198.37,284.67 201.957,286.702 C204.933,288.388 209.352,286.966 211.379,283.364 L213.636,284.744 L212.425,298.165 L197.694,298.165 L197.694,294.994 L209.632,294.994 L209.819,289.402 C207.254,291.205 203.301,291.187 200.734,289.922 C195.869,287.603 193.61,282.33 194.557,276.112 C195.867,269.929 198.754,266.425 205.274,265.922 C212.519,265.859 215.078,270.84 215.049,274.273 L215.049,274.273 Z" style="stroke:none;fill-rule:nonzero;fill:#000000;fill-opacity:1;"/>
        </g>
        <g id="Shape4">
            <desc shapeID="4" type="0" basicInfo-basicType="0" basicInfo-roundedRectRadius="12" basicInfo-polygonSides="6" basicInfo-starPoints="5" bounding="rect(-23.895,-29.6864,47.79,59.3729)" text="" font-familyName="" font-pixelSize="20" font-bold="0" font-underline="0" font-alignment="1" strokeStyle="0" markerStart="0" markerEnd="0" shadowEnabled="0" shadowOffsetX="0" shadowOffsetY="2" shadowBlur="4" shadowOpacity="160" blurEnabled="0" blurRadius="4" transform="matrix(1,0,0,1,56.0941,56.6687)" pers-center="0,0" pers-size="0,0" pers-start="0,0" pers-end="0,0" locked="0" mesh="" flag=""/>
            <path id="shapePath4" d="M53.9645,68.1194 C53.9795,66.0937 52.3777,66.0549 52.3959,67.5336 C52.2616,74.9622 45.9794,78.62 41.4153,77.7523 C34.3792,76.4147 32.1335,69.4302 32.2006,65.3169 C32.4078,52.6206 45.1884,43.2585 56.7208,26.9823 C65.1709,41.6731 79.118,53.2119 79.9437,64.5681 C81.0414,79.6661 61.9348,85.2977 59.2068,67.7007 C59.0308,66.4577 57.5671,65.8997 57.6807,67.6357 C58.0952,72.4583 57.5058,74.4671 62.9464,86.3552 L48.7247,86.3552 C51.8744,80.8003 53.7501,73.9806 53.9645,68.1194 L53.9645,68.1194 Z" style="stroke:none;fill-rule:nonzero;fill:#000000;fill-opacity:1;"/>
        </g>
        <g id="Shape5">
            <desc shapeID="5" type="0" basicInfo-basicType="0" basicInfo-roundedRectRadius="12" basicInfo-polygonSides="6" basicInfo-starPoints="5" bounding="rect(-23.895,-29.6864,47.79,59.3729)" text="" font-familyName="" font-pixelSize="20" font-bold="0" font-underline="0" font-alignment="1" strokeStyle="0" markerStart="0" markerEnd="0" shadowEnabled="0" shadowOffsetX="0" shadowOffsetY="2" shadowBlur="4" shadowOpacity="160" blurEnabled="0" blurRadius="4" transform="matrix(1,0,0,1,166.775,56.6687)" pers-center="0,0" pers-size="0,0" pers-start="0,0" pers-end="0,0" locked="0" mesh="" flag=""/>
            <path id="shapePath5" d="M164.646,68.1194 C164.661,66.0937 163.059,66.0549 163.077,67.5336 C162.943,74.9622 156.661,78.62 152.097,77.7523 C145.06,76.4147 142.815,69.4302 142.882,65.3169 C143.089,52.6206 155.87,43.2585 167.402,26.9823 C175.852,41.6731 189.799,53.2119 190.625,64.5681 C191.723,79.6661 172.616,85.2977 169.888,67.7007 C169.712,66.4577 168.248,65.8997 168.362,67.6357 C168.776,72.4583 168.187,74.4671 173.628,86.3552 L159.406,86.3552 C162.556,80.8003 164.431,73.9806 164.646,68.1194 L164.646,68.1194 Z" style="stroke:none;fill-rule:nonzero;fill:#000000;fill-opacity:1;"/>
        </g>
        <g id="Shape6">
            <desc shapeID="6" type="0" basicInfo-basicType="0" basicInfo-roundedRectRadius="12" basicInfo-polygonSides="6" basicInfo-starPoints="5" bounding="rect(-23.895,-29.6864,47.79,59.3728)" text="" font-familyName="" font-pixelSize="20" font-bold="0" font-underline="0" font-alignment="1" strokeStyle="0" markerStart="0" markerEnd="0" shadowEnabled="0" shadowOffsetX="0" shadowOffsetY="2" shadowBlur="4" shadowOpacity="160" blurEnabled="0" blurRadius="4" transform="matrix(1,0,0,1,111.533,155.931)" pers-center="0,0" pers-size="0,0" pers-start="0,0" pers-end="0,0" locked="0" mesh="" flag=""/>
            <path id="shapePath6" d="M109.403,167.382 C109.418,165.356 107.816,165.317 107.834,166.796 C107.7,174.224 101.418,177.882 96.8538,177.015 C89.8177,175.677 87.572,168.693 87.6391,164.579 C87.8463,151.883 100.627,142.521 112.159,126.245 C120.609,140.935 134.556,152.474 135.382,163.83 C136.48,178.928 117.373,184.56 114.645,166.963 C114.469,165.72 113.006,165.162 113.119,166.898 C113.534,171.721 112.944,173.729 118.385,185.617 L104.163,185.617 C107.313,180.063 109.189,173.243 109.403,167.382 L109.403,167.382 Z" style="stroke:none;fill-rule:nonzero;fill:#000000;fill-opacity:1;"/>
        </g>
        <g id="Shape7">
            <desc shapeID="7" type="0" basicInfo-basicType="0" basicInfo-roundedRectRadius="12" basicInfo-polygonSides="6" basicInfo-starPoints="5" bounding="rect(-23.895,-29.6865,47.79,59.3729)" text="" font-familyName="" font-pixelSize="20" font-bold="0" font-underline="0" font-alignment="1" strokeStyle="0" markerStart="0" markerEnd="0" shadowEnabled="0" shadowOffsetX="0" shadowOffsetY="2" shadowBlur="4" shadowOpacity="160" blurEnabled="0" blurRadius="4" transform="matrix(1,0,0,1,56.1049,253.346)" pers-center="0,0" pers-size="0,0" pers-start="0,0" pers-end="0,0" locked="0" mesh="" flag=""/>
            <path id="shapePath7" d="M53.9753,241.895 C53.9903,243.921 52.3885,243.959 52.4067,242.481 C52.2724,235.052 45.9902,231.394 41.4261,232.262 C34.39,233.6 32.1443,240.584 32.2114,244.698 C32.4186,257.394 45.1992,266.756 56.7316,283.032 C65.1817,268.341 79.1288,256.802 79.9545,245.446 C81.0522,230.348 61.9456,224.717 59.2176,242.314 C59.0416,243.557 57.5779,244.115 57.6915,242.379 C58.106,237.556 57.5166,235.547 62.9572,223.659 L48.7355,223.659 C51.8852,229.214 53.7609,236.034 53.9753,241.895 L53.9753,241.895 Z" style="stroke:none;fill-rule:nonzero;fill:#000000;fill-opacity:1;"/>
        </g>
        <g id="Shape8">
            <desc shapeID="8" type="0" basicInfo-basicType="0" basicInfo-roundedRectRadius="12" basicInfo-polygonSides="6" basicInfo-starPoints="5" bounding="rect(-23.895,-29.6865,47.79,59.3729)" text="" font-familyName="" font-pixelSize="20" font-bold="0" font-underline="0" font-alignment="1" strokeStyle="0" markerStart="0" markerEnd="0" shadowEnabled="0" shadowOffsetX="0" shadowOffsetY="2" shadowBlur="4" shadowOpacity="160" blurEnabled="0" blurRadius="4" transform="matrix(1,0,0,1,166.786,253.346)" pers-center="0,0" pers-size="0,0" pers-start="0,0" pers-end="0,0" locked="0" mesh="" flag=""/>
            <path id="shapePath8" d="M164.657,241.895 C164.672,243.921 163.07,243.959 163.088,242.481 C162.954,235.052 156.672,231.394 152.107,232.262 C145.071,233.6 142.826,240.584 142.893,244.698 C143.1,257.394 155.88,266.756 167.413,283.032 C175.863,268.341 189.81,256.802 190.636,245.446 C191.733,230.348 172.627,224.717 169.899,242.314 C169.723,243.557 168.259,244.115 168.373,242.379 C168.787,237.556 168.198,235.547 173.638,223.659 L159.417,223.659 C162.566,229.214 164.442,236.034 164.657,241.895 L164.657,241.895 Z" style="stroke:none;fill-rule:nonzero;fill:#000000;fill-opacity:1;"/>
        </g>
        <g id="Shape9">
            <desc shapeID="9" type="0" basicInfo-basicType="0" basicInfo-roundedRectRadius="12" basicInfo-polygonSides="6" basicInfo-starPoints="5" bounding="rect(-8.46007,-12.905,16.9201,25.81)" text="" font-familyName="" font-pixelSize="20" font-bold="0" font-underline="0" font-alignment="1" strokeStyle="0" markerStart="0" markerEnd="0" shadowEnabled="0" shadowOffsetX="0" shadowOffsetY="2" shadowBlur="4" shadowOpacity="160" blurEnabled="0" blurRadius="4" transform="matrix(1,0,0,1,18.1815,63.0971)" pers-center="0,0" pers-size="0,0" pers-start="0,0" pers-end="0,0" locked="0" mesh="" flag=""/>
            <path id="shapePath9" d="M17.7568,69.6531 C17.7668,68.7816 16.8615,69.1885 16.739,69.4628 C15.5758,71.4484 13.8742,71.9105 12.1911,71.1946 C10.5238,70.4855 9.58688,68.9143 9.73718,66.6725 C10.0474,63.2346 12.7726,59.4729 14.0922,57.3463 C15.3442,55.4164 16.7201,53.1241 18.1689,50.1921 C19.8662,53.5554 20.7276,54.5127 22.5741,57.5836 C24.2001,60.2881 26.4666,62.9366 26.6416,66.206 C26.6416,68.6909 25.5956,71.0378 23.2422,71.4654 C21.9108,71.7073 20.6635,71.0239 19.7384,69.4286 C19.4566,69.022 18.8896,69.2339 18.8991,69.7905 C19.0643,71.8838 19.8545,73.7737 21.7286,76.0021 L14.8415,76.0021 C16.2516,74.4261 17.6902,72.2984 17.7568,69.6531 L17.7568,69.6531 Z" style="stroke:none;fill-rule:nonzero;fill:#000000;fill-opacity:1;"/>
        </g>
        <g id="Shape10">
            <desc shapeID="10" type="0" basicInfo-basicType="0" basicInfo-roundedRectRadius="12" basicInfo-polygonSides="6" basicInfo-starPoints="5" bounding="rect(-8.46001,-12.905,16.92,25.8099)" text="" font-familyName="" font-pixelSize="20" font-bold="0" font-underline="0" font-alignment="1" strokeStyle="0" markerStart="0" markerEnd="0" shadowEnabled="0" shadowOffsetX="0" shadowOffsetY="2" shadowBlur="4" shadowOpacity="160" blurEnabled="0" blurRadius="4" transform="matrix(1,0,0,1,204.889,248.955)" pers-center="0,0" pers-size="0,0" pers-start="0,0" pers-end="0,0" locked="0" mesh="" flag=""/>
            <path id="shapePath10" d="M204.465,242.399 C204.475,243.27 203.569,242.863 203.447,242.589 C202.284,240.603 200.582,240.141 198.899,240.857 C197.232,241.566 196.295,243.138 196.445,245.379 C196.755,248.817 199.48,252.579 200.8,254.706 C202.052,256.636 203.428,258.928 204.877,261.86 C206.574,258.497 207.435,257.539 209.282,254.468 C210.908,251.764 213.174,249.115 213.349,245.846 C213.349,243.361 212.303,241.014 209.95,240.586 C208.619,240.345 207.371,241.028 206.446,242.623 C206.164,243.03 205.598,242.818 205.607,242.261 C205.772,240.168 206.562,238.278 208.436,236.05 L201.549,236.05 C202.96,237.626 204.398,239.753 204.465,242.399 L204.465,242.399 Z" style="stroke:none;fill-rule:nonzero;fill:#000000;fill-opacity:1;"/>
        </g>
    </g>
</svg>
