<?xml version="1.0"?>
<svg version="1.1" xmlns="http://www.w3.org/2000/svg" xmlns:xlink="http://www.w3.org/1999/xlink" width="223" height="312">
    <desc iVinci="yes" version="4.5" gridStep="20" showGrid="no" snapToGrid="no" codePlatform="0"/>
    <g id="Layer1" opacity="1">
        <g id="Shape1">
            <desc shapeID="1" type="0" basicInfo-basicType="0" basicInfo-roundedRectRadius="12" basicInfo-polygonSides="6" basicInfo-starPoints="5" bounding="rect(-111.614,-155.906,223.228,311.811)" text="" font-familyName="" font-pixelSize="20" font-bold="0" font-underline="0" font-alignment="1" strokeStyle="0" markerStart="0" markerEnd="0" shadowEnabled="0" shadowOffsetX="0" shadowOffsetY="2" shadowBlur="4" shadowOpacity="160" blurEnabled="0" blurRadius="4" transform="matrix(1,0,0,1,111.614,155.906)" pers-center="0,0" pers-size="0,0" pers-start="0,0" pers-end="0,0" locked="0" mesh="" flag=""/>
            <path id="shapePath1" d="M0,9.35431 C0,4.18805 4.49741,-3.05176e-05 10.0453,-3.05176e-05 L213.183,-3.05176e-05 C218.731,-3.05176e-05 223.228,4.18805 223.228,9.35431 L223.228,302.457 C223.228,307.623 218.731,311.811 213.183,311.811 L10.0453,311.811 C4.49741,311.811 0,307.623 0,302.457 L0,9.35431 Z" style="stroke:#000000;stroke-opacity:1;stroke-width:0.996733;stroke-linejoin:miter;stroke-miterlimit:2;stroke-linecap:butt;fill-rule:evenodd;fill:#ffffff;fill-opacity:1;"/>
        </g>
        <g id="Shape2">
            <desc shapeID="2" type="0" basicInfo-basicType="0" basicInfo-roundedRectRadius="12" basicInfo-polygonSides="6" basicInfo-starPoints="5" bounding="rect(-10.0657,-16.3061,20.1314,32.6123)" text="" font-familyName="" font-pixelSize="20" font-bold="0" font-underline="0" font-alignment="1" strokeStyle="0" markerStart="0" markerEnd="0" shadowEnabled="0" shadowOffsetX="0" shadowOffsetY="2" shadowBlur="4" shadowOpacity="160" blurEnabled="0" blurRadius="4" transform="matrix(1,0,0,1,17.8768,29.7255)" pers-center="0,0" pers-size="0,0" pers-start="0,0" pers-end="0,0" locked="0" mesh="" flag=""/>
            <path id="shapePath2" d="M8.1236,36.0004 C7.71524,33.2532 7.72177,26.1551 8.05753,24.0579 C9.08664,17.6294 11.5897,14.6891 15.7802,13.7254 C19.8488,12.7897 25.5691,13.8313 26.8242,19.2074 L23.4178,19.2703 C21.578,15.637 16.9225,16.6082 14.3021,18.1882 C12.2089,19.4503 11.2635,24.7078 11.668,25.0314 C11.665,25.0314 15.625,22.1543 18.7437,22.3665 C25.412,23.0483 28.1612,28.7224 27.929,34.0853 C27.7182,40.5349 25.634,45.6877 18.5678,46.0316 C11.8497,45.7781 8.7681,42.1815 8.1236,36.0004 M24.694,34.2954 C24.7311,29.82 22.6603,26.4726 18.7445,26.103 C14.8287,25.7334 10.881,29.4848 11.1543,34.0455 C11.4286,38.6221 13.2329,42.4773 17.9807,42.4559 C23.0867,42.433 24.6676,37.4796 24.694,34.2954 Z" style="stroke:none;fill-rule:nonzero;fill:#000000;fill-opacity:1;"/>
        </g>
        <g id="Shape3">
            <desc shapeID="3" type="0" basicInfo-basicType="0" basicInfo-roundedRectRadius="12" basicInfo-polygonSides="6" basicInfo-starPoints="5" bounding="rect(-10.0657,-16.3062,20.1314,32.6123)" text="" font-familyName="" font-pixelSize="20" font-bold="0" font-underline="0" font-alignment="1" strokeStyle="0" markerStart="0" markerEnd="0" shadowEnabled="0" shadowOffsetX="0" shadowOffsetY="2" shadowBlur="4" shadowOpacity="160" blurEnabled="0" blurRadius="4" transform="matrix(1,0,0,1,205.119,282.085)" pers-center="0,0" pers-size="0,0" pers-start="0,0" pers-end="0,0" locked="0" mesh="" flag=""/>
            <path id="shapePath3" d="M214.872,275.81 C215.281,278.558 215.274,285.656 214.938,287.753 C213.909,294.182 211.406,297.122 207.216,298.086 C203.147,299.021 197.427,297.98 196.172,292.604 L199.578,292.541 C201.418,296.174 206.073,295.203 208.694,293.623 C210.787,292.361 211.732,287.103 211.328,286.779 C211.331,286.779 207.371,289.657 204.252,289.444 C197.584,288.763 194.835,283.089 195.067,277.726 C195.278,271.276 197.362,266.123 204.428,265.779 C211.146,266.033 214.228,269.629 214.872,275.81 M198.302,277.516 C198.265,281.991 200.336,285.338 204.251,285.708 C208.167,286.078 212.115,282.326 211.842,277.765 C211.567,273.189 209.763,269.334 205.015,269.355 C199.909,269.378 198.328,274.331 198.302,277.516 Z" style="stroke:none;fill-rule:nonzero;fill:#000000;fill-opacity:1;"/>
        </g>
        <g id="Shape4">
            <desc shapeID="4" type="0" basicInfo-basicType="0" basicInfo-roundedRectRadius="12" basicInfo-polygonSides="6" basicInfo-starPoints="5" bounding="rect(-28.3268,-28.5706,56.6536,57.1412)" text="" font-familyName="" font-pixelSize="20" font-bold="0" font-underline="0" font-alignment="1" strokeStyle="0" markerStart="0" markerEnd="0" shadowEnabled="0" shadowOffsetX="0" shadowOffsetY="2" shadowBlur="4" shadowOpacity="160" blurEnabled="0" blurRadius="4" transform="matrix(1,0,0,1,161.405,156.003)" pers-center="0,0" pers-size="0,0" pers-start="0,0" pers-end="0,0" locked="0" mesh="" flag=""/>
            <path id="shapePath4" d="M154.054,184.574 C156.933,178.798 159.029,172.873 159.402,166.536 C159.743,164.205 158.327,164.166 158.114,165.808 C154.037,181.401 132.351,177.178 133.096,162.511 C133.701,150.616 145.516,148.057 151.679,151.947 C154.112,153.38 153.975,152.521 152.647,151.035 C143.492,140.823 149.037,127.673 161.408,127.432 C174.788,128.226 178.259,142.302 170.052,150.581 C169.031,151.575 166.769,154.772 170.175,152.537 C178.462,146.649 189.962,152.98 189.728,162.058 C189.295,178.797 168.889,180.045 164.525,166.064 C164.105,164.513 162.895,163.735 163.23,166.368 C163.835,171.135 165.086,178.321 168.667,184.574 L154.054,184.574 Z" style="stroke:none;fill-rule:nonzero;fill:#000000;fill-opacity:1;"/>
        </g>
        <g id="Shape5">
            <desc shapeID="5" type="0" basicInfo-basicType="0" basicInfo-roundedRectRadius="12" basicInfo-polygonSides="6" basicInfo-starPoints="5" bounding="rect(-28.3268,-28.5706,56.6536,57.1412)" text="" font-familyName="" font-pixelSize="20" font-bold="0" font-underline="0" font-alignment="1" strokeStyle="0" markerStart="0" markerEnd="0" shadowEnabled="0" shadowOffsetX="0" shadowOffsetY="2" shadowBlur="4" shadowOpacity="160" blurEnabled="0" blurRadius="4" transform="matrix(1,0,0,1,61.8717,156.003)" pers-center="0,0" pers-size="0,0" pers-start="0,0" pers-end="0,0" locked="0" mesh="" flag=""/>
            <path id="shapePath5" d="M54.5208,184.574 C57.3998,178.798 59.4967,172.873 59.8689,166.536 C60.2105,164.205 58.7943,164.166 58.5808,165.808 C54.5044,181.401 32.8181,177.178 33.5637,162.511 C34.1687,150.616 45.9832,148.057 52.146,151.947 C54.5796,153.38 54.4421,152.521 53.1139,151.035 C43.9591,140.823 49.5038,127.673 61.8751,127.432 C75.2547,128.226 78.7263,142.302 70.5193,150.581 C69.4987,151.575 67.2358,154.772 70.6423,152.537 C78.9291,146.649 90.4296,152.98 90.195,162.058 C89.7623,178.797 69.3559,180.045 64.9918,166.064 C64.572,164.513 63.3627,163.735 63.6968,166.368 C64.3017,171.135 65.5533,178.321 69.1342,184.574 L54.5208,184.574 Z" style="stroke:none;fill-rule:nonzero;fill:#000000;fill-opacity:1;"/>
        </g>
        <g id="Shape6">
            <desc shapeID="6" type="0" basicInfo-basicType="0" basicInfo-roundedRectRadius="12" basicInfo-polygonSides="6" basicInfo-starPoints="5" bounding="rect(-28.3268,-28.5706,56.6536,57.1412)" text="" font-familyName="" font-pixelSize="20" font-bold="0" font-underline="0" font-alignment="1" strokeStyle="0" markerStart="0" markerEnd="0" shadowEnabled="0" shadowOffsetX="0" shadowOffsetY="2" shadowBlur="4" shadowOpacity="160" blurEnabled="0" blurRadius="4" transform="matrix(1,0,0,1,161.405,57.1095)" pers-center="0,0" pers-size="0,0" pers-start="0,0" pers-end="0,0" locked="0" mesh="" flag=""/>
            <path id="shapePath6" d="M154.054,85.6801 C156.933,79.9045 159.029,73.9791 159.402,67.6427 C159.743,65.311 158.327,65.2719 158.114,66.9142 C154.037,82.5069 132.351,78.2846 133.096,63.6176 C133.701,51.7229 145.516,49.1639 151.679,53.0531 C154.112,54.4859 153.975,53.6277 152.647,52.1414 C143.492,41.9299 149.037,28.7796 161.408,28.5389 C174.788,29.3323 178.259,43.4088 170.052,51.6872 C169.031,52.6819 166.769,55.8786 170.175,53.6435 C178.462,47.7556 189.962,54.0864 189.728,63.1643 C189.295,79.9032 168.889,81.1516 164.525,67.1701 C164.105,65.6199 162.895,64.8414 163.23,67.4743 C163.835,72.241 165.086,79.4278 168.667,85.6801 L154.054,85.6801 Z" style="stroke:none;fill-rule:nonzero;fill:#000000;fill-opacity:1;"/>
        </g>
        <g id="Shape7">
            <desc shapeID="7" type="0" basicInfo-basicType="0" basicInfo-roundedRectRadius="12" basicInfo-polygonSides="6" basicInfo-starPoints="5" bounding="rect(-28.3268,-28.5706,56.6536,57.1412)" text="" font-familyName="" font-pixelSize="20" font-bold="0" font-underline="0" font-alignment="1" strokeStyle="0" markerStart="0" markerEnd="0" shadowEnabled="0" shadowOffsetX="0" shadowOffsetY="2" shadowBlur="4" shadowOpacity="160" blurEnabled="0" blurRadius="4" transform="matrix(1,0,0,1,61.8717,57.1095)" pers-center="0,0" pers-size="0,0" pers-start="0,0" pers-end="0,0" locked="0" mesh="" flag=""/>
            <path id="shapePath7" d="M54.5208,85.6801 C57.3998,79.9045 59.4967,73.9791 59.8689,67.6427 C60.2105,65.311 58.7943,65.2719 58.5808,66.9142 C54.5044,82.5069 32.8181,78.2846 33.5637,63.6176 C34.1687,51.7229 45.9832,49.1639 52.146,53.0531 C54.5796,54.4859 54.4421,53.6277 53.1139,52.1414 C43.9591,41.9299 49.5038,28.7796 61.8751,28.5389 C75.2547,29.3323 78.7263,43.4088 70.5193,51.6872 C69.4987,52.6819 67.2358,55.8786 70.6423,53.6435 C78.9291,47.7556 90.4296,54.0864 90.195,63.1643 C89.7623,79.9032 69.3559,81.1516 64.9918,67.1701 C64.572,65.6199 63.3627,64.8414 63.6968,67.4743 C64.3017,72.241 65.5533,79.4278 69.1342,85.6801 L54.5208,85.6801 Z" style="stroke:none;fill-rule:nonzero;fill:#000000;fill-opacity:1;"/>
        </g>
        <g id="Shape8">
            <desc shapeID="8" type="0" basicInfo-basicType="0" basicInfo-roundedRectRadius="12" basicInfo-polygonSides="6" basicInfo-starPoints="5" bounding="rect(-28.3268,-28.5706,56.6536,57.1411)" text="" font-familyName="" font-pixelSize="20" font-bold="0" font-underline="0" font-alignment="1" strokeStyle="0" markerStart="0" markerEnd="0" shadowEnabled="0" shadowOffsetX="0" shadowOffsetY="2" shadowBlur="4" shadowOpacity="160" blurEnabled="0" blurRadius="4" transform="matrix(1,0,0,1,161.405,254.602)" pers-center="0,0" pers-size="0,0" pers-start="0,0" pers-end="0,0" locked="0" mesh="" flag=""/>
            <path id="shapePath8" d="M168.756,226.031 C165.877,231.807 163.78,237.732 163.408,244.068 C163.066,246.4 164.482,246.439 164.696,244.797 C168.772,229.204 190.458,233.427 189.713,248.094 C189.108,259.988 177.293,262.547 171.13,258.658 C168.697,257.225 168.834,258.083 170.163,259.57 C179.317,269.781 173.773,282.932 161.401,283.172 C148.022,282.379 144.55,268.302 152.757,260.024 C153.778,259.029 156.041,255.833 152.634,258.068 C144.347,263.956 132.847,257.625 133.081,248.547 C133.514,231.808 153.921,230.56 158.285,244.541 C158.704,246.091 159.914,246.87 159.58,244.237 C158.975,239.47 157.723,232.283 154.142,226.031 L168.756,226.031 Z" style="stroke:none;fill-rule:nonzero;fill:#000000;fill-opacity:1;"/>
        </g>
        <g id="Shape9">
            <desc shapeID="9" type="0" basicInfo-basicType="0" basicInfo-roundedRectRadius="12" basicInfo-polygonSides="6" basicInfo-starPoints="5" bounding="rect(-28.3268,-28.5706,56.6536,57.1411)" text="" font-familyName="" font-pixelSize="20" font-bold="0" font-underline="0" font-alignment="1" strokeStyle="0" markerStart="0" markerEnd="0" shadowEnabled="0" shadowOffsetX="0" shadowOffsetY="2" shadowBlur="4" shadowOpacity="160" blurEnabled="0" blurRadius="4" transform="matrix(1,0,0,1,61.8719,254.602)" pers-center="0,0" pers-size="0,0" pers-start="0,0" pers-end="0,0" locked="0" mesh="" flag=""/>
            <path id="shapePath9" d="M69.2228,226.031 C66.3438,231.807 64.2469,237.732 63.8747,244.068 C63.5331,246.4 64.9493,246.439 65.1628,244.797 C69.2392,229.204 90.9255,233.427 90.1799,248.094 C89.5749,259.988 77.7604,262.547 71.5976,258.658 C69.164,257.225 69.3015,258.083 70.6297,259.57 C79.7845,269.781 74.2398,282.932 61.8685,283.172 C48.4889,282.379 45.0173,268.302 53.2243,260.024 C54.2449,259.029 56.5078,255.833 53.1013,258.068 C44.8145,263.956 33.314,257.625 33.5486,248.547 C33.9813,231.808 54.3877,230.56 58.7518,244.541 C59.1716,246.091 60.3809,246.87 60.0468,244.237 C59.4419,239.47 58.1903,232.283 54.6094,226.031 L69.2228,226.031 Z" style="stroke:none;fill-rule:nonzero;fill:#000000;fill-opacity:1;"/>
        </g>
        <g id="Shape10">
            <desc shapeID="10" type="0" basicInfo-basicType="0" basicInfo-roundedRectRadius="12" basicInfo-polygonSides="6" basicInfo-starPoints="5" bounding="rect(-11.544,-11.9271,23.0879,23.8543)" text="" font-familyName="" font-pixelSize="20" font-bold="0" font-underline="0" font-alignment="1" strokeStyle="0" markerStart="0" markerEnd="0" shadowEnabled="0" shadowOffsetX="0" shadowOffsetY="2" shadowBlur="4" shadowOpacity="160" blurEnabled="0" blurRadius="4" transform="matrix(1,0,0,1,17.2065,61.8739)" pers-center="0,0" pers-size="0,0" pers-start="0,0" pers-end="0,0" locked="0" mesh="" flag=""/>
            <path id="shapePath10" d="M13.1619,73.801 C14.354,71.356 15.5141,69.0803 16.1462,66.4002 C16.5654,63.8726 15.7079,64.8116 15.221,66.4684 C14.4998,68.7658 12.4984,69.8121 10.641,69.8372 C7.2699,69.8828 5.58829,67.233 5.69308,64.3834 C5.32498,61.3848 8.36411,59.2632 10.6548,59.4266 C12.3771,59.5495 13.8788,60.4787 14.7877,61.2017 C15.384,61.517 16.0217,61.6563 15.1326,60.8433 C13.455,59.0103 12.056,57.8791 12.0866,55.1324 C12.1156,52.5537 14.3201,49.8643 17.242,49.9487 C20.8935,50.0541 22.554,52.8388 22.5453,55.4292 C22.5353,57.3175 21.5917,59.0555 20.1339,60.1319 C19.1897,60.8979 19.4545,61.4717 20.5316,60.7467 C21.5665,59.8547 22.7987,59.4641 24.0764,59.4367 C27.5669,59.382 28.9314,62.3982 28.7315,65.2009 C28.5441,67.8266 26.3087,70.5293 23.3625,70.2232 C20.7318,69.9217 19.3495,67.7133 18.5574,65.4464 C18.2951,64.7513 17.8814,64.5635 17.8929,65.5994 C18.5006,70.6569 20.3845,73.8039 20.3982,73.801 L13.1619,73.801 Z" style="stroke:none;fill-rule:nonzero;fill:#000000;fill-opacity:1;"/>
        </g>
        <g id="Shape11">
            <desc shapeID="11" type="0" basicInfo-basicType="0" basicInfo-roundedRectRadius="12" basicInfo-polygonSides="6" basicInfo-starPoints="5" bounding="rect(-11.5439,-11.9272,23.0879,23.8544)" text="" font-familyName="" font-pixelSize="20" font-bold="0" font-underline="0" font-alignment="1" strokeStyle="0" markerStart="0" markerEnd="0" shadowEnabled="0" shadowOffsetX="0" shadowOffsetY="2" shadowBlur="4" shadowOpacity="160" blurEnabled="0" blurRadius="4" transform="matrix(1,0,0,1,206.022,247.731)" pers-center="0,0" pers-size="0,0" pers-start="0,0" pers-end="0,0" locked="0" mesh="" flag=""/>
            <path id="shapePath11" d="M210.066,235.804 C208.874,238.249 207.714,240.525 207.082,243.205 C206.663,245.733 207.52,244.794 208.007,243.137 C208.728,240.84 210.73,239.793 212.587,239.768 C215.958,239.723 217.64,242.372 217.535,245.222 C217.903,248.221 214.864,250.342 212.573,250.179 C210.851,250.056 209.349,249.127 208.441,248.404 C207.844,248.088 207.207,247.949 208.096,248.762 C209.773,250.595 211.172,251.726 211.142,254.473 C211.113,257.052 208.908,259.741 205.986,259.657 C202.335,259.551 200.674,256.767 200.683,254.176 C200.693,252.288 201.637,250.55 203.094,249.473 C204.039,248.707 203.774,248.134 202.697,248.859 C201.662,249.751 200.43,250.141 199.152,250.169 C195.661,250.223 194.297,247.207 194.497,244.404 C194.684,241.779 196.92,239.076 199.866,239.382 C202.496,239.684 203.879,241.892 204.671,244.159 C204.933,244.854 205.347,245.042 205.335,244.006 C204.728,238.948 202.844,235.801 202.83,235.804 L210.066,235.804 Z" style="stroke:none;fill-rule:nonzero;fill:#000000;fill-opacity:1;"/>
        </g>
    </g>
</svg>
