<?xml version="1.0"?>
<svg version="1.1" xmlns="http://www.w3.org/2000/svg" xmlns:xlink="http://www.w3.org/1999/xlink" width="223" height="312">
    <desc iVinci="yes" version="4.5" gridStep="20" showGrid="no" snapToGrid="no" codePlatform="0"/>
    <g id="Layer1" opacity="1">
        <g id="Shape1">
            <desc shapeID="1" type="0" basicInfo-basicType="0" basicInfo-roundedRectRadius="12" basicInfo-polygonSides="6" basicInfo-starPoints="5" bounding="rect(-111.614,-155.906,223.228,311.811)" text="" font-familyName="" font-pixelSize="20" font-bold="0" font-underline="0" font-alignment="1" strokeStyle="0" markerStart="0" markerEnd="0" shadowEnabled="0" shadowOffsetX="0" shadowOffsetY="2" shadowBlur="4" shadowOpacity="160" blurEnabled="0" blurRadius="4" transform="matrix(1,0,0,1,111.614,155.906)" pers-center="0,0" pers-size="0,0" pers-start="0,0" pers-end="0,0" locked="0" mesh="" flag=""/>
            <path id="shapePath1" d="M0,9.35431 C0,4.18805 4.49741,-3.05176e-05 10.0453,-3.05176e-05 L213.183,-3.05176e-05 C218.731,-3.05176e-05 223.228,4.18805 223.228,9.35431 L223.228,302.457 C223.228,307.623 218.731,311.811 213.183,311.811 L10.0453,311.811 C4.49741,311.811 0,307.623 0,302.457 L0,9.35431 Z" style="stroke:#000000;stroke-opacity:1;stroke-width:0.996733;stroke-linejoin:miter;stroke-miterlimit:2;stroke-linecap:butt;fill-rule:evenodd;fill:#ffffff;fill-opacity:1;"/>
        </g>
        <g id="Shape2">
            <desc shapeID="2" type="0" basicInfo-basicType="0" basicInfo-roundedRectRadius="12" basicInfo-polygonSides="6" basicInfo-starPoints="5" bounding="rect(-10.0657,-16.3061,20.1314,32.6123)" text="" font-familyName="" font-pixelSize="20" font-bold="0" font-underline="0" font-alignment="1" strokeStyle="0" markerStart="0" markerEnd="0" shadowEnabled="0" shadowOffsetX="0" shadowOffsetY="2" shadowBlur="4" shadowOpacity="160" blurEnabled="0" blurRadius="4" transform="matrix(1,0,0,1,17.993,29.7255)" pers-center="0,0" pers-size="0,0" pers-start="0,0" pers-end="0,0" locked="0" mesh="" flag=""/>
            <path id="shapePath2" d="M8.23981,36.0004 C7.83145,33.2532 7.83798,26.1551 8.17371,24.0579 C9.20285,17.6294 11.7059,14.6891 15.8964,13.7254 C19.965,12.7898 25.6853,13.8313 26.9405,19.2074 L23.534,19.2704 C21.6942,15.6371 17.0386,16.6082 14.4183,18.1882 C12.3251,19.4504 11.3797,24.7079 11.7842,25.0315 C11.7812,25.0315 15.7412,22.1543 18.86,22.3665 C25.5282,23.0483 28.2774,28.7224 28.0451,34.0853 C27.8344,40.5349 25.7502,45.6877 18.684,46.0317 C11.9659,45.7782 8.88428,42.1816 8.23981,36.0004 M24.8102,34.2955 C24.8474,29.8201 22.7765,26.4726 18.8607,26.103 C14.9449,25.7334 10.9972,29.4848 11.2705,34.0455 C11.5448,38.6221 13.3491,42.4773 18.0968,42.456 C23.2029,42.4331 24.7838,37.4796 24.8102,34.2955 Z" style="stroke:none;fill-rule:nonzero;fill:#d40000;fill-opacity:1;"/>
        </g>
        <g id="Shape3">
            <desc shapeID="3" type="0" basicInfo-basicType="0" basicInfo-roundedRectRadius="12" basicInfo-polygonSides="6" basicInfo-starPoints="5" bounding="rect(-10.0657,-16.3062,20.1314,32.6123)" text="" font-familyName="" font-pixelSize="20" font-bold="0" font-underline="0" font-alignment="1" strokeStyle="0" markerStart="0" markerEnd="0" shadowEnabled="0" shadowOffsetX="0" shadowOffsetY="2" shadowBlur="4" shadowOpacity="160" blurEnabled="0" blurRadius="4" transform="matrix(1,0,0,1,205.235,282.085)" pers-center="0,0" pers-size="0,0" pers-start="0,0" pers-end="0,0" locked="0" mesh="" flag=""/>
            <path id="shapePath3" d="M214.988,275.811 C215.397,278.558 215.39,285.656 215.055,287.753 C214.025,294.182 211.522,297.122 207.332,298.086 C203.263,299.021 197.543,297.98 196.288,292.604 L199.694,292.541 C201.534,296.174 206.19,295.203 208.81,293.623 C210.903,292.361 211.849,287.103 211.444,286.779 C211.447,286.779 207.487,289.657 204.368,289.444 C197.7,288.763 194.951,283.089 195.183,277.726 C195.394,271.276 197.478,266.123 204.544,265.779 C211.262,266.033 214.344,269.629 214.988,275.811 M198.418,277.516 C198.381,281.991 200.452,285.338 204.368,285.708 C208.283,286.078 212.231,282.326 211.958,277.765 C211.683,273.189 209.879,269.334 205.131,269.355 C200.025,269.378 198.444,274.331 198.418,277.516 Z" style="stroke:none;fill-rule:nonzero;fill:#d40000;fill-opacity:1;"/>
        </g>
        <g id="Shape4">
            <desc shapeID="4" type="0" basicInfo-basicType="0" basicInfo-roundedRectRadius="12" basicInfo-polygonSides="6" basicInfo-starPoints="5" bounding="rect(-9.675,-12.8329,19.35,25.6659)" text="" font-familyName="" font-pixelSize="20" font-bold="0" font-underline="0" font-alignment="1" strokeStyle="0" markerStart="0" markerEnd="0" shadowEnabled="0" shadowOffsetX="0" shadowOffsetY="2" shadowBlur="4" shadowOpacity="160" blurEnabled="0" blurRadius="4" transform="matrix(1,0,0,1,17.3228,61.8739)" pers-center="0,0" pers-size="0,0" pers-start="0,0" pers-end="0,0" locked="0" mesh="" flag=""/>
            <path id="shapePath4" d="M8.6503,59.3738 C7.06729,55.9016 6.89359,49.9684 11.6214,49.1658 C15.1835,48.7074 16.6331,50.3641 16.9213,52.9077 C17.0635,53.6507 17.483,53.6962 17.6161,52.8494 C17.8205,50.24 20.4033,48.7168 22.4225,49.0994 C27.9491,50.0448 27.6264,56.1279 25.821,60.255 C23.0901,65.7344 20.2204,69.1926 17.576,74.7068 C14.5378,68.9658 11.0687,64.3017 8.6503,59.3739 L8.6503,59.3738 Z" style="stroke:none;fill-rule:nonzero;fill:#d40000;fill-opacity:1;"/>
        </g>
        <g id="Shape5">
            <desc shapeID="5" type="0" basicInfo-basicType="0" basicInfo-roundedRectRadius="12" basicInfo-polygonSides="6" basicInfo-starPoints="5" bounding="rect(-23.58,-28.946,47.16,57.892)" text="" font-familyName="" font-pixelSize="20" font-bold="0" font-underline="0" font-alignment="1" strokeStyle="0" markerStart="0" markerEnd="0" shadowEnabled="0" shadowOffsetX="0" shadowOffsetY="2" shadowBlur="4" shadowOpacity="160" blurEnabled="0" blurRadius="4" transform="matrix(1,0,0,1,55.988,57.1095)" pers-center="0,0" pers-size="0,0" pers-start="0,0" pers-end="0,0" locked="0" mesh="" flag=""/>
            <path id="shapePath5" d="M43.9383,28.3629 C51.0823,27.8885 54.8067,33.9903 55.5335,38.7993 C55.9669,39.5632 56.2042,39.3479 56.3704,38.757 C56.7197,32.5829 62.2453,27.5368 67.363,28.2268 C75.691,28.3351 80.7525,37.6022 79.3294,45.4456 C77.5909,55.0272 72.4297,60.7967 68.5216,66.7387 C64.1003,72.8911 58.1489,81.7782 56.2315,86.0555 C56.2315,86.0555 50.1832,76.851 42.3143,66.0259 C37.0525,58.7874 32.8412,50.9436 32.4492,44.1906 C32.0013,36.4751 35.1685,29.5588 43.9383,28.3629 L43.9383,28.3629 Z" style="stroke:none;fill-rule:nonzero;fill:#d40000;fill-opacity:1;"/>
        </g>
        <g id="Shape6">
            <desc shapeID="6" type="0" basicInfo-basicType="0" basicInfo-roundedRectRadius="12" basicInfo-polygonSides="6" basicInfo-starPoints="5" bounding="rect(-23.58,-28.946,47.16,57.892)" text="" font-familyName="" font-pixelSize="20" font-bold="0" font-underline="0" font-alignment="1" strokeStyle="0" markerStart="0" markerEnd="0" shadowEnabled="0" shadowOffsetX="0" shadowOffsetY="2" shadowBlur="4" shadowOpacity="160" blurEnabled="0" blurRadius="4" transform="matrix(1,0,0,1,167.521,57.1095)" pers-center="0,0" pers-size="0,0" pers-start="0,0" pers-end="0,0" locked="0" mesh="" flag=""/>
            <path id="shapePath6" d="M155.471,28.3629 C162.615,27.8885 166.34,33.9903 167.066,38.7993 C167.5,39.5632 167.737,39.3479 167.903,38.757 C168.253,32.5829 173.778,27.5368 178.896,28.2268 C187.224,28.3351 192.285,37.6022 190.862,45.4456 C189.124,55.0272 183.962,60.7967 180.054,66.7387 C175.633,72.8911 169.682,81.7782 167.764,86.0555 C167.764,86.0555 161.716,76.851 153.847,66.0259 C148.585,58.7874 144.374,50.9436 143.982,44.1906 C143.534,36.4751 146.701,29.5588 155.471,28.3629 L155.471,28.3629 Z" style="stroke:none;fill-rule:nonzero;fill:#d40000;fill-opacity:1;"/>
        </g>
        <g id="Shape7">
            <desc shapeID="7" type="0" basicInfo-basicType="0" basicInfo-roundedRectRadius="12" basicInfo-polygonSides="6" basicInfo-starPoints="5" bounding="rect(-23.58,-28.946,47.16,57.892)" text="" font-familyName="" font-pixelSize="20" font-bold="0" font-underline="0" font-alignment="1" strokeStyle="0" markerStart="0" markerEnd="0" shadowEnabled="0" shadowOffsetX="0" shadowOffsetY="2" shadowBlur="4" shadowOpacity="160" blurEnabled="0" blurRadius="4" transform="matrix(1,0,0,1,167.521,156.003)" pers-center="0,0" pers-size="0,0" pers-start="0,0" pers-end="0,0" locked="0" mesh="" flag=""/>
            <path id="shapePath7" d="M155.471,127.257 C162.615,126.782 166.34,132.884 167.066,137.693 C167.5,138.457 167.737,138.242 167.903,137.651 C168.253,131.477 173.778,126.43 178.896,127.12 C187.224,127.229 192.285,136.496 190.862,144.339 C189.124,153.921 183.962,159.69 180.054,165.632 C175.633,171.785 169.682,180.672 167.764,184.949 C167.764,184.949 161.716,175.745 153.847,164.92 C148.585,157.681 144.374,149.837 143.982,143.084 C143.534,135.369 146.701,128.452 155.471,127.257 L155.471,127.257 Z" style="stroke:none;fill-rule:nonzero;fill:#d40000;fill-opacity:1;"/>
        </g>
        <g id="Shape8">
            <desc shapeID="8" type="0" basicInfo-basicType="0" basicInfo-roundedRectRadius="12" basicInfo-polygonSides="6" basicInfo-starPoints="5" bounding="rect(-23.58,-28.946,47.16,57.892)" text="" font-familyName="" font-pixelSize="20" font-bold="0" font-underline="0" font-alignment="1" strokeStyle="0" markerStart="0" markerEnd="0" shadowEnabled="0" shadowOffsetX="0" shadowOffsetY="2" shadowBlur="4" shadowOpacity="160" blurEnabled="0" blurRadius="4" transform="matrix(1,0,0,1,55.988,156.003)" pers-center="0,0" pers-size="0,0" pers-start="0,0" pers-end="0,0" locked="0" mesh="" flag=""/>
            <path id="shapePath8" d="M43.9383,127.257 C51.0823,126.782 54.8067,132.884 55.5335,137.693 C55.9669,138.457 56.2042,138.242 56.3704,137.651 C56.7197,131.477 62.2453,126.43 67.363,127.12 C75.691,127.229 80.7525,136.496 79.3294,144.339 C77.5909,153.921 72.4297,159.69 68.5216,165.632 C64.1003,171.785 58.1489,180.672 56.2315,184.949 C56.2315,184.949 50.1832,175.745 42.3143,164.92 C37.0525,157.681 32.8412,149.837 32.4492,143.084 C32.0013,135.369 35.1685,128.452 43.9383,127.257 L43.9383,127.257 Z" style="stroke:none;fill-rule:nonzero;fill:#d40000;fill-opacity:1;"/>
        </g>
        <g id="Shape9">
            <desc shapeID="9" type="0" basicInfo-basicType="0" basicInfo-roundedRectRadius="12" basicInfo-polygonSides="6" basicInfo-starPoints="5" bounding="rect(-23.58,-28.946,47.16,57.892)" text="" font-familyName="" font-pixelSize="20" font-bold="0" font-underline="0" font-alignment="1" strokeStyle="0" markerStart="0" markerEnd="0" shadowEnabled="0" shadowOffsetX="0" shadowOffsetY="2" shadowBlur="4" shadowOpacity="160" blurEnabled="0" blurRadius="4" transform="matrix(1,0,0,1,55.988,254.602)" pers-center="0,0" pers-size="0,0" pers-start="0,0" pers-end="0,0" locked="0" mesh="" flag=""/>
            <path id="shapePath9" d="M43.9383,283.348 C51.0823,283.823 54.8067,277.721 55.5335,272.912 C55.9669,272.148 56.2042,272.363 56.3704,272.954 C56.7197,279.128 62.2453,284.174 67.363,283.484 C75.691,283.376 80.7525,274.109 79.3294,266.266 C77.5909,256.684 72.4297,250.915 68.5216,244.973 C64.1003,238.82 58.1489,229.933 56.2315,225.656 C56.2315,225.656 50.1832,234.86 42.3143,245.685 C37.0525,252.924 32.8412,260.768 32.4492,267.521 C32.0013,275.236 35.1685,282.152 43.9383,283.348 L43.9383,283.348 Z" style="stroke:none;fill-rule:nonzero;fill:#d40000;fill-opacity:1;"/>
        </g>
        <g id="Shape10">
            <desc shapeID="10" type="0" basicInfo-basicType="0" basicInfo-roundedRectRadius="12" basicInfo-polygonSides="6" basicInfo-starPoints="5" bounding="rect(-23.58,-28.946,47.16,57.892)" text="" font-familyName="" font-pixelSize="20" font-bold="0" font-underline="0" font-alignment="1" strokeStyle="0" markerStart="0" markerEnd="0" shadowEnabled="0" shadowOffsetX="0" shadowOffsetY="2" shadowBlur="4" shadowOpacity="160" blurEnabled="0" blurRadius="4" transform="matrix(1,0,0,1,167.521,254.602)" pers-center="0,0" pers-size="0,0" pers-start="0,0" pers-end="0,0" locked="0" mesh="" flag=""/>
            <path id="shapePath10" d="M155.471,283.348 C162.615,283.823 166.34,277.721 167.066,272.912 C167.5,272.148 167.737,272.363 167.903,272.954 C168.253,279.128 173.778,284.174 178.896,283.484 C187.224,283.376 192.285,274.109 190.862,266.266 C189.124,256.684 183.962,250.915 180.054,244.973 C175.633,238.82 169.682,229.933 167.764,225.656 C167.764,225.656 161.716,234.86 153.847,245.685 C148.585,252.924 144.374,260.768 143.982,267.521 C143.534,275.236 146.701,282.152 155.471,283.348 L155.471,283.348 Z" style="stroke:none;fill-rule:nonzero;fill:#d40000;fill-opacity:1;"/>
        </g>
        <g id="Shape11">
            <desc shapeID="11" type="0" basicInfo-basicType="0" basicInfo-roundedRectRadius="12" basicInfo-polygonSides="6" basicInfo-starPoints="5" bounding="rect(-9.675,-12.8329,19.35,25.6658)" text="" font-familyName="" font-pixelSize="20" font-bold="0" font-underline="0" font-alignment="1" strokeStyle="0" markerStart="0" markerEnd="0" shadowEnabled="0" shadowOffsetX="0" shadowOffsetY="2" shadowBlur="4" shadowOpacity="160" blurEnabled="0" blurRadius="4" transform="matrix(1,0,0,1,206.138,247.732)" pers-center="0,0" pers-size="0,0" pers-start="0,0" pers-end="0,0" locked="0" mesh="" flag=""/>
            <path id="shapePath11" d="M197.465,250.232 C195.883,253.704 195.709,259.637 200.437,260.44 C203.999,260.898 205.448,259.241 205.736,256.698 C205.879,255.955 206.298,255.909 206.431,256.756 C206.636,259.365 209.219,260.889 211.238,260.506 C216.764,259.561 216.442,253.477 214.636,249.35 C211.905,243.871 209.036,240.413 206.391,234.899 C203.353,240.64 199.884,245.304 197.465,250.232 Z" style="stroke:none;fill-rule:nonzero;fill:#d40000;fill-opacity:1;"/>
        </g>
    </g>
</svg>
