<?xml version="1.0"?>
<svg version="1.1" xmlns="http://www.w3.org/2000/svg" xmlns:xlink="http://www.w3.org/1999/xlink" width="223" height="312">
    <desc iVinci="yes" version="4.5" gridStep="20" showGrid="no" snapToGrid="no" codePlatform="0"/>
    <g id="Layer1" opacity="1">
        <g id="Shape1">
            <desc shapeID="1" type="0" basicInfo-basicType="0" basicInfo-roundedRectRadius="12" basicInfo-polygonSides="6" basicInfo-starPoints="5" bounding="rect(-111.614,-155.906,223.228,311.811)" text="" font-familyName="" font-pixelSize="20" font-bold="0" font-underline="0" font-alignment="1" strokeStyle="0" markerStart="0" markerEnd="0" shadowEnabled="0" shadowOffsetX="0" shadowOffsetY="2" shadowBlur="4" shadowOpacity="160" blurEnabled="0" blurRadius="4" transform="matrix(1,0,0,1,111.614,155.906)" pers-center="0,0" pers-size="0,0" pers-start="0,0" pers-end="0,0" locked="0" mesh="" flag=""/>
            <path id="shapePath1" d="M0,9.35431 C0,4.18805 4.49741,-3.05176e-05 10.0453,-3.05176e-05 L213.183,-3.05176e-05 C218.731,-3.05176e-05 223.228,4.18805 223.228,9.35431 L223.228,302.457 C223.228,307.623 218.731,311.811 213.183,311.811 L10.0453,311.811 C4.49741,311.811 0,307.623 0,302.457 L0,9.35431 Z" style="stroke:#000000;stroke-opacity:1;stroke-width:0.996733;stroke-linejoin:miter;stroke-miterlimit:2;stroke-linecap:butt;fill-rule:evenodd;fill:#ffffff;fill-opacity:1;"/>
        </g>
        <g id="Shape2">
            <desc shapeID="2" type="0" basicInfo-basicType="0" basicInfo-roundedRectRadius="12" basicInfo-polygonSides="6" basicInfo-starPoints="5" bounding="rect(-10.0657,-16.3061,20.1314,32.6123)" text="" font-familyName="" font-pixelSize="20" font-bold="0" font-underline="0" font-alignment="1" strokeStyle="0" markerStart="0" markerEnd="0" shadowEnabled="0" shadowOffsetX="0" shadowOffsetY="2" shadowBlur="4" shadowOpacity="160" blurEnabled="0" blurRadius="4" transform="matrix(1,0,0,1,17.993,29.7255)" pers-center="0,0" pers-size="0,0" pers-start="0,0" pers-end="0,0" locked="0" mesh="" flag=""/>
            <path id="shapePath2" d="M8.23981,36.0004 C7.83145,33.2532 7.83798,26.1551 8.17371,24.0579 C9.20285,17.6294 11.7059,14.6891 15.8964,13.7254 C19.965,12.7898 25.6853,13.8313 26.9405,19.2074 L23.534,19.2704 C21.6942,15.6371 17.0386,16.6082 14.4183,18.1882 C12.3251,19.4503 11.3797,24.7079 11.7842,25.0315 C11.7812,25.0315 15.7412,22.1543 18.86,22.3665 C25.5282,23.0483 28.2774,28.7224 28.0451,34.0853 C27.8344,40.5349 25.7502,45.6877 18.684,46.0317 C11.9659,45.7782 8.88428,42.1816 8.23981,36.0004 M24.8102,34.2955 C24.8474,29.8201 22.7765,26.4726 18.8607,26.103 C14.9449,25.7334 10.9972,29.4848 11.2705,34.0455 C11.5448,38.6221 13.3491,42.4773 18.0968,42.456 C23.2029,42.4331 24.7838,37.4796 24.8102,34.2955 Z" style="stroke:none;fill-rule:nonzero;fill:#000000;fill-opacity:1;"/>
        </g>
        <g id="Shape3">
            <desc shapeID="3" type="0" basicInfo-basicType="0" basicInfo-roundedRectRadius="12" basicInfo-polygonSides="6" basicInfo-starPoints="5" bounding="rect(-10.0657,-16.3062,20.1314,32.6123)" text="" font-familyName="" font-pixelSize="20" font-bold="0" font-underline="0" font-alignment="1" strokeStyle="0" markerStart="0" markerEnd="0" shadowEnabled="0" shadowOffsetX="0" shadowOffsetY="2" shadowBlur="4" shadowOpacity="160" blurEnabled="0" blurRadius="4" transform="matrix(1,0,0,1,205.235,282.085)" pers-center="0,0" pers-size="0,0" pers-start="0,0" pers-end="0,0" locked="0" mesh="" flag=""/>
            <path id="shapePath3" d="M214.988,275.811 C215.397,278.558 215.39,285.656 215.055,287.753 C214.025,294.182 211.522,297.122 207.332,298.086 C203.263,299.021 197.543,297.98 196.288,292.604 L199.694,292.541 C201.534,296.174 206.19,295.203 208.81,293.623 C210.903,292.361 211.849,287.103 211.444,286.779 C211.447,286.779 207.487,289.657 204.368,289.444 C197.7,288.763 194.951,283.089 195.183,277.726 C195.394,271.276 197.478,266.123 204.544,265.779 C211.262,266.033 214.344,269.629 214.988,275.811 M198.418,277.516 C198.381,281.991 200.452,285.338 204.368,285.708 C208.283,286.078 212.231,282.326 211.958,277.765 C211.683,273.189 209.879,269.334 205.131,269.355 C200.025,269.378 198.444,274.331 198.418,277.516 Z" style="stroke:none;fill-rule:nonzero;fill:#000000;fill-opacity:1;"/>
        </g>
        <g id="Shape4">
            <desc shapeID="4" type="0" basicInfo-basicType="0" basicInfo-roundedRectRadius="12" basicInfo-polygonSides="6" basicInfo-starPoints="5" bounding="rect(-23.895,-29.6864,47.79,59.3729)" text="" font-familyName="" font-pixelSize="20" font-bold="0" font-underline="0" font-alignment="1" strokeStyle="0" markerStart="0" markerEnd="0" shadowEnabled="0" shadowOffsetX="0" shadowOffsetY="2" shadowBlur="4" shadowOpacity="160" blurEnabled="0" blurRadius="4" transform="matrix(1,0,0,1,55.9772,57.1095)" pers-center="0,0" pers-size="0,0" pers-start="0,0" pers-end="0,0" locked="0" mesh="" flag=""/>
            <path id="shapePath4" d="M53.8475,68.5602 C53.8625,66.5345 52.2607,66.4957 52.2789,67.9744 C52.1446,75.403 45.8624,79.0608 41.2983,78.1931 C34.2622,76.8555 32.0165,69.871 32.0836,65.7577 C32.2908,53.0614 45.0714,43.6992 56.6038,27.4231 C65.0539,42.1139 79.001,53.6527 79.8267,65.0089 C80.9244,80.1069 61.8178,85.7385 59.0898,68.1415 C58.9138,66.8985 57.4501,66.3405 57.5637,68.0766 C57.9782,72.8991 57.3888,74.9079 62.8294,86.796 L48.6077,86.796 C51.7574,81.2411 53.6331,74.4214 53.8475,68.5602 L53.8475,68.5602 Z" style="stroke:none;fill-rule:nonzero;fill:#000000;fill-opacity:1;"/>
        </g>
        <g id="Shape5">
            <desc shapeID="5" type="0" basicInfo-basicType="0" basicInfo-roundedRectRadius="12" basicInfo-polygonSides="6" basicInfo-starPoints="5" bounding="rect(-23.895,-29.6864,47.79,59.3729)" text="" font-familyName="" font-pixelSize="20" font-bold="0" font-underline="0" font-alignment="1" strokeStyle="0" markerStart="0" markerEnd="0" shadowEnabled="0" shadowOffsetX="0" shadowOffsetY="2" shadowBlur="4" shadowOpacity="160" blurEnabled="0" blurRadius="4" transform="matrix(1,0,0,1,167.51,57.1095)" pers-center="0,0" pers-size="0,0" pers-start="0,0" pers-end="0,0" locked="0" mesh="" flag=""/>
            <path id="shapePath5" d="M165.38,68.5602 C165.395,66.5345 163.793,66.4957 163.812,67.9744 C163.677,75.403 157.395,79.0608 152.831,78.1931 C145.795,76.8555 143.549,69.871 143.616,65.7577 C143.824,53.0614 156.604,43.6992 168.137,27.4231 C176.587,42.1139 190.534,53.6527 191.359,65.0089 C192.457,80.1069 173.351,85.7385 170.623,68.1415 C170.447,66.8985 168.983,66.3405 169.096,68.0766 C169.511,72.8991 168.922,74.9079 174.362,86.796 L160.141,86.796 C163.29,81.2411 165.166,74.4214 165.38,68.5602 L165.38,68.5602 Z" style="stroke:none;fill-rule:nonzero;fill:#000000;fill-opacity:1;"/>
        </g>
        <g id="Shape6">
            <desc shapeID="6" type="0" basicInfo-basicType="0" basicInfo-roundedRectRadius="12" basicInfo-polygonSides="6" basicInfo-starPoints="5" bounding="rect(-23.895,-29.6865,47.79,59.3729)" text="" font-familyName="" font-pixelSize="20" font-bold="0" font-underline="0" font-alignment="1" strokeStyle="0" markerStart="0" markerEnd="0" shadowEnabled="0" shadowOffsetX="0" shadowOffsetY="2" shadowBlur="4" shadowOpacity="160" blurEnabled="0" blurRadius="4" transform="matrix(1,0,0,1,55.9879,156.029)" pers-center="0,0" pers-size="0,0" pers-start="0,0" pers-end="0,0" locked="0" mesh="" flag=""/>
            <path id="shapePath6" d="M53.8583,144.578 C53.8733,146.604 52.2715,146.642 52.2897,145.164 C52.1554,137.735 45.8732,134.077 41.3091,134.945 C34.273,136.283 32.0273,143.267 32.0944,147.38 C32.3016,160.077 45.0822,169.439 56.6146,185.715 C65.0647,171.024 79.0118,159.485 79.8375,148.129 C80.9352,133.031 61.8286,127.4 59.1006,144.997 C58.9246,146.24 57.4609,146.798 57.5745,145.062 C57.989,140.239 57.3996,138.23 62.8402,126.342 L48.6185,126.342 C51.7682,131.897 53.6439,138.717 53.8583,144.578 Z" style="stroke:none;fill-rule:nonzero;fill:#000000;fill-opacity:1;"/>
        </g>
        <g id="Shape7">
            <desc shapeID="7" type="0" basicInfo-basicType="0" basicInfo-roundedRectRadius="12" basicInfo-polygonSides="6" basicInfo-starPoints="5" bounding="rect(-23.895,-29.6865,47.79,59.3729)" text="" font-familyName="" font-pixelSize="20" font-bold="0" font-underline="0" font-alignment="1" strokeStyle="0" markerStart="0" markerEnd="0" shadowEnabled="0" shadowOffsetX="0" shadowOffsetY="2" shadowBlur="4" shadowOpacity="160" blurEnabled="0" blurRadius="4" transform="matrix(1,0,0,1,167.521,156.029)" pers-center="0,0" pers-size="0,0" pers-start="0,0" pers-end="0,0" locked="0" mesh="" flag=""/>
            <path id="shapePath7" d="M165.391,144.578 C165.406,146.604 163.804,146.642 163.823,145.164 C163.688,137.735 157.406,134.077 152.842,134.945 C145.806,136.283 143.56,143.267 143.627,147.38 C143.834,160.077 156.615,169.439 168.147,185.715 C176.598,171.024 190.545,159.485 191.37,148.129 C192.468,133.031 173.361,127.4 170.633,144.997 C170.457,146.24 168.994,146.798 169.107,145.062 C169.522,140.239 168.932,138.23 174.373,126.342 L160.151,126.342 C163.301,131.897 165.177,138.717 165.391,144.578 Z" style="stroke:none;fill-rule:nonzero;fill:#000000;fill-opacity:1;"/>
        </g>
        <g id="Shape8">
            <desc shapeID="8" type="0" basicInfo-basicType="0" basicInfo-roundedRectRadius="12" basicInfo-polygonSides="6" basicInfo-starPoints="5" bounding="rect(-23.895,-29.6864,47.79,59.3729)" text="" font-familyName="" font-pixelSize="20" font-bold="0" font-underline="0" font-alignment="1" strokeStyle="0" markerStart="0" markerEnd="0" shadowEnabled="0" shadowOffsetX="0" shadowOffsetY="2" shadowBlur="4" shadowOpacity="160" blurEnabled="0" blurRadius="4" transform="matrix(1,0,0,1,167.521,254.627)" pers-center="0,0" pers-size="0,0" pers-start="0,0" pers-end="0,0" locked="0" mesh="" flag=""/>
            <path id="shapePath8" d="M165.391,243.177 C165.406,245.202 163.804,245.241 163.823,243.762 C163.688,236.334 157.406,232.676 152.842,233.544 C145.806,234.881 143.56,241.866 143.627,245.979 C143.834,258.675 156.615,268.038 168.147,284.314 C176.598,269.623 190.545,258.084 191.37,246.728 C192.468,231.63 173.361,225.998 170.633,243.595 C170.457,244.838 168.994,245.396 169.107,243.66 C169.522,238.838 168.932,236.829 174.373,224.941 L160.151,224.941 C163.301,230.496 165.177,237.315 165.391,243.177 L165.391,243.177 Z" style="stroke:none;fill-rule:nonzero;fill:#000000;fill-opacity:1;"/>
        </g>
        <g id="Shape9">
            <desc shapeID="9" type="0" basicInfo-basicType="0" basicInfo-roundedRectRadius="12" basicInfo-polygonSides="6" basicInfo-starPoints="5" bounding="rect(-23.895,-29.6864,47.79,59.3729)" text="" font-familyName="" font-pixelSize="20" font-bold="0" font-underline="0" font-alignment="1" strokeStyle="0" markerStart="0" markerEnd="0" shadowEnabled="0" shadowOffsetX="0" shadowOffsetY="2" shadowBlur="4" shadowOpacity="160" blurEnabled="0" blurRadius="4" transform="matrix(1,0,0,1,55.9879,254.627)" pers-center="0,0" pers-size="0,0" pers-start="0,0" pers-end="0,0" locked="0" mesh="" flag=""/>
            <path id="shapePath9" d="M53.8583,243.177 C53.8733,245.202 52.2715,245.241 52.2897,243.762 C52.1554,236.334 45.8732,232.676 41.3091,233.544 C34.273,234.881 32.0273,241.866 32.0944,245.979 C32.3016,258.675 45.0822,268.038 56.6146,284.314 C65.0647,269.623 79.0118,258.084 79.8375,246.728 C80.9352,231.63 61.8286,225.998 59.1006,243.595 C58.9246,244.838 57.4609,245.396 57.5745,243.66 C57.989,238.838 57.3996,236.829 62.8402,224.941 L48.6185,224.941 C51.7682,230.496 53.6439,237.315 53.8583,243.177 L53.8583,243.177 Z" style="stroke:none;fill-rule:nonzero;fill:#000000;fill-opacity:1;"/>
        </g>
        <g id="Shape10">
            <desc shapeID="10" type="0" basicInfo-basicType="0" basicInfo-roundedRectRadius="12" basicInfo-polygonSides="6" basicInfo-starPoints="5" bounding="rect(-8.46007,-12.905,16.9201,25.8099)" text="" font-familyName="" font-pixelSize="20" font-bold="0" font-underline="0" font-alignment="1" strokeStyle="0" markerStart="0" markerEnd="0" shadowEnabled="0" shadowOffsetX="0" shadowOffsetY="2" shadowBlur="4" shadowOpacity="160" blurEnabled="0" blurRadius="4" transform="matrix(1,0,0,1,17.3203,61.8739)" pers-center="0,0" pers-size="0,0" pers-start="0,0" pers-end="0,0" locked="0" mesh="" flag=""/>
            <path id="shapePath10" d="M16.8955,68.4299 C16.9055,67.5584 16.0002,67.9653 15.8777,68.2396 C14.7145,70.2252 13.0129,70.6873 11.3298,69.9714 C9.66251,69.2623 8.72559,67.6911 8.87589,65.4493 C9.1861,62.0114 11.9113,58.2497 13.2309,56.1231 C14.4829,54.1931 15.8588,51.9009 17.3076,48.969 C19.0049,52.3322 19.8663,53.2895 21.7128,56.3604 C23.3388,59.0648 25.6053,61.7134 25.7803,64.9828 C25.7803,67.4677 24.7343,69.8147 22.3809,70.2422 C21.0495,70.4841 19.8022,69.8007 18.8771,68.2054 C18.5953,67.7988 18.0283,68.0107 18.0378,68.5673 C18.203,70.6606 18.9932,72.5505 20.8673,74.7789 L13.9802,74.7789 C15.3903,73.2029 16.8289,71.0752 16.8955,68.4299 Z" style="stroke:none;fill-rule:nonzero;fill:#000000;fill-opacity:1;"/>
        </g>
        <g id="Shape11">
            <desc shapeID="11" type="0" basicInfo-basicType="0" basicInfo-roundedRectRadius="12" basicInfo-polygonSides="6" basicInfo-starPoints="5" bounding="rect(-8.46001,-12.905,16.92,25.81)" text="" font-familyName="" font-pixelSize="20" font-bold="0" font-underline="0" font-alignment="1" strokeStyle="0" markerStart="0" markerEnd="0" shadowEnabled="0" shadowOffsetX="0" shadowOffsetY="2" shadowBlur="4" shadowOpacity="160" blurEnabled="0" blurRadius="4" transform="matrix(1,0,0,1,206.135,247.731)" pers-center="0,0" pers-size="0,0" pers-start="0,0" pers-end="0,0" locked="0" mesh="" flag=""/>
            <path id="shapePath11" d="M205.711,241.175 C205.721,242.047 204.815,241.64 204.693,241.366 C203.53,239.38 201.828,238.918 200.145,239.634 C198.478,240.343 197.541,241.914 197.691,244.156 C198.001,247.594 200.727,251.356 202.046,253.482 C203.298,255.412 204.674,257.705 206.123,260.636 C207.82,257.273 208.681,256.316 210.528,253.245 C212.154,250.541 214.421,247.892 214.595,244.623 C214.595,242.138 213.549,239.791 211.196,239.363 C209.865,239.121 208.617,239.805 207.692,241.4 C207.41,241.807 206.844,241.595 206.853,241.038 C207.018,238.945 207.808,237.055 209.682,234.826 L202.796,234.826 C204.206,236.402 205.644,238.53 205.711,241.175 Z" style="stroke:none;fill-rule:nonzero;fill:#000000;fill-opacity:1;"/>
        </g>
    </g>
</svg>
