<?xml version="1.0"?>
<svg version="1.1" xmlns="http://www.w3.org/2000/svg" xmlns:xlink="http://www.w3.org/1999/xlink" width="223" height="312">
    <desc iVinci="yes" version="4.5" gridStep="20" showGrid="no" snapToGrid="no" codePlatform="0"/>
    <g id="Layer1" opacity="1">
        <g id="Shape1">
            <desc shapeID="1" type="0" basicInfo-basicType="0" basicInfo-roundedRectRadius="12" basicInfo-polygonSides="6" basicInfo-starPoints="5" bounding="rect(-111.614,-155.906,223.228,311.811)" text="" font-familyName="" font-pixelSize="20" font-bold="0" font-underline="0" font-alignment="1" strokeStyle="0" markerStart="0" markerEnd="0" shadowEnabled="0" shadowOffsetX="0" shadowOffsetY="2" shadowBlur="4" shadowOpacity="160" blurEnabled="0" blurRadius="4" transform="matrix(1,0,0,1,111.614,155.906)" pers-center="0,0" pers-size="0,0" pers-start="0,0" pers-end="0,0" locked="0" mesh="" flag=""/>
            <path id="shapePath1" d="M3.05176e-05,9.35434 C3.05176e-05,4.18808 4.49747,0 10.0453,0 L213.183,0 C218.731,0 223.228,4.18808 223.228,9.35434 L223.228,302.457 C223.228,307.623 218.731,311.811 213.183,311.811 L10.0453,311.811 C4.49747,311.811 3.05176e-05,307.623 3.05176e-05,302.457 L3.05176e-05,9.35434 Z" style="stroke:#000000;stroke-opacity:1;stroke-width:0.99;stroke-linejoin:miter;stroke-miterlimit:2;stroke-linecap:butt;fill-rule:evenodd;fill:#ffffff;fill-opacity:1;"/>
        </g>
        <g id="Shape2">
            <desc shapeID="2" type="0" basicInfo-basicType="0" basicInfo-roundedRectRadius="12" basicInfo-polygonSides="6" basicInfo-starPoints="5" bounding="rect(-9.97134,-15.946,19.9427,31.892)" text="" font-familyName="" font-pixelSize="20" font-bold="0" font-underline="0" font-alignment="1" strokeStyle="0" markerStart="0" markerEnd="0" shadowEnabled="0" shadowOffsetX="0" shadowOffsetY="2" shadowBlur="4" shadowOpacity="160" blurEnabled="0" blurRadius="4" transform="matrix(1,0,0,1,17.0396,30.5679)" pers-center="0,0" pers-size="0,0" pers-start="0,0" pers-end="0,0" locked="0" mesh="" flag=""/>
            <path id="shapePath2" d="M12.0485,46.5104 C14.1806,35.4207 16.4575,27.1001 22.4286,18.0627 L10.2939,18.0627 L10.2939,21.9529 L7.06824,21.9529 L7.06824,14.6219 L24.8224,14.6219 L27.0109,18.0627 C20.6694,24.8596 14.8629,46.8309 15.8916,46.5104 L12.0485,46.5104 Z" style="stroke:none;fill-rule:nonzero;fill:#000000;fill-opacity:1;"/>
        </g>
        <g id="Shape3">
            <desc shapeID="3" type="0" basicInfo-basicType="0" basicInfo-roundedRectRadius="12" basicInfo-polygonSides="6" basicInfo-starPoints="5" bounding="rect(-9.97134,-15.946,19.9427,31.892)" text="" font-familyName="" font-pixelSize="20" font-bold="0" font-underline="0" font-alignment="1" strokeStyle="0" markerStart="0" markerEnd="0" shadowEnabled="0" shadowOffsetX="0" shadowOffsetY="2" shadowBlur="4" shadowOpacity="160" blurEnabled="0" blurRadius="4" transform="matrix(1,0,0,1,205.601,281.243)" pers-center="0,0" pers-size="0,0" pers-start="0,0" pers-end="0,0" locked="0" mesh="" flag=""/>
            <path id="shapePath3" d="M210.592,265.301 C208.46,276.39 206.183,284.711 200.212,293.748 L212.347,293.748 L212.347,289.858 L215.572,289.858 L215.572,297.189 L197.818,297.189 L195.63,293.748 C201.971,286.951 207.778,264.98 206.749,265.301 L210.592,265.301 Z" style="stroke:none;fill-rule:nonzero;fill:#000000;fill-opacity:1;"/>
        </g>
        <g id="Shape4">
            <desc shapeID="4" type="0" basicInfo-basicType="0" basicInfo-roundedRectRadius="12" basicInfo-polygonSides="6" basicInfo-starPoints="5" bounding="rect(-28.3268,-28.5706,56.6536,57.1411)" text="" font-familyName="" font-pixelSize="20" font-bold="0" font-underline="0" font-alignment="1" strokeStyle="0" markerStart="0" markerEnd="0" shadowEnabled="0" shadowOffsetX="0" shadowOffsetY="2" shadowBlur="4" shadowOpacity="160" blurEnabled="0" blurRadius="4" transform="matrix(1,0,0,1,162.476,58.5539)" pers-center="0,0" pers-size="0,0" pers-start="0,0" pers-end="0,0" locked="0" mesh="" flag=""/>
            <path id="shapePath4" d="M155.125,87.1245 C158.004,81.349 160.101,75.4235 160.473,69.0872 C160.814,66.7555 159.398,66.7164 159.185,68.3586 C155.108,83.9514 133.422,79.729 134.168,65.0621 C134.773,53.1673 146.587,50.6083 152.75,54.4976 C155.183,55.9304 155.046,55.0722 153.718,53.5858 C144.563,43.3744 150.108,30.2241 162.479,29.9834 C175.859,30.7768 179.33,44.8533 171.123,53.1317 C170.103,54.1263 167.84,57.323 171.246,55.088 C179.533,49.2 191.033,55.5308 190.799,64.6087 C190.366,81.3476 169.96,82.596 165.596,68.6145 C165.176,67.0643 163.967,66.2859 164.301,68.9188 C164.906,73.6854 166.157,80.8722 169.738,87.1245 L155.125,87.1245 Z" style="stroke:none;fill-rule:nonzero;fill:#000000;fill-opacity:1;"/>
        </g>
        <g id="Shape5">
            <desc shapeID="5" type="0" basicInfo-basicType="0" basicInfo-roundedRectRadius="12" basicInfo-polygonSides="6" basicInfo-starPoints="5" bounding="rect(-28.3268,-28.5706,56.6536,57.1411)" text="" font-familyName="" font-pixelSize="20" font-bold="0" font-underline="0" font-alignment="1" strokeStyle="0" markerStart="0" markerEnd="0" shadowEnabled="0" shadowOffsetX="0" shadowOffsetY="2" shadowBlur="4" shadowOpacity="160" blurEnabled="0" blurRadius="4" transform="matrix(1,0,0,1,162.476,158.802)" pers-center="0,0" pers-size="0,0" pers-start="0,0" pers-end="0,0" locked="0" mesh="" flag=""/>
            <path id="shapePath5" d="M155.125,187.373 C158.004,181.597 160.101,175.672 160.473,169.336 C160.814,167.004 159.398,166.965 159.185,168.607 C155.108,184.2 133.422,179.977 134.168,165.31 C134.773,153.416 146.587,150.857 152.75,154.746 C155.183,156.179 155.046,155.321 153.718,153.834 C144.563,143.623 150.108,130.472 162.479,130.232 C175.859,131.025 179.33,145.102 171.123,153.38 C170.103,154.375 167.84,157.571 171.246,155.336 C179.533,149.448 191.033,155.779 190.799,164.857 C190.366,181.596 169.96,182.844 165.596,168.863 C165.176,167.313 163.967,166.534 164.301,169.167 C164.906,173.934 166.157,181.121 169.738,187.373 L155.125,187.373 Z" style="stroke:none;fill-rule:nonzero;fill:#000000;fill-opacity:1;"/>
        </g>
        <g id="Shape6">
            <desc shapeID="6" type="0" basicInfo-basicType="0" basicInfo-roundedRectRadius="12" basicInfo-polygonSides="6" basicInfo-starPoints="5" bounding="rect(-28.3268,-28.5706,56.6536,57.1411)" text="" font-familyName="" font-pixelSize="20" font-bold="0" font-underline="0" font-alignment="1" strokeStyle="0" markerStart="0" markerEnd="0" shadowEnabled="0" shadowOffsetX="0" shadowOffsetY="2" shadowBlur="4" shadowOpacity="160" blurEnabled="0" blurRadius="4" transform="matrix(1,0,0,1,60.9428,158.802)" pers-center="0,0" pers-size="0,0" pers-start="0,0" pers-end="0,0" locked="0" mesh="" flag=""/>
            <path id="shapePath6" d="M53.5919,187.373 C56.4709,181.597 58.5677,175.672 58.9399,169.336 C59.2816,167.004 57.8654,166.965 57.6519,168.607 C53.5754,184.2 31.8892,179.977 32.6347,165.31 C33.2397,153.416 45.0543,150.857 51.217,154.746 C53.6506,156.179 53.5132,155.321 52.1849,153.834 C43.0302,143.623 48.5749,130.472 60.9461,130.232 C74.3257,131.025 77.7974,145.102 69.5904,153.38 C68.5698,154.375 66.3069,157.571 69.7133,155.336 C78.0002,149.448 89.5006,155.779 89.2661,164.857 C88.8333,181.596 68.4269,182.844 64.0628,168.863 C63.643,167.313 62.4337,166.534 62.7679,169.167 C63.3727,173.934 64.6244,181.121 68.2053,187.373 L53.5919,187.373 Z" style="stroke:none;fill-rule:nonzero;fill:#000000;fill-opacity:1;"/>
        </g>
        <g id="Shape7">
            <desc shapeID="7" type="0" basicInfo-basicType="0" basicInfo-roundedRectRadius="12" basicInfo-polygonSides="6" basicInfo-starPoints="5" bounding="rect(-28.3268,-28.5706,56.6536,57.1411)" text="" font-familyName="" font-pixelSize="20" font-bold="0" font-underline="0" font-alignment="1" strokeStyle="0" markerStart="0" markerEnd="0" shadowEnabled="0" shadowOffsetX="0" shadowOffsetY="2" shadowBlur="4" shadowOpacity="160" blurEnabled="0" blurRadius="4" transform="matrix(1,0,0,1,111.377,108.678)" pers-center="0,0" pers-size="0,0" pers-start="0,0" pers-end="0,0" locked="0" mesh="" flag=""/>
            <path id="shapePath7" d="M104.026,137.249 C106.905,131.473 109.002,125.548 109.374,119.211 C109.715,116.88 108.299,116.841 108.086,118.483 C104.009,134.076 82.3231,129.853 83.0686,115.186 C83.6736,103.292 95.4882,100.732 101.651,104.622 C104.085,106.055 103.947,105.196 102.619,103.71 C93.4641,93.4986 99.0088,80.3483 111.38,80.1076 C124.76,80.901 128.231,94.9775 120.024,103.256 C119.004,104.25 116.741,107.447 120.147,105.212 C128.434,99.3242 139.935,105.655 139.7,114.733 C139.267,131.472 118.861,132.72 114.497,118.739 C114.077,117.188 112.868,116.41 113.202,119.043 C113.807,123.81 115.058,130.996 118.639,137.249 L104.026,137.249 Z" style="stroke:none;fill-rule:nonzero;fill:#000000;fill-opacity:1;"/>
        </g>
        <g id="Shape8">
            <desc shapeID="8" type="0" basicInfo-basicType="0" basicInfo-roundedRectRadius="12" basicInfo-polygonSides="6" basicInfo-starPoints="5" bounding="rect(-28.3268,-28.5706,56.6536,57.1411)" text="" font-familyName="" font-pixelSize="20" font-bold="0" font-underline="0" font-alignment="1" strokeStyle="0" markerStart="0" markerEnd="0" shadowEnabled="0" shadowOffsetX="0" shadowOffsetY="2" shadowBlur="4" shadowOpacity="160" blurEnabled="0" blurRadius="4" transform="matrix(1,0,0,1,60.9428,58.5539)" pers-center="0,0" pers-size="0,0" pers-start="0,0" pers-end="0,0" locked="0" mesh="" flag=""/>
            <path id="shapePath8" d="M53.5919,87.1245 C56.4709,81.349 58.5677,75.4235 58.9399,69.0872 C59.2816,66.7555 57.8654,66.7164 57.6519,68.3586 C53.5754,83.9514 31.8892,79.729 32.6347,65.0621 C33.2397,53.1673 45.0543,50.6083 51.217,54.4976 C53.6506,55.9304 53.5132,55.0722 52.1849,53.5858 C43.0302,43.3744 48.5749,30.2241 60.9461,29.9834 C74.3257,30.7768 77.7974,44.8533 69.5904,53.1317 C68.5698,54.1263 66.3069,57.323 69.7133,55.088 C78.0002,49.2 89.5006,55.5308 89.2661,64.6087 C88.8333,81.3476 68.4269,82.596 64.0628,68.6145 C63.643,67.0643 62.4337,66.2859 62.7679,68.9188 C63.3727,73.6854 64.6244,80.8722 68.2053,87.1245 L53.5919,87.1245 Z" style="stroke:none;fill-rule:nonzero;fill:#000000;fill-opacity:1;"/>
        </g>
        <g id="Shape9">
            <desc shapeID="9" type="0" basicInfo-basicType="0" basicInfo-roundedRectRadius="12" basicInfo-polygonSides="6" basicInfo-starPoints="5" bounding="rect(-28.3268,-28.5706,56.6536,57.1411)" text="" font-familyName="" font-pixelSize="20" font-bold="0" font-underline="0" font-alignment="1" strokeStyle="0" markerStart="0" markerEnd="0" shadowEnabled="0" shadowOffsetX="0" shadowOffsetY="2" shadowBlur="4" shadowOpacity="160" blurEnabled="0" blurRadius="4" transform="matrix(1,0,0,1,162.476,257.401)" pers-center="0,0" pers-size="0,0" pers-start="0,0" pers-end="0,0" locked="0" mesh="" flag=""/>
            <path id="shapePath9" d="M169.827,228.83 C166.948,234.606 164.851,240.531 164.479,246.868 C164.137,249.199 165.553,249.238 165.767,247.596 C169.843,232.003 191.529,236.226 190.784,250.893 C190.179,262.788 178.364,265.347 172.201,261.457 C169.768,260.024 169.905,260.883 171.234,262.369 C180.388,272.581 174.844,285.731 162.472,285.971 C149.093,285.178 145.621,271.102 153.828,262.823 C154.849,261.829 157.112,258.632 153.705,260.867 C145.418,266.755 133.918,260.424 134.152,251.346 C134.585,234.607 154.992,233.359 159.356,247.34 C159.775,248.891 160.985,249.669 160.651,247.036 C160.046,242.269 158.794,235.083 155.213,228.83 L169.827,228.83 Z" style="stroke:none;fill-rule:nonzero;fill:#000000;fill-opacity:1;"/>
        </g>
        <g id="Shape10">
            <desc shapeID="10" type="0" basicInfo-basicType="0" basicInfo-roundedRectRadius="12" basicInfo-polygonSides="6" basicInfo-starPoints="5" bounding="rect(-28.3268,-28.5706,56.6536,57.1411)" text="" font-familyName="" font-pixelSize="20" font-bold="0" font-underline="0" font-alignment="1" strokeStyle="0" markerStart="0" markerEnd="0" shadowEnabled="0" shadowOffsetX="0" shadowOffsetY="2" shadowBlur="4" shadowOpacity="160" blurEnabled="0" blurRadius="4" transform="matrix(1,0,0,1,60.9429,257.401)" pers-center="0,0" pers-size="0,0" pers-start="0,0" pers-end="0,0" locked="0" mesh="" flag=""/>
            <path id="shapePath10" d="M68.2939,228.83 C65.4149,234.606 63.318,240.531 62.9457,246.868 C62.6042,249.199 64.0204,249.238 64.2339,247.596 C68.3102,232.003 89.9966,236.226 89.2509,250.893 C88.6459,262.788 76.8315,265.347 70.6686,261.457 C68.235,260.024 68.3726,260.883 69.7007,262.369 C78.8556,272.581 73.3109,285.731 60.9395,285.971 C47.5599,285.178 44.0883,271.102 52.2953,262.823 C53.3159,261.829 55.5789,258.632 52.1724,260.867 C43.8856,266.755 32.385,260.424 32.6197,251.346 C33.0523,234.607 53.4587,233.359 57.8228,247.34 C58.2426,248.891 59.4519,249.669 59.1179,247.036 C58.5129,242.269 57.2614,235.083 53.6805,228.83 L68.2939,228.83 Z" style="stroke:none;fill-rule:nonzero;fill:#000000;fill-opacity:1;"/>
        </g>
        <g id="Shape11">
            <desc shapeID="11" type="0" basicInfo-basicType="0" basicInfo-roundedRectRadius="12" basicInfo-polygonSides="6" basicInfo-starPoints="5" bounding="rect(-11.544,-11.9271,23.0879,23.8543)" text="" font-familyName="" font-pixelSize="20" font-bold="0" font-underline="0" font-alignment="1" strokeStyle="0" markerStart="0" markerEnd="0" shadowEnabled="0" shadowOffsetX="0" shadowOffsetY="2" shadowBlur="4" shadowOpacity="160" blurEnabled="0" blurRadius="4" transform="matrix(1,0,0,1,17.2066,64.4602)" pers-center="0,0" pers-size="0,0" pers-start="0,0" pers-end="0,0" locked="0" mesh="" flag=""/>
            <path id="shapePath11" d="M13.162,76.3874 C14.3541,73.9423 15.5142,71.6666 16.1463,68.9865 C16.5655,66.459 15.7079,67.398 15.2211,69.0547 C14.4998,71.3521 12.4984,72.3985 10.6411,72.4236 C7.26996,72.4691 5.58835,69.8193 5.69315,66.9697 C5.32507,63.9711 8.36417,61.8495 10.6548,62.0129 C12.3772,62.1359 13.8788,63.065 14.7878,63.7881 C15.3841,64.1034 16.0218,64.2427 15.1327,63.4296 C13.455,61.5966 12.0561,60.4655 12.0867,57.7188 C12.1157,55.1401 14.3202,52.4507 17.2421,52.535 C20.8936,52.6405 22.554,55.4251 22.5453,58.0155 C22.5354,59.9039 21.5918,61.6418 20.134,62.7182 C19.1898,63.4843 19.4546,64.058 20.5316,63.333 C21.5666,62.441 22.7988,62.0505 24.0764,62.0231 C27.567,61.9684 28.9315,64.9846 28.7315,67.7873 C28.5442,70.413 26.3087,73.1157 23.3625,72.8096 C20.7319,72.5081 19.3495,70.2997 18.5575,68.0327 C18.2952,67.3376 17.8815,67.1499 17.8929,68.1858 C18.5007,73.2432 20.3846,76.3902 20.3983,76.3873 L13.162,76.3874 Z" style="stroke:none;fill-rule:nonzero;fill:#000000;fill-opacity:1;"/>
        </g>
        <g id="Shape12">
            <desc shapeID="12" type="0" basicInfo-basicType="0" basicInfo-roundedRectRadius="12" basicInfo-polygonSides="6" basicInfo-starPoints="5" bounding="rect(-11.544,-11.9271,23.0879,23.8543)" text="" font-familyName="" font-pixelSize="20" font-bold="0" font-underline="0" font-alignment="1" strokeStyle="0" markerStart="0" markerEnd="0" shadowEnabled="0" shadowOffsetX="0" shadowOffsetY="2" shadowBlur="4" shadowOpacity="160" blurEnabled="0" blurRadius="4" transform="matrix(1,0,0,1,206.022,250.318)" pers-center="0,0" pers-size="0,0" pers-start="0,0" pers-end="0,0" locked="0" mesh="" flag=""/>
            <path id="shapePath12" d="M210.066,238.391 C208.874,240.836 207.714,243.111 207.082,245.792 C206.663,248.319 207.52,247.38 208.007,245.723 C208.729,243.426 210.73,242.38 212.587,242.354 C215.958,242.309 217.64,244.959 217.535,247.808 C217.903,250.807 214.864,252.929 212.574,252.765 C210.851,252.642 209.35,251.713 208.441,250.99 C207.844,250.675 207.207,250.535 208.096,251.348 C209.773,253.181 211.172,254.313 211.142,257.059 C211.113,259.638 208.908,262.327 205.986,262.243 C202.335,262.138 200.674,259.353 200.683,256.762 C200.693,254.874 201.637,253.136 203.094,252.06 C204.039,251.294 203.774,250.72 202.697,251.445 C201.662,252.337 200.43,252.728 199.152,252.755 C195.661,252.81 194.297,249.793 194.497,246.991 C194.684,244.365 196.92,241.662 199.866,241.968 C202.497,242.27 203.879,244.478 204.671,246.745 C204.933,247.44 205.347,247.628 205.335,246.592 C204.728,241.535 202.844,238.388 202.83,238.391 L210.066,238.391 Z" style="stroke:none;fill-rule:nonzero;fill:#000000;fill-opacity:1;"/>
        </g>
    </g>
</svg>
