<?xml version="1.0"?>
<svg version="1.1" xmlns="http://www.w3.org/2000/svg" xmlns:xlink="http://www.w3.org/1999/xlink" width="223" height="312">
    <desc iVinci="yes" version="4.5" gridStep="20" showGrid="no" snapToGrid="no" codePlatform="0"/>
    <g id="Layer1" opacity="1">
        <g id="Shape1">
            <desc shapeID="1" type="0" basicInfo-basicType="0" basicInfo-roundedRectRadius="12" basicInfo-polygonSides="6" basicInfo-starPoints="5" bounding="rect(-111.614,-155.906,223.228,311.811)" text="" font-familyName="" font-pixelSize="20" font-bold="0" font-underline="0" font-alignment="1" strokeStyle="0" markerStart="0" markerEnd="0" shadowEnabled="0" shadowOffsetX="0" shadowOffsetY="2" shadowBlur="4" shadowOpacity="160" blurEnabled="0" blurRadius="4" transform="matrix(1,0,0,1,111.614,155.906)" pers-center="0,0" pers-size="0,0" pers-start="0,0" pers-end="0,0" locked="0" mesh="" flag=""/>
            <path id="shapePath1" d="M0,9.35434 C0,4.18808 4.49741,0 10.0453,0 L213.183,0 C218.731,0 223.228,4.18808 223.228,9.35434 L223.228,302.457 C223.228,307.623 218.731,311.811 213.183,311.811 L10.0453,311.811 C4.49741,311.811 0,307.623 0,302.457 L0,9.35434 Z" style="stroke:#000000;stroke-opacity:1;stroke-width:0.99;stroke-linejoin:miter;stroke-miterlimit:2;stroke-linecap:butt;fill-rule:evenodd;fill:#ffffff;fill-opacity:1;"/>
        </g>
        <g id="Shape2">
            <desc shapeID="2" type="0" basicInfo-basicType="0" basicInfo-roundedRectRadius="12" basicInfo-polygonSides="6" basicInfo-starPoints="5" bounding="rect(-9.97134,-15.946,19.9427,31.8919)" text="" font-familyName="" font-pixelSize="20" font-bold="0" font-underline="0" font-alignment="1" strokeStyle="0" markerStart="0" markerEnd="0" shadowEnabled="0" shadowOffsetX="0" shadowOffsetY="2" shadowBlur="4" shadowOpacity="160" blurEnabled="0" blurRadius="4" transform="matrix(1,0,0,1,17.3334,30.5679)" pers-center="0,0" pers-size="0,0" pers-start="0,0" pers-end="0,0" locked="0" mesh="" flag=""/>
            <path id="shapePath2" d="M12.3423,46.5104 C14.4745,35.4207 16.7513,27.1001 22.7225,18.0627 L10.5877,18.0627 L10.5877,21.9529 L7.36206,21.9529 L7.36206,14.622 L25.1163,14.622 L27.3047,18.0627 C20.9633,24.8596 15.1567,46.831 16.1854,46.5104 L12.3423,46.5104 Z" style="stroke:none;fill-rule:nonzero;fill:#d40000;fill-opacity:1;"/>
        </g>
        <g id="Shape3">
            <desc shapeID="3" type="0" basicInfo-basicType="0" basicInfo-roundedRectRadius="12" basicInfo-polygonSides="6" basicInfo-starPoints="5" bounding="rect(-9.97134,-15.946,19.9427,31.892)" text="" font-familyName="" font-pixelSize="20" font-bold="0" font-underline="0" font-alignment="1" strokeStyle="0" markerStart="0" markerEnd="0" shadowEnabled="0" shadowOffsetX="0" shadowOffsetY="2" shadowBlur="4" shadowOpacity="160" blurEnabled="0" blurRadius="4" transform="matrix(1,0,0,1,205.895,281.243)" pers-center="0,0" pers-size="0,0" pers-start="0,0" pers-end="0,0" locked="0" mesh="" flag=""/>
            <path id="shapePath3" d="M210.886,265.301 C208.754,276.39 206.477,284.711 200.506,293.748 L212.641,293.748 L212.641,289.858 L215.866,289.858 L215.866,297.189 L198.112,297.189 L195.924,293.748 C202.265,286.951 208.072,264.98 207.043,265.301 L210.886,265.301 Z" style="stroke:none;fill-rule:nonzero;fill:#d40000;fill-opacity:1;"/>
        </g>
        <g id="Shape4">
            <desc shapeID="4" type="0" basicInfo-basicType="0" basicInfo-roundedRectRadius="12" basicInfo-polygonSides="6" basicInfo-starPoints="5" bounding="rect(-9.675,-12.8329,19.35,25.6659)" text="" font-familyName="" font-pixelSize="20" font-bold="0" font-underline="0" font-alignment="1" strokeStyle="0" markerStart="0" markerEnd="0" shadowEnabled="0" shadowOffsetX="0" shadowOffsetY="2" shadowBlur="4" shadowOpacity="160" blurEnabled="0" blurRadius="4" transform="matrix(1,0,0,1,17.5004,64.4602)" pers-center="0,0" pers-size="0,0" pers-start="0,0" pers-end="0,0" locked="0" mesh="" flag=""/>
            <path id="shapePath4" d="M8.82788,61.9602 C7.2449,58.4879 7.0712,52.5548 11.799,51.7522 C15.3611,51.2937 16.8107,52.9505 17.0989,55.494 C17.2411,56.237 17.6606,56.2825 17.7937,55.4357 C17.9981,52.8263 20.5809,51.3031 22.6001,51.6858 C28.1267,52.6311 27.804,58.7142 25.9986,62.8413 C23.2677,68.3207 20.398,71.7789 17.7536,77.2932 C14.7154,71.5521 11.2463,66.8881 8.82788,61.9602 L8.82788,61.9602 Z" style="stroke:none;fill-rule:nonzero;fill:#d40000;fill-opacity:1;"/>
        </g>
        <g id="Shape5">
            <desc shapeID="5" type="0" basicInfo-basicType="0" basicInfo-roundedRectRadius="12" basicInfo-polygonSides="6" basicInfo-starPoints="5" bounding="rect(-23.58,-28.946,47.16,57.892)" text="" font-familyName="" font-pixelSize="20" font-bold="0" font-underline="0" font-alignment="1" strokeStyle="0" markerStart="0" markerEnd="0" shadowEnabled="0" shadowOffsetX="0" shadowOffsetY="2" shadowBlur="4" shadowOpacity="160" blurEnabled="0" blurRadius="4" transform="matrix(1,0,0,1,55.2368,58.554)" pers-center="0,0" pers-size="0,0" pers-start="0,0" pers-end="0,0" locked="0" mesh="" flag=""/>
            <path id="shapePath5" d="M43.187,29.8073 C50.331,29.3329 54.0554,35.4347 54.7822,40.2437 C55.2156,41.0076 55.4529,40.7924 55.6191,40.2014 C55.9684,34.0273 61.494,28.9812 66.6117,29.6712 C74.9397,29.7795 80.0012,39.0466 78.5781,46.89 C76.8396,56.4716 71.6784,62.2411 67.7703,68.1831 C63.349,74.3355 57.3976,83.2226 55.4802,87.4999 C55.4802,87.4999 49.4319,78.2954 41.563,67.4703 C36.3012,60.2318 32.0899,52.388 31.6979,45.635 C31.25,37.9195 34.4172,31.0032 43.187,29.8073 L43.187,29.8073 Z" style="stroke:none;fill-rule:nonzero;fill:#d40000;fill-opacity:1;"/>
        </g>
        <g id="Shape6">
            <desc shapeID="6" type="0" basicInfo-basicType="0" basicInfo-roundedRectRadius="12" basicInfo-polygonSides="6" basicInfo-starPoints="5" bounding="rect(-23.58,-28.946,47.16,57.892)" text="" font-familyName="" font-pixelSize="20" font-bold="0" font-underline="0" font-alignment="1" strokeStyle="0" markerStart="0" markerEnd="0" shadowEnabled="0" shadowOffsetX="0" shadowOffsetY="2" shadowBlur="4" shadowOpacity="160" blurEnabled="0" blurRadius="4" transform="matrix(1,0,0,1,166.77,58.554)" pers-center="0,0" pers-size="0,0" pers-start="0,0" pers-end="0,0" locked="0" mesh="" flag=""/>
            <path id="shapePath6" d="M154.72,29.8073 C161.864,29.3329 165.588,35.4347 166.315,40.2437 C166.748,41.0076 166.986,40.7924 167.152,40.2014 C167.501,34.0273 173.027,28.9812 178.145,29.6712 C186.473,29.7795 191.534,39.0466 190.111,46.89 C188.372,56.4716 183.211,62.2411 179.303,68.1831 C174.882,74.3355 168.93,83.2226 167.013,87.4999 C167.013,87.4999 160.965,78.2954 153.096,67.4703 C147.834,60.2318 143.623,52.388 143.231,45.635 C142.783,37.9195 145.95,31.0032 154.72,29.8073 L154.72,29.8073 Z" style="stroke:none;fill-rule:nonzero;fill:#d40000;fill-opacity:1;"/>
        </g>
        <g id="Shape7">
            <desc shapeID="7" type="0" basicInfo-basicType="0" basicInfo-roundedRectRadius="12" basicInfo-polygonSides="6" basicInfo-starPoints="5" bounding="rect(-23.58,-28.946,47.16,57.892)" text="" font-familyName="" font-pixelSize="20" font-bold="0" font-underline="0" font-alignment="1" strokeStyle="0" markerStart="0" markerEnd="0" shadowEnabled="0" shadowOffsetX="0" shadowOffsetY="2" shadowBlur="4" shadowOpacity="160" blurEnabled="0" blurRadius="4" transform="matrix(1,0,0,1,111.671,108.678)" pers-center="0,0" pers-size="0,0" pers-start="0,0" pers-end="0,0" locked="0" mesh="" flag=""/>
            <path id="shapePath7" d="M99.6209,79.9315 C106.765,79.4571 110.489,85.5589 111.216,90.368 C111.65,91.1318 111.887,90.9166 112.053,90.3256 C112.402,84.1515 117.928,79.1055 123.046,79.7955 C131.374,79.9037 136.435,89.1709 135.012,97.0142 C133.273,106.596 128.112,112.365 124.204,118.307 C119.783,124.46 113.831,133.347 111.914,137.624 C111.914,137.624 105.866,128.42 97.9969,117.595 C92.7351,110.356 88.5238,102.512 88.1318,95.7592 C87.6839,88.0437 90.8511,81.1274 99.6209,79.9315 L99.6209,79.9315 Z" style="stroke:none;fill-rule:nonzero;fill:#d40000;fill-opacity:1;"/>
        </g>
        <g id="Shape8">
            <desc shapeID="8" type="0" basicInfo-basicType="0" basicInfo-roundedRectRadius="12" basicInfo-polygonSides="6" basicInfo-starPoints="5" bounding="rect(-23.58,-28.946,47.16,57.892)" text="" font-familyName="" font-pixelSize="20" font-bold="0" font-underline="0" font-alignment="1" strokeStyle="0" markerStart="0" markerEnd="0" shadowEnabled="0" shadowOffsetX="0" shadowOffsetY="2" shadowBlur="4" shadowOpacity="160" blurEnabled="0" blurRadius="4" transform="matrix(1,0,0,1,55.2368,158.802)" pers-center="0,0" pers-size="0,0" pers-start="0,0" pers-end="0,0" locked="0" mesh="" flag=""/>
            <path id="shapePath8" d="M43.187,130.056 C50.331,129.581 54.0554,135.683 54.7822,140.492 C55.2156,141.256 55.4529,141.041 55.6191,140.45 C55.9684,134.276 61.494,129.23 66.6117,129.92 C74.9397,130.028 80.0012,139.295 78.5781,147.138 C76.8396,156.72 71.6784,162.49 67.7703,168.432 C63.349,174.584 57.3976,183.471 55.4802,187.748 C55.4802,187.748 49.4319,178.544 41.563,167.719 C36.3012,160.48 32.0899,152.636 31.6979,145.883 C31.25,138.168 34.4172,131.252 43.187,130.056 L43.187,130.056 Z" style="stroke:none;fill-rule:nonzero;fill:#d40000;fill-opacity:1;"/>
        </g>
        <g id="Shape9">
            <desc shapeID="9" type="0" basicInfo-basicType="0" basicInfo-roundedRectRadius="12" basicInfo-polygonSides="6" basicInfo-starPoints="5" bounding="rect(-23.58,-28.946,47.16,57.892)" text="" font-familyName="" font-pixelSize="20" font-bold="0" font-underline="0" font-alignment="1" strokeStyle="0" markerStart="0" markerEnd="0" shadowEnabled="0" shadowOffsetX="0" shadowOffsetY="2" shadowBlur="4" shadowOpacity="160" blurEnabled="0" blurRadius="4" transform="matrix(1,0,0,1,166.77,158.802)" pers-center="0,0" pers-size="0,0" pers-start="0,0" pers-end="0,0" locked="0" mesh="" flag=""/>
            <path id="shapePath9" d="M154.72,130.056 C161.864,129.581 165.588,135.683 166.315,140.492 C166.748,141.256 166.986,141.041 167.152,140.45 C167.501,134.276 173.027,129.23 178.145,129.92 C186.473,130.028 191.534,139.295 190.111,147.138 C188.372,156.72 183.211,162.49 179.303,168.432 C174.882,174.584 168.93,183.471 167.013,187.748 C167.013,187.748 160.965,178.544 153.096,167.719 C147.834,160.48 143.623,152.636 143.231,145.883 C142.783,138.168 145.95,131.252 154.72,130.056 L154.72,130.056 Z" style="stroke:none;fill-rule:nonzero;fill:#d40000;fill-opacity:1;"/>
        </g>
        <g id="Shape10">
            <desc shapeID="10" type="0" basicInfo-basicType="0" basicInfo-roundedRectRadius="12" basicInfo-polygonSides="6" basicInfo-starPoints="5" bounding="rect(-9.675,-12.8329,19.35,25.6659)" text="" font-familyName="" font-pixelSize="20" font-bold="0" font-underline="0" font-alignment="1" strokeStyle="0" markerStart="0" markerEnd="0" shadowEnabled="0" shadowOffsetX="0" shadowOffsetY="2" shadowBlur="4" shadowOpacity="160" blurEnabled="0" blurRadius="4" transform="matrix(1,0,0,1,206.316,250.318)" pers-center="0,0" pers-size="0,0" pers-start="0,0" pers-end="0,0" locked="0" mesh="" flag=""/>
            <path id="shapePath10" d="M197.643,252.818 C196.06,256.29 195.886,262.223 200.614,263.026 C204.176,263.484 205.626,261.828 205.914,259.284 C206.056,258.541 206.476,258.495 206.609,259.342 C206.813,261.952 209.396,263.475 211.415,263.092 C216.942,262.147 216.619,256.064 214.814,251.937 C212.083,246.457 209.213,242.999 206.569,237.485 C203.531,243.226 200.061,247.89 197.643,252.818 L197.643,252.818 Z" style="stroke:none;fill-rule:nonzero;fill:#d40000;fill-opacity:1;"/>
        </g>
        <g id="Shape11">
            <desc shapeID="11" type="0" basicInfo-basicType="0" basicInfo-roundedRectRadius="12" basicInfo-polygonSides="6" basicInfo-starPoints="5" bounding="rect(-23.58,-28.946,47.16,57.892)" text="" font-familyName="" font-pixelSize="20" font-bold="0" font-underline="0" font-alignment="1" strokeStyle="0" markerStart="0" markerEnd="0" shadowEnabled="0" shadowOffsetX="0" shadowOffsetY="2" shadowBlur="4" shadowOpacity="160" blurEnabled="0" blurRadius="4" transform="matrix(1,0,0,1,166.77,257.401)" pers-center="0,0" pers-size="0,0" pers-start="0,0" pers-end="0,0" locked="0" mesh="" flag=""/>
            <path id="shapePath11" d="M154.72,286.148 C161.864,286.622 165.588,280.52 166.315,275.711 C166.748,274.947 166.986,275.163 167.152,275.754 C167.501,281.928 173.027,286.974 178.145,286.284 C186.473,286.175 191.534,276.908 190.111,269.065 C188.372,259.483 183.211,253.714 179.303,247.772 C174.882,241.619 168.93,232.732 167.013,228.455 C167.013,228.455 160.965,237.66 153.096,248.485 C147.834,255.723 143.623,263.567 143.231,270.32 C142.783,278.035 145.95,284.952 154.72,286.148 Z" style="stroke:none;fill-rule:nonzero;fill:#d40000;fill-opacity:1;"/>
        </g>
        <g id="Shape12">
            <desc shapeID="12" type="0" basicInfo-basicType="0" basicInfo-roundedRectRadius="12" basicInfo-polygonSides="6" basicInfo-starPoints="5" bounding="rect(-23.58,-28.946,47.16,57.892)" text="" font-familyName="" font-pixelSize="20" font-bold="0" font-underline="0" font-alignment="1" strokeStyle="0" markerStart="0" markerEnd="0" shadowEnabled="0" shadowOffsetX="0" shadowOffsetY="2" shadowBlur="4" shadowOpacity="160" blurEnabled="0" blurRadius="4" transform="matrix(1,0,0,1,55.2368,257.401)" pers-center="0,0" pers-size="0,0" pers-start="0,0" pers-end="0,0" locked="0" mesh="" flag=""/>
            <path id="shapePath12" d="M43.187,286.148 C50.331,286.622 54.0554,280.52 54.7822,275.711 C55.2156,274.947 55.4529,275.163 55.6191,275.754 C55.9684,281.928 61.494,286.974 66.6117,286.284 C74.9397,286.175 80.0012,276.908 78.5781,269.065 C76.8396,259.483 71.6784,253.714 67.7703,247.772 C63.349,241.619 57.3976,232.732 55.4802,228.455 C55.4802,228.455 49.4319,237.66 41.563,248.485 C36.3012,255.723 32.0899,263.567 31.6979,270.32 C31.25,278.035 34.4172,284.952 43.187,286.148 Z" style="stroke:none;fill-rule:nonzero;fill:#d40000;fill-opacity:1;"/>
        </g>
    </g>
</svg>
