<?xml version="1.0"?>
<svg version="1.1" xmlns="http://www.w3.org/2000/svg" xmlns:xlink="http://www.w3.org/1999/xlink" width="223" height="312">
    <desc iVinci="yes" version="4.5" gridStep="18" showGrid="no" snapToGrid="no" codePlatform="0"/>
    <g id="Layer1" opacity="1">
        <g id="Shape1">
            <desc shapeID="1" type="0" basicInfo-basicType="0" basicInfo-roundedRectRadius="12" basicInfo-polygonSides="6" basicInfo-starPoints="5" bounding="rect(-111.614,-155.906,223.228,311.811)" text="" font-familyName="" font-pixelSize="20" font-bold="0" font-underline="0" font-alignment="1" strokeStyle="0" markerStart="0" markerEnd="0" shadowEnabled="0" shadowOffsetX="0" shadowOffsetY="2" shadowBlur="4" shadowOpacity="160" blurEnabled="0" blurRadius="4" transform="matrix(1,0,0,1,111.614,155.906)" pers-center="0,0" pers-size="0,0" pers-start="0,0" pers-end="0,0" locked="0" mesh="" flag=""/>
            <path id="shapePath1" d="M3.05176e-05,9.35434 C3.05176e-05,4.18808 4.49747,0 10.0453,0 L213.183,0 C218.731,0 223.228,4.18808 223.228,9.35434 L223.228,302.457 C223.228,307.623 218.731,311.811 213.183,311.811 L10.0453,311.811 C4.49747,311.811 3.05176e-05,307.623 3.05176e-05,302.457 L3.05176e-05,9.35434 Z" style="stroke:#000000;stroke-opacity:1;stroke-width:0.99;stroke-linejoin:miter;stroke-miterlimit:2;stroke-linecap:butt;fill-rule:evenodd;fill:#ffffff;fill-opacity:1;"/>
        </g>
        <g id="Shape2">
            <desc shapeID="2" type="0" basicInfo-basicType="0" basicInfo-roundedRectRadius="12" basicInfo-polygonSides="6" basicInfo-starPoints="5" bounding="rect(-9.97134,-15.946,19.9427,31.8919)" text="" font-familyName="" font-pixelSize="20" font-bold="0" font-underline="0" font-alignment="1" strokeStyle="0" markerStart="0" markerEnd="0" shadowEnabled="0" shadowOffsetX="0" shadowOffsetY="2" shadowBlur="4" shadowOpacity="160" blurEnabled="0" blurRadius="4" transform="matrix(1,0,0,1,17.3335,30.5679)" pers-center="0,0" pers-size="0,0" pers-start="0,0" pers-end="0,0" locked="0" mesh="" flag=""/>
            <path id="shapePath2" d="M12.3423,46.5104 C14.4745,35.4207 16.7514,27.1001 22.7225,18.0627 L10.5878,18.0627 L10.5878,21.9529 L7.36212,21.9529 L7.36212,14.622 L25.1163,14.622 L27.3048,18.0627 C20.9633,24.8596 15.1567,46.831 16.1855,46.5104 L12.3423,46.5104 Z" style="stroke:none;fill-rule:nonzero;fill:#000000;fill-opacity:1;"/>
        </g>
        <g id="Shape3">
            <desc shapeID="3" type="0" basicInfo-basicType="0" basicInfo-roundedRectRadius="12" basicInfo-polygonSides="6" basicInfo-starPoints="5" bounding="rect(-9.97134,-15.946,19.9427,31.892)" text="" font-familyName="" font-pixelSize="20" font-bold="0" font-underline="0" font-alignment="1" strokeStyle="0" markerStart="0" markerEnd="0" shadowEnabled="0" shadowOffsetX="0" shadowOffsetY="2" shadowBlur="4" shadowOpacity="160" blurEnabled="0" blurRadius="4" transform="matrix(1,0,0,1,205.895,281.243)" pers-center="0,0" pers-size="0,0" pers-start="0,0" pers-end="0,0" locked="0" mesh="" flag=""/>
            <path id="shapePath3" d="M210.886,265.301 C208.754,276.39 206.477,284.711 200.506,293.748 L212.641,293.748 L212.641,289.858 L215.866,289.858 L215.866,297.189 L198.112,297.189 L195.924,293.748 C202.265,286.951 208.072,264.98 207.043,265.301 L210.886,265.301 Z" style="stroke:none;fill-rule:nonzero;fill:#000000;fill-opacity:1;"/>
        </g>
        <g id="Shape4">
            <desc shapeID="4" type="0" basicInfo-basicType="0" basicInfo-roundedRectRadius="12" basicInfo-polygonSides="6" basicInfo-starPoints="5" bounding="rect(-23.895,-29.6864,47.79,59.3729)" text="" font-familyName="" font-pixelSize="20" font-bold="0" font-underline="0" font-alignment="1" strokeStyle="0" markerStart="0" markerEnd="0" shadowEnabled="0" shadowOffsetX="0" shadowOffsetY="2" shadowBlur="4" shadowOpacity="160" blurEnabled="0" blurRadius="4" transform="matrix(1,0,0,1,55.2259,58.554)" pers-center="0,0" pers-size="0,0" pers-start="0,0" pers-end="0,0" locked="0" mesh="" flag=""/>
            <path id="shapePath4" d="M53.0962,70.0046 C53.1112,67.9789 51.5094,67.9402 51.5276,69.4188 C51.3933,76.8474 45.1111,80.5052 40.547,79.6375 C33.5109,78.2999 31.2652,71.3155 31.3323,67.2021 C31.5396,54.5058 44.3201,45.1437 55.8525,28.8675 C64.3026,43.5583 78.2497,55.0972 79.0754,66.4533 C80.1731,81.5513 61.0665,87.183 58.3385,69.586 C58.1625,68.3429 56.6988,67.7849 56.8124,69.521 C57.2269,74.3436 56.6375,76.3523 62.0781,88.2404 L47.8564,88.2404 C51.0061,82.6855 52.8818,75.8658 53.0962,70.0046 L53.0962,70.0046 Z" style="stroke:none;fill-rule:nonzero;fill:#000000;fill-opacity:1;"/>
        </g>
        <g id="Shape5">
            <desc shapeID="5" type="0" basicInfo-basicType="0" basicInfo-roundedRectRadius="12" basicInfo-polygonSides="6" basicInfo-starPoints="5" bounding="rect(-23.895,-29.6864,47.79,59.3729)" text="" font-familyName="" font-pixelSize="20" font-bold="0" font-underline="0" font-alignment="1" strokeStyle="0" markerStart="0" markerEnd="0" shadowEnabled="0" shadowOffsetX="0" shadowOffsetY="2" shadowBlur="4" shadowOpacity="160" blurEnabled="0" blurRadius="4" transform="matrix(1,0,0,1,166.759,58.554)" pers-center="0,0" pers-size="0,0" pers-start="0,0" pers-end="0,0" locked="0" mesh="" flag=""/>
            <path id="shapePath5" d="M164.629,70.0046 C164.644,67.9789 163.042,67.9402 163.06,69.4188 C162.926,76.8474 156.644,80.5052 152.08,79.6375 C145.044,78.2999 142.798,71.3155 142.865,67.2021 C143.072,54.5058 155.853,45.1437 167.385,28.8675 C175.835,43.5583 189.783,55.0972 190.608,66.4533 C191.706,81.5513 172.599,87.183 169.871,69.586 C169.695,68.3429 168.232,67.7849 168.345,69.521 C168.76,74.3436 168.17,76.3523 173.611,88.2404 L159.389,88.2404 C162.539,82.6855 164.415,75.8658 164.629,70.0046 L164.629,70.0046 Z" style="stroke:none;fill-rule:nonzero;fill:#000000;fill-opacity:1;"/>
        </g>
        <g id="Shape6">
            <desc shapeID="6" type="0" basicInfo-basicType="0" basicInfo-roundedRectRadius="12" basicInfo-polygonSides="6" basicInfo-starPoints="5" bounding="rect(-23.895,-29.6864,47.79,59.3728)" text="" font-familyName="" font-pixelSize="20" font-bold="0" font-underline="0" font-alignment="1" strokeStyle="0" markerStart="0" markerEnd="0" shadowEnabled="0" shadowOffsetX="0" shadowOffsetY="2" shadowBlur="4" shadowOpacity="160" blurEnabled="0" blurRadius="4" transform="matrix(1,0,0,1,111.66,108.678)" pers-center="0,0" pers-size="0,0" pers-start="0,0" pers-end="0,0" locked="0" mesh="" flag=""/>
            <path id="shapePath6" d="M109.53,120.129 C109.545,118.103 107.943,118.064 107.962,119.543 C107.827,126.972 101.545,130.629 96.9809,129.762 C89.9448,128.424 87.6991,121.44 87.7662,117.326 C87.9734,104.63 100.754,95.2679 112.286,78.9917 C120.737,93.6825 134.684,105.221 135.509,116.577 C136.607,131.676 117.5,137.307 114.772,119.71 C114.596,118.467 113.133,117.909 113.246,119.645 C113.661,124.468 113.071,126.477 118.512,138.365 L104.29,138.365 C107.44,132.81 109.316,125.99 109.53,120.129 L109.53,120.129 Z" style="stroke:none;fill-rule:nonzero;fill:#000000;fill-opacity:1;"/>
        </g>
        <g id="Shape7">
            <desc shapeID="7" type="0" basicInfo-basicType="0" basicInfo-roundedRectRadius="12" basicInfo-polygonSides="6" basicInfo-starPoints="5" bounding="rect(-23.895,-29.6864,47.79,59.3729)" text="" font-familyName="" font-pixelSize="20" font-bold="0" font-underline="0" font-alignment="1" strokeStyle="0" markerStart="0" markerEnd="0" shadowEnabled="0" shadowOffsetX="0" shadowOffsetY="2" shadowBlur="4" shadowOpacity="160" blurEnabled="0" blurRadius="4" transform="matrix(1,0,0,1,166.759,158.802)" pers-center="0,0" pers-size="0,0" pers-start="0,0" pers-end="0,0" locked="0" mesh="" flag=""/>
            <path id="shapePath7" d="M164.629,170.253 C164.644,168.227 163.042,168.189 163.06,169.667 C162.926,177.096 156.644,180.754 152.08,179.886 C145.044,178.548 142.798,171.564 142.865,167.451 C143.072,154.754 155.853,145.392 167.385,129.116 C175.835,143.807 189.783,155.346 190.608,166.702 C191.706,181.8 172.599,187.431 169.871,169.834 C169.695,168.591 168.232,168.033 168.345,169.769 C168.76,174.592 168.17,176.601 173.611,188.489 L159.389,188.489 C162.539,182.934 164.415,176.114 164.629,170.253 Z" style="stroke:none;fill-rule:nonzero;fill:#000000;fill-opacity:1;"/>
        </g>
        <g id="Shape8">
            <desc shapeID="8" type="0" basicInfo-basicType="0" basicInfo-roundedRectRadius="12" basicInfo-polygonSides="6" basicInfo-starPoints="5" bounding="rect(-23.895,-29.6864,47.79,59.3729)" text="" font-familyName="" font-pixelSize="20" font-bold="0" font-underline="0" font-alignment="1" strokeStyle="0" markerStart="0" markerEnd="0" shadowEnabled="0" shadowOffsetX="0" shadowOffsetY="2" shadowBlur="4" shadowOpacity="160" blurEnabled="0" blurRadius="4" transform="matrix(1,0,0,1,55.2259,158.802)" pers-center="0,0" pers-size="0,0" pers-start="0,0" pers-end="0,0" locked="0" mesh="" flag=""/>
            <path id="shapePath8" d="M53.0962,170.253 C53.1112,168.227 51.5094,168.189 51.5276,169.667 C51.3933,177.096 45.1111,180.754 40.547,179.886 C33.5109,178.548 31.2652,171.564 31.3323,167.451 C31.5396,154.754 44.3201,145.392 55.8525,129.116 C64.3026,143.807 78.2497,155.346 79.0754,166.702 C80.1731,181.8 61.0665,187.431 58.3385,169.834 C58.1625,168.591 56.6988,168.033 56.8124,169.769 C57.2269,174.592 56.6375,176.601 62.0781,188.489 L47.8564,188.489 C51.0061,182.934 52.8818,176.114 53.0962,170.253 Z" style="stroke:none;fill-rule:nonzero;fill:#000000;fill-opacity:1;"/>
        </g>
        <g id="Shape9">
            <desc shapeID="9" type="0" basicInfo-basicType="0" basicInfo-roundedRectRadius="12" basicInfo-polygonSides="6" basicInfo-starPoints="5" bounding="rect(-23.895,-29.6864,47.79,59.3729)" text="" font-familyName="" font-pixelSize="20" font-bold="0" font-underline="0" font-alignment="1" strokeStyle="0" markerStart="0" markerEnd="0" shadowEnabled="0" shadowOffsetX="0" shadowOffsetY="2" shadowBlur="4" shadowOpacity="160" blurEnabled="0" blurRadius="4" transform="matrix(1,0,0,1,166.77,257.426)" pers-center="0,0" pers-size="0,0" pers-start="0,0" pers-end="0,0" locked="0" mesh="" flag=""/>
            <path id="shapePath9" d="M164.64,245.976 C164.655,248.002 163.053,248.04 163.071,246.562 C162.937,239.133 156.655,235.475 152.091,236.343 C145.055,237.681 142.809,244.665 142.876,248.778 C143.083,261.475 155.864,270.837 167.396,287.113 C175.846,272.422 189.793,260.883 190.619,249.527 C191.717,234.429 172.61,228.797 169.882,246.394 C169.706,247.637 168.242,248.196 168.356,246.459 C168.771,241.637 168.181,239.628 173.622,227.74 L159.4,227.74 C162.55,233.295 164.425,240.115 164.64,245.976 L164.64,245.976 Z" style="stroke:none;fill-rule:nonzero;fill:#000000;fill-opacity:1;"/>
        </g>
        <g id="Shape10">
            <desc shapeID="10" type="0" basicInfo-basicType="0" basicInfo-roundedRectRadius="12" basicInfo-polygonSides="6" basicInfo-starPoints="5" bounding="rect(-23.895,-29.6864,47.79,59.3729)" text="" font-familyName="" font-pixelSize="20" font-bold="0" font-underline="0" font-alignment="1" strokeStyle="0" markerStart="0" markerEnd="0" shadowEnabled="0" shadowOffsetX="0" shadowOffsetY="2" shadowBlur="4" shadowOpacity="160" blurEnabled="0" blurRadius="4" transform="matrix(1,0,0,1,55.2367,257.426)" pers-center="0,0" pers-size="0,0" pers-start="0,0" pers-end="0,0" locked="0" mesh="" flag=""/>
            <path id="shapePath10" d="M53.107,245.976 C53.122,248.002 51.5202,248.04 51.5384,246.562 C51.4041,239.133 45.1219,235.475 40.5578,236.343 C33.5217,237.681 31.276,244.665 31.3431,248.778 C31.5503,261.475 44.3309,270.837 55.8633,287.113 C64.3134,272.422 78.2605,260.883 79.0862,249.527 C80.1839,234.429 61.0773,228.797 58.3493,246.394 C58.1733,247.637 56.7096,248.196 56.8232,246.459 C57.2377,241.637 56.6483,239.628 62.0889,227.74 L47.8672,227.74 C51.0169,233.295 52.8926,240.115 53.107,245.976 L53.107,245.976 Z" style="stroke:none;fill-rule:nonzero;fill:#000000;fill-opacity:1;"/>
        </g>
        <g id="Shape11">
            <desc shapeID="11" type="0" basicInfo-basicType="0" basicInfo-roundedRectRadius="12" basicInfo-polygonSides="6" basicInfo-starPoints="5" bounding="rect(-8.46004,-12.905,16.9201,25.8099)" text="" font-familyName="" font-pixelSize="20" font-bold="0" font-underline="0" font-alignment="1" strokeStyle="0" markerStart="0" markerEnd="0" shadowEnabled="0" shadowOffsetX="0" shadowOffsetY="2" shadowBlur="4" shadowOpacity="160" blurEnabled="0" blurRadius="4" transform="matrix(1,0,0,1,17.498,64.4602)" pers-center="0,0" pers-size="0,0" pers-start="0,0" pers-end="0,0" locked="0" mesh="" flag=""/>
            <path id="shapePath11" d="M17.0733,71.0162 C17.0833,70.1447 16.178,70.5516 16.0555,70.8259 C14.8923,72.8115 13.1907,73.2736 11.5076,72.5577 C9.84027,71.8486 8.90338,70.2774 9.05368,68.0356 C9.36386,64.5977 12.0891,60.8361 13.4087,58.7094 C14.6607,56.7795 16.0366,54.4872 17.4854,51.5553 C19.1827,54.9185 20.0441,55.8759 21.8906,58.9468 C23.5166,61.6512 25.7831,64.2997 25.958,67.5691 C25.958,70.054 24.9121,72.401 22.5587,72.8285 C21.2273,73.0704 19.98,72.387 19.0549,70.7917 C18.7731,70.3851 18.2061,70.597 18.2156,71.1536 C18.3808,73.2469 19.171,75.1368 21.0451,77.3652 L14.158,77.3652 C15.5681,75.7892 17.0067,73.6616 17.0733,71.0162 Z" style="stroke:none;fill-rule:nonzero;fill:#000000;fill-opacity:1;"/>
        </g>
        <g id="Shape12">
            <desc shapeID="12" type="0" basicInfo-basicType="0" basicInfo-roundedRectRadius="12" basicInfo-polygonSides="6" basicInfo-starPoints="5" bounding="rect(-8.46001,-12.905,16.92,25.8099)" text="" font-familyName="" font-pixelSize="20" font-bold="0" font-underline="0" font-alignment="1" strokeStyle="0" markerStart="0" markerEnd="0" shadowEnabled="0" shadowOffsetX="0" shadowOffsetY="2" shadowBlur="4" shadowOpacity="160" blurEnabled="0" blurRadius="4" transform="matrix(1,0,0,1,206.313,250.318)" pers-center="0,0" pers-size="0,0" pers-start="0,0" pers-end="0,0" locked="0" mesh="" flag=""/>
            <path id="shapePath12" d="M205.889,243.762 C205.899,244.633 204.993,244.226 204.871,243.952 C203.708,241.966 202.006,241.504 200.323,242.22 C198.656,242.929 197.719,244.501 197.869,246.742 C198.179,250.18 200.904,253.942 202.224,256.069 C203.476,257.999 204.852,260.291 206.301,263.223 C207.998,259.86 208.859,258.902 210.706,255.831 C212.332,253.127 214.598,250.478 214.773,247.209 C214.773,244.724 213.727,242.377 211.374,241.95 C210.042,241.708 208.795,242.391 207.87,243.986 C207.588,244.393 207.021,244.181 207.031,243.624 C207.196,241.531 207.986,239.641 209.86,237.413 L202.973,237.413 C204.383,238.989 205.822,241.117 205.889,243.762 Z" style="stroke:none;fill-rule:nonzero;fill:#000000;fill-opacity:1;"/>
        </g>
    </g>
</svg>
