<?xml version="1.0"?>
<svg version="1.1" xmlns="http://www.w3.org/2000/svg" xmlns:xlink="http://www.w3.org/1999/xlink" width="223" height="312">
    <desc iVinci="yes" version="4.5" gridStep="20" showGrid="no" snapToGrid="no" codePlatform="0"/>
    <g id="Layer1" opacity="1">
        <g id="Shape1">
            <desc shapeID="1" type="0" basicInfo-basicType="0" basicInfo-roundedRectRadius="12" basicInfo-polygonSides="6" basicInfo-starPoints="5" bounding="rect(-111.614,-155.906,223.228,311.811)" text="" font-familyName="" font-pixelSize="20" font-bold="0" font-underline="0" font-alignment="1" strokeStyle="0" markerStart="0" markerEnd="0" shadowEnabled="0" shadowOffsetX="0" shadowOffsetY="2" shadowBlur="4" shadowOpacity="160" blurEnabled="0" blurRadius="4" transform="matrix(1,0,0,1,111.614,155.906)" pers-center="0,0" pers-size="0,0" pers-start="0,0" pers-end="0,0" locked="0" mesh="" flag=""/>
            <path id="shapePath1" d="M0,9.35434 C0,4.18808 4.49741,0 10.0453,0 L213.183,0 C218.731,0 223.228,4.18808 223.228,9.35434 L223.228,302.457 C223.228,307.623 218.731,311.811 213.183,311.811 L10.0453,311.811 C4.49741,311.811 0,307.623 0,302.457 L0,9.35434 Z" style="stroke:#000000;stroke-opacity:1;stroke-width:0.996733;stroke-linejoin:miter;stroke-miterlimit:2;stroke-linecap:butt;fill-rule:evenodd;fill:#ffffff;fill-opacity:1;"/>
        </g>
        <g id="Shape2">
            <desc shapeID="2" type="0" basicInfo-basicType="0" basicInfo-roundedRectRadius="12" basicInfo-polygonSides="6" basicInfo-starPoints="5" bounding="rect(-10.7912,-16.3008,21.5824,32.6016)" text="" font-familyName="" font-pixelSize="20" font-bold="0" font-underline="0" font-alignment="1" strokeStyle="0" markerStart="0" markerEnd="0" shadowEnabled="0" shadowOffsetX="0" shadowOffsetY="2" shadowBlur="4" shadowOpacity="160" blurEnabled="0" blurRadius="4" transform="matrix(1,0,0,1,16.8792,30.7975)" pers-center="0,0" pers-size="0,0" pers-start="0,0" pers-end="0,0" locked="0" mesh="" flag=""/>
            <path id="shapePath2" d="M6.09183,37.5504 C6.25195,33.175 7.86255,31.5319 11.0355,29.2409 C8.50482,27.4457 7.43777,24.8044 7.65326,22.5537 C8.17474,17.1068 12.4631,14.3817 17.1383,14.5004 C21.8135,14.619 25.8429,18.264 26.1571,22.2222 C26.4305,25.6654 25.3867,27.3246 22.8997,29.1374 C25.8526,31.5789 27.7401,33.1873 27.6684,37.4975 C27.5968,41.8076 23.8627,46.9374 17.3539,47.0949 C10.8451,47.2523 5.93173,41.9258 6.09183,37.5504 M24.2644,37.5648 C24.5436,33.6027 20.9762,30.9295 16.9511,30.8879 C13.0289,30.8474 9.51996,34.1346 9.51929,37.6918 C9.51929,41.5128 14.0829,43.5884 17.0303,43.5994 C20.6125,43.6126 24.0239,40.9773 24.2644,37.5648 M22.9764,23.3915 C23.0543,20.0539 19.9196,17.6619 16.6878,17.7582 C13.8124,17.8438 10.7668,19.9989 10.7652,22.789 C10.7622,26.279 14.2273,28.0214 17.1821,28.0871 C19.8626,28.1468 22.9175,25.9124 22.9764,23.3915 Z" style="stroke:none;fill-rule:nonzero;fill:#000000;fill-opacity:1;"/>
        </g>
        <g id="Shape3">
            <desc shapeID="3" type="0" basicInfo-basicType="0" basicInfo-roundedRectRadius="12" basicInfo-polygonSides="6" basicInfo-starPoints="5" bounding="rect(-10.7912,-16.3008,21.5824,32.6016)" text="" font-familyName="" font-pixelSize="20" font-bold="0" font-underline="0" font-alignment="1" strokeStyle="0" markerStart="0" markerEnd="0" shadowEnabled="0" shadowOffsetX="0" shadowOffsetY="2" shadowBlur="4" shadowOpacity="160" blurEnabled="0" blurRadius="4" transform="matrix(1,0,0,1,204.845,281.014)" pers-center="0,0" pers-size="0,0" pers-start="0,0" pers-end="0,0" locked="0" mesh="" flag=""/>
            <path id="shapePath3" d="M215.633,274.261 C215.473,278.636 213.862,280.279 210.689,282.57 C213.22,284.365 214.287,287.007 214.071,289.257 C213.55,294.704 209.261,297.429 204.586,297.311 C199.911,297.192 195.882,293.547 195.567,289.589 C195.294,286.146 196.338,284.486 198.825,282.674 C195.872,280.232 193.984,278.624 194.056,274.314 C194.128,270.003 197.862,264.874 204.371,264.716 C210.879,264.559 215.793,269.885 215.633,274.261 M197.46,274.246 C197.181,278.208 200.748,280.882 204.773,280.923 C208.696,280.964 212.205,277.676 212.205,274.119 C212.205,270.298 207.642,268.223 204.694,268.212 C201.112,268.198 197.701,270.834 197.46,274.246 M198.748,288.42 C198.67,291.757 201.805,294.149 205.037,294.053 C207.912,293.967 210.958,291.812 210.959,289.022 C210.962,285.532 207.497,283.79 204.542,283.724 C201.862,283.664 198.807,285.899 198.748,288.42 Z" style="stroke:none;fill-rule:nonzero;fill:#000000;fill-opacity:1;"/>
        </g>
        <g id="Shape4">
            <desc shapeID="4" type="0" basicInfo-basicType="0" basicInfo-roundedRectRadius="12" basicInfo-polygonSides="6" basicInfo-starPoints="5" bounding="rect(-28.3268,-28.5706,56.6536,57.1411)" text="" font-familyName="" font-pixelSize="20" font-bold="0" font-underline="0" font-alignment="1" strokeStyle="0" markerStart="0" markerEnd="0" shadowEnabled="0" shadowOffsetX="0" shadowOffsetY="2" shadowBlur="4" shadowOpacity="160" blurEnabled="0" blurRadius="4" transform="matrix(1,0,0,1,163.391,56.3836)" pers-center="0,0" pers-size="0,0" pers-start="0,0" pers-end="0,0" locked="0" mesh="" flag=""/>
            <path id="shapePath4" d="M156.04,84.9542 C158.919,79.1787 161.016,73.2532 161.388,66.9169 C161.73,64.5852 160.313,64.5461 160.1,66.1883 C156.023,81.7811 134.337,77.5587 135.083,62.8918 C135.688,50.997 147.502,48.438 153.665,52.3273 C156.099,53.7601 155.961,52.9019 154.633,51.4155 C145.478,41.2041 151.023,28.0538 163.394,27.8131 C176.774,28.6065 180.245,42.683 172.038,50.9614 C171.018,51.956 168.755,55.1527 172.161,52.9177 C180.448,47.0297 191.949,53.3605 191.714,62.4384 C191.281,79.1773 170.875,80.4257 166.511,66.4442 C166.091,64.894 164.882,64.1156 165.216,66.7485 C165.821,71.5151 167.072,78.7019 170.653,84.9542 L156.04,84.9542 Z" style="stroke:none;fill-rule:nonzero;fill:#000000;fill-opacity:1;"/>
        </g>
        <g id="Shape5">
            <desc shapeID="5" type="0" basicInfo-basicType="0" basicInfo-roundedRectRadius="12" basicInfo-polygonSides="6" basicInfo-starPoints="5" bounding="rect(-28.3268,-28.5706,56.6536,57.1411)" text="" font-familyName="" font-pixelSize="20" font-bold="0" font-underline="0" font-alignment="1" strokeStyle="0" markerStart="0" markerEnd="0" shadowEnabled="0" shadowOffsetX="0" shadowOffsetY="2" shadowBlur="4" shadowOpacity="160" blurEnabled="0" blurRadius="4" transform="matrix(1,0,0,1,163.391,156.632)" pers-center="0,0" pers-size="0,0" pers-start="0,0" pers-end="0,0" locked="0" mesh="" flag=""/>
            <path id="shapePath5" d="M156.04,185.203 C158.919,179.427 161.016,173.502 161.388,167.165 C161.73,164.834 160.313,164.794 160.1,166.437 C156.023,182.029 134.337,177.807 135.083,163.14 C135.688,151.245 147.502,148.686 153.665,152.576 C156.099,154.008 155.961,153.15 154.633,151.664 C145.478,141.453 151.023,128.302 163.394,128.061 C176.774,128.855 180.245,142.931 172.038,151.21 C171.018,152.204 168.755,155.401 172.161,153.166 C180.448,147.278 191.949,153.609 191.714,162.687 C191.281,179.426 170.875,180.674 166.511,166.693 C166.091,165.142 164.882,164.364 165.216,166.997 C165.821,171.763 167.072,178.95 170.653,185.203 L156.04,185.203 Z" style="stroke:none;fill-rule:nonzero;fill:#000000;fill-opacity:1;"/>
        </g>
        <g id="Shape6">
            <desc shapeID="6" type="0" basicInfo-basicType="0" basicInfo-roundedRectRadius="12" basicInfo-polygonSides="6" basicInfo-starPoints="5" bounding="rect(-28.3268,-28.5706,56.6536,57.1411)" text="" font-familyName="" font-pixelSize="20" font-bold="0" font-underline="0" font-alignment="1" strokeStyle="0" markerStart="0" markerEnd="0" shadowEnabled="0" shadowOffsetX="0" shadowOffsetY="2" shadowBlur="4" shadowOpacity="160" blurEnabled="0" blurRadius="4" transform="matrix(1,0,0,1,59.8581,156.632)" pers-center="0,0" pers-size="0,0" pers-start="0,0" pers-end="0,0" locked="0" mesh="" flag=""/>
            <path id="shapePath6" d="M52.5072,185.203 C55.3862,179.427 57.4831,173.502 57.8553,167.165 C58.1969,164.834 56.7807,164.794 56.5672,166.437 C52.4908,182.029 30.8045,177.807 31.5501,163.14 C32.1551,151.245 43.9696,148.686 50.1324,152.576 C52.566,154.008 52.4285,153.15 51.1003,151.664 C41.9455,141.453 47.4902,128.302 59.8615,128.061 C73.2411,128.855 76.7127,142.931 68.5057,151.21 C67.4851,152.204 65.2222,155.401 68.6287,153.166 C76.9155,147.278 88.416,153.609 88.1814,162.687 C87.7487,179.426 67.3423,180.674 62.9782,166.693 C62.5584,165.142 61.3491,164.364 61.6832,166.997 C62.2881,171.763 63.5397,178.95 67.1206,185.203 L52.5072,185.203 Z" style="stroke:none;fill-rule:nonzero;fill:#000000;fill-opacity:1;"/>
        </g>
        <g id="Shape7">
            <desc shapeID="7" type="0" basicInfo-basicType="0" basicInfo-roundedRectRadius="12" basicInfo-polygonSides="6" basicInfo-starPoints="5" bounding="rect(-28.3268,-28.5706,56.6536,57.1411)" text="" font-familyName="" font-pixelSize="20" font-bold="0" font-underline="0" font-alignment="1" strokeStyle="0" markerStart="0" markerEnd="0" shadowEnabled="0" shadowOffsetX="0" shadowOffsetY="2" shadowBlur="4" shadowOpacity="160" blurEnabled="0" blurRadius="4" transform="matrix(1,0,0,1,110.041,106.508)" pers-center="0,0" pers-size="0,0" pers-start="0,0" pers-end="0,0" locked="0" mesh="" flag=""/>
            <path id="shapePath7" d="M102.69,135.078 C105.569,129.303 107.666,123.377 108.038,117.041 C108.38,114.709 106.964,114.67 106.75,116.313 C102.674,131.905 80.9876,127.683 81.7332,113.016 C82.3382,101.121 94.1527,98.5622 100.315,102.452 C102.749,103.884 102.612,103.026 101.283,101.54 C92.1286,91.3283 97.6733,78.178 110.045,77.9373 C123.424,78.7307 126.896,92.8072 118.689,101.086 C117.668,102.08 115.405,105.277 118.812,103.042 C127.099,97.1539 138.599,103.485 138.364,112.563 C137.932,129.302 117.525,130.55 113.161,116.568 C112.741,115.018 111.532,114.24 111.866,116.873 C112.471,121.639 113.723,128.826 117.304,135.078 L102.69,135.078 Z" style="stroke:none;fill-rule:nonzero;fill:#000000;fill-opacity:1;"/>
        </g>
        <g id="Shape8">
            <desc shapeID="8" type="0" basicInfo-basicType="0" basicInfo-roundedRectRadius="12" basicInfo-polygonSides="6" basicInfo-starPoints="5" bounding="rect(-28.3268,-28.5706,56.6536,57.1411)" text="" font-familyName="" font-pixelSize="20" font-bold="0" font-underline="0" font-alignment="1" strokeStyle="0" markerStart="0" markerEnd="0" shadowEnabled="0" shadowOffsetX="0" shadowOffsetY="2" shadowBlur="4" shadowOpacity="160" blurEnabled="0" blurRadius="4" transform="matrix(1,0,0,1,59.8581,56.3836)" pers-center="0,0" pers-size="0,0" pers-start="0,0" pers-end="0,0" locked="0" mesh="" flag=""/>
            <path id="shapePath8" d="M52.5072,84.9542 C55.3862,79.1787 57.4831,73.2532 57.8553,66.9169 C58.1969,64.5852 56.7807,64.5461 56.5672,66.1883 C52.4908,81.7811 30.8045,77.5587 31.5501,62.8918 C32.1551,50.997 43.9696,48.438 50.1324,52.3273 C52.566,53.7601 52.4285,52.9019 51.1003,51.4155 C41.9455,41.2041 47.4902,28.0538 59.8615,27.8131 C73.2411,28.6065 76.7127,42.683 68.5057,50.9614 C67.4851,51.956 65.2222,55.1527 68.6287,52.9177 C76.9155,47.0297 88.416,53.3605 88.1814,62.4384 C87.7487,79.1773 67.3423,80.4257 62.9782,66.4442 C62.5584,64.894 61.3491,64.1156 61.6832,66.7485 C62.2881,71.5151 63.5397,78.7019 67.1206,84.9542 L52.5072,84.9542 Z" style="stroke:none;fill-rule:nonzero;fill:#000000;fill-opacity:1;"/>
        </g>
        <g id="Shape9">
            <desc shapeID="9" type="0" basicInfo-basicType="0" basicInfo-roundedRectRadius="12" basicInfo-polygonSides="6" basicInfo-starPoints="5" bounding="rect(-28.3268,-28.5706,56.6536,57.1411)" text="" font-familyName="" font-pixelSize="20" font-bold="0" font-underline="0" font-alignment="1" strokeStyle="0" markerStart="0" markerEnd="0" shadowEnabled="0" shadowOffsetX="0" shadowOffsetY="2" shadowBlur="4" shadowOpacity="160" blurEnabled="0" blurRadius="4" transform="matrix(1,0,0,1,163.391,255.231)" pers-center="0,0" pers-size="0,0" pers-start="0,0" pers-end="0,0" locked="0" mesh="" flag=""/>
            <path id="shapePath9" d="M170.742,226.66 C167.863,232.436 165.766,238.361 165.394,244.697 C165.052,247.029 166.468,247.068 166.682,245.426 C170.758,229.833 192.445,234.056 191.699,248.723 C191.094,260.617 179.279,263.176 173.117,259.287 C170.683,257.854 170.821,258.712 172.149,260.199 C181.304,270.41 175.759,283.561 163.388,283.801 C150.008,283.008 146.536,268.931 154.743,260.653 C155.764,259.658 158.027,256.462 154.62,258.697 C146.334,264.585 134.833,258.254 135.068,249.176 C135.5,232.437 155.907,231.189 160.271,245.17 C160.691,246.72 161.9,247.499 161.566,244.866 C160.961,240.099 159.709,232.912 156.128,226.66 L170.742,226.66 Z" style="stroke:none;fill-rule:nonzero;fill:#000000;fill-opacity:1;"/>
        </g>
        <g id="Shape10">
            <desc shapeID="10" type="0" basicInfo-basicType="0" basicInfo-roundedRectRadius="12" basicInfo-polygonSides="6" basicInfo-starPoints="5" bounding="rect(-28.3268,-28.5706,56.6536,57.1411)" text="" font-familyName="" font-pixelSize="20" font-bold="0" font-underline="0" font-alignment="1" strokeStyle="0" markerStart="0" markerEnd="0" shadowEnabled="0" shadowOffsetX="0" shadowOffsetY="2" shadowBlur="4" shadowOpacity="160" blurEnabled="0" blurRadius="4" transform="matrix(1,0,0,1,110.041,205.931)" pers-center="0,0" pers-size="0,0" pers-start="0,0" pers-end="0,0" locked="0" mesh="" flag=""/>
            <path id="shapePath10" d="M117.392,177.361 C114.513,183.136 112.416,189.062 112.044,195.398 C111.703,197.73 113.119,197.769 113.332,196.127 C117.409,180.534 139.095,184.756 138.349,199.423 C137.744,211.318 125.93,213.877 119.767,209.988 C117.333,208.555 117.471,209.413 118.799,210.9 C127.954,221.111 122.409,234.261 110.038,234.502 C96.6584,233.708 93.1868,219.632 101.394,211.354 C102.414,210.359 104.677,207.162 101.271,209.397 C92.984,215.285 81.4835,208.955 81.7181,199.877 C82.1508,183.138 102.557,181.889 106.921,195.871 C107.341,197.421 108.55,198.199 108.216,195.566 C107.611,190.8 106.36,183.613 102.779,177.361 L117.392,177.361 Z" style="stroke:none;fill-rule:nonzero;fill:#000000;fill-opacity:1;"/>
        </g>
        <g id="Shape11">
            <desc shapeID="11" type="0" basicInfo-basicType="0" basicInfo-roundedRectRadius="12" basicInfo-polygonSides="6" basicInfo-starPoints="5" bounding="rect(-28.3268,-28.5706,56.6536,57.1411)" text="" font-familyName="" font-pixelSize="20" font-bold="0" font-underline="0" font-alignment="1" strokeStyle="0" markerStart="0" markerEnd="0" shadowEnabled="0" shadowOffsetX="0" shadowOffsetY="2" shadowBlur="4" shadowOpacity="160" blurEnabled="0" blurRadius="4" transform="matrix(1,0,0,1,59.8582,255.231)" pers-center="0,0" pers-size="0,0" pers-start="0,0" pers-end="0,0" locked="0" mesh="" flag=""/>
            <path id="shapePath11" d="M67.2092,226.66 C64.3302,232.436 62.2333,238.361 61.8611,244.697 C61.5195,247.029 62.9357,247.068 63.1492,245.426 C67.2256,229.833 88.9119,234.056 88.1663,248.723 C87.5613,260.617 75.7468,263.176 69.584,259.287 C67.1504,257.854 67.2879,258.712 68.6161,260.199 C77.7709,270.41 72.2262,283.561 59.8549,283.801 C46.4753,283.008 43.0037,268.931 51.2107,260.653 C52.2313,259.658 54.4942,256.462 51.0877,258.697 C42.8009,264.585 31.3004,258.254 31.535,249.176 C31.9677,232.437 52.3741,231.189 56.7382,245.17 C57.158,246.72 58.3673,247.499 58.0332,244.866 C57.4283,240.099 56.1767,232.912 52.5958,226.66 L67.2092,226.66 Z" style="stroke:none;fill-rule:nonzero;fill:#000000;fill-opacity:1;"/>
        </g>
        <g id="Shape12">
            <desc shapeID="12" type="0" basicInfo-basicType="0" basicInfo-roundedRectRadius="12" basicInfo-polygonSides="6" basicInfo-starPoints="5" bounding="rect(-11.544,-11.9272,23.0879,23.8543)" text="" font-familyName="" font-pixelSize="20" font-bold="0" font-underline="0" font-alignment="1" strokeStyle="0" markerStart="0" markerEnd="0" shadowEnabled="0" shadowOffsetX="0" shadowOffsetY="2" shadowBlur="4" shadowOpacity="160" blurEnabled="0" blurRadius="4" transform="matrix(1,0,0,1,17.5024,65.4102)" pers-center="0,0" pers-size="0,0" pers-start="0,0" pers-end="0,0" locked="0" mesh="" flag=""/>
            <path id="shapePath12" d="M13.4578,77.3373 C14.6499,74.8922 15.81,72.6165 16.4421,69.9364 C16.8613,67.4088 16.0038,68.3479 15.5169,70.0046 C14.7957,72.302 12.7943,73.3484 10.9369,73.3735 C7.56577,73.419 5.88416,70.7693 5.98898,67.9196 C5.62088,64.921 8.65997,62.7994 10.9507,62.9629 C12.673,63.0858 14.1747,64.0149 15.0836,64.738 C15.6799,65.0533 16.3176,65.1926 15.4285,64.3795 C13.7509,62.5466 12.3519,61.4153 12.3825,58.6687 C12.4115,56.09 14.616,53.4005 17.5379,53.4849 C21.1894,53.5904 22.8499,56.375 22.8412,58.9655 C22.8312,60.8538 21.8876,62.5917 20.4298,63.6681 C19.4856,64.4342 19.7504,65.0079 20.8275,64.283 C21.8624,63.391 23.0946,63.0004 24.3723,62.973 C27.8628,62.9183 29.2273,65.9345 29.0274,68.7372 C28.84,71.3629 26.6046,74.0656 23.6584,73.7595 C21.0277,73.458 19.6454,71.2496 18.8533,68.9826 C18.591,68.2875 18.1773,68.0998 18.1888,69.1357 C18.7965,74.1931 20.6804,77.3401 20.6941,77.3372 L13.4578,77.3373 Z" style="stroke:none;fill-rule:nonzero;fill:#000000;fill-opacity:1;"/>
        </g>
        <g id="Shape13">
            <desc shapeID="13" type="0" basicInfo-basicType="0" basicInfo-roundedRectRadius="12" basicInfo-polygonSides="6" basicInfo-starPoints="5" bounding="rect(-11.544,-11.9272,23.0879,23.8545)" text="" font-familyName="" font-pixelSize="20" font-bold="0" font-underline="0" font-alignment="1" strokeStyle="0" markerStart="0" markerEnd="0" shadowEnabled="0" shadowOffsetX="0" shadowOffsetY="2" shadowBlur="4" shadowOpacity="160" blurEnabled="0" blurRadius="4" transform="matrix(1,0,0,1,205.726,250.318)" pers-center="0,0" pers-size="0,0" pers-start="0,0" pers-end="0,0" locked="0" mesh="" flag=""/>
            <path id="shapePath13" d="M209.771,238.391 C208.578,240.836 207.418,243.111 206.786,245.791 C206.367,248.319 207.225,247.38 207.711,245.723 C208.433,243.426 210.434,242.38 212.291,242.355 C215.663,242.31 217.344,244.959 217.239,247.808 C217.607,250.807 214.568,252.929 212.278,252.765 C210.555,252.642 209.054,251.713 208.145,250.99 C207.548,250.675 206.911,250.535 207.8,251.349 C209.477,253.181 210.876,254.313 210.846,257.059 C210.817,259.638 208.612,262.327 205.69,262.243 C202.039,262.138 200.378,259.353 200.387,256.763 C200.397,254.874 201.341,253.136 202.799,252.06 C203.743,251.294 203.478,250.72 202.401,251.445 C201.366,252.337 200.134,252.728 198.856,252.755 C195.366,252.81 194.001,249.794 194.201,246.991 C194.388,244.365 196.624,241.662 199.57,241.969 C202.201,242.27 203.583,244.478 204.375,246.745 C204.637,247.441 205.051,247.628 205.04,246.592 C204.432,241.535 202.548,238.388 202.534,238.391 L209.771,238.391 Z" style="stroke:none;fill-rule:nonzero;fill:#000000;fill-opacity:1;"/>
        </g>
    </g>
</svg>
