<?xml version="1.0"?>
<svg version="1.1" xmlns="http://www.w3.org/2000/svg" xmlns:xlink="http://www.w3.org/1999/xlink" width="223" height="312">
    <desc iVinci="yes" version="4.5" gridStep="20" showGrid="no" snapToGrid="no" codePlatform="0"/>
    <g id="Layer1" opacity="1">
        <g id="Shape1">
            <desc shapeID="1" type="0" basicInfo-basicType="0" basicInfo-roundedRectRadius="12" basicInfo-polygonSides="6" basicInfo-starPoints="5" bounding="rect(-111.614,-155.906,223.228,311.811)" text="" font-familyName="" font-pixelSize="20" font-bold="0" font-underline="0" font-alignment="1" strokeStyle="0" markerStart="0" markerEnd="0" shadowEnabled="0" shadowOffsetX="0" shadowOffsetY="2" shadowBlur="4" shadowOpacity="160" blurEnabled="0" blurRadius="4" transform="matrix(1,0,0,1,111.614,155.906)" pers-center="0,0" pers-size="0,0" pers-start="0,0" pers-end="0,0" locked="0" mesh="" flag=""/>
            <path id="shapePath1" d="M0,9.35434 C0,4.18808 4.49741,0 10.0453,0 L213.183,0 C218.731,0 223.228,4.18808 223.228,9.35434 L223.228,302.457 C223.228,307.623 218.731,311.811 213.183,311.811 L10.0453,311.811 C4.49741,311.811 0,307.623 0,302.457 L0,9.35434 Z" style="stroke:#000000;stroke-opacity:1;stroke-width:0.996733;stroke-linejoin:miter;stroke-miterlimit:2;stroke-linecap:butt;fill-rule:evenodd;fill:#ffffff;fill-opacity:1;"/>
        </g>
        <g id="Shape2">
            <desc shapeID="2" type="0" basicInfo-basicType="0" basicInfo-roundedRectRadius="12" basicInfo-polygonSides="6" basicInfo-starPoints="5" bounding="rect(-10.7912,-16.3008,21.5824,32.6016)" text="" font-familyName="" font-pixelSize="20" font-bold="0" font-underline="0" font-alignment="1" strokeStyle="0" markerStart="0" markerEnd="0" shadowEnabled="0" shadowOffsetX="0" shadowOffsetY="2" shadowBlur="4" shadowOpacity="160" blurEnabled="0" blurRadius="4" transform="matrix(1,0,0,1,17.6311,30.7975)" pers-center="0,0" pers-size="0,0" pers-start="0,0" pers-end="0,0" locked="0" mesh="" flag=""/>
            <path id="shapePath2" d="M6.84375,37.5504 C7.00388,33.175 8.61447,31.5319 11.7874,29.241 C9.25674,27.4458 8.1897,24.8044 8.40518,22.5538 C8.92667,17.1069 13.215,14.3817 17.8902,14.5004 C22.5654,14.6191 26.5948,18.264 26.909,22.2223 C27.1824,25.6655 26.1386,27.3246 23.6516,29.1374 C26.6046,31.5789 28.492,33.1874 28.4203,37.4975 C28.3487,41.8077 24.6146,46.9374 18.1058,47.0949 C11.597,47.2524 6.68365,41.9258 6.84375,37.5504 M25.0163,37.5649 C25.2955,33.6028 21.7281,30.9295 17.7031,30.888 C13.7808,30.8475 10.2719,34.1346 10.2712,37.6918 C10.2712,41.5128 14.8348,43.5884 17.7822,43.5994 C21.3645,43.6127 24.7758,40.9773 25.0163,37.5649 M23.7283,23.3915 C23.8062,20.0539 20.6715,17.662 17.4398,17.7582 C14.5644,17.8438 11.5187,19.9989 11.5172,22.7891 C11.5142,26.279 14.9792,28.0214 17.9341,28.0872 C20.6145,28.1468 23.6695,25.9124 23.7283,23.3915 Z" style="stroke:none;fill-rule:nonzero;fill:#d40000;fill-opacity:1;"/>
        </g>
        <g id="Shape3">
            <desc shapeID="3" type="0" basicInfo-basicType="0" basicInfo-roundedRectRadius="12" basicInfo-polygonSides="6" basicInfo-starPoints="5" bounding="rect(-10.7912,-16.3008,21.5824,32.6016)" text="" font-familyName="" font-pixelSize="20" font-bold="0" font-underline="0" font-alignment="1" strokeStyle="0" markerStart="0" markerEnd="0" shadowEnabled="0" shadowOffsetX="0" shadowOffsetY="2" shadowBlur="4" shadowOpacity="160" blurEnabled="0" blurRadius="4" transform="matrix(1,0,0,1,205.597,281.014)" pers-center="0,0" pers-size="0,0" pers-start="0,0" pers-end="0,0" locked="0" mesh="" flag=""/>
            <path id="shapePath3" d="M216.385,274.261 C216.224,278.636 214.614,280.279 211.441,282.57 C213.972,284.365 215.039,287.007 214.823,289.257 C214.302,294.704 210.013,297.429 205.338,297.311 C200.663,297.192 196.634,293.547 196.319,289.589 C196.046,286.146 197.09,284.486 199.577,282.674 C196.624,280.232 194.736,278.624 194.808,274.314 C194.88,270.003 198.614,264.874 205.122,264.716 C211.631,264.559 216.545,269.885 216.385,274.261 M198.212,274.246 C197.933,278.208 201.5,280.882 205.525,280.923 C209.448,280.964 212.956,277.677 212.957,274.119 C212.957,270.298 208.394,268.223 205.446,268.212 C201.864,268.198 198.452,270.834 198.212,274.246 M199.5,288.42 C199.422,291.757 202.557,294.149 205.789,294.053 C208.664,293.967 211.71,291.812 211.711,289.022 C211.714,285.532 208.249,283.79 205.294,283.724 C202.614,283.664 199.559,285.899 199.5,288.42 Z" style="stroke:none;fill-rule:nonzero;fill:#d40000;fill-opacity:1;"/>
        </g>
        <g id="Shape4">
            <desc shapeID="4" type="0" basicInfo-basicType="0" basicInfo-roundedRectRadius="12" basicInfo-polygonSides="6" basicInfo-starPoints="5" bounding="rect(-9.675,-12.8329,19.35,25.6659)" text="" font-familyName="" font-pixelSize="20" font-bold="0" font-underline="0" font-alignment="1" strokeStyle="0" markerStart="0" markerEnd="0" shadowEnabled="0" shadowOffsetX="0" shadowOffsetY="2" shadowBlur="4" shadowOpacity="160" blurEnabled="0" blurRadius="4" transform="matrix(1,0,0,1,18.2544,65.4101)" pers-center="0,0" pers-size="0,0" pers-start="0,0" pers-end="0,0" locked="0" mesh="" flag=""/>
            <path id="shapePath4" d="M9.58191,62.9101 C7.9989,59.4378 7.8252,53.5047 12.553,52.7021 C16.1151,52.2436 17.5647,53.9004 17.8529,56.4439 C17.9951,57.187 18.4146,57.2324 18.5477,56.3856 C18.7521,53.7762 21.3349,52.253 23.3541,52.6357 C28.8807,53.5811 28.558,59.6641 26.7526,63.7912 C24.0217,69.2707 21.152,72.7288 18.5076,78.243 C15.4694,72.502 12.0003,67.838 9.58191,62.9101 L9.58191,62.9101 Z" style="stroke:none;fill-rule:nonzero;fill:#d40000;fill-opacity:1;"/>
        </g>
        <g id="Shape5">
            <desc shapeID="5" type="0" basicInfo-basicType="0" basicInfo-roundedRectRadius="12" basicInfo-polygonSides="6" basicInfo-starPoints="5" bounding="rect(-23.58,-28.946,47.16,57.892)" text="" font-familyName="" font-pixelSize="20" font-bold="0" font-underline="0" font-alignment="1" strokeStyle="0" markerStart="0" markerEnd="0" shadowEnabled="0" shadowOffsetX="0" shadowOffsetY="2" shadowBlur="4" shadowOpacity="160" blurEnabled="0" blurRadius="4" transform="matrix(1,0,0,1,56.61,56.3837)" pers-center="0,0" pers-size="0,0" pers-start="0,0" pers-end="0,0" locked="0" mesh="" flag=""/>
            <path id="shapePath5" d="M44.5603,27.637 C51.7043,27.1626 55.4287,33.2644 56.1555,38.0735 C56.5889,38.8373 56.8262,38.6221 56.9924,38.0312 C57.3417,31.857 62.8673,26.811 67.985,27.501 C76.313,27.6093 81.3745,36.8764 79.9514,44.7197 C78.2129,54.3013 73.0517,60.0708 69.1436,66.0128 C64.7223,72.1652 58.7709,81.0523 56.8535,85.3297 C56.8535,85.3297 50.8052,76.1252 42.9363,65.3001 C37.6745,58.0616 33.4632,50.2177 33.0712,43.4647 C32.6233,35.7492 35.7905,28.8329 44.5603,27.6371 L44.5603,27.637 Z" style="stroke:none;fill-rule:nonzero;fill:#d40000;fill-opacity:1;"/>
        </g>
        <g id="Shape6">
            <desc shapeID="6" type="0" basicInfo-basicType="0" basicInfo-roundedRectRadius="12" basicInfo-polygonSides="6" basicInfo-starPoints="5" bounding="rect(-23.58,-28.946,47.16,57.892)" text="" font-familyName="" font-pixelSize="20" font-bold="0" font-underline="0" font-alignment="1" strokeStyle="0" markerStart="0" markerEnd="0" shadowEnabled="0" shadowOffsetX="0" shadowOffsetY="2" shadowBlur="4" shadowOpacity="160" blurEnabled="0" blurRadius="4" transform="matrix(1,0,0,1,166.143,56.3837)" pers-center="0,0" pers-size="0,0" pers-start="0,0" pers-end="0,0" locked="0" mesh="" flag=""/>
            <path id="shapePath6" d="M154.093,27.637 C161.237,27.1626 164.961,33.2644 165.688,38.0735 C166.122,38.8373 166.359,38.6221 166.525,38.0312 C166.874,31.857 172.4,26.811 177.518,27.501 C185.846,27.6093 190.907,36.8764 189.484,44.7197 C187.746,54.3013 182.585,60.0708 178.676,66.0128 C174.255,72.1652 168.304,81.0523 166.386,85.3297 C166.386,85.3297 160.338,76.1252 152.469,65.3001 C147.207,58.0616 142.996,50.2177 142.604,43.4647 C142.156,35.7492 145.323,28.8329 154.093,27.6371 L154.093,27.637 Z" style="stroke:none;fill-rule:nonzero;fill:#d40000;fill-opacity:1;"/>
        </g>
        <g id="Shape7">
            <desc shapeID="7" type="0" basicInfo-basicType="0" basicInfo-roundedRectRadius="12" basicInfo-polygonSides="6" basicInfo-starPoints="5" bounding="rect(-23.58,-28.946,47.16,57.892)" text="" font-familyName="" font-pixelSize="20" font-bold="0" font-underline="0" font-alignment="1" strokeStyle="0" markerStart="0" markerEnd="0" shadowEnabled="0" shadowOffsetX="0" shadowOffsetY="2" shadowBlur="4" shadowOpacity="160" blurEnabled="0" blurRadius="4" transform="matrix(1,0,0,1,110.793,106.508)" pers-center="0,0" pers-size="0,0" pers-start="0,0" pers-end="0,0" locked="0" mesh="" flag=""/>
            <path id="shapePath7" d="M98.7435,77.7612 C105.887,77.2868 109.612,83.3886 110.339,88.1977 C110.772,88.9615 111.009,88.7463 111.176,88.1554 C111.525,81.9812 117.051,76.9352 122.168,77.6252 C130.496,77.7335 135.558,87.0006 134.135,94.8439 C132.396,104.426 127.235,110.195 123.327,116.137 C118.905,122.289 112.954,131.177 111.037,135.454 C111.037,135.454 104.988,126.249 97.1195,115.424 C91.8577,108.186 87.6464,100.342 87.2544,93.5889 C86.8065,85.8734 89.9737,78.9572 98.7435,77.7613 L98.7435,77.7612 Z" style="stroke:none;fill-rule:nonzero;fill:#d40000;fill-opacity:1;"/>
        </g>
        <g id="Shape8">
            <desc shapeID="8" type="0" basicInfo-basicType="0" basicInfo-roundedRectRadius="12" basicInfo-polygonSides="6" basicInfo-starPoints="5" bounding="rect(-23.58,-28.946,47.16,57.892)" text="" font-familyName="" font-pixelSize="20" font-bold="0" font-underline="0" font-alignment="1" strokeStyle="0" markerStart="0" markerEnd="0" shadowEnabled="0" shadowOffsetX="0" shadowOffsetY="2" shadowBlur="4" shadowOpacity="160" blurEnabled="0" blurRadius="4" transform="matrix(1,0,0,1,56.61,156.632)" pers-center="0,0" pers-size="0,0" pers-start="0,0" pers-end="0,0" locked="0" mesh="" flag=""/>
            <path id="shapePath8" d="M44.5603,127.885 C51.7043,127.411 55.4287,133.513 56.1555,138.322 C56.5889,139.086 56.8262,138.871 56.9924,138.28 C57.3417,132.105 62.8673,127.059 67.985,127.749 C76.313,127.858 81.3745,137.125 79.9514,144.968 C78.2129,154.55 73.0517,160.319 69.1436,166.261 C64.7223,172.414 58.7709,181.301 56.8535,185.578 C56.8535,185.578 50.8052,176.374 42.9363,165.549 C37.6745,158.31 33.4632,150.466 33.0712,143.713 C32.6233,135.998 35.7905,129.081 44.5603,127.885 L44.5603,127.885 Z" style="stroke:none;fill-rule:nonzero;fill:#d40000;fill-opacity:1;"/>
        </g>
        <g id="Shape9">
            <desc shapeID="9" type="0" basicInfo-basicType="0" basicInfo-roundedRectRadius="12" basicInfo-polygonSides="6" basicInfo-starPoints="5" bounding="rect(-23.58,-28.946,47.16,57.892)" text="" font-familyName="" font-pixelSize="20" font-bold="0" font-underline="0" font-alignment="1" strokeStyle="0" markerStart="0" markerEnd="0" shadowEnabled="0" shadowOffsetX="0" shadowOffsetY="2" shadowBlur="4" shadowOpacity="160" blurEnabled="0" blurRadius="4" transform="matrix(1,0,0,1,166.143,156.632)" pers-center="0,0" pers-size="0,0" pers-start="0,0" pers-end="0,0" locked="0" mesh="" flag=""/>
            <path id="shapePath9" d="M154.093,127.885 C161.237,127.411 164.961,133.513 165.688,138.322 C166.122,139.086 166.359,138.871 166.525,138.28 C166.874,132.105 172.4,127.059 177.518,127.749 C185.846,127.858 190.907,137.125 189.484,144.968 C187.746,154.55 182.585,160.319 178.676,166.261 C174.255,172.414 168.304,181.301 166.386,185.578 C166.386,185.578 160.338,176.374 152.469,165.549 C147.207,158.31 142.996,150.466 142.604,143.713 C142.156,135.998 145.323,129.081 154.093,127.885 L154.093,127.885 Z" style="stroke:none;fill-rule:nonzero;fill:#d40000;fill-opacity:1;"/>
        </g>
        <g id="Shape10">
            <desc shapeID="10" type="0" basicInfo-basicType="0" basicInfo-roundedRectRadius="12" basicInfo-polygonSides="6" basicInfo-starPoints="5" bounding="rect(-23.58,-28.946,47.16,57.892)" text="" font-familyName="" font-pixelSize="20" font-bold="0" font-underline="0" font-alignment="1" strokeStyle="0" markerStart="0" markerEnd="0" shadowEnabled="0" shadowOffsetX="0" shadowOffsetY="2" shadowBlur="4" shadowOpacity="160" blurEnabled="0" blurRadius="4" transform="matrix(1,0,0,1,166.143,255.231)" pers-center="0,0" pers-size="0,0" pers-start="0,0" pers-end="0,0" locked="0" mesh="" flag=""/>
            <path id="shapePath10" d="M154.093,283.977 C161.237,284.452 164.961,278.35 165.688,273.541 C166.122,272.777 166.359,272.992 166.525,273.583 C166.874,279.757 172.4,284.803 177.518,284.113 C185.846,284.005 190.907,274.738 189.484,266.895 C187.746,257.313 182.585,251.544 178.676,245.602 C174.255,239.449 168.304,230.562 166.386,226.285 C166.386,226.285 160.338,235.489 152.469,246.314 C147.207,253.553 142.996,261.397 142.604,268.15 C142.156,275.865 145.323,282.781 154.093,283.977 L154.093,283.977 Z" style="stroke:none;fill-rule:nonzero;fill:#d40000;fill-opacity:1;"/>
        </g>
        <g id="Shape11">
            <desc shapeID="11" type="0" basicInfo-basicType="0" basicInfo-roundedRectRadius="12" basicInfo-polygonSides="6" basicInfo-starPoints="5" bounding="rect(-23.58,-28.946,47.16,57.892)" text="" font-familyName="" font-pixelSize="20" font-bold="0" font-underline="0" font-alignment="1" strokeStyle="0" markerStart="0" markerEnd="0" shadowEnabled="0" shadowOffsetX="0" shadowOffsetY="2" shadowBlur="4" shadowOpacity="160" blurEnabled="0" blurRadius="4" transform="matrix(1,0,0,1,110.793,205.931)" pers-center="0,0" pers-size="0,0" pers-start="0,0" pers-end="0,0" locked="0" mesh="" flag=""/>
            <path id="shapePath11" d="M98.7435,234.678 C105.887,235.152 109.612,229.051 110.339,224.242 C110.772,223.478 111.009,223.693 111.176,224.284 C111.525,230.458 117.051,235.504 122.168,234.814 C130.496,234.706 135.558,225.439 134.135,217.595 C132.396,208.014 127.235,202.244 123.327,196.302 C118.905,190.15 112.954,181.263 111.037,176.985 C111.037,176.985 104.988,186.19 97.1195,197.015 C91.8577,204.253 87.6464,212.097 87.2544,218.85 C86.8065,226.566 89.9737,233.482 98.7435,234.678 Z" style="stroke:none;fill-rule:nonzero;fill:#d40000;fill-opacity:1;"/>
        </g>
        <g id="Shape12">
            <desc shapeID="12" type="0" basicInfo-basicType="0" basicInfo-roundedRectRadius="12" basicInfo-polygonSides="6" basicInfo-starPoints="5" bounding="rect(-23.58,-28.946,47.16,57.892)" text="" font-familyName="" font-pixelSize="20" font-bold="0" font-underline="0" font-alignment="1" strokeStyle="0" markerStart="0" markerEnd="0" shadowEnabled="0" shadowOffsetX="0" shadowOffsetY="2" shadowBlur="4" shadowOpacity="160" blurEnabled="0" blurRadius="4" transform="matrix(1,0,0,1,56.61,255.231)" pers-center="0,0" pers-size="0,0" pers-start="0,0" pers-end="0,0" locked="0" mesh="" flag=""/>
            <path id="shapePath12" d="M44.5603,283.977 C51.7043,284.452 55.4287,278.35 56.1555,273.541 C56.5889,272.777 56.8262,272.992 56.9924,273.583 C57.3417,279.757 62.8673,284.803 67.985,284.113 C76.313,284.005 81.3745,274.738 79.9514,266.895 C78.2129,257.313 73.0517,251.544 69.1436,245.602 C64.7223,239.449 58.7709,230.562 56.8535,226.285 C56.8535,226.285 50.8052,235.489 42.9363,246.314 C37.6745,253.553 33.4632,261.397 33.0712,268.15 C32.6233,275.865 35.7905,282.781 44.5603,283.977 L44.5603,283.977 Z" style="stroke:none;fill-rule:nonzero;fill:#d40000;fill-opacity:1;"/>
        </g>
        <g id="Shape13">
            <desc shapeID="13" type="0" basicInfo-basicType="0" basicInfo-roundedRectRadius="12" basicInfo-polygonSides="6" basicInfo-starPoints="5" bounding="rect(-9.675,-12.8329,19.35,25.6659)" text="" font-familyName="" font-pixelSize="20" font-bold="0" font-underline="0" font-alignment="1" strokeStyle="0" markerStart="0" markerEnd="0" shadowEnabled="0" shadowOffsetX="0" shadowOffsetY="2" shadowBlur="4" shadowOpacity="160" blurEnabled="0" blurRadius="4" transform="matrix(1,0,0,1,207.07,251.268)" pers-center="0,0" pers-size="0,0" pers-start="0,0" pers-end="0,0" locked="0" mesh="" flag=""/>
            <path id="shapePath13" d="M198.397,253.768 C196.814,257.24 196.64,263.173 201.368,263.976 C204.93,264.434 206.38,262.777 206.668,260.234 C206.81,259.491 207.23,259.445 207.363,260.292 C207.567,262.902 210.15,264.425 212.169,264.042 C217.696,263.097 217.373,257.014 215.568,252.887 C212.837,247.407 209.967,243.949 207.323,238.435 C204.285,244.176 200.815,248.84 198.397,253.768 L198.397,253.768 Z" style="stroke:none;fill-rule:nonzero;fill:#d40000;fill-opacity:1;"/>
        </g>
    </g>
</svg>
