<?xml version="1.0"?>
<svg version="1.1" xmlns="http://www.w3.org/2000/svg" xmlns:xlink="http://www.w3.org/1999/xlink" width="223" height="312">
    <desc iVinci="yes" version="4.5" gridStep="20" showGrid="no" snapToGrid="no" codePlatform="0"/>
    <g id="Layer1" opacity="1">
        <g id="Shape1">
            <desc shapeID="1" type="0" basicInfo-basicType="0" basicInfo-roundedRectRadius="12" basicInfo-polygonSides="6" basicInfo-starPoints="5" bounding="rect(-111.614,-155.906,223.228,311.811)" text="" font-familyName="" font-pixelSize="20" font-bold="0" font-underline="0" font-alignment="1" strokeStyle="0" markerStart="0" markerEnd="0" shadowEnabled="0" shadowOffsetX="0" shadowOffsetY="2" shadowBlur="4" shadowOpacity="160" blurEnabled="0" blurRadius="4" transform="matrix(1,0,0,1,111.614,155.906)" pers-center="0,0" pers-size="0,0" pers-start="0,0" pers-end="0,0" locked="0" mesh="" flag=""/>
            <path id="shapePath1" d="M3.05176e-05,9.35434 C3.05176e-05,4.18808 4.49744,0 10.0453,0 L213.183,0 C218.731,0 223.228,4.18808 223.228,9.35434 L223.228,302.457 C223.228,307.623 218.731,311.811 213.183,311.811 L10.0453,311.811 C4.49744,311.811 3.05176e-05,307.623 3.05176e-05,302.457 L3.05176e-05,9.35434 Z" style="stroke:#000000;stroke-opacity:1;stroke-width:0.996733;stroke-linejoin:miter;stroke-miterlimit:2;stroke-linecap:butt;fill-rule:evenodd;fill:#ffffff;fill-opacity:1;"/>
        </g>
        <g id="Shape2">
            <desc shapeID="2" type="0" basicInfo-basicType="0" basicInfo-roundedRectRadius="12" basicInfo-polygonSides="6" basicInfo-starPoints="5" bounding="rect(-10.7912,-16.3008,21.5824,32.6016)" text="" font-familyName="" font-pixelSize="20" font-bold="0" font-underline="0" font-alignment="1" strokeStyle="0" markerStart="0" markerEnd="0" shadowEnabled="0" shadowOffsetX="0" shadowOffsetY="2" shadowBlur="4" shadowOpacity="160" blurEnabled="0" blurRadius="4" transform="matrix(1,0,0,1,17.6312,30.7975)" pers-center="0,0" pers-size="0,0" pers-start="0,0" pers-end="0,0" locked="0" mesh="" flag=""/>
            <path id="shapePath2" d="M6.84378,37.5504 C7.00391,33.175 8.6145,31.5319 11.7874,29.241 C9.25677,27.4458 8.18973,24.8044 8.40521,22.5538 C8.9267,17.1069 13.2151,14.3817 17.8903,14.5004 C22.5654,14.6191 26.5948,18.264 26.9091,22.2223 C27.1824,25.6655 26.1386,27.3246 23.6517,29.1374 C26.6046,31.5789 28.492,33.1874 28.4204,37.4975 C28.3488,41.8077 24.6147,46.9374 18.1059,47.0949 C11.597,47.2524 6.68369,41.9258 6.84378,37.5504 M25.0164,37.5649 C25.2956,33.6028 21.7281,30.9295 17.7031,30.888 C13.7809,30.8475 10.2719,34.1346 10.2712,37.6918 C10.2712,41.5128 14.8348,43.5884 17.7823,43.5994 C21.3645,43.6127 24.7759,40.9773 25.0164,37.5649 M23.7284,23.3915 C23.8062,20.0539 20.6715,17.662 17.4398,17.7582 C14.5644,17.8438 11.5187,19.9989 11.5172,22.7891 C11.5142,26.279 14.9793,28.0214 17.9341,28.0872 C20.6145,28.1468 23.6695,25.9124 23.7284,23.3915 Z" style="stroke:none;fill-rule:nonzero;fill:#000000;fill-opacity:1;"/>
        </g>
        <g id="Shape3">
            <desc shapeID="3" type="0" basicInfo-basicType="0" basicInfo-roundedRectRadius="12" basicInfo-polygonSides="6" basicInfo-starPoints="5" bounding="rect(-10.7912,-16.3008,21.5824,32.6016)" text="" font-familyName="" font-pixelSize="20" font-bold="0" font-underline="0" font-alignment="1" strokeStyle="0" markerStart="0" markerEnd="0" shadowEnabled="0" shadowOffsetX="0" shadowOffsetY="2" shadowBlur="4" shadowOpacity="160" blurEnabled="0" blurRadius="4" transform="matrix(1,0,0,1,205.597,281.014)" pers-center="0,0" pers-size="0,0" pers-start="0,0" pers-end="0,0" locked="0" mesh="" flag=""/>
            <path id="shapePath3" d="M216.385,274.261 C216.224,278.636 214.614,280.279 211.441,282.57 C213.972,284.365 215.039,287.007 214.823,289.257 C214.302,294.704 210.013,297.429 205.338,297.311 C200.663,297.192 196.634,293.547 196.319,289.589 C196.046,286.146 197.09,284.486 199.577,282.674 C196.624,280.232 194.736,278.624 194.808,274.314 C194.88,270.003 198.614,264.874 205.123,264.716 C211.631,264.559 216.545,269.885 216.385,274.261 M198.212,274.246 C197.933,278.208 201.5,280.882 205.525,280.923 C209.448,280.964 212.956,277.677 212.957,274.119 C212.957,270.298 208.394,268.223 205.446,268.212 C201.864,268.198 198.453,270.834 198.212,274.246 M199.5,288.42 C199.422,291.757 202.557,294.149 205.789,294.053 C208.664,293.967 211.71,291.812 211.711,289.022 C211.714,285.532 208.249,283.79 205.294,283.724 C202.614,283.664 199.559,285.899 199.5,288.42 Z" style="stroke:none;fill-rule:nonzero;fill:#000000;fill-opacity:1;"/>
        </g>
        <g id="Shape4">
            <desc shapeID="4" type="0" basicInfo-basicType="0" basicInfo-roundedRectRadius="12" basicInfo-polygonSides="6" basicInfo-starPoints="5" bounding="rect(-23.895,-29.6864,47.79,59.3729)" text="" font-familyName="" font-pixelSize="20" font-bold="0" font-underline="0" font-alignment="1" strokeStyle="0" markerStart="0" markerEnd="0" shadowEnabled="0" shadowOffsetX="0" shadowOffsetY="2" shadowBlur="4" shadowOpacity="160" blurEnabled="0" blurRadius="4" transform="matrix(1,0,0,1,54.5993,56.3836)" pers-center="0,0" pers-size="0,0" pers-start="0,0" pers-end="0,0" locked="0" mesh="" flag=""/>
            <path id="shapePath4" d="M52.4696,67.8343 C52.4846,65.8086 50.8828,65.7698 50.901,67.2485 C50.7667,74.6771 44.4845,78.3349 39.9204,77.4672 C32.8843,76.1296 30.6386,69.1451 30.7057,65.0318 C30.9129,52.3355 43.6935,42.9734 55.2259,26.6972 C63.676,41.388 77.6231,52.9268 78.4488,64.283 C79.5465,79.381 60.4399,85.0127 57.7119,67.4157 C57.5359,66.1726 56.0722,65.6146 56.1858,67.3507 C56.6003,72.1733 56.0109,74.182 61.4515,86.0701 L47.2298,86.0701 C50.3795,80.5152 52.2552,73.6955 52.4696,67.8343 L52.4696,67.8343 Z" style="stroke:none;fill-rule:nonzero;fill:#000000;fill-opacity:1;"/>
        </g>
        <g id="Shape5">
            <desc shapeID="5" type="0" basicInfo-basicType="0" basicInfo-roundedRectRadius="12" basicInfo-polygonSides="6" basicInfo-starPoints="5" bounding="rect(-23.895,-29.6864,47.79,59.3729)" text="" font-familyName="" font-pixelSize="20" font-bold="0" font-underline="0" font-alignment="1" strokeStyle="0" markerStart="0" markerEnd="0" shadowEnabled="0" shadowOffsetX="0" shadowOffsetY="2" shadowBlur="4" shadowOpacity="160" blurEnabled="0" blurRadius="4" transform="matrix(1,0,0,1,166.132,56.3836)" pers-center="0,0" pers-size="0,0" pers-start="0,0" pers-end="0,0" locked="0" mesh="" flag=""/>
            <path id="shapePath5" d="M164.002,67.8343 C164.017,65.8086 162.416,65.7698 162.434,67.2485 C162.299,74.6771 156.017,78.3349 151.453,77.4672 C144.417,76.1296 142.171,69.1451 142.238,65.0318 C142.446,52.3355 155.226,42.9734 166.759,26.6972 C175.209,41.388 189.156,52.9268 189.982,64.283 C191.079,79.381 171.973,85.0127 169.245,67.4157 C169.069,66.1726 167.605,65.6146 167.719,67.3507 C168.133,72.1733 167.544,74.182 172.984,86.0701 L158.763,86.0701 C161.912,80.5152 163.788,73.6955 164.002,67.8343 L164.002,67.8343 Z" style="stroke:none;fill-rule:nonzero;fill:#000000;fill-opacity:1;"/>
        </g>
        <g id="Shape6">
            <desc shapeID="6" type="0" basicInfo-basicType="0" basicInfo-roundedRectRadius="12" basicInfo-polygonSides="6" basicInfo-starPoints="5" bounding="rect(-23.895,-29.6864,47.79,59.3729)" text="" font-familyName="" font-pixelSize="20" font-bold="0" font-underline="0" font-alignment="1" strokeStyle="0" markerStart="0" markerEnd="0" shadowEnabled="0" shadowOffsetX="0" shadowOffsetY="2" shadowBlur="4" shadowOpacity="160" blurEnabled="0" blurRadius="4" transform="matrix(1,0,0,1,110.782,106.508)" pers-center="0,0" pers-size="0,0" pers-start="0,0" pers-end="0,0" locked="0" mesh="" flag=""/>
            <path id="shapePath6" d="M108.653,117.958 C108.668,115.933 107.066,115.894 107.084,117.373 C106.95,124.801 100.668,128.459 96.1035,127.591 C89.0674,126.254 86.8217,119.269 86.8888,115.156 C87.096,102.46 99.8766,93.0976 111.409,76.8214 C119.859,91.5122 133.806,103.051 134.632,114.407 C135.73,129.505 116.623,135.137 113.895,117.54 C113.719,116.297 112.255,115.739 112.369,117.475 C112.783,122.297 112.194,124.306 117.635,136.194 L103.413,136.194 C106.563,130.639 108.438,123.82 108.653,117.959 L108.653,117.958 Z" style="stroke:none;fill-rule:nonzero;fill:#000000;fill-opacity:1;"/>
        </g>
        <g id="Shape7">
            <desc shapeID="7" type="0" basicInfo-basicType="0" basicInfo-roundedRectRadius="12" basicInfo-polygonSides="6" basicInfo-starPoints="5" bounding="rect(-23.895,-29.6864,47.79,59.3729)" text="" font-familyName="" font-pixelSize="20" font-bold="0" font-underline="0" font-alignment="1" strokeStyle="0" markerStart="0" markerEnd="0" shadowEnabled="0" shadowOffsetX="0" shadowOffsetY="2" shadowBlur="4" shadowOpacity="160" blurEnabled="0" blurRadius="4" transform="matrix(1,0,0,1,54.5993,156.632)" pers-center="0,0" pers-size="0,0" pers-start="0,0" pers-end="0,0" locked="0" mesh="" flag=""/>
            <path id="shapePath7" d="M52.4696,168.083 C52.4846,166.057 50.8828,166.018 50.901,167.497 C50.7667,174.926 44.4845,178.583 39.9204,177.716 C32.8843,176.378 30.6386,169.394 30.7057,165.28 C30.9129,152.584 43.6935,143.222 55.2259,126.946 C63.676,141.636 77.6231,153.175 78.4488,164.531 C79.5465,179.629 60.4399,185.261 57.7119,167.664 C57.5359,166.421 56.0722,165.863 56.1858,167.599 C56.6003,172.422 56.0109,174.43 61.4515,186.318 L47.2298,186.318 C50.3795,180.764 52.2552,173.944 52.4696,168.083 Z" style="stroke:none;fill-rule:nonzero;fill:#000000;fill-opacity:1;"/>
        </g>
        <g id="Shape8">
            <desc shapeID="8" type="0" basicInfo-basicType="0" basicInfo-roundedRectRadius="12" basicInfo-polygonSides="6" basicInfo-starPoints="5" bounding="rect(-23.895,-29.6864,47.79,59.3729)" text="" font-familyName="" font-pixelSize="20" font-bold="0" font-underline="0" font-alignment="1" strokeStyle="0" markerStart="0" markerEnd="0" shadowEnabled="0" shadowOffsetX="0" shadowOffsetY="2" shadowBlur="4" shadowOpacity="160" blurEnabled="0" blurRadius="4" transform="matrix(1,0,0,1,166.132,156.632)" pers-center="0,0" pers-size="0,0" pers-start="0,0" pers-end="0,0" locked="0" mesh="" flag=""/>
            <path id="shapePath8" d="M164.002,168.083 C164.017,166.057 162.416,166.018 162.434,167.497 C162.299,174.926 156.017,178.583 151.453,177.716 C144.417,176.378 142.171,169.394 142.238,165.28 C142.446,152.584 155.226,143.222 166.759,126.946 C175.209,141.636 189.156,153.175 189.982,164.531 C191.079,179.629 171.973,185.261 169.245,167.664 C169.069,166.421 167.605,165.863 167.719,167.599 C168.133,172.422 167.544,174.43 172.984,186.318 L158.763,186.318 C161.912,180.764 163.788,173.944 164.002,168.083 Z" style="stroke:none;fill-rule:nonzero;fill:#000000;fill-opacity:1;"/>
        </g>
        <g id="Shape9">
            <desc shapeID="9" type="0" basicInfo-basicType="0" basicInfo-roundedRectRadius="12" basicInfo-polygonSides="6" basicInfo-starPoints="5" bounding="rect(-23.895,-29.6864,47.79,59.3728)" text="" font-familyName="" font-pixelSize="20" font-bold="0" font-underline="0" font-alignment="1" strokeStyle="0" markerStart="0" markerEnd="0" shadowEnabled="0" shadowOffsetX="0" shadowOffsetY="2" shadowBlur="4" shadowOpacity="160" blurEnabled="0" blurRadius="4" transform="matrix(1,0,0,1,166.143,255.256)" pers-center="0,0" pers-size="0,0" pers-start="0,0" pers-end="0,0" locked="0" mesh="" flag=""/>
            <path id="shapePath9" d="M164.013,243.806 C164.028,245.831 162.426,245.87 162.445,244.391 C162.31,236.963 156.028,233.305 151.464,234.173 C144.428,235.51 142.182,242.495 142.249,246.608 C142.456,259.304 155.237,268.666 166.769,284.943 C175.22,270.252 189.167,258.713 189.992,247.357 C191.09,232.259 171.983,226.627 169.255,244.224 C169.079,245.467 167.616,246.025 167.729,244.289 C168.144,239.467 167.554,237.458 172.995,225.57 L158.773,225.57 C161.923,231.125 163.799,237.944 164.013,243.805 L164.013,243.806 Z" style="stroke:none;fill-rule:nonzero;fill:#000000;fill-opacity:1;"/>
        </g>
        <g id="Shape10">
            <desc shapeID="10" type="0" basicInfo-basicType="0" basicInfo-roundedRectRadius="12" basicInfo-polygonSides="6" basicInfo-starPoints="5" bounding="rect(-23.895,-29.6864,47.79,59.3729)" text="" font-familyName="" font-pixelSize="20" font-bold="0" font-underline="0" font-alignment="1" strokeStyle="0" markerStart="0" markerEnd="0" shadowEnabled="0" shadowOffsetX="0" shadowOffsetY="2" shadowBlur="4" shadowOpacity="160" blurEnabled="0" blurRadius="4" transform="matrix(1,0,0,1,110.793,205.957)" pers-center="0,0" pers-size="0,0" pers-start="0,0" pers-end="0,0" locked="0" mesh="" flag=""/>
            <path id="shapePath10" d="M108.664,194.506 C108.679,196.532 107.077,196.571 107.095,195.092 C106.961,187.663 100.678,184.006 96.1143,184.873 C89.0782,186.211 86.8325,193.195 86.8996,197.309 C87.1068,210.005 99.8874,219.367 111.42,235.643 C119.87,220.953 133.817,209.414 134.643,198.058 C135.74,182.959 116.634,177.328 113.906,194.925 C113.73,196.168 112.266,196.726 112.38,194.99 C112.794,190.167 112.205,188.159 117.645,176.27 L103.424,176.27 C106.573,181.825 108.449,188.645 108.664,194.506 Z" style="stroke:none;fill-rule:nonzero;fill:#000000;fill-opacity:1;"/>
        </g>
        <g id="Shape11">
            <desc shapeID="11" type="0" basicInfo-basicType="0" basicInfo-roundedRectRadius="12" basicInfo-polygonSides="6" basicInfo-starPoints="5" bounding="rect(-23.895,-29.6864,47.79,59.3728)" text="" font-familyName="" font-pixelSize="20" font-bold="0" font-underline="0" font-alignment="1" strokeStyle="0" markerStart="0" markerEnd="0" shadowEnabled="0" shadowOffsetX="0" shadowOffsetY="2" shadowBlur="4" shadowOpacity="160" blurEnabled="0" blurRadius="4" transform="matrix(1,0,0,1,54.6101,255.256)" pers-center="0,0" pers-size="0,0" pers-start="0,0" pers-end="0,0" locked="0" mesh="" flag=""/>
            <path id="shapePath11" d="M52.4804,243.806 C52.4954,245.831 50.8936,245.87 50.9118,244.391 C50.7775,236.963 44.4953,233.305 39.9312,234.173 C32.8951,235.51 30.6494,242.495 30.7165,246.608 C30.9237,259.304 43.7043,268.666 55.2367,284.943 C63.6868,270.252 77.6339,258.713 78.4596,247.357 C79.5573,232.259 60.4507,226.627 57.7227,244.224 C57.5467,245.467 56.083,246.025 56.1966,244.289 C56.6111,239.467 56.0217,237.458 61.4623,225.57 L47.2406,225.57 C50.3903,231.125 52.266,237.944 52.4804,243.805 L52.4804,243.806 Z" style="stroke:none;fill-rule:nonzero;fill:#000000;fill-opacity:1;"/>
        </g>
        <g id="Shape12">
            <desc shapeID="12" type="0" basicInfo-basicType="0" basicInfo-roundedRectRadius="12" basicInfo-polygonSides="6" basicInfo-starPoints="5" bounding="rect(-8.46004,-12.905,16.9201,25.81)" text="" font-familyName="" font-pixelSize="20" font-bold="0" font-underline="0" font-alignment="1" strokeStyle="0" markerStart="0" markerEnd="0" shadowEnabled="0" shadowOffsetX="0" shadowOffsetY="2" shadowBlur="4" shadowOpacity="160" blurEnabled="0" blurRadius="4" transform="matrix(1,0,0,1,18.2519,65.4102)" pers-center="0,0" pers-size="0,0" pers-start="0,0" pers-end="0,0" locked="0" mesh="" flag=""/>
            <path id="shapePath12" d="M17.8271,71.9661 C17.8371,71.0946 16.9318,71.5015 16.8093,71.7758 C15.6461,73.7614 13.9445,74.2235 12.2614,73.5077 C10.5941,72.7985 9.65723,71.2273 9.80753,68.9855 C10.1177,65.5477 12.8429,61.7859 14.1625,59.6593 C15.4145,57.7294 16.7904,55.4371 18.2392,52.5052 C19.9365,55.8684 20.7979,56.8257 22.6444,59.8967 C24.2704,62.6011 26.5369,65.2496 26.7119,68.519 C26.7119,71.0039 25.6659,73.3509 23.3125,73.7784 C21.9811,74.0203 20.7338,73.3369 19.8087,71.7416 C19.5269,71.335 18.9599,71.5469 18.9694,72.1035 C19.1346,74.1968 19.9248,76.0867 21.7989,78.3151 L14.9118,78.3151 C16.3219,76.7392 17.7605,74.6115 17.8271,71.9662 L17.8271,71.9661 Z" style="stroke:none;fill-rule:nonzero;fill:#000000;fill-opacity:1;"/>
        </g>
        <g id="Shape13">
            <desc shapeID="13" type="0" basicInfo-basicType="0" basicInfo-roundedRectRadius="12" basicInfo-polygonSides="6" basicInfo-starPoints="5" bounding="rect(-8.46001,-12.905,16.92,25.8099)" text="" font-familyName="" font-pixelSize="20" font-bold="0" font-underline="0" font-alignment="1" strokeStyle="0" markerStart="0" markerEnd="0" shadowEnabled="0" shadowOffsetX="0" shadowOffsetY="2" shadowBlur="4" shadowOpacity="160" blurEnabled="0" blurRadius="4" transform="matrix(1,0,0,1,207.067,251.268)" pers-center="0,0" pers-size="0,0" pers-start="0,0" pers-end="0,0" locked="0" mesh="" flag=""/>
            <path id="shapePath13" d="M206.642,244.712 C206.652,245.583 205.747,245.176 205.625,244.902 C204.461,242.916 202.76,242.454 201.077,243.17 C199.409,243.879 198.473,245.451 198.623,247.692 C198.933,251.13 201.658,254.892 202.978,257.019 C204.23,258.948 205.606,261.241 207.055,264.173 C208.752,260.809 209.613,259.852 211.46,256.781 C213.086,254.077 215.352,251.428 215.527,248.159 C215.527,245.674 214.481,243.327 212.128,242.899 C210.796,242.658 209.549,243.341 208.624,244.936 C208.342,245.343 207.775,245.131 207.785,244.574 C207.95,242.481 208.74,240.591 210.614,238.363 L203.727,238.363 C205.137,239.939 206.576,242.066 206.642,244.712 Z" style="stroke:none;fill-rule:nonzero;fill:#000000;fill-opacity:1;"/>
        </g>
    </g>
</svg>
