<?xml version="1.0"?>
<svg version="1.1" xmlns="http://www.w3.org/2000/svg" xmlns:xlink="http://www.w3.org/1999/xlink" width="223" height="312">
    <desc iVinci="yes" version="4.5" gridStep="20" showGrid="no" snapToGrid="no" codePlatform="0"/>
    <g id="Layer1" opacity="1">
        <g id="Shape1">
            <desc shapeID="1" type="0" basicInfo-basicType="0" basicInfo-roundedRectRadius="12" basicInfo-polygonSides="6" basicInfo-starPoints="5" bounding="rect(-111.614,-155.906,223.228,311.811)" text="" font-familyName="" font-pixelSize="20" font-bold="0" font-underline="0" font-alignment="1" strokeStyle="0" markerStart="0" markerEnd="0" shadowEnabled="0" shadowOffsetX="0" shadowOffsetY="2" shadowBlur="4" shadowOpacity="160" blurEnabled="0" blurRadius="4" transform="matrix(1,0,0,1,111.614,155.906)" pers-center="0,0" pers-size="0,0" pers-start="0,0" pers-end="0,0" locked="0" mesh="" flag=""/>
            <path id="shapePath1" d="M0,9.35434 C0,4.18808 4.49741,0 10.0453,0 L213.183,0 C218.731,0 223.228,4.18808 223.228,9.35434 L223.228,302.457 C223.228,307.623 218.731,311.811 213.183,311.811 L10.0453,311.811 C4.49741,311.811 0,307.623 0,302.457 L0,9.35434 Z" style="stroke:#000000;stroke-opacity:1;stroke-width:0.996733;stroke-linejoin:miter;stroke-miterlimit:2;stroke-linecap:butt;fill-rule:evenodd;fill:#ffffff;fill-opacity:1;"/>
        </g>
        <g id="Shape2">
            <desc shapeID="2" type="0" basicInfo-basicType="0" basicInfo-roundedRectRadius="12" basicInfo-polygonSides="6" basicInfo-starPoints="5" bounding="rect(-9.4663,-16.2423,18.9326,32.4846)" text="" font-familyName="" font-pixelSize="20" font-bold="0" font-underline="0" font-alignment="1" strokeStyle="0" markerStart="0" markerEnd="0" shadowEnabled="0" shadowOffsetX="0" shadowOffsetY="2" shadowBlur="4" shadowOpacity="160" blurEnabled="0" blurRadius="4" transform="matrix(1,0,0,1,17.4693,29.3685)" pers-center="0,0" pers-size="0,0" pers-start="0,0" pers-end="0,0" locked="0" mesh="" flag=""/>
            <path id="shapePath2" d="M8.22647,39.3506 L11.2531,38.4086 C12.3948,41.404 14.703,42.2874 17.1447,42.0976 C21.5268,41.7568 22.9811,36.9491 23.3098,32.6982 C21.6024,34.4723 19.0357,35.3738 16.8503,35.2859 C9.86792,34.9165 8.08078,29.4313 8.01572,23.6845 C7.82178,18.8382 9.86334,15.3289 13.3641,13.7211 C15.2163,12.9047 19.4587,12.9046 21.3235,13.8698 C25.6056,16.086 27.1903,19.9185 26.9029,29.0608 C26.9074,36.5845 25.2784,45.348 17.0654,45.5357 C12.3177,46.1799 8.71295,42.556 8.22647,39.3506 M20.1137,31.1069 C21.5385,30.2213 22.3427,29.3907 22.9814,28.1449 C23.5057,27.1222 23.683,26.5917 23.5336,24.4743 C23.1486,19.019 20.2343,15.9266 16.009,16.541 C13.6525,16.8836 12.3659,18.1794 11.6263,20.5889 C10.2608,25.0381 11.9919,30.2462 15.235,31.4458 C16.6977,31.9869 18.9496,31.8304 20.1137,31.1069 Z" style="stroke:none;fill-rule:nonzero;fill:#000000;fill-opacity:1;"/>
        </g>
        <g id="Shape3">
            <desc shapeID="3" type="0" basicInfo-basicType="0" basicInfo-roundedRectRadius="12" basicInfo-polygonSides="6" basicInfo-starPoints="5" bounding="rect(-9.4663,-16.2423,18.9326,32.4846)" text="" font-familyName="" font-pixelSize="20" font-bold="0" font-underline="0" font-alignment="1" strokeStyle="0" markerStart="0" markerEnd="0" shadowEnabled="0" shadowOffsetX="0" shadowOffsetY="2" shadowBlur="4" shadowOpacity="160" blurEnabled="0" blurRadius="4" transform="matrix(1,0,0,1,205.02,282.443)" pers-center="0,0" pers-size="0,0" pers-start="0,0" pers-end="0,0" locked="0" mesh="" flag=""/>
            <path id="shapePath3" d="M214.262,272.46 L211.236,273.402 C210.094,270.407 207.786,269.524 205.344,269.713 C200.962,270.054 199.508,274.862 199.179,279.113 C200.886,277.339 203.453,276.437 205.639,276.525 C212.621,276.894 214.408,282.38 214.473,288.126 C214.667,292.973 212.625,296.482 209.125,298.09 C207.273,298.906 203.03,298.906 201.165,297.941 C196.883,295.725 195.298,291.893 195.586,282.75 C195.581,275.227 197.21,266.463 205.423,266.275 C210.171,265.631 213.776,269.255 214.262,272.46 M202.375,280.704 C200.95,281.59 200.146,282.42 199.507,283.666 C198.983,284.689 198.806,285.219 198.955,287.337 C199.34,292.792 202.254,295.884 206.48,295.27 C208.836,294.927 210.123,293.632 210.862,291.222 C212.228,286.773 210.497,281.565 207.254,280.365 C205.791,279.824 203.539,279.981 202.375,280.704 Z" style="stroke:none;fill-rule:nonzero;fill:#000000;fill-opacity:1;"/>
        </g>
        <g id="Shape4">
            <desc shapeID="4" type="0" basicInfo-basicType="0" basicInfo-roundedRectRadius="12" basicInfo-polygonSides="6" basicInfo-starPoints="5" bounding="rect(-28.3268,-28.5706,56.6536,57.1411)" text="" font-familyName="" font-pixelSize="20" font-bold="0" font-underline="0" font-alignment="1" strokeStyle="0" markerStart="0" markerEnd="0" shadowEnabled="0" shadowOffsetX="0" shadowOffsetY="2" shadowBlur="4" shadowOpacity="160" blurEnabled="0" blurRadius="4" transform="matrix(1,0,0,1,162.385,122.753)" pers-center="0,0" pers-size="0,0" pers-start="0,0" pers-end="0,0" locked="0" mesh="" flag=""/>
            <path id="shapePath4" d="M155.034,151.323 C157.913,145.548 160.01,139.622 160.382,133.286 C160.724,130.954 159.308,130.915 159.094,132.557 C155.018,148.15 133.331,143.928 134.077,129.261 C134.682,117.366 146.496,114.807 152.659,118.696 C155.093,120.129 154.955,119.271 153.627,117.785 C144.472,107.573 150.017,94.4229 162.388,94.1822 C175.768,94.9756 179.24,109.052 171.033,117.331 C170.012,118.325 167.749,121.522 171.156,119.287 C179.442,113.399 190.943,119.73 190.708,128.808 C190.276,145.546 169.869,146.795 165.505,132.813 C165.085,131.263 163.876,130.485 164.21,133.118 C164.815,137.884 166.067,145.071 169.647,151.323 L155.034,151.323 Z" style="stroke:none;fill-rule:nonzero;fill:#000000;fill-opacity:1;"/>
        </g>
        <g id="Shape5">
            <desc shapeID="5" type="0" basicInfo-basicType="0" basicInfo-roundedRectRadius="12" basicInfo-polygonSides="6" basicInfo-starPoints="5" bounding="rect(-28.3268,-28.5706,56.6536,57.1411)" text="" font-familyName="" font-pixelSize="20" font-bold="0" font-underline="0" font-alignment="1" strokeStyle="0" markerStart="0" markerEnd="0" shadowEnabled="0" shadowOffsetX="0" shadowOffsetY="2" shadowBlur="4" shadowOpacity="160" blurEnabled="0" blurRadius="4" transform="matrix(1,0,0,1,111.565,149.906)" pers-center="0,0" pers-size="0,0" pers-start="0,0" pers-end="0,0" locked="0" mesh="" flag=""/>
            <path id="shapePath5" d="M104.214,178.476 C107.093,172.701 109.19,166.775 109.562,160.439 C109.904,158.107 108.487,158.068 108.274,159.71 C104.198,175.303 82.5112,171.081 83.2568,156.414 C83.8618,144.519 95.6763,141.96 101.839,145.849 C104.273,147.282 104.135,146.424 102.807,144.937 C93.6522,134.726 99.1969,121.576 111.568,121.335 C124.948,122.128 128.419,136.205 120.212,144.483 C119.192,145.478 116.929,148.675 120.335,146.44 C128.622,140.552 140.123,146.882 139.888,155.96 C139.455,172.699 119.049,173.948 114.685,159.966 C114.265,158.416 113.056,157.638 113.39,160.27 C113.995,165.037 115.246,172.224 118.827,178.476 L104.214,178.476 Z" style="stroke:none;fill-rule:nonzero;fill:#000000;fill-opacity:1;"/>
        </g>
        <g id="Shape6">
            <desc shapeID="6" type="0" basicInfo-basicType="0" basicInfo-roundedRectRadius="12" basicInfo-polygonSides="6" basicInfo-starPoints="5" bounding="rect(-28.3268,-28.5706,56.6536,57.1411)" text="" font-familyName="" font-pixelSize="20" font-bold="0" font-underline="0" font-alignment="1" strokeStyle="0" markerStart="0" markerEnd="0" shadowEnabled="0" shadowOffsetX="0" shadowOffsetY="2" shadowBlur="4" shadowOpacity="160" blurEnabled="0" blurRadius="4" transform="matrix(1,0,0,1,60.8522,122.753)" pers-center="0,0" pers-size="0,0" pers-start="0,0" pers-end="0,0" locked="0" mesh="" flag=""/>
            <path id="shapePath6" d="M53.5012,151.323 C56.3802,145.548 58.4771,139.622 58.8493,133.286 C59.1909,130.954 57.7747,130.915 57.5612,132.557 C53.4848,148.15 31.7985,143.928 32.5441,129.261 C33.1491,117.366 44.9636,114.807 51.1264,118.696 C53.56,120.129 53.4225,119.271 52.0943,117.785 C42.9395,107.573 48.4842,94.4229 60.8555,94.1822 C74.2351,94.9756 77.7067,109.052 69.4997,117.331 C68.4791,118.325 66.2162,121.522 69.6227,119.287 C77.9095,113.399 89.41,119.73 89.1754,128.808 C88.7427,145.546 68.3363,146.795 63.9722,132.813 C63.5524,131.263 62.3431,130.485 62.6772,133.118 C63.2821,137.884 64.5337,145.071 68.1146,151.323 L53.5012,151.323 Z" style="stroke:none;fill-rule:nonzero;fill:#000000;fill-opacity:1;"/>
        </g>
        <g id="Shape7">
            <desc shapeID="7" type="0" basicInfo-basicType="0" basicInfo-roundedRectRadius="12" basicInfo-polygonSides="6" basicInfo-starPoints="5" bounding="rect(-28.3268,-28.5706,56.6536,57.1411)" text="" font-familyName="" font-pixelSize="20" font-bold="0" font-underline="0" font-alignment="1" strokeStyle="0" markerStart="0" markerEnd="0" shadowEnabled="0" shadowOffsetX="0" shadowOffsetY="2" shadowBlur="4" shadowOpacity="160" blurEnabled="0" blurRadius="4" transform="matrix(1,0,0,1,162.385,57.4221)" pers-center="0,0" pers-size="0,0" pers-start="0,0" pers-end="0,0" locked="0" mesh="" flag=""/>
            <path id="shapePath7" d="M155.034,85.9927 C157.913,80.2172 160.01,74.2917 160.382,67.9554 C160.724,65.6237 159.308,65.5846 159.094,67.2268 C155.018,82.8196 133.331,78.5972 134.077,63.9303 C134.682,52.0355 146.496,49.4765 152.659,53.3658 C155.093,54.7986 154.955,53.9404 153.627,52.454 C144.472,42.2426 150.017,29.0923 162.388,28.8516 C175.768,29.645 179.24,43.7215 171.033,51.9999 C170.012,52.9945 167.749,56.1912 171.156,53.9562 C179.442,48.0682 190.943,54.399 190.708,63.4769 C190.276,80.2158 169.869,81.4642 165.505,67.4827 C165.085,65.9325 163.876,65.1541 164.21,67.787 C164.815,72.5536 166.067,79.7404 169.647,85.9927 L155.034,85.9927 Z" style="stroke:none;fill-rule:nonzero;fill:#000000;fill-opacity:1;"/>
        </g>
        <g id="Shape8">
            <desc shapeID="8" type="0" basicInfo-basicType="0" basicInfo-roundedRectRadius="12" basicInfo-polygonSides="6" basicInfo-starPoints="5" bounding="rect(-28.3268,-28.5706,56.6536,57.1411)" text="" font-familyName="" font-pixelSize="20" font-bold="0" font-underline="0" font-alignment="1" strokeStyle="0" markerStart="0" markerEnd="0" shadowEnabled="0" shadowOffsetX="0" shadowOffsetY="2" shadowBlur="4" shadowOpacity="160" blurEnabled="0" blurRadius="4" transform="matrix(1,0,0,1,60.8522,57.4221)" pers-center="0,0" pers-size="0,0" pers-start="0,0" pers-end="0,0" locked="0" mesh="" flag=""/>
            <path id="shapePath8" d="M53.5012,85.9927 C56.3802,80.2172 58.4771,74.2917 58.8493,67.9554 C59.1909,65.6237 57.7747,65.5846 57.5612,67.2268 C53.4848,82.8196 31.7985,78.5972 32.5441,63.9303 C33.1491,52.0355 44.9636,49.4765 51.1264,53.3658 C53.56,54.7986 53.4225,53.9404 52.0943,52.454 C42.9395,42.2426 48.4842,29.0923 60.8555,28.8516 C74.2351,29.645 77.7067,43.7215 69.4997,51.9999 C68.4791,52.9945 66.2162,56.1912 69.6227,53.9562 C77.9095,48.0682 89.41,54.399 89.1754,63.4769 C88.7427,80.2158 68.3363,81.4642 63.9722,67.4827 C63.5524,65.9325 62.3431,65.1541 62.6772,67.787 C63.2821,72.5536 64.5337,79.7404 68.1146,85.9927 L53.5012,85.9927 Z" style="stroke:none;fill-rule:nonzero;fill:#000000;fill-opacity:1;"/>
        </g>
        <g id="Shape9">
            <desc shapeID="9" type="0" basicInfo-basicType="0" basicInfo-roundedRectRadius="12" basicInfo-polygonSides="6" basicInfo-starPoints="5" bounding="rect(-28.3268,-28.5706,56.6536,57.1411)" text="" font-familyName="" font-pixelSize="20" font-bold="0" font-underline="0" font-alignment="1" strokeStyle="0" markerStart="0" markerEnd="0" shadowEnabled="0" shadowOffsetX="0" shadowOffsetY="2" shadowBlur="4" shadowOpacity="160" blurEnabled="0" blurRadius="4" transform="matrix(1,0,0,1,60.8523,254.755)" pers-center="0,0" pers-size="0,0" pers-start="0,0" pers-end="0,0" locked="0" mesh="" flag=""/>
            <path id="shapePath9" d="M68.2032,226.185 C65.3242,231.96 63.2273,237.885 62.8551,244.222 C62.5135,246.554 63.9297,246.593 64.1432,244.95 C68.2196,229.358 89.9059,233.58 89.1603,248.247 C88.5553,260.142 76.7408,262.701 70.578,258.811 C68.1444,257.379 68.2819,258.237 69.6101,259.723 C78.7649,269.935 73.2202,283.085 60.8489,283.326 C47.4693,282.532 43.9977,268.456 52.2047,260.177 C53.2253,259.183 55.4882,255.986 52.0817,258.221 C43.7949,264.109 32.2944,257.778 32.529,248.7 C32.9617,231.961 53.3681,230.713 57.7322,244.695 C58.152,246.245 59.3613,247.023 59.0272,244.39 C58.4223,239.624 57.1707,232.437 53.5898,226.185 L68.2032,226.185 Z" style="stroke:none;fill-rule:nonzero;fill:#000000;fill-opacity:1;"/>
        </g>
        <g id="Shape10">
            <desc shapeID="10" type="0" basicInfo-basicType="0" basicInfo-roundedRectRadius="12" basicInfo-polygonSides="6" basicInfo-starPoints="5" bounding="rect(-28.3268,-28.5706,56.6536,57.1411)" text="" font-familyName="" font-pixelSize="20" font-bold="0" font-underline="0" font-alignment="1" strokeStyle="0" markerStart="0" markerEnd="0" shadowEnabled="0" shadowOffsetX="0" shadowOffsetY="2" shadowBlur="4" shadowOpacity="160" blurEnabled="0" blurRadius="4" transform="matrix(1,0,0,1,162.385,254.755)" pers-center="0,0" pers-size="0,0" pers-start="0,0" pers-end="0,0" locked="0" mesh="" flag=""/>
            <path id="shapePath10" d="M169.736,226.185 C166.857,231.96 164.76,237.885 164.388,244.222 C164.046,246.554 165.463,246.593 165.676,244.95 C169.752,229.358 191.439,233.58 190.693,248.247 C190.088,260.142 178.274,262.701 172.111,258.811 C169.677,257.379 169.815,258.237 171.143,259.723 C180.298,269.935 174.753,283.085 162.382,283.326 C149.002,282.532 145.531,268.456 153.738,260.177 C154.758,259.183 157.021,255.986 153.615,258.221 C145.328,264.109 133.827,257.778 134.062,248.7 C134.495,231.961 154.901,230.713 159.265,244.695 C159.685,246.245 160.894,247.023 160.56,244.39 C159.955,239.624 158.704,232.437 155.123,226.185 L169.736,226.185 Z" style="stroke:none;fill-rule:nonzero;fill:#000000;fill-opacity:1;"/>
        </g>
        <g id="Shape11">
            <desc shapeID="11" type="0" basicInfo-basicType="0" basicInfo-roundedRectRadius="12" basicInfo-polygonSides="6" basicInfo-starPoints="5" bounding="rect(-28.3268,-28.5706,56.6536,57.1411)" text="" font-familyName="" font-pixelSize="20" font-bold="0" font-underline="0" font-alignment="1" strokeStyle="0" markerStart="0" markerEnd="0" shadowEnabled="0" shadowOffsetX="0" shadowOffsetY="2" shadowBlur="4" shadowOpacity="160" blurEnabled="0" blurRadius="4" transform="matrix(1,0,0,1,162.385,189.65)" pers-center="0,0" pers-size="0,0" pers-start="0,0" pers-end="0,0" locked="0" mesh="" flag=""/>
            <path id="shapePath11" d="M169.736,161.079 C166.857,166.855 164.76,172.78 164.388,179.116 C164.046,181.448 165.463,181.487 165.676,179.845 C169.752,164.252 191.439,168.475 190.693,183.142 C190.088,195.036 178.274,197.595 172.111,193.706 C169.677,192.273 169.815,193.131 171.143,194.618 C180.298,204.829 174.753,217.98 162.382,218.22 C149.002,217.427 145.531,203.35 153.738,195.072 C154.758,194.077 157.021,190.881 153.615,193.116 C145.328,199.004 133.827,192.673 134.062,183.595 C134.495,166.856 154.901,165.608 159.265,179.589 C159.685,181.139 160.894,181.918 160.56,179.285 C159.955,174.518 158.704,167.331 155.123,161.079 L169.736,161.079 Z" style="stroke:none;fill-rule:nonzero;fill:#000000;fill-opacity:1;"/>
        </g>
        <g id="Shape12">
            <desc shapeID="12" type="0" basicInfo-basicType="0" basicInfo-roundedRectRadius="12" basicInfo-polygonSides="6" basicInfo-starPoints="5" bounding="rect(-28.3268,-28.5706,56.6536,57.1411)" text="" font-familyName="" font-pixelSize="20" font-bold="0" font-underline="0" font-alignment="1" strokeStyle="0" markerStart="0" markerEnd="0" shadowEnabled="0" shadowOffsetX="0" shadowOffsetY="2" shadowBlur="4" shadowOpacity="160" blurEnabled="0" blurRadius="4" transform="matrix(1,0,0,1,60.8523,189.65)" pers-center="0,0" pers-size="0,0" pers-start="0,0" pers-end="0,0" locked="0" mesh="" flag=""/>
            <path id="shapePath12" d="M68.2032,161.079 C65.3242,166.855 63.2273,172.78 62.8551,179.116 C62.5135,181.448 63.9297,181.487 64.1432,179.845 C68.2196,164.252 89.9059,168.475 89.1603,183.142 C88.5553,195.036 76.7408,197.595 70.578,193.706 C68.1444,192.273 68.2819,193.131 69.6101,194.618 C78.7649,204.829 73.2202,217.98 60.8489,218.22 C47.4693,217.427 43.9977,203.35 52.2047,195.072 C53.2253,194.077 55.4882,190.881 52.0817,193.116 C43.7949,199.004 32.2944,192.673 32.529,183.595 C32.9617,166.856 53.3681,165.608 57.7322,179.589 C58.152,181.139 59.3613,181.918 59.0272,179.285 C58.4223,174.518 57.1707,167.331 53.5898,161.079 L68.2032,161.079 Z" style="stroke:none;fill-rule:nonzero;fill:#000000;fill-opacity:1;"/>
        </g>
        <g id="Shape13">
            <desc shapeID="13" type="0" basicInfo-basicType="0" basicInfo-roundedRectRadius="12" basicInfo-polygonSides="6" basicInfo-starPoints="5" bounding="rect(-11.544,-11.9271,23.0879,23.8543)" text="" font-familyName="" font-pixelSize="20" font-bold="0" font-underline="0" font-alignment="1" strokeStyle="0" markerStart="0" markerEnd="0" shadowEnabled="0" shadowOffsetX="0" shadowOffsetY="2" shadowBlur="4" shadowOpacity="160" blurEnabled="0" blurRadius="4" transform="matrix(1,0,0,1,17.2066,60.825)" pers-center="0,0" pers-size="0,0" pers-start="0,0" pers-end="0,0" locked="0" mesh="" flag=""/>
            <path id="shapePath13" d="M13.1619,72.7522 C14.354,70.3071 15.5141,68.0314 16.1462,65.3513 C16.5654,62.8238 15.7079,63.7628 15.221,65.4196 C14.4998,67.7169 12.4984,68.7633 10.641,68.7884 C7.26993,68.8339 5.58835,66.1842 5.69315,63.3345 C5.32504,60.3359 8.36414,58.2144 10.6548,58.3778 C12.3771,58.5007 13.8788,59.4298 14.7877,60.1529 C15.384,60.4682 16.0217,60.6075 15.1326,59.7944 C13.455,57.9615 12.056,56.8303 12.0866,54.0836 C12.1156,51.5049 14.3201,48.8155 17.242,48.8998 C20.8935,49.0053 22.554,51.7899 22.5453,54.3804 C22.5353,56.2687 21.5917,58.0067 20.1339,59.083 C19.1897,59.8491 19.4545,60.4229 20.5316,59.6979 C21.5665,58.8058 22.7987,58.4153 24.0764,58.3879 C27.5669,58.3332 28.9314,61.3494 28.7315,64.1521 C28.5441,66.7778 26.3087,69.4805 23.3625,69.1744 C20.7318,68.8729 19.3495,66.6645 18.5574,64.3975 C18.2951,63.7025 17.8814,63.5147 17.8929,64.5506 C18.5006,69.608 20.3845,72.755 20.3982,72.7522 L13.1619,72.7522 Z" style="stroke:none;fill-rule:nonzero;fill:#000000;fill-opacity:1;"/>
        </g>
        <g id="Shape14">
            <desc shapeID="14" type="0" basicInfo-basicType="0" basicInfo-roundedRectRadius="12" basicInfo-polygonSides="6" basicInfo-starPoints="5" bounding="rect(-11.544,-11.9271,23.0879,23.8543)" text="" font-familyName="" font-pixelSize="20" font-bold="0" font-underline="0" font-alignment="1" strokeStyle="0" markerStart="0" markerEnd="0" shadowEnabled="0" shadowOffsetX="0" shadowOffsetY="2" shadowBlur="4" shadowOpacity="160" blurEnabled="0" blurRadius="4" transform="matrix(1,0,0,1,206.022,249.352)" pers-center="0,0" pers-size="0,0" pers-start="0,0" pers-end="0,0" locked="0" mesh="" flag=""/>
            <path id="shapePath14" d="M210.066,237.425 C208.874,239.87 207.714,242.146 207.082,244.826 C206.663,247.354 207.52,246.415 208.007,244.758 C208.729,242.46 210.73,241.414 212.587,241.389 C215.958,241.343 217.64,243.993 217.535,246.843 C217.903,249.841 214.864,251.963 212.574,251.8 C210.851,251.677 209.35,250.748 208.441,250.024 C207.844,249.709 207.207,249.57 208.096,250.383 C209.773,252.216 211.172,253.347 211.142,256.094 C211.113,258.672 208.908,261.362 205.986,261.278 C202.335,261.172 200.674,258.387 200.683,255.797 C200.693,253.909 201.637,252.171 203.094,251.094 C204.039,250.328 203.774,249.755 202.697,250.479 C201.662,251.372 200.43,251.762 199.152,251.789 C195.661,251.844 194.297,248.828 194.497,246.025 C194.684,243.4 196.92,240.697 199.866,241.003 C202.497,241.304 203.879,243.513 204.671,245.78 C204.933,246.475 205.347,246.663 205.335,245.627 C204.728,240.569 202.844,237.422 202.83,237.425 L210.066,237.425 Z" style="stroke:none;fill-rule:nonzero;fill:#000000;fill-opacity:1;"/>
        </g>
    </g>
</svg>
