<?xml version="1.0"?>
<svg version="1.1" xmlns="http://www.w3.org/2000/svg" xmlns:xlink="http://www.w3.org/1999/xlink" width="223" height="312">
    <desc iVinci="yes" version="4.5" gridStep="20" showGrid="no" snapToGrid="no" codePlatform="0"/>
    <g id="Layer1" opacity="1">
        <g id="Shape1">
            <desc shapeID="1" type="0" basicInfo-basicType="0" basicInfo-roundedRectRadius="12" basicInfo-polygonSides="6" basicInfo-starPoints="5" bounding="rect(-111.614,-155.906,223.228,311.811)" text="" font-familyName="" font-pixelSize="20" font-bold="0" font-underline="0" font-alignment="1" strokeStyle="0" markerStart="0" markerEnd="0" shadowEnabled="0" shadowOffsetX="0" shadowOffsetY="2" shadowBlur="4" shadowOpacity="160" blurEnabled="0" blurRadius="4" transform="matrix(1,0,0,1,111.614,155.906)" pers-center="0,0" pers-size="0,0" pers-start="0,0" pers-end="0,0" locked="0" mesh="" flag=""/>
            <path id="shapePath1" d="M0,9.35431 C0,4.18805 4.49741,-3.05176e-05 10.0453,-3.05176e-05 L213.183,-3.05176e-05 C218.731,-3.05176e-05 223.228,4.18805 223.228,9.35431 L223.228,302.457 C223.228,307.623 218.731,311.811 213.183,311.811 L10.0453,311.811 C4.49741,311.811 0,307.623 0,302.457 L0,9.35431 Z" style="stroke:#000000;stroke-opacity:1;stroke-width:0.996733;stroke-linejoin:miter;stroke-miterlimit:2;stroke-linecap:butt;fill-rule:evenodd;fill:#ffffff;fill-opacity:1;"/>
        </g>
        <g id="Shape2">
            <desc shapeID="2" type="0" basicInfo-basicType="0" basicInfo-roundedRectRadius="12" basicInfo-polygonSides="6" basicInfo-starPoints="5" bounding="rect(-22.2267,-30.1534,44.4533,60.3067)" text="" font-familyName="" font-pixelSize="20" font-bold="0" font-underline="0" font-alignment="1" strokeStyle="0" markerStart="0" markerEnd="0" shadowEnabled="0" shadowOffsetX="0" shadowOffsetY="2" shadowBlur="4" shadowOpacity="160" blurEnabled="0" blurRadius="4" transform="matrix(1,0,0,1,54.9015,57.4221)" pers-center="0,0" pers-size="0,0" pers-start="0,0" pers-end="0,0" locked="0" mesh="" flag=""/>
            <path id="shapePath2" d="M32.6748,57.6577 C42.5955,47.9762 49.1109,37.4203 55.3419,27.2687 C60.8063,38.4388 68.6479,48.211 77.1281,57.6577 C68.0549,67.0262 61.023,77.044 55.369,87.5754 C49.1014,76.7798 42.503,67.0038 32.6748,57.6577 Z" style="stroke:none;fill-rule:nonzero;fill:#d40000;fill-opacity:1;"/>
        </g>
        <g id="Shape3">
            <desc shapeID="3" type="0" basicInfo-basicType="0" basicInfo-roundedRectRadius="12" basicInfo-polygonSides="6" basicInfo-starPoints="5" bounding="rect(-22.2267,-30.1534,44.4533,60.3067)" text="" font-familyName="" font-pixelSize="20" font-bold="0" font-underline="0" font-alignment="1" strokeStyle="0" markerStart="0" markerEnd="0" shadowEnabled="0" shadowOffsetX="0" shadowOffsetY="2" shadowBlur="4" shadowOpacity="160" blurEnabled="0" blurRadius="4" transform="matrix(1,0,0,1,54.9015,122.753)" pers-center="0,0" pers-size="0,0" pers-start="0,0" pers-end="0,0" locked="0" mesh="" flag=""/>
            <path id="shapePath3" d="M32.6748,122.988 C42.5955,113.307 49.1109,102.751 55.3419,92.5993 C60.8063,103.769 68.6479,113.542 77.1281,122.988 C68.0549,132.357 61.023,142.375 55.369,152.906 C49.1014,142.11 42.503,132.334 32.6748,122.988 Z" style="stroke:none;fill-rule:nonzero;fill:#d40000;fill-opacity:1;"/>
        </g>
        <g id="Shape4">
            <desc shapeID="4" type="0" basicInfo-basicType="0" basicInfo-roundedRectRadius="12" basicInfo-polygonSides="6" basicInfo-starPoints="5" bounding="rect(-22.2267,-30.1533,44.4533,60.3067)" text="" font-familyName="" font-pixelSize="20" font-bold="0" font-underline="0" font-alignment="1" strokeStyle="0" markerStart="0" markerEnd="0" shadowEnabled="0" shadowOffsetX="0" shadowOffsetY="2" shadowBlur="4" shadowOpacity="160" blurEnabled="0" blurRadius="4" transform="matrix(1,0,0,1,54.9015,189.65)" pers-center="0,0" pers-size="0,0" pers-start="0,0" pers-end="0,0" locked="0" mesh="" flag=""/>
            <path id="shapePath4" d="M32.6748,189.885 C42.5955,180.204 49.1109,169.648 55.3419,159.496 C60.8063,170.666 68.6479,180.439 77.1281,189.885 C68.0549,199.254 61.023,209.271 55.3691,219.803 C49.1015,209.007 42.5031,199.231 32.6748,189.885 Z" style="stroke:none;fill-rule:nonzero;fill:#d40000;fill-opacity:1;"/>
        </g>
        <g id="Shape5">
            <desc shapeID="5" type="0" basicInfo-basicType="0" basicInfo-roundedRectRadius="12" basicInfo-polygonSides="6" basicInfo-starPoints="5" bounding="rect(-22.2267,-30.1533,44.4533,60.3067)" text="" font-familyName="" font-pixelSize="20" font-bold="0" font-underline="0" font-alignment="1" strokeStyle="0" markerStart="0" markerEnd="0" shadowEnabled="0" shadowOffsetX="0" shadowOffsetY="2" shadowBlur="4" shadowOpacity="160" blurEnabled="0" blurRadius="4" transform="matrix(1,0,0,1,54.9015,254.755)" pers-center="0,0" pers-size="0,0" pers-start="0,0" pers-end="0,0" locked="0" mesh="" flag=""/>
            <path id="shapePath5" d="M32.6748,254.991 C42.5955,245.309 49.1109,234.753 55.3419,224.602 C60.8063,235.772 68.6479,245.544 77.1281,254.991 C68.0549,264.359 61.023,274.377 55.3691,284.908 C49.1015,274.113 42.5031,264.337 32.6748,254.991 Z" style="stroke:none;fill-rule:nonzero;fill:#d40000;fill-opacity:1;"/>
        </g>
        <g id="Shape6">
            <desc shapeID="6" type="0" basicInfo-basicType="0" basicInfo-roundedRectRadius="12" basicInfo-polygonSides="6" basicInfo-starPoints="5" bounding="rect(-22.2267,-30.1534,44.4533,60.3067)" text="" font-familyName="" font-pixelSize="20" font-bold="0" font-underline="0" font-alignment="1" strokeStyle="0" markerStart="0" markerEnd="0" shadowEnabled="0" shadowOffsetX="0" shadowOffsetY="2" shadowBlur="4" shadowOpacity="160" blurEnabled="0" blurRadius="4" transform="matrix(1,0,0,1,111.346,155.89)" pers-center="0,0" pers-size="0,0" pers-start="0,0" pers-end="0,0" locked="0" mesh="" flag=""/>
            <path id="shapePath6" d="M89.1192,156.126 C99.0399,146.444 105.555,135.888 111.786,125.737 C117.251,136.907 125.092,146.679 133.573,156.126 C124.499,165.494 117.467,175.512 111.813,186.043 C105.546,175.248 98.9474,165.472 89.1192,156.126 Z" style="stroke:none;fill-rule:nonzero;fill:#d40000;fill-opacity:1;"/>
        </g>
        <g id="Shape7">
            <desc shapeID="7" type="0" basicInfo-basicType="0" basicInfo-roundedRectRadius="12" basicInfo-polygonSides="6" basicInfo-starPoints="5" bounding="rect(-22.2267,-30.1534,44.4533,60.3067)" text="" font-familyName="" font-pixelSize="20" font-bold="0" font-underline="0" font-alignment="1" strokeStyle="0" markerStart="0" markerEnd="0" shadowEnabled="0" shadowOffsetX="0" shadowOffsetY="2" shadowBlur="4" shadowOpacity="160" blurEnabled="0" blurRadius="4" transform="matrix(1,0,0,1,166.434,57.4221)" pers-center="0,0" pers-size="0,0" pers-start="0,0" pers-end="0,0" locked="0" mesh="" flag=""/>
            <path id="shapePath7" d="M144.208,57.6577 C154.128,47.9762 160.644,37.4203 166.875,27.2687 C172.339,38.4388 180.181,48.211 188.661,57.6577 C179.588,67.0262 172.556,77.044 166.902,87.5754 C160.634,76.7798 154.036,67.0038 144.208,57.6577 Z" style="stroke:none;fill-rule:nonzero;fill:#d40000;fill-opacity:1;"/>
        </g>
        <g id="Shape8">
            <desc shapeID="8" type="0" basicInfo-basicType="0" basicInfo-roundedRectRadius="12" basicInfo-polygonSides="6" basicInfo-starPoints="5" bounding="rect(-22.2267,-30.1534,44.4533,60.3067)" text="" font-familyName="" font-pixelSize="20" font-bold="0" font-underline="0" font-alignment="1" strokeStyle="0" markerStart="0" markerEnd="0" shadowEnabled="0" shadowOffsetX="0" shadowOffsetY="2" shadowBlur="4" shadowOpacity="160" blurEnabled="0" blurRadius="4" transform="matrix(1,0,0,1,166.434,122.753)" pers-center="0,0" pers-size="0,0" pers-start="0,0" pers-end="0,0" locked="0" mesh="" flag=""/>
            <path id="shapePath8" d="M144.208,122.988 C154.128,113.307 160.644,102.751 166.875,92.5993 C172.339,103.769 180.181,113.542 188.661,122.988 C179.588,132.357 172.556,142.375 166.902,152.906 C160.634,142.11 154.036,132.334 144.208,122.988 Z" style="stroke:none;fill-rule:nonzero;fill:#d40000;fill-opacity:1;"/>
        </g>
        <g id="Shape9">
            <desc shapeID="9" type="0" basicInfo-basicType="0" basicInfo-roundedRectRadius="12" basicInfo-polygonSides="6" basicInfo-starPoints="5" bounding="rect(-22.2267,-30.1533,44.4533,60.3067)" text="" font-familyName="" font-pixelSize="20" font-bold="0" font-underline="0" font-alignment="1" strokeStyle="0" markerStart="0" markerEnd="0" shadowEnabled="0" shadowOffsetX="0" shadowOffsetY="2" shadowBlur="4" shadowOpacity="160" blurEnabled="0" blurRadius="4" transform="matrix(1,0,0,1,166.434,189.65)" pers-center="0,0" pers-size="0,0" pers-start="0,0" pers-end="0,0" locked="0" mesh="" flag=""/>
            <path id="shapePath9" d="M144.208,189.885 C154.128,180.204 160.644,169.648 166.875,159.496 C172.339,170.666 180.181,180.439 188.661,189.885 C179.588,199.254 172.556,209.271 166.902,219.803 C160.634,209.007 154.036,199.231 144.208,189.885 Z" style="stroke:none;fill-rule:nonzero;fill:#d40000;fill-opacity:1;"/>
        </g>
        <g id="Shape10">
            <desc shapeID="10" type="0" basicInfo-basicType="0" basicInfo-roundedRectRadius="12" basicInfo-polygonSides="6" basicInfo-starPoints="5" bounding="rect(-22.2267,-30.1533,44.4533,60.3067)" text="" font-familyName="" font-pixelSize="20" font-bold="0" font-underline="0" font-alignment="1" strokeStyle="0" markerStart="0" markerEnd="0" shadowEnabled="0" shadowOffsetX="0" shadowOffsetY="2" shadowBlur="4" shadowOpacity="160" blurEnabled="0" blurRadius="4" transform="matrix(1,0,0,1,166.434,254.755)" pers-center="0,0" pers-size="0,0" pers-start="0,0" pers-end="0,0" locked="0" mesh="" flag=""/>
            <path id="shapePath10" d="M144.208,254.991 C154.128,245.309 160.644,234.753 166.875,224.602 C172.339,235.772 180.181,245.544 188.661,254.991 C179.588,264.359 172.556,274.377 166.902,284.908 C160.634,274.113 154.036,264.337 144.208,254.991 Z" style="stroke:none;fill-rule:nonzero;fill:#d40000;fill-opacity:1;"/>
        </g>
        <g id="Shape11">
            <desc shapeID="11" type="0" basicInfo-basicType="0" basicInfo-roundedRectRadius="12" basicInfo-polygonSides="6" basicInfo-starPoints="5" bounding="rect(-9.10501,-12.3521,18.21,24.7042)" text="" font-familyName="" font-pixelSize="20" font-bold="0" font-underline="0" font-alignment="1" strokeStyle="0" markerStart="0" markerEnd="0" shadowEnabled="0" shadowOffsetX="0" shadowOffsetY="2" shadowBlur="4" shadowOpacity="160" blurEnabled="0" blurRadius="4" transform="matrix(1,0,0,1,206.071,246.683)" pers-center="0,0" pers-size="0,0" pers-start="0,0" pers-end="0,0" locked="0" mesh="" flag=""/>
            <path id="shapePath11" d="M196.966,246.779 C201.03,242.813 203.699,238.489 206.252,234.331 C208.49,238.906 211.702,242.909 215.176,246.779 C211.459,250.617 208.579,254.721 206.263,259.035 C203.695,254.612 200.992,250.608 196.966,246.779 Z" style="stroke:none;fill-rule:nonzero;fill:#d40000;fill-opacity:1;"/>
        </g>
        <g id="Shape12">
            <desc shapeID="12" type="0" basicInfo-basicType="0" basicInfo-roundedRectRadius="12" basicInfo-polygonSides="6" basicInfo-starPoints="5" bounding="rect(-9.10498,-12.3521,18.21,24.7042)" text="" font-familyName="" font-pixelSize="20" font-bold="0" font-underline="0" font-alignment="1" strokeStyle="0" markerStart="0" markerEnd="0" shadowEnabled="0" shadowOffsetX="0" shadowOffsetY="2" shadowBlur="4" shadowOpacity="160" blurEnabled="0" blurRadius="4" transform="matrix(1,0,0,1,17.2559,60.825)" pers-center="0,0" pers-size="0,0" pers-start="0,0" pers-end="0,0" locked="0" mesh="" flag=""/>
            <path id="shapePath12" d="M8.15091,60.9215 C12.2148,56.9556 14.8838,52.6314 17.4363,48.4729 C19.6747,53.0486 22.887,57.0518 26.3609,60.9215 C22.6441,64.7593 19.7635,68.863 17.4474,73.1771 C14.8799,68.7547 12.1769,64.7501 8.15091,60.9215 Z" style="stroke:none;fill-rule:nonzero;fill:#d40000;fill-opacity:1;"/>
        </g>
        <g id="Shape13">
            <desc shapeID="13" type="0" basicInfo-basicType="0" basicInfo-roundedRectRadius="12" basicInfo-polygonSides="6" basicInfo-starPoints="5" bounding="rect(-9.4663,-16.2423,18.9326,32.4846)" text="" font-familyName="" font-pixelSize="20" font-bold="0" font-underline="0" font-alignment="1" strokeStyle="0" markerStart="0" markerEnd="0" shadowEnabled="0" shadowOffsetX="0" shadowOffsetY="2" shadowBlur="4" shadowOpacity="160" blurEnabled="0" blurRadius="4" transform="matrix(1,0,0,1,17.5186,29.3685)" pers-center="0,0" pers-size="0,0" pers-start="0,0" pers-end="0,0" locked="0" mesh="" flag=""/>
            <path id="shapePath13" d="M8.27573,39.3506 L11.3024,38.4086 C12.4441,41.404 14.7523,42.2874 17.1939,42.0976 C21.576,41.7568 23.0304,36.949 23.3591,32.6981 C21.6516,34.4723 19.085,35.3737 16.8995,35.2858 C9.91718,34.9165 8.13004,29.4313 8.06497,23.6845 C7.87103,18.8382 9.9126,15.3288 13.4134,13.7211 C15.2655,12.9047 19.508,12.9046 21.3728,13.8697 C25.6549,16.086 27.2396,19.9185 26.9521,29.0607 C26.9567,36.5845 25.3276,45.348 17.1147,45.5357 C12.367,46.1799 8.76221,42.5559 8.27573,39.3506 M20.163,31.1069 C21.5878,30.2213 22.3919,29.3907 23.0306,28.1448 C23.5549,27.1222 23.7323,26.5916 23.5829,24.4743 C23.1979,19.019 20.2836,15.9266 16.0583,16.541 C13.7017,16.8836 12.4151,18.1794 11.6756,20.5889 C10.31,25.0381 12.0411,30.2462 15.2842,31.4458 C16.747,31.9868 18.9989,31.8304 20.163,31.1069 Z" style="stroke:none;fill-rule:nonzero;fill:#d40000;fill-opacity:1;"/>
        </g>
        <g id="Shape14">
            <desc shapeID="14" type="0" basicInfo-basicType="0" basicInfo-roundedRectRadius="12" basicInfo-polygonSides="6" basicInfo-starPoints="5" bounding="rect(-9.4663,-16.2423,18.9326,32.4846)" text="" font-familyName="" font-pixelSize="20" font-bold="0" font-underline="0" font-alignment="1" strokeStyle="0" markerStart="0" markerEnd="0" shadowEnabled="0" shadowOffsetX="0" shadowOffsetY="2" shadowBlur="4" shadowOpacity="160" blurEnabled="0" blurRadius="4" transform="matrix(1,0,0,1,205.069,282.442)" pers-center="0,0" pers-size="0,0" pers-start="0,0" pers-end="0,0" locked="0" mesh="" flag=""/>
            <path id="shapePath14" d="M214.312,272.46 L211.285,273.402 C210.143,270.407 207.835,269.524 205.393,269.713 C201.011,270.054 199.557,274.862 199.228,279.113 C200.936,277.339 203.502,276.437 205.688,276.525 C212.67,276.894 214.457,282.38 214.522,288.126 C214.716,292.973 212.675,296.482 209.174,298.09 C207.322,298.906 203.079,298.906 201.215,297.941 C196.932,295.725 195.348,291.893 195.635,282.75 C195.631,275.226 197.26,266.463 205.473,266.275 C210.22,265.631 213.825,269.255 214.312,272.46 M202.424,280.704 C201,281.59 200.195,282.42 199.557,283.666 C199.032,284.689 198.855,285.219 199.004,287.337 C199.389,292.792 202.304,295.884 206.529,295.27 C208.886,294.927 210.172,293.632 210.912,291.222 C212.277,286.773 210.546,281.565 207.303,280.365 C205.84,279.824 203.588,279.981 202.424,280.704 Z" style="stroke:none;fill-rule:nonzero;fill:#d40000;fill-opacity:1;"/>
        </g>
    </g>
</svg>
