<?xml version="1.0"?>
<svg version="1.1" xmlns="http://www.w3.org/2000/svg" xmlns:xlink="http://www.w3.org/1999/xlink" width="223" height="312">
    <desc iVinci="yes" version="4.5" gridStep="20" showGrid="no" snapToGrid="no" codePlatform="0"/>
    <g id="Layer1" opacity="1">
        <g id="Shape1">
            <desc shapeID="1" type="0" basicInfo-basicType="0" basicInfo-roundedRectRadius="12" basicInfo-polygonSides="6" basicInfo-starPoints="5" bounding="rect(-111.614,-155.906,223.228,311.811)" text="" font-familyName="" font-pixelSize="20" font-bold="0" font-underline="0" font-alignment="1" strokeStyle="0" markerStart="0" markerEnd="0" shadowEnabled="0" shadowOffsetX="0" shadowOffsetY="2" shadowBlur="4" shadowOpacity="160" blurEnabled="0" blurRadius="4" transform="matrix(1,0,0,1,111.614,155.906)" pers-center="0,0" pers-size="0,0" pers-start="0,0" pers-end="0,0" locked="0" mesh="" flag=""/>
            <path id="shapePath1" d="M0,9.35434 C0,4.18808 4.49741,0 10.0453,0 L213.183,0 C218.731,0 223.228,4.18808 223.228,9.35434 L223.228,302.457 C223.228,307.623 218.731,311.811 213.183,311.811 L10.0453,311.811 C4.49741,311.811 0,307.623 0,302.457 L0,9.35434 Z" style="stroke:#000000;stroke-opacity:1;stroke-width:0.996733;stroke-linejoin:miter;stroke-miterlimit:2;stroke-linecap:butt;fill-rule:evenodd;fill:#ffffff;fill-opacity:1;"/>
        </g>
        <g id="Shape2">
            <desc shapeID="2" type="0" basicInfo-basicType="0" basicInfo-roundedRectRadius="12" basicInfo-polygonSides="6" basicInfo-starPoints="5" bounding="rect(-9.4663,-16.2423,18.9326,32.4846)" text="" font-familyName="" font-pixelSize="20" font-bold="0" font-underline="0" font-alignment="1" strokeStyle="0" markerStart="0" markerEnd="0" shadowEnabled="0" shadowOffsetX="0" shadowOffsetY="2" shadowBlur="4" shadowOpacity="160" blurEnabled="0" blurRadius="4" transform="matrix(1,0,0,1,17.5186,29.3685)" pers-center="0,0" pers-size="0,0" pers-start="0,0" pers-end="0,0" locked="0" mesh="" flag=""/>
            <path id="shapePath2" d="M8.27573,39.3506 L11.3024,38.4086 C12.4441,41.404 14.7523,42.2874 17.1939,42.0976 C21.576,41.7568 23.0304,36.9491 23.3591,32.6982 C21.6516,34.4723 19.085,35.3738 16.8995,35.2859 C9.91718,34.9165 8.13004,29.4313 8.06497,23.6845 C7.87103,18.8382 9.9126,15.3289 13.4134,13.7211 C15.2655,12.9047 19.508,12.9046 21.3728,13.8698 C25.6549,16.086 27.2396,19.9185 26.9521,29.0608 C26.9567,36.5845 25.3276,45.348 17.1147,45.5357 C12.367,46.1799 8.76221,42.556 8.27573,39.3506 M20.163,31.1069 C21.5878,30.2213 22.3919,29.3907 23.0306,28.1449 C23.5549,27.1222 23.7323,26.5917 23.5829,24.4743 C23.1979,19.019 20.2836,15.9266 16.0583,16.541 C13.7017,16.8836 12.4151,18.1794 11.6756,20.5889 C10.31,25.0381 12.0411,30.2462 15.2842,31.4458 C16.747,31.9869 18.9989,31.8304 20.163,31.1069 Z" style="stroke:none;fill-rule:nonzero;fill:#d40000;fill-opacity:1;"/>
        </g>
        <g id="Shape3">
            <desc shapeID="3" type="0" basicInfo-basicType="0" basicInfo-roundedRectRadius="12" basicInfo-polygonSides="6" basicInfo-starPoints="5" bounding="rect(-9.4663,-16.2423,18.9326,32.4846)" text="" font-familyName="" font-pixelSize="20" font-bold="0" font-underline="0" font-alignment="1" strokeStyle="0" markerStart="0" markerEnd="0" shadowEnabled="0" shadowOffsetX="0" shadowOffsetY="2" shadowBlur="4" shadowOpacity="160" blurEnabled="0" blurRadius="4" transform="matrix(1,0,0,1,205.069,282.443)" pers-center="0,0" pers-size="0,0" pers-start="0,0" pers-end="0,0" locked="0" mesh="" flag=""/>
            <path id="shapePath3" d="M214.312,272.46 L211.285,273.402 C210.143,270.407 207.835,269.524 205.393,269.713 C201.011,270.054 199.557,274.862 199.228,279.113 C200.936,277.339 203.502,276.437 205.688,276.525 C212.67,276.894 214.457,282.38 214.522,288.126 C214.716,292.973 212.675,296.482 209.174,298.09 C207.322,298.906 203.079,298.906 201.215,297.941 C196.932,295.725 195.348,291.893 195.635,282.75 C195.631,275.227 197.26,266.463 205.473,266.275 C210.22,265.631 213.825,269.255 214.312,272.46 M202.424,280.704 C201,281.59 200.195,282.42 199.557,283.666 C199.032,284.689 198.855,285.219 199.004,287.337 C199.389,292.792 202.304,295.884 206.529,295.27 C208.886,294.927 210.172,293.632 210.912,291.222 C212.277,286.773 210.546,281.565 207.303,280.365 C205.84,279.824 203.588,279.981 202.424,280.704 Z" style="stroke:none;fill-rule:nonzero;fill:#d40000;fill-opacity:1;"/>
        </g>
        <g id="Shape4">
            <desc shapeID="4" type="0" basicInfo-basicType="0" basicInfo-roundedRectRadius="12" basicInfo-polygonSides="6" basicInfo-starPoints="5" bounding="rect(-9.675,-12.8329,19.35,25.6659)" text="" font-familyName="" font-pixelSize="20" font-bold="0" font-underline="0" font-alignment="1" strokeStyle="0" markerStart="0" markerEnd="0" shadowEnabled="0" shadowOffsetX="0" shadowOffsetY="2" shadowBlur="4" shadowOpacity="160" blurEnabled="0" blurRadius="4" transform="matrix(1,0,0,1,17.2559,60.825)" pers-center="0,0" pers-size="0,0" pers-start="0,0" pers-end="0,0" locked="0" mesh="" flag=""/>
            <path id="shapePath4" d="M8.5834,58.325 C7.0004,54.8527 6.82669,48.9196 11.5545,48.117 C15.1166,47.6585 16.5662,49.3153 16.8544,51.8588 C16.9966,52.6019 17.4161,52.6473 17.5492,51.8005 C17.7536,49.1911 20.3364,47.6679 22.3556,48.0506 C27.8822,48.996 27.5595,55.079 25.7541,59.2061 C23.0232,64.6856 20.1535,68.1437 17.5091,73.658 C14.4709,67.917 11.0018,63.2529 8.5834,58.325 L8.5834,58.325 Z" style="stroke:none;fill-rule:nonzero;fill:#d40000;fill-opacity:1;"/>
        </g>
        <g id="Shape5">
            <desc shapeID="5" type="0" basicInfo-basicType="0" basicInfo-roundedRectRadius="12" basicInfo-polygonSides="6" basicInfo-starPoints="5" bounding="rect(-23.58,-28.946,47.16,57.892)" text="" font-familyName="" font-pixelSize="20" font-bold="0" font-underline="0" font-alignment="1" strokeStyle="0" markerStart="0" markerEnd="0" shadowEnabled="0" shadowOffsetX="0" shadowOffsetY="2" shadowBlur="4" shadowOpacity="160" blurEnabled="0" blurRadius="4" transform="matrix(1,0,0,1,56.9016,57.4221)" pers-center="0,0" pers-size="0,0" pers-start="0,0" pers-end="0,0" locked="0" mesh="" flag=""/>
            <path id="shapePath5" d="M44.8518,28.6754 C51.9958,28.201 55.7202,34.3029 56.447,39.1119 C56.8804,39.8758 57.1177,39.6605 57.2839,39.0696 C57.6332,32.8954 63.1588,27.8494 68.2765,28.5394 C76.6045,28.6477 81.666,37.9148 80.2429,45.7582 C78.5044,55.3398 73.3432,61.1093 69.4351,67.0513 C65.0138,73.2037 59.0624,82.0908 57.145,86.3681 C57.145,86.3681 51.0967,77.1636 43.2278,66.3385 C37.966,59.1 33.7547,51.2562 33.3627,44.5031 C32.9148,36.7877 36.082,29.8714 44.8518,28.6755 L44.8518,28.6754 Z" style="stroke:none;fill-rule:nonzero;fill:#d40000;fill-opacity:1;"/>
        </g>
        <g id="Shape6">
            <desc shapeID="6" type="0" basicInfo-basicType="0" basicInfo-roundedRectRadius="12" basicInfo-polygonSides="6" basicInfo-starPoints="5" bounding="rect(-23.58,-28.946,47.16,57.892)" text="" font-familyName="" font-pixelSize="20" font-bold="0" font-underline="0" font-alignment="1" strokeStyle="0" markerStart="0" markerEnd="0" shadowEnabled="0" shadowOffsetX="0" shadowOffsetY="2" shadowBlur="4" shadowOpacity="160" blurEnabled="0" blurRadius="4" transform="matrix(1,0,0,1,166.434,57.4221)" pers-center="0,0" pers-size="0,0" pers-start="0,0" pers-end="0,0" locked="0" mesh="" flag=""/>
            <path id="shapePath6" d="M154.384,28.6754 C161.529,28.201 165.253,34.3029 165.98,39.1119 C166.413,39.8758 166.65,39.6605 166.817,39.0696 C167.166,32.8954 172.691,27.8494 177.809,28.5394 C186.137,28.6477 191.199,37.9148 189.776,45.7582 C188.037,55.3398 182.876,61.1093 178.968,67.0513 C174.547,73.2037 168.595,82.0908 166.678,86.3681 C166.678,86.3681 160.629,77.1636 152.76,66.3385 C147.499,59.1 143.287,51.2562 142.895,44.5031 C142.448,36.7877 145.615,29.8714 154.384,28.6755 L154.384,28.6754 Z" style="stroke:none;fill-rule:nonzero;fill:#d40000;fill-opacity:1;"/>
        </g>
        <g id="Shape7">
            <desc shapeID="7" type="0" basicInfo-basicType="0" basicInfo-roundedRectRadius="12" basicInfo-polygonSides="6" basicInfo-starPoints="5" bounding="rect(-23.58,-28.946,47.16,57.892)" text="" font-familyName="" font-pixelSize="20" font-bold="0" font-underline="0" font-alignment="1" strokeStyle="0" markerStart="0" markerEnd="0" shadowEnabled="0" shadowOffsetX="0" shadowOffsetY="2" shadowBlur="4" shadowOpacity="160" blurEnabled="0" blurRadius="4" transform="matrix(1,0,0,1,166.434,122.753)" pers-center="0,0" pers-size="0,0" pers-start="0,0" pers-end="0,0" locked="0" mesh="" flag=""/>
            <path id="shapePath7" d="M154.384,94.006 C161.529,93.5316 165.253,99.6335 165.98,104.443 C166.413,105.206 166.65,104.991 166.817,104.4 C167.166,98.226 172.691,93.18 177.809,93.87 C186.137,93.9783 191.199,103.245 189.776,111.089 C188.037,120.67 182.876,126.44 178.968,132.382 C174.547,138.534 168.595,147.421 166.678,151.699 C166.678,151.699 160.629,142.494 152.76,131.669 C147.499,124.431 143.287,116.587 142.895,109.834 C142.448,102.118 145.615,95.202 154.384,94.0061 L154.384,94.006 Z" style="stroke:none;fill-rule:nonzero;fill:#d40000;fill-opacity:1;"/>
        </g>
        <g id="Shape8">
            <desc shapeID="8" type="0" basicInfo-basicType="0" basicInfo-roundedRectRadius="12" basicInfo-polygonSides="6" basicInfo-starPoints="5" bounding="rect(-23.58,-28.946,47.16,57.892)" text="" font-familyName="" font-pixelSize="20" font-bold="0" font-underline="0" font-alignment="1" strokeStyle="0" markerStart="0" markerEnd="0" shadowEnabled="0" shadowOffsetX="0" shadowOffsetY="2" shadowBlur="4" shadowOpacity="160" blurEnabled="0" blurRadius="4" transform="matrix(1,0,0,1,111.614,155.906)" pers-center="0,0" pers-size="0,0" pers-start="0,0" pers-end="0,0" locked="0" mesh="" flag=""/>
            <path id="shapePath8" d="M99.5645,127.159 C106.708,126.684 110.433,132.786 111.16,137.595 C111.593,138.359 111.83,138.144 111.997,137.553 C112.346,131.379 117.871,126.333 122.989,127.023 C131.317,127.131 136.379,136.398 134.956,144.242 C133.217,153.823 128.056,159.593 124.148,165.535 C119.727,171.687 113.775,180.574 111.858,184.852 C111.858,184.852 105.809,175.647 97.9405,164.822 C92.6787,157.583 88.4674,149.74 88.0754,142.987 C87.6275,135.271 90.7947,128.355 99.5645,127.159 L99.5645,127.159 Z" style="stroke:none;fill-rule:nonzero;fill:#d40000;fill-opacity:1;"/>
        </g>
        <g id="Shape9">
            <desc shapeID="9" type="0" basicInfo-basicType="0" basicInfo-roundedRectRadius="12" basicInfo-polygonSides="6" basicInfo-starPoints="5" bounding="rect(-23.58,-28.946,47.16,57.892)" text="" font-familyName="" font-pixelSize="20" font-bold="0" font-underline="0" font-alignment="1" strokeStyle="0" markerStart="0" markerEnd="0" shadowEnabled="0" shadowOffsetX="0" shadowOffsetY="2" shadowBlur="4" shadowOpacity="160" blurEnabled="0" blurRadius="4" transform="matrix(1,0,0,1,56.9016,122.753)" pers-center="0,0" pers-size="0,0" pers-start="0,0" pers-end="0,0" locked="0" mesh="" flag=""/>
            <path id="shapePath9" d="M44.8518,94.006 C51.9958,93.5316 55.7202,99.6335 56.447,104.443 C56.8804,105.206 57.1177,104.991 57.2839,104.4 C57.6332,98.226 63.1588,93.18 68.2765,93.87 C76.6045,93.9783 81.666,103.245 80.2429,111.089 C78.5044,120.67 73.3432,126.44 69.4351,132.382 C65.0138,138.534 59.0624,147.421 57.145,151.699 C57.145,151.699 51.0967,142.494 43.2278,131.669 C37.966,124.431 33.7547,116.587 33.3627,109.834 C32.9148,102.118 36.082,95.202 44.8518,94.0061 L44.8518,94.006 Z" style="stroke:none;fill-rule:nonzero;fill:#d40000;fill-opacity:1;"/>
        </g>
        <g id="Shape10">
            <desc shapeID="10" type="0" basicInfo-basicType="0" basicInfo-roundedRectRadius="12" basicInfo-polygonSides="6" basicInfo-starPoints="5" bounding="rect(-23.58,-28.946,47.16,57.892)" text="" font-familyName="" font-pixelSize="20" font-bold="0" font-underline="0" font-alignment="1" strokeStyle="0" markerStart="0" markerEnd="0" shadowEnabled="0" shadowOffsetX="0" shadowOffsetY="2" shadowBlur="4" shadowOpacity="160" blurEnabled="0" blurRadius="4" transform="matrix(1,0,0,1,166.434,189.65)" pers-center="0,0" pers-size="0,0" pers-start="0,0" pers-end="0,0" locked="0" mesh="" flag=""/>
            <path id="shapePath10" d="M154.384,218.396 C161.529,218.871 165.253,212.769 165.98,207.96 C166.413,207.196 166.65,207.411 166.817,208.002 C167.166,214.176 172.691,219.222 177.809,218.532 C186.137,218.424 191.199,209.157 189.776,201.314 C188.037,191.732 182.876,185.962 178.968,180.02 C174.547,173.868 168.595,164.981 166.678,160.704 C166.678,160.704 160.629,169.908 152.76,180.733 C147.499,187.972 143.287,195.816 142.895,202.569 C142.448,210.284 145.615,217.2 154.384,218.396 L154.384,218.396 Z" style="stroke:none;fill-rule:nonzero;fill:#d40000;fill-opacity:1;"/>
        </g>
        <g id="Shape11">
            <desc shapeID="11" type="0" basicInfo-basicType="0" basicInfo-roundedRectRadius="12" basicInfo-polygonSides="6" basicInfo-starPoints="5" bounding="rect(-23.58,-28.946,47.16,57.892)" text="" font-familyName="" font-pixelSize="20" font-bold="0" font-underline="0" font-alignment="1" strokeStyle="0" markerStart="0" markerEnd="0" shadowEnabled="0" shadowOffsetX="0" shadowOffsetY="2" shadowBlur="4" shadowOpacity="160" blurEnabled="0" blurRadius="4" transform="matrix(1,0,0,1,166.434,254.755)" pers-center="0,0" pers-size="0,0" pers-start="0,0" pers-end="0,0" locked="0" mesh="" flag=""/>
            <path id="shapePath11" d="M154.384,283.502 C161.529,283.976 165.253,277.874 165.98,273.065 C166.413,272.301 166.65,272.517 166.817,273.108 C167.166,279.282 172.691,284.328 177.809,283.638 C186.137,283.529 191.199,274.262 189.776,266.419 C188.037,256.837 182.876,251.068 178.968,245.126 C174.547,238.974 168.595,230.086 166.678,225.809 C166.678,225.809 160.629,235.014 152.76,245.839 C147.499,253.077 143.287,260.921 142.895,267.674 C142.448,275.39 145.615,282.306 154.384,283.502 Z" style="stroke:none;fill-rule:nonzero;fill:#d40000;fill-opacity:1;"/>
        </g>
        <g id="Shape12">
            <desc shapeID="12" type="0" basicInfo-basicType="0" basicInfo-roundedRectRadius="12" basicInfo-polygonSides="6" basicInfo-starPoints="5" bounding="rect(-23.58,-28.946,47.16,57.892)" text="" font-familyName="" font-pixelSize="20" font-bold="0" font-underline="0" font-alignment="1" strokeStyle="0" markerStart="0" markerEnd="0" shadowEnabled="0" shadowOffsetX="0" shadowOffsetY="2" shadowBlur="4" shadowOpacity="160" blurEnabled="0" blurRadius="4" transform="matrix(1,0,0,1,56.9016,254.755)" pers-center="0,0" pers-size="0,0" pers-start="0,0" pers-end="0,0" locked="0" mesh="" flag=""/>
            <path id="shapePath12" d="M44.8518,283.502 C51.9958,283.976 55.7202,277.874 56.447,273.065 C56.8804,272.301 57.1177,272.517 57.2839,273.108 C57.6332,279.282 63.1588,284.328 68.2765,283.638 C76.6045,283.529 81.666,274.262 80.2429,266.419 C78.5044,256.837 73.3432,251.068 69.4351,245.126 C65.0138,238.974 59.0624,230.086 57.145,225.809 C57.145,225.809 51.0967,235.014 43.2278,245.839 C37.966,253.077 33.7547,260.921 33.3627,267.674 C32.9148,275.39 36.082,282.306 44.8518,283.502 Z" style="stroke:none;fill-rule:nonzero;fill:#d40000;fill-opacity:1;"/>
        </g>
        <g id="Shape13">
            <desc shapeID="13" type="0" basicInfo-basicType="0" basicInfo-roundedRectRadius="12" basicInfo-polygonSides="6" basicInfo-starPoints="5" bounding="rect(-23.58,-28.946,47.16,57.892)" text="" font-familyName="" font-pixelSize="20" font-bold="0" font-underline="0" font-alignment="1" strokeStyle="0" markerStart="0" markerEnd="0" shadowEnabled="0" shadowOffsetX="0" shadowOffsetY="2" shadowBlur="4" shadowOpacity="160" blurEnabled="0" blurRadius="4" transform="matrix(1,0,0,1,56.9016,189.65)" pers-center="0,0" pers-size="0,0" pers-start="0,0" pers-end="0,0" locked="0" mesh="" flag=""/>
            <path id="shapePath13" d="M44.8518,218.396 C51.9958,218.871 55.7202,212.769 56.447,207.96 C56.8804,207.196 57.1177,207.411 57.2839,208.002 C57.6332,214.176 63.1588,219.222 68.2765,218.532 C76.6045,218.424 81.666,209.157 80.2429,201.314 C78.5044,191.732 73.3432,185.962 69.4351,180.02 C65.0138,173.868 59.0624,164.981 57.145,160.704 C57.145,160.704 51.0967,169.908 43.2278,180.733 C37.966,187.972 33.7547,195.816 33.3627,202.569 C32.9148,210.284 36.082,217.2 44.8518,218.396 L44.8518,218.396 Z" style="stroke:none;fill-rule:nonzero;fill:#d40000;fill-opacity:1;"/>
        </g>
        <g id="Shape14">
            <desc shapeID="14" type="0" basicInfo-basicType="0" basicInfo-roundedRectRadius="12" basicInfo-polygonSides="6" basicInfo-starPoints="5" bounding="rect(-9.67499,-12.8329,19.35,25.6659)" text="" font-familyName="" font-pixelSize="20" font-bold="0" font-underline="0" font-alignment="1" strokeStyle="0" markerStart="0" markerEnd="0" shadowEnabled="0" shadowOffsetX="0" shadowOffsetY="2" shadowBlur="4" shadowOpacity="160" blurEnabled="0" blurRadius="4" transform="matrix(1,0,0,1,206.071,246.683)" pers-center="0,0" pers-size="0,0" pers-start="0,0" pers-end="0,0" locked="0" mesh="" flag=""/>
            <path id="shapePath14" d="M197.399,249.183 C195.816,252.655 195.642,258.588 200.37,259.391 C203.932,259.849 205.381,258.192 205.67,255.649 C205.812,254.906 206.231,254.86 206.364,255.707 C206.569,258.317 209.152,259.84 211.171,259.457 C216.697,258.512 216.375,252.429 214.569,248.302 C211.838,242.822 208.969,239.364 206.324,233.85 C203.286,239.591 199.817,244.255 197.399,249.183 L197.399,249.183 Z" style="stroke:none;fill-rule:nonzero;fill:#d40000;fill-opacity:1;"/>
        </g>
    </g>
</svg>
