<?xml version="1.0"?>
<svg version="1.1" xmlns="http://www.w3.org/2000/svg" xmlns:xlink="http://www.w3.org/1999/xlink" width="223" height="312">
    <desc iVinci="yes" version="4.5" gridStep="20" showGrid="no" snapToGrid="no" codePlatform="0"/>
    <g id="Layer1" opacity="1">
        <g id="Shape1">
            <desc shapeID="1" type="0" basicInfo-basicType="0" basicInfo-roundedRectRadius="12" basicInfo-polygonSides="6" basicInfo-starPoints="5" bounding="rect(-111.614,-155.906,223.228,311.811)" text="" font-familyName="" font-pixelSize="20" font-bold="0" font-underline="0" font-alignment="1" strokeStyle="0" markerStart="0" markerEnd="0" shadowEnabled="0" shadowOffsetX="0" shadowOffsetY="2" shadowBlur="4" shadowOpacity="160" blurEnabled="0" blurRadius="4" transform="matrix(1,0,0,1,111.614,155.906)" pers-center="0,0" pers-size="0,0" pers-start="0,0" pers-end="0,0" locked="0" mesh="" flag=""/>
            <path id="shapePath1" d="M0,9.35434 C0,4.18808 4.49741,0 10.0453,0 L213.183,0 C218.731,0 223.228,4.18808 223.228,9.35434 L223.228,302.457 C223.228,307.623 218.731,311.811 213.183,311.811 L10.0453,311.811 C4.49741,311.811 0,307.623 0,302.457 L0,9.35434 Z" style="stroke:#000000;stroke-opacity:1;stroke-width:0.996733;stroke-linejoin:miter;stroke-miterlimit:2;stroke-linecap:butt;fill-rule:evenodd;fill:#ffffff;fill-opacity:1;"/>
        </g>
        <g id="Shape2">
            <desc shapeID="2" type="0" basicInfo-basicType="0" basicInfo-roundedRectRadius="12" basicInfo-polygonSides="6" basicInfo-starPoints="5" bounding="rect(-9.4663,-16.2423,18.9326,32.4846)" text="" font-familyName="" font-pixelSize="20" font-bold="0" font-underline="0" font-alignment="1" strokeStyle="0" markerStart="0" markerEnd="0" shadowEnabled="0" shadowOffsetX="0" shadowOffsetY="2" shadowBlur="4" shadowOpacity="160" blurEnabled="0" blurRadius="4" transform="matrix(1,0,0,1,17.5186,29.3685)" pers-center="0,0" pers-size="0,0" pers-start="0,0" pers-end="0,0" locked="0" mesh="" flag=""/>
            <path id="shapePath2" d="M8.27573,39.3506 L11.3024,38.4086 C12.4441,41.404 14.7523,42.2874 17.1939,42.0976 C21.576,41.7568 23.0304,36.9491 23.3591,32.6982 C21.6516,34.4723 19.085,35.3738 16.8995,35.2859 C9.91718,34.9165 8.13004,29.4313 8.06497,23.6845 C7.87103,18.8382 9.9126,15.3289 13.4134,13.7211 C15.2655,12.9047 19.508,12.9046 21.3728,13.8698 C25.6549,16.086 27.2396,19.9185 26.9521,29.0608 C26.9567,36.5845 25.3276,45.348 17.1147,45.5357 C12.367,46.1799 8.76221,42.556 8.27573,39.3506 M20.163,31.1069 C21.5878,30.2213 22.3919,29.3907 23.0306,28.1449 C23.5549,27.1222 23.7323,26.5917 23.5829,24.4743 C23.1979,19.019 20.2836,15.9266 16.0583,16.541 C13.7017,16.8836 12.4151,18.1794 11.6756,20.5889 C10.31,25.0381 12.0411,30.2462 15.2842,31.4458 C16.747,31.9869 18.9989,31.8304 20.163,31.1069 Z" style="stroke:none;fill-rule:nonzero;fill:#000000;fill-opacity:1;"/>
        </g>
        <g id="Shape3">
            <desc shapeID="3" type="0" basicInfo-basicType="0" basicInfo-roundedRectRadius="12" basicInfo-polygonSides="6" basicInfo-starPoints="5" bounding="rect(-9.4663,-16.2423,18.9326,32.4846)" text="" font-familyName="" font-pixelSize="20" font-bold="0" font-underline="0" font-alignment="1" strokeStyle="0" markerStart="0" markerEnd="0" shadowEnabled="0" shadowOffsetX="0" shadowOffsetY="2" shadowBlur="4" shadowOpacity="160" blurEnabled="0" blurRadius="4" transform="matrix(1,0,0,1,205.069,282.443)" pers-center="0,0" pers-size="0,0" pers-start="0,0" pers-end="0,0" locked="0" mesh="" flag=""/>
            <path id="shapePath3" d="M214.312,272.46 L211.285,273.402 C210.143,270.407 207.835,269.524 205.393,269.713 C201.011,270.054 199.557,274.862 199.228,279.113 C200.936,277.339 203.502,276.437 205.688,276.525 C212.67,276.894 214.457,282.38 214.522,288.126 C214.716,292.973 212.675,296.482 209.174,298.09 C207.322,298.906 203.079,298.906 201.215,297.941 C196.932,295.725 195.348,291.893 195.635,282.75 C195.631,275.227 197.26,266.463 205.473,266.275 C210.22,265.631 213.825,269.255 214.312,272.46 M202.424,280.704 C201,281.59 200.195,282.42 199.557,283.666 C199.032,284.689 198.855,285.219 199.004,287.337 C199.389,292.792 202.304,295.884 206.529,295.27 C208.886,294.927 210.172,293.632 210.912,291.222 C212.277,286.773 210.546,281.565 207.303,280.365 C205.84,279.824 203.588,279.981 202.424,280.704 Z" style="stroke:none;fill-rule:nonzero;fill:#000000;fill-opacity:1;"/>
        </g>
        <g id="Shape4">
            <desc shapeID="4" type="0" basicInfo-basicType="0" basicInfo-roundedRectRadius="12" basicInfo-polygonSides="6" basicInfo-starPoints="5" bounding="rect(-23.895,-29.6864,47.79,59.3729)" text="" font-familyName="" font-pixelSize="20" font-bold="0" font-underline="0" font-alignment="1" strokeStyle="0" markerStart="0" markerEnd="0" shadowEnabled="0" shadowOffsetX="0" shadowOffsetY="2" shadowBlur="4" shadowOpacity="160" blurEnabled="0" blurRadius="4" transform="matrix(1,0,0,1,54.8907,57.4221)" pers-center="0,0" pers-size="0,0" pers-start="0,0" pers-end="0,0" locked="0" mesh="" flag=""/>
            <path id="shapePath4" d="M52.761,68.8728 C52.776,66.8471 51.1742,66.8083 51.1924,68.287 C51.0581,75.7156 44.7759,79.3734 40.2118,78.5057 C33.1757,77.1681 30.93,70.1837 30.9971,66.0703 C31.2043,53.374 43.9849,44.0119 55.5173,27.7357 C63.9674,42.4265 77.9145,53.9654 78.7402,65.3215 C79.8379,80.4195 60.7313,86.0511 58.0033,68.4542 C57.8273,67.2112 56.3636,66.6531 56.4772,68.3892 C56.8917,73.2118 56.3023,75.2205 61.7429,87.1086 L47.5212,87.1086 C50.6709,81.5537 52.5466,74.734 52.761,68.8728 L52.761,68.8728 Z" style="stroke:none;fill-rule:nonzero;fill:#000000;fill-opacity:1;"/>
        </g>
        <g id="Shape5">
            <desc shapeID="5" type="0" basicInfo-basicType="0" basicInfo-roundedRectRadius="12" basicInfo-polygonSides="6" basicInfo-starPoints="5" bounding="rect(-23.895,-29.6864,47.79,59.3729)" text="" font-familyName="" font-pixelSize="20" font-bold="0" font-underline="0" font-alignment="1" strokeStyle="0" markerStart="0" markerEnd="0" shadowEnabled="0" shadowOffsetX="0" shadowOffsetY="2" shadowBlur="4" shadowOpacity="160" blurEnabled="0" blurRadius="4" transform="matrix(1,0,0,1,166.423,57.4221)" pers-center="0,0" pers-size="0,0" pers-start="0,0" pers-end="0,0" locked="0" mesh="" flag=""/>
            <path id="shapePath5" d="M164.294,68.8728 C164.309,66.8471 162.707,66.8083 162.725,68.287 C162.591,75.7156 156.309,79.3734 151.745,78.5057 C144.708,77.1681 142.463,70.1837 142.53,66.0703 C142.737,53.374 155.518,44.0119 167.05,27.7357 C175.5,42.4265 189.447,53.9654 190.273,65.3215 C191.371,80.4195 172.264,86.0511 169.536,68.4542 C169.36,67.2112 167.896,66.6531 168.01,68.3892 C168.424,73.2118 167.835,75.2205 173.276,87.1086 L159.054,87.1086 C162.204,81.5537 164.079,74.734 164.294,68.8728 L164.294,68.8728 Z" style="stroke:none;fill-rule:nonzero;fill:#000000;fill-opacity:1;"/>
        </g>
        <g id="Shape6">
            <desc shapeID="6" type="0" basicInfo-basicType="0" basicInfo-roundedRectRadius="12" basicInfo-polygonSides="6" basicInfo-starPoints="5" bounding="rect(-23.895,-29.6864,47.79,59.3728)" text="" font-familyName="" font-pixelSize="20" font-bold="0" font-underline="0" font-alignment="1" strokeStyle="0" markerStart="0" markerEnd="0" shadowEnabled="0" shadowOffsetX="0" shadowOffsetY="2" shadowBlur="4" shadowOpacity="160" blurEnabled="0" blurRadius="4" transform="matrix(1,0,0,1,166.423,122.753)" pers-center="0,0" pers-size="0,0" pers-start="0,0" pers-end="0,0" locked="0" mesh="" flag=""/>
            <path id="shapePath6" d="M164.294,134.203 C164.309,132.178 162.707,132.139 162.725,133.618 C162.591,141.046 156.309,144.704 151.745,143.836 C144.708,142.499 142.463,135.514 142.53,131.401 C142.737,118.705 155.518,109.342 167.05,93.0663 C175.5,107.757 189.447,119.296 190.273,130.652 C191.371,145.75 172.264,151.382 169.536,133.785 C169.36,132.542 167.896,131.984 168.01,133.72 C168.424,138.542 167.835,140.551 173.276,152.439 L159.054,152.439 C162.204,146.884 164.079,140.065 164.294,134.203 L164.294,134.203 Z" style="stroke:none;fill-rule:nonzero;fill:#000000;fill-opacity:1;"/>
        </g>
        <g id="Shape7">
            <desc shapeID="7" type="0" basicInfo-basicType="0" basicInfo-roundedRectRadius="12" basicInfo-polygonSides="6" basicInfo-starPoints="5" bounding="rect(-23.895,-29.6864,47.79,59.3728)" text="" font-familyName="" font-pixelSize="20" font-bold="0" font-underline="0" font-alignment="1" strokeStyle="0" markerStart="0" markerEnd="0" shadowEnabled="0" shadowOffsetX="0" shadowOffsetY="2" shadowBlur="4" shadowOpacity="160" blurEnabled="0" blurRadius="4" transform="matrix(1,0,0,1,54.8907,122.753)" pers-center="0,0" pers-size="0,0" pers-start="0,0" pers-end="0,0" locked="0" mesh="" flag=""/>
            <path id="shapePath7" d="M52.761,134.203 C52.776,132.178 51.1742,132.139 51.1924,133.618 C51.0581,141.046 44.7759,144.704 40.2118,143.836 C33.1757,142.499 30.93,135.514 30.9971,131.401 C31.2043,118.705 43.9849,109.342 55.5173,93.0663 C63.9674,107.757 77.9145,119.296 78.7402,130.652 C79.8379,145.75 60.7313,151.382 58.0033,133.785 C57.8273,132.542 56.3636,131.984 56.4772,133.72 C56.8917,138.542 56.3023,140.551 61.7429,152.439 L47.5212,152.439 C50.6709,146.884 52.5466,140.065 52.761,134.203 L52.761,134.203 Z" style="stroke:none;fill-rule:nonzero;fill:#000000;fill-opacity:1;"/>
        </g>
        <g id="Shape8">
            <desc shapeID="8" type="0" basicInfo-basicType="0" basicInfo-roundedRectRadius="12" basicInfo-polygonSides="6" basicInfo-starPoints="5" bounding="rect(-23.895,-29.6865,47.79,59.3729)" text="" font-familyName="" font-pixelSize="20" font-bold="0" font-underline="0" font-alignment="1" strokeStyle="0" markerStart="0" markerEnd="0" shadowEnabled="0" shadowOffsetX="0" shadowOffsetY="2" shadowBlur="4" shadowOpacity="160" blurEnabled="0" blurRadius="4" transform="matrix(1,0,0,1,166.434,254.781)" pers-center="0,0" pers-size="0,0" pers-start="0,0" pers-end="0,0" locked="0" mesh="" flag=""/>
            <path id="shapePath8" d="M164.305,243.33 C164.32,245.356 162.718,245.394 162.736,243.916 C162.602,236.487 156.319,232.829 151.755,233.697 C144.719,235.035 142.474,242.019 142.541,246.132 C142.748,258.829 155.529,268.191 167.061,284.467 C175.511,269.776 189.458,258.237 190.284,246.881 C191.382,231.783 172.275,226.152 169.547,243.749 C169.371,244.992 167.907,245.55 168.021,243.814 C168.435,238.991 167.846,236.982 173.286,225.094 L159.065,225.094 C162.215,230.649 164.09,237.469 164.305,243.33 L164.305,243.33 Z" style="stroke:none;fill-rule:nonzero;fill:#000000;fill-opacity:1;"/>
        </g>
        <g id="Shape9">
            <desc shapeID="9" type="0" basicInfo-basicType="0" basicInfo-roundedRectRadius="12" basicInfo-polygonSides="6" basicInfo-starPoints="5" bounding="rect(-23.895,-29.6864,47.79,59.3729)" text="" font-familyName="" font-pixelSize="20" font-bold="0" font-underline="0" font-alignment="1" strokeStyle="0" markerStart="0" markerEnd="0" shadowEnabled="0" shadowOffsetX="0" shadowOffsetY="2" shadowBlur="4" shadowOpacity="160" blurEnabled="0" blurRadius="4" transform="matrix(1,0,0,1,166.434,189.675)" pers-center="0,0" pers-size="0,0" pers-start="0,0" pers-end="0,0" locked="0" mesh="" flag=""/>
            <path id="shapePath9" d="M164.305,178.225 C164.32,180.25 162.718,180.289 162.736,178.81 C162.602,171.382 156.319,167.724 151.755,168.592 C144.719,169.929 142.474,176.914 142.541,181.027 C142.748,193.723 155.529,203.085 167.061,219.362 C175.511,204.671 189.458,193.132 190.284,181.776 C191.382,166.678 172.275,161.046 169.547,178.643 C169.371,179.886 167.907,180.444 168.021,178.708 C168.435,173.886 167.846,171.877 173.286,159.989 L159.065,159.989 C162.215,165.544 164.09,172.363 164.305,178.224 L164.305,178.225 Z" style="stroke:none;fill-rule:nonzero;fill:#000000;fill-opacity:1;"/>
        </g>
        <g id="Shape10">
            <desc shapeID="10" type="0" basicInfo-basicType="0" basicInfo-roundedRectRadius="12" basicInfo-polygonSides="6" basicInfo-starPoints="5" bounding="rect(-23.895,-29.6864,47.79,59.3728)" text="" font-familyName="" font-pixelSize="20" font-bold="0" font-underline="0" font-alignment="1" strokeStyle="0" markerStart="0" markerEnd="0" shadowEnabled="0" shadowOffsetX="0" shadowOffsetY="2" shadowBlur="4" shadowOpacity="160" blurEnabled="0" blurRadius="4" transform="matrix(1,0,0,1,111.346,155.915)" pers-center="0,0" pers-size="0,0" pers-start="0,0" pers-end="0,0" locked="0" mesh="" flag=""/>
            <path id="shapePath10" d="M109.216,144.465 C109.231,146.491 107.629,146.529 107.648,145.051 C107.513,137.622 101.231,133.964 96.667,134.832 C89.6309,136.17 87.3852,143.154 87.4523,147.267 C87.6595,159.964 100.44,169.326 111.973,185.602 C120.423,170.911 134.37,159.372 135.195,148.016 C136.293,132.918 117.186,127.286 114.458,144.883 C114.283,146.126 112.819,146.685 112.932,144.948 C113.347,140.126 112.758,138.117 118.198,126.229 L103.976,126.229 C107.126,131.784 109.002,138.604 109.216,144.465 L109.216,144.465 Z" style="stroke:none;fill-rule:nonzero;fill:#000000;fill-opacity:1;"/>
        </g>
        <g id="Shape11">
            <desc shapeID="11" type="0" basicInfo-basicType="0" basicInfo-roundedRectRadius="12" basicInfo-polygonSides="6" basicInfo-starPoints="5" bounding="rect(-23.895,-29.6864,47.79,59.3729)" text="" font-familyName="" font-pixelSize="20" font-bold="0" font-underline="0" font-alignment="1" strokeStyle="0" markerStart="0" markerEnd="0" shadowEnabled="0" shadowOffsetX="0" shadowOffsetY="2" shadowBlur="4" shadowOpacity="160" blurEnabled="0" blurRadius="4" transform="matrix(1,0,0,1,54.9015,189.675)" pers-center="0,0" pers-size="0,0" pers-start="0,0" pers-end="0,0" locked="0" mesh="" flag=""/>
            <path id="shapePath11" d="M52.7718,178.225 C52.7868,180.25 51.185,180.289 51.2032,178.81 C51.0689,171.382 44.7867,167.724 40.2226,168.592 C33.1865,169.929 30.9408,176.914 31.0079,181.027 C31.2151,193.723 43.9957,203.085 55.5281,219.362 C63.9782,204.671 77.9253,193.132 78.751,181.776 C79.8487,166.678 60.7421,161.046 58.0141,178.643 C57.8381,179.886 56.3744,180.444 56.488,178.708 C56.9025,173.886 56.3131,171.877 61.7537,159.989 L47.532,159.989 C50.6817,165.544 52.5574,172.363 52.7718,178.224 L52.7718,178.225 Z" style="stroke:none;fill-rule:nonzero;fill:#000000;fill-opacity:1;"/>
        </g>
        <g id="Shape12">
            <desc shapeID="12" type="0" basicInfo-basicType="0" basicInfo-roundedRectRadius="12" basicInfo-polygonSides="6" basicInfo-starPoints="5" bounding="rect(-23.895,-29.6865,47.79,59.3729)" text="" font-familyName="" font-pixelSize="20" font-bold="0" font-underline="0" font-alignment="1" strokeStyle="0" markerStart="0" markerEnd="0" shadowEnabled="0" shadowOffsetX="0" shadowOffsetY="2" shadowBlur="4" shadowOpacity="160" blurEnabled="0" blurRadius="4" transform="matrix(1,0,0,1,54.9015,254.781)" pers-center="0,0" pers-size="0,0" pers-start="0,0" pers-end="0,0" locked="0" mesh="" flag=""/>
            <path id="shapePath12" d="M52.7718,243.33 C52.7868,245.356 51.185,245.394 51.2032,243.916 C51.0689,236.487 44.7867,232.829 40.2226,233.697 C33.1865,235.035 30.9408,242.019 31.0079,246.132 C31.2151,258.829 43.9957,268.191 55.5281,284.467 C63.9782,269.776 77.9253,258.237 78.751,246.881 C79.8487,231.783 60.7421,226.152 58.0141,243.749 C57.8381,244.992 56.3744,245.55 56.488,243.814 C56.9025,238.991 56.3131,236.982 61.7537,225.094 L47.532,225.094 C50.6817,230.649 52.5574,237.469 52.7718,243.33 L52.7718,243.33 Z" style="stroke:none;fill-rule:nonzero;fill:#000000;fill-opacity:1;"/>
        </g>
        <g id="Shape13">
            <desc shapeID="13" type="0" basicInfo-basicType="0" basicInfo-roundedRectRadius="12" basicInfo-polygonSides="6" basicInfo-starPoints="5" bounding="rect(-8.46007,-12.905,16.9201,25.8099)" text="" font-familyName="" font-pixelSize="20" font-bold="0" font-underline="0" font-alignment="1" strokeStyle="0" markerStart="0" markerEnd="0" shadowEnabled="0" shadowOffsetX="0" shadowOffsetY="2" shadowBlur="4" shadowOpacity="160" blurEnabled="0" blurRadius="4" transform="matrix(1,0,0,1,17.2534,60.825)" pers-center="0,0" pers-size="0,0" pers-start="0,0" pers-end="0,0" locked="0" mesh="" flag=""/>
            <path id="shapePath13" d="M16.8286,67.381 C16.8386,66.5095 15.9333,66.9164 15.8108,67.1907 C14.6476,69.1763 12.946,69.6384 11.2629,68.9225 C9.59558,68.2134 8.65869,66.6422 8.80899,64.4004 C9.1192,60.9626 11.8444,57.2008 13.164,55.0742 C14.416,53.1443 15.7919,50.852 17.2407,47.9201 C18.938,51.2833 19.7994,52.2406 21.6459,55.3116 C23.2719,58.016 25.5384,60.6646 25.7134,63.9339 C25.7134,66.4188 24.6674,68.7658 22.314,69.1933 C20.9826,69.4352 19.7353,68.7518 18.8102,67.1565 C18.5284,66.7499 17.9614,66.9618 17.9709,67.5184 C18.1361,69.6117 18.9263,71.5016 20.8004,73.73 L13.9133,73.73 C15.3234,72.1541 16.762,70.0263 16.8286,67.381 Z" style="stroke:none;fill-rule:nonzero;fill:#000000;fill-opacity:1;"/>
        </g>
        <g id="Shape14">
            <desc shapeID="14" type="0" basicInfo-basicType="0" basicInfo-roundedRectRadius="12" basicInfo-polygonSides="6" basicInfo-starPoints="5" bounding="rect(-8.46001,-12.905,16.92,25.8099)" text="" font-familyName="" font-pixelSize="20" font-bold="0" font-underline="0" font-alignment="1" strokeStyle="0" markerStart="0" markerEnd="0" shadowEnabled="0" shadowOffsetX="0" shadowOffsetY="2" shadowBlur="4" shadowOpacity="160" blurEnabled="0" blurRadius="4" transform="matrix(1,0,0,1,206.069,246.683)" pers-center="0,0" pers-size="0,0" pers-start="0,0" pers-end="0,0" locked="0" mesh="" flag=""/>
            <path id="shapePath14" d="M205.644,240.127 C205.654,240.998 204.749,240.591 204.626,240.317 C203.463,238.331 201.761,237.869 200.078,238.585 C198.411,239.294 197.474,240.865 197.624,243.107 C197.935,246.545 200.66,250.307 201.979,252.433 C203.231,254.363 204.607,256.656 206.056,259.588 C207.753,256.224 208.615,255.267 210.461,252.196 C212.087,249.492 214.354,246.843 214.529,243.574 C214.529,241.089 213.483,238.742 211.129,238.314 C209.798,238.072 208.551,238.756 207.625,240.351 C207.344,240.758 206.777,240.546 206.786,239.989 C206.951,237.896 207.741,236.006 209.616,233.778 L202.729,233.778 C204.139,235.354 205.577,237.481 205.644,240.127 Z" style="stroke:none;fill-rule:nonzero;fill:#000000;fill-opacity:1;"/>
        </g>
    </g>
</svg>
