<?xml version="1.0"?>
<svg version="1.1" xmlns="http://www.w3.org/2000/svg" xmlns:xlink="http://www.w3.org/1999/xlink" width="223" height="312">
    <desc iVinci="yes" version="4.5" gridStep="20" showGrid="no" snapToGrid="no" codePlatform="0"/>
    <g id="Layer1" opacity="1">
        <g id="Shape1">
            <desc shapeID="1" type="0" basicInfo-basicType="0" basicInfo-roundedRectRadius="12" basicInfo-polygonSides="6" basicInfo-starPoints="5" bounding="rect(-111.614,-155.906,223.228,311.811)" text="" font-familyName="" font-pixelSize="20" font-bold="0" font-underline="0" font-alignment="1" strokeStyle="0" markerStart="0" markerEnd="0" shadowEnabled="0" shadowOffsetX="0" shadowOffsetY="2" shadowBlur="4" shadowOpacity="160" blurEnabled="0" blurRadius="4" transform="matrix(1,0,0,1,111.614,155.906)" pers-center="0,0" pers-size="0,0" pers-start="0,0" pers-end="0,0" locked="0" mesh="" flag=""/>
            <path id="shapePath1" d="M3.05176e-05,9.35431 C3.05176e-05,4.18805 4.49747,-3.05176e-05 10.0453,-3.05176e-05 L213.183,-3.05176e-05 C218.731,-3.05176e-05 223.228,4.18805 223.228,9.35431 L223.228,302.457 C223.228,307.623 218.731,311.811 213.183,311.811 L10.0453,311.811 C4.49747,311.811 3.05176e-05,307.623 3.05176e-05,302.457 L3.05176e-05,9.35431 Z" style="stroke:#000000;stroke-opacity:1;stroke-width:0.996733;stroke-linejoin:miter;stroke-miterlimit:2;stroke-linecap:butt;fill-rule:evenodd;fill:#ffffff;fill-opacity:1;"/>
        </g>
        <g id="Shape2">
            <desc shapeID="2" type="0" basicInfo-basicType="0" basicInfo-roundedRectRadius="12" basicInfo-polygonSides="6" basicInfo-starPoints="5" bounding="rect(-9.96939,-16.0042,19.9388,32.0085)" text="" font-familyName="" font-pixelSize="20" font-bold="0" font-underline="0" font-alignment="1" strokeStyle="0" markerStart="0" markerEnd="0" shadowEnabled="0" shadowOffsetX="0" shadowOffsetY="2" shadowBlur="4" shadowOpacity="160" blurEnabled="0" blurRadius="4" transform="matrix(1,0,0,1,17.2046,30.0615)" pers-center="0,0" pers-size="0,0" pers-start="0,0" pers-end="0,0" locked="0" mesh="" flag=""/>
            <path id="shapePath2" d="M7.2352,46.0657 L7.2352,43.3286 L9.89627,43.3286 L15.5605,14.0572 L18.7833,14.0572 L25.0262,43.3286 L27.174,43.3286 L27.174,46.0657 L19.8561,46.0657 L19.8561,43.3286 L21.8329,43.3286 L21.0453,38.8429 L13.6597,38.8429 L13.0895,43.3286 L15.0663,43.3286 L15.0663,46.0657 L7.2352,46.0657 M20.4133,35.6497 L17.2048,19.9794 L14.1981,35.6497 L20.4133,35.6497 Z" style="stroke:none;fill-rule:nonzero;fill:#000000;fill-opacity:1;"/>
        </g>
        <g id="Shape3">
            <desc shapeID="3" type="0" basicInfo-basicType="0" basicInfo-roundedRectRadius="12" basicInfo-polygonSides="6" basicInfo-starPoints="5" bounding="rect(-9.96939,-16.0043,19.9388,32.0085)" text="" font-familyName="" font-pixelSize="20" font-bold="0" font-underline="0" font-alignment="1" strokeStyle="0" markerStart="0" markerEnd="0" shadowEnabled="0" shadowOffsetX="0" shadowOffsetY="2" shadowBlur="4" shadowOpacity="160" blurEnabled="0" blurRadius="4" transform="matrix(1,0,0,1,206.024,281.749)" pers-center="0,0" pers-size="0,0" pers-start="0,0" pers-end="0,0" locked="0" mesh="" flag=""/>
            <path id="shapePath3" d="M215.993,265.745 L215.993,268.482 L213.332,268.482 L207.668,297.754 L204.445,297.754 L198.202,268.482 L196.054,268.482 L196.054,265.745 L203.372,265.745 L203.372,268.482 L201.395,268.482 L202.183,272.968 L209.569,272.968 L210.139,268.482 L208.162,268.482 L208.162,265.745 L215.993,265.745 M202.815,276.161 L206.024,291.831 L209.03,276.161 L202.815,276.161 Z" style="stroke:none;fill-rule:nonzero;fill:#000000;fill-opacity:1;"/>
        </g>
        <g id="Shape4">
            <desc shapeID="4" type="0" basicInfo-basicType="0" basicInfo-roundedRectRadius="12" basicInfo-polygonSides="6" basicInfo-starPoints="5" bounding="rect(-28.3268,-28.5706,56.6536,57.1411)" text="" font-familyName="" font-pixelSize="20" font-bold="0" font-underline="0" font-alignment="1" strokeStyle="0" markerStart="0" markerEnd="0" shadowEnabled="0" shadowOffsetX="0" shadowOffsetY="2" shadowBlur="4" shadowOpacity="160" blurEnabled="0" blurRadius="4" transform="matrix(1,0,0,1,111.614,155.905)" pers-center="0,0" pers-size="0,0" pers-start="0,0" pers-end="0,0" locked="0" mesh="" flag=""/>
            <path id="shapePath4" d="M104.263,184.476 C107.142,178.7 109.239,172.775 109.611,166.439 C109.953,164.107 108.537,164.068 108.323,165.71 C104.247,181.303 82.5606,177.081 83.3062,162.414 C83.9112,150.519 95.7257,147.96 101.889,151.849 C104.322,153.282 104.185,152.424 102.856,150.937 C93.7016,140.726 99.2463,127.576 111.618,127.335 C124.997,128.128 128.469,142.205 120.262,150.483 C119.241,151.478 116.978,154.675 120.385,152.44 C128.672,146.552 140.172,152.882 139.938,161.96 C139.505,178.699 119.098,179.948 114.734,165.966 C114.315,164.416 113.105,163.637 113.439,166.27 C114.044,171.037 115.296,178.224 118.877,184.476 L104.263,184.476 Z" style="stroke:none;fill-rule:nonzero;fill:#000000;fill-opacity:1;"/>
        </g>
        <g id="Shape5">
            <desc shapeID="5" type="0" basicInfo-basicType="0" basicInfo-roundedRectRadius="12" basicInfo-polygonSides="6" basicInfo-starPoints="5" bounding="rect(-11.5439,-11.9271,23.0879,23.8543)" text="" font-familyName="" font-pixelSize="20" font-bold="0" font-underline="0" font-alignment="1" strokeStyle="0" markerStart="0" markerEnd="0" shadowEnabled="0" shadowOffsetX="0" shadowOffsetY="2" shadowBlur="4" shadowOpacity="160" blurEnabled="0" blurRadius="4" transform="matrix(1,0,0,1,16.9538,63.2542)" pers-center="0,0" pers-size="0,0" pers-start="0,0" pers-end="0,0" locked="0" mesh="" flag=""/>
            <path id="shapePath5" d="M12.9091,75.1814 C14.1013,72.7363 15.2614,70.4606 15.8934,67.7805 C16.3127,65.2529 15.4551,66.192 14.9682,67.8487 C14.247,70.1461 12.2456,71.1924 10.3882,71.2176 C7.01715,71.2631 5.33554,68.6133 5.44034,65.7637 C5.07224,62.7651 8.11136,60.6435 10.402,60.8069 C12.1244,60.9298 13.626,61.859 14.5349,62.5821 C15.1313,62.8974 15.769,63.0367 14.8799,62.2236 C13.2022,60.3907 11.8033,59.2594 11.8338,56.5128 C11.8629,53.9341 14.0674,51.2446 16.9893,51.329 C20.6407,51.4345 22.3012,54.2191 22.2925,56.8095 C22.2825,58.6979 21.339,60.4358 19.8811,61.5122 C18.937,62.2783 19.2018,62.852 20.2788,62.127 C21.3138,61.235 22.546,60.8445 23.8236,60.8171 C27.3141,60.7624 28.6786,63.7786 28.4787,66.5813 C28.2913,69.207 26.0559,71.9097 23.1097,71.6036 C20.479,71.3021 19.0967,69.0937 18.3047,66.8267 C18.0424,66.1316 17.6286,65.9439 17.6401,66.9798 C18.2478,72.0372 20.1317,75.1842 20.1454,75.1813 L12.9091,75.1814 Z" style="stroke:none;fill-rule:nonzero;fill:#000000;fill-opacity:1;"/>
        </g>
        <g id="Shape6">
            <desc shapeID="6" type="0" basicInfo-basicType="0" basicInfo-roundedRectRadius="12" basicInfo-polygonSides="6" basicInfo-starPoints="5" bounding="rect(-11.544,-11.9271,23.0879,23.8543)" text="" font-familyName="" font-pixelSize="20" font-bold="0" font-underline="0" font-alignment="1" strokeStyle="0" markerStart="0" markerEnd="0" shadowEnabled="0" shadowOffsetX="0" shadowOffsetY="2" shadowBlur="4" shadowOpacity="160" blurEnabled="0" blurRadius="4" transform="matrix(1,0,0,1,205.334,248.941)" pers-center="0,0" pers-size="0,0" pers-start="0,0" pers-end="0,0" locked="0" mesh="" flag=""/>
            <path id="shapePath6" d="M209.378,237.014 C208.186,239.459 207.026,241.735 206.394,244.415 C205.975,246.943 206.832,246.004 207.319,244.347 C208.04,242.049 210.042,241.003 211.899,240.978 C215.27,240.932 216.952,243.582 216.847,246.432 C217.215,249.43 214.176,251.552 211.885,251.389 C210.163,251.266 208.661,250.337 207.753,249.614 C207.156,249.298 206.518,249.159 207.408,249.972 C209.085,251.805 210.484,252.936 210.454,255.683 C210.425,258.262 208.22,260.951 205.298,260.867 C201.647,260.761 199.986,257.977 199.995,255.386 C200.005,253.498 200.949,251.76 202.406,250.683 C203.35,249.917 203.086,249.344 202.009,250.069 C200.974,250.961 199.742,251.351 198.464,251.379 C194.973,251.433 193.609,248.417 193.809,245.614 C193.996,242.989 196.232,240.286 199.178,240.592 C201.808,240.894 203.191,243.102 203.983,245.369 C204.245,246.064 204.659,246.252 204.647,245.216 C204.04,240.158 202.156,237.011 202.142,237.014 L209.378,237.014 Z" style="stroke:none;fill-rule:nonzero;fill:#000000;fill-opacity:1;"/>
        </g>
    </g>
</svg>
