<?xml version="1.0"?>
<svg version="1.1" xmlns="http://www.w3.org/2000/svg" xmlns:xlink="http://www.w3.org/1999/xlink" width="223" height="312">
    <desc iVinci="yes" version="4.5" gridStep="20" showGrid="no" snapToGrid="no" codePlatform="0"/>
    <g id="Layer1" opacity="1">
        <g id="Shape1">
            <desc shapeID="1" type="0" basicInfo-basicType="0" basicInfo-roundedRectRadius="12" basicInfo-polygonSides="6" basicInfo-starPoints="5" bounding="rect(-111.614,-155.906,223.228,311.811)" text="" font-familyName="" font-pixelSize="20" font-bold="0" font-underline="0" font-alignment="1" strokeStyle="0" markerStart="0" markerEnd="0" shadowEnabled="0" shadowOffsetX="0" shadowOffsetY="2" shadowBlur="4" shadowOpacity="160" blurEnabled="0" blurRadius="4" transform="matrix(1,0,0,1,111.614,155.906)" pers-center="0,0" pers-size="0,0" pers-start="0,0" pers-end="0,0" locked="0" mesh="" flag=""/>
            <path id="shapePath1" d="M0,9.35431 C0,4.18805 4.49741,-3.05176e-05 10.0453,-3.05176e-05 L213.183,-3.05176e-05 C218.731,-3.05176e-05 223.228,4.18805 223.228,9.35431 L223.228,302.457 C223.228,307.623 218.731,311.811 213.183,311.811 L10.0453,311.811 C4.49741,311.811 0,307.623 0,302.457 L0,9.35431 Z" style="stroke:#000000;stroke-opacity:1;stroke-width:0.996733;stroke-linejoin:miter;stroke-miterlimit:2;stroke-linecap:butt;fill-rule:evenodd;fill:#ffffff;fill-opacity:1;"/>
        </g>
        <g id="Shape2">
            <desc shapeID="2" type="0" basicInfo-basicType="0" basicInfo-roundedRectRadius="12" basicInfo-polygonSides="6" basicInfo-starPoints="5" bounding="rect(-9.96939,-16.0042,19.9388,32.0085)" text="" font-familyName="" font-pixelSize="20" font-bold="0" font-underline="0" font-alignment="1" strokeStyle="0" markerStart="0" markerEnd="0" shadowEnabled="0" shadowOffsetX="0" shadowOffsetY="2" shadowBlur="4" shadowOpacity="160" blurEnabled="0" blurRadius="4" transform="matrix(1,0,0,1,17.2046,30.0615)" pers-center="0,0" pers-size="0,0" pers-start="0,0" pers-end="0,0" locked="0" mesh="" flag=""/>
            <path id="shapePath2" d="M7.23517,46.0657 L7.23517,43.3286 L9.89621,43.3286 L15.5604,14.0572 L18.7833,14.0572 L25.0261,43.3286 L27.174,43.3286 L27.174,46.0657 L19.8561,46.0657 L19.8561,43.3286 L21.8329,43.3286 L21.0453,38.8429 L13.6597,38.8429 L13.0895,43.3286 L15.0662,43.3286 L15.0662,46.0657 L7.23517,46.0657 M20.4133,35.6497 L17.2047,19.9794 L14.198,35.6497 L20.4133,35.6497 Z" style="stroke:none;fill-rule:nonzero;fill:#d40000;fill-opacity:1;"/>
        </g>
        <g id="Shape3">
            <desc shapeID="3" type="0" basicInfo-basicType="0" basicInfo-roundedRectRadius="12" basicInfo-polygonSides="6" basicInfo-starPoints="5" bounding="rect(-9.96939,-16.0043,19.9388,32.0085)" text="" font-familyName="" font-pixelSize="20" font-bold="0" font-underline="0" font-alignment="1" strokeStyle="0" markerStart="0" markerEnd="0" shadowEnabled="0" shadowOffsetX="0" shadowOffsetY="2" shadowBlur="4" shadowOpacity="160" blurEnabled="0" blurRadius="4" transform="matrix(1,0,0,1,206.024,281.749)" pers-center="0,0" pers-size="0,0" pers-start="0,0" pers-end="0,0" locked="0" mesh="" flag=""/>
            <path id="shapePath3" d="M215.993,265.745 L215.993,268.482 L213.332,268.482 L207.668,297.754 L204.445,297.754 L198.202,268.482 L196.054,268.482 L196.054,265.745 L203.372,265.745 L203.372,268.482 L201.395,268.482 L202.183,272.968 L209.569,272.968 L210.139,268.482 L208.162,268.482 L208.162,265.745 L215.993,265.745 M202.815,276.161 L206.023,291.831 L209.03,276.161 L202.815,276.161 Z" style="stroke:none;fill-rule:nonzero;fill:#d40000;fill-opacity:1;"/>
        </g>
        <g id="Shape4">
            <desc shapeID="4" type="0" basicInfo-basicType="0" basicInfo-roundedRectRadius="12" basicInfo-polygonSides="6" basicInfo-starPoints="5" bounding="rect(-9.67499,-12.8329,19.35,25.6659)" text="" font-familyName="" font-pixelSize="20" font-bold="0" font-underline="0" font-alignment="1" strokeStyle="0" markerStart="0" markerEnd="0" shadowEnabled="0" shadowOffsetX="0" shadowOffsetY="2" shadowBlur="4" shadowOpacity="160" blurEnabled="0" blurRadius="4" transform="matrix(1,0,0,1,16.9537,63.2542)" pers-center="0,0" pers-size="0,0" pers-start="0,0" pers-end="0,0" locked="0" mesh="" flag=""/>
            <path id="shapePath4" d="M8.28119,60.7542 C6.69818,57.2819 6.52451,51.3488 11.2523,50.5462 C14.8144,50.0878 16.264,51.7445 16.5522,54.2881 C16.6944,55.0311 17.1139,55.0766 17.247,54.2298 C17.4514,51.6204 20.0342,50.0972 22.0534,50.4798 C27.58,51.4252 27.2573,57.5082 25.4519,61.6353 C22.721,67.1148 19.8513,70.5729 17.2069,76.0872 C14.1687,70.3462 10.6996,65.6821 8.28119,60.7542 L8.28119,60.7542 Z" style="stroke:none;fill-rule:nonzero;fill:#d40000;fill-opacity:1;"/>
        </g>
        <g id="Shape5">
            <desc shapeID="5" type="0" basicInfo-basicType="0" basicInfo-roundedRectRadius="12" basicInfo-polygonSides="6" basicInfo-starPoints="5" bounding="rect(-23.58,-28.946,47.16,57.892)" text="" font-familyName="" font-pixelSize="20" font-bold="0" font-underline="0" font-alignment="1" strokeStyle="0" markerStart="0" markerEnd="0" shadowEnabled="0" shadowOffsetX="0" shadowOffsetY="2" shadowBlur="4" shadowOpacity="160" blurEnabled="0" blurRadius="4" transform="matrix(1,0,0,1,111.614,155.905)" pers-center="0,0" pers-size="0,0" pers-start="0,0" pers-end="0,0" locked="0" mesh="" flag=""/>
            <path id="shapePath5" d="M99.5644,127.159 C106.708,126.684 110.433,132.786 111.16,137.595 C111.593,138.359 111.83,138.144 111.996,137.553 C112.346,131.379 117.871,126.333 122.989,127.023 C131.317,127.131 136.379,136.398 134.956,144.242 C133.217,153.823 128.056,159.593 124.148,165.535 C119.726,171.687 113.775,180.574 111.858,184.851 C111.858,184.851 105.809,175.647 97.9404,164.822 C92.6786,157.583 88.4673,149.74 88.0753,142.987 C87.6274,135.271 90.7946,128.355 99.5644,127.159 L99.5644,127.159 Z" style="stroke:none;fill-rule:nonzero;fill:#d40000;fill-opacity:1;"/>
        </g>
        <g id="Shape6">
            <desc shapeID="6" type="0" basicInfo-basicType="0" basicInfo-roundedRectRadius="12" basicInfo-polygonSides="6" basicInfo-starPoints="5" bounding="rect(-9.675,-12.8329,19.35,25.6659)" text="" font-familyName="" font-pixelSize="20" font-bold="0" font-underline="0" font-alignment="1" strokeStyle="0" markerStart="0" markerEnd="0" shadowEnabled="0" shadowOffsetX="0" shadowOffsetY="2" shadowBlur="4" shadowOpacity="160" blurEnabled="0" blurRadius="4" transform="matrix(1,0,0,1,205.334,248.941)" pers-center="0,0" pers-size="0,0" pers-start="0,0" pers-end="0,0" locked="0" mesh="" flag=""/>
            <path id="shapePath6" d="M196.661,251.441 C195.078,254.914 194.904,260.847 199.632,261.649 C203.194,262.108 204.644,260.451 204.932,257.908 C205.074,257.164 205.494,257.119 205.627,257.966 C205.831,260.575 208.414,262.098 210.433,261.716 C215.96,260.77 215.637,254.687 213.832,250.56 C211.101,245.081 208.231,241.623 205.587,236.108 C202.549,241.849 199.079,246.513 196.661,251.441 L196.661,251.441 Z" style="stroke:none;fill-rule:nonzero;fill:#d40000;fill-opacity:1;"/>
        </g>
    </g>
</svg>
