<?xml version="1.0"?>
<svg version="1.1" xmlns="http://www.w3.org/2000/svg" xmlns:xlink="http://www.w3.org/1999/xlink" width="223" height="312">
    <desc iVinci="yes" version="4.5" gridStep="20" showGrid="no" snapToGrid="no" codePlatform="0"/>
    <g id="Layer1" opacity="1">
        <g id="Shape1">
            <desc shapeID="1" type="0" basicInfo-basicType="0" basicInfo-roundedRectRadius="12" basicInfo-polygonSides="6" basicInfo-starPoints="5" bounding="rect(-111.614,-155.906,223.228,311.811)" text="" font-familyName="" font-pixelSize="20" font-bold="0" font-underline="0" font-alignment="1" strokeStyle="0" markerStart="0" markerEnd="0" shadowEnabled="0" shadowOffsetX="0" shadowOffsetY="2" shadowBlur="4" shadowOpacity="160" blurEnabled="0" blurRadius="4" transform="matrix(1,0,0,1,111.614,155.906)" pers-center="0,0" pers-size="0,0" pers-start="0,0" pers-end="0,0" locked="0" mesh="" flag=""/>
            <path id="shapePath1" d="M3.05176e-05,9.35431 C3.05176e-05,4.18805 4.49747,-3.05176e-05 10.0453,-3.05176e-05 L213.183,-3.05176e-05 C218.731,-3.05176e-05 223.228,4.18805 223.228,9.35431 L223.228,302.457 C223.228,307.623 218.731,311.811 213.183,311.811 L10.0453,311.811 C4.49747,311.811 3.05176e-05,307.623 3.05176e-05,302.457 L3.05176e-05,9.35431 Z" style="stroke:#000000;stroke-opacity:1;stroke-width:0.996733;stroke-linejoin:miter;stroke-miterlimit:2;stroke-linecap:butt;fill-rule:evenodd;fill:#ffffff;fill-opacity:1;"/>
        </g>
        <g id="Shape2">
            <desc shapeID="2" type="0" basicInfo-basicType="0" basicInfo-roundedRectRadius="12" basicInfo-polygonSides="6" basicInfo-starPoints="5" bounding="rect(-9.96939,-16.0042,19.9388,32.0085)" text="" font-familyName="" font-pixelSize="20" font-bold="0" font-underline="0" font-alignment="1" strokeStyle="0" markerStart="0" markerEnd="0" shadowEnabled="0" shadowOffsetX="0" shadowOffsetY="2" shadowBlur="4" shadowOpacity="160" blurEnabled="0" blurRadius="4" transform="matrix(1,0,0,1,17.2046,30.0615)" pers-center="0,0" pers-size="0,0" pers-start="0,0" pers-end="0,0" locked="0" mesh="" flag=""/>
            <path id="shapePath2" d="M7.2352,46.0657 L7.2352,43.3286 L9.89627,43.3286 L15.5605,14.0572 L18.7834,14.0572 L25.0262,43.3286 L27.174,43.3286 L27.174,46.0657 L19.8561,46.0657 L19.8561,43.3286 L21.8329,43.3286 L21.0453,38.8429 L13.6597,38.8429 L13.0895,43.3286 L15.0663,43.3286 L15.0663,46.0657 L7.2352,46.0657 M20.4133,35.6497 L17.2048,19.9794 L14.1981,35.6497 L20.4133,35.6497 Z" style="stroke:none;fill-rule:nonzero;fill:#000000;fill-opacity:1;"/>
        </g>
        <g id="Shape3">
            <desc shapeID="3" type="0" basicInfo-basicType="0" basicInfo-roundedRectRadius="12" basicInfo-polygonSides="6" basicInfo-starPoints="5" bounding="rect(-9.96942,-16.0043,19.9388,32.0085)" text="" font-familyName="" font-pixelSize="20" font-bold="0" font-underline="0" font-alignment="1" strokeStyle="0" markerStart="0" markerEnd="0" shadowEnabled="0" shadowOffsetX="0" shadowOffsetY="2" shadowBlur="4" shadowOpacity="160" blurEnabled="0" blurRadius="4" transform="matrix(1,0,0,1,206.024,281.749)" pers-center="0,0" pers-size="0,0" pers-start="0,0" pers-end="0,0" locked="0" mesh="" flag=""/>
            <path id="shapePath3" d="M215.993,265.745 L215.993,268.482 L213.332,268.482 L207.668,297.754 L204.445,297.754 L198.202,268.482 L196.054,268.482 L196.054,265.745 L203.372,265.745 L203.372,268.482 L201.395,268.482 L202.183,272.968 L209.569,272.968 L210.139,268.482 L208.162,268.482 L208.162,265.745 L215.993,265.745 M202.815,276.161 L206.024,291.831 L209.03,276.161 L202.815,276.161 Z" style="stroke:none;fill-rule:nonzero;fill:#000000;fill-opacity:1;"/>
        </g>
        <g id="Shape4">
            <desc shapeID="4" type="0" basicInfo-basicType="0" basicInfo-roundedRectRadius="12" basicInfo-polygonSides="6" basicInfo-starPoints="5" bounding="rect(-23.895,-29.6864,47.79,59.3728)" text="" font-familyName="" font-pixelSize="20" font-bold="0" font-underline="0" font-alignment="1" strokeStyle="0" markerStart="0" markerEnd="0" shadowEnabled="0" shadowOffsetX="0" shadowOffsetY="2" shadowBlur="4" shadowOpacity="160" blurEnabled="0" blurRadius="4" transform="matrix(1,0,0,1,112.455,155.801)" pers-center="0,0" pers-size="0,0" pers-start="0,0" pers-end="0,0" locked="0" mesh="" flag=""/>
            <path id="shapePath4" d="M110.326,167.252 C110.341,165.226 108.739,165.187 108.757,166.666 C108.623,174.094 102.341,177.752 97.7765,176.885 C90.7404,175.547 88.4947,168.562 88.5618,164.449 C88.769,151.753 101.55,142.391 113.082,126.115 C121.532,140.805 135.479,152.344 136.305,163.7 C137.403,178.798 118.296,184.43 115.568,166.833 C115.392,165.59 113.928,165.032 114.042,166.768 C114.456,171.591 113.867,173.599 119.308,185.487 L105.086,185.487 C108.236,179.933 110.111,173.113 110.326,167.252 L110.326,167.252 Z" style="stroke:none;fill-rule:nonzero;fill:#000000;fill-opacity:1;"/>
        </g>
        <g id="Shape5">
            <desc shapeID="5" type="0" basicInfo-basicType="0" basicInfo-roundedRectRadius="12" basicInfo-polygonSides="6" basicInfo-starPoints="5" bounding="rect(-8.46004,-12.905,16.9201,25.81)" text="" font-familyName="" font-pixelSize="20" font-bold="0" font-underline="0" font-alignment="1" strokeStyle="0" markerStart="0" markerEnd="0" shadowEnabled="0" shadowOffsetX="0" shadowOffsetY="2" shadowBlur="4" shadowOpacity="160" blurEnabled="0" blurRadius="4" transform="matrix(1,0,0,1,17.948,63.2542)" pers-center="0,0" pers-size="0,0" pers-start="0,0" pers-end="0,0" locked="0" mesh="" flag=""/>
            <path id="shapePath5" d="M17.5233,69.8102 C17.5333,68.9387 16.628,69.3456 16.5055,69.6199 C15.3423,71.6055 13.6407,72.0676 11.9576,71.3517 C10.2903,70.6426 9.35339,69.0714 9.50369,66.8296 C9.8139,63.3918 12.5391,59.63 13.8587,57.5034 C15.1107,55.5735 16.4866,53.2812 17.9354,50.3492 C19.6327,53.7125 20.494,54.6698 22.3405,57.7408 C23.9666,60.4452 26.233,63.0937 26.4081,66.3631 C26.4081,68.848 25.3621,71.1949 23.0086,71.6225 C21.6772,71.8644 20.4299,71.181 19.5049,69.5857 C19.2231,69.1791 18.6561,69.391 18.6656,69.9476 C18.8307,72.0409 19.6209,73.9308 21.4951,76.1592 L14.608,76.1592 C16.0181,74.5833 17.4567,72.4555 17.5233,69.8102 Z" style="stroke:none;fill-rule:nonzero;fill:#000000;fill-opacity:1;"/>
        </g>
        <g id="Shape6">
            <desc shapeID="6" type="0" basicInfo-basicType="0" basicInfo-roundedRectRadius="12" basicInfo-polygonSides="6" basicInfo-starPoints="5" bounding="rect(-8.46001,-12.905,16.92,25.81)" text="" font-familyName="" font-pixelSize="20" font-bold="0" font-underline="0" font-alignment="1" strokeStyle="0" markerStart="0" markerEnd="0" shadowEnabled="0" shadowOffsetX="0" shadowOffsetY="2" shadowBlur="4" shadowOpacity="160" blurEnabled="0" blurRadius="4" transform="matrix(1,0,0,1,206.328,248.941)" pers-center="0,0" pers-size="0,0" pers-start="0,0" pers-end="0,0" locked="0" mesh="" flag=""/>
            <path id="shapePath6" d="M205.903,242.385 C205.913,243.257 205.008,242.85 204.885,242.576 C203.722,240.59 202.021,240.128 200.337,240.844 C198.67,241.553 197.733,243.124 197.884,245.366 C198.194,248.804 200.919,252.566 202.239,254.692 C203.491,256.622 204.867,258.914 206.315,261.846 C208.013,258.483 208.874,257.526 210.72,254.455 C212.346,251.75 214.613,249.102 214.788,245.833 C214.788,243.348 213.742,241.001 211.389,240.573 C210.057,240.331 208.81,241.015 207.885,242.61 C207.603,243.016 207.036,242.805 207.046,242.248 C207.211,240.155 208.001,238.265 209.875,236.036 L202.988,236.036 C204.398,237.612 205.837,239.74 205.903,242.385 Z" style="stroke:none;fill-rule:nonzero;fill:#000000;fill-opacity:1;"/>
        </g>
    </g>
</svg>
