<?xml version="1.0"?>
<svg version="1.1" xmlns="http://www.w3.org/2000/svg" xmlns:xlink="http://www.w3.org/1999/xlink" width="223" height="312">
    <desc iVinci="yes" version="4.5" gridStep="20" showGrid="no" snapToGrid="no" codePlatform="0"/>
    <g id="Layer1" opacity="1">
        <g id="Shape1">
            <desc shapeID="1" type="0" basicInfo-basicType="0" basicInfo-roundedRectRadius="12" basicInfo-polygonSides="6" basicInfo-starPoints="5" bounding="rect(-83.2932,-121.084,166.586,242.167)" text="" font-familyName="" font-pixelSize="20" font-bold="0" font-underline="0" font-alignment="1" strokeStyle="0" markerStart="0" markerEnd="0" shadowEnabled="0" shadowOffsetX="0" shadowOffsetY="2" shadowBlur="4" shadowOpacity="160" blurEnabled="0" blurRadius="4" transform="matrix(1.27928,0,0,1.27928,110.805,156.149)" pers-center="0,0" pers-size="0,0" pers-start="0,0" pers-end="0,0" locked="0" mesh="" flag=""/>
            <path id="shapePath1" d="M217.36,302.259 C217.36,307.091 213.412,311.049 208.572,311.049 L13.0275,311.049 C8.19901,311.049 4.25,307.091 4.25,302.259 L4.25,10.0375 C4.25,5.20526 8.19901,1.25 13.0275,1.25 L208.572,1.25 C213.412,1.25 217.36,5.20526 217.36,10.0375 L217.36,302.259 Z" style="stroke:#000000;stroke-opacity:1;stroke-width:0.5;stroke-linejoin:miter;stroke-miterlimit:2;stroke-linecap:butt;fill-rule:nonzero;fill:#ffffff;fill-opacity:1;"/>
        </g>
        <g id="Shape2">
            <desc shapeID="2" type="0" basicInfo-basicType="0" basicInfo-roundedRectRadius="12" basicInfo-polygonSides="6" basicInfo-starPoints="5" bounding="rect(-2.79688,-11.5938,5.59375,23.1875)" text="" font-familyName="" font-pixelSize="20" font-bold="0" font-underline="0" font-alignment="1" strokeStyle="0" markerStart="0" markerEnd="0" shadowEnabled="0" shadowOffsetX="0" shadowOffsetY="2" shadowBlur="4" shadowOpacity="160" blurEnabled="0" blurRadius="4" transform="matrix(1.27928,0,0,1.27928,200.205,285.963)" pers-center="0,0" pers-size="0,0" pers-start="0,0" pers-end="0,0" locked="0" mesh="" flag=""/>
            <path id="shapePath2" d="M203.783,272.171 L203.783,275.809 L202.903,275.809 C202.881,274.847 202.783,274.137 202.608,273.688 C202.433,273.235 202.168,273.01 201.819,273.01 C201.374,273.01 201.064,273.393 200.887,274.16 C200.712,274.924 200.624,276.361 200.624,278.467 L200.624,298.916 L202.144,298.916 L202.144,300.795 L196.627,300.795 L196.627,298.916 L197.946,298.916 L197.946,278.345 C197.946,275.841 198.226,274.015 198.788,272.861 C199.348,271.709 200.247,271.131 201.481,271.131 C201.864,271.131 202.243,271.219 202.623,271.391 C203.006,271.566 203.39,271.826 203.783,272.171 Z" style="stroke:none;fill-rule:nonzero;fill:#000000;fill-opacity:1;"/>
        </g>
        <g id="Shape3">
            <desc shapeID="3" type="0" basicInfo-basicType="0" basicInfo-roundedRectRadius="12" basicInfo-polygonSides="6" basicInfo-starPoints="5" bounding="rect(-4.34375,-9.35938,8.6875,18.7188)" text="" font-familyName="" font-pixelSize="20" font-bold="0" font-underline="0" font-alignment="1" strokeStyle="0" markerStart="0" markerEnd="0" shadowEnabled="0" shadowOffsetX="0" shadowOffsetY="2" shadowBlur="4" shadowOpacity="160" blurEnabled="0" blurRadius="4" transform="matrix(1.27928,0,0,1.27928,189.94,289.261)" pers-center="0,0" pers-size="0,0" pers-start="0,0" pers-end="0,0" locked="0" mesh="" flag=""/>
            <path id="shapePath3" d="M189.948,277.288 C191.679,277.288 193.039,278.35 194.021,280.474 C195.005,282.595 195.497,285.523 195.497,289.254 C195.497,292.984 195.005,295.912 194.021,298.041 C193.039,300.17 191.679,301.234 189.948,301.234 C188.206,301.234 186.845,300.173 185.86,298.049 C184.876,295.927 184.384,292.994 184.384,289.254 C184.384,285.523 184.878,282.595 185.868,280.474 C186.857,278.35 188.216,277.288 189.948,277.288 M189.948,279.167 C189.063,279.167 188.409,279.996 187.982,281.653 C187.557,283.312 187.342,285.846 187.342,289.254 C187.342,292.672 187.557,295.21 187.982,296.869 C188.409,298.526 189.063,299.355 189.948,299.355 C190.822,299.355 191.472,298.518 191.899,296.844 C192.327,295.173 192.539,292.642 192.539,289.254 C192.539,285.876 192.327,283.35 191.899,281.678 C191.472,280.004 190.822,279.167 189.948,279.167 Z" style="stroke:none;fill-rule:nonzero;fill:#000000;fill-opacity:1;"/>
        </g>
        <g id="Shape4">
            <desc shapeID="4" type="0" basicInfo-basicType="0" basicInfo-roundedRectRadius="12" basicInfo-polygonSides="6" basicInfo-starPoints="5" bounding="rect(-4.70312,-9.01562,9.40625,18.0312)" text="" font-familyName="" font-pixelSize="20" font-bold="0" font-underline="0" font-alignment="1" strokeStyle="0" markerStart="0" markerEnd="0" shadowEnabled="0" shadowOffsetX="0" shadowOffsetY="2" shadowBlur="4" shadowOpacity="160" blurEnabled="0" blurRadius="4" transform="matrix(1.27928,0,0,1.27928,177.093,289.261)" pers-center="0,0" pers-size="0,0" pers-start="0,0" pers-end="0,0" locked="0" mesh="" flag=""/>
            <path id="shapePath4" d="M183.109,277.728 L183.109,279.607 L181.79,279.607 L181.79,298.916 L183.109,298.916 L183.109,300.795 L177.832,300.795 L177.832,298.916 L179.152,298.916 L179.152,290.503 L174.787,298.916 L175.886,298.916 L175.886,300.795 L172.051,300.795 L172.051,298.916 L173.427,298.916 L177.123,291.8 L172.083,279.607 L171.076,279.607 L171.076,277.728 L174.567,277.728 L179.152,288.929 L179.152,279.607 L177.832,279.607 L177.832,277.728 L183.109,277.728 Z" style="stroke:none;fill-rule:nonzero;fill:#000000;fill-opacity:1;"/>
        </g>
        <g id="Shape5">
            <desc shapeID="5" type="0" basicInfo-basicType="0" basicInfo-roundedRectRadius="12" basicInfo-polygonSides="6" basicInfo-starPoints="5" bounding="rect(-3.65625,-9.01562,7.3125,18.0312)" text="" font-familyName="" font-pixelSize="20" font-bold="0" font-underline="0" font-alignment="1" strokeStyle="0" markerStart="0" markerEnd="0" shadowEnabled="0" shadowOffsetX="0" shadowOffsetY="2" shadowBlur="4" shadowOpacity="160" blurEnabled="0" blurRadius="4" transform="matrix(1.27928,0,0,1.27928,166.151,289.261)" pers-center="0,0" pers-size="0,0" pers-start="0,0" pers-end="0,0" locked="0" mesh="" flag=""/>
            <path id="shapePath5" d="M170.829,277.728 L170.829,279.607 L169.509,279.607 L169.509,298.916 L170.829,298.916 L170.829,300.795 L161.594,300.795 L161.594,295.358 L162.553,295.358 L162.553,298.676 L166.871,298.676 L166.871,291.28 L164.193,291.28 L164.193,294.198 L163.233,294.198 L163.233,286.243 L164.193,286.243 L164.193,289.161 L166.871,289.161 L166.871,279.847 L162.434,279.847 L162.434,283.165 L161.474,283.165 L161.474,277.728 L170.829,277.728 Z" style="stroke:none;fill-rule:nonzero;fill:#000000;fill-opacity:1;"/>
        </g>
        <g id="Shape6">
            <desc shapeID="6" type="0" basicInfo-basicType="0" basicInfo-roundedRectRadius="12" basicInfo-polygonSides="6" basicInfo-starPoints="5" bounding="rect(-4.36914,-9.01562,8.73828,18.0312)" text="" font-familyName="" font-pixelSize="20" font-bold="0" font-underline="0" font-alignment="1" strokeStyle="0" markerStart="0" markerEnd="0" shadowEnabled="0" shadowOffsetX="0" shadowOffsetY="2" shadowBlur="4" shadowOpacity="160" blurEnabled="0" blurRadius="4" transform="matrix(1.27928,0,0,1.27928,154.471,289.261)" pers-center="0,0" pers-size="0,0" pers-start="0,0" pers-end="0,0" locked="0" mesh="" flag=""/>
            <path id="shapePath6" d="M153.191,288.976 C152.791,288.844 152.452,288.542 152.169,288.069 C151.889,287.597 151.645,286.915 151.44,286.023 L149.948,279.607 L148.881,279.607 L148.881,277.728 L152.269,277.728 L153.923,284.696 C154.248,286.135 154.52,287.052 154.745,287.447 C154.968,287.845 155.278,288.042 155.672,288.042 L156.102,288.042 L156.102,279.607 L154.783,279.607 L154.783,277.728 L160.06,277.728 L160.06,279.607 L158.741,279.607 L158.741,298.916 L160.06,298.916 L160.06,300.795 L154.178,300.795 C152.979,300.795 152.054,300.255 151.402,299.178 C150.753,298.101 150.425,296.572 150.425,294.593 C150.425,292.984 150.658,291.712 151.117,290.78 C151.58,289.846 152.269,289.246 153.191,288.976 M156.102,289.881 L155.198,289.881 C154.545,289.881 154.041,290.273 153.681,291.058 C153.324,291.84 153.144,292.959 153.144,294.413 C153.144,295.867 153.324,296.982 153.681,297.756 C154.041,298.528 154.545,298.916 155.198,298.916 L156.102,298.916 L156.102,289.881 Z" style="stroke:none;fill-rule:nonzero;fill:#000000;fill-opacity:1;"/>
        </g>
        <g id="Shape7">
            <desc shapeID="7" type="0" basicInfo-basicType="0" basicInfo-roundedRectRadius="12" basicInfo-polygonSides="6" basicInfo-starPoints="5" bounding="rect(-2.79688,-11.5938,5.59375,23.1875)" text="" font-familyName="" font-pixelSize="20" font-bold="0" font-underline="0" font-alignment="1" strokeStyle="0" markerStart="0" markerEnd="0" shadowEnabled="0" shadowOffsetX="0" shadowOffsetY="2" shadowBlur="4" shadowOpacity="160" blurEnabled="0" blurRadius="4" transform="matrix(1.27928,0,0,1.27928,20.7169,25.6862)" pers-center="0,0" pers-size="0,0" pers-start="0,0" pers-end="0,0" locked="0" mesh="" flag=""/>
            <path id="shapePath7" d="M17.1389,39.4784 L17.1389,35.8404 L18.0184,35.8404 C18.0397,36.8036 18.1371,37.512 18.312,37.9617 C18.4882,38.414 18.7518,38.6388 19.1041,38.6388 C19.5476,38.6388 19.8574,38.2565 20.0336,37.4907 C20.2085,36.7249 20.2972,35.2882 20.2972,33.1819 L20.2972,12.7335 L18.778,12.7335 L18.778,10.8546 L24.2949,10.8546 L24.2949,12.7335 L22.9756,12.7335 L22.9756,33.3056 C22.9756,35.8079 22.6945,37.6344 22.1349,38.7887 C21.5727,39.9406 20.6757,40.5178 19.4389,40.5178 C19.0591,40.5178 18.6781,40.4303 18.297,40.2579 C17.916,40.0843 17.53,39.8244 17.1389,39.4784 Z" style="stroke:none;fill-rule:nonzero;fill:#000000;fill-opacity:1;"/>
        </g>
        <g id="Shape8">
            <desc shapeID="8" type="0" basicInfo-basicType="0" basicInfo-roundedRectRadius="12" basicInfo-polygonSides="6" basicInfo-starPoints="5" bounding="rect(-4.34375,-9.35938,8.6875,18.7188)" text="" font-familyName="" font-pixelSize="20" font-bold="0" font-underline="0" font-alignment="1" strokeStyle="0" markerStart="0" markerEnd="0" shadowEnabled="0" shadowOffsetX="0" shadowOffsetY="2" shadowBlur="4" shadowOpacity="160" blurEnabled="0" blurRadius="4" transform="matrix(1.27928,0,0,1.27928,30.9799,22.388)" pers-center="0,0" pers-size="0,0" pers-start="0,0" pers-end="0,0" locked="0" mesh="" flag=""/>
            <path id="shapePath8" d="M30.9724,34.3613 C29.2408,34.3613 27.8829,33.2994 26.8997,31.1768 C25.9152,29.0543 25.423,26.1272 25.423,22.3955 C25.423,18.6651 25.9152,15.7368 26.8997,13.608 C27.8829,11.4792 29.2408,10.4148 30.9724,10.4148 C32.7139,10.4148 34.0768,11.4767 35.0613,13.6005 C36.0445,15.7231 36.5367,18.6551 36.5367,22.3955 C36.5367,26.1272 36.042,29.0543 35.0525,31.1768 C34.0631,33.2994 32.7039,34.3613 30.9724,34.3613 M30.9724,32.4823 C31.8569,32.4823 32.5115,31.6528 32.9387,29.9962 C33.3647,28.3372 33.5784,25.8036 33.5784,22.3955 C33.5784,18.9775 33.3647,16.4389 32.9387,14.7811 C32.5115,13.1233 31.8569,12.2938 30.9724,12.2938 C30.0979,12.2938 29.4482,13.1308 29.021,14.8048 C28.595,16.4776 28.3813,19.0075 28.3813,22.3955 C28.3813,25.7736 28.595,28.2997 29.021,29.9725 C29.4482,31.6453 30.0979,32.4823 30.9724,32.4823 Z" style="stroke:none;fill-rule:nonzero;fill:#000000;fill-opacity:1;"/>
        </g>
        <g id="Shape9">
            <desc shapeID="9" type="0" basicInfo-basicType="0" basicInfo-roundedRectRadius="12" basicInfo-polygonSides="6" basicInfo-starPoints="5" bounding="rect(-4.70312,-9.01562,9.40625,18.0312)" text="" font-familyName="" font-pixelSize="20" font-bold="0" font-underline="0" font-alignment="1" strokeStyle="0" markerStart="0" markerEnd="0" shadowEnabled="0" shadowOffsetX="0" shadowOffsetY="2" shadowBlur="4" shadowOpacity="160" blurEnabled="0" blurRadius="4" transform="matrix(1.27928,0,0,1.27928,43.8276,22.388)" pers-center="0,0" pers-size="0,0" pers-start="0,0" pers-end="0,0" locked="0" mesh="" flag=""/>
            <path id="shapePath9" d="M37.811,33.9215 L37.811,32.0426 L39.1302,32.0426 L39.1302,12.7335 L37.811,12.7335 L37.811,10.8546 L43.088,10.8546 L43.088,12.7335 L41.7687,12.7335 L41.7687,21.1462 L46.1338,12.7335 L45.0356,12.7335 L45.0356,10.8546 L48.8697,10.8546 L48.8697,12.7335 L47.4942,12.7335 L43.7988,19.8495 L48.8385,32.0426 L49.8442,32.0426 L49.8442,33.9215 L46.3549,33.9215 L41.7687,22.7203 L41.7687,32.0426 L43.088,32.0426 L43.088,33.9215 L37.811,33.9215 Z" style="stroke:none;fill-rule:nonzero;fill:#000000;fill-opacity:1;"/>
        </g>
        <g id="Shape10">
            <desc shapeID="10" type="0" basicInfo-basicType="0" basicInfo-roundedRectRadius="12" basicInfo-polygonSides="6" basicInfo-starPoints="5" bounding="rect(-3.65625,-9.01562,7.3125,18.0312)" text="" font-familyName="" font-pixelSize="20" font-bold="0" font-underline="0" font-alignment="1" strokeStyle="0" markerStart="0" markerEnd="0" shadowEnabled="0" shadowOffsetX="0" shadowOffsetY="2" shadowBlur="4" shadowOpacity="160" blurEnabled="0" blurRadius="4" transform="matrix(1.27928,0,0,1.27928,54.7689,22.388)" pers-center="0,0" pers-size="0,0" pers-start="0,0" pers-end="0,0" locked="0" mesh="" flag=""/>
            <path id="shapePath10" d="M50.0915,33.9215 L50.0915,32.0426 L51.4108,32.0426 L51.4108,12.7335 L50.0915,12.7335 L50.0915,10.8546 L59.3263,10.8546 L59.3263,16.2915 L58.3668,16.2915 L58.3668,12.9734 L54.0493,12.9734 L54.0493,20.3692 L56.7278,20.3692 L56.7278,17.4508 L57.6872,17.4508 L57.6872,25.4063 L56.7278,25.4063 L56.7278,22.488 L54.0493,22.488 L54.0493,31.8027 L58.4868,31.8027 L58.4868,28.4846 L59.4462,28.4846 L59.4462,33.9215 L50.0915,33.9215 Z" style="stroke:none;fill-rule:nonzero;fill:#000000;fill-opacity:1;"/>
        </g>
        <g id="Shape11">
            <desc shapeID="11" type="0" basicInfo-basicType="0" basicInfo-roundedRectRadius="12" basicInfo-polygonSides="6" basicInfo-starPoints="5" bounding="rect(-4.36963,-9.01562,8.73926,18.0312)" text="" font-familyName="" font-pixelSize="20" font-bold="0" font-underline="0" font-alignment="1" strokeStyle="0" markerStart="0" markerEnd="0" shadowEnabled="0" shadowOffsetX="0" shadowOffsetY="2" shadowBlur="4" shadowOpacity="160" blurEnabled="0" blurRadius="4" transform="matrix(1.27928,0,0,1.27928,66.4504,22.388)" pers-center="0,0" pers-size="0,0" pers-start="0,0" pers-end="0,0" locked="0" mesh="" flag=""/>
            <path id="shapePath11" d="M67.729,22.6729 C68.1288,22.8053 68.4686,23.1076 68.751,23.5799 C69.032,24.0521 69.2757,24.7342 69.4805,25.6274 L70.9734,32.0426 L72.0403,32.0426 L72.0403,33.9215 L68.651,33.9215 L66.9969,26.9529 C66.6734,25.5138 66.3998,24.5968 66.1762,24.202 C65.9525,23.8047 65.6427,23.6073 65.2479,23.6073 L64.8182,23.6073 L64.8182,32.0426 L66.1374,32.0426 L66.1374,33.9215 L60.8604,33.9215 L60.8604,32.0426 L62.1797,32.0426 L62.1797,12.7335 L60.8604,12.7335 L60.8604,10.8546 L66.7421,10.8546 C67.9414,10.8546 68.8659,11.3943 69.518,12.4712 C70.1689,13.548 70.495,15.0772 70.495,17.0573 C70.495,18.6664 70.2638,19.9369 69.8029,20.8701 C69.3419,21.8034 68.651,22.4043 67.729,22.6729 M64.8182,21.7684 L65.7227,21.7684 C66.376,21.7684 66.8808,21.3761 67.2393,20.5928 C67.5966,19.8095 67.7765,18.6901 67.7765,17.236 C67.7765,15.7818 67.5966,14.6674 67.2393,13.8941 C66.8808,13.1208 66.376,12.7335 65.7227,12.7335 L64.8182,12.7335 L64.8182,21.7684 Z" style="stroke:none;fill-rule:nonzero;fill:#000000;fill-opacity:1;"/>
        </g>
        <g id="Shape12">
            <desc shapeID="12" type="0" basicInfo-basicType="0" basicInfo-roundedRectRadius="12" basicInfo-polygonSides="6" basicInfo-starPoints="5" bounding="rect(-3.23626,-3.48622,6.47252,6.97244)" text="" font-familyName="" font-pixelSize="20" font-bold="0" font-underline="0" font-alignment="1" strokeStyle="0" markerStart="0" markerEnd="0" shadowEnabled="0" shadowOffsetX="0" shadowOffsetY="2" shadowBlur="4" shadowOpacity="160" blurEnabled="0" blurRadius="4" transform="matrix(1.27928,0,0,1.27928,136.542,255.704)" pers-center="0,0" pers-size="0,0" pers-start="0,0" pers-end="0,0" locked="0" mesh="" flag=""/>
            <path id="shapePath12" d="M133.316,252.221 L132.402,253.995 L133.346,260.163 L135.806,259.736 L140.682,256.422 L135.261,251.244 " style="stroke:none;fill-rule:nonzero;fill:#e6180a;fill-opacity:1;"/>
        </g>
        <g id="Shape13">
            <desc shapeID="13" type="0" basicInfo-basicType="0" basicInfo-roundedRectRadius="12" basicInfo-polygonSides="6" basicInfo-starPoints="5" bounding="rect(-39.7764,-46.0869,79.5527,92.1739)" text="" font-familyName="" font-pixelSize="20" font-bold="0" font-underline="0" font-alignment="1" strokeStyle="0" markerStart="0" markerEnd="0" shadowEnabled="0" shadowOffsetX="0" shadowOffsetY="2" shadowBlur="4" shadowOpacity="160" blurEnabled="0" blurRadius="4" transform="matrix(1.27928,0,0,1.27928,126.146,132.161)" pers-center="0,0" pers-size="0,0" pers-start="0,0" pers-end="0,0" locked="0" mesh="" flag=""/>
            <path id="shapePath13" d="M151.965,88.543 C152.307,88.6724 144.133,96.4081 143.105,96.4081 L136.17,100.276 L132.04,106.4 L128.936,113.297 L128.745,120.946 L131.634,125.07 L137.776,126.338 L145.459,124.985 L153.878,119.608 L158.144,114.058 L159.757,108.638 L159.187,105.024 L155.364,103.171 L152.099,102.865 L151.871,101.485 L152.458,98.1691 L149.661,95.9305 L144.554,96.2688 L152.844,88.742 L161.434,90.9284 L165.488,90.1922 L177.031,104.412 L170.854,112.956 L169.9,116.648 L171.184,121.846 L173.111,127.177 L172.167,132.935 L170.713,134.997 L170.884,139.551 L169.984,141.872 L166.86,143.205 L163.949,141.959 L162.153,138.823 L163.052,135.169 L165.49,133.793 L167.673,133.751 L168.059,133.107 L166.347,128.679 L162.453,125.801 L159.284,125.63 L151.581,130.87 L150.724,135.385 L150.639,142.947 L158.087,147.889 L161.466,153.346 L162.537,159.706 L163.394,167.614 L170.455,185.232 L172.938,189.701 L171.996,190.475 L166.218,187.766 L160.996,182.351 L160.696,178.227 L161.682,175.004 L160.312,172.598 L158,172.641 L156.546,174.961 L156.759,176.852 L158.642,179.946 L157.787,184.717 L154.363,191.077 L152.564,191.119 L149.012,186.048 L147.042,179.302 L148.883,174.919 L148.841,173.156 L145.716,170.621 L143.318,171.394 L141.564,174.101 L143.363,179.988 L141.435,183.471 L134.2,189.614 L132.875,188.841 L131.205,184.458 L130.776,177.926 L134.716,174.832 L135.016,171.394 L132.788,169.462 L130.35,169.847 L127.91,171.608 L127.739,174.832 L127.781,178.7 L122.945,184.931 L117.593,189.012 L115.368,188.411 L114.427,185.575 L114.256,173.715 L118.963,171.223 L120.333,168.517 L118.834,166.109 L115.752,165.164 L113.057,166.882 L111.857,169.718 L112.757,173.586 L110.787,175.777 L107.878,178.227 L100.302,181.836 L96.9622,182.351 L97.0043,177.454 L99.6578,168.989 L101.885,165.766 L106.934,164.261 L108.562,161.124 L107.663,158.674 L104.41,157.214 L101.457,158.891 L100.428,160.865 L99.8733,163.788 L95.8497,166.581 L85.362,169.805 L83.8656,168.387 L86.9898,159.318 L91.0977,155.237 L95.934,154.55 L97.9036,151.155 L96.9622,147.931 L94.051,146.643 L91.3132,147.974 L89.1305,152.787 L85.0623,155.453 L75.2609,157.256 L76.3733,152.961 L78.727,148.575 L80.3969,147.115 L83.1372,144.063 L87.6315,143.678 L89.4278,141.787 L90.0274,140.111 L89.8143,138.392 L87.3739,136.803 L83.3502,138.004 L81.2542,138.134 L77.2727,134.266 L75.7737,131.773 L76.7152,131.301 L81.8959,131.43 L87.8446,129.841 L99.5314,124.426 L104.625,123.438 L109.804,124.513 L113.74,126.876 L113.656,124.341 L115.282,122.234 L120.418,121.247 L120.675,120.6 L120.846,116.819 L123.629,114.414 L125.727,106.979 L129.922,100.448 L129.964,98.4701 L127.268,92.7542 L127.352,86.6949 L128.552,83.3022 L130.905,80.0363 L136.428,77.6285 L138.653,74.278 L140.964,73.2035 L143.789,73.9771 L145.587,76.8549 L144.688,80.9815 L141.264,82.4416 L137.327,80.8521 L136.557,81.1531 L135.999,85.5358 L137.112,89.3166 L139.552,90.7792 L148.541,88.5008 " style="stroke:none;fill-rule:nonzero;fill:#e6180a;fill-opacity:1;"/>
        </g>
        <g id="Shape14">
            <desc shapeID="14" type="0" basicInfo-basicType="0" basicInfo-roundedRectRadius="12" basicInfo-polygonSides="6" basicInfo-starPoints="5" bounding="rect(-3.45567,-3.15416,6.91135,6.30833)" text="" font-familyName="" font-pixelSize="20" font-bold="0" font-underline="0" font-alignment="1" strokeStyle="0" markerStart="0" markerEnd="0" shadowEnabled="0" shadowOffsetX="0" shadowOffsetY="2" shadowBlur="4" shadowOpacity="160" blurEnabled="0" blurRadius="4" transform="matrix(1.27928,0,0,1.27928,148.305,92.5051)" pers-center="0,0" pers-size="0,0" pers-start="0,0" pers-end="0,0" locked="0" mesh="" flag=""/>
            <path id="shapePath14" d="M152.231,88.4701 L152.726,89.0541 L144.379,96.5402 L143.884,95.9562 L152.231,88.4701 Z" style="stroke:none;fill-rule:evenodd;fill:#e6180a;fill-opacity:1;"/>
        </g>
        <g id="Shape15">
            <desc shapeID="15" type="0" basicInfo-basicType="0" basicInfo-roundedRectRadius="12" basicInfo-polygonSides="6" basicInfo-starPoints="5" bounding="rect(-13.3508,-17.9211,26.7016,35.8421)" text="" font-familyName="" font-pixelSize="20" font-bold="0" font-underline="0" font-alignment="1" strokeStyle="0" markerStart="0" markerEnd="0" shadowEnabled="0" shadowOffsetX="0" shadowOffsetY="2" shadowBlur="4" shadowOpacity="160" blurEnabled="0" blurRadius="4" transform="matrix(1.27928,0,0,1.27928,62.168,158.465)" pers-center="0,0" pers-size="0,0" pers-start="0,0" pers-end="0,0" locked="0" mesh="" flag=""/>
            <path id="shapePath15" d="M72.8006,135.539 L76.5839,136.395 L79.2473,140.942 L76.3163,155.12 L68.6977,169.352 L57.0258,181.391 L46.7412,181.391 L45.0887,179.143 L58.1977,167.265 L68.6977,150.038 " style="stroke:none;fill-rule:nonzero;fill:#e6180a;fill-opacity:1;"/>
        </g>
        <g id="Shape16">
            <desc shapeID="16" type="0" basicInfo-basicType="0" basicInfo-roundedRectRadius="12" basicInfo-polygonSides="6" basicInfo-starPoints="5" bounding="rect(-6.96348,-23.0133,13.927,46.0267)" text="" font-familyName="" font-pixelSize="20" font-bold="0" font-underline="0" font-alignment="1" strokeStyle="0" markerStart="0" markerEnd="0" shadowEnabled="0" shadowOffsetX="0" shadowOffsetY="2" shadowBlur="4" shadowOpacity="160" blurEnabled="0" blurRadius="4" transform="matrix(1.27928,0,0,1.27928,142.224,217.045)" pers-center="0,0" pers-size="0,0" pers-start="0,0" pers-end="0,0" locked="0" mesh="" flag=""/>
            <path id="shapePath16" d="M139.825,190.012 L141.47,188.774 L146.197,187.605 L147.706,188.98 L150.24,198.611 L151.132,203.837 L150.446,213.605 L146.541,229.497 L143.662,236.511 L139.005,242.565 L133.316,246.485 L133.727,243.734 L135.372,241.053 L138.524,235.825 L141.333,227.502 L143.868,216.289 L144.76,208.309 L143.526,199.367 L139.963,192.97 " style="stroke:none;fill-rule:nonzero;fill:#e6180a;fill-opacity:1;"/>
        </g>
        <g id="Shape17">
            <desc shapeID="17" type="0" basicInfo-basicType="0" basicInfo-roundedRectRadius="12" basicInfo-polygonSides="6" basicInfo-starPoints="5" bounding="rect(-19.1193,-30.5253,38.2386,61.0506)" text="" font-familyName="" font-pixelSize="20" font-bold="0" font-underline="0" font-alignment="1" strokeStyle="0" markerStart="0" markerEnd="0" shadowEnabled="0" shadowOffsetX="0" shadowOffsetY="2" shadowBlur="4" shadowOpacity="160" blurEnabled="0" blurRadius="4" transform="matrix(1.27928,0,0,1.27928,123.292,224.886)" pers-center="0,0" pers-size="0,0" pers-start="0,0" pers-end="0,0" locked="0" mesh="" flag=""/>
            <path id="shapePath17" d="M113.674,205.354 L114.764,204.277 L118.141,203.939 L120.797,202.976 L121.215,202.499 L122.615,202.855 L123.259,201.947 L124.238,202.394 L124.984,202.228 L126.698,201.758 L130.794,193.783 L132.694,189.122 L134.104,189.803 L135.771,189.298 L147.017,185.836 L147.75,187.378 L145.583,187.527 L141.584,188.592 L139.223,190.169 L139.693,192.741 L138.187,193.435 L135.112,197.885 L135.491,199.318 L138.298,198.673 L139.812,195.592 L139.309,193.9 L140.137,193.694 L143.207,199.323 L142.505,205.839 L144.468,209.272 L143.33,217.829 L142.114,223.298 L140.662,229.034 L138.234,235.976 L134.339,242.545 L133.876,239.623 L136.22,233.656 L135.097,222.99 L135.305,213.05 L132.996,212.299 L131.649,214.605 L131.936,236.785 L133.185,240.085 L133.643,243.292 L132.744,247.214 L134.312,251.256 L133.214,252.582 L132.156,255.166 L133.903,259.902 L134.862,259.865 L140.885,256.198 L142.057,259.338 L139.166,262.929 L134.428,263.937 L131.525,259.648 L131.032,253.661 L131.051,251.515 L129.399,250.478 L129.223,246.065 L125.987,237.165 L125.098,227.882 L124.974,218.784 L125.088,213.008 L118.344,213.364 L117.759,214.433 L116.052,213.423 L113.002,214.306 L110.663,214.237 L108.02,215.744 L103.268,216.866 L98.8327,217.458 L100.594,215.456 L109.913,213.612 L113.124,211.65 L114.147,206.762 " style="stroke:none;fill-rule:nonzero;fill:#000000;fill-opacity:1;"/>
        </g>
        <g id="Shape18">
            <desc shapeID="18" type="0" basicInfo-basicType="0" basicInfo-roundedRectRadius="12" basicInfo-polygonSides="6" basicInfo-starPoints="5" bounding="rect(-0.449821,-0.429657,0.899651,0.859329)" text="" font-familyName="" font-pixelSize="20" font-bold="0" font-underline="0" font-alignment="1" strokeStyle="0" markerStart="0" markerEnd="0" shadowEnabled="0" shadowOffsetX="0" shadowOffsetY="2" shadowBlur="4" shadowOpacity="160" blurEnabled="0" blurRadius="4" transform="matrix(1.27928,0,0,1.27928,139.587,193.29)" pers-center="0,0" pers-size="0,0" pers-start="0,0" pers-end="0,0" locked="0" mesh="" flag=""/>
            <path id="shapePath18" d="M139.012,192.74 L140.163,192.74 L140.163,193.84 L139.012,193.84 L139.012,192.74 Z" style="stroke:none;fill-rule:evenodd;fill:#000000;fill-opacity:1;"/>
        </g>
        <g id="Shape19">
            <desc shapeID="19" type="0" basicInfo-basicType="0" basicInfo-roundedRectRadius="12" basicInfo-polygonSides="6" basicInfo-starPoints="5" bounding="rect(-0.437073,-1.20464,0.874153,2.40929)" text="" font-familyName="" font-pixelSize="20" font-bold="0" font-underline="0" font-alignment="1" strokeStyle="0" markerStart="0" markerEnd="0" shadowEnabled="0" shadowOffsetX="0" shadowOffsetY="2" shadowBlur="4" shadowOpacity="160" blurEnabled="0" blurRadius="4" transform="matrix(1.27928,0,0,1.27928,133.727,241.599)" pers-center="0,0" pers-size="0,0" pers-start="0,0" pers-end="0,0" locked="0" mesh="" flag=""/>
            <path id="shapePath19" d="M133.168,240.058 L134.286,240.058 L134.286,243.141 L133.168,243.141 L133.168,240.058 Z" style="stroke:none;fill-rule:evenodd;fill:#000000;fill-opacity:1;"/>
        </g>
        <g id="Shape20">
            <desc shapeID="20" type="0" basicInfo-basicType="0" basicInfo-roundedRectRadius="12" basicInfo-polygonSides="6" basicInfo-starPoints="5" bounding="rect(-1.04613,-3.56595,2.09226,7.1319)" text="" font-familyName="" font-pixelSize="20" font-bold="0" font-underline="0" font-alignment="1" strokeStyle="0" markerStart="0" markerEnd="0" shadowEnabled="0" shadowOffsetX="0" shadowOffsetY="2" shadowBlur="4" shadowOpacity="160" blurEnabled="0" blurRadius="4" transform="matrix(1.27928,0,0,1.27928,143.141,204.374)" pers-center="0,0" pers-size="0,0" pers-start="0,0" pers-end="0,0" locked="0" mesh="" flag=""/>
            <path id="shapePath20" d="M141.802,200.017 L143.513,199.812 L144.479,208.732 L142.768,208.936 L141.802,200.017 Z" style="stroke:none;fill-rule:evenodd;fill:#000000;fill-opacity:1;"/>
        </g>
        <g id="Shape21">
            <desc shapeID="21" type="0" basicInfo-basicType="0" basicInfo-roundedRectRadius="12" basicInfo-polygonSides="6" basicInfo-starPoints="5" bounding="rect(-7.91828,-20.5644,15.8366,41.1288)" text="" font-familyName="" font-pixelSize="20" font-bold="0" font-underline="0" font-alignment="1" strokeStyle="0" markerStart="0" markerEnd="0" shadowEnabled="0" shadowOffsetX="0" shadowOffsetY="2" shadowBlur="4" shadowOpacity="160" blurEnabled="0" blurRadius="4" transform="matrix(1.27928,0,0,1.27928,152.068,213.81)" pers-center="0,0" pers-size="0,0" pers-start="0,0" pers-end="0,0" locked="0" mesh="" flag=""/>
            <path id="shapePath21" d="M148.489,187.503 C148.489,187.806 150.855,192.801 150.855,192.801 L152.371,200.474 L152.555,210.827 L150.188,225.686 L149.581,227.146 L150.126,227.452 L150.733,227.024 L157.71,212.227 L160.5,200.23 L161.107,193.776 L162.197,194.201 L161.409,203.578 L157.832,216.428 L151.826,228.912 L145.213,237.742 L142.181,240.118 L141.938,238.839 L145.758,231.835 L150.248,214.662 L151.098,204.553 L149.155,193.288 L147.275,187.503 " style="stroke:none;fill-rule:nonzero;fill:#000000;fill-opacity:1;"/>
        </g>
        <g id="Shape22">
            <desc shapeID="22" type="0" basicInfo-basicType="0" basicInfo-roundedRectRadius="12" basicInfo-polygonSides="6" basicInfo-starPoints="5" bounding="rect(-3.79209,-4.21827,7.58419,8.43653)" text="" font-familyName="" font-pixelSize="20" font-bold="0" font-underline="0" font-alignment="1" strokeStyle="0" markerStart="0" markerEnd="0" shadowEnabled="0" shadowOffsetX="0" shadowOffsetY="2" shadowBlur="4" shadowOpacity="160" blurEnabled="0" blurRadius="4" transform="matrix(1.27928,0,0,1.27928,106.516,65.7949)" pers-center="0,0" pers-size="0,0" pers-start="0,0" pers-end="0,0" locked="0" mesh="" flag=""/>
            <path id="shapePath22" d="M103.947,60.3986 L108.733,60.8189 L111.367,66.8209 L109.35,71.1912 L102.73,70.3754 L101.665,64.1794 " style="stroke:none;fill-rule:nonzero;fill:#e6180a;fill-opacity:1;"/>
        </g>
        <g id="Shape23">
            <desc shapeID="23" type="0" basicInfo-basicType="0" basicInfo-roundedRectRadius="12" basicInfo-polygonSides="6" basicInfo-starPoints="5" bounding="rect(-4.80306,-4.99309,9.60613,9.98618)" text="" font-familyName="" font-pixelSize="20" font-bold="0" font-underline="0" font-alignment="1" strokeStyle="0" markerStart="0" markerEnd="0" shadowEnabled="0" shadowOffsetX="0" shadowOffsetY="2" shadowBlur="4" shadowOpacity="160" blurEnabled="0" blurRadius="4" transform="matrix(1.27928,0,0,1.27928,118.785,58.8315)" pers-center="0,0" pers-size="0,0" pers-start="0,0" pers-end="0,0" locked="0" mesh="" flag=""/>
            <path id="shapePath23" d="M118.854,54.3692 L122.789,52.444 L124.357,52.9912 L124.917,55.0309 L124.929,56.9412 L123.809,60.1598 L119.932,63.6595 L113.128,65.2191 L112.64,63.3362 L115.061,62.5775 L118.379,59.3166 " style="stroke:none;fill-rule:nonzero;fill:#e6180a;fill-opacity:1;"/>
        </g>
        <g id="Shape24">
            <desc shapeID="24" type="0" basicInfo-basicType="0" basicInfo-roundedRectRadius="12" basicInfo-polygonSides="6" basicInfo-starPoints="5" bounding="rect(-2.01218,-2.14478,4.02435,4.28955)" text="" font-familyName="" font-pixelSize="20" font-bold="0" font-underline="0" font-alignment="1" strokeStyle="0" markerStart="0" markerEnd="0" shadowEnabled="0" shadowOffsetX="0" shadowOffsetY="2" shadowBlur="4" shadowOpacity="160" blurEnabled="0" blurRadius="4" transform="matrix(1.27928,0,0,1.27928,69.4313,57.0704)" pers-center="0,0" pers-size="0,0" pers-start="0,0" pers-end="0,0" locked="0" mesh="" flag=""/>
            <path id="shapePath24" d="M72.0055,57.0703 C72.0055,58.5857 70.853,59.8141 69.4313,59.8141 C68.0097,59.8141 66.8572,58.5857 66.8572,57.0703 C66.8572,55.555 68.0097,54.3266 69.4313,54.3266 C70.853,54.3266 72.0055,55.555 72.0055,57.0703 Z" style="stroke:none;fill-rule:nonzero;fill:#ff009c;fill-opacity:1;"/>
        </g>
        <g id="Shape25">
            <desc shapeID="25" type="0" basicInfo-basicType="0" basicInfo-roundedRectRadius="12" basicInfo-polygonSides="6" basicInfo-starPoints="5" bounding="rect(-2.09457,-1.99084,4.18914,3.98168)" text="" font-familyName="" font-pixelSize="20" font-bold="0" font-underline="0" font-alignment="1" strokeStyle="0" markerStart="0" markerEnd="0" shadowEnabled="0" shadowOffsetX="0" shadowOffsetY="2" shadowBlur="4" shadowOpacity="160" blurEnabled="0" blurRadius="4" transform="matrix(1.27928,0,0,1.27928,75.3426,70.9818)" pers-center="0,0" pers-size="0,0" pers-start="0,0" pers-end="0,0" locked="0" mesh="" flag=""/>
            <path id="shapePath25" d="M78.0221,70.9818 C78.0221,72.3884 76.8224,73.5287 75.3426,73.5287 C73.8627,73.5287 72.6631,72.3884 72.6631,70.9818 C72.6631,69.5753 73.8627,68.435 75.3426,68.435 C76.8224,68.435 78.0221,69.5753 78.0221,70.9818 Z" style="stroke:none;fill-rule:nonzero;fill:#00ff0a;fill-opacity:1;"/>
        </g>
        <g id="Shape26">
            <desc shapeID="26" type="0" basicInfo-basicType="0" basicInfo-roundedRectRadius="12" basicInfo-polygonSides="6" basicInfo-starPoints="5" bounding="rect(-2.27251,-2.07587,4.54503,4.15174)" text="" font-familyName="" font-pixelSize="20" font-bold="0" font-underline="0" font-alignment="1" strokeStyle="0" markerStart="0" markerEnd="0" shadowEnabled="0" shadowOffsetX="0" shadowOffsetY="2" shadowBlur="4" shadowOpacity="160" blurEnabled="0" blurRadius="4" transform="matrix(1.27928,0,0,1.27928,88.5596,91.7789)" pers-center="0,0" pers-size="0,0" pers-start="0,0" pers-end="0,0" locked="0" mesh="" flag=""/>
            <path id="shapePath26" d="M91.4668,91.7789 C91.4668,93.2456 90.1652,94.4345 88.5596,94.4345 C86.954,94.4345 85.6524,93.2456 85.6524,91.7789 C85.6524,90.3123 86.954,89.1233 88.5596,89.1233 C90.1652,89.1233 91.4668,90.3123 91.4668,91.7789 Z" style="stroke:none;fill-rule:nonzero;fill:#ff9e00;fill-opacity:1;"/>
        </g>
        <g id="Shape27">
            <desc shapeID="27" type="0" basicInfo-basicType="0" basicInfo-roundedRectRadius="12" basicInfo-polygonSides="6" basicInfo-starPoints="5" bounding="rect(-2.2257,-2.28601,4.4514,4.57202)" text="" font-familyName="" font-pixelSize="20" font-bold="0" font-underline="0" font-alignment="1" strokeStyle="0" markerStart="0" markerEnd="0" shadowEnabled="0" shadowOffsetX="0" shadowOffsetY="2" shadowBlur="4" shadowOpacity="160" blurEnabled="0" blurRadius="4" transform="matrix(1.27928,0,0,1.27928,99.3983,98.9233)" pers-center="0,0" pers-size="0,0" pers-start="0,0" pers-end="0,0" locked="0" mesh="" flag=""/>
            <path id="shapePath27" d="M102.246,98.9233 C102.246,100.538 100.971,101.848 99.3983,101.848 C97.8258,101.848 96.551,100.538 96.551,98.9233 C96.551,97.3082 97.8258,95.9989 99.3983,95.9989 C100.971,95.9989 102.246,97.3082 102.246,98.9233 Z" style="stroke:none;fill-rule:nonzero;fill:#0072ff;fill-opacity:1;"/>
        </g>
        <g id="Shape28">
            <desc shapeID="28" type="0" basicInfo-basicType="0" basicInfo-roundedRectRadius="12" basicInfo-polygonSides="6" basicInfo-starPoints="5" bounding="rect(-2.25587,-2.52139,4.51173,5.04278)" text="" font-familyName="" font-pixelSize="20" font-bold="0" font-underline="0" font-alignment="1" strokeStyle="0" markerStart="0" markerEnd="0" shadowEnabled="0" shadowOffsetX="0" shadowOffsetY="2" shadowBlur="4" shadowOpacity="160" blurEnabled="0" blurRadius="4" transform="matrix(1.27928,0,0,1.27928,110.732,102.527)" pers-center="0,0" pers-size="0,0" pers-start="0,0" pers-end="0,0" locked="0" mesh="" flag=""/>
            <path id="shapePath28" d="M113.618,102.527 C113.618,104.308 112.326,105.752 110.732,105.752 C109.138,105.752 107.846,104.308 107.846,102.527 C107.846,100.745 109.138,99.301 110.732,99.301 C112.326,99.301 113.618,100.745 113.618,102.527 Z" style="stroke:none;fill-rule:nonzero;fill:#ffff00;fill-opacity:1;"/>
        </g>
        <g id="Shape29">
            <desc shapeID="29" type="0" basicInfo-basicType="0" basicInfo-roundedRectRadius="12" basicInfo-polygonSides="6" basicInfo-starPoints="5" bounding="rect(-1.39544,-1.23745,2.79087,2.47489)" text="" font-familyName="" font-pixelSize="20" font-bold="0" font-underline="0" font-alignment="1" strokeStyle="0" markerStart="0" markerEnd="0" shadowEnabled="0" shadowOffsetX="0" shadowOffsetY="2" shadowBlur="4" shadowOpacity="160" blurEnabled="0" blurRadius="4" transform="matrix(1.27928,0,0,1.27928,82.1822,83.9746)" pers-center="0,0" pers-size="0,0" pers-start="0,0" pers-end="0,0" locked="0" mesh="" flag=""/>
            <path id="shapePath29" d="M83.7987,82.9938 C84.2164,83.6799 83.8313,84.6753 82.9385,85.2171 C82.0457,85.7588 80.9833,85.6417 80.5656,84.9555 C80.1479,84.2694 80.5331,83.2739 81.4259,82.7322 C82.3187,82.1905 83.381,82.3076 83.7987,82.9938 Z" style="stroke:none;fill-rule:nonzero;fill:#e6180a;fill-opacity:1;"/>
        </g>
        <g id="Shape30">
            <desc shapeID="30" type="0" basicInfo-basicType="0" basicInfo-roundedRectRadius="12" basicInfo-polygonSides="6" basicInfo-starPoints="5" bounding="rect(-0.783478,-0.906845,1.56696,1.81369)" text="" font-familyName="" font-pixelSize="20" font-bold="0" font-underline="0" font-alignment="1" strokeStyle="0" markerStart="0" markerEnd="0" shadowEnabled="0" shadowOffsetX="0" shadowOffsetY="2" shadowBlur="4" shadowOpacity="160" blurEnabled="0" blurRadius="4" transform="matrix(1.27928,0,0,1.27928,89.7127,78.3783)" pers-center="0,0" pers-size="0,0" pers-start="0,0" pers-end="0,0" locked="0" mesh="" flag=""/>
            <path id="shapePath30" d="M90.7149,78.3783 C90.7149,79.019 90.2662,79.5384 89.7127,79.5384 C89.1591,79.5384 88.7104,79.019 88.7104,78.3783 C88.7104,77.7375 89.1591,77.2181 89.7127,77.2181 C90.2662,77.2181 90.7149,77.7375 90.7149,78.3783 Z" style="stroke:none;fill-rule:nonzero;fill:#e6180a;fill-opacity:1;"/>
        </g>
        <g id="Shape31">
            <desc shapeID="31" type="0" basicInfo-basicType="0" basicInfo-roundedRectRadius="12" basicInfo-polygonSides="6" basicInfo-starPoints="5" bounding="rect(-0.836892,-0.667085,1.67378,1.33417)" text="" font-familyName="" font-pixelSize="20" font-bold="0" font-underline="0" font-alignment="1" strokeStyle="0" markerStart="0" markerEnd="0" shadowEnabled="0" shadowOffsetX="0" shadowOffsetY="2" shadowBlur="4" shadowOpacity="160" blurEnabled="0" blurRadius="4" transform="matrix(1.27928,0,0,1.27928,75.4721,90.2138)" pers-center="0,0" pers-size="0,0" pers-start="0,0" pers-end="0,0" locked="0" mesh="" flag=""/>
            <path id="shapePath31" d="M76.4916,89.4872 C76.6113,89.6245 76.5172,89.902 76.2467,90.2093 C75.9762,90.5166 75.5732,90.8039 75.1981,90.9568 C74.8229,91.1097 74.5364,91.1034 74.4526,90.9405 C74.3329,90.8032 74.427,90.5257 74.6975,90.2183 C74.968,89.911 75.371,89.6238 75.7461,89.4709 C76.1213,89.318 76.4078,89.3242 76.4916,89.4872 Z" style="stroke:none;fill-rule:nonzero;fill:#e6180a;fill-opacity:1;"/>
        </g>
        <g id="Shape32">
            <desc shapeID="32" type="0" basicInfo-basicType="0" basicInfo-roundedRectRadius="12" basicInfo-polygonSides="6" basicInfo-starPoints="5" bounding="rect(-2.70566,-2.59083,5.41132,5.18166)" text="" font-familyName="" font-pixelSize="20" font-bold="0" font-underline="0" font-alignment="1" strokeStyle="0" markerStart="0" markerEnd="0" shadowEnabled="0" shadowOffsetX="0" shadowOffsetY="2" shadowBlur="4" shadowOpacity="160" blurEnabled="0" blurRadius="4" transform="matrix(1.27928,0,0,1.27928,58.6563,102.399)" pers-center="0,0" pers-size="0,0" pers-start="0,0" pers-end="0,0" locked="0" mesh="" flag=""/>
            <path id="shapePath32" d="M55.195,103.487 L59.9135,99.0848 L62.1176,101.311 L57.399,105.714 L55.195,103.487 Z" style="stroke:none;fill-rule:evenodd;fill:#e6180a;fill-opacity:1;"/>
        </g>
        <g id="Shape33">
            <desc shapeID="33" type="0" basicInfo-basicType="0" basicInfo-roundedRectRadius="12" basicInfo-polygonSides="6" basicInfo-starPoints="5" bounding="rect(-3.45459,-3.06518,6.90917,6.13035)" text="" font-familyName="" font-pixelSize="20" font-bold="0" font-underline="0" font-alignment="1" strokeStyle="0" markerStart="0" markerEnd="0" shadowEnabled="0" shadowOffsetX="0" shadowOffsetY="2" shadowBlur="4" shadowOpacity="160" blurEnabled="0" blurRadius="4" transform="matrix(1.27928,0,0,1.27928,49.921,109.087)" pers-center="0,0" pers-size="0,0" pers-start="0,0" pers-end="0,0" locked="0" mesh="" flag=""/>
            <path id="shapePath33" d="M45.5016,110.737 L52.379,105.166 L54.3403,107.438 L47.4629,113.009 L45.5016,110.737 Z" style="stroke:none;fill-rule:evenodd;fill:#e6180a;fill-opacity:1;"/>
        </g>
        <g id="Shape34">
            <desc shapeID="34" type="0" basicInfo-basicType="0" basicInfo-roundedRectRadius="12" basicInfo-polygonSides="6" basicInfo-starPoints="5" bounding="rect(-0.911835,-0.887028,1.82367,1.77405)" text="" font-familyName="" font-pixelSize="20" font-bold="0" font-underline="0" font-alignment="1" strokeStyle="0" markerStart="0" markerEnd="0" shadowEnabled="0" shadowOffsetX="0" shadowOffsetY="2" shadowBlur="4" shadowOpacity="160" blurEnabled="0" blurRadius="4" transform="matrix(1.27928,0,0,1.27928,42.3515,115.294)" pers-center="0,0" pers-size="0,0" pers-start="0,0" pers-end="0,0" locked="0" mesh="" flag=""/>
            <path id="shapePath34" d="M43.3332,114.485 C43.5625,114.745 43.5797,115.154 43.3778,115.551 C43.176,115.948 42.7879,116.268 42.368,116.383 C41.9481,116.499 41.5645,116.391 41.3699,116.103 C41.1406,115.843 41.1234,115.434 41.3252,115.037 C41.5271,114.64 41.9152,114.32 42.3351,114.205 C42.755,114.089 43.1386,114.197 43.3332,114.485 Z" style="stroke:none;fill-rule:nonzero;fill:#e6180a;fill-opacity:1;"/>
        </g>
        <g id="Shape35">
            <desc shapeID="35" type="0" basicInfo-basicType="0" basicInfo-roundedRectRadius="12" basicInfo-polygonSides="6" basicInfo-starPoints="5" bounding="rect(-2.97286,-3.37151,5.94573,6.743)" text="" font-familyName="" font-pixelSize="20" font-bold="0" font-underline="0" font-alignment="1" strokeStyle="0" markerStart="0" markerEnd="0" shadowEnabled="0" shadowOffsetX="0" shadowOffsetY="2" shadowBlur="4" shadowOpacity="160" blurEnabled="0" blurRadius="4" transform="matrix(1.27928,0,0,1.27928,45.661,190.316)" pers-center="0,0" pers-size="0,0" pers-start="0,0" pers-end="0,0" locked="0" mesh="" flag=""/>
            <path id="shapePath35" d="M42.6284,186.657 L44.4445,186.003 L47.0683,187.406 L49.4394,189.627 L49.4641,191.982 L44.3974,194.629 L41.8579,192.938 L42.1106,187.876 " style="stroke:none;fill-rule:nonzero;fill:#e6180a;fill-opacity:1;"/>
        </g>
        <g id="Shape36">
            <desc shapeID="36" type="0" basicInfo-basicType="0" basicInfo-roundedRectRadius="12" basicInfo-polygonSides="6" basicInfo-starPoints="5" bounding="rect(-7.27045,-17.3436,14.5409,34.6872)" text="" font-familyName="" font-pixelSize="20" font-bold="0" font-underline="0" font-alignment="1" strokeStyle="0" markerStart="0" markerEnd="0" shadowEnabled="0" shadowOffsetX="0" shadowOffsetY="2" shadowBlur="4" shadowOpacity="160" blurEnabled="0" blurRadius="4" transform="matrix(1.27928,0,0,1.27928,62.4319,131.055)" pers-center="0,0" pers-size="0,0" pers-start="0,0" pers-end="0,0" locked="0" mesh="" flag=""/>
            <path id="shapePath36" d="M62.8531,110.71 L68.6581,108.867 L69.9985,110.86 L68.3112,133.221 L71.7328,137.206 L68.0635,151.349 L63.8961,153.242 L53.6265,149.359 L53.131,145.175 L57.0505,125.95 L61.8125,112.404 " style="stroke:none;fill-rule:nonzero;fill:#e6180a;fill-opacity:1;"/>
        </g>
        <g id="Shape37">
            <desc shapeID="37" type="0" basicInfo-basicType="0" basicInfo-roundedRectRadius="12" basicInfo-polygonSides="6" basicInfo-starPoints="5" bounding="rect(-10.3217,-4.57019,20.6435,9.1404)" text="" font-familyName="" font-pixelSize="20" font-bold="0" font-underline="0" font-alignment="1" strokeStyle="0" markerStart="0" markerEnd="0" shadowEnabled="0" shadowOffsetX="0" shadowOffsetY="2" shadowBlur="4" shadowOpacity="160" blurEnabled="0" blurRadius="4" transform="matrix(1.27928,0,0,1.27928,128.367,205.89)" pers-center="0,0" pers-size="0,0" pers-start="0,0" pers-end="0,0" locked="0" mesh="" flag=""/>
            <path id="shapePath37" d="M117.484,205.81 L133.524,202.121 L137.684,200.332 L140.709,200.044 L141.499,201.506 L141.571,208.737 L140.293,209.949 L117.645,211.737 L115.324,211.322 L115.163,208.23 " style="stroke:none;fill-rule:nonzero;fill:#e6180a;fill-opacity:1;"/>
        </g>
        <g id="Shape38">
            <desc shapeID="38" type="0" basicInfo-basicType="0" basicInfo-roundedRectRadius="12" basicInfo-polygonSides="6" basicInfo-starPoints="5" bounding="rect(-5.98931,-13.3023,11.9786,26.6045)" text="" font-familyName="" font-pixelSize="20" font-bold="0" font-underline="0" font-alignment="1" strokeStyle="0" markerStart="0" markerEnd="0" shadowEnabled="0" shadowOffsetX="0" shadowOffsetY="2" shadowBlur="4" shadowOpacity="160" blurEnabled="0" blurRadius="4" transform="matrix(1.27928,0,0,1.27928,173.11,87.9001)" pers-center="0,0" pers-size="0,0" pers-start="0,0" pers-end="0,0" locked="0" mesh="" flag=""/>
            <path id="shapePath38" d="M171.87,70.8828 C172.212,70.8828 174.395,71.2261 174.694,71.4847 C174.994,71.7409 176.662,73.8054 176.662,73.8054 L176.149,77.7579 L176.406,79.4343 L179.573,84.9762 L180.772,91.508 L179.573,99.8456 L177.348,104.917 L165.448,90.2618 L169.6,88.9311 L173.537,84.8916 L174.437,80.4641 L174.053,79.9915 L169.942,79.4766 L167.546,75.9098 L169.214,72.129 " style="stroke:none;fill-rule:nonzero;fill:#e6180a;fill-opacity:1;"/>
        </g>
        <g id="Shape39">
            <desc shapeID="39" type="0" basicInfo-basicType="0" basicInfo-roundedRectRadius="12" basicInfo-polygonSides="6" basicInfo-starPoints="5" bounding="rect(-54.9137,-84.6043,109.827,169.209)" text="" font-familyName="" font-pixelSize="20" font-bold="0" font-underline="0" font-alignment="1" strokeStyle="0" markerStart="0" markerEnd="0" shadowEnabled="0" shadowOffsetX="0" shadowOffsetY="2" shadowBlur="4" shadowOpacity="160" blurEnabled="0" blurRadius="4" transform="matrix(1.27928,0,0,1.27928,110.805,156.149)" pers-center="0,0" pers-size="0,0" pers-start="0,0" pers-end="0,0" locked="0" mesh="" flag=""/>
            <path id="shapePath39" d="M83.9795,79.9045 C81.0287,82.2102 77.7955,86.3318 74.307,87.6924 C72.9195,88.2222 70.4841,84.3369 69.2031,87.5655 C67.1443,86.9735 65.5859,87.9013 65.4868,90.0529 C63.1801,90.0603 60.2739,91.8214 58.9806,93.7939 C57.6873,95.7738 59.8923,97.9602 58.2992,99.771 C54.5828,103.99 48.8868,107.283 44.5684,110.875 C43.1041,112.081 40.1954,113.618 40.5919,115.919 C41.1369,119.063 46.0698,114.924 47.0906,114.053 C50.0439,111.626 53.0789,108.815 56.3196,106.82 C56.9638,106.425 58.4974,104.726 59.2605,104.88 C60.1054,105.072 61.8149,109.35 61.9909,110.2 C62.2659,111.693 60.5266,114.016 60.036,115.424 C58.376,120.2 56.5476,124.978 55.2245,129.851 C53.8321,134.982 53.7801,140.8 51.9095,145.77 C50.9507,148.282 48.9339,150.304 47.7397,152.734 C45.7477,156.794 44.1274,161.781 43.0323,166.166 C41.9917,170.335 41.8752,175.307 42.1949,179.598 C42.2741,180.376 43.1859,180.901 43.1735,181.588 C43.1562,182.334 41.7786,182.523 41.5631,183.344 C41.2831,184.406 42.1057,185.319 42.0883,186.314 C42.0189,190.137 40.3961,194.616 42.6904,198.253 C44.4123,200.822 51.362,197.442 52.353,195.39 C52.9278,194.308 52.1052,193.229 51.6915,192.283 C50.3239,189.44 48.1114,187.858 45.6635,186.008 C44.9722,185.468 44.4742,182.996 45.1011,182.237 C45.6635,181.59 46.7214,182.088 47.3978,182.222 C49.1321,182.6 51.2876,182.376 53.0963,182.336 C59.2804,182.182 64.8252,181.401 70.6872,179.182 C72.3918,178.536 75.4516,177.77 76.3857,176.118 C71.0861,176.367 66.3564,179.991 60.7768,179.103 C60.8636,179.118 64.7608,175.165 64.7608,175.165 C66.515,172.947 72.2655,166.171 73.5538,163.681 C74.4705,161.94 75.36,158.97 76.8218,157.612 C77.679,156.816 79.9559,157.142 81.0931,156.916 C83.8185,156.361 86.6628,155.349 88.91,153.605 C91.1398,151.874 89.9951,148.297 93.4811,147.429 C95.4112,146.949 97.1505,148.645 97.3041,150.501 C97.4329,152.055 96.0603,153.625 94.7199,154.234 C93.3473,154.859 91.9326,154.137 90.508,154.995 C87.0394,157.075 85.1564,161.749 84.0365,165.425 C83.7194,166.467 83.0257,168.775 83.8185,169.748 C84.7575,170.897 89.3361,169.405 90.508,168.989 C93.5332,167.989 97.5394,166.698 99.7817,164.293 C100.55,163.467 100.416,162.214 100.775,161.196 C101.704,158.557 103.969,157.055 106.568,158.503 C108.597,159.642 108.218,161.945 106.835,163.435 C104.955,165.447 102.247,164.186 100.641,166.43 C98.2951,169.713 97.4007,174.464 96.6202,178.359 C96.4344,179.289 95.9587,181.904 96.8531,182.588 C97.5964,183.167 98.9071,182.588 99.6776,182.344 C102.232,181.593 104.677,180.528 106.964,179.13 C109.206,177.76 110.876,176.12 112.809,174.379 C109.836,180.023 107.353,185.98 104.71,191.791 C103.771,193.853 102.953,197.606 101.288,199.151 C99.6776,200.643 95.3468,196.718 93.7314,196.114 C92.9262,195.808 91.343,195.43 90.7583,196.348 C89.2717,198.686 94.4672,201.917 95.7134,203.233 C91.6328,203.056 87.3986,202.076 83.3255,202.248 C82.0867,202.3 80.0203,202.238 79.1135,203.183 C78.1225,204.18 78.9798,205.153 80.1046,205.402 C83.1446,206.076 86.6702,206.653 89.7672,206.964 L89.7672,207.212 C87.1756,207.832 84.4528,207.14 81.8389,207.608 C80.9395,207.77 79.5645,208.056 79.1135,208.978 C78.5214,210.297 80.3523,211.021 81.3434,211.145 C84.6411,211.563 88.1865,211.438 91.5015,211.438 L91.5015,211.936 C88.2038,212.197 85.0499,212.826 81.8389,213.62 C80.8479,213.861 78.5709,214.592 79.7602,216.025 C80.6001,217.065 82.3344,216.955 83.5732,216.911 C86.97,216.747 90.3445,215.488 93.7314,215.418 C92.1383,217.523 88.9273,218.072 87.0419,220.144 C83.8681,223.714 89.5665,222.288 91.2538,221.388 C90.3247,224.131 88.9199,226.691 87.7851,229.347 C87.3961,230.255 86.5216,231.511 86.6702,232.581 C86.7941,233.422 87.5374,233.079 87.9016,232.581 C88.6969,231.295 89.2073,229.721 89.7672,228.353 L90.015,228.353 L89.5195,230.84 C91.7493,230.474 93.3003,224.88 93.9791,222.88 L94.2269,222.88 C93.9791,223.813 91.8484,227.39 92.8791,228.059 C93.4836,228.474 93.9791,227.248 94.155,226.86 C94.9702,224.97 95.9612,223.084 96.7045,221.139 L96.9522,221.139 L95.2179,226.611 C98.0696,225.761 98.3075,220.229 100.173,218.154 L97.6955,224.87 C99.6776,224.709 100.597,221.139 101.164,219.398 L101.412,219.398 L100.173,223.627 C101.967,223.333 102.698,220.724 103.146,219.149 L103.394,219.149 L102.651,222.383 C104.261,222.134 104.675,220.286 105.128,218.901 L105.376,218.901 C104.452,221.885 106.367,220.734 107.11,218.652 L107.358,218.652 L107.358,220.144 C108.922,219.896 109.34,218.261 109.836,216.911 L110.084,216.911 L109.836,219.149 C111.203,218.913 111.528,217.657 111.818,216.413 L112.066,216.413 L111.818,218.154 C113.408,218.027 113.897,216.562 114.295,215.17 L114.543,215.17 L114.295,217.408 C115.502,217.192 115.846,215.973 116.278,214.921 L116.525,214.921 L116.525,216.413 C118.012,216.167 118.436,214.784 118.755,213.428 L119.003,213.428 C118.426,216.744 120.202,214.04 121.28,213.578 C122.276,213.18 123.856,213.316 124.949,213.18 C124.949,223.522 124.122,233.205 127.38,243.277 C127.791,244.548 128.544,245.712 128.866,247.008 C129.327,248.858 128.138,251.522 130.893,251.734 C130.717,255.875 130.578,259.87 133.269,263.424 C135.189,265.912 140.551,263.001 141.708,260.937 C143.836,257.139 139.768,253.724 136.839,251.649 C135.794,250.923 133.063,249.274 133.7,247.557 C134.091,246.51 135.942,245.722 136.839,245.162 C139.228,243.67 141.462,241.909 143.516,239.973 C148.907,234.889 152.616,228.492 155.822,221.888 C159.635,214.005 162.361,204.568 162.361,195.771 C162.361,193.532 162.321,191.293 162.289,189.055 C162.282,188.562 162.262,187.132 161.417,187.314 C160.599,187.45 160.877,189.169 160.877,189.729 C160.949,192.288 160.703,194.776 160.349,197.263 C159.492,203.389 158.337,209.7 155.922,215.421 C154.289,219.401 151.71,223.132 150.223,227.111 L149.975,227.111 C153.196,216.928 153.778,205.474 151.66,195.024 C151.083,192.179 150.117,189.254 148.489,186.816 C148.117,186.199 147.703,185.075 146.95,184.826 C146.167,184.52 144.386,185.388 143.638,185.709 C141.143,186.816 138.578,187.759 136.101,188.806 C138.321,186.891 143.823,183.197 143.757,179.854 C143.714,177.862 141.799,176.369 142.094,174.131 C142.285,172.638 143.94,171.146 145.511,171.273 C146.115,171.327 146.596,171.668 147.067,172.024 C150.404,174.553 146.829,176.628 146.821,179.352 C146.814,181.849 148.239,185.334 149.462,187.485 C150.221,188.858 152.007,192.734 154.071,191.895 C155.176,191.443 155.77,189.808 156.246,188.813 C157.562,186.072 159.328,182.762 158.815,179.6 C158.466,177.451 154.898,174.874 158.548,173.133 C159.762,172.534 161.006,173.698 161.201,174.874 C161.457,176.399 160.176,177.859 160.129,179.352 C160.069,183.125 163.508,186.164 166.179,188.241 C167.066,188.943 172.383,192.418 173.057,189.99 C173.359,188.906 172.266,187.246 171.82,186.316 C170.284,183.177 168.656,180.13 167.415,176.864 C165.825,172.675 164.001,168.656 163.213,164.179 C162.482,160.04 162.958,155.473 161.162,151.535 C159.933,148.866 157.854,146.673 155.414,145.071 C154.125,144.228 152.312,143.66 151.308,142.444 C150.567,141.546 151.36,140.315 151.43,139.305 C151.613,136.629 150.634,134.087 151.851,131.413 C152.287,130.458 154.103,129.721 154.923,129.107 C156.591,127.764 157.941,126.284 160.126,125.998 C163.753,125.523 167.271,130.06 167.559,133.335 C166.429,133.338 165.388,133.408 164.338,133.875 C158.01,136.693 164.388,147.332 170.232,142.078 C172.514,140.007 170.668,137.94 170.963,135.574 C171.082,134.611 171.962,133.925 172.378,133.087 C173.146,131.535 173.508,129.107 173.411,127.366 C173.131,123.587 170.205,120.247 170.351,116.421 C170.532,111.713 176.595,107.375 178.631,103.238 C181.436,97.4453 181.897,89.8987 179.538,83.837 C178.832,82.0212 177.224,80.6034 176.577,78.8747 C176.23,78.0091 177.142,77.0216 177.197,76.1262 C177.392,72.9573 175.49,69.9501 172.021,70.2535 C168.431,70.5669 165.961,74.9621 167.99,78.116 C169.296,80.1855 171.719,80.775 174.003,80.3547 C173.944,87.3417 166.137,91.1274 159.881,90.1971 C156.291,89.6648 153.523,87.66 149.723,87.8267 C146.953,87.9486 144.465,88.9584 141.794,89.5579 C140.917,89.7146 139.53,90.3041 138.687,89.8066 C135.318,87.9212 136.787,83.8942 137.087,81.1009 C139.069,82.4988 141.403,83.5882 143.774,82.1854 C147.307,80.1059 146.581,74.002 142.538,73.0095 C140.642,72.5444 138.41,73.303 137.248,74.8924 C136.713,75.6287 136.681,76.8052 135.967,77.3848 C134.557,78.5289 132.251,78.6657 130.695,79.9045 C127.387,82.5361 126.294,87.8167 126.721,91.7965 C126.894,93.4332 127.422,95.2863 128.165,96.7712 C128.73,97.893 129.867,98.8333 129.352,100.211 C128.368,102.838 126.086,105.164 124.897,107.758 C123.951,109.748 124.104,112.265 123.101,114.135 C122.608,115.056 121.471,115.479 120.812,116.282 C119.731,117.603 119.944,119.334 120.234,120.899 C116.766,120.08 112.398,122.573 113.297,126.371 C111.798,125.329 109.878,123.883 108.094,123.418 C100.508,121.645 92.4604,127.93 85.5256,130.107 C83.8829,130.624 81.8166,131.159 80.0971,131.094 C78.8583,131.035 77.0571,130.39 75.9546,131.102 C74.0692,132.338 76.8763,134.037 77.3718,134.967 C77.9317,135.989 76.2792,135.614 75.8852,135.427 C74.3987,134.728 70.4345,132.977 69.6912,131.515 C69.1511,130.388 69.6912,127.906 69.6863,126.62 C69.5847,121.523 70.8706,116.491 70.93,111.442 C70.93,109.895 71.2744,108.243 71.153,106.716 C71.0812,105.808 70.5411,104.91 70.9771,104.022 C71.6064,102.738 72.8626,101.741 73.5662,100.455 C74.5399,98.689 74.8645,96.6717 76.3015,95.1793 C77.8698,93.5327 80.9271,92.0502 82.0024,89.9857 C82.4855,89.0604 81.5862,88.2023 81.9776,87.3665 C82.3072,86.5979 83.8928,85.9164 84.5593,85.4488 C86.7891,83.9016 88.8703,82.2177 90.9961,80.5362 C91.7295,79.9542 92.8394,78.1981 93.8478,79.198 C95.8051,81.1382 94.5713,88.3441 91.9178,89.3067 C90.5031,89.8041 89.1057,87.767 87.2847,88.5605 C85.974,89.0729 85.3026,90.4384 85.3026,91.794 C85.2233,96.612 93.107,95.8111 91.7443,91.0478 C97.6187,89.436 96.3997,81.8521 97.7426,77.3673 C98.2579,75.6461 100.138,74.4248 100.416,72.8901 C101.479,72.5742 102.455,71.0793 103.449,72.4498 C104.38,73.7781 103.32,78.1136 103.389,79.8547 C103.592,84.1504 104.876,88.063 103.24,92.2915 C102.869,93.2367 102.532,94.7789 101.603,95.3037 C100.944,96.0076 98.8526,95.6022 97.537,96.2166 C95.0817,97.9677 95.6441,103.572 100.527,101.838 C103.161,100.905 101.741,99.1168 103,97.4577 C104.311,95.7265 106.409,94.6595 107.601,92.7915 C110.311,88.5754 108.914,83.5932 108.096,79.111 C107.849,77.7977 107.269,72.6961 109.573,72.6961 C110.445,72.6961 110.817,73.987 111.057,74.6337 C111.875,76.8724 112.69,79.0463 113.195,81.3496 C114.29,86.4114 114.9,93.4531 111.726,98.0149 C110.678,99.5073 108.428,98.786 107.601,100.756 C106.771,102.91 107.764,105.32 110.079,105.843 C112.556,106.41 114.387,104.36 114.281,101.997 C114.241,101.122 113.54,100.067 113.976,99.2611 C114.667,97.9602 115.995,97.1269 116.674,95.7788 C118.872,91.4085 119.204,85.205 117.586,80.6059 C116.273,76.9768 110.316,72.6463 111.54,68.6666 C112.554,65.3683 116.411,65.9529 118.995,64.5873 C124.848,61.4955 126.22,57.2421 124.206,51.5461 C124.065,50.5511 125.284,49.5811 124.686,48.5563 C124.151,47.6384 122.96,47.7728 122.405,48.5563 C121.295,50.1382 123.324,51.2551 121.31,52.7947 C120.061,53.7673 118.431,53.4066 117.016,53.9165 C116.359,54.1553 115.893,54.8866 115.217,55.0135 C114.157,55.2348 113.198,54.4041 112.192,55.2348 C110.567,56.481 111.07,60.1225 108.096,60.4583 C103.498,60.8737 103.855,57.3217 101.538,54.4886 C99.7346,52.2823 96.9473,50.9615 94.2219,50.3173 C90.1711,49.3622 85.5999,50.4641 83.0653,54.0309 C81.5862,56.0979 80.9123,61.1473 77.622,61.0354 C76.3386,60.9906 73.0806,59.9732 72.5776,58.6624 C71.9236,57.0556 73.0013,55.4811 71.1555,54.2399 C69.4113,53.0982 66.8048,53.8767 66.3217,55.9835 C65.8708,57.9684 66.7206,60.1648 68.9504,60.406 C69.8498,60.5055 70.7962,59.9583 71.6337,60.3737 C73.861,61.5627 75.5631,63.6073 78.3653,63.0775 C82.0148,62.386 83.0727,57.4734 85.7981,55.307 C89.1577,52.6505 95.3542,54.914 98.6816,56.583 C99.8808,57.2247 101.818,58.2197 102.068,59.7121 C102.346,61.3512 98.9294,60.2817 98.1861,60.2095 C94.0683,59.62 89.2667,60.8836 87.0964,64.6918 C85.5256,67.4453 86.695,70.4177 82.825,71.5768 C81.7621,71.9001 80.1591,72.3976 79.2349,71.5121 C78.0383,70.4077 78.5437,68.4551 76.626,67.8358 C74.5721,67.1766 72.2803,68.1019 71.9781,70.4102 C71.9136,70.9102 71.9781,71.4251 72.1317,71.9026 C73.4076,75.9496 76.5889,72.9573 79.1061,73.2806 C81.5416,73.594 83.8111,74.3129 86.0335,72.5444 C88.8282,70.3207 88.2732,66.9279 92.2374,65.5201 C93.88,64.943 98.9987,63.5501 99.7569,65.9354 C100.302,67.6716 97.9036,68.771 96.8408,69.5944 C94.3731,71.5071 91.9599,73.5393 89.512,75.5367 C88.744,76.2107 85.0152,79.1085 83.9795,79.9045 M113.304,63.4381 C115.752,63.1894 118.688,60.2867 119.357,57.966 C119.652,56.971 119.122,55.4786 119.716,54.5682 C120.388,53.5583 123.349,52.1555 124.149,53.5086 C126.768,57.966 121.205,63.4804 117.266,63.9679 C116.03,64.1197 113.8,65.137 113.304,63.4381 M69.2031,54.5831 C72.2184,54.1877 73.0137,59.2196 69.9464,59.6524 C66.671,60.115 65.9823,55.001 69.2031,54.5831 M111.57,58.7122 C111.486,59.4708 111.818,60.9831 112.92,60.0976 C113.374,59.7295 111.149,57.4685 112.462,56.1278 C113.21,55.3816 114.395,56.0606 115.286,55.9338 C116.141,55.8119 117.021,54.7946 117.933,55.1478 C119.075,55.5955 118.44,57.9809 118.012,58.7346 C116.897,60.7344 114.117,63.5799 111.57,63.1198 C108.78,62.6098 109.823,59.7643 111.57,58.7122 M115.039,57.2197 L116.03,58.9609 C117.65,57.966 116.773,56.3939 115.039,57.2197 M112.809,59.8688 C112.72,59.9583 112.333,60.1673 112.172,60.1051 C112.011,60.0429 111.788,58.2943 111.788,58.2943 C111.788,58.2943 112.898,59.7792 112.809,59.8688 M105.872,60.8886 C108.77,60.2046 111.293,66.1941 110.396,68.4129 C109.63,70.2858 108.396,68.781 107.11,69.0969 C106.367,69.2809 106.119,70.1639 105.361,70.3107 C104.881,70.4052 104.338,70.1714 104.323,69.659 C104.293,68.6094 105.941,68.286 105.507,67.1791 C105.049,66.0126 102.155,66.8234 102.403,65.4305 C102.695,63.7839 104.762,65.4305 105.354,64.3659 C105.926,63.3784 103.954,61.3512 105.872,60.8886 M74.6539,68.7462 C77.8401,68.1641 79.1581,72.7682 75.6449,73.3304 C72.5999,73.8204 71.4999,69.3406 74.6539,68.7462 M172.271,189.796 C167.564,188.883 162.319,184.975 161.07,180.095 C160.369,177.359 164.197,173.785 159.883,172.019 C157.78,171.143 156.06,174.131 156.063,175.867 C156.065,177.685 157.569,178.491 158.005,180.095 C158.694,182.612 156.415,186.401 155.322,188.552 C154.928,189.299 154.418,190.681 153.441,190.811 C151.952,191.04 150.174,186.938 149.693,185.816 C148.952,184.085 147.636,181.523 147.82,179.598 C147.926,178.486 148.816,177.665 149.106,176.613 C149.812,174.024 148.865,171.39 146.256,170.432 C144.426,169.758 142.045,171.399 141.497,173.133 C140.558,175.902 143.088,177.75 142.741,180.098 C142.225,183.58 136.544,186.931 134.116,189.052 L133.868,189.052 C131.701,187.11 131.886,184.326 131.535,181.59 C131.391,180.595 131.059,178.911 131.639,178.006 C133.061,175.869 136.098,175.543 135.486,172.138 C134.832,168.524 130.4,168.051 128.269,170.656 C126.19,173.188 128.398,175.787 127.253,178.357 C125.4,182.515 120.987,185.672 117.767,188.555 C117.767,188.555 116.51,188.545 116.265,188.296 C116.02,188.047 115.475,187.418 115.249,186.771 C114.632,185 114.402,182.451 114.618,180.595 C114.793,178.767 114.186,175.869 114.945,174.198 C115.596,172.782 118.507,172.394 119.622,171.215 C122.14,168.556 118.993,164.241 115.784,164.731 C113.361,165.101 111.424,167.736 111.62,170.151 C111.711,171.285 112.608,172.685 111.962,173.755 C109.226,178.279 102.088,180.919 97.2025,181.841 C97.2025,177.364 98.6221,169.711 102.039,166.499 C103.855,164.791 106.667,166.261 108.352,163.435 C110.153,160.45 107.928,156.983 104.638,156.776 C102.331,156.632 100.505,158.958 99.9303,160.948 C99.742,161.694 99.9303,162.689 99.5116,163.278 C97.6187,165.731 93.4886,166.775 90.7632,167.808 C89.7226,168.196 85.6544,169.594 84.817,168.509 C84.0043,167.43 85.5355,164.728 85.9418,163.686 C87.0468,160.818 88.5804,157.321 91.5065,155.806 C93.6793,154.682 95.8596,156.038 97.5196,153.488 C99.6826,150.113 96.9076,145.098 92.7453,146.538 C89.5244,147.648 90.2677,150.677 88.4268,152.625 C85.4364,155.766 79.9287,156.224 75.8976,156.224 C76.3634,152.493 80.1863,146.653 83.3725,144.685 C84.4032,144.048 85.4686,144.66 86.5513,144.417 C88.7811,143.902 90.7508,141.128 90.1636,138.823 C89.6037,136.626 86.467,135.828 84.5692,136.576 C83.816,136.882 83.1619,137.75 82.3394,137.838 C81.4945,137.93 80.8528,136.9 80.335,136.397 C78.9376,135.091 76.7028,133.868 76.3931,131.848 C79.9881,131.848 83.3304,131.848 86.7668,130.604 C92.3315,128.552 97.8863,124.684 103.894,123.936 C107.968,123.428 110.25,127.122 114.053,127.122 C114.035,126.276 113.711,125.204 113.998,124.396 C115.002,121.585 119.211,122.971 120.593,121.152 C121.28,120.192 120.792,118.939 121.203,117.919 C121.733,116.573 123.22,116.123 123.856,114.934 C124.786,113.131 124.706,110.832 125.536,108.964 C126.805,106.074 129.414,103.243 130.278,100.259 C130.846,98.2686 128.767,95.9355 128.175,94.0401 C126.936,90.1449 127.266,86.1776 129.334,82.5983 C131.148,79.4095 133.717,79.6433 136.346,77.937 C138.402,76.6286 139.636,72.5294 143.038,74.2557 C145.659,75.5839 145.714,79.9418 143.038,81.2775 C140.724,82.4316 139.322,80.2104 137.34,80.6109 C133.784,81.2476 135.853,88.354 137.25,89.9857 C138.291,91.2095 139.629,91.0777 141.056,90.809 C144.076,90.1449 146.861,89.1226 149.975,88.8614 C152.948,88.6127 155.178,90.5603 157.904,91.1871 C163.644,92.59 172.943,90.0628 174.504,83.5932 C174.751,82.5386 175.247,80.8571 174.395,79.9691 C173.622,79.1806 172.499,79.4741 171.53,79.2776 C169.538,78.8772 168.037,76.9171 168.391,74.885 C169.001,71.4027 173.659,70.2634 175.646,73.1438 C177.063,75.1984 175.212,77.0614 175.703,79.1135 C175.948,80.1109 177.06,80.9317 177.561,81.8496 C178.715,83.9738 179.424,86.1801 179.84,88.5654 C180.94,94.856 179.303,101.002 175.72,106.226 C173.713,109.151 170.197,111.705 169.623,115.429 C168.969,119.675 172.076,123.264 172.479,127.368 C172.64,129.01 172.365,131.306 171.706,132.84 C171.345,133.664 170.5,134.149 170.351,135.084 C169.957,137.566 171.719,139.944 169.018,141.894 C166.263,143.884 161.95,140.8 162.713,137.566 C162.998,136.375 163.897,135.027 165.086,134.639 C166.025,134.333 167.457,134.475 168.052,133.517 C168.736,132.418 167.871,130.602 167.286,129.607 C165.537,126.729 162.908,124.59 159.388,125.072 C157.819,125.286 156.625,126.503 155.424,127.428 C154.185,128.368 152.322,129.256 151.363,130.453 C149.534,132.729 150.453,136.325 150.463,138.813 C150.468,139.984 149.562,141.419 149.901,142.544 C150.399,144.17 153.347,145.188 154.683,146.026 C157.225,147.568 159.227,149.807 160.537,152.493 C162.921,157.386 162.068,164.111 163.58,169.407 C164.913,174.078 166.974,178.715 169.053,183.088 C170.138,185.319 171.595,187.435 172.271,189.796 M89.5195,77.3027 C90.7583,76.9345 91.1472,79.1184 89.9803,79.4194 C88.6597,79.7602 88.2608,77.6783 89.5195,77.3027 M81.3434,82.3421 L81.0956,82.5908 L81.3434,82.3421 M82.3344,82.7127 C84.7154,82.2625 84.2719,85.1702 82.0867,85.501 C79.6908,85.8667 80.5877,83.0435 82.3344,82.7127 M70.764,87.9909 C72.8997,87.2297 73.7124,93.7839 72.1341,94.0526 C70.7665,94.2888 69.2031,88.5605 70.764,87.9909 M69.4509,96.52 C67.4688,96.1867 66.0715,91.3662 66.9089,89.6251 C67.8875,87.5954 69.1313,90.7046 69.2031,91.5453 C69.2899,92.2094 69.4113,92.8661 69.441,93.5352 C69.4509,94.5301 69.4509,95.5276 69.4509,96.52 M80.3523,89.0579 C79.6809,91.2966 76.8837,92.2219 75.4665,93.8287 C73.8065,95.6693 73.3383,98.6492 71.6807,100.676 C70.7863,101.838 68.5862,102.395 67.9445,103.368 C67.4688,104.064 68.9554,104.378 69.3023,104.728 C70.0604,105.475 69.6987,107.136 69.0619,107.82 C68.1477,108.755 64.248,110.449 63.0835,109.549 C62.0974,108.785 61.8298,107.074 61.4086,105.972 C61.1237,105.231 60.5316,104.355 60.6554,103.527 C60.762,102.676 62.635,100.671 63.5047,100.649 C64.243,100.632 64.6939,101.296 65.4744,101.017 C66.7825,100.55 66.4778,99.0322 67.2781,98.1642 C68.5392,96.7812 70.0406,97.9602 70.4419,95.2738 C74.7678,95.7937 75.8084,89.5554 80.3523,89.0579 M87.5374,89.4136 C91.006,88.4062 92.884,93.085 89.5095,94.1147 C86.4794,95.04 84.4998,90.3016 87.5374,89.4136 M76.3882,89.5554 C76.2048,90.5827 75.6276,90.7095 74.6539,90.7991 C74.8347,89.7146 75.355,89.5902 76.3882,89.5554 M63.8466,91.4831 C64.6369,91.2543 65.0507,92.2069 65.2291,92.789 C65.5908,93.9705 67.0402,98.7885 65.4322,99.4402 C64.6394,99.761 64.0968,98.8581 63.854,98.2612 C63.3857,97.107 61.9909,92.0428 63.8466,91.4831 M62.2659,100.5 C60.5316,99.9277 58.9756,96.0225 60.036,94.351 C61.0271,92.789 62.0181,94.8336 62.1915,95.7738 C62.2659,96.433 62.2659,97.1021 62.3699,97.7637 C62.4963,98.7586 62.4418,99.5496 62.2659,100.5 M159.388,104.48 C159.388,104.48 157.847,103.455 156.058,102.972 C154.678,102.599 153.124,102.738 152.203,102.738 C152.386,101.291 153.243,99.4526 152.698,98.0124 C150.944,92.9706 141.948,96.2713 139.071,97.9602 C132.104,102.082 127.424,110.837 128.564,118.909 C128.722,120.023 128.418,121.03 128.846,122.142 C130.776,127.117 137.523,126.629 141.797,126.164 C151.288,125.125 162.269,114.476 159.388,104.48 M98.9343,96.3907 C102.589,95.4679 102.732,100.808 99.8832,101.425 C96.209,102.241 95.3567,97.2936 98.9343,96.3907 M142.045,107.216 L139.319,109.952 C141.898,109.507 145.228,107.969 146.363,105.475 C147.495,102.9 145.142,98.5099 142.292,98.2612 C142.941,100.607 147.656,104.977 143.283,106.469 C143.283,103.393 142.788,100.092 139.071,100.002 C140.157,96.3807 149.475,95.0823 151.772,98.097 C152.936,99.6242 150.627,101.88 152.064,103.077 C154.128,104.795 158.146,102.629 159.246,106.469 C160.198,109.793 157.842,113.434 155.986,115.921 C151.177,122.426 139.753,129.194 131.639,124.13 C129.617,122.824 129.161,120.15 129.161,117.911 C129.154,113.086 130.382,109.775 132.949,105.723 C133.789,104.397 135.107,101.375 136.827,101.04 C137.585,100.883 137.932,102.487 138.157,102.985 C138.975,104.912 139.941,106.589 142.045,107.216 M59.8378,99.7536 C60.7149,99.5919 61.2724,100.806 61.0296,101.505 C60.6976,102.646 58.5941,104.883 57.3553,104.977 C56.5699,104.977 55.5788,103.858 55.9703,103.114 C56.3642,102.308 58.993,99.8705 59.8378,99.7536 M109.836,99.9028 C113.109,98.6218 114.85,103.574 112.043,104.753 C108.686,106.166 106.783,101.107 109.836,99.9028 M142.369,106.464 C142.196,106.594 142.03,106.452 141.735,106.355 C141.44,106.258 140.759,105.539 140.389,105.116 C140.02,104.693 139.23,103.542 139.23,103.542 C139.23,103.542 139.976,103.791 140.699,103.134 C141.423,102.477 141.452,101.719 141.452,101.719 C141.452,101.719 141.827,102.149 142.258,103.442 C142.488,104.139 142.746,105.479 142.694,105.775 C142.642,106.071 142.543,106.335 142.369,106.464 M138.972,100.92 C139.495,100.395 139.787,100.607 140.067,100.706 C140.347,100.806 141.021,101.201 141.021,101.201 C141.021,101.201 140.427,101.117 139.74,101.738 C139.054,102.36 139.019,102.9 139.019,102.9 C139.019,102.9 138.715,102.241 138.673,101.898 C138.613,101.425 138.447,101.447 138.972,100.92 M47.4003,112.688 C44.5733,110.882 49.7713,106.84 51.86,106.34 C54.5482,105.723 52.6503,108.708 51.86,109.347 C51.2951,109.822 50.7153,110.283 50.1256,110.725 C49.2312,111.397 48.2873,112.004 47.4003,112.688 M149.23,108.708 L152.946,110.708 L155.919,112.937 C155.733,109.516 152.292,107.8 149.23,108.708 M131.639,113.185 L134.612,109.206 C132.545,109.345 131.136,111.113 131.639,113.185 M66.4778,109.785 C70.3478,109.138 68.9281,115.185 68.6655,117.663 C68.2121,121.573 67.9643,125.428 67.6943,129.353 C67.6026,130.709 66.9733,132.253 67.0972,133.582 C67.2731,135.82 69.0817,135.659 69.7953,137.141 C70.4395,138.489 69.8424,140.89 69.5921,142.287 C69.1759,144.603 67.8776,150.943 65.2142,151.66 C64.0696,151.988 62.8456,151.409 61.7679,151.1 C59.0376,150.319 54.5828,149.779 54.1666,146.267 C53.9089,144.19 54.7488,141.623 55.0462,139.551 C56.0372,132.636 58.1159,125.871 59.9989,119.155 C61.0271,115.451 62.0057,110.531 66.4778,109.785 M147.247,111.444 L146.009,111.444 C146.244,114.71 150.58,116.74 153.441,117.165 C153.437,115.546 153.37,112.74 152.133,111.549 C150.932,110.385 147.644,109.012 147.247,111.444 M143.779,119.404 L142.045,122.14 C146.46,121.448 144.77,117.429 143.531,114.678 C142.292,115.864 143.42,116.822 143.779,118.16 C141.371,117.794 138.933,115.18 137.337,113.434 C136.78,112.785 136.098,111.106 135.107,111.106 C132.313,111.106 132.815,116.752 133.992,118.105 C136.059,120.481 141.053,119.911 143.779,119.404 M140.062,111.195 C139.815,112.852 141.549,113.77 143.036,113.932 C142.912,112.312 141.457,111.693 140.062,111.195 M135.107,112.19 L140.806,118.658 C137.659,118.658 132.424,116.17 135.107,112.19 M147.716,111.621 C147.934,111.225 148.424,110.755 149.118,110.683 C149.812,110.683 150.347,111.188 150.347,111.188 C150.347,111.188 149.522,111.404 148.932,112.064 C148.343,112.723 148.199,113.932 148.199,113.932 C147.505,113.787 147.384,112.32 147.716,111.621 M150.463,113.561 C151.142,112.897 151.13,111.87 151.13,111.87 C151.13,111.87 151.895,112.432 152.262,113.459 C152.636,114.506 152.963,115.727 152.597,116.096 C152.23,116.464 150.961,115.867 150.171,115.501 C149.524,115.203 148.741,114.404 148.741,114.404 C148.741,114.404 149.824,114.185 150.463,113.561 M42.4451,114.334 C44.0753,114.247 43.5204,116.17 42.1973,116.277 C40.8074,116.426 41.1766,114.429 42.4451,114.334 M130.335,131.102 C129.751,131.656 130.759,132.383 131.143,132.617 C132.199,133.211 134.612,134.328 135.687,133.149 C136.685,132.047 131.096,130.38 130.335,131.102 M119.251,132.587 C120.737,139.004 128.15,142.372 133.868,143.72 C136.098,144.277 139.899,144.678 141.549,142.785 C136.487,141.469 131.859,141.541 127.179,138.653 C124.699,137.144 122.097,132.835 119.251,132.587 M78.6056,143.76 C75.0131,158.04 68.9083,169.745 60.15,177.252 C57.2413,179.747 54.179,180.841 50.3734,180.841 C49.588,180.841 47.4003,181.22 47.0683,180.267 C46.6372,179.133 55.0387,172.188 57.66,169.4 C63.3164,163.261 67.3821,156.244 70.1942,148.506 C71.6807,144.479 73.1549,140.422 73.1673,136.069 C74.1435,136.072 78.9921,138.773 78.6056,143.76 M78.8658,147.76 L80.1046,140.298 L77.627,136.318 C79.1111,136.723 80.3077,138.38 81.8389,138.556 C84.3165,138.82 86.7941,135.838 89.3782,138.494 C90.1091,139.255 89.8291,140.462 89.3807,141.292 C87.4209,144.914 84.812,142.362 82.3344,144.076 C80.9346,145.046 80.449,147.262 78.8658,147.76 M48.1436,174.126 C46.7611,173.685 51.0101,160.269 51.855,158 C52.5165,156.219 53.5943,153.16 54.9867,151.829 C55.7349,151.105 57.4692,151.344 57.6551,152.501 C57.9152,154.115 56.005,156.239 55.4376,157.709 C53.6389,162.36 52.2836,166.82 51.087,171.638 C50.7426,173.004 49.5261,174.566 48.1436,174.126 M115.534,165.753 C118.086,165.251 120.46,167.208 119.251,169.897 C118.594,171.39 115.876,172.904 114.295,173.213 C112.938,173.481 112.665,171.39 112.531,170.395 C112.242,168.308 113.304,166.191 115.534,165.753 M118.26,203.476 C117.764,201.735 120.155,198.161 120.93,196.512 C123.606,190.818 126.683,185.02 128.841,179.1 C129.567,177.11 127.427,174.892 128.118,172.633 C128.718,170.574 131.304,169.151 133.301,170.218 C135.348,171.342 134.954,173.874 133.569,175.367 C132.585,176.399 130.999,176.73 130.152,177.901 C128.663,179.953 127.796,182.767 126.743,185.068 C123.951,191.164 121.48,197.611 118.26,203.476 M114.048,175.121 L110.656,183.578 L103.146,200.492 L102.898,200.492 C103.228,196.761 111.025,178.876 114.048,175.121 M114.048,178.354 C114.048,178.354 108.01,198.022 104.633,200.243 L110.723,186.065 L114.048,178.354 M130.648,179.847 L128.026,186.562 L120.489,202.979 L120.242,202.979 C121.109,198.086 124.545,192.823 126.607,188.304 C127.836,185.61 128.755,182.142 130.648,179.847 M126.436,181.588 L116.278,203.974 L116.03,203.974 C115.782,202.141 117.511,199.646 118.322,198.004 C120.182,194.273 121.82,190.351 123.646,186.562 C124.454,184.883 124.994,182.831 126.436,181.588 M130.895,183.578 C130.4,188.134 126.77,193.592 124.872,197.756 C124.198,199.248 123.614,201.569 122.224,202.482 L127.729,190.045 L130.895,183.578 M114.048,184.075 L109.692,194.273 L106.615,200.74 C106.367,198.83 108.022,196.208 108.845,194.522 C110.579,191.162 112.066,187.567 113.552,184.075 L114.048,184.075 M131.143,185.567 C131.537,187.736 130.479,189.356 129.622,191.288 C128.111,194.694 125.598,198.569 124.949,202.233 C127.097,202.233 127.674,200.827 128.485,198.999 C129.83,195.915 132.109,192.651 132.63,189.299 L132.382,189.299 L126.683,201.735 L126.436,201.735 C127.04,197.631 130.055,192.378 132.134,188.801 C132.134,188.801 133.67,190.045 134.116,190.045 C134.562,190.045 136.173,189.612 139.46,188.246 C139.899,188.102 147.949,185.567 146.938,187.137 C146.628,187.627 145.308,187.251 144.767,187.557 C144.767,187.557 138.422,188.629 138.876,190.793 C139.564,194.121 142.468,197.047 143.281,200.492 C145.421,209.197 143.159,218.174 141.13,226.609 C140.201,230.477 138.645,234.817 136.762,238.299 C135.722,240.232 133.581,242.421 133.058,244.518 C132.85,245.349 132.379,247.194 132.585,248 C132.825,249.035 133.792,250.047 133.603,251.191 C133.256,253.321 131.455,254.089 132.013,256.706 C132.132,257.303 132.36,257.885 132.592,258.447 C134.114,262.178 136.059,258.783 138.821,257.845 C139.436,257.636 140.367,257.213 140.972,257.634 C142.701,258.843 139.983,261.929 138.811,262.429 C137.793,262.877 135.801,263.758 134.703,263.27 C132.615,262.345 131.582,257.743 131.435,255.711 C131.349,254.507 131.946,253.161 131.487,251.992 C131.141,251.139 130.15,250.831 129.84,249.99 C129.406,248.948 130.026,247.824 129.746,246.756 C129.161,244.545 127.912,242.528 127.285,240.289 C126.034,235.859 125.673,231.173 125.239,226.609 C124.949,223.649 125.264,220.39 125.445,217.406 C125.551,216.179 126.024,214.67 125.544,213.441 C124.81,211.615 121.233,212.431 119.994,213.177 L119.746,213.177 C118.703,212.757 118.096,213.095 117.764,214.172 L117.516,214.172 C116.773,212.812 115.17,213.202 114.048,213.923 L112.313,213.923 L112.066,213.923 C110.827,213.513 108.597,214.67 107.854,215.665 C106.863,215.321 106.35,215.428 105.624,216.162 L99.6776,217.157 C100.726,215.309 103.984,215.257 105.872,214.918 C107.703,214.545 111.9,213.56 113.057,212.075 C114.295,210.56 114.404,206.984 114.048,205.218 L114.791,204.471 C116.444,204.728 120.051,203.924 121.233,202.73 L122.719,203.228 L123.215,202.233 L123.463,202.233 L124.454,202.73 C124.454,200.243 126.091,197.765 127.137,195.517 C128.665,192.236 129.974,188.938 131.143,185.567 M122.472,185.816 L119.714,192.283 L114.048,204.72 L113.8,204.72 L119.147,192.532 L122.472,185.816 M43.2677,186.714 C45.1531,185.824 49.6276,188.953 49.2808,191.04 C49.0132,192.646 47.705,191.858 46.7858,192.465 C46.2804,192.798 46.0723,193.46 45.5371,193.776 C42.3088,195.554 40.8966,187.833 43.2677,186.714 M114.295,186.811 C114.112,190.343 111.221,194.569 109.724,197.756 C109.172,198.935 108.746,200.546 107.606,201.238 C108.845,196.825 111.543,190.465 114.295,186.811 M133.868,245.015 C134.438,241.864 137.585,238.914 138.801,235.812 C141.879,227.853 144.408,219.251 144.995,210.69 C145.26,206.839 145.144,202.631 143.729,198.999 C142.778,196.559 140.201,193.338 139.968,190.796 C139.802,189 144.423,188.07 145.761,188.187 C147.436,188.333 147.807,190.478 148.211,191.786 C149.403,195.636 150.119,199.497 150.538,203.476 C151.549,213.177 145.54,231.094 144.862,232.827 C144.183,234.561 139.138,242.553 133.868,245.015 M147.991,188.055 C152.787,194.825 152.916,207.046 151.601,214.918 C151.115,217.819 150.696,220.766 149.973,223.624 C149.78,224.552 148.982,226.368 149.388,227.283 C149.881,228.412 151.212,226.858 151.549,226.36 C153.008,224.37 153.778,221.883 154.866,219.644 C158.516,212.212 161.011,203.621 161.367,195.268 L161.615,195.268 C161.615,206.752 157.123,219.249 151.016,228.848 C148.702,232.484 146.378,236.257 142.785,238.797 C147.944,229.365 152.941,210.436 150.927,199.85 C150.344,196.778 147.991,188.055 147.991,188.055 M119.251,188.801 C118.185,193.798 114.744,199.099 112.561,203.725 L112.313,203.725 L117.174,192.781 L119.251,188.801 M136.098,188.801 L136.098,189.05 L135.355,189.05 L136.098,188.801 M115.534,189.05 L109.588,201.984 L110.827,202.482 L115.195,193.03 L117.269,189.299 L111.075,202.979 L109.516,201.681 L111.57,196.718 L115.039,189.05 L115.534,189.05 M138.573,193.044 C136.594,193.308 132.875,199.927 136.098,199.698 C138.142,199.554 139.716,198.325 140.01,196.263 C140.152,195.283 140.134,192.833 138.573,193.044 M138.824,193.776 C140.295,196.544 138.328,198.641 135.603,198.999 C135.813,196.94 137.089,194.9 138.824,193.776 M114.048,206.71 L114.048,206.959 C113.015,208.145 113.441,210.846 112.412,211.685 C109.211,214.264 103.468,214.172 99.6776,215.548 C95.5747,217.075 92.2225,220.694 87.7851,221.385 C89.2197,218.649 94.7868,218.689 95.5276,215.426 C95.8819,213.861 93.1021,214.122 92.2448,214.214 C88.2187,214.67 84.4676,216.182 80.3523,215.416 L80.3523,215.167 L93.9791,212.182 C93.1095,209.446 90.9143,210.361 88.7663,210.441 C86.0459,210.488 82.2056,210.466 79.6091,209.695 L79.6091,209.446 C82.4955,208.215 85.9517,208.451 89.0239,208.451 C90.0125,208.451 92.3291,208.72 92.9881,207.809 C93.9296,206.596 90.8326,206.245 90.2627,206.066 C87.0121,205.041 83.2759,204.471 79.8568,204.471 C80.34,203.091 81.886,203.626 83.0777,203.539 C86.5364,203.28 89.621,204.223 92.9881,204.471 C94.1055,204.531 97.0241,204.894 97.1901,203.228 C97.2867,202.265 96.1173,201.616 95.4657,201.153 C93.9791,200.121 91.893,198.922 91.7493,197.009 L100.421,201.238 L108.845,203.228 L114.048,206.71 M132.382,201.934 C128.784,203.131 124.934,203.919 121.233,204.723 C119.746,205.034 117.856,204.79 116.57,205.643 C115.039,206.65 114.191,209.697 114.974,211.381 C115.742,213.03 119.59,212.003 120.985,211.936 C125.94,211.69 131.143,211.516 136.098,210.871 C137.55,210.692 140.062,210.941 141.195,209.839 C142.788,208.255 142.072,201.636 141.081,199.808 C140.407,198.561 134.25,201.312 132.382,201.934 M139.802,200.405 C140.724,200.492 140.964,201.487 141.031,202.233 C141.172,203.847 141.856,208.076 140.451,209.232 C139.225,210.242 136.589,209.777 135.085,209.973 C130.489,210.575 125.628,210.822 120.985,210.941 C119.573,210.978 117.444,211.695 116.109,211.036 C114.253,210.118 116.525,206.665 117.764,206.232 C122.296,204.641 127.486,204.501 132.134,203.006 C134.332,202.302 137.476,200.243 139.802,200.405 M133.125,212.075 C131.255,212.627 131.47,215.819 131.391,217.406 C131.143,223.03 131.391,228.713 131.639,234.32 C131.693,235.362 131.787,240.859 133.472,240.327 C134.983,239.849 135.851,236.426 136.24,235.066 C136.908,232.641 135.851,229.362 135.645,226.858 C135.343,223.676 135.603,220.39 135.603,217.157 C135.603,215.244 136.336,211.13 133.125,212.075 M133.621,239.543 C132.382,238.797 132.615,235.939 132.454,234.568 C131.842,229.385 132.134,224.122 132.134,218.898 C132.134,217.654 131.852,213.523 133.2,212.928 C135.851,211.687 134.572,218 134.716,219.147 C135.09,222.132 134.676,225.124 134.859,228.101 C135.008,229.942 135.915,231.992 135.712,233.822 C135.486,235.854 134.007,237.583 133.621,239.543 M115.286,213.675 L114.791,215.167 L114.543,215.167 L115.286,213.675 M117.021,213.675 L116.773,214.918 L116.525,214.918 L117.021,213.675 M111.322,214.172 L110.827,215.665 L110.579,215.665 L111.322,214.172 M113.057,214.172 L112.313,216.411 L112.066,216.411 L113.057,214.172 M109.34,215.167 L109.34,215.416 L108.597,216.411 L109.34,215.167 M106.863,215.913 L105.624,218.898 L105.376,218.898 L106.863,215.913 M110.579,215.913 L110.331,216.908 L110.084,216.908 L110.579,215.913 M104.633,216.659 L103.642,219.147 L103.394,219.147 L104.633,216.659 M108.349,216.659 L107.606,218.649 L107.358,218.649 L108.349,216.659 M102.651,216.908 L101.907,218.898 L101.66,218.898 L102.155,216.908 L102.651,216.908 M100.421,217.406 L100.421,218.152 L100.173,218.152 L100.421,217.406 M98.191,218.401 L97.2,221.137 L96.9522,221.137 L98.191,218.401 M101.66,219.147 L101.412,219.396 L101.66,219.147 M95.9612,219.396 L94.4747,222.878 L94.2269,222.878 L95.9612,219.396 M93.7314,220.39 L90.2627,228.35 L90.015,228.35 C90.3247,226.273 91.9029,221.51 93.7314,220.39 M134.364,259.691 C132.877,258.355 131.391,251.341 135.107,252 C136.044,252.164 140.107,255.587 139.522,256.544 C139.183,257.099 137.897,257.203 137.337,257.452 C136.155,257.95 135.204,258.728 134.364,259.691 Z" style="stroke:none;fill-rule:nonzero;fill:#000000;fill-opacity:1;"/>
        </g>
        <g id="Shape40">
            <desc shapeID="40" type="0" basicInfo-basicType="0" basicInfo-roundedRectRadius="12" basicInfo-polygonSides="6" basicInfo-starPoints="5" bounding="rect(-7.0919,-7.83581,14.1838,15.6716)" text="" font-familyName="" font-pixelSize="20" font-bold="0" font-underline="0" font-alignment="1" strokeStyle="0" markerStart="0" markerEnd="0" shadowEnabled="0" shadowOffsetX="0" shadowOffsetY="2" shadowBlur="4" shadowOpacity="160" blurEnabled="0" blurRadius="4" transform="matrix(1.27928,0,0,1.27928,67.893,219.759)" pers-center="0,0" pers-size="0,0" pers-start="0,0" pers-end="0,0" locked="0" mesh="" flag=""/>
            <path id="shapePath40" d="M59.4783,212.663 C57.1038,217.92 61.9193,224.744 61.9514,229.783 C65.7792,226.525 74.0652,225.739 76.4953,220.508 C77.6308,218.038 76.6373,215.145 74.2938,214.072 C71.9393,212.994 69.1112,214.11 67.9868,216.585 C69.1163,214.099 68.1288,211.222 65.7853,210.149 C63.4358,209.06 60.6138,210.193 59.4783,212.663 Z" style="stroke:none;fill-rule:nonzero;fill:#e6180a;fill-opacity:1;"/>
        </g>
        <g id="Shape41">
            <desc shapeID="41" type="0" basicInfo-basicType="0" basicInfo-roundedRectRadius="12" basicInfo-polygonSides="6" basicInfo-starPoints="5" bounding="rect(-7.05194,-7.48361,14.1039,14.9672)" text="" font-familyName="" font-pixelSize="20" font-bold="0" font-underline="0" font-alignment="1" strokeStyle="0" markerStart="0" markerEnd="0" shadowEnabled="0" shadowOffsetX="0" shadowOffsetY="2" shadowBlur="4" shadowOpacity="160" blurEnabled="0" blurRadius="4" transform="matrix(1.27928,0,0,1.27928,80.3024,245.213)" pers-center="0,0" pers-size="0,0" pers-start="0,0" pers-end="0,0" locked="0" mesh="" flag=""/>
            <path id="shapePath41" d="M80.3024,245.213 C77.2953,246.007 74.2881,246.801 71.281,247.595 C72.2967,247.277 73,246.363 73.6844,245.581 C75.1793,243.655 76.5038,241.549 77.393,239.26 C77.7903,238.122 78.1897,236.854 77.9033,235.639 M71.281,247.595 C72.5955,247.293 73.9225,247.85 75.1131,248.374 C77.2485,249.423 79.2196,250.822 80.9906,252.432 C81.6638,253.114 82.4325,253.823 82.7015,254.787 C81.9017,251.595 81.1022,248.405 80.3024,245.213 M82.7015,254.787 C82.389,253.35 82.9254,251.892 83.448,250.579 C84.4154,248.382 85.6985,246.326 87.217,244.489 C87.8225,243.837 88.4507,243.085 89.3238,242.831 C86.3167,243.625 83.3095,244.419 80.3024,245.213 M89.3238,242.831 C88.0093,243.133 86.6824,242.576 85.492,242.053 C83.3563,241.003 81.3852,239.604 79.6142,237.994 C78.941,237.312 78.1729,236.603 77.9033,235.639 C78.7031,238.831 79.5026,242.021 80.3024,245.213 " style="stroke:none;fill-rule:nonzero;fill:#e6180a;fill-opacity:1;"/>
        </g>
        <g id="Shape42">
            <desc shapeID="42" type="0" basicInfo-basicType="0" basicInfo-roundedRectRadius="12" basicInfo-polygonSides="6" basicInfo-starPoints="5" bounding="rect(-3.20473,-3.16667,6.40946,6.33334)" text="" font-familyName="" font-pixelSize="20" font-bold="0" font-underline="0" font-alignment="1" strokeStyle="0" markerStart="0" markerEnd="0" shadowEnabled="0" shadowOffsetX="0" shadowOffsetY="2" shadowBlur="4" shadowOpacity="160" blurEnabled="0" blurRadius="4" transform="matrix(1.27928,0,0,1.27928,111.088,242.641)" pers-center="0,0" pers-size="0,0" pers-start="0,0" pers-end="0,0" locked="0" mesh="" flag=""/>
            <path id="shapePath42" d="M114.698,244.65 C113.627,246.591 111.144,247.269 109.147,246.158 C107.15,245.047 106.407,242.573 107.479,240.633 C108.55,238.692 111.033,238.014 113.03,239.125 C115.027,240.236 115.769,242.71 114.698,244.65 Z" style="stroke:none;fill-rule:nonzero;fill:#000000;fill-opacity:1;"/>
        </g>
        <g id="Shape43">
            <desc shapeID="43" type="0" basicInfo-basicType="0" basicInfo-roundedRectRadius="12" basicInfo-polygonSides="6" basicInfo-starPoints="5" bounding="rect(-3.20473,-3.16667,6.40946,6.33333)" text="" font-familyName="" font-pixelSize="20" font-bold="0" font-underline="0" font-alignment="1" strokeStyle="0" markerStart="0" markerEnd="0" shadowEnabled="0" shadowOffsetX="0" shadowOffsetY="2" shadowBlur="4" shadowOpacity="160" blurEnabled="0" blurRadius="4" transform="matrix(1.27928,0,0,1.27928,112.069,251.89)" pers-center="0,0" pers-size="0,0" pers-start="0,0" pers-end="0,0" locked="0" mesh="" flag=""/>
            <path id="shapePath43" d="M115.678,253.899 C114.607,255.84 112.124,256.518 110.127,255.407 C108.13,254.296 107.388,251.822 108.459,249.882 C109.53,247.941 112.013,247.263 114.01,248.374 C116.007,249.485 116.75,251.959 115.678,253.899 Z" style="stroke:none;fill-rule:nonzero;fill:#000000;fill-opacity:1;"/>
        </g>
        <g id="Shape44">
            <desc shapeID="44" type="0" basicInfo-basicType="0" basicInfo-roundedRectRadius="12" basicInfo-polygonSides="6" basicInfo-starPoints="5" bounding="rect(-3.20473,-3.16694,6.40946,6.33388)" text="" font-familyName="" font-pixelSize="20" font-bold="0" font-underline="0" font-alignment="1" strokeStyle="0" markerStart="0" markerEnd="0" shadowEnabled="0" shadowOffsetX="0" shadowOffsetY="2" shadowBlur="4" shadowOpacity="160" blurEnabled="0" blurRadius="4" transform="matrix(1.27928,0,0,1.27928,102.809,246.766)" pers-center="0,0" pers-size="0,0" pers-start="0,0" pers-end="0,0" locked="0" mesh="" flag=""/>
            <path id="shapePath44" d="M106.418,248.774 C106.027,249.482 105.447,250.028 104.765,250.377 C103.598,250.975 102.127,250.983 100.867,250.282 C98.87,249.171 98.1276,246.697 99.199,244.757 C100.27,242.816 102.753,242.138 104.75,243.249 C106.747,244.36 107.49,246.834 106.418,248.774 Z" style="stroke:none;fill-rule:nonzero;fill:#000000;fill-opacity:1;"/>
        </g>
        <g id="Shape45">
            <desc shapeID="45" type="0" basicInfo-basicType="0" basicInfo-roundedRectRadius="12" basicInfo-polygonSides="6" basicInfo-starPoints="5" bounding="rect(-3.2849,-3.29459,6.5698,6.58917)" text="" font-familyName="" font-pixelSize="20" font-bold="0" font-underline="0" font-alignment="1" strokeStyle="0" markerStart="0" markerEnd="0" shadowEnabled="0" shadowOffsetX="0" shadowOffsetY="2" shadowBlur="4" shadowOpacity="160" blurEnabled="0" blurRadius="4" transform="matrix(1.27928,0,0,1.27928,103.667,254.295)" pers-center="0,0" pers-size="0,0" pers-start="0,0" pers-end="0,0" locked="0" mesh="" flag=""/>
            <path id="shapePath45" d="M107.87,258.51 C106.086,257.517 105.952,255.536 106.265,253.805 C106.579,252.073 107.341,250.591 107.341,250.591 L106.423,250.08 C106.423,250.08 103.038,255.807 99.4651,253.833 L107.87,258.51 Z" style="stroke:none;fill-rule:nonzero;fill:#000000;fill-opacity:1;"/>
        </g>
        <g id="Shape46">
            <desc shapeID="46" type="0" basicInfo-basicType="0" basicInfo-roundedRectRadius="12" basicInfo-polygonSides="6" basicInfo-starPoints="5" bounding="rect(-2.22591,-2.63338,4.45182,5.26675)" text="" font-familyName="" font-pixelSize="20" font-bold="0" font-underline="0" font-alignment="1" strokeStyle="0" markerStart="0" markerEnd="0" shadowEnabled="0" shadowOffsetX="0" shadowOffsetY="2" shadowBlur="4" shadowOpacity="160" blurEnabled="0" blurRadius="4" transform="matrix(1.27928,0,0,1.27928,109.281,247.233)" pers-center="0,0" pers-size="0,0" pers-start="0,0" pers-end="0,0" locked="0" mesh="" flag=""/>
            <path id="shapePath46" d="M107.216,243.864 C108.121,247.031 106.434,250.086 106.434,250.086 L107.335,250.602 C107.335,250.602 109.058,247.482 112.129,246.598 " style="stroke:none;fill-rule:nonzero;fill:#000000;fill-opacity:1;"/>
        </g>
        <g id="Shape47">
            <desc shapeID="47" type="0" basicInfo-basicType="0" basicInfo-roundedRectRadius="12" basicInfo-polygonSides="6" basicInfo-starPoints="5" bounding="rect(-2.61885,-2.237,5.23771,4.47401)" text="" font-familyName="" font-pixelSize="20" font-bold="0" font-underline="0" font-alignment="1" strokeStyle="0" markerStart="0" markerEnd="0" shadowEnabled="0" shadowOffsetX="0" shadowOffsetY="2" shadowBlur="4" shadowOpacity="160" blurEnabled="0" blurRadius="4" transform="matrix(1.27928,0,0,1.27928,107.362,248.554)" pers-center="0,0" pers-size="0,0" pers-start="0,0" pers-end="0,0" locked="0" mesh="" flag=""/>
            <path id="shapePath47" d="M104.011,250.63 C107.165,249.722 110.209,251.416 110.209,251.416 L110.712,250.505 C110.712,250.505 107.604,248.775 106.724,245.693 " style="stroke:none;fill-rule:nonzero;fill:#000000;fill-opacity:1;"/>
        </g>
        <g id="Shape48">
            <desc shapeID="48" type="0" basicInfo-basicType="0" basicInfo-roundedRectRadius="12" basicInfo-polygonSides="6" basicInfo-starPoints="5" bounding="rect(-2.61146,-2.25563,5.22292,4.51128)" text="" font-familyName="" font-pixelSize="20" font-bold="0" font-underline="0" font-alignment="1" strokeStyle="0" markerStart="0" markerEnd="0" shadowEnabled="0" shadowOffsetX="0" shadowOffsetY="2" shadowBlur="4" shadowOpacity="160" blurEnabled="0" blurRadius="4" transform="matrix(1.27928,0,0,1.27928,107.467,250.02)" pers-center="0,0" pers-size="0,0" pers-start="0,0" pers-end="0,0" locked="0" mesh="" flag=""/>
            <path id="shapePath48" d="M108.074,252.905 C107.17,249.739 104.126,248.045 104.126,248.045 L104.629,247.134 C104.629,247.134 107.737,248.863 110.808,247.979 " style="stroke:none;fill-rule:nonzero;fill:#000000;fill-opacity:1;"/>
        </g>
        <g id="Shape49">
            <desc shapeID="49" type="0" basicInfo-basicType="0" basicInfo-roundedRectRadius="12" basicInfo-polygonSides="6" basicInfo-starPoints="5" bounding="rect(-3.60318,-3.85385,7.20635,7.70772)" text="" font-familyName="" font-pixelSize="20" font-bold="0" font-underline="0" font-alignment="1" strokeStyle="0" markerStart="0" markerEnd="0" shadowEnabled="0" shadowOffsetX="0" shadowOffsetY="2" shadowBlur="4" shadowOpacity="160" blurEnabled="0" blurRadius="4" transform="matrix(1.27928,0,0,1.27928,81.3308,195.664)" pers-center="0,0" pers-size="0,0" pers-start="0,0" pers-end="0,0" locked="0" mesh="" flag=""/>
            <path id="shapePath49" d="M85.9403,197.926 C83.9815,198.493 82.3476,196.696 81.2063,194.756 C80.065,192.816 79.4163,190.734 79.4163,190.734 L78.416,191.011 C78.416,191.011 80.6388,199.461 76.7214,200.594 L85.9403,197.926 Z" style="stroke:none;fill-rule:nonzero;fill:#000000;fill-opacity:1;"/>
        </g>
        <g id="Shape50">
            <desc shapeID="50" type="0" basicInfo-basicType="0" basicInfo-roundedRectRadius="12" basicInfo-polygonSides="6" basicInfo-starPoints="5" bounding="rect(-6.30312,-5.9039,12.6062,11.8078)" text="" font-familyName="" font-pixelSize="20" font-bold="0" font-underline="0" font-alignment="1" strokeStyle="0" markerStart="0" markerEnd="0" shadowEnabled="0" shadowOffsetX="0" shadowOffsetY="2" shadowBlur="4" shadowOpacity="160" blurEnabled="0" blurRadius="4" transform="matrix(1.27928,0,0,1.27928,78.9127,188.134)" pers-center="0,0" pers-size="0,0" pers-start="0,0" pers-end="0,0" locked="0" mesh="" flag=""/>
            <path id="shapePath50" d="M86.8491,188.57 C85.6642,184.488 78.7015,183.289 75.9807,180.582 C75.1159,184.339 69.8571,189.075 71.0151,193.152 C71.5695,195.083 73.7902,196.137 75.9835,195.502 C78.1651,194.871 79.4865,192.792 78.9321,190.861 C79.4865,192.792 81.7072,193.846 83.9005,193.211 C86.0938,192.577 87.4035,190.501 86.8491,188.57 Z" style="stroke:none;fill-rule:nonzero;fill:#000000;fill-opacity:1;"/>
        </g>
    </g>
</svg>
