<?xml version="1.0"?>
<svg version="1.1" xmlns="http://www.w3.org/2000/svg" xmlns:xlink="http://www.w3.org/1999/xlink" width="223" height="312">
    <desc iVinci="yes" version="4.5" gridStep="20" showGrid="no" snapToGrid="no" codePlatform="0"/>
    <g id="Layer1" opacity="1">
        <g id="Shape1">
            <desc shapeID="1" type="0" basicInfo-basicType="0" basicInfo-roundedRectRadius="12" basicInfo-polygonSides="6" basicInfo-starPoints="5" bounding="rect(-83.2932,-121.084,166.586,242.167)" text="" font-familyName="" font-pixelSize="20" font-bold="0" font-underline="0" font-alignment="1" strokeStyle="0" markerStart="0" markerEnd="0" shadowEnabled="0" shadowOffsetX="0" shadowOffsetY="2" shadowBlur="4" shadowOpacity="160" blurEnabled="0" blurRadius="4" transform="matrix(1.27826,0,0,1.27826,110.721,156.027)" pers-center="0,0" pers-size="0,0" pers-start="0,0" pers-end="0,0" locked="0" mesh="" flag=""/>
            <path id="shapePath1" d="M217.191,302.021 C217.191,306.849 213.247,310.804 208.411,310.804 L13.0206,310.804 C8.1959,310.804 4.25001,306.849 4.25001,302.021 L4.25001,10.0306 C4.25001,5.20215 8.1959,1.25002 13.0206,1.25002 L208.411,1.25002 C213.247,1.25002 217.191,5.20215 217.191,10.0306 L217.191,302.021 Z" style="stroke:#000000;stroke-opacity:1;stroke-width:0.5;stroke-linejoin:miter;stroke-miterlimit:2;stroke-linecap:butt;fill-rule:nonzero;fill:#ffffff;fill-opacity:1;"/>
        </g>
        <g id="Shape2">
            <desc shapeID="2" type="0" basicInfo-basicType="0" basicInfo-roundedRectRadius="12" basicInfo-polygonSides="6" basicInfo-starPoints="5" bounding="rect(-2.79688,-11.5938,5.59375,23.1875)" text="" font-familyName="" font-pixelSize="20" font-bold="0" font-underline="0" font-alignment="1" strokeStyle="0" markerStart="0" markerEnd="0" shadowEnabled="0" shadowOffsetX="0" shadowOffsetY="2" shadowBlur="4" shadowOpacity="160" blurEnabled="0" blurRadius="4" transform="matrix(1.27826,0,0,1.27826,200.05,285.738)" pers-center="0,0" pers-size="0,0" pers-start="0,0" pers-end="0,0" locked="0" mesh="" flag=""/>
            <path id="shapePath2" d="M203.625,271.957 L203.625,275.592 L202.746,275.592 C202.724,274.631 202.626,273.922 202.451,273.472 C202.277,273.02 202.012,272.796 201.662,272.796 C201.218,272.796 200.908,273.178 200.731,273.944 C200.556,274.708 200.469,276.143 200.469,278.248 L200.469,298.68 L201.987,298.68 L201.987,300.558 L196.475,300.558 L196.475,298.68 L197.793,298.68 L197.793,278.126 C197.793,275.624 198.072,273.799 198.634,272.646 C199.193,271.495 200.092,270.918 201.325,270.918 C201.707,270.918 202.087,271.005 202.466,271.178 C202.848,271.352 203.233,271.612 203.625,271.957 Z" style="stroke:none;fill-rule:nonzero;fill:#e61408;fill-opacity:1;"/>
        </g>
        <g id="Shape3">
            <desc shapeID="3" type="0" basicInfo-basicType="0" basicInfo-roundedRectRadius="12" basicInfo-polygonSides="6" basicInfo-starPoints="5" bounding="rect(-4.34375,-9.35938,8.6875,18.7188)" text="" font-familyName="" font-pixelSize="20" font-bold="0" font-underline="0" font-alignment="1" strokeStyle="0" markerStart="0" markerEnd="0" shadowEnabled="0" shadowOffsetX="0" shadowOffsetY="2" shadowBlur="4" shadowOpacity="160" blurEnabled="0" blurRadius="4" transform="matrix(1.27826,0,0,1.27826,189.794,289.033)" pers-center="0,0" pers-size="0,0" pers-start="0,0" pers-end="0,0" locked="0" mesh="" flag=""/>
            <path id="shapePath3" d="M189.801,277.07 C191.531,277.07 192.889,278.131 193.871,280.253 C194.854,282.372 195.346,285.299 195.346,289.026 C195.346,292.753 194.854,295.679 193.871,297.807 C192.889,299.934 191.531,300.997 189.801,300.997 C188.061,300.997 186.7,299.936 185.717,297.814 C184.733,295.694 184.241,292.763 184.241,289.026 C184.241,285.299 184.735,282.372 185.724,280.253 C186.713,278.131 188.071,277.07 189.801,277.07 M189.801,278.947 C188.917,278.947 188.263,279.776 187.836,281.431 C187.412,283.089 187.197,285.621 187.197,289.026 C187.197,292.441 187.412,294.978 187.836,296.636 C188.263,298.291 188.917,299.12 189.801,299.12 C190.675,299.12 191.324,298.283 191.751,296.611 C192.178,294.94 192.39,292.411 192.39,289.026 C192.39,285.651 192.178,283.126 191.751,281.456 C191.324,279.784 190.675,278.947 189.801,278.947 Z" style="stroke:none;fill-rule:nonzero;fill:#e61408;fill-opacity:1;"/>
        </g>
        <g id="Shape4">
            <desc shapeID="4" type="0" basicInfo-basicType="0" basicInfo-roundedRectRadius="12" basicInfo-polygonSides="6" basicInfo-starPoints="5" bounding="rect(-4.70312,-9.01562,9.40625,18.0312)" text="" font-familyName="" font-pixelSize="20" font-bold="0" font-underline="0" font-alignment="1" strokeStyle="0" markerStart="0" markerEnd="0" shadowEnabled="0" shadowOffsetX="0" shadowOffsetY="2" shadowBlur="4" shadowOpacity="160" blurEnabled="0" blurRadius="4" transform="matrix(1.27826,0,0,1.27826,176.956,289.033)" pers-center="0,0" pers-size="0,0" pers-start="0,0" pers-end="0,0" locked="0" mesh="" flag=""/>
            <path id="shapePath4" d="M182.968,277.509 L182.968,279.387 L181.65,279.387 L181.65,298.68 L182.968,298.68 L182.968,300.558 L177.695,300.558 L177.695,298.68 L179.013,298.68 L179.013,290.274 L174.652,298.68 L175.75,298.68 L175.75,300.558 L171.918,300.558 L171.918,298.68 L173.294,298.68 L176.986,291.57 L171.95,279.387 L170.944,279.387 L170.944,277.509 L174.432,277.509 L179.013,288.701 L179.013,279.387 L177.695,279.387 L177.695,277.509 L182.968,277.509 Z" style="stroke:none;fill-rule:nonzero;fill:#e61408;fill-opacity:1;"/>
        </g>
        <g id="Shape5">
            <desc shapeID="5" type="0" basicInfo-basicType="0" basicInfo-roundedRectRadius="12" basicInfo-polygonSides="6" basicInfo-starPoints="5" bounding="rect(-3.65625,-9.01562,7.3125,18.0312)" text="" font-familyName="" font-pixelSize="20" font-bold="0" font-underline="0" font-alignment="1" strokeStyle="0" markerStart="0" markerEnd="0" shadowEnabled="0" shadowOffsetX="0" shadowOffsetY="2" shadowBlur="4" shadowOpacity="160" blurEnabled="0" blurRadius="4" transform="matrix(1.27826,0,0,1.27826,166.023,289.033)" pers-center="0,0" pers-size="0,0" pers-start="0,0" pers-end="0,0" locked="0" mesh="" flag=""/>
            <path id="shapePath5" d="M170.697,277.509 L170.697,279.387 L169.379,279.387 L169.379,298.68 L170.697,298.68 L170.697,300.558 L161.47,300.558 L161.47,295.125 L162.428,295.125 L162.428,298.441 L166.742,298.441 L166.742,291.051 L164.066,291.051 L164.066,293.967 L163.107,293.967 L163.107,286.018 L164.066,286.018 L164.066,288.934 L166.742,288.934 L166.742,279.626 L162.308,279.626 L162.308,282.942 L161.35,282.942 L161.35,277.509 L170.697,277.509 Z" style="stroke:none;fill-rule:nonzero;fill:#e61408;fill-opacity:1;"/>
        </g>
        <g id="Shape6">
            <desc shapeID="6" type="0" basicInfo-basicType="0" basicInfo-roundedRectRadius="12" basicInfo-polygonSides="6" basicInfo-starPoints="5" bounding="rect(-4.36914,-9.01562,8.73828,18.0312)" text="" font-familyName="" font-pixelSize="20" font-bold="0" font-underline="0" font-alignment="1" strokeStyle="0" markerStart="0" markerEnd="0" shadowEnabled="0" shadowOffsetX="0" shadowOffsetY="2" shadowBlur="4" shadowOpacity="160" blurEnabled="0" blurRadius="4" transform="matrix(1.27826,0,0,1.27826,154.352,289.033)" pers-center="0,0" pers-size="0,0" pers-start="0,0" pers-end="0,0" locked="0" mesh="" flag=""/>
            <path id="shapePath6" d="M153.073,288.749 C152.674,288.617 152.334,288.314 152.052,287.843 C151.773,287.371 151.528,286.689 151.323,285.798 L149.833,279.387 L148.767,279.387 L148.767,277.509 L152.152,277.509 L153.805,284.472 C154.13,285.91 154.402,286.826 154.626,287.221 C154.849,287.618 155.158,287.815 155.553,287.815 L155.982,287.815 L155.982,279.387 L154.664,279.387 L154.664,277.509 L159.937,277.509 L159.937,279.387 L158.618,279.387 L158.618,298.68 L159.937,298.68 L159.937,300.558 L154.06,300.558 C152.861,300.558 151.938,300.019 151.286,298.942 C150.637,297.866 150.31,296.339 150.31,294.361 C150.31,292.753 150.542,291.483 151.001,290.551 C151.463,289.618 152.152,289.018 153.073,288.749 M155.982,289.653 L155.078,289.653 C154.427,289.653 153.922,290.045 153.563,290.829 C153.206,291.61 153.026,292.728 153.026,294.181 C153.026,295.634 153.206,296.748 153.563,297.522 C153.922,298.293 154.427,298.68 155.078,298.68 L155.982,298.68 L155.982,289.653 Z" style="stroke:none;fill-rule:nonzero;fill:#e61408;fill-opacity:1;"/>
        </g>
        <g id="Shape7">
            <desc shapeID="7" type="0" basicInfo-basicType="0" basicInfo-roundedRectRadius="12" basicInfo-polygonSides="6" basicInfo-starPoints="5" bounding="rect(-2.79688,-11.5938,5.59375,23.1875)" text="" font-familyName="" font-pixelSize="20" font-bold="0" font-underline="0" font-alignment="1" strokeStyle="0" markerStart="0" markerEnd="0" shadowEnabled="0" shadowOffsetX="0" shadowOffsetY="2" shadowBlur="4" shadowOpacity="160" blurEnabled="0" blurRadius="4" transform="matrix(1.27826,0,0,1.27826,20.7039,25.6668)" pers-center="0,0" pers-size="0,0" pers-start="0,0" pers-end="0,0" locked="0" mesh="" flag=""/>
            <path id="shapePath7" d="M17.1288,39.4481 L17.1288,35.8131 L18.0076,35.8131 C18.0288,36.7755 18.1262,37.4833 18.3009,37.9327 C18.4769,38.3846 18.7403,38.6093 19.0923,38.6093 C19.5355,38.6093 19.8451,38.2273 20.0211,37.4621 C20.1958,36.6969 20.2845,35.2613 20.2845,33.1567 L20.2845,12.7244 L18.7665,12.7244 L18.7665,10.847 L24.2791,10.847 L24.2791,12.7244 L22.9608,12.7244 L22.9608,33.2803 C22.9608,35.7806 22.68,37.6056 22.1207,38.7591 C21.559,39.91 20.6627,40.4867 19.4269,40.4867 C19.0474,40.4867 18.6667,40.3993 18.2859,40.2271 C17.9052,40.0536 17.5195,39.7939 17.1288,39.4481 Z" style="stroke:none;fill-rule:nonzero;fill:#e61408;fill-opacity:1;"/>
        </g>
        <g id="Shape8">
            <desc shapeID="8" type="0" basicInfo-basicType="0" basicInfo-roundedRectRadius="12" basicInfo-polygonSides="6" basicInfo-starPoints="5" bounding="rect(-4.34375,-9.35938,8.6875,18.7188)" text="" font-familyName="" font-pixelSize="20" font-bold="0" font-underline="0" font-alignment="1" strokeStyle="0" markerStart="0" markerEnd="0" shadowEnabled="0" shadowOffsetX="0" shadowOffsetY="2" shadowBlur="4" shadowOpacity="160" blurEnabled="0" blurRadius="4" transform="matrix(1.27826,0,0,1.27826,30.9587,22.3713)" pers-center="0,0" pers-size="0,0" pers-start="0,0" pers-end="0,0" locked="0" mesh="" flag=""/>
            <path id="shapePath8" d="M30.9512,34.3351 C29.2211,34.3351 27.8642,33.274 26.8818,31.1531 C25.8981,29.0323 25.4063,26.1075 25.4063,22.3788 C25.4063,18.6514 25.8981,15.7254 26.8818,13.5982 C27.8642,11.4711 29.2211,10.4076 30.9512,10.4076 C32.6914,10.4076 34.0533,11.4686 35.0369,13.5908 C36.0194,15.7116 36.5112,18.6414 36.5112,22.3788 C36.5112,26.1075 36.0169,29.0323 35.0282,31.1531 C34.0395,33.274 32.6814,34.3351 30.9512,34.3351 M30.9512,32.4576 C31.835,32.4576 32.4891,31.6287 32.9161,29.9735 C33.3417,28.3158 33.5552,25.7842 33.5552,22.3788 C33.5552,18.9635 33.3417,16.4269 32.9161,14.7704 C32.4891,13.1139 31.835,12.285 30.9512,12.285 C30.0774,12.285 29.4283,13.1214 29.0014,14.7941 C28.5757,16.4656 28.3623,18.9934 28.3623,22.3788 C28.3623,25.7542 28.5757,28.2783 29.0014,29.9498 C29.4283,31.6213 30.0774,32.4576 30.9512,32.4576 Z" style="stroke:none;fill-rule:nonzero;fill:#e61408;fill-opacity:1;"/>
        </g>
        <g id="Shape9">
            <desc shapeID="9" type="0" basicInfo-basicType="0" basicInfo-roundedRectRadius="12" basicInfo-polygonSides="6" basicInfo-starPoints="5" bounding="rect(-4.70312,-9.01562,9.40625,18.0312)" text="" font-familyName="" font-pixelSize="20" font-bold="0" font-underline="0" font-alignment="1" strokeStyle="0" markerStart="0" markerEnd="0" shadowEnabled="0" shadowOffsetX="0" shadowOffsetY="2" shadowBlur="4" shadowOpacity="160" blurEnabled="0" blurRadius="4" transform="matrix(1.27826,0,0,1.27826,43.7963,22.3713)" pers-center="0,0" pers-size="0,0" pers-start="0,0" pers-end="0,0" locked="0" mesh="" flag=""/>
            <path id="shapePath9" d="M37.7845,33.8957 L37.7845,32.0182 L39.1027,32.0182 L39.1027,12.7244 L37.7845,12.7244 L37.7845,10.847 L43.0573,10.847 L43.0573,12.7244 L41.7391,12.7244 L41.7391,21.1305 L46.1007,12.7244 L45.0034,12.7244 L45.0034,10.847 L48.8344,10.847 L48.8344,12.7244 L47.4601,12.7244 L43.7676,19.8348 L48.8032,32.0182 L49.8081,32.0182 L49.8081,33.8957 L46.3216,33.8957 L41.7391,22.7034 L41.7391,32.0182 L43.0573,32.0182 L43.0573,33.8957 L37.7845,33.8957 Z" style="stroke:none;fill-rule:nonzero;fill:#e61408;fill-opacity:1;"/>
        </g>
        <g id="Shape10">
            <desc shapeID="10" type="0" basicInfo-basicType="0" basicInfo-roundedRectRadius="12" basicInfo-polygonSides="6" basicInfo-starPoints="5" bounding="rect(-3.65625,-9.01562,7.3125,18.0312)" text="" font-familyName="" font-pixelSize="20" font-bold="0" font-underline="0" font-alignment="1" strokeStyle="0" markerStart="0" markerEnd="0" shadowEnabled="0" shadowOffsetX="0" shadowOffsetY="2" shadowBlur="4" shadowOpacity="160" blurEnabled="0" blurRadius="4" transform="matrix(1.27826,0,0,1.27826,54.7289,22.3713)" pers-center="0,0" pers-size="0,0" pers-start="0,0" pers-end="0,0" locked="0" mesh="" flag=""/>
            <path id="shapePath10" d="M50.0553,33.8957 L50.0553,32.0182 L51.3735,32.0182 L51.3735,12.7244 L50.0553,12.7244 L50.0553,10.847 L59.2827,10.847 L59.2827,16.2796 L58.3241,16.2796 L58.3241,12.9641 L54.0099,12.9641 L54.0099,20.3541 L56.6863,20.3541 L56.6863,17.438 L57.645,17.438 L57.645,25.3872 L56.6863,25.3872 L56.6863,22.4712 L54.0099,22.4712 L54.0099,31.7785 L58.4439,31.7785 L58.4439,28.463 L59.4026,28.463 L59.4026,33.8957 L50.0553,33.8957 Z" style="stroke:none;fill-rule:nonzero;fill:#e61408;fill-opacity:1;"/>
        </g>
        <g id="Shape11">
            <desc shapeID="11" type="0" basicInfo-basicType="0" basicInfo-roundedRectRadius="12" basicInfo-polygonSides="6" basicInfo-starPoints="5" bounding="rect(-4.36963,-9.01562,8.73926,18.0312)" text="" font-familyName="" font-pixelSize="20" font-bold="0" font-underline="0" font-alignment="1" strokeStyle="0" markerStart="0" markerEnd="0" shadowEnabled="0" shadowOffsetX="0" shadowOffsetY="2" shadowBlur="4" shadowOpacity="160" blurEnabled="0" blurRadius="4" transform="matrix(1.27826,0,0,1.27826,66.4012,22.3713)" pers-center="0,0" pers-size="0,0" pers-start="0,0" pers-end="0,0" locked="0" mesh="" flag=""/>
            <path id="shapePath11" d="M67.6788,22.6559 C68.0783,22.7883 68.4178,23.0903 68.7,23.5622 C68.9808,24.0341 69.2242,24.7156 69.429,25.6082 L70.9207,32.0182 L71.9867,32.0182 L71.9867,33.8957 L68.6001,33.8957 L66.9473,26.9326 C66.624,25.4946 66.3506,24.5783 66.1272,24.1839 C65.9038,23.7869 65.5942,23.5897 65.1997,23.5897 L64.7703,23.5897 L64.7703,32.0182 L66.0885,32.0182 L66.0885,33.8957 L60.8157,33.8957 L60.8157,32.0182 L62.1339,32.0182 L62.1339,12.7244 L60.8157,12.7244 L60.8157,10.847 L66.6927,10.847 C67.8911,10.847 68.8148,11.3862 69.4664,12.4623 C70.1168,13.5383 70.4426,15.0662 70.4426,17.0448 C70.4426,18.6526 70.2117,19.9222 69.751,20.8546 C69.2904,21.7871 68.6001,22.3876 67.6788,22.6559 M64.7703,21.7522 L65.6741,21.7522 C66.3269,21.7522 66.8312,21.3602 67.1895,20.5775 C67.5465,19.7948 67.7263,18.6763 67.7263,17.2233 C67.7263,15.7703 67.5465,14.6568 67.1895,13.8841 C66.8312,13.1114 66.3269,12.7244 65.6741,12.7244 L64.7703,12.7244 L64.7703,21.7522 Z" style="stroke:none;fill-rule:nonzero;fill:#e61408;fill-opacity:1;"/>
        </g>
        <g id="Shape12">
            <desc shapeID="12" type="0" basicInfo-basicType="0" basicInfo-roundedRectRadius="12" basicInfo-polygonSides="6" basicInfo-starPoints="5" bounding="rect(-3.23626,-3.48622,6.47252,6.97244)" text="" font-familyName="" font-pixelSize="20" font-bold="0" font-underline="0" font-alignment="1" strokeStyle="0" markerStart="0" markerEnd="0" shadowEnabled="0" shadowOffsetX="0" shadowOffsetY="2" shadowBlur="4" shadowOpacity="160" blurEnabled="0" blurRadius="4" transform="matrix(1.27826,0,0,1.27826,136.437,255.502)" pers-center="0,0" pers-size="0,0" pers-start="0,0" pers-end="0,0" locked="0" mesh="" flag=""/>
            <path id="shapePath12" d="M133.214,252.023 L132.3,253.795 L133.244,259.959 L135.702,259.531 L140.574,256.221 L135.157,251.046 " style="stroke:none;fill-rule:nonzero;fill:#e6180a;fill-opacity:1;"/>
        </g>
        <g id="Shape13">
            <desc shapeID="13" type="0" basicInfo-basicType="0" basicInfo-roundedRectRadius="12" basicInfo-polygonSides="6" basicInfo-starPoints="5" bounding="rect(-39.7764,-46.0869,79.5527,92.1739)" text="" font-familyName="" font-pixelSize="20" font-bold="0" font-underline="0" font-alignment="1" strokeStyle="0" markerStart="0" markerEnd="0" shadowEnabled="0" shadowOffsetX="0" shadowOffsetY="2" shadowBlur="4" shadowOpacity="160" blurEnabled="0" blurRadius="4" transform="matrix(1.27826,0,0,1.27826,126.049,132.058)" pers-center="0,0" pers-size="0,0" pers-start="0,0" pers-end="0,0" locked="0" mesh="" flag=""/>
            <path id="shapePath13" d="M151.848,88.474 C152.19,88.6033 144.023,96.3328 142.995,96.3328 L136.066,100.198 L131.939,106.317 L128.837,113.209 L128.646,120.851 L131.533,124.972 L137.67,126.24 L145.347,124.887 L153.759,119.514 L158.022,113.969 L159.634,108.553 L159.065,104.942 L155.245,103.091 L151.982,102.785 L151.754,101.406 L152.341,98.0925 L149.546,95.8556 L144.443,96.1936 L152.727,88.6729 L161.31,90.8575 L165.36,90.1218 L176.894,104.331 L170.722,112.868 L169.769,116.556 L171.052,121.751 L172.978,127.077 L172.034,132.831 L170.581,134.891 L170.752,139.442 L169.853,141.761 L166.732,143.093 L163.823,141.848 L162.028,138.714 L162.927,135.063 L165.363,133.688 L167.544,133.646 L167.93,133.002 L166.219,128.578 L162.327,125.703 L159.161,125.531 L151.464,130.768 L150.608,135.279 L150.524,142.835 L157.965,147.773 L161.342,153.226 L162.412,159.581 L163.268,167.482 L170.324,185.086 L172.804,189.552 L171.864,190.325 L166.09,187.619 L160.872,182.208 L160.572,178.087 L161.557,174.866 L160.188,172.463 L157.879,172.505 L156.425,174.824 L156.638,176.713 L158.52,179.805 L157.666,184.572 L154.244,190.927 L152.447,190.969 L148.897,185.901 L146.929,179.161 L148.768,174.782 L148.726,173.02 L145.604,170.487 L143.208,171.26 L141.455,173.964 L143.253,179.847 L141.327,183.327 L134.098,189.465 L132.773,188.692 L131.105,184.313 L130.676,177.787 L134.613,174.695 L134.912,171.26 L132.687,169.329 L130.251,169.714 L127.812,171.474 L127.641,174.695 L127.683,178.56 L122.851,184.785 L117.504,188.864 L115.28,188.262 L114.34,185.429 L114.169,173.579 L118.873,171.088 L120.242,168.384 L118.744,165.978 L115.664,165.034 L112.971,166.751 L111.772,169.585 L112.671,173.45 L110.703,175.639 L107.797,178.087 L100.226,181.694 L96.8889,182.208 L96.9309,177.314 L99.5823,168.857 L101.808,165.635 L106.853,164.132 L108.48,160.998 L107.581,158.55 L104.331,157.091 L101.38,158.766 L100.352,160.739 L99.7977,163.66 L95.7773,166.451 L85.2979,169.672 L83.8026,168.255 L86.9244,159.193 L91.029,155.115 L95.8615,154.429 L97.8296,151.036 L96.8889,147.815 L93.98,146.528 L91.2444,147.857 L89.0634,152.667 L84.9984,155.331 L75.2047,157.133 L76.3163,152.841 L78.6682,148.459 L80.3367,147 L83.0748,143.95 L87.5656,143.565 L89.3604,141.676 L89.9595,140.001 L89.7466,138.284 L87.3081,136.696 L83.2877,137.896 L81.1933,138.025 L77.215,134.16 L75.7172,131.67 L76.6579,131.198 L81.8345,131.327 L87.7785,129.739 L99.4561,124.328 L104.546,123.342 L109.72,124.415 L113.654,126.776 L113.57,124.244 L115.194,122.139 L120.326,121.152 L120.583,120.506 L120.754,116.728 L123.534,114.325 L125.631,106.896 L129.822,100.369 L129.864,98.3932 L127.171,92.6818 L127.255,86.6274 L128.453,83.2373 L130.805,79.974 L136.323,77.5681 L138.546,74.2203 L140.856,73.1466 L143.678,73.9196 L145.476,76.7952 L144.577,80.9184 L141.156,82.3773 L137.222,80.7892 L136.452,81.0899 L135.895,85.4692 L137.007,89.247 L139.445,90.7084 L148.427,88.4318 " style="stroke:none;fill-rule:nonzero;fill:#e6180a;fill-opacity:1;"/>
        </g>
        <g id="Shape14">
            <desc shapeID="14" type="0" basicInfo-basicType="0" basicInfo-roundedRectRadius="12" basicInfo-polygonSides="6" basicInfo-starPoints="5" bounding="rect(-3.45567,-3.15416,6.91135,6.30833)" text="" font-familyName="" font-pixelSize="20" font-bold="0" font-underline="0" font-alignment="1" strokeStyle="0" markerStart="0" markerEnd="0" shadowEnabled="0" shadowOffsetX="0" shadowOffsetY="2" shadowBlur="4" shadowOpacity="160" blurEnabled="0" blurRadius="4" transform="matrix(1.27826,0,0,1.27826,148.191,92.433)" pers-center="0,0" pers-size="0,0" pers-start="0,0" pers-end="0,0" locked="0" mesh="" flag=""/>
            <path id="shapePath14" d="M152.114,88.4011 L152.608,88.9847 L144.268,96.4648 L143.774,95.8813 L152.114,88.4011 Z" style="stroke:none;fill-rule:evenodd;fill:#e6180a;fill-opacity:1;"/>
        </g>
        <g id="Shape15">
            <desc shapeID="15" type="0" basicInfo-basicType="0" basicInfo-roundedRectRadius="12" basicInfo-polygonSides="6" basicInfo-starPoints="5" bounding="rect(-13.3508,-17.9211,26.7016,35.8421)" text="" font-familyName="" font-pixelSize="20" font-bold="0" font-underline="0" font-alignment="1" strokeStyle="0" markerStart="0" markerEnd="0" shadowEnabled="0" shadowOffsetX="0" shadowOffsetY="2" shadowBlur="4" shadowOpacity="160" blurEnabled="0" blurRadius="4" transform="matrix(1.27826,0,0,1.27826,62.1222,158.341)" pers-center="0,0" pers-size="0,0" pers-start="0,0" pers-end="0,0" locked="0" mesh="" flag=""/>
            <path id="shapePath15" d="M72.7464,135.433 L76.5267,136.288 L79.188,140.831 L76.2594,154.998 L68.6468,169.219 L56.984,181.249 L46.7077,181.249 L45.0564,179.002 L58.155,167.134 L68.6468,149.92 " style="stroke:none;fill-rule:nonzero;fill:#e6180a;fill-opacity:1;"/>
        </g>
        <g id="Shape16">
            <desc shapeID="16" type="0" basicInfo-basicType="0" basicInfo-roundedRectRadius="12" basicInfo-polygonSides="6" basicInfo-starPoints="5" bounding="rect(-6.96348,-23.0133,13.927,46.0267)" text="" font-familyName="" font-pixelSize="20" font-bold="0" font-underline="0" font-alignment="1" strokeStyle="0" markerStart="0" markerEnd="0" shadowEnabled="0" shadowOffsetX="0" shadowOffsetY="2" shadowBlur="4" shadowOpacity="160" blurEnabled="0" blurRadius="4" transform="matrix(1.27826,0,0,1.27826,142.115,216.874)" pers-center="0,0" pers-size="0,0" pers-start="0,0" pers-end="0,0" locked="0" mesh="" flag=""/>
            <path id="shapePath16" d="M139.717,189.863 L141.361,188.625 L146.085,187.457 L147.592,188.832 L150.125,198.455 L151.016,203.677 L150.33,213.437 L146.429,229.316 L143.552,236.325 L138.898,242.374 L133.214,246.291 L133.625,243.543 L135.269,240.863 L138.418,235.639 L141.225,227.323 L143.758,216.119 L144.649,208.146 L143.416,199.211 L139.856,192.818 " style="stroke:none;fill-rule:nonzero;fill:#e6180a;fill-opacity:1;"/>
        </g>
        <g id="Shape17">
            <desc shapeID="17" type="0" basicInfo-basicType="0" basicInfo-roundedRectRadius="12" basicInfo-polygonSides="6" basicInfo-starPoints="5" bounding="rect(-19.1193,-30.5253,38.2386,61.0506)" text="" font-familyName="" font-pixelSize="20" font-bold="0" font-underline="0" font-alignment="1" strokeStyle="0" markerStart="0" markerEnd="0" shadowEnabled="0" shadowOffsetX="0" shadowOffsetY="2" shadowBlur="4" shadowOpacity="160" blurEnabled="0" blurRadius="4" transform="matrix(1.27826,0,0,1.27826,123.197,224.71)" pers-center="0,0" pers-size="0,0" pers-start="0,0" pers-end="0,0" locked="0" mesh="" flag=""/>
            <path id="shapePath17" d="M113.587,205.193 L114.676,204.117 L118.051,203.779 L120.704,202.817 L121.123,202.34 L122.522,202.695 L123.165,201.788 L124.143,202.235 L124.888,202.069 L126.601,201.599 L130.694,193.631 L132.592,188.973 L134.001,189.654 L135.667,189.15 L146.904,185.69 L147.637,187.231 L145.471,187.38 L141.475,188.444 L139.116,190.02 L139.586,192.59 L138.081,193.283 L135.009,197.729 L135.387,199.161 L138.192,198.517 L139.705,195.438 L139.202,193.748 L140.029,193.541 L143.097,199.166 L142.396,205.678 L144.357,209.107 L143.22,217.657 L142.005,223.123 L140.554,228.854 L138.128,235.791 L134.236,242.355 L133.773,239.434 L136.115,233.472 L134.994,222.814 L135.202,212.883 L132.895,212.132 L131.548,214.436 L131.835,236.598 L133.083,239.897 L133.541,243.1 L132.642,247.02 L134.209,251.058 L133.112,252.383 L132.055,254.965 L133.801,259.698 L134.759,259.66 L140.777,255.997 L141.948,259.133 L139.059,262.722 L134.325,263.729 L131.424,259.444 L130.931,253.462 L130.951,251.317 L129.3,250.28 L129.124,245.871 L125.891,236.979 L125.002,227.703 L124.878,218.612 L124.992,212.841 L118.254,213.196 L117.669,214.265 L115.964,213.256 L112.916,214.138 L110.579,214.068 L107.938,215.574 L103.189,216.695 L98.7579,217.287 L100.518,215.286 L109.829,213.444 L113.037,211.484 L114.06,206.6 " style="stroke:none;fill-rule:nonzero;fill:#000000;fill-opacity:1;"/>
        </g>
        <g id="Shape18">
            <desc shapeID="18" type="0" basicInfo-basicType="0" basicInfo-roundedRectRadius="12" basicInfo-polygonSides="6" basicInfo-starPoints="5" bounding="rect(-0.449821,-0.429657,0.899651,0.859329)" text="" font-familyName="" font-pixelSize="20" font-bold="0" font-underline="0" font-alignment="1" strokeStyle="0" markerStart="0" markerEnd="0" shadowEnabled="0" shadowOffsetX="0" shadowOffsetY="2" shadowBlur="4" shadowOpacity="160" blurEnabled="0" blurRadius="4" transform="matrix(1.27826,0,0,1.27826,139.48,193.138)" pers-center="0,0" pers-size="0,0" pers-start="0,0" pers-end="0,0" locked="0" mesh="" flag=""/>
            <path id="shapePath18" d="M138.905,192.589 L140.055,192.589 L140.055,193.687 L138.905,193.687 L138.905,192.589 Z" style="stroke:none;fill-rule:evenodd;fill:#000000;fill-opacity:1;"/>
        </g>
        <g id="Shape19">
            <desc shapeID="19" type="0" basicInfo-basicType="0" basicInfo-roundedRectRadius="12" basicInfo-polygonSides="6" basicInfo-starPoints="5" bounding="rect(-0.437073,-1.20464,0.874153,2.40929)" text="" font-familyName="" font-pixelSize="20" font-bold="0" font-underline="0" font-alignment="1" strokeStyle="0" markerStart="0" markerEnd="0" shadowEnabled="0" shadowOffsetX="0" shadowOffsetY="2" shadowBlur="4" shadowOpacity="160" blurEnabled="0" blurRadius="4" transform="matrix(1.27826,0,0,1.27826,133.625,241.409)" pers-center="0,0" pers-size="0,0" pers-start="0,0" pers-end="0,0" locked="0" mesh="" flag=""/>
            <path id="shapePath19" d="M133.066,239.87 L134.184,239.87 L134.184,242.949 L133.066,242.949 L133.066,239.87 Z" style="stroke:none;fill-rule:evenodd;fill:#000000;fill-opacity:1;"/>
        </g>
        <g id="Shape20">
            <desc shapeID="20" type="0" basicInfo-basicType="0" basicInfo-roundedRectRadius="12" basicInfo-polygonSides="6" basicInfo-starPoints="5" bounding="rect(-1.04613,-3.56595,2.09226,7.1319)" text="" font-familyName="" font-pixelSize="20" font-bold="0" font-underline="0" font-alignment="1" strokeStyle="0" markerStart="0" markerEnd="0" shadowEnabled="0" shadowOffsetX="0" shadowOffsetY="2" shadowBlur="4" shadowOpacity="160" blurEnabled="0" blurRadius="4" transform="matrix(1.27826,0,0,1.27826,143.031,204.214)" pers-center="0,0" pers-size="0,0" pers-start="0,0" pers-end="0,0" locked="0" mesh="" flag=""/>
            <path id="shapePath20" d="M141.694,199.86 L143.403,199.655 L144.368,208.567 L142.659,208.772 L141.694,199.86 Z" style="stroke:none;fill-rule:evenodd;fill:#000000;fill-opacity:1;"/>
        </g>
        <g id="Shape21">
            <desc shapeID="21" type="0" basicInfo-basicType="0" basicInfo-roundedRectRadius="12" basicInfo-polygonSides="6" basicInfo-starPoints="5" bounding="rect(-7.91828,-20.5644,15.8366,41.1288)" text="" font-familyName="" font-pixelSize="20" font-bold="0" font-underline="0" font-alignment="1" strokeStyle="0" markerStart="0" markerEnd="0" shadowEnabled="0" shadowOffsetX="0" shadowOffsetY="2" shadowBlur="4" shadowOpacity="160" blurEnabled="0" blurRadius="4" transform="matrix(1.27826,0,0,1.27826,151.951,213.642)" pers-center="0,0" pers-size="0,0" pers-start="0,0" pers-end="0,0" locked="0" mesh="" flag=""/>
            <path id="shapePath21" d="M148.375,187.355 C148.375,187.659 150.739,192.649 150.739,192.649 L152.254,200.317 L152.437,210.661 L150.073,225.509 L149.466,226.967 L150.011,227.273 L150.618,226.846 L157.589,212.06 L160.377,200.073 L160.983,193.624 L162.072,194.048 L161.285,203.418 L157.71,216.258 L151.709,228.732 L145.102,237.555 L142.072,239.929 L141.829,238.651 L145.647,231.652 L150.132,214.493 L150.982,204.393 L149.041,193.136 L147.162,187.355 " style="stroke:none;fill-rule:nonzero;fill:#000000;fill-opacity:1;"/>
        </g>
        <g id="Shape22">
            <desc shapeID="22" type="0" basicInfo-basicType="0" basicInfo-roundedRectRadius="12" basicInfo-polygonSides="6" basicInfo-starPoints="5" bounding="rect(-3.79209,-4.21827,7.58419,8.43653)" text="" font-familyName="" font-pixelSize="20" font-bold="0" font-underline="0" font-alignment="1" strokeStyle="0" markerStart="0" markerEnd="0" shadowEnabled="0" shadowOffsetX="0" shadowOffsetY="2" shadowBlur="4" shadowOpacity="160" blurEnabled="0" blurRadius="4" transform="matrix(1.27826,0,0,1.27826,106.435,65.7439)" pers-center="0,0" pers-size="0,0" pers-start="0,0" pers-end="0,0" locked="0" mesh="" flag=""/>
            <path id="shapePath22" d="M103.868,60.3518 L108.651,60.7718 L111.282,66.7691 L109.267,71.1359 L102.652,70.3207 L101.588,64.1296 " style="stroke:none;fill-rule:nonzero;fill:#e6180a;fill-opacity:1;"/>
        </g>
        <g id="Shape23">
            <desc shapeID="23" type="0" basicInfo-basicType="0" basicInfo-roundedRectRadius="12" basicInfo-polygonSides="6" basicInfo-starPoints="5" bounding="rect(-4.80306,-4.99309,9.60613,9.98618)" text="" font-familyName="" font-pixelSize="20" font-bold="0" font-underline="0" font-alignment="1" strokeStyle="0" markerStart="0" markerEnd="0" shadowEnabled="0" shadowOffsetX="0" shadowOffsetY="2" shadowBlur="4" shadowOpacity="160" blurEnabled="0" blurRadius="4" transform="matrix(1.27826,0,0,1.27826,118.694,58.786)" pers-center="0,0" pers-size="0,0" pers-start="0,0" pers-end="0,0" locked="0" mesh="" flag=""/>
            <path id="shapePath23" d="M118.764,54.3272 L122.695,52.4035 L124.262,52.9503 L124.821,54.9883 L124.834,56.8971 L123.715,60.1132 L119.84,63.6102 L113.042,65.1685 L112.555,63.2871 L114.973,62.529 L118.288,59.2707 " style="stroke:none;fill-rule:nonzero;fill:#e6180a;fill-opacity:1;"/>
        </g>
        <g id="Shape24">
            <desc shapeID="24" type="0" basicInfo-basicType="0" basicInfo-roundedRectRadius="12" basicInfo-polygonSides="6" basicInfo-starPoints="5" bounding="rect(-2.01218,-2.14478,4.02435,4.28955)" text="" font-familyName="" font-pixelSize="20" font-bold="0" font-underline="0" font-alignment="1" strokeStyle="0" markerStart="0" markerEnd="0" shadowEnabled="0" shadowOffsetX="0" shadowOffsetY="2" shadowBlur="4" shadowOpacity="160" blurEnabled="0" blurRadius="4" transform="matrix(1.27826,0,0,1.27826,69.3798,57.0262)" pers-center="0,0" pers-size="0,0" pers-start="0,0" pers-end="0,0" locked="0" mesh="" flag=""/>
            <path id="shapePath24" d="M71.9519,57.0262 C71.9519,58.5403 70.8003,59.7678 69.3798,59.7678 C67.9593,59.7678 66.8077,58.5403 66.8077,57.0262 C66.8077,55.5121 67.9593,54.2846 69.3798,54.2846 C70.8003,54.2846 71.9519,55.5121 71.9519,57.0262 Z" style="stroke:none;fill-rule:nonzero;fill:#ff009c;fill-opacity:1;"/>
        </g>
        <g id="Shape25">
            <desc shapeID="25" type="0" basicInfo-basicType="0" basicInfo-roundedRectRadius="12" basicInfo-polygonSides="6" basicInfo-starPoints="5" bounding="rect(-2.09457,-1.99084,4.18914,3.98168)" text="" font-familyName="" font-pixelSize="20" font-bold="0" font-underline="0" font-alignment="1" strokeStyle="0" markerStart="0" markerEnd="0" shadowEnabled="0" shadowOffsetX="0" shadowOffsetY="2" shadowBlur="4" shadowOpacity="160" blurEnabled="0" blurRadius="4" transform="matrix(1.27826,0,0,1.27826,75.2864,70.9267)" pers-center="0,0" pers-size="0,0" pers-start="0,0" pers-end="0,0" locked="0" mesh="" flag=""/>
            <path id="shapePath25" d="M77.9638,70.9267 C77.9638,72.3322 76.7651,73.4715 75.2864,73.4715 C73.8077,73.4715 72.609,72.3322 72.609,70.9267 C72.609,69.5212 73.8077,68.3819 75.2864,68.3819 C76.7651,68.3819 77.9638,69.5212 77.9638,70.9267 Z" style="stroke:none;fill-rule:nonzero;fill:#00ff0a;fill-opacity:1;"/>
        </g>
        <g id="Shape26">
            <desc shapeID="26" type="0" basicInfo-basicType="0" basicInfo-roundedRectRadius="12" basicInfo-polygonSides="6" basicInfo-starPoints="5" bounding="rect(-2.27251,-2.07587,4.54503,4.15174)" text="" font-familyName="" font-pixelSize="20" font-bold="0" font-underline="0" font-alignment="1" strokeStyle="0" markerStart="0" markerEnd="0" shadowEnabled="0" shadowOffsetX="0" shadowOffsetY="2" shadowBlur="4" shadowOpacity="160" blurEnabled="0" blurRadius="4" transform="matrix(1.27826,0,0,1.27826,88.493,91.7073)" pers-center="0,0" pers-size="0,0" pers-start="0,0" pers-end="0,0" locked="0" mesh="" flag=""/>
            <path id="shapePath26" d="M91.3978,91.7073 C91.3978,93.1728 90.0973,94.3608 88.493,94.3608 C86.8886,94.3608 85.5881,93.1728 85.5881,91.7073 C85.5881,90.2418 86.8886,89.0538 88.493,89.0538 C90.0973,89.0538 91.3978,90.2418 91.3978,91.7073 Z" style="stroke:none;fill-rule:nonzero;fill:#ff9e00;fill-opacity:1;"/>
        </g>
        <g id="Shape27">
            <desc shapeID="27" type="0" basicInfo-basicType="0" basicInfo-roundedRectRadius="12" basicInfo-polygonSides="6" basicInfo-starPoints="5" bounding="rect(-2.2257,-2.28601,4.4514,4.57202)" text="" font-familyName="" font-pixelSize="20" font-bold="0" font-underline="0" font-alignment="1" strokeStyle="0" markerStart="0" markerEnd="0" shadowEnabled="0" shadowOffsetX="0" shadowOffsetY="2" shadowBlur="4" shadowOpacity="160" blurEnabled="0" blurRadius="4" transform="matrix(1.27826,0,0,1.27826,99.323,98.8461)" pers-center="0,0" pers-size="0,0" pers-start="0,0" pers-end="0,0" locked="0" mesh="" flag=""/>
            <path id="shapePath27" d="M102.168,98.8461 C102.168,100.46 100.894,101.768 99.323,101.768 C97.7518,101.768 96.478,100.46 96.478,98.8461 C96.478,97.2322 97.7518,95.9239 99.323,95.9239 C100.894,95.9239 102.168,97.2322 102.168,98.8461 Z" style="stroke:none;fill-rule:nonzero;fill:#0072ff;fill-opacity:1;"/>
        </g>
        <g id="Shape28">
            <desc shapeID="28" type="0" basicInfo-basicType="0" basicInfo-roundedRectRadius="12" basicInfo-polygonSides="6" basicInfo-starPoints="5" bounding="rect(-2.25587,-2.52139,4.51173,5.04278)" text="" font-familyName="" font-pixelSize="20" font-bold="0" font-underline="0" font-alignment="1" strokeStyle="0" markerStart="0" markerEnd="0" shadowEnabled="0" shadowOffsetX="0" shadowOffsetY="2" shadowBlur="4" shadowOpacity="160" blurEnabled="0" blurRadius="4" transform="matrix(1.27826,0,0,1.27826,110.648,102.446)" pers-center="0,0" pers-size="0,0" pers-start="0,0" pers-end="0,0" locked="0" mesh="" flag=""/>
            <path id="shapePath28" d="M113.531,102.446 C113.531,104.226 112.24,105.669 110.648,105.669 C109.055,105.669 107.764,104.226 107.764,102.446 C107.764,100.666 109.055,99.2235 110.648,99.2235 C112.24,99.2235 113.531,100.666 113.531,102.446 Z" style="stroke:none;fill-rule:nonzero;fill:#ffff00;fill-opacity:1;"/>
        </g>
        <g id="Shape29">
            <desc shapeID="29" type="0" basicInfo-basicType="0" basicInfo-roundedRectRadius="12" basicInfo-polygonSides="6" basicInfo-starPoints="5" bounding="rect(-1.39544,-1.23745,2.79087,2.47489)" text="" font-familyName="" font-pixelSize="20" font-bold="0" font-underline="0" font-alignment="1" strokeStyle="0" markerStart="0" markerEnd="0" shadowEnabled="0" shadowOffsetX="0" shadowOffsetY="2" shadowBlur="4" shadowOpacity="160" blurEnabled="0" blurRadius="4" transform="matrix(1.27826,0,0,1.27826,82.1206,83.9092)" pers-center="0,0" pers-size="0,0" pers-start="0,0" pers-end="0,0" locked="0" mesh="" flag=""/>
            <path id="shapePath29" d="M83.7358,82.9291 C84.1532,83.6147 83.7683,84.6094 82.8762,85.1507 C81.9841,85.692 80.9226,85.575 80.5053,84.8893 C80.0879,84.2037 80.4728,83.2091 81.3649,82.6678 C82.257,82.1265 83.3185,82.2435 83.7358,82.9291 Z" style="stroke:none;fill-rule:nonzero;fill:#e6180a;fill-opacity:1;"/>
        </g>
        <g id="Shape30">
            <desc shapeID="30" type="0" basicInfo-basicType="0" basicInfo-roundedRectRadius="12" basicInfo-polygonSides="6" basicInfo-starPoints="5" bounding="rect(-0.783478,-0.906845,1.56696,1.81369)" text="" font-familyName="" font-pixelSize="20" font-bold="0" font-underline="0" font-alignment="1" strokeStyle="0" markerStart="0" markerEnd="0" shadowEnabled="0" shadowOffsetX="0" shadowOffsetY="2" shadowBlur="4" shadowOpacity="160" blurEnabled="0" blurRadius="4" transform="matrix(1.27826,0,0,1.27826,89.6451,78.3173)" pers-center="0,0" pers-size="0,0" pers-start="0,0" pers-end="0,0" locked="0" mesh="" flag=""/>
            <path id="shapePath30" d="M90.6466,78.3173 C90.6466,78.9575 90.1982,79.4764 89.6451,79.4764 C89.092,79.4764 88.6436,78.9575 88.6436,78.3173 C88.6436,77.6771 89.092,77.1581 89.6451,77.1581 C90.1982,77.1581 90.6466,77.6771 90.6466,78.3173 Z" style="stroke:none;fill-rule:nonzero;fill:#e6180a;fill-opacity:1;"/>
        </g>
        <g id="Shape31">
            <desc shapeID="31" type="0" basicInfo-basicType="0" basicInfo-roundedRectRadius="12" basicInfo-polygonSides="6" basicInfo-starPoints="5" bounding="rect(-0.836892,-0.667085,1.67378,1.33417)" text="" font-familyName="" font-pixelSize="20" font-bold="0" font-underline="0" font-alignment="1" strokeStyle="0" markerStart="0" markerEnd="0" shadowEnabled="0" shadowOffsetX="0" shadowOffsetY="2" shadowBlur="4" shadowOpacity="160" blurEnabled="0" blurRadius="4" transform="matrix(1.27826,0,0,1.27826,75.4158,90.1435)" pers-center="0,0" pers-size="0,0" pers-start="0,0" pers-end="0,0" locked="0" mesh="" flag=""/>
            <path id="shapePath31" d="M76.4345,89.4174 C76.5541,89.5546 76.4601,89.8319 76.1898,90.139 C75.9195,90.446 75.5168,90.7331 75.142,90.8858 C74.7671,91.0386 74.4808,91.0324 74.3971,90.8696 C74.2775,90.7324 74.3715,90.4551 74.6418,90.148 C74.9121,89.8409 75.3147,89.5539 75.6896,89.4011 C76.0645,89.2483 76.3507,89.2546 76.4345,89.4174 Z" style="stroke:none;fill-rule:nonzero;fill:#e6180a;fill-opacity:1;"/>
        </g>
        <g id="Shape32">
            <desc shapeID="32" type="0" basicInfo-basicType="0" basicInfo-roundedRectRadius="12" basicInfo-polygonSides="6" basicInfo-starPoints="5" bounding="rect(-2.70566,-2.59083,5.41132,5.18166)" text="" font-familyName="" font-pixelSize="20" font-bold="0" font-underline="0" font-alignment="1" strokeStyle="0" markerStart="0" markerEnd="0" shadowEnabled="0" shadowOffsetX="0" shadowOffsetY="2" shadowBlur="4" shadowOpacity="160" blurEnabled="0" blurRadius="4" transform="matrix(1.27826,0,0,1.27826,58.6133,102.319)" pers-center="0,0" pers-size="0,0" pers-start="0,0" pers-end="0,0" locked="0" mesh="" flag=""/>
            <path id="shapePath32" d="M55.1547,103.406 L59.8695,99.0075 L62.0718,101.232 L57.357,105.631 L55.1547,103.406 Z" style="stroke:none;fill-rule:evenodd;fill:#e6180a;fill-opacity:1;"/>
        </g>
        <g id="Shape33">
            <desc shapeID="33" type="0" basicInfo-basicType="0" basicInfo-roundedRectRadius="12" basicInfo-polygonSides="6" basicInfo-starPoints="5" bounding="rect(-3.45459,-3.06518,6.90917,6.13035)" text="" font-familyName="" font-pixelSize="20" font-bold="0" font-underline="0" font-alignment="1" strokeStyle="0" markerStart="0" markerEnd="0" shadowEnabled="0" shadowOffsetX="0" shadowOffsetY="2" shadowBlur="4" shadowOpacity="160" blurEnabled="0" blurRadius="4" transform="matrix(1.27826,0,0,1.27826,49.8849,109.002)" pers-center="0,0" pers-size="0,0" pers-start="0,0" pers-end="0,0" locked="0" mesh="" flag=""/>
            <path id="shapePath33" d="M45.469,110.65 L52.341,105.084 L54.3007,107.354 L47.4288,112.92 L45.469,110.65 Z" style="stroke:none;fill-rule:evenodd;fill:#e6180a;fill-opacity:1;"/>
        </g>
        <g id="Shape34">
            <desc shapeID="34" type="0" basicInfo-basicType="0" basicInfo-roundedRectRadius="12" basicInfo-polygonSides="6" basicInfo-starPoints="5" bounding="rect(-0.911835,-0.887028,1.82367,1.77405)" text="" font-familyName="" font-pixelSize="20" font-bold="0" font-underline="0" font-alignment="1" strokeStyle="0" markerStart="0" markerEnd="0" shadowEnabled="0" shadowOffsetX="0" shadowOffsetY="2" shadowBlur="4" shadowOpacity="160" blurEnabled="0" blurRadius="4" transform="matrix(1.27826,0,0,1.27826,42.3214,115.204)" pers-center="0,0" pers-size="0,0" pers-start="0,0" pers-end="0,0" locked="0" mesh="" flag=""/>
            <path id="shapePath34" d="M43.3023,114.396 C43.5314,114.655 43.5486,115.064 43.3469,115.461 C43.1452,115.857 42.7574,116.177 42.3379,116.292 C41.9183,116.407 41.535,116.3 41.3405,116.012 C41.1114,115.753 41.0943,115.343 41.2959,114.947 C41.4976,114.55 41.8854,114.231 42.305,114.115 C42.7245,114 43.1078,114.108 43.3023,114.396 Z" style="stroke:none;fill-rule:nonzero;fill:#e6180a;fill-opacity:1;"/>
        </g>
        <g id="Shape35">
            <desc shapeID="35" type="0" basicInfo-basicType="0" basicInfo-roundedRectRadius="12" basicInfo-polygonSides="6" basicInfo-starPoints="5" bounding="rect(-2.97286,-3.37151,5.94573,6.743)" text="" font-familyName="" font-pixelSize="20" font-bold="0" font-underline="0" font-alignment="1" strokeStyle="0" markerStart="0" markerEnd="0" shadowEnabled="0" shadowOffsetX="0" shadowOffsetY="2" shadowBlur="4" shadowOpacity="160" blurEnabled="0" blurRadius="4" transform="matrix(1.27826,0,0,1.27826,45.6283,190.166)" pers-center="0,0" pers-size="0,0" pers-start="0,0" pers-end="0,0" locked="0" mesh="" flag=""/>
            <path id="shapePath35" d="M42.5981,186.51 L44.4127,185.857 L47.0344,187.258 L49.4036,189.478 L49.4284,191.832 L44.3657,194.476 L41.8282,192.786 L42.0807,187.728 " style="stroke:none;fill-rule:nonzero;fill:#e6180a;fill-opacity:1;"/>
        </g>
        <g id="Shape36">
            <desc shapeID="36" type="0" basicInfo-basicType="0" basicInfo-roundedRectRadius="12" basicInfo-polygonSides="6" basicInfo-starPoints="5" bounding="rect(-7.27045,-17.3436,14.5409,34.6872)" text="" font-familyName="" font-pixelSize="20" font-bold="0" font-underline="0" font-alignment="1" strokeStyle="0" markerStart="0" markerEnd="0" shadowEnabled="0" shadowOffsetX="0" shadowOffsetY="2" shadowBlur="4" shadowOpacity="160" blurEnabled="0" blurRadius="4" transform="matrix(1.27826,0,0,1.27826,62.3859,130.952)" pers-center="0,0" pers-size="0,0" pers-start="0,0" pers-end="0,0" locked="0" mesh="" flag=""/>
            <path id="shapePath36" d="M62.8067,110.624 L68.6072,108.782 L69.9465,110.773 L68.2606,133.117 L71.6794,137.098 L68.013,151.23 L63.849,153.122 L53.5875,149.242 L53.0923,145.061 L57.0088,125.852 L61.767,112.316 " style="stroke:none;fill-rule:nonzero;fill:#e6180a;fill-opacity:1;"/>
        </g>
        <g id="Shape37">
            <desc shapeID="37" type="0" basicInfo-basicType="0" basicInfo-roundedRectRadius="12" basicInfo-polygonSides="6" basicInfo-starPoints="5" bounding="rect(-10.3217,-4.57019,20.6435,9.1404)" text="" font-familyName="" font-pixelSize="20" font-bold="0" font-underline="0" font-alignment="1" strokeStyle="0" markerStart="0" markerEnd="0" shadowEnabled="0" shadowOffsetX="0" shadowOffsetY="2" shadowBlur="4" shadowOpacity="160" blurEnabled="0" blurRadius="4" transform="matrix(1.27826,0,0,1.27826,128.269,205.729)" pers-center="0,0" pers-size="0,0" pers-start="0,0" pers-end="0,0" locked="0" mesh="" flag=""/>
            <path id="shapePath37" d="M117.395,205.648 L133.422,201.962 L137.578,200.175 L140.601,199.887 L141.391,201.348 L141.463,208.573 L140.185,209.783 L117.555,211.571 L115.236,211.155 L115.075,208.066 " style="stroke:none;fill-rule:nonzero;fill:#e6180a;fill-opacity:1;"/>
        </g>
        <g id="Shape38">
            <desc shapeID="38" type="0" basicInfo-basicType="0" basicInfo-roundedRectRadius="12" basicInfo-polygonSides="6" basicInfo-starPoints="5" bounding="rect(-5.98931,-13.3023,11.9786,26.6045)" text="" font-familyName="" font-pixelSize="20" font-bold="0" font-underline="0" font-alignment="1" strokeStyle="0" markerStart="0" markerEnd="0" shadowEnabled="0" shadowOffsetX="0" shadowOffsetY="2" shadowBlur="4" shadowOpacity="160" blurEnabled="0" blurRadius="4" transform="matrix(1.27826,0,0,1.27826,172.976,87.8315)" pers-center="0,0" pers-size="0,0" pers-start="0,0" pers-end="0,0" locked="0" mesh="" flag=""/>
            <path id="shapePath38" d="M171.737,70.8277 C172.079,70.8277 174.26,71.1707 174.56,71.4292 C174.859,71.6852 176.525,73.7481 176.525,73.7481 L176.013,77.6974 L176.27,79.3725 L179.434,84.91 L180.632,91.4366 L179.434,99.7676 L177.211,104.835 L165.32,90.1914 L169.47,88.8617 L173.403,84.8255 L174.302,80.4015 L173.918,79.9292 L169.811,79.4148 L167.417,75.8507 L169.083,72.0729 " style="stroke:none;fill-rule:nonzero;fill:#e6180a;fill-opacity:1;"/>
        </g>
        <g id="Shape39">
            <desc shapeID="39" type="0" basicInfo-basicType="0" basicInfo-roundedRectRadius="12" basicInfo-polygonSides="6" basicInfo-starPoints="5" bounding="rect(-54.9137,-84.6043,109.827,169.209)" text="" font-familyName="" font-pixelSize="20" font-bold="0" font-underline="0" font-alignment="1" strokeStyle="0" markerStart="0" markerEnd="0" shadowEnabled="0" shadowOffsetX="0" shadowOffsetY="2" shadowBlur="4" shadowOpacity="160" blurEnabled="0" blurRadius="4" transform="matrix(1.27826,0,0,1.27826,110.721,156.027)" pers-center="0,0" pers-size="0,0" pers-start="0,0" pers-end="0,0" locked="0" mesh="" flag=""/>
            <path id="shapePath39" d="M83.9165,79.8423 C80.968,82.1462 77.7373,86.2645 74.2516,87.624 C72.8652,88.1534 70.4317,84.2712 69.1518,87.4973 C67.0945,86.9057 65.5374,87.8328 65.4383,89.9827 C63.1335,89.9901 60.2296,91.7498 58.9373,93.7207 C57.645,95.6991 59.8483,97.8837 58.2565,99.6931 C54.5431,103.908 48.8516,107.199 44.5365,110.788 C43.0734,111.993 40.167,113.529 40.5631,115.828 C41.1078,118.97 46.0368,114.834 47.0567,113.964 C50.0077,111.538 53.0403,108.73 56.2785,106.737 C56.9221,106.342 58.4546,104.644 59.2171,104.798 C60.0613,104.989 61.7694,109.264 61.9452,110.114 C62.22,111.606 60.4821,113.927 59.9919,115.334 C58.3333,120.106 56.5062,124.88 55.1842,129.749 C53.7929,134.876 53.7409,140.69 51.8718,145.655 C50.9138,148.166 48.8986,150.186 47.7053,152.615 C45.7149,156.671 44.0959,161.654 43.0016,166.036 C41.9619,170.201 41.8455,175.169 42.1649,179.457 C42.2441,180.235 43.1551,180.759 43.1427,181.445 C43.1254,182.191 41.749,182.38 41.5336,183.2 C41.2538,184.261 42.0757,185.173 42.0584,186.167 C41.9891,189.987 40.3675,194.464 42.66,198.097 C44.3806,200.665 51.3247,197.287 52.315,195.236 C52.8893,194.155 52.0674,193.077 51.654,192.132 C50.2874,189.291 48.0767,187.711 45.6308,185.862 C44.9401,185.322 44.4425,182.852 45.0688,182.094 C45.6308,181.448 46.6879,181.945 47.3637,182.079 C49.0966,182.457 51.2505,182.233 53.0577,182.193 C59.2369,182.039 64.7773,181.259 70.6347,179.042 C72.3379,178.395 75.3954,177.63 76.3287,175.98 C71.0333,176.228 66.3073,179.849 60.7322,178.962 C60.8188,178.977 64.713,175.028 64.713,175.028 C66.4657,172.811 72.2117,166.041 73.499,163.553 C74.415,161.813 75.3038,158.845 76.7644,157.488 C77.621,156.693 79.8961,157.019 81.0324,156.792 C83.7556,156.238 86.5976,155.227 88.843,153.484 C91.0711,151.755 89.9274,148.181 93.4106,147.313 C95.3391,146.833 97.077,148.529 97.2305,150.383 C97.3592,151.936 95.9877,153.504 94.6484,154.113 C93.2769,154.737 91.8633,154.016 90.4398,154.874 C86.9739,156.952 85.0924,161.622 83.9734,165.295 C83.6566,166.336 82.9634,168.643 83.7556,169.615 C84.6939,170.763 89.2688,169.272 90.4398,168.857 C93.4626,167.857 97.4657,166.568 99.7061,164.164 C100.474,163.339 100.34,162.086 100.699,161.07 C101.627,158.433 103.89,156.932 106.487,158.378 C108.514,159.516 108.136,161.818 106.754,163.307 C104.875,165.317 102.169,164.057 100.565,166.299 C98.2207,169.58 97.327,174.327 96.5472,178.219 C96.3615,179.149 95.8862,181.761 96.7799,182.444 C97.5226,183.023 98.8322,182.444 99.6021,182.201 C102.155,181.45 104.598,180.386 106.883,178.99 C109.123,177.62 110.792,175.982 112.723,174.242 C109.752,179.882 107.272,185.834 104.63,191.64 C103.692,193.701 102.875,197.451 101.211,198.994 C99.6021,200.486 95.2747,196.564 93.6606,195.96 C92.856,195.654 91.2741,195.276 90.6898,196.193 C89.2045,198.53 94.3959,201.758 95.6411,203.073 C91.5638,202.896 87.3329,201.917 83.2629,202.089 C82.0251,202.141 79.9604,202.079 79.0544,203.023 C78.0641,204.02 78.9207,204.992 80.0446,205.24 C83.0822,205.914 86.605,206.49 89.6996,206.801 L89.6996,207.05 C87.1101,207.668 84.3894,206.978 81.7776,207.445 C80.8789,207.606 79.5049,207.892 79.0544,208.814 C78.4627,210.131 80.2922,210.855 81.2824,210.979 C84.5775,211.397 88.1201,211.272 91.4325,211.272 L91.4325,211.769 C88.1375,212.03 84.986,212.659 81.7776,213.452 C80.7873,213.693 78.5122,214.424 79.7005,215.855 C80.5397,216.894 82.2727,216.785 83.5105,216.74 C86.9046,216.576 90.2764,215.318 93.6606,215.249 C92.0688,217.352 88.8604,217.901 86.9764,219.971 C83.8051,223.538 89.4991,222.114 91.185,221.214 C90.2566,223.955 88.8529,226.513 87.7191,229.167 C87.3304,230.074 86.4565,231.329 86.605,232.398 C86.7288,233.238 87.4715,232.895 87.8354,232.398 C88.6301,231.113 89.1401,229.54 89.6996,228.173 L89.9472,228.173 L89.452,230.658 C91.6801,230.293 93.2299,224.703 93.9082,222.705 L94.1558,222.705 C93.9082,223.637 91.7791,227.211 92.809,227.88 C93.4131,228.295 93.9082,227.069 94.084,226.682 C94.8984,224.793 95.8887,222.909 96.6314,220.965 L96.8789,220.965 L95.146,226.433 C97.9955,225.583 98.2331,220.056 100.097,217.983 L97.6216,224.693 C99.6021,224.532 100.521,220.965 101.088,219.226 L101.335,219.226 L100.097,223.451 C101.89,223.157 102.62,220.55 103.068,218.977 L103.316,218.977 L102.573,222.208 C104.182,221.959 104.596,220.113 105.049,218.728 L105.296,218.728 C104.373,221.711 106.286,220.56 107.029,218.48 L107.277,218.48 L107.277,219.971 C108.839,219.723 109.257,218.09 109.752,216.74 L110,216.74 L109.752,218.977 C111.119,218.741 111.443,217.486 111.733,216.243 L111.98,216.243 L111.733,217.983 C113.322,217.856 113.81,216.392 114.208,215 L114.456,215 L114.208,217.237 C115.414,217.021 115.758,215.803 116.189,214.752 L116.437,214.752 L116.437,216.243 C117.922,215.997 118.345,214.615 118.665,213.261 L118.912,213.261 C118.335,216.574 120.11,213.872 121.187,213.41 C122.182,213.012 123.762,213.149 124.854,213.012 C124.854,223.346 124.027,233.022 127.282,243.085 C127.693,244.355 128.446,245.518 128.768,246.813 C129.228,248.663 128.04,251.324 130.793,251.536 C130.617,255.674 130.478,259.665 133.167,263.217 C135.085,265.702 140.443,262.794 141.599,260.732 C143.725,256.936 139.66,253.524 136.734,251.451 C135.69,250.725 132.961,249.078 133.598,247.363 C133.989,246.316 135.838,245.528 136.734,244.969 C139.121,243.478 141.354,241.718 143.406,239.785 C148.793,234.705 152.499,228.312 155.703,221.713 C159.513,213.837 162.236,204.408 162.236,195.617 C162.236,193.38 162.196,191.143 162.164,188.906 C162.157,188.414 162.137,186.985 161.293,187.166 C160.476,187.303 160.753,189.021 160.753,189.58 C160.825,192.137 160.58,194.623 160.226,197.108 C159.369,203.23 158.215,209.535 155.802,215.251 C154.17,219.228 151.593,222.956 150.108,226.933 L149.86,226.933 C153.078,216.758 153.66,205.312 151.544,194.871 C150.967,192.028 150.001,189.105 148.375,186.669 C148.003,186.053 147.59,184.93 146.837,184.681 C146.055,184.375 144.275,185.243 143.527,185.563 C141.034,186.669 138.472,187.611 135.997,188.658 C138.215,186.744 143.713,183.053 143.646,179.713 C143.604,177.722 141.69,176.231 141.985,173.994 C142.176,172.503 143.829,171.011 145.399,171.138 C146.003,171.193 146.483,171.533 146.954,171.889 C150.288,174.416 146.716,176.489 146.709,179.211 C146.701,181.706 148.125,185.188 149.348,187.338 C150.105,188.71 151.89,192.582 153.952,191.745 C155.056,191.292 155.651,189.659 156.126,188.665 C157.44,185.926 159.206,182.618 158.693,179.459 C158.344,177.312 154.779,174.737 158.426,172.997 C159.639,172.398 160.882,173.561 161.077,174.737 C161.332,176.261 160.052,177.719 160.005,179.211 C159.946,182.981 163.382,186.018 166.051,188.093 C166.937,188.794 172.25,192.266 172.923,189.841 C173.225,188.757 172.133,187.099 171.688,186.17 C170.153,183.033 168.526,179.989 167.286,176.725 C165.697,172.54 163.875,168.524 163.087,164.05 C162.357,159.914 162.832,155.351 161.038,151.417 C159.81,148.75 157.733,146.558 155.294,144.957 C154.007,144.114 152.195,143.548 151.192,142.332 C150.452,141.435 151.244,140.205 151.313,139.196 C151.496,136.522 150.519,133.982 151.734,131.31 C152.17,130.355 153.985,129.62 154.804,129.006 C156.47,127.664 157.819,126.185 160.003,125.899 C163.627,125.424 167.143,129.958 167.43,133.231 C166.301,133.233 165.261,133.303 164.211,133.77 C157.889,136.586 164.261,147.216 170.101,141.967 C172.381,139.897 170.537,137.831 170.831,135.468 C170.95,134.506 171.829,133.82 172.245,132.982 C173.012,131.432 173.374,129.006 173.277,127.266 C172.997,123.491 170.074,120.153 170.22,116.33 C170.4,111.625 176.458,107.291 178.493,103.158 C181.296,97.3692 181.756,89.8286 179.399,83.7717 C178.694,81.9573 177.087,80.5406 176.441,78.8133 C176.094,77.9484 177.005,76.9617 177.06,76.0669 C177.255,72.9006 175.354,69.8957 171.888,70.1989 C168.301,70.5121 165.833,74.9038 167.86,78.0553 C169.165,80.1231 171.586,80.7121 173.869,80.2921 C173.809,87.2736 166.009,91.0563 159.758,90.1268 C156.171,89.5949 153.405,87.5917 149.608,87.7582 C146.84,87.88 144.354,88.8891 141.686,89.4881 C140.809,89.6446 139.423,90.2337 138.581,89.7366 C135.214,87.8527 136.682,83.8288 136.982,81.0377 C138.962,82.4345 141.294,83.5231 143.664,82.1214 C147.194,80.0436 146.468,73.9444 142.428,72.9527 C140.534,72.488 138.304,73.246 137.143,74.8342 C136.608,75.5699 136.576,76.7455 135.863,77.3246 C134.454,78.4678 132.149,78.6045 130.595,79.8423 C127.29,82.4718 126.198,87.7483 126.624,91.7249 C126.797,93.3603 127.324,95.2119 128.067,96.6957 C128.631,97.8166 129.768,98.7561 129.253,100.133 C128.27,102.758 125.99,105.081 124.802,107.674 C123.856,109.662 124.009,112.177 123.007,114.046 C122.514,114.966 121.378,115.388 120.719,116.191 C119.64,117.511 119.853,119.241 120.143,120.804 C116.677,119.986 112.312,122.477 113.211,126.272 C111.713,125.23 109.794,123.786 108.012,123.322 C100.431,121.55 92.3906,127.83 85.4613,130.005 C83.82,130.522 81.7553,131.056 80.0372,130.992 C78.7994,130.932 76.9996,130.288 75.8979,130.999 C74.014,132.234 76.8188,133.932 77.314,134.861 C77.8735,135.883 76.2222,135.508 75.8286,135.321 C74.3432,134.623 70.3822,132.873 69.6395,131.412 C69.0998,130.286 69.6395,127.805 69.6345,126.52 C69.5331,121.428 70.8179,116.4 70.8773,111.355 C70.8773,109.809 71.2214,108.158 71.1001,106.632 C71.0283,105.725 70.4886,104.828 70.9244,103.941 C71.5532,102.658 72.8083,101.662 73.5114,100.377 C74.4843,98.6119 74.8086,96.5963 76.2445,95.105 C77.8116,93.4597 80.8665,91.9784 81.9409,89.9156 C82.4237,88.991 81.525,88.1335 81.9162,87.2984 C82.2455,86.5304 83.8299,85.8494 84.4958,85.3822 C86.7239,83.8363 88.8034,82.1537 90.9275,80.4735 C91.6603,79.892 92.7694,78.1373 93.777,79.1364 C95.7327,81.075 94.4999,88.2752 91.8485,89.237 C90.4349,89.7341 89.0386,87.6986 87.219,88.4914 C85.9094,89.0034 85.2385,90.3679 85.2385,91.7224 C85.1593,96.5366 93.0368,95.7363 91.6752,90.9768 C97.5449,89.3663 96.3269,81.7883 97.6687,77.3072 C98.1836,75.5873 100.063,74.3669 100.34,72.8335 C101.402,72.5178 102.377,71.0241 103.37,72.3935 C104.301,73.7207 103.241,78.0528 103.311,79.7925 C103.514,84.0848 104.796,87.9943 103.162,92.2195 C102.791,93.164 102.454,94.7049 101.526,95.2293 C100.867,95.9327 98.7778,95.5276 97.4632,96.1415 C95.0098,97.8912 95.5718,103.491 100.451,101.758 C103.083,100.826 101.664,99.0394 102.922,97.3817 C104.232,95.6518 106.328,94.5856 107.519,92.7191 C110.228,88.5063 108.831,83.5281 108.014,79.0494 C107.767,77.7371 107.188,72.6396 109.49,72.6396 C110.361,72.6396 110.733,73.9295 110.973,74.5757 C111.79,76.8126 112.604,78.9848 113.109,81.2863 C114.203,86.344 114.812,93.3802 111.641,97.9384 C110.594,99.4296 108.346,98.7089 107.519,100.677 C106.69,102.83 107.683,105.238 109.995,105.76 C112.471,106.327 114.3,104.279 114.194,101.918 C114.154,101.043 113.453,99.9888 113.889,99.1836 C114.58,97.8837 115.907,97.0511 116.585,95.704 C118.781,91.3372 119.113,85.1386 117.496,80.5431 C116.184,76.9169 110.233,72.5899 111.456,68.6133 C112.468,65.3176 116.323,65.9017 118.905,64.5372 C124.752,61.4479 126.124,57.1979 124.111,51.5063 C123.97,50.5122 125.188,49.5428 124.591,48.5189 C124.057,47.6018 122.866,47.736 122.311,48.5189 C121.202,50.0996 123.23,51.2155 121.217,52.754 C119.969,53.7258 118.34,53.3654 116.927,53.8749 C116.271,54.1135 115.805,54.8442 115.129,54.9709 C114.07,55.1921 113.112,54.362 112.107,55.1921 C110.483,56.4373 110.985,60.0759 108.014,60.4115 C103.42,60.8265 103.776,57.2774 101.461,54.4465 C99.6591,52.242 96.874,50.9222 94.1508,50.2785 C90.1031,49.3241 85.5356,50.4252 83.003,53.9892 C81.525,56.0546 80.8517,61.0999 77.564,60.9881 C76.2816,60.9433 73.0262,59.9268 72.5236,58.617 C71.87,57.0115 72.9469,55.4382 71.1026,54.198 C69.3598,53.0572 66.7554,53.8351 66.2726,55.9402 C65.8221,57.9236 66.6712,60.1182 68.8993,60.3593 C69.7979,60.4587 70.7436,59.9119 71.5804,60.327 C73.806,61.515 75.5068,63.558 78.3067,63.0286 C81.9533,62.3376 83.0104,57.429 85.7336,55.2642 C89.0906,52.6098 95.2822,54.8715 98.6069,56.5392 C99.8052,57.1805 101.741,58.1746 101.991,59.6658 C102.268,61.3037 98.8545,60.235 98.1118,60.1629 C93.9973,59.5739 89.1995,60.8365 87.0309,64.6416 C85.4613,67.3929 86.6298,70.363 82.7629,71.5212 C81.7008,71.8443 80.0991,72.3413 79.1757,71.4565 C77.9799,70.353 78.485,68.402 76.5688,67.7831 C74.5165,67.1245 72.2265,68.0491 71.9245,70.3555 C71.8601,70.8551 71.9245,71.3696 72.078,71.8467 C73.353,75.8905 76.5317,72.9006 79.0469,73.2237 C81.4805,73.5368 83.7482,74.2551 85.9688,72.488 C88.7613,70.266 88.2068,66.876 92.1678,65.4692 C93.8092,64.8926 98.9238,63.5008 99.6814,65.8843 C100.226,67.6191 97.8296,68.7176 96.7675,69.5403 C94.3018,71.4516 91.8905,73.4821 89.4446,75.4779 C88.6772,76.1515 84.9513,79.0469 83.9165,79.8423 M113.218,63.389 C115.664,63.1404 118.598,60.24 119.266,57.9211 C119.561,56.9269 119.031,55.4357 119.625,54.5261 C120.296,53.517 123.254,52.1152 124.054,53.4673 C126.671,57.9211 121.113,63.4312 117.177,63.9184 C115.941,64.07 113.713,65.0865 113.218,63.389 M69.1518,54.541 C72.1646,54.1458 72.9593,59.1737 69.8945,59.6062 C66.6217,60.0685 65.9335,54.9585 69.1518,54.541 M111.485,58.6667 C111.401,59.4248 111.733,60.9359 112.834,60.0511 C113.287,59.6833 111.064,57.424 112.376,56.0844 C113.124,55.3388 114.307,56.0173 115.199,55.8905 C116.053,55.7688 116.932,54.7522 117.843,55.1051 C118.984,55.5525 118.35,57.936 117.922,58.6891 C116.808,60.6873 114.03,63.5306 111.485,63.0708 C108.698,62.5613 109.74,59.718 111.485,58.6667 M114.951,57.1755 L115.941,58.9153 C117.56,57.9211 116.684,56.3503 114.951,57.1755 M112.723,59.8224 C112.634,59.9119 112.248,60.1207 112.087,60.0585 C111.926,59.9964 111.703,58.2492 111.703,58.2492 C111.703,58.2492 112.812,59.7329 112.723,59.8224 M105.791,60.8414 C108.688,60.158 111.208,66.1428 110.312,68.3597 C109.547,70.2312 108.314,68.7276 107.029,69.0432 C106.286,69.2271 106.039,70.1095 105.281,70.2561 C104.801,70.3505 104.259,70.1169 104.244,69.6049 C104.214,68.5561 105.861,68.233 105.427,67.127 C104.969,65.9613 102.078,66.7716 102.325,65.3798 C102.617,63.7344 104.682,65.3798 105.274,64.316 C105.846,63.3293 103.875,61.3037 105.791,60.8414 M74.5982,68.6928 C77.7819,68.1112 79.0989,72.7117 75.5885,73.2734 C72.5459,73.763 71.4467,69.2868 74.5982,68.6928 M172.138,189.647 C167.435,188.735 162.194,184.83 160.946,179.954 C160.245,177.22 164.07,173.648 159.76,171.884 C157.658,171.009 155.94,173.994 155.943,175.729 C155.945,177.546 157.448,178.351 157.884,179.954 C158.572,182.469 156.294,186.254 155.203,188.404 C154.809,189.15 154.299,190.532 153.324,190.661 C151.836,190.89 150.058,186.791 149.578,185.67 C148.838,183.94 147.523,181.38 147.706,179.457 C147.813,178.346 148.701,177.526 148.991,176.474 C149.697,173.887 148.751,171.255 146.144,170.298 C144.315,169.625 141.936,171.265 141.388,172.997 C140.45,175.763 142.978,177.61 142.631,179.956 C142.116,183.436 136.44,186.784 134.014,188.904 L133.766,188.904 C131.6,186.963 131.785,184.181 131.434,181.448 C131.29,180.453 130.959,178.771 131.538,177.866 C132.959,175.731 135.994,175.406 135.383,172.003 C134.729,168.392 130.3,167.92 128.171,170.522 C126.094,173.052 128.3,175.649 127.156,178.217 C125.304,182.372 120.895,185.526 117.677,188.407 C117.677,188.407 116.422,188.397 116.177,188.148 C115.931,187.9 115.387,187.271 115.162,186.625 C114.545,184.855 114.315,182.307 114.53,180.453 C114.706,178.627 114.099,175.731 114.857,174.061 C115.508,172.647 118.417,172.259 119.531,171.081 C122.046,168.424 118.902,164.112 115.696,164.602 C113.275,164.972 111.339,167.604 111.535,170.017 C111.626,171.151 112.523,172.55 111.876,173.619 C109.143,178.139 102.011,180.776 97.129,181.699 C97.129,177.225 98.5475,169.577 101.961,166.369 C103.776,164.661 106.586,166.13 108.269,163.307 C110.069,160.324 107.846,156.86 104.558,156.653 C102.254,156.509 100.429,158.833 99.8547,160.821 C99.6665,161.567 99.8547,162.561 99.4363,163.15 C97.5449,165.601 93.418,166.645 90.6948,167.676 C89.655,168.064 85.59,169.461 84.7533,168.377 C83.9413,167.298 85.4712,164.599 85.8772,163.558 C86.9813,160.692 88.5138,157.198 91.4375,155.684 C93.6086,154.561 95.7872,155.915 97.4459,153.368 C99.6071,149.995 96.8344,144.984 92.6753,146.423 C89.457,147.532 90.1997,150.559 88.3603,152.505 C85.3722,155.644 79.8688,156.102 75.841,156.102 C76.3064,152.373 80.1263,146.538 83.31,144.572 C84.3398,143.936 85.4044,144.547 86.4862,144.303 C88.7143,143.789 90.6824,141.018 90.0957,138.714 C89.5362,136.519 86.402,135.721 84.5057,136.469 C83.7531,136.775 83.0995,137.643 82.2776,137.73 C81.4334,137.821 80.7923,136.793 80.2748,136.29 C78.8786,134.986 76.6456,133.763 76.3361,131.745 C79.9283,131.745 83.2679,131.745 86.7016,130.502 C92.2619,128.452 97.8123,124.587 103.816,123.839 C107.886,123.332 110.166,127.022 113.966,127.022 C113.948,126.177 113.624,125.106 113.911,124.298 C114.914,121.49 119.12,122.874 120.501,121.058 C121.187,120.098 120.7,118.846 121.111,117.826 C121.64,116.482 123.126,116.032 123.762,114.844 C124.69,113.042 124.611,110.746 125.44,108.879 C126.708,105.991 129.315,103.163 130.179,100.18 C130.746,98.1919 128.669,95.8606 128.077,93.9667 C126.839,90.0746 127.168,86.1104 129.236,82.5339 C131.048,79.3477 133.615,79.5813 136.242,77.8763 C138.296,76.569 139.529,72.4731 142.928,74.1979 C145.548,75.5251 145.602,79.8795 142.928,81.2142 C140.616,82.3674 139.215,80.148 137.234,80.5481 C133.682,81.1844 135.749,88.2851 137.145,89.9156 C138.185,91.1384 139.522,91.0066 140.948,90.7382 C143.966,90.0746 146.748,89.0531 149.86,88.7922 C152.831,88.5436 155.059,90.4897 157.782,91.116 C163.518,92.5178 172.809,89.9926 174.369,83.5281 C174.616,82.4743 175.112,80.7942 174.26,79.9069 C173.488,79.119 172.366,79.4123 171.398,79.2159 C169.408,78.8158 167.908,76.8573 168.262,74.8267 C168.871,71.3472 173.525,70.2089 175.51,73.087 C176.926,75.1399 175.077,77.0014 175.567,79.0519 C175.812,80.0485 176.924,80.8687 177.424,81.7858 C178.577,83.9084 179.286,86.1129 179.701,88.4964 C180.801,94.782 179.164,100.923 175.584,106.143 C173.579,109.065 170.066,111.618 169.492,115.339 C168.838,119.581 171.943,123.168 172.346,127.269 C172.507,128.909 172.232,131.203 171.574,132.736 C171.212,133.559 170.368,134.044 170.22,134.978 C169.826,137.459 171.586,139.835 168.888,141.783 C166.135,143.771 161.825,140.69 162.587,137.459 C162.872,136.268 163.771,134.921 164.959,134.533 C165.897,134.228 167.328,134.369 167.922,133.412 C168.606,132.314 167.742,130.5 167.157,129.505 C165.41,126.63 162.783,124.492 159.265,124.974 C157.698,125.188 156.505,126.404 155.304,127.328 C154.066,128.268 152.205,129.155 151.246,130.35 C149.419,132.625 150.338,136.218 150.348,138.704 C150.353,139.874 149.447,141.308 149.786,142.432 C150.283,144.057 153.229,145.074 154.564,145.911 C157.104,147.452 159.104,149.689 160.414,152.373 C162.795,157.262 161.944,163.983 163.454,169.274 C164.786,173.942 166.845,178.574 168.923,182.944 C170.007,185.173 171.463,187.288 172.138,189.647 M89.452,77.2425 C90.6898,76.8747 91.0785,79.0569 89.9125,79.3576 C88.593,79.6981 88.1944,77.6178 89.452,77.2425 M81.2824,82.2779 L81.0349,82.5265 L81.2824,82.2779 M82.2727,82.6483 C84.6518,82.1984 84.2086,85.1038 82.0251,85.4344 C79.6312,85.7997 80.5274,82.9788 82.2727,82.6483 M70.7115,87.9223 C72.8455,87.1617 73.6575,93.7107 72.0805,93.9792 C70.7139,94.2153 69.1518,88.4914 70.7115,87.9223 M69.3994,96.4447 C67.4189,96.1116 66.0226,91.2949 66.8594,89.5552 C67.8372,87.5271 69.08,90.6338 69.1518,91.4739 C69.2384,92.1375 69.3598,92.7936 69.3895,93.4622 C69.3994,94.4564 69.3994,95.453 69.3994,96.4447 M80.2922,88.9885 C79.6213,91.2253 76.8263,92.1499 75.4102,93.7555 C73.7515,95.5947 73.2836,98.5722 71.6274,100.598 C70.7337,101.758 68.5354,102.315 67.8942,103.287 C67.4189,103.983 68.9042,104.296 69.2508,104.646 C70.0084,105.392 69.6469,107.052 69.0107,107.736 C68.0972,108.67 64.2005,110.363 63.037,109.463 C62.0517,108.7 61.7843,106.99 61.3634,105.889 C61.0787,105.149 60.4871,104.274 60.6108,103.446 C60.7173,102.596 62.5889,100.593 63.4578,100.57 C64.1956,100.553 64.6461,101.217 65.426,100.938 C66.7331,100.471 66.4286,98.9549 67.2282,98.0875 C68.4883,96.7056 69.9886,97.8837 70.3896,95.1995 C74.7121,95.7189 75.7518,89.4856 80.2922,88.9885 M87.4715,89.3439 C90.9374,88.3373 92.8139,93.0123 89.4421,94.0413 C86.4144,94.9659 84.4364,90.2312 87.4715,89.3439 M76.3311,89.4856 C76.1479,90.512 75.5711,90.6388 74.5982,90.7283 C74.7789,89.6446 75.2988,89.5204 76.3311,89.4856 M63.7995,91.4118 C64.5892,91.1831 65.0026,92.135 65.1809,92.7166 C65.5423,93.8971 66.9906,98.7113 65.3839,99.3625 C64.5917,99.6831 64.0495,98.7809 63.8069,98.1844 C63.339,97.0312 61.9452,91.971 63.7995,91.4118 M62.22,100.421 C60.4871,99.8497 58.9324,95.9476 59.9919,94.2774 C60.9822,92.7166 61.9724,94.7596 62.1457,95.6991 C62.22,96.3577 62.22,97.0263 62.324,97.6874 C62.4502,98.6815 62.3958,99.4719 62.22,100.421 M159.265,104.398 C159.265,104.398 157.725,103.374 155.938,102.892 C154.559,102.519 153.007,102.658 152.086,102.658 C152.269,101.212 153.125,99.3749 152.581,97.9359 C150.828,92.898 141.839,96.1961 138.965,97.8837 C132.003,102.002 127.327,110.751 128.466,118.816 C128.624,119.929 128.32,120.936 128.748,122.047 C130.676,127.017 137.418,126.53 141.688,126.066 C151.172,125.027 162.144,114.387 159.265,104.398 M98.8595,96.3154 C102.511,95.3934 102.655,100.729 99.8076,101.346 C96.1363,102.161 95.2846,97.2176 98.8595,96.3154 M141.936,107.132 L139.212,109.866 C141.79,109.421 145.117,107.885 146.251,105.392 C147.382,102.82 145.03,98.433 142.183,98.1844 C142.832,100.528 147.543,104.895 143.173,106.386 C143.173,103.312 142.678,100.014 138.965,99.9242 C140.049,96.3055 149.36,95.0081 151.655,98.0204 C152.818,99.5464 150.511,101.801 151.947,102.996 C154.009,104.714 158.025,102.549 159.124,106.386 C160.075,109.707 157.72,113.345 155.866,115.831 C151.061,122.33 139.646,129.093 131.538,124.033 C129.518,122.728 129.062,120.056 129.062,117.819 C129.055,112.997 130.283,109.689 132.848,105.641 C133.687,104.316 135.004,101.296 136.722,100.961 C137.479,100.804 137.826,102.407 138.051,102.904 C138.868,104.83 139.834,106.506 141.936,107.132 M59.7939,99.6757 C60.6703,99.5141 61.2273,100.727 60.9847,101.425 C60.6529,102.566 58.5511,104.801 57.3133,104.895 C56.5285,104.895 55.5383,103.777 55.9294,103.033 C56.323,102.228 58.9497,99.7925 59.7939,99.6757 M109.752,99.8248 C113.023,98.5448 114.763,103.493 111.958,104.671 C108.604,106.083 106.702,101.028 109.752,99.8248 M142.26,106.381 C142.087,106.511 141.921,106.369 141.626,106.272 C141.332,106.175 140.651,105.457 140.282,105.034 C139.913,104.612 139.123,103.461 139.123,103.461 C139.123,103.461 139.868,103.709 140.591,103.053 C141.314,102.397 141.344,101.639 141.344,101.639 C141.344,101.639 141.718,102.069 142.148,103.362 C142.379,104.057 142.636,105.397 142.584,105.693 C142.532,105.989 142.433,106.252 142.26,106.381 M138.866,100.841 C139.388,100.317 139.68,100.528 139.96,100.628 C140.24,100.727 140.913,101.122 140.913,101.122 C140.913,101.122 140.319,101.038 139.633,101.659 C138.947,102.28 138.913,102.82 138.913,102.82 C138.913,102.82 138.608,102.161 138.566,101.818 C138.507,101.346 138.341,101.368 138.866,100.841 M47.3662,112.6 C44.5415,110.795 49.7354,106.757 51.8223,106.257 C54.5084,105.641 52.6121,108.623 51.8223,109.262 C51.2579,109.737 50.6786,110.196 50.0894,110.639 C49.1957,111.31 48.2525,111.916 47.3662,112.6 M149.115,108.623 L152.828,110.621 L155.799,112.848 C155.613,109.431 152.175,107.716 149.115,108.623 M131.538,113.097 L134.509,109.12 C132.444,109.259 131.035,111.026 131.538,113.097 M66.4286,109.699 C70.2955,109.053 68.877,115.095 68.6146,117.571 C68.1615,121.478 67.914,125.33 67.6441,129.252 C67.5525,130.606 66.9237,132.15 67.0475,133.477 C67.2233,135.714 69.0305,135.552 69.7435,137.034 C70.3871,138.381 69.7905,140.779 69.5405,142.176 C69.1246,144.49 67.8273,150.825 65.166,151.541 C64.0223,151.869 62.7993,151.29 61.7224,150.982 C58.9943,150.201 54.5431,149.662 54.1271,146.153 C53.8697,144.077 54.7089,141.512 55.006,139.442 C55.9963,132.533 58.0733,125.772 59.9548,119.062 C60.9822,115.361 61.9601,110.445 66.4286,109.699 M147.134,111.357 L145.897,111.357 C146.132,114.62 150.464,116.648 153.324,117.073 C153.319,115.455 153.252,112.652 152.016,111.461 C150.816,110.298 147.531,108.926 147.134,111.357 M143.669,119.31 L141.936,122.044 C146.347,121.353 144.659,117.337 143.421,114.588 C142.183,115.774 143.31,116.73 143.669,118.068 C141.262,117.702 138.826,115.09 137.232,113.345 C136.675,112.697 135.994,111.019 135.004,111.019 C132.211,111.019 132.714,116.661 133.89,118.013 C135.954,120.386 140.945,119.817 143.669,119.31 M139.955,111.108 C139.707,112.764 141.44,113.681 142.926,113.842 C142.802,112.224 141.349,111.606 139.955,111.108 M135.004,112.103 L140.698,118.565 C137.554,118.565 132.323,116.079 135.004,112.103 M147.602,111.533 C147.82,111.138 148.31,110.669 149.004,110.596 C149.697,110.596 150.231,111.101 150.231,111.101 C150.231,111.101 149.407,111.317 148.818,111.976 C148.229,112.635 148.085,113.842 148.085,113.842 C147.392,113.698 147.271,112.232 147.602,111.533 M150.348,113.472 C151.026,112.808 151.014,111.782 151.014,111.782 C151.014,111.782 151.779,112.344 152.145,113.37 C152.519,114.417 152.846,115.637 152.479,116.005 C152.113,116.373 150.845,115.776 150.056,115.411 C149.41,115.112 148.627,114.315 148.627,114.315 C148.627,114.315 149.709,114.096 150.348,113.472 M42.4149,114.245 C44.0439,114.158 43.4893,116.079 42.1673,116.186 C40.7785,116.335 41.1474,114.339 42.4149,114.245 M130.236,130.999 C129.651,131.553 130.659,132.279 131.043,132.513 C132.097,133.107 134.509,134.223 135.583,133.045 C136.581,131.944 130.996,130.278 130.236,130.999 M119.16,132.483 C120.645,138.895 128.052,142.26 133.766,143.607 C135.994,144.164 139.792,144.564 141.44,142.673 C136.383,141.358 131.758,141.43 127.082,138.545 C124.604,137.036 122.004,132.731 119.16,132.483 M78.5468,143.647 C74.9572,157.916 68.8572,169.612 60.1058,177.113 C57.1994,179.606 54.1395,180.699 50.3369,180.699 C49.5522,180.699 47.3662,181.077 47.0344,180.125 C46.6037,178.992 54.9986,172.053 57.6178,169.267 C63.2697,163.133 67.3322,156.121 70.1421,148.389 C71.6274,144.366 73.1004,140.312 73.1128,135.962 C74.0882,135.965 78.933,138.664 78.5468,143.647 M78.8068,147.644 L80.0446,140.188 L77.569,136.211 C79.0519,136.616 80.2476,138.271 81.7776,138.448 C84.2532,138.711 86.7288,135.731 89.3109,138.386 C90.0412,139.146 89.7615,140.352 89.3134,141.182 C87.3552,144.8 84.7483,142.25 82.2727,143.963 C80.8739,144.932 80.3887,147.147 78.8068,147.644 M48.1089,173.989 C46.7275,173.549 50.9732,160.143 51.8174,157.876 C52.4784,156.097 53.5553,153.04 54.9466,151.71 C55.6942,150.987 57.4272,151.225 57.6129,152.381 C57.8728,153.994 55.9641,156.116 55.3971,157.585 C53.5998,162.233 52.2457,166.689 51.0499,171.504 C50.7058,172.868 49.4903,174.429 48.1089,173.989 M115.446,165.623 C117.996,165.121 120.368,167.077 119.16,169.764 C118.504,171.255 115.788,172.769 114.208,173.077 C112.852,173.345 112.579,171.255 112.446,170.261 C112.156,168.176 113.218,166.06 115.446,165.623 M118.169,203.317 C117.674,201.577 120.063,198.005 120.838,196.357 C123.512,190.668 126.587,184.875 128.743,178.96 C129.468,176.971 127.329,174.754 128.02,172.498 C128.619,170.44 131.204,169.018 133.199,170.084 C135.244,171.208 134.85,173.738 133.466,175.229 C132.484,176.261 130.899,176.591 130.053,177.762 C128.565,179.812 127.698,182.623 126.646,184.922 C123.856,191.014 121.388,197.456 118.169,203.317 M113.961,174.983 L110.572,183.433 L103.068,200.334 L102.82,200.334 C103.15,196.606 110.941,178.736 113.961,174.983 M113.961,178.214 C113.961,178.214 107.928,197.866 104.553,200.085 L110.639,185.919 L113.961,178.214 M130.548,179.705 L127.928,186.416 L120.398,202.819 L120.15,202.819 C121.016,197.931 124.45,192.672 126.51,188.156 C127.738,185.464 128.656,181.999 130.548,179.705 M126.339,181.445 L116.189,203.814 L115.941,203.814 C115.694,201.982 117.422,199.489 118.231,197.849 C120.091,194.121 121.727,190.201 123.551,186.416 C124.359,184.738 124.898,182.688 126.339,181.445 M130.795,183.433 C130.3,187.987 126.673,193.44 124.777,197.6 C124.104,199.091 123.519,201.41 122.13,202.322 L127.631,189.895 L130.795,183.433 M113.961,183.93 L109.609,194.121 L106.534,200.583 C106.286,198.674 107.94,196.054 108.762,194.369 C110.495,191.011 111.98,187.42 113.466,183.93 L113.961,183.93 M131.043,185.422 C131.436,187.589 130.379,189.207 129.523,191.138 C128.013,194.541 125.502,198.413 124.854,202.074 C127,202.074 127.577,200.67 128.386,198.843 C129.731,195.761 132.008,192.5 132.528,189.15 L132.281,189.15 L126.587,201.577 L126.339,201.577 C126.943,197.476 129.956,192.227 132.033,188.653 C132.033,188.653 133.568,189.895 134.014,189.895 C134.459,189.895 136.068,189.463 139.353,188.098 C139.792,187.954 147.835,185.422 146.825,186.99 C146.516,187.48 145.196,187.104 144.656,187.41 C144.656,187.41 138.316,188.481 138.769,190.643 C139.457,193.969 142.359,196.892 143.171,200.334 C145.31,209.033 143.05,218.003 141.022,226.431 C140.094,230.295 138.539,234.632 136.658,238.112 C135.618,240.043 133.479,242.23 132.956,244.325 C132.748,245.156 132.278,247 132.484,247.805 C132.724,248.839 133.689,249.851 133.501,250.994 C133.154,253.121 131.355,253.889 131.912,256.504 C132.031,257.1 132.258,257.682 132.491,258.244 C134.011,261.972 135.954,258.579 138.715,257.642 C139.329,257.433 140.26,257.011 140.864,257.431 C142.592,258.639 139.876,261.723 138.705,262.223 C137.687,262.67 135.697,263.55 134.6,263.063 C132.513,262.138 131.481,257.54 131.335,255.51 C131.248,254.307 131.845,252.962 131.387,251.794 C131.04,250.942 130.05,250.633 129.741,249.793 C129.307,248.752 129.926,247.629 129.646,246.562 C129.062,244.353 127.815,242.337 127.188,240.1 C125.938,235.674 125.577,230.991 125.143,226.431 C124.854,223.473 125.168,220.217 125.349,217.235 C125.455,216.009 125.928,214.501 125.448,213.273 C124.715,211.449 121.14,212.264 119.902,213.01 L119.655,213.01 C118.613,212.59 118.006,212.928 117.674,214.004 L117.427,214.004 C116.684,212.644 115.082,213.034 113.961,213.755 L112.228,213.755 L111.98,213.755 C110.743,213.345 108.514,214.501 107.772,215.495 C106.782,215.152 106.269,215.259 105.544,215.992 L99.6021,216.986 C100.649,215.14 103.905,215.087 105.791,214.749 C107.621,214.377 111.814,213.392 112.971,211.909 C114.208,210.395 114.317,206.821 113.961,205.056 L114.704,204.311 C116.355,204.567 119.959,203.764 121.14,202.571 L122.626,203.068 L123.121,202.074 L123.368,202.074 L124.359,202.571 C124.359,200.085 125.995,197.61 127.04,195.363 C128.567,192.085 129.874,188.789 131.043,185.422 M122.378,185.67 L119.623,192.132 L113.961,204.559 L113.713,204.559 L119.056,192.381 L122.378,185.67 M43.2368,186.567 C45.1208,185.678 49.5918,188.804 49.2452,190.89 C48.9778,192.495 47.6707,191.707 46.7522,192.314 C46.2472,192.647 46.0392,193.308 45.5045,193.624 C42.2787,195.401 40.8676,187.686 43.2368,186.567 M114.208,186.664 C114.025,190.194 111.136,194.416 109.641,197.6 C109.089,198.778 108.663,200.389 107.524,201.08 C108.762,196.671 111.458,190.315 114.208,186.664 M133.766,244.823 C134.335,241.674 137.479,238.726 138.695,235.627 C141.77,227.673 144.297,219.079 144.884,210.524 C145.149,206.677 145.033,202.471 143.619,198.843 C142.668,196.405 140.094,193.186 139.861,190.646 C139.695,188.852 144.312,187.922 145.649,188.039 C147.323,188.185 147.694,190.328 148.097,191.635 C149.288,195.483 150.004,199.34 150.422,203.317 C151.432,213.01 145.429,230.912 144.75,232.644 C144.072,234.376 139.032,242.362 133.766,244.823 M147.877,187.907 C152.67,194.672 152.799,206.883 151.484,214.749 C150.999,217.647 150.581,220.592 149.858,223.448 C149.665,224.375 148.867,226.19 149.273,227.104 C149.766,228.233 151.095,226.679 151.432,226.182 C152.89,224.194 153.66,221.708 154.747,219.472 C158.394,212.045 160.887,203.461 161.243,195.115 L161.491,195.115 C161.491,206.59 157.002,219.076 150.9,228.668 C148.588,232.301 146.265,236.072 142.676,238.609 C147.83,229.184 152.823,210.271 150.811,199.693 C150.229,196.623 147.877,187.907 147.877,187.907 M119.16,188.653 C118.095,193.646 114.657,198.942 112.475,203.565 L112.228,203.565 L117.085,192.629 L119.16,188.653 M135.994,188.653 L135.994,188.901 L135.251,188.901 L135.994,188.653 M115.446,188.901 L109.505,201.825 L110.743,202.322 L115.107,192.878 L117.179,189.15 L110.99,202.819 L109.433,201.522 L111.485,196.564 L114.951,188.901 L115.446,188.901 M138.467,192.893 C136.489,193.156 132.773,199.77 135.994,199.541 C138.036,199.397 139.608,198.169 139.903,196.109 C140.044,195.13 140.027,192.682 138.467,192.893 M138.717,193.624 C140.188,196.39 138.222,198.485 135.499,198.843 C135.709,196.785 136.984,194.747 138.717,193.624 M113.961,206.548 L113.961,206.796 C112.929,207.982 113.354,210.681 112.327,211.518 C109.128,214.096 103.39,214.004 99.6021,215.378 C95.5025,216.904 92.153,220.52 87.7191,221.211 C89.1525,218.477 94.7152,218.517 95.4555,215.256 C95.8095,213.693 93.0318,213.954 92.1752,214.046 C88.1523,214.501 84.4042,216.012 80.2922,215.246 L80.2922,214.998 L93.9082,212.015 C93.0392,209.281 90.8458,210.196 88.6994,210.276 C85.9812,210.323 82.144,210.3 79.5495,209.53 L79.5495,209.281 C82.4336,208.051 85.8871,208.287 88.9569,208.287 C89.9447,208.287 92.2594,208.556 92.9179,207.646 C93.8587,206.433 90.7641,206.083 90.1947,205.904 C86.9467,204.88 83.2134,204.311 79.797,204.311 C80.2798,202.931 81.8246,203.466 83.0154,203.379 C86.4714,203.12 89.5535,204.062 92.9179,204.311 C94.0344,204.37 96.9507,204.733 97.1166,203.068 C97.2132,202.106 96.0447,201.457 95.3936,200.995 C93.9082,199.964 91.8237,198.766 91.6801,196.854 L100.345,201.08 L108.762,203.068 L113.961,206.548 M132.281,201.776 C128.686,202.971 124.839,203.759 121.14,204.562 C119.655,204.872 117.766,204.629 116.481,205.481 C114.951,206.488 114.104,209.532 114.887,211.215 C115.654,212.863 119.499,211.836 120.893,211.769 C125.844,211.523 131.043,211.349 135.994,210.706 C137.445,210.527 139.955,210.775 141.086,209.674 C142.678,208.091 141.963,201.477 140.973,199.651 C140.299,198.405 134.147,201.154 132.281,201.776 M139.695,200.247 C140.616,200.334 140.856,201.328 140.923,202.074 C141.064,203.687 141.747,207.912 140.344,209.068 C139.118,210.077 136.484,209.612 134.982,209.808 C130.389,210.41 125.532,210.656 120.893,210.775 C119.482,210.812 117.355,211.528 116.021,210.87 C114.166,209.953 116.437,206.503 117.674,206.07 C122.202,204.48 127.389,204.34 132.033,202.847 C134.229,202.143 137.37,200.085 139.695,200.247 M133.023,211.909 C131.154,212.46 131.37,215.649 131.29,217.235 C131.043,222.854 131.29,228.533 131.538,234.135 C131.592,235.177 131.686,240.669 133.37,240.138 C134.88,239.66 135.746,236.241 136.135,234.881 C136.804,232.458 135.746,229.182 135.541,226.679 C135.239,223.5 135.499,220.217 135.499,216.986 C135.499,215.075 136.232,210.964 133.023,211.909 M133.518,239.355 C132.281,238.609 132.513,235.753 132.352,234.384 C131.741,229.204 132.033,223.945 132.033,218.726 C132.033,217.483 131.751,213.355 133.098,212.761 C135.746,211.521 134.469,217.829 134.613,218.974 C134.986,221.957 134.573,224.947 134.756,227.922 C134.905,229.761 135.811,231.809 135.608,233.638 C135.383,235.669 133.905,237.396 133.518,239.355 M115.199,213.507 L114.704,214.998 L114.456,214.998 L115.199,213.507 M116.932,213.507 L116.684,214.749 L116.437,214.749 L116.932,213.507 M111.238,214.004 L110.743,215.495 L110.495,215.495 L111.238,214.004 M112.971,214.004 L112.228,216.241 L111.98,216.241 L112.971,214.004 M109.257,214.998 L109.257,215.246 L108.514,216.241 L109.257,214.998 M106.782,215.743 L105.544,218.726 L105.296,218.726 L106.782,215.743 M110.495,215.743 L110.247,216.738 L110,216.738 L110.495,215.743 M104.553,216.489 L103.563,218.974 L103.316,218.974 L104.553,216.489 M108.267,216.489 L107.524,218.477 L107.277,218.477 L108.267,216.489 M102.573,216.738 L101.83,218.726 L101.583,218.726 L102.078,216.738 L102.573,216.738 M100.345,217.235 L100.345,217.98 L100.097,217.98 L100.345,217.235 M98.1168,218.229 L97.1265,220.963 L96.8789,220.963 L98.1168,218.229 M101.583,218.974 L101.335,219.223 L101.583,218.974 M95.8887,219.223 L94.4033,222.703 L94.1558,222.703 L95.8887,219.223 M93.6606,220.217 L90.1947,228.17 L89.9472,228.17 C90.2566,226.095 91.8336,221.336 93.6606,220.217 M134.261,259.486 C132.776,258.152 131.29,251.143 135.004,251.802 C135.94,251.966 140,255.385 139.415,256.342 C139.076,256.897 137.791,257.001 137.232,257.25 C136.051,257.747 135.1,258.525 134.261,259.486 Z" style="stroke:none;fill-rule:nonzero;fill:#000000;fill-opacity:1;"/>
        </g>
        <g id="Shape40">
            <desc shapeID="40" type="0" basicInfo-basicType="0" basicInfo-roundedRectRadius="12" basicInfo-polygonSides="6" basicInfo-starPoints="5" bounding="rect(-7.0919,-7.83581,14.1838,15.6716)" text="" font-familyName="" font-pixelSize="20" font-bold="0" font-underline="0" font-alignment="1" strokeStyle="0" markerStart="0" markerEnd="0" shadowEnabled="0" shadowOffsetX="0" shadowOffsetY="2" shadowBlur="4" shadowOpacity="160" blurEnabled="0" blurRadius="4" transform="matrix(1.27826,0,0,1.27826,67.8427,219.586)" pers-center="0,0" pers-size="0,0" pers-start="0,0" pers-end="0,0" locked="0" mesh="" flag=""/>
            <path id="shapePath40" d="M59.4346,212.496 C57.062,217.748 61.8737,224.568 61.9058,229.602 C65.7306,226.347 74.01,225.562 76.4382,220.334 C77.5728,217.866 76.5801,214.976 74.2385,213.904 C71.8858,212.826 69.0599,213.942 67.9364,216.415 C69.065,213.931 68.0783,211.056 65.7367,209.984 C63.389,208.896 60.5693,210.027 59.4346,212.496 Z" style="stroke:none;fill-rule:nonzero;fill:#e6180a;fill-opacity:1;"/>
        </g>
        <g id="Shape41">
            <desc shapeID="41" type="0" basicInfo-basicType="0" basicInfo-roundedRectRadius="12" basicInfo-polygonSides="6" basicInfo-starPoints="5" bounding="rect(-7.05194,-7.48361,14.1039,14.9672)" text="" font-familyName="" font-pixelSize="20" font-bold="0" font-underline="0" font-alignment="1" strokeStyle="0" markerStart="0" markerEnd="0" shadowEnabled="0" shadowOffsetX="0" shadowOffsetY="2" shadowBlur="4" shadowOpacity="160" blurEnabled="0" blurRadius="4" transform="matrix(1.27826,0,0,1.27826,80.2423,245.02)" pers-center="0,0" pers-size="0,0" pers-start="0,0" pers-end="0,0" locked="0" mesh="" flag=""/>
            <path id="shapePath41" d="M80.2423,245.02 C77.2375,245.813 74.2328,246.607 71.228,247.4 C72.2429,247.082 72.9456,246.169 73.6295,245.388 C75.1232,243.464 76.4467,241.359 77.3352,239.072 C77.7321,237.935 78.1312,236.668 77.845,235.454 M71.228,247.4 C72.5414,247.098 73.8674,247.655 75.0571,248.178 C77.1907,249.227 79.1603,250.625 80.9299,252.233 C81.6026,252.915 82.3706,253.623 82.6395,254.586 C81.8403,251.397 81.0414,248.209 80.2423,245.02 M82.6395,254.586 C82.3272,253.15 82.8632,251.693 83.3853,250.381 C84.352,248.187 85.6341,246.132 87.1514,244.297 C87.7564,243.645 88.3841,242.894 89.2565,242.64 C86.2518,243.433 83.247,244.227 80.2423,245.02 M89.2565,242.64 C87.9431,242.942 86.6172,242.385 85.4277,241.863 C83.2938,240.813 81.3242,239.415 79.5546,237.807 C78.882,237.125 78.1145,236.417 77.845,235.454 C78.6442,238.643 79.4431,241.831 80.2423,245.02 " style="stroke:none;fill-rule:nonzero;fill:#e6180a;fill-opacity:1;"/>
        </g>
        <g id="Shape42">
            <desc shapeID="42" type="0" basicInfo-basicType="0" basicInfo-roundedRectRadius="12" basicInfo-polygonSides="6" basicInfo-starPoints="5" bounding="rect(-3.20473,-3.16667,6.40946,6.33334)" text="" font-familyName="" font-pixelSize="20" font-bold="0" font-underline="0" font-alignment="1" strokeStyle="0" markerStart="0" markerEnd="0" shadowEnabled="0" shadowOffsetX="0" shadowOffsetY="2" shadowBlur="4" shadowOpacity="160" blurEnabled="0" blurRadius="4" transform="matrix(1.27826,0,0,1.27826,111.004,242.451)" pers-center="0,0" pers-size="0,0" pers-start="0,0" pers-end="0,0" locked="0" mesh="" flag=""/>
            <path id="shapePath42" d="M114.611,244.458 C113.54,246.397 111.059,247.075 109.064,245.964 C107.068,244.854 106.327,242.383 107.397,240.444 C108.468,238.504 110.949,237.826 112.944,238.937 C114.939,240.047 115.681,242.519 114.611,244.458 Z" style="stroke:none;fill-rule:nonzero;fill:#000000;fill-opacity:1;"/>
        </g>
        <g id="Shape43">
            <desc shapeID="43" type="0" basicInfo-basicType="0" basicInfo-roundedRectRadius="12" basicInfo-polygonSides="6" basicInfo-starPoints="5" bounding="rect(-3.20473,-3.16667,6.40946,6.33333)" text="" font-familyName="" font-pixelSize="20" font-bold="0" font-underline="0" font-alignment="1" strokeStyle="0" markerStart="0" markerEnd="0" shadowEnabled="0" shadowOffsetX="0" shadowOffsetY="2" shadowBlur="4" shadowOpacity="160" blurEnabled="0" blurRadius="4" transform="matrix(1.27826,0,0,1.27826,111.983,251.692)" pers-center="0,0" pers-size="0,0" pers-start="0,0" pers-end="0,0" locked="0" mesh="" flag=""/>
            <path id="shapePath43" d="M115.59,253.699 C114.52,255.638 112.039,256.316 110.043,255.206 C108.048,254.096 107.306,251.624 108.377,249.685 C109.447,247.746 111.928,247.068 113.923,248.178 C115.919,249.289 116.661,251.76 115.59,253.699 Z" style="stroke:none;fill-rule:nonzero;fill:#000000;fill-opacity:1;"/>
        </g>
        <g id="Shape44">
            <desc shapeID="44" type="0" basicInfo-basicType="0" basicInfo-roundedRectRadius="12" basicInfo-polygonSides="6" basicInfo-starPoints="5" bounding="rect(-3.20473,-3.16694,6.40946,6.33388)" text="" font-familyName="" font-pixelSize="20" font-bold="0" font-underline="0" font-alignment="1" strokeStyle="0" markerStart="0" markerEnd="0" shadowEnabled="0" shadowOffsetX="0" shadowOffsetY="2" shadowBlur="4" shadowOpacity="160" blurEnabled="0" blurRadius="4" transform="matrix(1.27826,0,0,1.27826,102.731,246.572)" pers-center="0,0" pers-size="0,0" pers-start="0,0" pers-end="0,0" locked="0" mesh="" flag=""/>
            <path id="shapePath44" d="M106.337,248.578 C105.947,249.285 105.367,249.831 104.686,250.18 C103.519,250.777 102.05,250.786 100.791,250.085 C98.7952,248.975 98.0533,246.503 99.1239,244.564 C100.194,242.625 102.675,241.947 104.671,243.058 C106.666,244.168 107.408,246.639 106.337,248.578 Z" style="stroke:none;fill-rule:nonzero;fill:#000000;fill-opacity:1;"/>
        </g>
        <g id="Shape45">
            <desc shapeID="45" type="0" basicInfo-basicType="0" basicInfo-roundedRectRadius="12" basicInfo-polygonSides="6" basicInfo-starPoints="5" bounding="rect(-3.2849,-3.29459,6.5698,6.58917)" text="" font-familyName="" font-pixelSize="20" font-bold="0" font-underline="0" font-alignment="1" strokeStyle="0" markerStart="0" markerEnd="0" shadowEnabled="0" shadowOffsetX="0" shadowOffsetY="2" shadowBlur="4" shadowOpacity="160" blurEnabled="0" blurRadius="4" transform="matrix(1.27826,0,0,1.27826,103.589,254.095)" pers-center="0,0" pers-size="0,0" pers-start="0,0" pers-end="0,0" locked="0" mesh="" flag=""/>
            <path id="shapePath45" d="M107.788,258.306 C106.006,257.315 105.871,255.335 106.185,253.605 C106.498,251.875 107.26,250.394 107.26,250.394 L106.342,249.883 C106.342,249.883 102.96,255.606 99.3898,253.633 L107.788,258.306 Z" style="stroke:none;fill-rule:nonzero;fill:#000000;fill-opacity:1;"/>
        </g>
        <g id="Shape46">
            <desc shapeID="46" type="0" basicInfo-basicType="0" basicInfo-roundedRectRadius="12" basicInfo-polygonSides="6" basicInfo-starPoints="5" bounding="rect(-2.22591,-2.63338,4.45182,5.26675)" text="" font-familyName="" font-pixelSize="20" font-bold="0" font-underline="0" font-alignment="1" strokeStyle="0" markerStart="0" markerEnd="0" shadowEnabled="0" shadowOffsetX="0" shadowOffsetY="2" shadowBlur="4" shadowOpacity="160" blurEnabled="0" blurRadius="4" transform="matrix(1.27826,0,0,1.27826,109.198,247.039)" pers-center="0,0" pers-size="0,0" pers-start="0,0" pers-end="0,0" locked="0" mesh="" flag=""/>
            <path id="shapePath46" d="M107.135,243.673 C108.039,246.836 106.353,249.889 106.353,249.889 L107.254,250.405 C107.254,250.405 108.975,247.287 112.043,246.404 " style="stroke:none;fill-rule:nonzero;fill:#000000;fill-opacity:1;"/>
        </g>
        <g id="Shape47">
            <desc shapeID="47" type="0" basicInfo-basicType="0" basicInfo-roundedRectRadius="12" basicInfo-polygonSides="6" basicInfo-starPoints="5" bounding="rect(-2.61885,-2.237,5.23771,4.47401)" text="" font-familyName="" font-pixelSize="20" font-bold="0" font-underline="0" font-alignment="1" strokeStyle="0" markerStart="0" markerEnd="0" shadowEnabled="0" shadowOffsetX="0" shadowOffsetY="2" shadowBlur="4" shadowOpacity="160" blurEnabled="0" blurRadius="4" transform="matrix(1.27826,0,0,1.27826,107.28,248.359)" pers-center="0,0" pers-size="0,0" pers-start="0,0" pers-end="0,0" locked="0" mesh="" flag=""/>
            <path id="shapePath47" d="M103.932,250.433 C107.084,249.526 110.125,251.218 110.125,251.218 L110.628,250.308 C110.628,250.308 107.522,248.58 106.642,245.499 " style="stroke:none;fill-rule:nonzero;fill:#000000;fill-opacity:1;"/>
        </g>
        <g id="Shape48">
            <desc shapeID="48" type="0" basicInfo-basicType="0" basicInfo-roundedRectRadius="12" basicInfo-polygonSides="6" basicInfo-starPoints="5" bounding="rect(-2.61146,-2.25563,5.22292,4.51128)" text="" font-familyName="" font-pixelSize="20" font-bold="0" font-underline="0" font-alignment="1" strokeStyle="0" markerStart="0" markerEnd="0" shadowEnabled="0" shadowOffsetX="0" shadowOffsetY="2" shadowBlur="4" shadowOpacity="160" blurEnabled="0" blurRadius="4" transform="matrix(1.27826,0,0,1.27826,107.385,249.823)" pers-center="0,0" pers-size="0,0" pers-start="0,0" pers-end="0,0" locked="0" mesh="" flag=""/>
            <path id="shapePath48" d="M107.992,252.706 C107.088,249.542 104.047,247.85 104.047,247.85 L104.55,246.94 C104.55,246.94 107.655,248.668 110.723,247.784 " style="stroke:none;fill-rule:nonzero;fill:#000000;fill-opacity:1;"/>
        </g>
        <g id="Shape49">
            <desc shapeID="49" type="0" basicInfo-basicType="0" basicInfo-roundedRectRadius="12" basicInfo-polygonSides="6" basicInfo-starPoints="5" bounding="rect(-3.60318,-3.85385,7.20635,7.70772)" text="" font-familyName="" font-pixelSize="20" font-bold="0" font-underline="0" font-alignment="1" strokeStyle="0" markerStart="0" markerEnd="0" shadowEnabled="0" shadowOffsetX="0" shadowOffsetY="2" shadowBlur="4" shadowOpacity="160" blurEnabled="0" blurRadius="4" transform="matrix(1.27826,0,0,1.27826,81.2699,195.51)" pers-center="0,0" pers-size="0,0" pers-start="0,0" pers-end="0,0" locked="0" mesh="" flag=""/>
            <path id="shapePath49" d="M85.8757,197.771 C83.9185,198.337 82.2859,196.541 81.1455,194.603 C80.0051,192.665 79.3569,190.584 79.3569,190.584 L78.3574,190.861 C78.3574,190.861 80.5784,199.304 76.6641,200.437 L85.8757,197.771 Z" style="stroke:none;fill-rule:nonzero;fill:#000000;fill-opacity:1;"/>
        </g>
        <g id="Shape50">
            <desc shapeID="50" type="0" basicInfo-basicType="0" basicInfo-roundedRectRadius="12" basicInfo-polygonSides="6" basicInfo-starPoints="5" bounding="rect(-6.30312,-5.9039,12.6062,11.8078)" text="" font-familyName="" font-pixelSize="20" font-bold="0" font-underline="0" font-alignment="1" strokeStyle="0" markerStart="0" markerEnd="0" shadowEnabled="0" shadowOffsetX="0" shadowOffsetY="2" shadowBlur="4" shadowOpacity="160" blurEnabled="0" blurRadius="4" transform="matrix(1.27826,0,0,1.27826,78.8537,187.987)" pers-center="0,0" pers-size="0,0" pers-start="0,0" pers-end="0,0" locked="0" mesh="" flag=""/>
            <path id="shapePath50" d="M86.7837,188.422 C85.5998,184.343 78.6426,183.145 75.9239,180.44 C75.0598,184.194 69.8052,188.926 70.9623,193.001 C71.5163,194.93 73.7352,195.983 75.9268,195.349 C78.1066,194.718 79.427,192.641 78.873,190.711 C79.427,192.641 81.646,193.694 83.8375,193.06 C86.0291,192.425 87.3378,190.352 86.7837,188.422 Z" style="stroke:none;fill-rule:nonzero;fill:#000000;fill-opacity:1;"/>
        </g>
    </g>
</svg>
