<?xml version="1.0"?>
<svg version="1.1" xmlns="http://www.w3.org/2000/svg" xmlns:xlink="http://www.w3.org/1999/xlink" width="223" height="312">
    <desc iVinci="yes" version="4.5" gridStep="20" showGrid="no" snapToGrid="no" codePlatform="0"/>
    <g id="Layer1" opacity="1">
        <g id="Shape1">
            <desc shapeID="1" type="0" basicInfo-basicType="0" basicInfo-roundedRectRadius="12" basicInfo-polygonSides="6" basicInfo-starPoints="5" bounding="rect(-111.614,-155.906,223.228,311.811)" text="" font-familyName="" font-pixelSize="20" font-bold="0" font-underline="0" font-alignment="1" strokeStyle="0" markerStart="0" markerEnd="0" shadowEnabled="0" shadowOffsetX="0" shadowOffsetY="2" shadowBlur="4" shadowOpacity="160" blurEnabled="0" blurRadius="4" transform="matrix(1,0,0,1,111.614,155.906)" pers-center="0,0" pers-size="0,0" pers-start="0,0" pers-end="0,0" locked="0" mesh="" flag=""/>
            <path id="shapePath1" d="M0,9.35434 C0,4.18808 4.49741,0 10.0453,0 L213.183,0 C218.731,0 223.228,4.18808 223.228,9.35434 L223.228,302.457 C223.228,307.623 218.731,311.811 213.183,311.811 L10.0453,311.811 C4.49741,311.811 0,307.623 0,302.457 L0,9.35434 Z" style="stroke:#000000;stroke-opacity:1;stroke-width:0.996733;stroke-linejoin:miter;stroke-miterlimit:2;stroke-linecap:butt;fill-rule:evenodd;fill:#ffffff;fill-opacity:1;"/>
        </g>
        <g id="Shape2">
            <desc shapeID="2" type="0" basicInfo-basicType="0" basicInfo-roundedRectRadius="12" basicInfo-polygonSides="6" basicInfo-starPoints="5" bounding="rect(-82.3505,-131.273,164.701,262.545)" text="" font-familyName="" font-pixelSize="20" font-bold="0" font-underline="0" font-alignment="1" strokeStyle="0" markerStart="0" markerEnd="0" shadowEnabled="0" shadowOffsetX="0" shadowOffsetY="2" shadowBlur="4" shadowOpacity="160" blurEnabled="0" blurRadius="4" transform="matrix(1,0,0,1,111.452,156.109)" pers-center="0,0" pers-size="0,0" pers-start="0,0" pers-end="0,0" locked="0" mesh="" flag=""/>
            <path id="shapePath2" d="M29.1015,24.8366 C29.1866,103.963 30.0282,201.203 30.0862,287.382 L193.802,287.343 L192.712,25.2179 L29.1015,24.8366 M77.4953,26.5164 C105.741,27.283 134.161,26.454 162.616,26.6756 C162.616,26.6756 152.278,44.6834 149.145,50.3512 C148.459,51.5976 148.389,52.4795 148.759,52.9963 C149.331,53.796 149.283,55.1487 148.643,55.931 C148.368,56.2662 148.243,56.4834 148.223,56.684 C148.202,56.8842 148.382,57.1036 148.527,57.4659 C149.033,59.1924 147.727,60.3871 146.36,60.9413 C145.443,61.3129 143.401,61.5582 141.895,61.4867 C132.452,61.0386 113.933,53.0585 106.302,52.4364 C101.007,50.958 94.1647,51.4749 88.5246,51.7944 C87.4597,51.8584 87.6461,49.3762 87.6461,49.3762 C86.7574,41.1781 80.9509,34.0406 77.4953,26.5164 M164.151,27.2645 L190.844,27.2935 L190.964,31.6038 L179.732,43.1158 C178.675,44.1924 177.84,45.0851 177.84,45.0851 L177.773,55.4725 C170.116,51.3586 168.59,46.4426 167.192,41.0354 C154.394,50.4778 153.794,71.1411 167.767,81.7787 C167.881,77.1578 171.402,68.0781 177.642,67.4044 L177.729,103.398 L170.054,95.9019 L153.368,96.1191 C156.119,91.6557 156.181,88.1107 154.401,83.9266 C151.401,77.091 146.772,61.4874 147.127,61.5398 C147.127,61.5398 147.26,61.2043 147.639,61.1198 C149.022,60.8116 149.902,59.4764 149.507,57.8714 C149.432,57.3545 149.434,57.476 149.787,56.8047 C151.144,54.488 149.526,51.973 149.526,51.973 L164.151,27.2645 M75.6225,27.4817 L85.6381,45.5871 C85.6381,45.5871 85.5075,46.4174 85.5609,46.9048 C85.6396,47.606 85.8741,48.2301 86.2753,48.8839 C86.5407,49.3163 86.7365,49.907 86.7966,50.4526 C86.8954,51.3512 86.8959,51.3519 88.2108,52.5378 C88.4871,52.7869 88.5401,52.9402 88.4377,53.199 C88.0024,54.299 88.2574,56.5476 89.1183,59.2326 C90.2055,62.6236 90.4863,62.5793 88.4618,67.1148 C88.0395,68.0621 87.5289,69.3263 86.98,70.4887 C84.4803,75.6225 84.0946,77.0149 88.3846,79.7514 C89.5924,80.5219 89.946,81.1901 89.6444,82.7247 C89.407,83.932 89.3586,84.7036 89.9388,85.3843 C90.315,85.8256 90.6559,85.8982 90.5615,86.2386 C90.4973,86.4703 90.2168,87.4745 90.3105,88.319 C90.563,90.5942 87.9348,93.9456 85.5368,95.12 C85.057,95.4602 84.92,95.0449 84.6486,94.5697 C82.1642,90.2191 75.9799,91.982 75.5694,97.1714 C75.4608,98.5435 75.5035,99.1386 75.1494,99.4304 C75.0295,99.5292 74.6667,99.7344 74.6667,99.7344 C74.6667,99.7344 65.4119,105.754 59.525,108.847 C59.1412,109.049 58.7967,109.382 58.5258,109.436 C58.213,109.499 57.9808,109.443 57.7874,109.248 C55.6147,105.115 56.8191,100.234 57.0054,98.5036 C56.9586,97.8906 56.4345,97.7792 55.6443,97.7699 C54.3061,97.7543 52.38,99.1116 51.9614,100.376 C51.6054,101.452 51.3769,102.148 51.0539,102.143 C50.7294,102.138 50.5713,101.705 49.7652,100.154 C48.088,96.9289 47.8289,96.5203 46.2609,94.647 C45.0102,93.1528 43.9438,92.9546 42.718,94.0677 C41.8658,94.8416 41.894,94.1691 41.1686,93.7781 C39.9165,92.926 38.0342,93.6888 37.9877,94.8883 C37.9487,95.8947 37.9402,96.6513 36.921,96.7177 C35.7859,96.7916 35.2933,98.2574 35.6129,100.347 C35.7812,101.447 35.8142,101.624 35.4778,102.027 C34.38,103.342 34.2367,104.25 34.8406,106.087 C36.5621,111.32 39.0564,114.843 41.4003,119.602 C41.4003,119.602 35.4453,122.981 31.9108,124.945 L31.8191,27.5734 L75.6225,27.4817 M191.346,32.6561 L191.486,117.241 L178.704,104.677 C178.704,104.677 178.455,88.4682 178.468,81.8414 C178.48,75.2146 178.576,68.5884 178.55,67.3561 C178.523,66.1238 178.616,60.8799 178.656,55.4966 C178.74,44.2186 177.708,45.6126 179.805,43.4489 L191.346,32.6561 M166.367,42.7972 L167.071,44.839 C161.715,47.9095 155.163,65.0096 167.192,77.5648 L166.951,80.152 C154.342,68.7153 156.675,52.3139 166.367,42.7972 M167.284,45.2106 C169.122,49.0045 171.214,52.3636 174.066,54.4202 C172.53,58.0858 171.869,62.1296 174.471,67.583 C172.646,68.5843 170.111,71.2418 167.487,76.6864 C157.994,67.0969 160.107,53.1937 167.284,45.2106 M96.6626,52.3785 C101.927,52.3872 107.418,53.246 112.451,54.7629 C115.626,70.8112 121.201,81.6007 121.178,87.8846 C121.178,87.8846 120.739,87.8109 119.802,87.1364 C117.509,85.4808 114.498,86.4046 112.886,88.5121 C111.357,90.5099 112.896,93.2886 112.113,94.4539 C110.631,96.6268 106.815,100.644 106.176,100.512 C105.711,100.415 105.786,100.212 107.422,97.7024 C109.125,95.0889 110.431,92.7206 109.869,92.1418 C109.63,91.8962 109.504,92.4152 108.232,94.6228 C105.249,99.8045 102.625,103.008 101.586,102.592 C101.099,102.397 101.351,101.968 103.56,99.049 C106.055,95.7529 106.747,93.6911 106.5,92.779 C106.309,92.078 105.923,93.2108 104.887,95.2358 C103.784,97.3791 101.789,99.7674 100.177,102.061 C99.6652,102.891 99.009,103.372 98.1685,103.75 C97.5457,104.02 96.5531,104.461 95.9772,104.388 C95.6812,104.35 95.8854,104.176 96.2909,103.779 C99.4736,100.502 102.21,96.8471 103.763,93.3389 C104.003,92.8788 103.659,92.2238 103.266,92.7066 C100.884,96.8968 97.5691,102.125 93.9692,104.431 C93.1965,104.925 92.0344,105.344 90.9862,105.256 C89.2142,105.206 89.8408,104.811 91.4544,103.775 C94.9087,101.555 99.7557,95.1756 100.539,92.919 C100.724,92.3857 100.518,92.0808 100.177,92.1177 C97.3345,96.6642 93.5798,101.667 89.2148,103.76 C86.8625,104.888 83.8966,105.11 82.438,104.397 C81.369,103.874 81.6371,103.695 83.5336,103.572 C88.0977,103.122 93.4449,98.8376 96.093,94.3043 C97.6432,91.7943 96.5554,92.3707 94.785,94.7918 C91.763,98.9241 85.7627,102.886 82.0421,102.573 C78.2794,102.35 76.1139,99.4341 76.5975,96.9349 C76.8901,95.4229 77.9637,93.8819 80.068,93.4403 C83.6718,92.6839 86.0307,98.3924 82.7324,99.469 C81.6091,99.8356 81.1817,99.5576 81.5884,99.107 C84.035,98.0363 82.9474,95.0969 80.8837,94.7966 C79.5851,94.6076 78.0801,95.4821 78.0166,97.4948 C78.0543,98.9952 79.2894,100.462 81.767,100.497 C84.7045,100.539 89.2116,98.4241 91.9468,94.5311 C93.8877,91.5558 92.1001,92.5604 90.6532,94.5456 C89.3765,96.2973 85.2526,98.7479 84.9382,98.6581 L85.0782,96.6404 C85.141,96.9891 91.4271,92.6853 91.0587,89.4823 C90.8229,87.1573 91.1626,86.4462 93.5831,86.4752 C95.3926,86.4968 97.6931,87.1316 98.3616,87.9618 C99.0509,88.7831 99.8233,89.0423 99.4814,87.6577 C98.9267,85.4106 99.5912,85.0401 98.2892,85.4663 C97.3908,85.7605 96.5933,85.0392 95.6924,84.3996 C94.7013,83.696 93.4476,83.395 91.9516,83.4487 C90.8341,83.4889 90.33,83.4217 90.5084,82.3675 C90.6342,81.6241 90.7769,80.9482 90.5615,80.4609 C90.2114,79.6686 88.812,78.8499 87.231,77.6855 C85.3643,76.3107 85.71,76.2297 89.6878,67.0617 C91.358,63.2122 91.3651,62.4223 90.3636,59.5801 C88.781,55.089 88.5323,53.2904 91.4979,52.6632 C93.1767,52.4706 94.9077,52.3756 96.6626,52.3785 M113.503,54.9801 L115.043,55.4194 C115.055,55.4208 119.851,71.8339 122.597,79.8479 C123.435,82.293 124.073,85.5969 124.233,88.7003 C124.158,92.9734 121.752,96.0395 118.818,96.375 C116.741,96.6124 114.487,95.5349 113.455,93.2231 C112.585,91.0247 113.241,88.4317 115.748,87.537 C120.088,85.9884 123.267,91.5274 119.011,93.2327 C116.809,94.1148 114.718,92.525 115.709,90.6745 C116.404,89.3772 118.36,89.5179 118.823,90.8579 C119.199,92.2842 119.823,91.6115 119.556,90.6455 C118.749,87.5685 114.796,88.2934 114.478,91.1282 C114.478,94.6406 118.324,95.4656 120.618,93.4933 C122.396,91.9168 122.582,89.0678 122.139,86.5958 C121.528,81.4612 118.622,74.8018 116.559,67.2017 C115.529,63.4067 114.036,58.8823 113.503,54.9801 M174.77,55.1635 L177.662,56.3075 L177.594,65.8357 L175.142,66.6804 C171.933,61.778 174.602,55.1679 174.77,55.1635 M116.168,55.7814 L118.287,56.5971 C119.447,63.3228 124.919,76.1797 126.85,85.7753 C127.387,91.5425 127.474,93.2348 123.567,96.3074 L123.567,96.2639 L121.453,96.2639 C121.453,96.2639 121.446,96.1349 122.37,95.4434 C127.486,91.6173 124.433,83.1858 122.501,76.7057 C119.134,66.3564 116.126,55.7684 116.168,55.7814 M96.3633,56.4523 C96.0949,56.4555 95.8225,56.4665 95.5476,56.4813 C92.3516,56.6529 91.8267,56.8578 91.8165,57.5528 C91.7972,58.862 92.3338,59.4428 95.3062,59.1216 C97.8788,58.8435 101.605,59.2427 104.173,60.3476 C107.102,61.6079 107.798,61.9053 108.85,62.4472 C111.493,63.8077 111.031,62.4542 108.643,60.8833 C103.763,57.6743 100.39,56.4038 96.3633,56.4523 M119.421,56.9157 L121.41,57.6735 C121.41,57.6735 121.936,59.2238 122.124,60.1111 C124.059,68.697 129.323,78.3528 129.939,88.3962 C130.078,91.6875 129.513,94.756 127.101,96.2398 L125.281,96.2398 C127.226,94.3049 128.523,93.7461 127.979,87.0206 C127.118,78.3831 121.42,67.5905 119.421,56.9157 M122.949,58.3106 L124.784,58.9864 C126.896,70.581 137.367,87.905 130.701,96.2639 L129.036,96.2639 C130.523,93.9445 131.137,91.9073 130.914,88.7776 C130.266,78.2421 124.891,68.0174 122.949,58.3106 M126.024,59.3774 L127.998,59.9807 C130.679,71.728 140.978,90.9786 133.636,96.3026 L132.188,96.2639 C137.72,85.9231 129.334,75.2222 126.024,59.3774 M129.466,60.4731 C130.072,60.8102 130.938,60.9716 131.599,61.1633 C133.677,70.0458 137.474,78.7814 139.201,87.0544 C139.783,91.5837 138.789,94.9754 135.943,96.2639 L135.335,96.2639 C137.889,92.4085 137.407,87.5455 136.045,82.2903 C134.212,75.2229 130.652,67.4475 129.466,60.4731 M98.3616,60.6275 C97.4445,60.6189 96.4852,60.7581 95.4704,61.0812 C94.4311,61.474 94.5589,62.2932 95.5235,62.1238 C95.8504,62.0664 96.4289,61.9638 96.8122,61.897 C99.1804,61.484 102.099,62.3376 105.636,64.4793 C106.49,64.9966 107.418,65.4949 107.648,65.6667 C108.298,66.1515 108.992,66.1496 108.754,65.5316 C108.659,65.2842 107.295,64.2277 106.089,63.5526 C103.51,61.9937 101.113,60.6535 98.3616,60.6275 M132.82,61.3998 L134.809,61.7039 C138.55,78.8945 146.761,89.5763 139.737,95.955 L137.98,95.955 C139.902,93.9922 140.77,90.9189 140.133,87.2861 C139.483,83.5779 137.566,77.6918 135.977,72.516 C134.135,66.5159 132.651,61.442 132.82,61.3998 M135.673,61.8825 L137.358,62.1962 C139.331,69.184 142.682,77.8461 144.699,85.0609 C145.94,89.4979 145.441,94.9627 142.672,95.9695 L141.248,95.9937 C143.599,92.8529 143.934,89.5813 142.86,85.3505 C140.656,76.6665 137.32,69.088 135.673,61.8825 M146.07,61.8922 C147.772,69.1363 151.857,80.1878 153.325,84.0038 C155.278,87.9008 154.692,93.6711 151.756,95.955 L150.366,95.984 C152.045,94.4138 152.622,91.7695 152.354,89.0286 C151.599,81.2825 146.115,70.5394 144.13,62.2879 L146.07,61.8922 M138.68,62.2349 L140.418,62.3941 C142.158,69.9714 145.543,77.3371 147.74,84.9161 C148.149,86.6268 148.506,88.7165 148.363,90.2546 C148.062,93.4792 146.727,96.0226 145.553,96.0226 L144.356,96.0226 C146.801,93.1094 146.682,89.1374 145.636,84.8678 C143.906,77.8115 139.722,69.3037 138.68,62.2349 M93.4383,62.2735 C92.7142,62.2772 92.7015,62.9402 93.8582,63.9532 C94.5659,64.573 94.5115,64.3663 94.4712,64.7593 C94.2992,66.4375 94.5631,67.9736 95.2531,66.2459 C95.4374,65.7846 95.7071,65.2642 95.9772,65.3289 C96.4872,65.4862 96.2282,66.4234 96.4743,66.8976 C96.8904,67.7336 96.4482,67.9382 95.4366,67.6795 C94.7085,67.4933 94.6672,67.8875 94.2154,68.389 C93.4243,69.2672 93.5532,69.7914 94.7705,69.5185 C94.9713,69.4735 95.1409,69.531 95.2966,69.5668 C95.6763,69.6541 96.0235,69.8949 96.9281,70.5853 C98.0901,71.4721 99.7365,72.654 100.804,72.8346 C102.514,73.1238 102.133,72.3046 100.732,71.7678 C99.5314,71.308 98.0427,70.0311 98.0479,69.6778 C98.0511,69.4064 98.4288,69.5674 100.592,68.9731 C101.53,68.7152 102.85,68.1384 103.406,67.8822 C104.324,67.4594 104.367,67.4628 105.805,67.5057 C108.253,67.5788 108.626,67.4953 106.91,66.2218 C103.441,63.6483 98.8127,61.9732 96.3585,63.0409 C95.6143,63.3647 95.6317,63.1663 95.0939,62.8575 C94.391,62.4539 93.8176,62.2715 93.4383,62.2735 M143.087,62.5052 C145.491,71.7668 150.142,80.0649 151.273,88.8499 C151.529,91.3628 151.108,93.8178 149.019,95.9406 L147.61,95.9647 C147.403,95.9681 149.577,92.606 149.391,89.7284 C149.447,88.1932 149.278,86.5466 148.841,84.9209 C146.109,77.1104 143.419,70.0315 141.33,62.5872 L143.087,62.5052 M99.6697,65.5461 C99.6833,65.5444 99.6958,65.5441 99.7083,65.5461 C100.364,65.649 100.387,65.9098 100.196,66.2508 C99.9131,66.7563 99.4139,67.7278 99.4139,67.7278 C99.4139,67.7278 98.749,67.8585 98.6126,67.6891 C98.373,67.3412 99.2498,65.5973 99.6697,65.5461 M101.335,65.8453 C101.408,65.8442 101.498,65.8814 101.639,65.937 C102.269,66.1857 103.361,66.6961 102.889,67.0906 C102.33,67.558 100.163,67.7682 100.268,67.5733 L100.992,66.2363 C101.146,65.9521 101.214,65.8471 101.335,65.8453 M94.6981,73.9399 C94.6421,73.9431 94.5948,73.9566 94.5581,73.9785 C94.4324,74.0537 94.717,74.5571 95.1325,75.1273 C97.0498,77.7141 94.3956,78.4812 92.5164,77.0966 C90.7321,75.7093 87.9774,75.8399 88.3749,77.2946 C88.515,77.8073 88.3783,78.057 89.3741,78.0717 C90.2592,78.0847 90.4876,78.1341 91.2855,78.6798 C94.3369,80.7669 98.2796,77.9731 96.3537,74.9777 C95.9901,74.4122 95.0905,73.9177 94.6981,73.9399 M102.228,77.9799 C101.12,77.9799 100.42,78.8064 101.808,79.0538 C106.765,79.9438 103.441,85.0831 99.9448,82.4351 C96.7947,79.5916 92.5812,79.6115 92.5308,81.629 C92.5234,82.1368 92.5469,82.1541 93.2935,82.2951 C95.0492,82.6268 97.6714,83.4253 98.6754,83.9314 C99.2657,84.229 99.8866,84.5071 100.056,84.5493 C102.155,85.3122 104.848,84.3207 105.381,82.5526 C105.868,80.9344 105.474,77.9799 102.228,77.9799 M40.0536,94.5167 C40.7173,94.5246 41.4229,95.1052 41.9264,95.955 C43.09,97.9189 44.5042,101.221 45.4066,103.041 C45.634,103.5 45.6429,103.909 45.6286,104.127 C45.6994,105.194 46.0573,105.597 46.6905,105.116 C47.3131,104.644 48.1771,103.853 47.1635,103.726 C46.1445,102.958 45.5767,101.831 46.2078,101.144 C46.6723,100.638 46.4907,100.31 46.1161,100.29 C44.688,100.268 42.5595,96.0206 43.5627,95.1055 C44.9163,93.8708 46.4141,95.4002 49.6011,101.723 C51.0055,104.515 51.0705,107.571 49.8665,106.058 C49.4573,105.676 49.5403,105.874 49.0605,107.076 C48.6997,107.98 48.4035,108.409 47.0284,109.731 C45.3537,111.341 44.3388,112.613 44.3012,112.892 C44.2294,113.426 45.2059,112.928 45.9182,111.999 C47.5095,110.445 47.5689,110.031 47.5545,112.091 C47.5415,113.955 47.4457,114.295 47.7813,114.283 C48.3045,114.263 48.5844,112.789 48.8288,111.01 C49.1205,109.408 49.953,108.6 51.3387,107.708 C51.7191,107.464 51.7256,107.295 51.6525,106.589 C51.3966,104.325 52.6836,100.105 53.2695,101.149 C53.3521,101.384 53.6065,101.932 53.7425,102.317 C53.852,102.912 54.227,103.585 54.7996,103.63 C55.5112,104.162 55.5087,104.45 55.7552,106.4 C55.8358,107.037 56.1175,107.992 56.3152,108.5 C56.6832,109.445 57.0122,109.999 56.8075,110.281 C56.6775,110.42 56.4021,110.682 56.4021,110.682 L44.7984,117.56 C44.7984,117.56 43.8874,118.064 43.5579,118.202 C42.6383,118.617 42.0793,118.31 41.6272,117.623 C39.1684,113.961 37.4804,109.847 35.7529,106.053 C34.7157,103.801 35.7308,102.311 37.0706,104.127 C37.5914,104.833 37.3251,105.283 37.0659,106.646 C37.019,106.893 37.2482,106.799 37.6788,106.868 C38.3566,106.796 38.6836,107.401 38.6587,108.428 C38.2307,109.899 38.8226,109.104 39.1028,109.031 C39.6391,109.039 39.758,109.361 40.0585,109.972 C40.2461,110.834 40.6251,110.584 41.1783,110.016 C41.6355,109.546 41.6371,109.557 40.7149,108.457 C39.1222,106.731 36.9136,102.835 36.3418,100.463 C36.1841,99.809 36.2415,99.2863 36.3611,98.938 C37.0807,97.3177 38.0827,97.3122 39.1752,99.5752 C39.3611,99.9602 39.7268,100.581 39.9861,100.956 C40.4062,101.563 40.6664,102.084 40.6522,103.05 C40.3291,103.86 40.2766,103.876 40.5556,103.987 C41.2483,104.261 42.4792,105.512 42.5346,106.632 C42.5909,107.77 42.7834,108.374 43.6786,107.699 C44.6992,106.929 44.2647,106.62 43.2587,105.633 C42.2043,104.378 42.1408,103.29 42.7663,102.384 C42.8687,102.08 42.8253,101.995 42.4381,102.032 C41.2136,102.151 40.0231,100.6 40.8742,99.4207 C41.266,98.7298 41.22,98.5517 40.6667,98.5326 C40.3783,98.5226 39.9022,98.5776 39.6675,98.4457 C39.3055,97.7671 38.5496,96.8184 38.5573,96.0419 C38.9144,94.95 39.4681,94.5096 40.0536,94.5167 L40.0536,94.5167 M112.779,94.5746 C114.791,95.8083 116.784,97.0925 119.045,97.6782 C113.806,107.113 105.382,112.168 98.3327,114.143 C98.5726,115.35 98.7427,116.553 99.911,117.294 C99.8713,117.112 99.3535,114.969 99.467,114.529 C109.178,112.049 117.727,102.535 119.913,97.6299 L162.592,97.1666 C130.953,127.517 129.692,170.232 155.506,206.036 L152.538,207.768 C132.646,177.973 132.849,149.266 138.815,130.042 C143.045,116.412 150.636,105.999 156.404,100.048 C156.404,100.048 133.265,99.7302 121.748,100.154 C120.074,102.714 118.518,104.805 116.269,107.221 C116.269,107.221 122.121,101.57 121.97,100.589 C132.643,100.583 143.65,99.9664 154.309,100.709 C141.836,115.637 135.687,131.048 134.621,145.546 C134.581,147.432 134.467,146.378 133.844,147.071 L131.874,150.126 L130.296,146.95 C129.223,146.604 127.113,147.163 126.217,146.839 C121.829,166.417 126.264,190.046 132.038,205.466 C132.038,205.466 130.588,206.278 128.804,206.142 C126.852,205.708 126.374,206.247 124.682,206.591 C122.737,206.961 122.058,206.958 121.627,207.45 C121.387,207.723 120.954,208.105 120.464,208.372 C115.724,210.093 110.163,216.549 110.163,216.457 L104.945,214.116 C109.753,204.674 115.396,201.277 125.315,197.087 L124.393,192.868 C113.828,196.803 107.105,201.515 101.803,210.669 C95.37,210.578 69.312,210.395 69.2849,210.476 C79.9139,198.389 88.2938,180.158 89.21,165.944 C89.4347,163.175 89.0474,164.506 90.2719,163.68 L92.1978,161.387 L93.7086,163.646 C93.7086,163.646 94.8026,165.039 95.4945,163.878 C97.4329,144.057 95.3824,121.455 85.8312,105.7 C87.5257,105.589 89.2135,105.542 90.8366,106.502 C94.5723,114.961 96.7739,125.413 97.7293,133.247 C98.9386,143.163 98.7679,154.347 97.5363,163.844 L98.1734,163.931 C100.035,151.588 99.4042,138.461 97.6956,126.987 C96.8185,121.001 93.9944,111.639 92.053,107.317 C91.5165,106.123 91.1002,105.815 91.6089,105.638 C103.248,104.658 108.598,100.775 112.779,94.5746 M80.5072,95.6172 C81.3976,95.6172 82.1194,96.339 82.1194,97.2293 C82.1194,98.1197 81.3976,98.8415 80.5072,98.8415 C79.6169,98.8415 78.8951,98.1197 78.8951,97.2293 C78.8951,96.339 79.6169,95.6172 80.5072,95.6172 M167.989,96.4377 C164.581,99.522 161.843,102.719 158.967,106.125 C167.479,117.83 176.938,130.519 184.892,140.656 C184.892,140.656 187.645,139.025 187.634,138.822 C187.628,138.715 187.414,138.176 187.363,138.296 C187.245,138.578 185.133,139.758 185.133,139.758 L159.962,106.724 C159.962,106.724 161.326,105.09 161.747,104.576 C163.703,103.933 169.146,97.192 169.412,97.3307 C173.677,100.597 186.537,114.444 191.49,118.689 L191.553,157.125 C191.04,158.663 177.33,164.589 167.646,186.699 C162.776,189.428 157.381,190.896 152.364,193.269 C152.364,193.269 153.641,195.277 154.266,195.827 C153.499,194.171 153.364,193.854 155.101,193.148 L191.336,178.378 L191.268,181.361 L190.679,186.511 C180.818,192.592 172.496,195.14 158.924,204.312 C157.954,204.538 157.174,205.469 156.153,205.519 C121.482,154.459 143.646,115.988 163.852,96.6598 L167.989,96.4377 M55.0844,99.049 C56.0304,99.0646 55.7914,101.259 55.4415,102.018 C54.7429,102.566 54.0459,102.079 54.0611,101.052 C54.0654,100.717 54.0004,100.401 53.9162,100.347 C53.392,100.013 54.2694,99.037 55.0844,99.049 M76.2596,100.42 C77.0561,101.024 77.351,101.83 77.6449,102.635 C76.5702,102.467 73.6936,101.642 75.0432,100.999 L76.2596,100.42 M71.0225,103.273 C96.0285,141.09 94.9096,181.256 67.0018,211.702 L102.31,211.649 C106.804,202.781 114.291,197.375 123.871,194.046 L124.706,196.831 C113.696,200.365 108.126,206.224 103.695,214.343 L61.5861,214.343 C77.7646,196.935 85.1764,182.23 86.3429,162.338 C87.4537,143.394 82.6339,126.093 67.9961,105.276 L71.0225,103.273 M78.0697,103.707 L83.968,106.492 L83.0944,112.545 L76.916,109.697 L78.0697,103.707 M67.4362,105.406 C98.9736,153.113 85.4475,186.671 60.2683,214.598 L55.6298,214.676 L44.8177,204.631 L45.0156,265.666 C45.0156,265.666 34.4735,275.993 33.2623,277.231 C32.0655,278.383 31.1674,276.613 31.1674,276.613 L31.1964,195.701 L31.6646,192.53 L31.8094,175.096 L38.5283,171.553 L63.7243,204.578 C63.7243,204.578 62.7122,206.07 62.2425,206.335 C61.9371,206.507 62.1607,206.803 62.4163,206.769 C63.1237,206.676 65.1428,204.419 64.7187,204.057 C55.5788,192.734 38.5862,170.563 38.5862,170.563 L31.5101,174.256 C31.5101,174.256 31.715,159.781 31.5874,154.224 C31.8591,152.914 32.8418,153.265 33.5036,152.68 C41.652,147.443 47.394,141.05 50.9381,134.85 C51.1986,134.386 52.767,131.603 52.9219,131.35 C53.4746,130.449 54.8458,127.632 55.6443,125.833 C56.0905,124.827 56.565,123.609 56.7448,123.463 C61.6476,121.867 66.7938,119.601 71.7176,117.565 L64.627,106.922 L67.4362,105.406 M48.1096,106.014 C47.8435,106.01 47.1667,106.318 46.2513,107.148 C44.5611,108.682 42.3341,111.201 42.327,111.681 C42.7804,111.844 43.1817,111.584 43.5434,111.217 C44.957,109.131 47.1425,108.315 48.4233,106.487 C48.6224,106.149 48.4125,106.01 48.1096,106.014 M63.9946,108.23 C63.9946,108.23 68.8873,115.358 70.1392,117.251 C57.2461,122.356 43.7547,129.099 31.8046,133.459 L31.8046,130.602 L33.6919,125.471 L63.9946,108.23 M83.1765,112.941 L87.9984,115.431 L86.6373,120.871 L81.7719,118.149 L83.1765,112.941 M87.1537,121.991 L91.1166,124.877 L89.3065,129.492 L85.3147,126.745 L87.1537,121.991 M54.8188,125.375 C54.8188,125.375 54.2082,127.514 53.1826,129.429 C48.2786,137.949 43.4803,145.521 33.5663,152.096 C33.189,151.76 32.1087,149.871 32.1087,149.871 L32.0121,147.346 C37.2681,143.124 41.8044,140.025 48.766,127.633 L50.7836,126.813 L52.502,127.556 L53.6653,125.481 L54.8188,125.375 M75.4439,125.394 C70.875,135.086 66.3794,145.084 59.1003,152.636 L79.0205,180.444 C85.5753,160.81 83.1418,142.409 75.4439,125.394 M50.3782,127.508 L49.4225,129.164 L51.0781,130.119 L52.0338,128.464 L50.3782,127.508 M47.6752,127.687 C44.066,135.756 38.6492,141.964 31.5391,146.429 L31.2639,134.589 L47.6752,127.687 M48.9446,130.095 L47.9889,131.751 L49.6445,132.706 L50.6002,131.051 L48.9446,130.095 M89.6589,130.443 L93.25,133.85 L91.1166,137.611 L87.4337,134.565 L89.6589,130.443 M144.675,132.118 C144.671,132.119 144.668,132.123 144.665,132.127 C138.354,151.744 140.249,170.481 148.908,186.791 C153.156,176.219 156.644,169.144 164.938,157.888 C159.831,151.201 145.188,131.906 144.675,132.118 M47.5352,132.431 L46.5312,134.058 L48.1578,135.062 L49.1618,133.435 L47.5352,132.431 M75.0722,134.719 C80.7617,148.32 80.2599,160.583 77.2346,171.21 L63.0244,153.259 C68.2305,146.797 71.6879,140.678 75.0722,134.719 M46.0678,134.768 L44.9915,136.346 L46.5698,137.427 L47.6462,135.844 L46.0678,134.768 M44.4798,137.026 L43.3021,138.537 L44.808,139.715 L45.9858,138.204 L44.4798,137.026 M91.2952,138.634 L94.5146,141.689 L92.4826,145.652 L89.2148,142.664 L91.2952,138.634 M42.6215,139.377 L41.3858,140.83 L42.8387,142.066 L44.0743,140.613 L42.6215,139.377 M146.417,139.807 L160.753,158.303 C155.958,164.01 151.973,170.734 148.411,177.982 C144.417,165.467 142.614,153.169 146.417,139.807 M40.6087,141.68 L39.2861,143.06 L40.6666,144.383 L41.9892,143.002 L40.6087,141.68 M74.0972,143.528 L67.5375,153.013 L75.0577,162.613 C75.8669,157.416 76.0487,151.384 74.0972,143.528 M38.4704,143.837 L37.061,145.131 L38.3546,146.54 L39.764,145.247 L38.4704,143.837 M36.3997,145.686 L34.913,146.893 L36.1198,148.379 L37.6016,147.172 L36.3997,145.686 M92.4247,146.666 L95.118,149.813 L92.386,153.052 L89.8278,150.175 L92.4247,146.666 M126.666,147.23 L128.495,147.298 C125.495,176.892 131.392,191.865 136.609,204.887 C136.609,204.887 136.597,205.409 136.421,205.563 C135.571,205.855 133.852,206.171 132.473,204.959 C125.454,186.918 123.923,164.695 126.666,147.23 M33.9911,147.612 L32.4417,148.732 L33.5615,150.281 L35.1109,149.161 L33.9911,147.612 M148.647,148.664 C148.182,148.664 147.778,160.839 149.531,166.784 L156.129,157.845 L148.647,148.664 M131.589,150.672 L133.795,153.636 L131.454,156.826 L129.06,153.805 L131.589,150.672 M32.2004,151.478 C32.311,151.461 32.4925,151.769 32.8472,152.014 C33.1768,152.358 33.1293,152.333 32.7603,152.627 C32.1833,153.087 32.0112,153.013 32.0218,152.294 C32.0713,151.702 32.1143,151.492 32.2004,151.478 M92.555,153.703 L94.9925,157.193 L92.2943,160.663 L89.9871,157.01 L92.555,153.703 M131.396,158.125 L133.964,161.252 L131.758,164.684 L128.954,161.407 L131.396,158.125 M190.853,158.786 L191.08,162.391 L190.192,161.074 L188.56,162.324 L189.7,163.835 L191.124,162.724 L191.21,164.177 C182.167,170.713 178.266,178.22 174.596,183.852 L172.965,184.542 L171.107,183.953 L170.199,185.56 L168.621,185.932 C168.573,185.922 171.79,179.031 177.295,172.016 C182.197,165.77 190.828,158.728 190.853,158.786 M191.901,164.428 L191.978,177.248 L175.793,183.5 C179.994,176.343 184.947,169.701 191.901,164.428 M187.88,162.869 L186.403,164.081 L187.677,165.543 L189.149,164.332 L187.88,162.869 M185.606,164.8 L184.183,166.069 L185.51,167.484 L186.934,166.205 L185.606,164.8 M131.561,165.51 L134.611,168.758 L132.376,172.595 L129.2,169.55 L131.561,165.51 M183.309,166.876 L181.972,168.242 L183.434,169.646 L184.771,168.28 L183.309,166.876 M181.204,169.033 L179.92,170.452 L181.475,171.799 L182.759,170.38 L181.204,169.033 M179.09,171.451 L177.898,172.948 L179.515,174.198 L180.707,172.697 L179.09,171.451 M132.608,173.749 L136.421,176.225 L134.558,180.762 L130.75,177.861 L132.608,173.749 M177.246,173.768 L176.127,175.323 L177.85,176.5 L178.984,174.893 L177.246,173.768 M175.523,176.22 L174.485,177.828 L176.228,178.947 L177.261,177.287 L175.523,176.22 M173.983,178.648 L173.028,180.304 L174.833,181.332 L175.789,179.657 L173.983,178.648 M172.593,181.158 L171.638,182.814 L173.636,183.678 L174.428,182.099 L172.593,181.158 M134.674,182.181 L138.579,184.827 L136.851,189.581 L132.729,186.666 L134.674,182.181 M191.297,186.859 L191.49,284.689 L148.498,284.838 C148.498,284.838 146.488,281.301 142.281,273.128 C140.5,269.668 138.994,268.199 138.839,265.459 C139,263.849 138.257,262.024 136.938,261.288 C136.495,261.041 135.754,261.34 136.001,260.651 C136.274,259.893 135.438,258.727 135.21,258.479 C134.949,258.041 135.112,257.934 135.084,256.302 C135.057,254.725 134.973,254.066 134.635,252.875 C133.781,249.867 133.591,248.363 134.08,246.803 C135.35,242.846 136.674,239.811 138.386,236.121 C139.381,233.962 139.229,233.118 136.175,231.55 C133.888,230.376 133.584,230.388 133.873,228.673 C134.008,227.87 134.133,227.363 133.964,226.974 C133.861,226.738 133.482,226.406 133.26,226.217 C132.961,225.961 133.051,225.435 133.356,225.044 C133.656,224.659 133.658,224.111 133.361,223.195 C132.736,221.269 134.15,218.717 136.822,216.954 C138.003,216.175 137.97,216.336 139.201,217.63 C142.801,221.41 148.15,219.035 148.16,213.705 C148.163,212.044 147.597,212.143 149.169,211.36 C154.494,207.971 165.425,201.808 165.353,201.976 C166.065,203.427 166.303,204.666 166.753,206.229 C167.142,207.568 167.091,207.671 166.946,210.278 C166.815,212.635 166.744,213.183 167.298,213.334 C170.453,213.681 171.173,212.565 171.778,210.529 C172.039,209.63 172.542,209.812 172.854,210.191 C174.054,212.376 175.573,214.648 176.571,216.201 C177.817,218.184 179.917,219.17 181.016,218.233 C181.247,217.462 181.438,217.438 182.831,217.755 C184.52,218.139 185.483,217.193 185.645,215.95 C185.71,215.454 185.349,215.474 186.253,214.984 C188.497,213.323 187.642,211.055 187.305,209.689 C187.335,209.762 188.265,209.124 188.285,207.846 C188.393,201.207 182.639,191.646 182.768,191.893 L191.297,186.859 M137.015,190.681 L141.581,192.887 L140.505,198.342 L135.813,196.232 L137.015,190.681 M181.446,192.709 C184.075,195.758 185.977,200.841 186.958,204.153 C187.442,205.803 187.501,207.685 187.069,207.947 C186.642,208.205 186.443,207.929 186.524,206.943 C186.591,206.122 186.615,205.486 186.263,205.495 C185.243,205.758 185.203,204.212 185.307,203.849 C185.377,203.606 185.503,203.436 185.558,203.304 C185.81,202.705 185.153,202.786 184.472,202.777 C183.87,202.792 183.715,202.426 183.743,201.856 C183.726,201.223 182.888,201.346 182.411,201.827 C181.975,202.266 182.067,202.783 182.657,203.144 C183.505,203.664 184.307,204.94 186.282,209.342 C187.429,211.897 187.089,213.711 185.722,213.691 C184.775,213.663 183.67,211.067 182.778,209.154 C182.547,208.66 183.125,208.107 183.328,207.841 C183.853,207.153 183.773,206.935 182.995,206.924 C182.267,206.913 181.957,206.978 181.518,206.079 C181.353,205.741 181.233,205.225 181.291,204.896 C181.667,203.905 180.896,203.666 180.147,204.047 C179.204,204.44 179.211,205.281 180.649,206.658 C181.576,208.178 181.334,208.072 180.456,209.096 C180.273,209.457 180.383,209.679 180.77,209.685 C181.883,209.345 183.094,211.349 182.763,212.035 C182.423,212.33 181.491,213.399 182.392,213.194 C184.224,212.696 185.339,215.378 184.26,216.288 C182.65,217.095 182.269,216.843 179.79,211.891 C179.02,210.353 178.094,208.7 177.98,208.531 C177.866,208.362 177.816,207.908 177.821,207.542 C177.929,206.646 177.547,206.442 176.769,206.798 C176.184,206.938 175.657,207.419 176.397,207.875 C177.261,209.366 177.567,209.606 177.092,209.984 C176.011,210.845 176.48,210.81 177.69,211.051 C178.283,211.229 178.584,211.534 178.748,211.9 C179.373,213.305 180.482,215.286 180.591,215.689 C180.958,216.719 180.296,217.182 179.39,217.137 C178.441,217.16 178.007,216.411 177.546,215.771 C175.821,213.375 174.58,211.001 172.82,208.28 L173.057,205.736 C173.057,205.736 173.518,205.836 173.776,205.712 C174.282,205.469 174.583,204.674 174.872,203.617 C175.334,202.699 178.065,200.609 179.11,199.486 C179.303,199.359 179.465,199.149 179.467,199.022 C179.46,198.611 178.282,198.886 177.507,199.775 C176.368,200.786 175.883,200.439 175.919,199.148 C175.807,197.553 174.834,198.352 174.785,199.91 C174.66,201.141 174.232,201.891 173.37,202.58 C171.745,203.879 172.016,203.55 172.091,205.355 C172.223,208.503 171.008,211.091 170.214,209.376 C169.932,208.766 169.601,208.074 168.891,208.044 C168.388,208.022 168.14,207.529 167.863,206.311 C167.452,204.34 166.877,203.072 166.352,201.257 L181.446,192.709 M140.973,199.49 L146.234,201.585 L145.249,207.088 L140.036,205.094 L140.973,199.49 M181.089,199.997 C181.053,200 181.012,200.008 180.968,200.026 C179.486,201.146 178.118,202.403 176.503,203.366 C175.897,203.724 175.19,204.649 175.185,204.896 C175.181,205.138 175.904,205.132 176.609,204.824 C177.278,204.532 181.094,200.949 181.098,200.62 C181.361,200.33 181.336,199.981 181.089,199.997 L181.089,199.997 M132.777,206.678 C134.021,206.675 133.295,207.044 130.581,208.927 C127.931,210.765 123.563,216.578 123.056,218.735 C122.825,219.714 123.447,219.79 124.147,218.445 C127.364,212.261 133.451,206.61 139.023,206.861 C141.753,206.984 143.227,207.72 140.968,208.044 C134.774,208.804 130.144,212.336 126.092,219.377 C126.089,219.535 126.459,219.527 126.883,219.256 C130.592,214.722 134.771,208.716 142.112,209.202 C147.407,209.521 148.912,215.818 144.516,217.967 C140.684,219.841 137.15,215.278 140.326,212.571 C141.357,211.692 142.002,212.078 141.011,212.977 C138.886,214.905 141.492,218.34 144.081,217.036 C145.657,216.375 146.296,214.12 144.907,212.417 C141.817,208.628 135.161,211.509 130.523,217.63 C130.036,218.274 129.615,219.672 130.026,219.522 C130.746,219.225 131.18,218.661 131.604,218.025 C133.26,215.73 134.532,214.578 136.773,213.343 C138.505,212.39 138.612,212.569 137.966,214.222 C137.693,214.918 137.475,215.15 136.802,215.583 C133.978,217.512 132.224,220.096 132.154,221.742 C132.103,222.944 132.983,224.514 132.029,224.836 C130.411,225.6 125.999,224.977 124.808,223.456 C123.951,222.361 123.619,222.995 124.262,224.773 C124.687,225.948 124.669,226.612 125.31,226.492 C126.12,226.063 126.677,226.163 128.249,227.023 C129.007,227.437 130.351,227.823 131.17,228.012 C132.662,228.356 132.974,228.211 132.941,228.857 C132.931,229.055 132.999,229.612 132.956,229.962 C132.713,231.907 134.337,232.569 136.551,233.848 C137.845,234.595 137.335,235.364 135.837,239.066 C135.059,240.74 134.394,242.993 133.433,244.694 C132.536,246.604 132.459,248.695 133.038,251.08 C134.111,255.504 134.885,257.752 132.97,258.151 C128.043,258.896 117.161,258.866 111.22,256.582 C109.701,245.179 101.649,228.26 102.682,223.885 C104.742,226.992 113.383,226.17 110.781,217.485 C110.781,217.485 111.489,216.425 112.895,214.999 C116.522,211.32 117.417,210.711 115.695,213.952 C114.371,216.443 112.682,219.693 112.644,220.323 C112.614,220.825 113.005,220.941 113.31,220.54 C113.536,220.243 113.805,219.521 114.039,218.971 C116.201,213.911 119.896,209.349 122.443,208.251 C123.099,207.968 123.065,208.27 122.612,208.826 C119.615,212.554 117.327,216.001 115.7,220.502 C115.627,220.966 116.286,221.159 116.496,220.719 C119.307,214.828 120.147,213.492 123.601,209.342 C124.959,207.711 126.222,206.888 127.231,206.977 C128.104,207.054 127.845,207.197 127.038,208.058 C126.421,208.715 125.51,209.63 124.036,211.485 C121.436,214.757 118.82,220.08 119.783,219.802 C119.949,220.245 120.769,218.83 121.463,217.48 C123.363,214.29 125.381,210.074 129.894,207.302 C130.837,206.912 131.867,206.688 132.777,206.678 M45.4983,207.706 L53.5349,215.737 L69.7,215.53 C67.0341,219.672 68.4577,226.094 69.9268,229.846 C72.8068,237.203 77.0281,249.348 76.7181,249.525 C76.7181,249.525 74.3676,250.13 74.1551,251.62 C73.8402,253.83 74.798,253.665 73.4166,255.66 C73.1059,256.109 73.3058,256.956 73.6386,257.63 C73.8579,258.123 74.0672,258.866 73.658,259.444 L59.3995,284.882 L32.3404,285.012 L32.3404,279.925 L45.8893,266.207 L45.7251,256.114 C53.1151,258.311 55.6528,265.935 56.2862,271.584 C69.635,259.402 69.3051,241.062 56.6917,229.557 C54.2329,241.717 45.4261,244.244 45.6189,244.003 L45.4983,207.706 M146.027,209.149 C146.891,209.211 148.058,209.35 148.85,209.776 C148.314,210.097 147.933,210.479 147.576,210.872 C147.143,210.104 146.559,209.684 146.027,209.149 M168.433,209.236 C169.152,209.233 170.036,211.34 169.528,211.833 C169.242,212.11 168.315,212.215 167.984,212.006 C167.559,211.692 167.776,209.238 168.433,209.236 M142.937,212.89 C143.865,212.89 144.617,213.642 144.617,214.569 C144.617,215.497 143.865,216.249 142.937,216.249 C142.01,216.249 141.258,215.497 141.258,214.569 C141.258,213.642 142.01,212.89 142.937,212.89 M71.8431,215.284 L73.0546,215.313 C70.8523,218.257 70.5554,220.792 71.3362,224.464 C72.2143,228.597 78.9113,244.132 79.3439,248.41 C79.3635,248.604 79.3826,249.149 79.3826,249.149 L77.7366,249.26 C77.7366,249.26 77.6136,248.817 77.5629,248.647 C75.2595,240.901 72.967,234.994 71.3652,230.479 C69.769,225.61 67.3254,218.39 71.8431,215.284 M80.6955,215.313 C80.7069,215.311 80.7163,215.314 80.7244,215.318 L81.8877,215.327 C81.8448,215.353 80.1511,218.984 80.0294,221.187 C79.8913,223.684 80.4951,226.404 81.323,229.088 C83.2775,234.896 86.1383,241.364 87.7281,248.695 C87.7467,248.78 87.9212,249.491 87.9212,249.491 L86.198,249.26 C86.198,249.26 86.029,248.509 86.0098,248.405 C84.8199,241.958 81.5016,235.261 79.5226,228.915 C78.5085,226.03 77.8036,222.484 78.1662,219.773 C78.422,217.86 80.3408,215.35 80.6955,215.313 L80.6955,215.313 M94.7657,215.327 C93.5335,217.235 92.4118,219.626 92.3329,221.501 C92.2618,224.989 93.2779,227.933 94.2926,231.014 C97.4167,240.502 98.9323,245.507 100.495,253.116 L98.8347,252.407 C98.8347,252.407 98.77,251.98 98.7333,251.857 C97.8462,247.092 97.7903,247.508 92.5791,231.483 C91.3579,227.636 90.1941,224.264 90.4215,221.062 C90.4731,219.237 92.0648,215.625 93.7424,215.337 L94.7657,215.327 M96.7591,215.327 L98.3085,215.327 C98.3085,215.327 97.4554,216.231 97.208,216.568 C94.5015,220.322 95.2847,224.35 96.6288,229.151 C98.4782,235.758 101.897,243.147 103.686,253.218 C103.719,253.404 103.686,254.376 103.686,254.376 L101.842,253.633 C100.167,244.399 96.0334,234.825 94.0416,226.521 C92.8704,221.644 93.2037,218.562 95.9096,215.906 C96.5877,215.383 96.7591,215.327 96.7591,215.327 M77.8524,215.38 L79.0109,215.38 C79.0109,215.38 77.0738,218.561 77.0753,220.434 C76.7516,223.786 77.9652,227.49 79.3584,231.372 C81.4996,237.337 84.3298,244.551 85.1989,248.348 C85.233,248.497 85.3485,249.178 85.3485,249.178 L83.3261,249.072 C83.3261,249.072 83.2201,248.152 83.0992,247.73 C80.7651,239.565 78.4916,234.284 75.8107,226.83 C75.4049,225.701 74.7572,221.24 75.5211,218.349 C76.1208,216.079 77.8524,215.38 77.8524,215.38 M74.7488,215.385 L75.999,215.419 C75.999,215.419 75.8111,215.758 75.3329,216.577 C73.0517,220.707 74.074,224.477 75.4873,228.678 C77.3731,234.283 80.3337,241.127 82.1821,247.604 C82.2863,247.969 82.4283,249.072 82.4283,249.072 L80.623,249.047 C80.623,249.047 80.2563,247.728 80.2321,247.585 C79.2166,241.581 73.7293,231.574 72.3016,223.958 C71.5189,219.872 72.1915,217.342 74.7488,215.385 M91.4931,215.385 C91.4931,215.385 89.5205,218.805 89.3403,220.709 C88.9869,224.443 90.1716,227.536 91.5269,231.748 C93.8651,239.016 97.1646,247.543 97.459,251.441 C97.4688,251.57 97.5169,252.045 97.5169,252.045 L95.4848,251.321 C95.4848,251.321 95.3938,250.914 95.3545,250.771 C93.5833,243.717 91.4891,236.693 88.6742,228.775 C87.9799,226.103 87.0687,223.416 87.1489,221.119 C87.5614,218.053 88.0833,217.226 89.9099,215.409 L91.4931,215.385 M100.432,215.39 L102.069,215.424 C102.069,215.424 101.58,215.686 100.413,216.93 C93.9578,222.828 104.431,239.483 106.847,254.646 C106.874,254.809 106.949,255.38 106.949,255.38 L105.148,254.733 C104.978,253.978 104.85,253.059 104.641,252.233 C102.684,244.482 100.073,236.511 97.6762,229.281 C96.3316,224.014 95.8403,219.374 98.2555,216.78 C99.012,215.884 100.432,215.39 100.432,215.39 M83.6012,215.399 L85.3437,215.448 C84.0843,217.027 83.3455,219.486 83.2778,221.674 C83.2106,224.262 83.9027,226.778 84.7548,229.441 C86.5024,234.901 88.9978,240.835 90.7111,248.203 C90.8078,248.69 90.8885,249.003 90.9332,249.216 C91.0039,249.554 91.1986,250.09 91.1986,250.09 L89.3596,249.723 C89.3596,249.723 89.1698,249.246 89.0459,248.994 C88.86,248.617 88.6903,248.136 88.5391,247.561 C87.6485,243.717 84.3709,234.997 82.3752,228.881 C80.7925,225.027 80.3613,218.291 83.6012,215.399 M105.356,215.467 C107.584,215.385 109.6,217.276 110.076,219.053 C110.539,220.94 109.947,223.07 107.87,224.122 C104.504,225.827 100.879,221.29 103.536,218.793 C105.55,216.9 108.529,218.301 107.88,220.723 C107.462,222.301 105.07,222.402 104.675,220.81 C104.567,220.281 104.301,219.751 104.11,220.043 C102.872,222.951 107.035,224.312 108.763,221.607 C109.789,219.438 107.837,216.645 104.965,217.176 C101.026,217.904 100.573,222.902 102.209,228.731 C104.49,237.945 109.931,250.338 109.922,256.027 C109.922,256.102 109.941,256.336 109.941,256.336 L108.213,255.819 C108.213,255.819 108.201,255.724 108.189,255.641 C107.153,247.696 101.251,234.542 99.5587,224.43 C98.825,219.82 100.621,216.474 104.661,215.559 C104.894,215.506 105.125,215.476 105.356,215.467 M88.2687,215.539 C87.0567,217.159 86.2645,219.594 86.227,221.332 C86.1904,223.877 87.1039,226.356 87.8585,229.006 C89.768,235.552 94.2285,247.638 94.0658,249.902 C94.1122,250.145 94.2347,250.896 94.2347,250.896 L92.5115,250.384 C92.5115,250.384 92.443,250.276 92.3136,249.964 C91.7394,247.718 89.0074,238.091 85.9471,229.769 C84.7695,226.423 84.1965,223.816 84.277,221.597 C84.5257,218.536 85.4021,217.258 86.7435,215.554 L88.2687,215.539 M121.081,226.39 C116.615,226.645 117.045,232.09 119.812,233.013 C120.802,233.285 121.383,233.05 121.54,232.834 C121.719,232.589 121.519,232.214 120.869,232.12 C118.991,231.503 118.32,229.293 120.016,228.365 C120.942,227.88 122.421,228.192 124.204,229.513 C127.391,231.873 131.298,232.022 130.788,229.634 C130.665,229.055 130.415,228.977 128.08,228.659 C126.185,228.401 125.33,227.801 124.504,227.356 C123.201,226.653 122.053,226.361 121.081,226.39 M57.1357,231.453 C68.6748,242.723 66.9647,260.385 57.1068,269.228 C56.904,268.514 56.4732,266.765 56.4262,266.815 C63.8398,259.101 67.3315,246.456 56.5999,233.495 C56.6556,233.545 56.8385,232.56 57.1357,231.453 M129.456,231.753 C129.347,231.755 129.251,231.767 129.166,231.796 C126.178,232.614 125.559,235.567 127.496,236.782 C128.684,237.528 129.597,237.071 128.119,236.169 C126.852,235.397 127.477,233.366 129.012,233.389 C129.683,233.399 130.14,233.691 131.845,234.948 C133.249,235.983 134.572,236.066 134.872,234.663 C135.051,233.827 134.771,233.455 133.877,233.674 C133.482,233.771 133.25,233.539 132.714,233.167 C131.522,232.339 130.219,231.736 129.456,231.753 M55.9435,233.964 C66.3449,246.036 63.0058,258.627 55.9918,266.004 C54.066,260.321 49.3452,256.775 49.3452,256.775 C51.1241,252.828 52.1848,248.707 48.8577,243.501 C51.9528,240.705 54.5179,237.631 55.9435,233.964 M123.524,238.37 C123.036,238.362 123.194,238.832 124.344,239.635 C127.086,241.5 127.32,241.836 124.663,241.793 C123.99,241.753 122.934,242.23 122.336,242.43 C118.868,243.587 118.701,243.495 117.041,243.106 C116.488,242.977 115.927,242.745 115.685,242.966 C115.31,243.307 114.89,243.533 115.362,244.042 C115.706,244.413 116.345,244.697 117.124,245.143 C121.151,247.449 121.516,248.002 126.251,248.125 C126.793,248.14 127.072,247.859 127.39,247.855 C128.163,247.846 128.568,248.035 129.35,248.748 C130.781,250.054 130.848,249.105 129.997,247.392 C129.55,246.493 129.16,246.279 129.379,245.596 C129.878,244.038 129.167,243.729 128.235,245.109 C127.536,246.189 127.457,246.164 126.796,244.776 C125.92,243.042 126.332,242.241 127.66,243.371 C128.667,244.227 128.924,243.591 129.316,242.913 C129.831,242.021 129.753,241.221 128.833,241.291 C128.305,241.331 127.81,241.087 127.395,240.634 C126.581,239.746 125.02,238.632 123.524,238.37 M124.663,243.062 C124.772,243.068 124.848,243.113 124.885,243.226 C124.894,243.797 124.502,244.964 124.18,245.577 C124.077,245.85 123.901,245.884 123.654,245.934 C122.824,246.087 122.766,245.831 122.916,245.316 C123.22,244.522 123.472,243.393 124.542,243.067 C124.587,243.062 124.627,243.06 124.663,243.062 L124.663,243.062 M122.554,243.458 C122.89,243.433 122.901,243.573 122.766,243.878 C122.526,244.392 122.105,244.879 121.791,245.282 C121.126,245.713 120.043,244.397 120.522,244.056 C121.19,243.792 121.693,243.52 122.39,243.477 C122.451,243.467 122.506,243.461 122.554,243.458 M48.042,244.317 C48.2211,244.317 48.4038,244.353 48.5923,244.433 C51.1093,247.831 50.9378,253.002 48.9832,255.863 C48.8375,256.077 48.6888,256.115 48.4426,256.032 C47.6014,255.534 46.5329,255.349 45.7348,255.062 L45.7348,245.114 C46.5568,244.939 47.2659,244.315 48.042,244.317 M114.372,245.128 C114.18,245.137 114.1,245.268 114.343,245.519 C118.014,248.175 123.064,251.253 127.723,250.061 C128.151,249.968 128.496,249.734 128.413,249.294 C128.362,249.019 127.889,248.782 127.376,248.917 C126.307,249.199 124.259,249.235 123.418,249.101 C120.214,248.575 117.384,246.526 114.922,245.326 C114.74,245.187 114.522,245.121 114.372,245.128 M113.301,247.662 C113.137,247.655 113.149,247.818 113.252,248.125 C113.769,249.664 118.963,253.249 123.065,254.434 C126.587,255.452 131.647,254.451 131.353,252.779 C131.199,251.906 130.559,251.698 128.312,251.982 C123.363,252.944 118.6,250.92 114.985,248.671 C114.011,248.057 113.512,247.672 113.301,247.662 M80.8934,249.767 C83.0547,249.741 85.1977,249.916 87.5158,250.302 C92.025,251.072 97.2513,252.468 101.673,254.516 C109.187,257.337 118.634,259.512 126.652,259.218 C128.609,259.272 132.145,259.105 132.83,258.88 C134.617,258.479 135.111,258.859 135.538,261.076 C135.613,261.558 135.762,261.698 136.383,262.118 C137.332,262.761 137.174,263.397 137.058,264.817 C136.961,266.011 137.683,266.682 140.577,272.023 C143.871,278.102 147.084,285.167 147.084,285.167 C118.211,285.147 90.6649,284.075 61.1227,284.993 C63.7796,278.693 71.0238,267.333 75.5636,258.215 C74.4657,255.409 75.8215,254.932 75.2527,254.267 C74.3332,252.708 74.9967,250.52 76.9402,250.027 C78.2943,249.872 79.5966,249.782 80.8934,249.767 Z" style="stroke:none;fill-rule:nonzero;fill:#131f67;fill-opacity:1;"/>
        </g>
        <g id="Shape3">
            <desc shapeID="3" type="0" basicInfo-basicType="0" basicInfo-roundedRectRadius="12" basicInfo-polygonSides="6" basicInfo-starPoints="5" bounding="rect(-80.062,-129.16,160.124,258.32)" text="" font-familyName="" font-pixelSize="20" font-bold="0" font-underline="0" font-alignment="1" strokeStyle="0" markerStart="0" markerEnd="0" shadowEnabled="0" shadowOffsetX="0" shadowOffsetY="2" shadowBlur="4" shadowOpacity="160" blurEnabled="0" blurRadius="4" transform="matrix(1,0,0,1,111.369,156.029)" pers-center="0,0" pers-size="0,0" pers-start="0,0" pers-end="0,0" locked="0" mesh="" flag=""/>
            <path id="shapePath3" d="M61.4597,285.189 C61.4597,285.189 70.9213,266.061 74.9078,260.331 C80.6436,253.06 106.532,263.491 119.407,266.097 C124.64,267.106 136.77,266.633 136.77,266.633 L146.909,284.908 L61.4597,285.189 M41.8128,263.456 L41.4117,203.909 L44.3742,205.757 L45.0531,265.57 L32.2491,277.83 L32.1786,274.239 L41.8128,263.456 M49.5625,256.661 C52.6121,250.523 49.2075,243.027 49.208,243.03 C50.9767,243.466 55.9065,234.112 56.3444,234.382 C63.8885,243.634 65.1961,257.419 55.9786,265.963 C53.6519,260.024 49.5924,256.661 49.5625,256.661 M55.1936,214.546 C60.9257,208.688 65.4714,204.125 70.0148,197.57 C70.3869,197.037 45.8303,165.845 46.2122,165.299 C50.0004,161.112 55.0783,158.036 59.0291,152.981 C59.0291,152.981 79.1678,179.343 79.6312,179.111 C81.6717,170.861 83.1659,163.392 82.7764,154.769 C81.5337,132.706 72.1053,119.199 72.0323,119.465 C68.8444,139.736 37.511,170.439 31.3416,168.251 L31.3068,154.086 C31.6799,154.794 51.1569,141.554 56.293,124.055 C56.662,122.798 71.7753,117.962 71.6695,117.777 C71.0301,116.134 64.4186,106.781 64.4186,106.781 C64.4186,106.781 67.0893,105.537 67.386,105.541 C75.9564,116.198 82.4235,130.236 84.6241,143.604 C87.294,158.003 89.0203,185.071 60.1477,214.633 L55.1936,214.546 M141.749,177.297 C137.231,163.274 137.355,148.756 139.432,138.62 C142.602,120.252 154.21,107.1 163.521,97.0716 L167.56,97.0734 C167.56,97.0734 162.731,102.071 160.974,103.889 C157.958,107.348 153.59,114.565 153.59,114.565 L177.685,146.059 L191.419,143.091 C191.419,143.091 191.005,157.18 191.431,157.18 C180.757,166.015 173.086,174.011 167.579,186.883 C164.204,188.131 153.015,192.955 153.015,192.955 C147.696,191.655 168.842,158.501 164.821,157.939 C163.164,156.573 144.822,131.829 144.464,131.88 C136.009,157.768 144.257,184.953 159.133,203.941 C157.444,205.035 155.916,205.886 156.056,205.63 C149.684,196.79 144.101,186.236 141.749,177.297 M97.7314,164.317 C98.6846,165.793 102.971,132.724 91.7046,106.254 C92.7767,105.441 102.071,103.663 102.071,103.663 L104.573,111.589 L98.2324,114.274 L99.403,117.989 C104.325,115.601 114.985,112.077 121.542,101.185 C121.542,101.185 153.402,100.912 154.08,100.969 C154.741,101.024 147.582,107.884 140.792,121.773 C137.691,128.116 135.224,136.324 134.71,145.954 C134.608,147.857 127.42,137.008 127.42,137.008 C129.212,127.841 134.003,118.817 138.778,109.792 C138.778,109.792 131.452,109.375 126.333,109.525 C118.374,118.223 113.383,122.808 101.382,126.962 C105.758,140.981 132.53,147.72 126.576,146.439 C125.36,146.152 123.818,159.327 125.107,174.172 C125.355,186.043 131.742,205.83 131.967,205.671 C131.967,205.671 127.71,206.63 127.368,205.947 C128.086,205.775 121.034,207.56 121.034,207.56 L118.512,200.185 L125.337,197.045 L124.233,192.882 C124.206,192.885 109.174,197.431 101.811,210.544 L68.8829,210.582 C81.5818,196.803 86.7613,183.175 89.5193,165.157 C92.2135,165.64 97.7314,164.317 97.7314,164.317 M178.712,45.356 C182.853,41.8915 191.162,32.8696 191.162,32.8696 L191.27,37.492 L181.84,47.2994 L181.935,107.851 L178.745,104.794 L178.712,45.356 M174.354,67.5183 C172.655,68.3273 169.27,72.3073 167.656,76.7793 C156.731,67.0181 161.23,49.0794 167.211,45.3451 C168.947,49.262 173.972,54.4548 173.856,54.3457 C172.701,58.4471 171.816,62.6076 174.354,67.5183 M77.6186,26.8689 L161.882,27.0167 C157.076,36.4805 152.666,44.1304 147.557,53.4472 C144.899,56.6539 87.3559,43.0924 87.0857,44.4433 L77.6186,26.8689 Z" style="stroke:none;fill-rule:nonzero;fill:#e2cf00;fill-opacity:1;"/>
        </g>
        <g id="Shape4">
            <desc shapeID="4" type="0" basicInfo-basicType="0" basicInfo-roundedRectRadius="12" basicInfo-polygonSides="6" basicInfo-starPoints="5" bounding="rect(-106.299,-145.719,212.598,291.437)" text="" font-familyName="" font-pixelSize="20" font-bold="0" font-underline="0" font-alignment="1" strokeStyle="0" markerStart="0" markerEnd="0" shadowEnabled="0" shadowOffsetX="0" shadowOffsetY="2" shadowBlur="4" shadowOpacity="160" blurEnabled="0" blurRadius="4" transform="matrix(1,0,0,1,111.614,155.906)" pers-center="0,0" pers-size="0,0" pers-start="0,0" pers-end="0,0" locked="0" mesh="" flag=""/>
            <path id="shapePath4" d="M196.38,301.624 L196.38,298.844 L199.148,298.844 L205.758,288.811 L198.909,272.979 L196.24,272.979 L196.24,269.866 L206.172,269.866 L206.172,272.979 L202.672,272.979 L207.889,285.324 L211.365,280.374 L211.287,272.979 L208.848,272.979 L208.848,269.866 L217.913,269.866 L217.913,272.979 L214.674,272.979 L214.833,298.844 L217.579,298.844 L217.579,301.624 L208.968,301.624 L208.968,298.844 L211.338,298.844 L211.107,286.681 L203.194,298.844 L205.995,298.844 L205.995,301.624 L196.38,301.624 M164.836,283.583 C159.315,272.828 152.225,263.079 144.093,254.658 C152.19,245.816 158.941,236.657 164.709,226.652 C170.653,236.611 177.182,246.013 186.302,255.106 C177.263,264.004 170.474,273.711 164.836,283.583 M32.0698,273.135 L31.5076,193.628 L41.0859,202.932 L41.6547,263.99 L32.0698,273.135 M197.994,251.028 C201.482,247.332 204.651,243.233 207.266,238.81 C210.556,243.682 214.045,248.666 216.931,251.151 C213.656,254.878 210.559,259.2 207.575,263.653 C204.976,259.501 202.151,255.316 197.994,251.028 M76.0197,257.728 C74.0374,258.031 75.1595,256.196 75.5217,254.451 C75.7235,253.479 74.783,252.565 74.7874,252.268 C74.8127,250.542 76.1056,249.814 81.9647,249.882 C95.7781,250.84 102.919,255.262 110.843,257.318 C118.431,259.286 125.952,259.247 134.325,259.054 C134.938,259.407 137.183,265.188 136.766,265.767 C117.825,269.499 93.6541,255.593 76.0197,257.728 M110.158,216.558 C108.162,215.112 106.289,214.845 104.438,214.531 C107.687,208.817 111.62,203.61 118.191,200.352 L121.248,207.915 C117.384,209.902 113.59,212.267 110.158,216.558 M70.2547,196.915 C70.2547,196.915 67.4197,201.55 64.7441,203.804 C56.7894,193.138 39.0022,170.429 39.0022,170.429 L31.4543,174.251 C31.4543,174.251 31.4245,169.855 31.5951,169.547 C51.9816,159.042 65.9698,139.187 72.1297,120.595 C72.1297,120.595 75.4119,123.944 74.9803,125.361 C69.468,140.027 60.0421,154.734 46.181,165.764 L70.2547,196.915 M95.6806,175.279 L121.417,175.315 L122.557,184.262 C112.702,187.564 104.569,194.31 96.9639,202.113 L84.7565,201.9 C88.7588,193.132 94.3192,184.236 95.6806,175.279 M190.966,137.586 C191.799,140.108 190.96,142.829 191.28,142.715 C160.452,157.961 151.643,191.423 151.643,191.423 C151.643,191.423 148.716,186.79 148.849,186.073 C164.806,150.609 175.481,149.552 177.532,145.701 L153.264,114.294 L158.753,106.828 L184.783,140.7 C187.371,139.508 188.845,138.51 190.966,137.586 M175.766,183.466 C180.994,174.065 186.387,168.6 191.759,164.84 L191.498,177.247 L175.766,183.466 M31.64,146.567 L31.7741,134.53 L47.6536,127.696 C43.263,137.266 37.303,142.395 31.64,146.567 M102.384,135.744 L101.445,127.278 C111.085,123.073 119.601,117.45 126.476,109.753 C133.862,109.398 138.907,109.899 138.867,109.798 C138.88,109.783 131.841,120.107 127.18,136.36 L102.384,135.744 M182.251,46.8106 L191.025,37.9449 L191.302,117.064 L182.488,108.678 L182.251,46.8106 M105.136,111.235 L102.352,103.391 C106.731,101.75 110.047,98.1748 113.135,94.6348 C115.229,96.5089 117.931,97.1685 118.869,97.5289 C120.153,97.8289 109.991,110.03 105.136,111.235 M37.2655,57.0606 C46.6625,47.8902 52.7687,38.2183 58.6708,28.6026 C63.8467,39.183 71.3397,48.4394 79.3723,57.3874 C71.0926,66.3872 64.8021,76.0243 58.7618,85.7259 C52.825,75.5001 46.5749,65.9135 37.2655,57.0606 M15.6042,72.8639 C12.8959,68.5388 10.1668,64.3753 6.23441,60.1984 C10.0629,56.1009 13.3148,52.0394 15.4992,48.0446 C18.5134,52.4311 21.3755,57.0132 25.0753,60.5182 C21.472,64.4846 18.5763,68.687 15.6042,72.8639 M88.6859,51.828 C88.6859,51.828 87.591,51.1943 87.7112,50.3015 C88.0736,49.1448 86.5415,46.5264 86.5409,46.5265 C105.227,40.8578 132.436,56.81 148.585,53.4546 C148.45,54.5823 148.636,55.927 148.178,56.9902 C148.687,59.25 149.046,59.3227 146.84,60.7025 C135.494,63.9127 123.537,57.0675 112.455,53.7951 C103.414,50.9478 96.0709,51.6732 88.6859,51.828 M5.31494,41.9023 L5.31497,38.5226 L8.48679,38.5226 L8.48679,13.1207 L5.31494,13.1207 L5.31494,10.187 L14.1115,10.187 L14.1116,13.1207 L11.818,13.1207 L12.0303,25.334 L20.0106,13.1207 L16.8994,13.1207 L16.9352,10.187 L26.8901,10.187 L26.8901,13.1207 L24.0504,13.1207 L17.6969,23.1696 L24.0504,38.5226 L26.8901,38.5226 L26.8901,41.9023 L16.9379,41.9023 L16.938,38.7359 L20.6707,38.6771 L15.3804,26.719 L11.818,31.6264 L11.818,38.5815 L14.4119,38.5815 L14.4119,41.9023 L5.31494,41.9023 Z" style="stroke:none;fill-rule:nonzero;fill:#d40000;fill-opacity:1;"/>
        </g>
        <g id="Shape5">
            <desc shapeID="5" type="0" basicInfo-basicType="0" basicInfo-roundedRectRadius="12" basicInfo-polygonSides="6" basicInfo-starPoints="5" bounding="rect(-80.8498,-129.981,161.7,259.962)" text="" font-familyName="" font-pixelSize="20" font-bold="0" font-underline="0" font-alignment="1" strokeStyle="0" markerStart="0" markerEnd="0" shadowEnabled="0" shadowOffsetX="0" shadowOffsetY="2" shadowBlur="4" shadowOpacity="160" blurEnabled="0" blurRadius="4" transform="matrix(1,0,0,1,111.559,155.734)" pers-center="0,0" pers-size="0,0" pers-start="0,0" pers-end="0,0" locked="0" mesh="" flag=""/>
            <path id="shapePath5" d="M76.6553,25.7531 L80.0684,32.1807 L79.4781,32.5809 C80.4074,34.1291 81.197,35.8712 82.1474,37.4068 L82.833,37.3279 C83.9542,39.476 84.4082,40.2706 85.8748,42.8156 L85.2127,42.8127 C85.5536,43.944 86.4283,44.6955 86.4461,45.5074 C86.455,46.5176 86.1952,47.543 86.8157,48.2268 C87.5508,49.0369 87.6389,49.2613 87.4879,49.7358 C87.0868,50.9964 88.229,52.3918 89.3882,52.2668 C97.5569,51.175 105.881,52.1014 114.202,54.6158 C120.186,56.5029 125.498,58.6166 130.527,60.1026 C132.113,60.5761 135.318,61.3227 138.077,61.5247 C145.729,62.0853 150.023,60.5263 148.734,57.3439 C148.632,57.0891 148.402,56.9023 148.382,56.7711 C148.344,56.529 148.382,56.2671 148.816,55.9112 C150.072,54.6291 149.371,53.6958 148.605,52.2763 C148.605,52.2763 158.432,34.722 163.34,25.9752 L76.6553,25.7531 M161.737,27.3306 L154.565,39.7123 C150.731,39.0177 149.83,42.2418 149.772,42.6953 C144.793,41.4189 145.558,47.8749 148.055,48.311 C148.217,49.2475 143.963,50.411 141.721,48.2172 C145.166,48.6786 146.386,44.1205 142.178,43.1077 C147.726,38.9835 137.317,32.8086 137.193,41.3402 C132.299,40.4783 132.935,46.9458 136.04,47.4486 C134.451,49.1995 129.782,49.2481 127.342,45.5576 C131.493,47.7137 133.74,42.1488 129.427,40.5908 C134.75,35.9233 124.327,31.62 124.571,39.162 C120.643,36.8339 117.941,42.7693 123.186,43.68 C122.887,44.748 116.019,44.7565 114.276,41.9954 C119.145,43.1066 119.369,37.178 115.072,36.6956 C119.385,31.2213 108.436,28.4526 110.274,35.9232 C106.044,34.2502 104.446,39.5244 108.565,41.2183 C108.794,42.0576 101.894,42.7717 99.4785,39.7438 C104.782,38.948 102.926,33.8083 99.491,34.2194 C99.491,34.2194 99.5403,34.0715 99.734,33.5715 C101.356,28.4122 92.6357,27.981 93.8436,33.4519 C94.037,33.9555 94.2506,34.6264 94.2506,34.6264 C91.8466,34.1367 90.3777,35.1159 90.5517,37.3713 C91.1503,40.366 92.7321,40.1447 94.7559,39.5482 C95.6046,40.4352 89.8735,43.4002 86.2755,40.7527 C90.6821,39.4865 88.4497,34.3225 84.7624,35.0196 C84.6099,33.3714 82.8185,31.0595 80.4829,32.1873 L78.0116,27.3267 L161.737,27.3306 M168.944,96.118 L163.767,96.1943 C160.131,99.9066 133.8,124.161 138.234,160.798 C140.131,176.468 144.507,190.025 156.206,206.04 L159.332,204.205 L159.811,204.526 L192.232,185.875 L192.249,180.212 L154.615,195.999 C153.869,195.205 153.43,194.319 152.801,193.341 L167.882,186.931 C167.882,186.931 168.244,186.015 168.36,185.593 C173.318,173.049 183.39,163.968 192.159,156.952 C192.113,144.602 192.055,118.745 192.055,118.745 L169.38,96.1638 C166.473,98.8222 163.894,101.557 161.315,104.523 L187.348,138.79 L185.04,140.292 L159.282,106.203 C162.332,102.535 165.643,99.3362 168.944,96.118 M192.073,118.398 C192.073,118.398 191.947,59.565 191.776,31.156 L191.776,31.156 L178.266,45.0174 L178.318,104.651 L192.073,118.398 M190.924,36.757 L181.378,46.6064 L181.485,107.222 L179.032,104.804 L179.032,45.8199 L190.957,33.3252 L190.924,36.757 M98.026,35.2981 C98.3113,35.8012 98.1878,36.4984 97.7292,37.0672 C95.7769,39.4888 101.909,43.697 106.321,42.9656 C109.679,42.4089 112.542,40.3924 111.307,38.858 C110.301,37.6083 110.958,36.3444 112.166,36.3529 C113.409,36.3615 114.406,37.3499 113.329,38.7035 C110.934,41.7148 114.587,45.248 120.174,45.3211 C124.124,45.3728 125.441,44.3997 125.228,41.5851 C125.128,40.2671 125.387,39.9027 126.304,39.7027 C127.769,39.3832 128.508,41.0622 127.293,42.343 C124.67,45.1087 127.651,49.176 132.613,49.4384 C134.428,49.5344 134.786,49.4378 136.812,48.2944 C138.395,47.4008 138.954,46.0512 138.178,45.0025 C137.18,43.6529 138.526,42.0407 140.08,42.705 C141.191,43.1797 141.738,44.0316 140.509,45.4757 C138.895,47.3728 139.659,48.9376 142.768,49.9935 C145.19,50.8159 146.867,50.7138 148.001,49.6797 C148.353,49.3579 149.138,48.6858 149.127,48.8911 C148.365,50.2071 147.69,51.4286 147.69,51.4286 C142.617,53.6914 138.658,49.4566 138.788,49.2985 C133.563,52.3138 128.929,51.6777 125.014,46.6124 C123.996,47.1765 116.707,48.5047 111.446,42.7301 C106.136,45.3938 101.201,44.2767 96.8148,41.2977 C93.5738,44.3572 90.1572,44.8412 86.6075,43.3718 L85.5559,41.2569 C85.8211,41.1575 86.9654,43.3777 92.5211,42.343 C94.3863,41.9955 97.5956,38.8608 95.7985,37.3327 C94.9755,36.1689 94.9511,35.6442 95.6778,34.9386 C96.3927,34.2435 97.6136,34.6014 98.026,35.2981 M84.4168,38.0712 C84.7268,38.6715 84.7681,39.6695 84.4265,39.0703 C84.2462,38.7542 83.3056,37.3421 83.3501,37.2989 C83.7877,37.2624 84.2219,37.7141 84.4168,38.0712 M190.928,38.5534 L190.99,116.777 L182.861,108.712 L182.471,47.4321 L190.928,38.5534 M96.787,42.3413 L99.347,43.9508 L94.7633,43.9234 L96.787,42.3413 M111.177,43.6874 L113.326,45.7751 L108.808,44.8275 L111.177,43.6874 M151.442,44.7708 L150.482,46.7402 C149.927,46.1208 149.766,44.8062 151.442,44.7708 M167.686,77.2902 C169.317,73.6275 171.5,68.963 175.033,67.4794 C172.403,62.253 172.745,57.0284 174.611,54.164 C171.942,51.68 169.203,48.7042 167.503,44.4251 C159.071,51.8697 157.716,67.1614 167.686,77.2902 M167.433,45.8552 L168.013,47.2852 C160.504,56.475 162.823,68.539 168.262,74.9768 L167.48,76.5983 C160.833,69.5878 157.923,54.769 167.433,45.8552 M122.542,51.0539 C131.243,53.6068 138.212,57.5866 148.272,54.0411 L148.319,55.9994 C141.916,60.1095 129.16,55.767 120.543,52.5865 C106.692,47.4741 95.912,47.7722 88.2108,48.3563 C87.5329,48.2235 86.9938,46.4532 88.0799,46.4412 C102.482,46.2824 100.155,44.4852 122.542,51.0539 M124.508,47.5897 L127.366,50.6209 C125.22,49.9477 123.133,49.1999 121.192,48.2703 L124.508,47.5897 M168.122,48.3376 L168.682,49.1099 C168.924,49.4443 167.102,49.6177 167.407,49.2257 L168.122,48.3376 M119.025,53.8852 C129.412,57.7853 140.849,61.6776 148.354,58.1869 C148.354,58.1869 148.401,59.6731 147.543,60.094 C147.543,60.094 146.752,60.7341 144.103,61.0985 C131.959,62.0951 124.076,57.0676 114.274,54.0964 C110.556,52.9694 104.582,51.6039 98.4484,51.3498 C94.8062,51.1841 89.234,51.707 89.234,51.707 C88.0203,51.6059 88.0377,50.8893 88.0273,50.1866 C98.5858,48.7786 108.295,49.8292 119.025,53.8852 M169.251,50.1461 C169.385,50.1399 169.522,50.1495 169.657,50.1703 L170.719,51.5266 L169.459,53.5297 C169.459,53.5297 168.348,52.5067 167.784,51.5025 C167.473,50.8522 168.314,50.1897 169.251,50.1461 M138.649,50.5277 L141.938,53.0102 C139.466,53.1316 136.682,53.2239 133.928,52.1297 L138.649,50.5277 M166.508,51.7919 C166.767,51.7857 167.039,52.0594 167.357,52.6028 C167.97,53.6476 167.889,53.8477 166.701,54.2295 C165.141,54.7309 165.018,54.6208 165.523,53.2207 C165.867,52.2672 166.175,51.7999 166.508,51.7919 M171.504,52.4324 L173.727,54.2986 C172.499,57.4935 171.696,61.5487 174.162,67.37 C173.888,67.3882 172.29,68.9652 171.789,69.2344 C170.38,68.644 167.279,57.1094 171.504,52.4324 M168.974,54.8763 L168.41,58.4095 C168.363,58.6992 165.95,56.7365 166.175,55.7548 C166.605,54.5887 168.074,54.8375 168.974,54.8763 M164.984,56.1166 C165.276,56.1188 165.734,56.8249 166.297,57.7481 C166.736,58.4683 166.646,58.7404 165.674,59.6161 C164.244,61.0626 163.962,60.5904 164.279,58.1294 C164.436,56.9134 164.653,56.1142 164.984,56.1166 M167.943,59.3185 C168.137,59.3225 168.307,59.3693 168.431,59.4681 L168.595,62.9096 C168.609,63.2203 165.909,62.7872 165.554,61.476 C165.105,60.6365 166.895,59.2969 167.943,59.3185 M164.378,62.2274 C164.571,62.1998 165.177,62.6024 165.749,62.9417 C166.743,63.5317 166.765,63.7913 165.908,64.8918 C164.902,66.1846 164.402,65.9773 164.247,63.7285 C164.191,62.9029 164.129,62.2628 164.378,62.2274 M168.342,63.5436 C168.429,63.5435 168.507,63.5686 168.574,63.6256 C169.052,64.0349 169.784,67.4844 169.476,67.8443 C169.038,68.357 166.733,67.6752 166.218,66.8644 C165.729,66.093 167.501,63.5442 168.342,63.5436 M165.52,67.6046 C165.785,67.5865 166.262,67.7688 166.983,68.1162 C167.416,68.3252 168.14,68.7184 168.3,69.0536 C168.581,69.6436 168.113,70.5181 167.509,71.244 C167.109,71.7244 166.734,71.367 165.959,69.7574 C165.336,68.4627 165.079,67.6347 165.52,67.6046 M170.175,69.1474 C170.228,69.1461 170.276,69.157 170.319,69.1812 C171.104,69.6164 170.973,70.9088 170.044,71.8649 C168.93,73.0125 167.961,72.148 168.731,70.692 C169.219,69.7697 169.803,69.1562 170.175,69.1474 M105.399,101.24 C104.72,101.27 103.661,101.885 103.198,102.48 C102.614,103.232 102.104,103.134 101.456,103.079 C100.684,103.068 99.5111,103.238 97.9223,103.962 C97.0219,104.373 96.6113,104.465 95.2916,104.532 C94.4303,104.575 93.567,104.692 93.3754,104.792 C93.1837,104.893 92.5638,105.11 91.9997,105.275 C90.8467,105.613 91.2571,105.94 91.9185,107.426 C95.2831,116.052 97.6942,126.104 98.5728,134.29 C99.5591,143.683 99.2607,155.072 97.9471,163.77 C94.7263,163.792 92.7035,163.627 89.3114,163.684 C86.9979,182.494 80.7196,197.43 68.173,210.863 L102.091,210.949 C105.977,200.585 123.71,192.68 124.293,193.263 L125.228,197.045 C125.228,197.045 112.471,198.868 103.879,215.056 C104.758,214.524 107.958,214.893 110.07,217.086 C114.289,211.736 121.21,208.241 121.255,208.323 L121.487,207.678 C121.487,207.678 122.756,207.247 123.871,207.034 C124.229,206.966 124.963,206.828 125.45,206.658 C126.202,206.394 126.576,206.114 127.737,206.214 C130.156,206.445 132.583,205.743 132.531,205.73 C125.332,185.874 123.63,167.949 126.443,147.127 C129.095,147.148 134.912,147.248 134.912,147.248 C135.497,141.397 136.238,135.544 138.035,130.02 C140.342,122.928 143.124,116.336 147.604,110.308 C150.134,106.522 152.343,103.828 154.958,100.279 L121.756,100.356 C117.362,107.741 108.897,113.909 102.093,116.478 C99.7768,117.348 99.4499,117.22 99.0662,116.131 C98.3806,114.185 98.4134,114.268 100.225,113.751 C100.829,113.579 102.765,112.559 105.785,111.145 C112.195,107.891 116.602,101.935 119.194,97.9142 C120.225,96.3263 119.533,96.6848 117.77,96.6689 C116.155,96.5426 115.418,96.0434 113.967,94.6899 C113.432,94.191 113.202,93.8356 112.958,93.8645 C111.063,96.586 107.881,100.176 105.399,101.24 M113.191,94.953 C114.683,96.5507 116.454,97.4853 118.785,97.7896 C115.06,103.634 110.51,108.205 105.281,110.983 L102.623,103.506 C109.14,100.472 110.882,97.4323 113.191,94.953 M167.309,97.3316 C132.195,129.795 134.26,170.722 158.85,203.965 L156.274,205.514 C133.179,174.567 129.001,128.786 164.287,97.1932 L167.309,97.3316 M145.172,101.291 L153.78,101.273 L147.92,108.869 L140.057,108.84 L145.172,101.291 M143.823,101.354 L139.036,108.902 L126.123,109.068 C118.396,118.594 110.096,123.241 101.647,126.412 L99.9977,118.278 C99.9976,118.278 113.375,115.052 122.04,101.251 L143.823,101.354 M130.701,101.978 L127.709,105.29 L130.817,108.451 L133.655,105.241 L130.701,101.978 M137.478,101.901 L134.447,105.053 L136.812,108.224 L139.954,105.145 L137.478,101.901 M122.529,102.476 L122.013,107.433 L125.913,108.712 L126.483,104.474 L122.529,102.476 M146.255,102.66 L143.425,107.085 L147.687,107.153 L150.667,102.747 L146.255,102.66 M101.699,103.791 L104.461,111.448 L102.036,112.617 L99.5751,104.621 L101.699,103.791 M98.4291,105.019 L101.277,112.94 L98.8925,113.727 L96.2763,105.483 L98.4291,105.019 M101.842,136.292 C102.159,147.308 102.317,153.949 100.476,163.631 C100.379,164.137 98.4012,163.689 98.4012,163.689 C98.6515,163.773 99.5158,152.747 99.4471,145.822 C99.3163,132.633 97.0802,119.586 91.9043,106.516 C92.891,105.912 95.3244,105.604 95.3244,105.604 C98.5909,115.516 101.486,126.178 101.842,136.292 M67.3664,105.75 C78.7021,120.789 86.8044,141.194 85.4489,161.325 C84.1505,184.735 75.2751,198.227 59.6879,214.438 L55.6663,214.531 C74.1177,196.84 82.2817,181.699 82.9253,161.723 C83.6655,138.749 76.6491,123.469 64.8313,107.185 L67.3664,105.75 M31.1076,126.424 L31.1472,131.903 L69.7674,115.339 L64.1972,107.133 L31.1076,126.424 M121.622,108.48 L117.418,108.692 L117.558,112.935 L121.941,112.829 L121.622,108.48 M159.097,107.674 L184.125,140.492 L177.932,145.092 L154.073,114.253 L159.097,107.674 M139.482,109.915 L146.973,110.031 L144.076,114.837 L136.836,114.779 L139.482,109.915 M138.098,110.034 C134.654,116.439 129.903,123.743 127.235,135.547 L102.575,135.568 C102.529,132.873 102.18,130.178 101.778,127.483 C112.405,123.594 120.636,117.781 126.69,110.097 L138.098,110.034 M142.659,110.372 L139.444,112.226 L141.408,114.485 L144.951,113.128 L142.659,110.372 M113.305,112.733 L112.243,116.913 L116.24,118.452 L116.979,113.486 L113.305,112.733 M136.3,115.855 L143.487,115.899 L140.461,121.942 L133.341,121.836 L136.3,115.855 M153.412,115.064 L177.095,145.763 L174.875,147.52 L151.73,117.512 L153.412,115.064 M139.027,116.343 L135.789,119.041 L138.226,121.855 L141.214,119.471 C141.277,119.42 139.027,116.343 139.027,116.343 M107.595,116.565 L106.601,120.629 L110.757,121.735 L111.5,117.376 L107.595,116.565 M101.846,119.268 L101.002,123.269 L104.916,124.327 L105.742,120.47 L101.846,119.268 M69.5262,118.867 C69.727,118.826 68.8718,123.629 67.6128,124.495 C67.0113,124.908 66.6998,124.817 66.178,124.254 C65.8187,123.866 64.1902,121.21 64.1902,121.21 L65.5812,120.511 C67.2692,123.21 67.2679,121.904 67.9066,119.604 L69.5262,118.867 M63.0354,121.633 C63.5867,121.629 64.2546,122.314 65.0095,123.641 C66.1012,125.56 66.0649,125.685 64.271,126.238 C61.0418,127.092 59.8409,127.297 60.8343,125.166 C61.9038,122.872 62.3265,121.638 63.0354,121.633 M72.6482,121.252 L74.858,125.035 C65.9969,147.597 51.7044,163.782 32.0312,173.575 L31.9862,169.827 C55.1809,156.624 64.6916,141.028 72.6482,121.252 M132.897,122.883 L139.872,123.009 L138.009,128.342 L130.595,128.289 L132.897,122.883 M60.9399,122.65 C55.2628,136.179 47.5059,147.983 31.9963,157.948 L31.9342,154.354 C49.3519,143.857 56.8807,124.196 56.8795,124.19 L60.9399,122.65 M149.096,122.628 C153.226,122.741 157.569,127.243 157.128,130.954 C156.818,133.569 157.319,135.509 158.031,134.439 C159.604,132.073 164.239,133.646 164.197,136.487 C164.175,137.999 163.165,138.247 162.585,136.882 C161.729,134.866 159.322,134.816 158.967,136.929 C158.634,138.91 160.314,140.366 164.803,141.988 C170.063,143.222 173.229,147.937 171.358,150.647 C170.709,151.363 170.318,151.54 170.195,151.168 C170.16,151.062 170.031,150.503 169.91,149.928 C169.314,147.087 167.953,145.894 166.298,146.869 C165.469,147.358 165.575,148.006 166.058,148.859 C166.702,149.996 166.299,150.438 165.146,149.858 C163.326,148.944 162.724,146.777 164.489,145.777 C166.588,144.938 165.877,144.757 163.195,143.851 C157.487,141.901 155.038,138.324 154.739,131.509 C154.848,128.402 154.423,127.295 152.963,126.87 C151.625,126.482 150.11,128.181 151.07,129.076 C151.592,129.562 152.018,130.005 151.741,130.273 C150.854,131.135 148.635,129.736 148.657,128.236 C148.671,127.256 149.043,127.053 150.51,125.9 C150.918,125.58 150.571,124.977 149.975,124.969 C147.731,125.691 147.889,122.724 149.096,122.628 M136.167,123.414 L132.68,125.418 L134.496,127.955 L138.356,126.142 L136.167,123.414 M68.3256,125.383 C68.7261,125.383 69.0544,125.707 69.0544,126.107 C69.0544,126.508 68.7261,126.836 68.3255,126.836 C67.925,126.836 67.6015,126.508 67.6015,126.107 C67.6015,125.707 67.925,125.383 68.3256,125.383 M75.4727,125.697 C82.8318,141.758 84.582,160.124 79.4611,178.477 L59.5876,152.621 C67.2122,144.037 72.338,134.21 75.4727,125.697 M48.5958,126.877 L30.8628,134.327 L30.7647,147.623 C40.6724,140.862 44.8745,133.94 48.5958,126.877 M65.641,126.766 C67.3884,126.712 66.5262,131.429 64.2572,133.038 C63.425,133.677 62.864,133.599 62.5896,132.32 C62.4474,131.658 61.7498,130.256 60.8708,129.127 C59.8484,127.814 59.8602,127.782 61.3535,127.689 C63.0024,127.713 64.3542,126.922 65.641,126.766 M63.9138,128.77 C62.6248,128.751 62.2387,129.355 63.0064,130.18 C63.6528,130.875 64.1657,130.726 64.5992,129.721 C64.8635,129.109 64.6268,128.781 63.9138,128.77 M31.9299,146.018 L31.9734,134.733 L47.1382,128.348 C44.096,134.942 38.4647,141.479 31.9299,146.018 M166.649,155.135 L164.628,157.166 L145.051,131.645 L146.278,128.424 L166.649,155.135 M59.3573,129.321 C60.014,129.33 61.5027,131.606 61.9203,133.24 C62.2301,134.452 61.9019,134.708 59.6035,135.05 C58.651,135.311 56.0785,135.059 56.2874,134.374 C56.6608,133.386 59.1258,129.317 59.3573,129.321 M130.281,129.581 L137.425,129.658 L135.788,135.518 L128.307,135.407 L130.281,129.581 M133.438,129.938 L130.112,132.241 L132.743,134.833 L136.266,132.656 L133.438,129.938 M144.644,132.459 L164.449,158.162 C158.54,165.678 152.647,174.311 148.773,185.723 C141.722,169.23 139.14,153.177 144.644,132.459 M64.2098,134.646 C64.6104,134.646 64.9386,134.97 64.9386,135.37 C64.9387,135.771 64.6104,136.099 64.2098,136.099 C63.8092,136.099 63.4857,135.771 63.4857,135.37 C63.4857,134.97 63.8092,134.646 64.2098,134.646 M61.9316,135.626 C63.1683,135.714 62.0013,139.651 60.1401,141.087 C58.6731,142.219 58.0424,141.694 57.7034,139.623 C57.5808,138.874 56.7939,137.602 56.1013,136.598 C55.3274,135.476 55.6462,135.298 57.6073,135.748 C58.9762,136.014 60.6662,135.689 61.9316,135.626 M128.119,136.588 L135.61,136.633 L134.456,145.532 L128.119,136.588 M55.1405,137 C56.3208,138.101 57.8116,141.961 57.0469,142.239 C56.1574,142.562 52.1301,142.095 51.6795,141.631 C51.3691,141.311 51.3682,141.309 52.027,140.429 C52.3894,139.944 53.0789,138.978 53.562,138.281 C53.997,137.771 54.479,136.39 55.1405,137 M59.3107,137.132 C58.17,137.17 58.0939,137.327 58.6349,138.556 C59.0763,139.559 59.3824,139.648 60.1409,138.99 C61.1962,138.075 60.7532,137.084 59.3107,137.132 M190.781,137.904 L191.051,142.292 C162.259,156.573 151.477,190.291 151.321,190.29 L149.231,186.4 C162.443,153.843 180.014,144.417 190.781,137.904 M55.1083,143.093 C56.8228,143.057 57.3235,142.941 57.3142,143.576 C57.3341,145.284 55.737,147.71 53.7858,148.625 C52.4722,149.241 52.4427,149.255 52.2943,147.708 C52.1801,146.517 51.7919,144.985 51.1745,143.764 C50.9807,143.312 50.2364,142.274 51.1719,142.569 C52.1075,142.864 54.0393,143.116 55.1083,143.093 M58.9542,142.696 C59.3548,142.696 59.6782,143.02 59.6782,143.42 C59.6783,143.821 59.3548,144.145 58.9542,144.145 C58.5536,144.145 58.2302,143.821 58.2302,143.42 C58.2301,143.02 58.5536,142.696 58.9542,142.696 M49.7795,143.697 C50.0905,143.687 50.3864,144.326 50.7401,145.265 C51.5091,147.307 51.7447,148.415 51.5172,148.895 C51.1666,149.635 46.4412,149.157 45.6381,148.33 C45.4853,148.445 49.114,144.107 49.7795,143.697 M53.1824,144.203 C52.5051,144.25 52.8636,144.658 53.3658,145.84 C53.7135,146.658 54.184,146.79 54.7222,146.216 C55.442,145.449 55.5391,144.839 55.0848,144.512 C54.4179,144.244 53.9253,144.207 53.1824,144.203 M190.982,148.642 L191.007,150.111 C189.886,149.777 189.191,149.302 187.913,148.877 C187.129,148.614 186.666,148.426 187.358,147.601 C188.443,146.308 189.606,145.5 190.928,144.699 L190.935,146.364 C188.822,147.3 189.027,148.164 190.982,148.642 M107.754,147.148 L115.709,147.148 L115.709,152.399 L121.931,152.399 L121.448,158.385 L115.709,158.385 L115.709,163.636 L107.754,163.636 L107.754,158.385 L102.073,158.385 L102.532,152.399 L107.754,152.399 L107.754,147.148 M125.72,147.166 C121.692,167.125 125.387,188.315 131.601,205.578 L128.465,205.923 C123.621,192.118 119.771,172.463 123.687,147.177 C123.687,147.177 125.091,147.152 125.72,147.166 M184.762,147.553 C185.162,147.553 185.486,147.877 185.486,148.277 C185.486,148.678 185.162,149.001 184.762,149.001 C184.361,149.001 184.038,148.678 184.038,148.277 C184.038,147.877 184.361,147.553 184.762,147.553 M44.8272,149.228 C45.0909,149.22 45.8998,149.569 46.618,149.769 C47.6977,150.069 48.5491,150.199 49.5334,150.218 C51.5106,150.256 51.7695,150.238 50.9186,151.864 C50.3056,153.035 48.9255,154.583 47.9598,155.054 C46.5924,155.784 46.0683,155.685 46.1497,154.34 C46.1595,153.427 45.7633,151.841 45.2471,150.71 C44.8458,149.831 44.3878,149.241 44.8272,149.228 M53.1926,149.869 C53.5932,149.869 53.9215,150.193 53.9215,150.593 C53.9215,150.994 53.5932,151.322 53.1926,151.322 C52.792,151.322 52.4686,150.994 52.4686,150.593 C52.4686,150.193 52.792,149.869 53.1926,149.869 M187.035,149.774 C187.596,149.762 188.557,150.105 189.434,150.531 C191.759,151.661 191.697,151.921 188.546,154.156 C186.258,155.892 185.717,156.087 185.635,153.35 C185.553,151.044 185.802,149.8 187.035,149.774 M43.635,150.435 C44.5579,150.448 45.5794,155.253 44.75,155.682 C43.4585,156.349 39.4581,155.049 39.4742,153.954 C39.479,153.597 43.2278,150.429 43.635,150.435 M184.255,150.237 C184.806,150.213 184.88,150.645 184.829,152.177 C184.803,152.989 184.942,154.312 184.998,154.929 C185.115,156.209 185.005,156.298 183.994,155.725 C183.346,155.358 182.03,154.758 180.606,154.634 C179.439,154.533 179.353,154.053 179.715,153.284 C180.746,151.578 182.612,150.382 184.255,150.237 M47.062,150.961 C46.2567,150.955 46.4562,151.383 46.9558,152.588 C47.3098,153.441 47.9231,153.522 48.5535,152.795 C49.4362,151.777 49.2626,151.238 47.9791,151.043 C47.7076,151.002 47.2478,150.962 47.062,150.961 M183.188,152.105 C182.853,152.136 182.395,152.401 182.174,152.544 C181.418,153.019 181.11,153.36 182.208,153.736 C183.186,154.071 183.705,154.217 183.627,153.374 C183.581,152.867 183.62,152.131 183.188,152.105 M108.527,152.728 L108.527,157.96 L114.86,157.96 L114.86,152.728 L108.527,152.728 M177.531,153.181 C177.932,153.181 178.255,153.505 178.255,153.905 C178.255,154.306 177.932,154.629 177.531,154.629 C177.13,154.629 176.807,154.306 176.807,153.905 C176.807,153.505 177.13,153.181 177.531,153.181 M58.9843,153.997 L78.9623,179.639 L77.6351,182.982 L57.0583,155.913 L58.9843,153.997 M191.109,153.876 L191.153,157.227 C188.895,158.879 174.563,169.265 167.147,186.747 L163.266,188.4 C168.73,173.354 180.418,160.467 191.109,153.876 M39.1316,155.295 C40.4321,155.691 41.6738,156.595 42.9013,156.758 C44.3125,156.93 44.7992,156.84 44.4169,157.569 C43.5611,159.201 41.9461,160.911 40.2417,161.469 C39.0232,161.868 38.4476,161.719 38.6392,160.962 C38.998,159.545 39.0594,158.382 39.0109,157.091 C39.2039,156.387 38.6027,155.402 39.1316,155.295 M37.6063,155.595 C38.4354,156.304 38.2709,160.784 37.3456,161.749 C36.8618,162.253 35.4584,161.793 33.3539,160.6 C31.978,159.821 31.7213,159.345 32.4078,158.867 C33.5715,158.161 36.9801,155.427 37.6063,155.595 M180.335,155.691 C180.767,155.682 181.3,155.757 181.943,155.904 C184.432,156.463 184.987,157.031 182.865,158.718 C182.08,159.341 181.248,160.115 181.006,160.412 C179.864,161.812 179.07,160.797 178.82,158.254 C178.645,156.475 178.913,155.461 180.335,155.691 M177.217,155.933 C177.622,155.933 177.881,156.144 177.874,156.647 C177.864,157.29 178.326,160.071 178.583,160.837 C179.032,162.139 178.707,162.433 177.628,161.865 C176.842,161.441 174.761,161.12 173.636,161.208 C172.355,161.309 172.392,160.966 172.767,159.891 C173.431,157.985 176.004,155.934 177.217,155.933 M40.3479,156.859 C39.8614,156.858 39.8412,157.514 40.1742,159.017 C40.2801,159.495 40.6914,159.466 41.4677,158.92 C42.3862,158.275 42.3487,157.87 41.3133,157.25 C40.8867,156.995 40.5691,156.86 40.3479,156.859 M46.0098,157.023 C46.4103,157.023 46.7338,157.347 46.7338,157.747 C46.7338,158.148 46.4103,158.471 46.0098,158.471 C45.6092,158.471 45.2857,158.148 45.2857,157.747 C45.2857,157.347 45.6092,157.023 46.0098,157.023 M174.852,159.837 C175.2,160.176 176.484,160.162 176.706,159.958 C177.045,159.645 176.887,158.192 176.604,158.018 C175.881,157.771 174.419,159.301 174.852,159.837 M54.9442,162.603 C55.381,164.675 58.2945,164.561 57.9658,162.401 C57.7739,161.139 57.7292,161.166 58.3616,161.194 C61.3699,161.341 60.8485,166.083 57.3818,165.717 C56.6585,165.803 56.5622,166.099 57.1742,166.354 C57.7822,166.607 60.1119,167.204 60.4709,167.203 C64.2428,167.19 69.684,172.989 69.5502,178.136 C69.4626,181.502 70.6037,183.924 71.7705,184.198 C72.6982,184.417 74.0447,183.573 73.9281,182.543 C73.7673,181.121 74.9232,181.565 75.5885,182.586 C76.6039,183.997 75.294,186.033 72.8759,185.873 C71.8469,186.074 73.6319,186.727 74.9547,187.109 C76.1546,187.178 75.1406,188.656 74.9176,188.919 C74.2395,189.707 72.0172,189.105 70.2742,187.698 C68.1344,185.97 67.2155,183.655 66.963,179.106 C66.8007,176.182 66.5827,175.588 65.7322,176.794 C64.203,179.484 60.5418,178.168 60.0848,175.327 C59.8288,173.823 61.1533,172.737 61.5811,174.101 C62.7161,176.934 65.4938,176.253 65.042,173.439 C64.7439,171.583 62.8862,170.558 59.216,169.525 C54.8039,168.282 53.4921,166.772 52.6322,163.153 C52.2516,161.552 52.3118,160.714 53.1583,159.876 C53.5765,159.462 54.1092,159.041 54.1092,159.041 C54.1092,159.041 54.6981,161.476 54.9443,162.603 L54.9442,162.603 M170.356,160.307 C170.756,160.307 171.08,160.63 171.08,161.031 C171.08,161.431 170.756,161.755 170.356,161.755 C169.955,161.755 169.632,161.431 169.632,161.031 C169.632,160.63 169.955,160.307 170.356,160.307 M31.8723,160.995 C33.1859,161.47 34.315,162.175 35.6695,162.636 C36.5482,162.935 36.3081,163.638 35.3976,164.637 C34.3826,165.836 33.3851,166.425 31.9782,167.093 L31.993,165.067 C33.7032,164.47 34.7912,163.046 31.9185,162.589 L31.8723,160.995 M173.774,162.125 C174.272,162.13 174.976,162.148 175.803,162.318 C177.897,162.751 178.142,162.937 176.884,164.409 C176.418,164.954 175.724,165.776 175.345,166.238 C174.107,167.962 173.44,167.371 172.863,165.142 C172.148,162.815 171.985,161.923 173.774,162.125 M38.4366,162.956 C38.8372,162.956 39.1606,163.279 39.1606,163.68 C39.1607,164.08 38.8372,164.404 38.4366,164.404 C38.036,164.404 37.7126,164.08 37.7126,163.68 C37.7126,163.279 38.036,162.956 38.4366,162.956 M171.664,164.532 C171.864,165.267 172.167,166.203 172.398,166.867 C173.534,169.372 172.815,168.403 170.78,168.182 C169.411,168.034 167.233,168.262 166.694,167.884 C166.459,167.579 166.676,166.774 167.115,165.866 C167.733,164.588 168.856,163.499 169.694,163.005 C171.816,162.025 171.321,163.271 171.664,164.532 M49.3481,163.641 L72.1678,193.812 L70.3784,196.363 L46.9065,165.341 L49.3481,163.641 M192.36,163.754 C180.498,172.326 175.943,182.729 175.017,184.089 L192.408,177.38 L192.36,163.754 M169.712,164.737 C169.061,164.915 168.128,166.122 168.529,166.595 C168.769,166.842 169.726,166.874 170.185,166.706 C170.891,166.447 170.408,164.733 169.712,164.737 M69.7095,197.366 L64.8489,203.491 L39.5225,170.732 L45.9132,166.117 L69.7095,197.366 M191.095,165.526 L191.275,176.786 L176.4,182.987 C181.38,174.573 186.259,169.371 191.095,165.526 M89.3848,166.481 L95.3425,174.237 L88.0627,174.072 L89.3848,166.481 M164.718,167.116 C165.119,167.116 165.442,167.439 165.442,167.84 C165.442,168.24 165.119,168.564 164.718,168.564 C164.317,168.564 163.994,168.24 163.994,167.84 C163.994,167.439 164.317,167.116 164.718,167.116 M169.084,168.951 C171.809,168.988 172.718,169.135 171.926,170.475 C170.869,171.782 170.244,173.023 169.091,174.232 C168.425,174.91 167.593,173.513 166.898,171.277 C166.336,169.472 166.62,169.017 167.687,169.002 C168.754,168.987 168.936,168.948 169.084,168.951 M165.937,171.393 C166.16,172.106 166.681,173.279 167.095,173.995 C167.51,174.71 167.974,175.506 167.946,175.644 C167.876,175.98 167.558,176.006 166.84,175.736 C165.288,175.036 161.638,175.776 161.542,175.431 C161,174.659 161.813,172.552 163.345,171.094 C164.094,170.381 164.779,169.918 165.175,169.911 C165.571,169.904 165.643,170.452 165.937,171.393 M38.6483,170.839 L64.4185,204.305 L62.6351,206.476 L36.5756,172.363 C36.5756,172.363 32.4604,174.379 31.2502,175.051 L31.4135,192.361 L30.7088,192.327 L30.8142,279.999 L45.1942,265.661 L45.007,206.172 C48.0582,209.043 50.6691,212.104 54.1613,214.917 L60.1416,214.87 C75.7535,198.992 84.3042,185.402 86.1808,161.067 C87.4362,144.787 82.027,124.315 67.6812,104.475 L64.1779,106.602 L71.0996,117.033 L56.4377,123.531 C50.5984,135.842 43.6757,147.204 31.0138,153.711 L30.9429,169.645 L30.7217,169.974 L30.889,174.977 L38.6483,170.839 M164.645,171.981 C163.961,172.033 162.89,173.509 163.38,174.013 C163.958,174.287 164.849,174.268 165.222,173.774 C165.477,173.29 165.412,172.265 164.645,171.981 M87.7697,175.428 L95.3381,175.472 L93.3591,181.964 L85.9886,181.824 L87.7697,175.428 M159.663,175.399 C160.063,175.399 160.387,175.723 160.387,176.123 C160.387,176.524 160.063,176.847 159.663,176.847 C159.262,176.847 158.939,176.524 158.939,176.123 C158.939,175.723 159.262,175.399 159.663,175.399 M121.105,175.597 L122.084,184.028 C113.829,187.03 104.928,192.122 97.1438,201.484 C95.8137,201.397 85.1989,201.576 85.1989,201.576 C85.4644,201.614 95.0344,183.556 96.1363,175.718 L121.105,175.597 M91.1306,176.382 L87.6602,178.767 L90.3728,181.658 L93.964,179.225 L91.1306,176.382 M163.359,176.418 C164.097,176.414 165.087,176.504 165.88,176.644 C167.159,176.892 167.347,176.916 166.916,177.972 C166.34,179.373 165.043,181.899 164.715,182.1 C163.543,182.826 160.938,177.616 161.826,176.715 C162.061,176.531 162.559,176.422 163.359,176.418 M160.041,178.02 C160.376,177.991 160.823,178.642 160.956,179.204 C161.116,179.886 162.298,181.606 163.042,182.43 C163.978,183.467 163.929,183.612 162.588,183.719 C160.992,183.847 159.432,184.161 158.533,184.487 C157.139,184.994 156.949,184.882 157.128,183.252 C157.397,180.8 159.035,178.107 160.041,178.02 M158.817,183.093 C158.992,183.568 161.154,182.696 161.274,182.126 C161.253,181.87 160.405,180.391 159.895,180.324 C159.03,180.459 158.667,182.421 158.817,183.093 M85.7876,182.76 L92.941,182.828 L90.5951,188.721 L83.5238,188.702 L85.7876,182.76 M88.9899,183.55 L85.5629,185.717 L88.2321,188.3 L91.5143,186.036 L88.9899,183.55 M161.733,184.618 C162.34,184.613 162.983,184.671 163.118,184.894 C163.498,185.519 161.95,189.016 161.95,189.016 L159.429,190.016 C158.887,188.9 157.96,187.741 157.735,186.532 C157.646,186.004 157.913,185.811 158.496,185.483 C159.366,184.995 160.721,184.628 161.733,184.618 M154.979,184.904 C155.38,184.904 155.703,185.228 155.703,185.628 C155.703,186.029 155.38,186.352 154.979,186.352 C154.579,186.352 154.255,186.029 154.255,185.628 C154.255,185.228 154.579,184.904 154.979,184.904 M122.359,185.005 C122.359,185.005 123.905,193.738 123.988,192.776 C112.058,197.269 105.081,203.899 101.774,210.366 L79.3921,210.35 L84.3878,202.598 L97.6383,202.531 C104.043,194.76 111.944,188.561 122.359,185.005 M119.493,187.061 L118.388,190.589 L121.733,192.723 L122.993,188.934 L119.493,187.061 M156.158,187.129 C156.441,187.103 156.722,187.581 157.297,188.601 C157.722,189.356 158.281,190.452 158.281,190.452 L157.28,190.824 C156.473,188.066 155.733,189.092 155.646,191.526 L154.275,192.073 C154.275,192.073 154.424,189.726 155.207,188.355 C155.657,187.567 155.907,187.152 156.158,187.129 L156.158,187.129 M83.2004,189.542 L90.1366,189.629 L87.2357,195.638 L80.1837,195.445 L83.2004,189.542 M113.455,190.024 L112.905,194.484 L116.641,195.276 L117.152,191.038 L113.455,190.024 M86.1496,190.078 L82.7226,192.293 L84.9719,195.252 L88.2686,193.036 L86.1496,190.078 M108.097,193.982 L107.388,198.09 L110.892,198.887 L111.688,194.755 L108.097,193.982 M31.9396,194.224 L40.7096,202.917 L41.1926,263.566 L32.4713,272.312 L31.9396,194.224 M79.6556,196.444 C79.6243,196.493 86.6518,196.645 86.6518,196.645 L83.8391,201.721 L81.4369,201.614 L84.5984,199.456 L82.5712,196.864 L79.3227,198.983 L81.1328,201.604 L76.3878,201.503 L79.6556,196.444 M124.897,197.946 L127.278,205.815 L124.415,206.312 L122.264,198.908 C123.142,198.454 124.019,198.23 124.897,197.946 M102.397,198.438 L102.445,203.158 L106.268,203.482 L106.417,199.055 L102.397,198.438 M121.4,199.191 L123.579,206.667 L121.762,207.185 L119.159,200.088 C119.871,199.666 120.615,199.358 121.4,199.191 M118.083,200.734 L120.883,208.054 C117.015,209.622 113.005,212.979 109.986,216.33 C107.748,214.685 106.431,214.513 105.05,214.141 C108.858,207.047 113.354,203.323 118.083,200.734 M75.8263,202.569 L83.1824,202.791 L78.0659,210.432 L69.7445,210.423 L75.8263,202.569 M97.7243,202.854 L97.2465,207.324 L101.185,209.65 L101.784,205.06 L97.7243,202.854 M92.9796,203.482 L90.1801,206.44 L93.1534,209.834 L95.8805,206.291 L92.9796,203.482 M86.7192,203.636 L83.3935,206.687 L86.0386,210.138 L89.0795,206.667 L86.7192,203.636 M44.3473,206.482 L44.6731,265.731 L32.4536,277.574 L32.3624,274.387 L42.0766,264.243 C42.0876,244.201 42.024,224.16 41.9568,204.119 L44.3473,206.482 M76.858,204.568 L73.484,209.168 L77.4855,209.177 L80.3864,204.722 L76.858,204.568 M56.0496,233.239 C54.7191,238.026 48.5854,243.219 48.4757,243.131 C51.5125,247.483 51.4101,253.688 48.7321,256.746 C48.7446,256.677 53.614,260.719 54.2974,262.818 C54.6828,263.654 54.8374,264.672 55.3255,265.501 C55.4547,265.721 55.8665,266.267 55.8665,266.267 C67.7605,254.206 62.0965,240.072 56.0495,233.239 L56.0496,233.239 M56.2279,234.49 C67.7766,248.818 60.1629,261.933 56.1336,265.591 L55.364,264.32 C63.9457,254.347 60.3087,242.095 55.3084,236.294 L56.2279,234.49 M54.978,237.279 C55.0551,237.512 55.5046,238.187 55.1711,238.143 L54.5919,238.027 L54.978,237.279 M54.8911,238.877 C55.142,238.877 55.3518,238.955 55.4655,239.128 C55.7008,239.519 54.5073,242.813 53.7699,242.045 C53.5476,241.611 53.2859,241.233 53.0812,240.783 C52.8409,240.245 52.9988,239.986 53.5493,239.451 C53.9288,239.083 54.473,238.877 54.8912,238.877 L54.8911,238.877 M56.5515,239.77 C57.1355,239.815 57.9659,241.652 58.043,242.965 C58.079,243.101 56.0716,242.656 55.5379,242.043 C55.6025,241.505 56.106,240.138 56.5515,239.77 M52.0341,241.269 C55.5113,248.26 55.2935,253.721 52.232,258.742 L49.8336,256.69 C51.4465,252.873 52.2446,248.797 49.5291,243.609 L52.0341,241.269 M54.3795,243.018 C54.6202,242.997 55.3629,243.107 56.0206,243.317 C58.3477,244.061 58.4346,245.584 56.1944,246.701 C55.2664,247.164 54.9771,246.959 54.4422,244.63 C54.1777,243.479 53.9782,243.053 54.3795,243.018 M58.8733,245.697 C59.3219,245.695 59.5282,246.543 59.5828,248.004 C59.6346,249.392 59.3397,249.501 58.2216,248.511 C57.013,247.44 56.805,247.186 57.9127,246.305 C58.2371,246.047 58.6693,245.698 58.8733,245.697 M55.702,247.99 C55.923,247.971 56.5657,248.38 57.1935,248.859 C58.7845,250.071 58.4316,250.903 56.624,251.489 C55.3716,251.895 55.4336,251.947 55.4655,249.781 C55.4814,248.709 55.4179,248.014 55.702,247.99 M76.7664,249.962 C74.8243,250.455 74.0087,252.187 74.6531,253.747 C74.9459,254.455 75.3911,254.461 74.869,254.894 C74.2859,255.567 73.9761,257.125 74.6176,257.692 C75.3745,258.126 75.569,257.378 74.7719,258.842 L60.1421,285.715 L147.957,285.552 L137.403,265.785 C137.427,265.756 138.247,262.523 136.558,262.133 C136.016,262.008 135.706,261.505 135.596,261.022 C135.733,259.647 135.109,259.062 134.583,258.352 C126.235,259.531 118.984,258.943 112.994,257.596 C104.366,255.655 98.1987,252.295 94.1888,251.24 C88.659,249.784 81.9852,249.152 76.7664,249.962 M81.4966,250.147 C88.3008,250.107 95.9173,252.189 101.248,254.496 C106.778,256.781 112.638,258.483 118.557,259.357 C123.443,259.971 128.315,259.663 132.988,259.292 C133.498,259.215 134.028,259.285 134.408,259.69 C135.376,260.766 134.717,261.44 132.294,261.664 C128.404,261.985 123.58,261.848 119.3,261.206 C112.524,260.427 105.341,258.378 99.1435,255.809 C91.3981,252.903 84.2845,251.93 78.6632,252.788 C75.5763,253.258 75.1226,253.332 75.1348,252.503 C75.1586,250.885 76.4972,250.146 81.4966,250.147 L81.4966,250.147 M59.2013,254.838 C58.9026,255.524 56.7863,253.28 56.8077,252.647 C56.8525,252.368 58.5656,251.251 59.2454,250.796 C59.5741,250.544 59.5527,250.675 59.557,250.971 C59.5689,251.817 59.5015,254 59.2013,254.838 M55.9434,253.183 C56.9199,253.315 58.5255,255.951 57.1115,256.359 C55.8595,256.721 54.7207,256.954 54.5681,256.114 C55.2129,254.052 55.4552,253.235 55.8275,253.188 C55.8654,253.183 55.9057,253.183 55.9434,253.184 L55.9434,253.183 M112.729,262.187 C118.963,263.264 127.144,263.91 132.492,263.492 C135.558,263.183 136.203,263.282 136.184,264.56 C136.173,265.361 136.26,265.341 132.304,265.337 C129.016,265.557 126.055,265.204 122.872,265.039 C116.286,264.712 110.302,263.584 104.772,261.664 C98.6366,260.073 93.3212,257.015 87.3177,256.384 C81.8118,255.844 76.8594,256.818 75.8207,257.395 C75.4742,257.391 75.2929,256.877 75.3134,256.403 C75.3335,255.939 75.5063,255.568 75.8931,255.272 C91.6742,251.291 100.123,259.818 112.729,262.187 M58.0044,256.915 C58.5303,256.92 58.3631,257.698 57.5024,259.347 C56.7707,260.749 56.4826,260.742 56.0689,259.304 C55.6269,257.768 55.6695,257.598 56.5468,257.373 C57.0632,257.249 57.4998,256.979 58.0044,256.915 M54.3216,257.697 C54.9381,257.706 55.8132,260.497 55.3642,261.022 C55.0093,261.437 53.7257,261.156 53.3517,260.665 C52.7498,259.877 53.5197,257.685 54.3216,257.697 M81.9103,258.451 C84.3582,258.426 86.798,258.688 89.0407,259.074 C87.7494,259.551 86.4641,259.991 85.1232,260.766 C84.1972,259.97 83.145,259.195 81.9103,258.451 M85.0912,261.839 C93.7422,257.015 97.3945,263.674 98.6446,264.748 C106.208,263.074 107.689,263.899 111.908,268.457 C119.481,264.755 123.153,267.902 126.314,269.894 C130.022,266.428 134.724,266.333 137.175,268.072 C137.634,268.839 138.27,269.811 138.322,270.102 C138.363,270.328 138.017,270.065 137.164,269.455 C132.717,266.272 125.336,270.235 127.308,274.431 C127.839,275.561 127.754,276.048 126.96,276.502 C125.832,277.265 124.447,275.999 125.232,274.706 C126.544,272.548 125.557,270.742 122.365,269.073 C117.867,266.722 110.519,269.356 112.031,272.824 C112.999,273.931 112.101,274.712 110.824,274.672 C109.379,274.628 108.888,273.66 109.816,272.626 C110.972,271.305 110.669,269.967 109.321,268.442 C105.282,262.689 97.11,264.97 98.1923,270.011 C98.6668,271.263 97.3164,271.768 95.9143,271.212 C95.022,270.857 95.1555,269.478 96.1315,268.991 C97.255,268.878 97.4144,267.251 97.2803,266.206 C97.0852,264.687 94.8436,263.189 92.6269,262.395 C91.0224,261.82 89.532,261.697 88.3555,261.804 C85.8721,262.031 84.4857,263.718 84.8947,266.245 C85.1359,267.736 84.7188,269.281 82.9688,268.462 C82.0111,268.013 82.2516,266.93 83.2294,265.931 C86.6678,262.573 79.7443,258.487 75.5644,261.302 C74.8559,261.885 74.3388,261.986 74.3388,261.986 C76.9601,255.461 85.1675,261.572 85.0912,261.839 M96.4846,260.96 L101.708,262.927 C100.504,263.165 99.6551,263.504 98.8017,263.843 L96.4846,260.96 M82.8419,263.082 C78.0211,262.168 77.7588,267.555 80.9004,268.434 C76.5786,274.371 87.8962,276.676 85.8199,269.349 C91.5547,270.382 90.5173,263.857 86.2528,263.916 C87.2502,261.485 95.1224,263.328 94.7831,265.134 C89.461,265.698 91.5879,270.547 93.8904,270.552 C88.325,275.821 99.4617,280.678 99.1659,272.736 C103.634,273.675 104.16,267.744 99.8647,267.354 C101.438,265.141 107.055,266.536 108.613,269.067 C104.179,269.655 104.456,273.549 107.926,274.178 C103.529,279.777 114.351,281.847 113.227,275.338 C117.104,276.671 119.233,271.497 114.209,270.018 C119.355,266.952 124.944,271.522 124.339,271.615 C118.465,271.268 119.634,277.153 123.885,276.834 C121.181,282.945 131.896,283.285 129.179,276.947 C133.998,277.036 133.576,271.451 128.958,271.078 C131.866,268.958 135.144,268.772 137.254,270.755 C132.859,271.911 134.685,277.019 139.106,275.605 C139.515,279.879 142.99,278.972 143.068,278.843 L146.177,284.645 L61.919,284.78 L69.1103,271.507 C73.361,271.725 73.2092,267.634 73.0227,267.533 C75.8492,269.551 78.8891,264.535 74.7535,263.098 C78.1317,259.562 83.1415,262.828 82.8419,263.082 M55.4124,262.712 C55.2365,262.892 55.191,262.999 54.9008,262.731 C54.1663,261.89 56.1642,261.82 55.4124,262.712 M72.8352,264.935 C73.2064,265.239 72.9511,266.071 72.6497,266.355 C71.8904,267.168 71.6341,267.104 72.3026,265.7 C72.4996,265.275 72.6865,264.93 72.8352,264.935 M109.75,265.311 L114.131,266.37 L112.05,267.543 C111.282,266.709 110.542,265.988 109.75,265.311 M123.442,267.075 L128.206,267.379 C127.576,267.807 126.959,268.206 126.188,268.987 C125.588,268.349 124.452,267.712 123.442,267.075 M139.314,271.934 C139.579,272.486 140.631,274.408 140.532,274.458 C138.991,274.727 138.578,272.434 139.314,271.934 Z" style="stroke:none;fill-rule:nonzero;fill:#100f08;fill-opacity:1;"/>
        </g>
    </g>
</svg>
