<?xml version="1.0"?>
<svg version="1.1" xmlns="http://www.w3.org/2000/svg" xmlns:xlink="http://www.w3.org/1999/xlink" width="223" height="312">
    <desc iVinci="yes" version="4.5" gridStep="20" showGrid="no" snapToGrid="no" codePlatform="0"/>
    <g id="Layer1" opacity="1">
        <g id="Shape1">
            <desc shapeID="1" type="0" basicInfo-basicType="0" basicInfo-roundedRectRadius="12" basicInfo-polygonSides="6" basicInfo-starPoints="5" bounding="rect(-111.614,-155.906,223.228,311.811)" text="" font-familyName="" font-pixelSize="20" font-bold="0" font-underline="0" font-alignment="1" strokeStyle="0" markerStart="0" markerEnd="0" shadowEnabled="0" shadowOffsetX="0" shadowOffsetY="2" shadowBlur="4" shadowOpacity="160" blurEnabled="0" blurRadius="4" transform="matrix(1,0,0,1,111.614,155.906)" pers-center="0,0" pers-size="0,0" pers-start="0,0" pers-end="0,0" locked="0" mesh="" flag=""/>
            <path id="shapePath1" d="M3.05176e-05,9.35434 C3.05176e-05,4.18808 4.49747,0 10.0453,0 L213.183,0 C218.731,0 223.228,4.18808 223.228,9.35434 L223.228,302.457 C223.228,307.623 218.731,311.811 213.183,311.811 L10.0453,311.811 C4.49747,311.811 3.05176e-05,307.623 3.05176e-05,302.457 L3.05176e-05,9.35434 Z" style="stroke:#000000;stroke-opacity:1;stroke-width:0.996733;stroke-linejoin:miter;stroke-miterlimit:2;stroke-linecap:butt;fill-rule:evenodd;fill:#ffffff;fill-opacity:1;"/>
        </g>
        <g id="Shape2">
            <desc shapeID="2" type="0" basicInfo-basicType="0" basicInfo-roundedRectRadius="12" basicInfo-polygonSides="6" basicInfo-starPoints="5" bounding="rect(-79.3988,-129.42,158.798,258.839)" text="" font-familyName="" font-pixelSize="20" font-bold="0" font-underline="0" font-alignment="1" strokeStyle="0" markerStart="0" markerEnd="0" shadowEnabled="0" shadowOffsetX="0" shadowOffsetY="2" shadowBlur="4" shadowOpacity="160" blurEnabled="0" blurRadius="4" transform="matrix(1,0,0,1,111.281,155.71)" pers-center="0,0" pers-size="0,0" pers-start="0,0" pers-end="0,0" locked="0" mesh="" flag=""/>
            <path id="shapePath2" d="M140.26,26.4212 C140.26,26.4212 165.554,62.9812 174.132,69.47 C174.763,69.7659 185.339,67.7458 185.339,67.7458 C179.918,54.7688 176.431,41.3429 179.949,26.2908 L140.26,26.4212 M154.315,84.2421 C136.877,89.1637 119.473,93.7921 100.569,85.7695 L79.9244,105.715 C79.7529,106.229 106.677,117.827 107.1,116.558 L100.473,137.712 L115.752,141.075 L122.765,118.573 C122.765,118.573 143.859,116.549 153.648,113.19 C161.092,110.636 168.79,108.784 175.436,103.236 C161.708,94.9848 154.301,84.1439 154.315,84.2421 M49.4334,90.14 C42.8244,86.0844 37.6587,94.4312 42.4979,98.5992 C41.9291,101.034 41.7361,104.658 44.0918,106.25 C46.2564,107.618 50.2937,106.199 50.8765,106.214 C50.918,106.215 50.9812,110.596 50.6447,110.585 C50.0187,110.564 47.6554,108.551 46.1976,108.114 C41.2718,106.637 34.3433,105.909 34.4658,106.163 C34.6713,106.589 33.2388,107.599 38.7354,111.051 C40.7772,112.333 47.2279,110.889 52.3654,112.509 C55.4955,113.497 58.5725,115.138 60.272,114.32 C62.4205,113.423 64.9261,110.588 65.7346,108.278 C65.9624,105.756 52.8448,111.213 53.6422,111.302 L53.6011,106.218 C58.8871,106.8 63.6581,102.969 58.463,96.4014 C62.3319,92.5558 56.9201,83.3907 49.4334,90.14 M71.4557,113.39 C58.4553,126.495 31.8818,151.09 31.8818,151.09 L32.1662,169.445 L58.1269,192.676 C60.1835,168.015 74.1978,144.999 87.5416,133.486 C88.7672,129.984 74.2817,114.619 71.4557,113.39 M164.081,117.924 C162.122,133.087 160.342,153.766 134.617,176.752 C139.075,184.343 144.749,192.07 152.914,195.758 C153.494,197.062 176.516,171.935 190.679,160.055 L190.604,143.963 L164.081,117.924 M48.1393,121.179 C48.0858,121.509 47.1357,125.492 46.8908,125.387 C46.91,125.604 49.5252,124.415 49.8208,123.323 C50.0801,122.366 50.6797,121.068 50.7189,120.885 C50.1293,116.785 49.0144,119.697 48.1393,121.179 M38.509,131.78 C37.5744,134.037 36.7,138.182 37.0226,140.88 C41.6281,143.185 42.8799,133.596 41.6411,132.679 C40.8994,132.366 39.1407,131.758 38.509,131.78 M180.746,175.748 C180.318,177.661 180.409,178.228 181.26,178.601 C182.75,179.255 183.421,178.466 184.618,175.351 C185.33,173.497 185.965,170.708 185.391,169.599 C182.566,167.628 181.073,174.304 180.746,175.748 M111.092,171.255 C110.188,171.263 109.318,171.337 108.513,171.521 C100.911,173.26 101.486,186.544 100.196,191.84 C76.3152,195.248 69.9986,196.87 63.4549,199.559 C53.2808,203.738 50.0587,206.289 47.3665,208.393 C49.0581,208.194 67.3143,225.217 68.2558,227.62 C67.0944,224.326 103.574,216.306 123.003,224.36 C125.386,225.214 143.538,206.744 142.965,204.683 C145.321,200.558 120.085,195.924 116.903,193.347 C114.291,179.293 134.532,171.595 120.515,172.004 C117.964,172.078 114.32,171.229 111.092,171.255 M174.605,187.044 C174.156,187.575 173.703,187.857 173.118,188.479 L171.785,190.237 L172.756,191.807 L175.243,189.063 L174.605,187.044 M156.799,204.719 C159.419,203.537 168.719,199.028 169.119,200.071 L168.922,204.584 C167.499,204.118 158.316,205.636 163.627,215.115 C160.282,222.645 167.735,226.529 172.956,221.55 C183.899,225.304 182.434,214.355 180.176,212.586 C181.956,209.822 179.719,203.937 178.606,203.917 C178.606,203.917 188.155,206.069 187.221,204.369 C186.795,203.593 186.262,202.255 184.14,200.839 C181.694,199.206 177.397,199.798 173.92,199.071 C170.202,198.293 167.808,196.963 164.684,196.776 C159.968,197.206 155.566,201.345 156.799,204.719 M50.3852,240.255 L37.2285,243.772 C37.2285,243.772 41.4843,253.648 42.9568,262.454 C44.7579,273.225 43.319,284.937 43.319,284.937 L81.5042,285.13 L50.3852,240.255 Z" style="stroke:none;fill-rule:nonzero;fill:#e2cf00;fill-opacity:1;"/>
        </g>
        <g id="Shape3">
            <desc shapeID="3" type="0" basicInfo-basicType="0" basicInfo-roundedRectRadius="12" basicInfo-polygonSides="6" basicInfo-starPoints="5" bounding="rect(-106.299,-145.613,212.598,291.227)" text="" font-familyName="" font-pixelSize="20" font-bold="0" font-underline="0" font-alignment="1" strokeStyle="0" markerStart="0" markerEnd="0" shadowEnabled="0" shadowOffsetX="0" shadowOffsetY="2" shadowBlur="4" shadowOpacity="160" blurEnabled="0" blurRadius="4" transform="matrix(1,0,0,1,111.614,155.906)" pers-center="0,0" pers-size="0,0" pers-start="0,0" pers-end="0,0" locked="0" mesh="" flag=""/>
            <path id="shapePath3" d="M205.713,301.217 C200.686,299.471 200.583,296.308 200.411,292.276 C200.113,286.16 200.167,279.724 201.044,274.742 C201.38,273.227 201.561,272.452 200.049,271.917 C199.214,271.629 198.38,271.745 197.546,271.617 L197.546,267.847 C199.13,267.762 200.601,267.766 201.939,268.557 C202.542,268.924 203.213,269.33 203.213,269.33 C205.182,267.468 210.356,267.19 212.814,269.491 C214.445,271.134 214.971,272.509 215.077,276.211 C215.155,278.941 215.077,279.127 215.077,279.127 L217.913,279.111 L217.913,282.779 L215.077,282.779 C215.077,282.779 215.14,284.602 215.077,288.554 C215.028,291.63 214.969,293.641 214.754,295.104 C213.788,300.209 209.242,302.368 205.713,301.217 M211.154,294.901 C212.142,292.268 211.729,282.092 211.729,282.092 C207.495,280.464 205.7,277.915 203.976,276.102 C203.976,276.102 203.257,287.398 204.115,293.482 C204.896,298.528 209.45,299.28 211.154,294.901 M211.178,277.788 C211.408,277.822 211.672,277.837 211.707,277.739 C212.031,276.825 211.468,272.999 210.511,272.232 C207.936,270.165 205.582,272.232 205.658,272.325 C206.873,273.976 208.3,275.79 210.14,277.221 C210.488,277.513 210.784,277.729 211.178,277.788 M84.6726,284.996 C67.9182,261.083 52.3938,238.336 31.7823,213.265 C31.7823,213.265 31.7994,203.576 31.8717,193.965 L95.1922,284.76 L84.6726,284.996 M143.327,253.752 C151.628,244.743 157.915,235.142 163.497,225.334 C169.858,236.631 177.221,245.834 185.351,253.432 C177.38,261.49 170.149,270.709 164.424,282.296 C159.77,273.442 153.735,264.204 143.327,253.752 M198.421,250.855 C201.962,247.145 205.01,242.99 207.874,238.603 C211.056,243.116 212.975,246.492 217.25,251.252 C213.579,255.142 210.491,259.049 207.976,263.301 C204.947,258.475 201.79,253.985 198.421,250.855 M118.591,246.386 C118.052,241.844 117.127,236.409 115.796,231.731 L127.358,220.83 C126.11,230.571 124.195,238.044 118.591,246.386 M173.846,212.028 C176.434,215.465 172.067,217.373 170.419,215.843 C167.076,212.742 171.972,209.539 173.846,212.028 M59.2113,190.386 C57.2929,191.615 62.6588,160.418 77.3881,144.295 C86.3471,169.957 70.54,184.345 59.2113,190.386 M131.878,190.271 L122.095,187.63 L126.966,173.949 C126.966,173.949 136.151,176.101 135.367,178.942 C132.817,188.19 131.878,190.271 131.878,190.271 M86.5919,185.012 C89.2407,180.657 91.2518,175.855 93.1033,170.942 L107.013,169.015 L98.9509,184.65 L86.5919,185.012 M145.55,165.813 C137.979,150.739 146.898,126.878 163.372,120.311 C162.778,135.598 158.035,151.083 145.55,165.813 M94.6642,161.53 C94.9975,156.176 94.384,150.565 93.6434,145.592 L128.077,150.182 L129.28,164.614 L94.6642,161.53 M119.862,138.6 C121.029,134.01 122.066,130.189 124.319,126.468 C126.826,126.548 136.995,124.876 135.698,126.851 C132.934,130.387 131.611,136.128 129.801,139.739 C127.901,139.537 119.293,141.02 119.862,138.6 M97.0543,135.97 C93.5719,134.742 88.8103,134.398 86.9586,131.705 L90.581,120.227 L101.309,123.518 L97.0543,135.97 M127.162,26.4478 L135.57,26.3676 C135.57,26.3676 175.968,78.0583 191.109,98.1737 C190.605,100.221 191.279,117.573 191.279,117.573 C169.832,87.3914 127.162,26.4478 127.162,26.4478 M49.6922,98.571 C47.4333,96.1459 51.0259,93.9972 52.5196,96.1641 C53.8351,98.0726 50.8835,99.8499 49.6922,98.571 M95.0214,90.0959 C95.1518,78.1173 103.646,63.9013 103.558,64.2646 C103.46,64.2412 104.769,75.9748 106.401,79.667 C105.961,80.3176 95.4231,90.8466 95.0214,90.0959 M58.8379,86.1208 C52.2522,73.5308 44.3383,63.9901 37.446,57.3074 C46.0301,49.1882 52.4662,39.1598 59.0698,29.2802 C64.5213,39.6433 71.6082,49.1143 79.5563,58.1156 C71.5837,65.9449 64.0504,77.0369 58.8379,86.1208 M5.86285,60.5628 C9.72025,56.7151 15.42,47.9632 15.3644,47.952 C18.0766,52.3823 20.9357,56.9679 24.8722,60.629 C24.8305,60.5896 18.7712,67.1021 15.642,73.2253 C12.8502,68.1227 9.16425,63.6806 5.86285,60.5628 M5.31497,32.7157 L5.31497,29.0061 L8.08957,29.0061 C8.08957,29.0061 8.05798,29.3079 8.07996,24.2499 C8.11066,17.1744 8.46423,15.0012 9.8786,13.1944 C13.6888,8.32727 20.6792,9.82001 22.5154,15.8929 C22.655,16.3546 22.9703,17.5246 23.002,19.0734 C23.0842,23.0993 23.0908,29.7805 22.9581,33.9534 C23.0248,35.5883 22.4416,37.7209 22.0217,38.0856 C22.224,39.5715 24.5623,39.8705 26.0279,39.7551 L26.0279,43.6363 C26.0352,43.6147 24.5406,43.7783 22.7792,43.6363 C22.0373,43.5765 20.3237,42.1639 20.3237,42.1639 C20.3237,42.1639 17.6145,44.0267 15.1793,43.9764 C7.2117,43.8116 8.09634,33.8674 8.11972,32.7307 L5.31497,32.7157 M11.6973,33.6943 C11.6973,33.6943 11.7036,35.0912 11.7887,36.0253 C12.0696,39.1081 14.0812,40.706 16.0867,40.1573 C17.0875,39.8463 17.6747,39.2433 17.6747,39.2433 C15.969,36.7116 13.9408,34.5846 11.6973,33.6943 M19.1009,18.2624 C18.2494,13.6125 13.8702,12.8997 12.22,16.8343 C11.9226,17.5433 11.6744,23.1481 11.6744,23.1481 L11.7086,29.7691 C15.2616,30.5498 17.222,32.8294 19.4413,35.4158 C19.4413,35.4158 19.8866,23.516 19.1009,18.2624 Z" style="stroke:none;fill-rule:nonzero;fill:#d40000;fill-opacity:1;"/>
        </g>
        <g id="Shape4">
            <desc shapeID="4" type="0" basicInfo-basicType="0" basicInfo-roundedRectRadius="12" basicInfo-polygonSides="6" basicInfo-starPoints="5" bounding="rect(-81.5338,-131.055,163.068,262.11)" text="" font-familyName="" font-pixelSize="20" font-bold="0" font-underline="0" font-alignment="1" strokeStyle="0" markerStart="0" markerEnd="0" shadowEnabled="0" shadowOffsetX="0" shadowOffsetY="2" shadowBlur="4" shadowOpacity="160" blurEnabled="0" blurRadius="4" transform="matrix(1,0,0,1,111.428,155.309)" pers-center="0,0" pers-size="0,0" pers-start="0,0" pers-end="0,0" locked="0" mesh="" flag=""/>
            <path id="shapePath4" d="M30.2105,24.254 L29.8943,286.334 L192.962,286.365 L192.907,24.6784 L30.2105,24.254 M179.232,26.3052 C177.908,40.8064 177.676,52.1703 185.2,67.2096 C183.841,68.6349 173.602,69.039 170.376,70.7266 C170.317,71.1317 171.204,71.8326 171.204,71.8326 C174.58,70.2662 187.742,68.8373 187.742,68.8373 C182.23,59.2293 177.695,40.749 181.109,26.576 L190.609,26.6062 L190.549,96.4352 C190.549,96.4352 191.296,109.914 191.578,117.508 C186.519,110.971 179.812,101.841 175.431,95.0637 C170.117,87.5879 164.201,78.8181 158.126,70.5905 C156.335,67.9984 153.781,64.6353 151.697,61.6069 C148.426,56.9302 145.72,53.3012 142.327,48.2668 C138.704,43.054 135.231,38.323 130.924,32.2701 C127.273,27.1184 127.103,26.508 127.103,26.508 L179.232,26.3052 M116.84,26.576 C122.998,37.2782 134.022,40.9025 136.795,41.6241 L138.408,43.9801 C125.411,41.4331 118.451,33.0896 115.183,27.9302 C114.929,27.5288 114.957,26.6062 114.957,26.6062 L116.84,26.576 M110.744,26.576 C109.041,30.6171 106.657,32.9393 104.397,35.3866 L104.475,32.7875 C104.545,32.9504 107.858,29.274 108.999,26.576 L110.744,26.576 M113.726,26.576 C113.726,26.576 113.776,27.2664 113.57,27.8338 C112.265,32.0475 104.162,40.0455 104.395,38.847 L104.313,36.7838 C104.277,36.8725 110.4,30.9544 112.003,26.576 L113.726,26.576 M107.834,26.576 C107.202,27.7522 104.846,31.305 104.633,30.3207 L104.843,26.576 L107.834,26.576 M126.346,26.576 C127.367,28.0539 128.294,29.1346 129.368,30.6461 C129.568,30.9342 129.689,31.2747 129.638,31.4044 C129.475,31.8241 128.99,31.5124 127.649,30.3236 C125.449,28.3737 123.952,26.576 123.952,26.576 L126.346,26.576 M118.151,26.576 L120.141,26.5808 C124.263,33.426 131.658,37.0681 134.217,37.8647 C134.9,38.6172 135.636,39.9938 135.922,40.2982 C129.02,38.4289 121.288,32.5933 118.151,26.576 M122.991,26.547 C125.186,29.7145 128.625,31.9352 130.563,33.451 C131.605,34.2677 132.98,35.9355 132.852,36.2666 C128.537,34.9029 123.491,30.1199 121.174,26.576 L122.991,26.547 M114.531,28.507 L115.73,30.4161 C112.825,35.2073 109.181,39.5236 104.321,42.9257 L104.294,40.4236 C109.809,36.4521 112.192,32.4611 114.531,28.507 M116.476,31.2739 C119.941,35.9407 127.407,43.1634 139.38,45.3217 C139.38,45.3217 140.06,45.9359 141.052,47.2863 C142.31,48.9994 142.33,49.0671 142.496,51.8747 C142.608,57.013 144.277,63.9864 145.935,68.3736 C145.73,69.4644 145.538,70.02 143.482,72.7978 C134.911,84.3734 116.653,95.322 107.658,80.3786 C104.658,75.5911 104.366,66.4126 104.176,60.6892 C104.176,60.6892 104.232,60.2866 104.255,60.1777 C104.472,59.1388 104.769,59.3024 106.392,59.7474 C108.039,60.454 109.753,59.8833 111.495,59.4093 C113.478,58.6082 113.643,59.2259 111.73,61.0112 C111.069,61.6286 110.259,62.5724 110.344,62.527 C110.429,62.4816 111.542,62.0272 112.034,61.6528 C113.563,60.4891 113.924,60.9349 113.357,62.2155 C110.954,67.648 110.528,67.8644 113.908,69.3734 C114.613,69.688 115.094,70.0393 115.489,70.3844 C117.8,72.5595 116.97,71.3878 116.324,70.389 C115.33,68.8259 116.229,67.9998 117.907,68.9677 C119.029,69.6145 120.502,70.1364 121.304,69.8889 C122.859,69.3826 123.334,67.6789 122.872,65.8041 C122.503,64.7673 120.378,62.9358 120.868,64.8526 C122.145,64.7951 123.248,66.6065 122.138,67.8327 C121.301,68.9622 119.807,68.3523 117.516,66.8377 C116.25,65.8863 114.713,66.3727 114.773,67.5429 C114.813,68.3286 113.7,68.148 112.977,67.1469 C112.576,66.5909 112.848,64.9904 113.602,63.474 C118.352,53.9255 114.347,44.6665 106.122,47.2766 C105.218,47.5636 104.402,47.7965 104.402,47.7965 L104.358,44.1436 C109.08,40.8528 114.09,35.6049 116.476,31.2739 M121.278,48.4165 C120.038,49.9135 120.478,51.246 123.201,49.9041 C125.418,48.8114 125.725,48.6825 128.142,48.5952 C131.571,48.4712 134.649,49.5621 138.458,51.8988 C140.983,53.4476 141.351,53.5647 140.666,52.5943 C138.626,48.6918 126.573,42.7669 121.278,48.4165 M109.632,48.8633 C112.012,49.4629 114.296,51.035 113.898,51.6863 C113.755,51.9206 113.617,51.9652 113.314,51.8071 C111.573,50.9469 108.797,49.5404 104.784,51.2564 C104.342,51.4456 104.096,51.1522 104.099,50.6189 C104.103,49.5836 105.845,48.7568 107.686,48.69 C108.342,48.6892 109.056,48.7229 109.632,48.8633 M123.459,51.8905 C122.04,52.6278 121.553,53.0204 120.95,52.6909 C119.51,51.9038 119.814,52.5214 120.709,54.1061 C121.34,55.2243 121.333,55.4542 121.24,56.1395 C121.138,56.8842 121.153,56.913 121.877,57.7092 C123.232,59.4886 124.579,61.2052 126.606,62.5551 C127.238,62.976 128.083,63.4548 128.147,63.4568 C128.348,63.463 128.271,63.302 127.91,62.9496 C125.313,60.4521 123.266,58.2137 125.91,59.1645 C128.988,60.1683 131.917,58.9176 134.317,58.1013 C135.296,57.7994 136.325,57.5448 136.58,57.545 C138.797,57.5473 139.321,56.6242 137.903,55.217 C133.106,49.838 129.126,48.5719 123.459,51.8905 M134.841,52.8986 C135.833,53.8145 136.355,54.3119 136.256,54.5504 C136.15,54.8064 135.386,54.3729 134.107,53.6907 C131.533,52.3185 128.615,51.9956 124.969,53.0483 C122.138,53.8657 122.973,52.5683 126.128,51.3482 C128.653,50.1836 132.138,50.5315 134.841,52.8986 M108.408,51.0458 C110.57,51.0112 112.822,51.721 114.328,53.0194 C115.379,53.9252 114.611,54.136 112.903,53.4299 C110.321,52.3618 108.145,52.1916 106.026,53.1836 C105.361,53.495 104.593,53.8655 104.383,53.8453 C104.029,53.6056 103.879,52.9088 104.185,52.4156 C105.037,51.5797 106.726,51.0728 108.408,51.0458 M144.047,51.7878 C144.205,51.7946 144.445,52.0469 144.8,52.546 C145.447,53.454 145.471,53.9025 144.935,55.4923 C144.281,57.4334 144.018,57.1185 143.853,54.4104 C143.747,52.6533 143.744,51.7747 144.047,51.7878 M146.191,54.7147 C146.438,54.6797 146.726,55.1147 147.186,56.0139 C147.508,56.6414 147.431,56.8292 146.428,59.7668 C146.008,60.9962 145.613,61.9752 145.602,61.9837 C145.293,62.2269 145.333,62.2055 145.201,62.0368 C144.485,61.1225 144.537,59.3392 145.153,57.2021 C145.62,55.5823 145.874,54.7596 146.191,54.7147 M126.707,54.9368 C126.785,54.9301 127.265,55.0346 127.265,55.0346 C127.215,59.3857 130.58,58.5104 131.025,55.4198 C131.025,55.4198 131.855,55.3343 131.982,55.5404 C132.381,56.1875 131.455,58.0488 130.07,58.6579 C129.059,59.109 127.686,58.9991 126.865,58.2437 C126.635,57.818 125.94,56.2014 126.07,55.5309 C126.231,55.1394 126.474,54.957 126.707,54.9368 M124.702,55.4452 C124.737,55.4435 124.769,55.4434 124.804,55.4452 C125.134,55.462 125.374,55.5512 125.505,55.9511 L126.225,58.1614 C125.695,58.7955 123.679,57.5107 123.683,56.5464 C123.686,55.8805 124.187,55.4706 124.702,55.4452 M111.021,55.4407 C111.529,55.3914 111.709,55.4481 111.768,55.9225 C111.94,57.3588 110.503,58.9196 108.64,59.0044 C106.837,59.2061 105.864,57.8075 105.919,56.4438 C105.924,55.4071 106.815,55.2774 106.915,56.0969 C107.201,58.463 109.222,58.599 110.146,57.2925 C110.495,56.7804 110.415,55.5193 111.021,55.4407 M133.16,55.9221 C133.304,55.9162 133.495,55.9704 133.778,56.067 C135.638,56.6606 135.688,56.9478 134.097,57.5208 C132.2,58.2042 132.077,58.2935 132.522,56.9702 C132.771,56.232 132.844,55.9352 133.16,55.9221 M113.448,56.1306 C114.826,56.216 114.942,57.3825 113.729,57.772 C111.924,58.5687 111.316,58.5167 112.015,57.3413 C112.395,56.5088 112.734,56.1465 113.448,56.1306 M104.823,56.55 C104.988,56.5485 105.176,56.6118 105.378,56.7625 C105.586,57.388 105.937,57.8691 106.214,58.5158 C105.931,58.7967 105.256,58.7922 104.825,58.451 C103.962,57.7664 104.11,56.5569 104.823,56.55 L104.823,56.55 M148.167,57.8976 C148.702,57.9008 149.246,58.7489 149.424,59.3808 C147.553,61.7837 147.848,66.27 147.413,67.6245 C147.036,68.7268 146.914,67.7754 145.874,64.9206 C145.453,63.7683 147.571,58.0394 148.06,57.912 C148.095,57.903 148.131,57.8973 148.167,57.8976 M150.079,60.3608 C150.496,60.5984 151.061,61.1442 151.161,62.003 C151.219,62.5014 150.972,63.1638 150.813,63.819 C150.436,65.377 149.925,68.3203 149.741,71.0397 C149.663,72.1971 149.667,73.238 149.616,73.3388 C149.053,74.4415 147.866,71.4745 147.968,69.1122 C148.337,67.2261 148.542,60.6199 150.079,60.3608 M152.721,63.7514 C152.985,64.1186 153.153,64.3998 153.235,64.7165 C153.376,65.2668 153.257,65.924 152.934,67.3255 C152.076,71.0402 152.2,75.0438 152.76,79.154 C152.878,80.0187 152.277,79.5855 151.369,78.0962 C150.865,77.2704 150.543,76.1386 150.388,74.8022 C150.072,71.8805 150.682,67.9198 151.201,64.7953 C151.431,63.4125 151.591,62.1939 152.721,63.7514 M154.146,66.0118 L155.648,67.823 C155.648,67.823 155.007,71.987 155.011,74.2082 C154.906,75.0401 155.757,84.0877 156.034,84.8195 C155.111,83.7855 154.68,83.1773 153.668,81.8781 C153.553,81.8969 152.677,72.964 153.281,69.5473 C153.647,67.4807 154.146,66.0118 154.146,66.0118 M156.503,69.6101 C156.755,69.6009 157.076,69.885 157.479,70.4505 C157.842,70.9607 158.019,71.3799 158.039,72.0154 C158.053,72.4786 157.824,72.8363 157.817,73.6624 C157.774,78.5839 158.439,83.2286 159.276,87.7067 C159.572,89.3089 158.997,88.6553 158.047,87.6418 C157.176,86.7135 157.16,86.3605 156.695,85.0413 C156.602,84.778 155.675,75.7021 155.683,75.016 C155.715,72.1957 155.796,70.6249 156.121,69.9482 C156.228,69.7272 156.352,69.6156 156.503,69.6101 M151.044,79.4993 C151.044,79.4993 149.295,80.3992 148.837,80.0834 C148.099,78.0695 145.434,72.6786 145.389,71.7238 C145.436,71.4102 146.481,69.9918 146.481,69.9918 C147.953,73.1854 149.278,76.4527 151.044,79.4993 M118.133,73.0246 C117.605,73.6439 116.977,73.3856 115.705,72.827 C115.053,72.6269 115.154,72.8951 114.077,73.4548 C113.242,73.8888 112.948,73.9 112.395,73.8953 C111.665,73.889 111.402,73.6332 111.4,74.1465 C111.399,74.4304 111.356,75.7135 111.184,76.3768 C110.949,77.2795 110.744,77.6779 110.873,77.8346 C111.245,78.1746 111.556,77.9672 112.339,77.2112 C113.637,75.957 114.513,76.3165 115.96,76.7829 C117.604,77.3133 117.945,77.5087 119.449,76.9829 C121.581,76.238 122.864,76.2372 123.713,76.7776 C125.175,77.7091 125.617,77.6542 125.014,75.1076 C124.82,74.2866 124.806,73.0135 124.687,72.793 C124.551,72.5432 124.179,73.2557 123.79,73.5176 C123.046,74.0182 122.661,74.0089 120.984,73.4596 C119.99,73.1339 118.876,72.0692 118.133,73.0246 M145.11,73.3569 C145.759,74.8865 148.343,79.9977 148.265,80.5688 C147.761,81.0207 147.088,81.35 146.689,80.9459 C145.397,78.5889 145.01,77.3183 143.96,74.673 C143.647,74.0406 144.584,72.4293 145.11,73.3569 M158.986,73.169 C159.169,73.1436 159.551,73.5235 159.836,73.9039 C160.72,75.0874 160.774,75.2341 160.802,76.5023 C160.903,81.101 161.481,86.5139 162.777,90.6878 C163.032,91.5093 163.516,92.5083 163.463,92.6439 C163.028,93.2772 161.014,91.5813 160.406,89.0021 C159.567,85.727 159.076,82.3097 158.809,80.0853 C158.472,76.1729 158.474,73.373 158.986,73.169 M143.486,75.7054 C144.231,77.1407 145.168,79.6172 145.8,81.1032 C146.087,81.7483 144.616,82.2568 144.277,82.0374 C143.689,81.5985 143.411,80.3629 143.025,79.6225 C141.797,76.937 141.576,76.8806 142.257,76.0441 C142.676,75.4626 143.176,74.7501 143.486,75.7054 M161.903,77.3524 C162.011,77.3525 162.151,77.4576 162.328,77.6857 C163.104,78.6034 163.632,79.3046 163.835,79.9847 C163.982,80.4783 163.864,80.8484 163.917,81.7428 C164.056,84.0855 164.671,87.2831 166.414,93.8272 C166.584,94.4654 166.815,95.2206 166.786,95.4259 C166.617,96.6274 164.855,94.6798 164.342,92.668 C163.747,90.3844 162.662,87.4679 162.342,84.7711 C161.684,80.4907 161.319,77.3521 161.903,77.3524 M141.934,79.0826 C143.4,82.5021 143.516,82.4961 142.593,82.7667 C141.617,83.0528 141.559,82.9591 140.413,80.6306 C139.577,78.9315 139.412,78.7183 140.115,78.1059 C141.188,76.8412 141.47,78.0472 141.934,79.0826 M121.525,78.267 C121.358,78.2704 120.867,78.6425 120.374,78.8379 C119.163,79.317 117.013,79.35 115.703,78.9552 C113.381,78.023 114.035,79.2336 116.089,79.9702 C117.683,80.5064 120.84,80.0907 121.329,79.0974 C121.63,78.7795 121.739,78.2626 121.525,78.267 M139.181,80.0652 C140.489,82.0869 140.882,82.8944 140.661,83.0517 C140.452,83.2608 139.416,83.6516 138.99,83.4429 C138.455,83.1809 137.989,81.9326 137.755,80.9538 C137.918,80.4757 138.778,79.6184 139.181,80.0652 M106.412,80.9169 C106.997,80.9192 108.517,82.9631 108.209,83.3318 C108.123,83.5213 107.553,83.3409 106.221,82.9719 C105.776,82.8083 104.771,82.6766 105.089,82.0318 C105.247,81.7388 106.179,80.916 106.412,80.9169 M137.777,83.7182 C137.647,84.0677 136.66,84.1498 136.242,84.1239 C135.881,83.3744 135.786,83.0165 135.686,82.5204 C135.822,82.2226 136.498,81.4513 136.831,81.6027 C137.031,81.7809 137.676,83.3488 137.777,83.7182 M164.994,81.7476 C165.203,81.7549 165.564,82.1205 166.1,82.8875 C167.114,84.3368 166.976,84.2314 167.704,87.6932 C168.529,91.6192 169.517,94.4151 170.515,98.4253 C170.528,99.0908 170.259,98.914 169.52,98.4639 C168.312,97.7286 167.915,96.9117 167.534,94.7835 C166.886,91.2683 165.515,88.0159 164.989,83.8631 C164.711,82.4897 164.689,81.7371 164.994,81.7476 L164.994,81.7476 M134.57,83.1503 C135.282,83.1261 135.186,84.2244 134.982,84.4023 C134.461,84.8561 133.025,84.7206 132.779,84.7462 C132.227,83.8813 134.105,83.1796 134.57,83.1503 M168.616,86.8867 C168.826,86.9156 169.389,87.7103 170.442,89.1905 C171.454,90.6127 171.232,90.3804 171.838,92.7212 C172.695,95.9557 174.113,98.2885 174.944,101.265 C174.942,101.606 174.531,101.562 174.137,101.401 C173.37,101.079 172.685,100.536 172.036,100.005 C171.592,99.5249 171.595,98.9153 170.283,94.402 C169.809,92.7736 169.686,92.3503 169.095,89.8763 C168.6,87.8076 168.379,86.8539 168.616,86.8867 M58.8989,96.55 C62.3397,102.882 61.0659,105.69 53.6647,106.567 C53.1302,106.492 53.6348,109.81 53.6198,111.294 C57.3282,109.172 61.8121,108.677 65.9449,107.345 C64.8197,110.948 62.8443,115.031 56.8621,114.403 C50.6091,109.571 43.2494,112.474 38.256,110.512 C35.54,109.5 34.5029,106.484 34.4706,105.966 C37.7276,106.293 41.405,106.99 44.5612,106.762 C41.1136,104.106 42.1219,100.431 42.6079,98.7506 C38.5738,93.6639 41.9417,87.9422 47.8012,89.2726 C48.4067,89.4101 49.6023,89.999 49.6023,89.999 C55.2545,84.939 61.8062,89.6926 58.8989,96.55 M173.258,93.4698 C173.492,93.4475 174.009,94.0585 175.045,95.508 C178.118,99.8078 180.78,103.808 180.739,104.033 C180.607,104.773 177.404,103.476 176.595,102.415 C175.675,101.206 173.085,94.9848 173.089,93.9963 C173.09,93.6663 173.135,93.4815 173.258,93.4698 M48.0862,111.886 C49.6849,112.121 50.1314,112.256 50.1147,112.881 C50.2514,113.412 46.235,113.483 45.6905,113.089 C45.2557,112.774 45.8165,112.085 46.2459,111.92 C46.8684,111.733 47.4844,111.798 48.0862,111.886 M158.807,112.456 C136.367,123.055 127.187,151.244 138.513,172.847 L136.954,173.973 C125.849,151.133 134.11,126.658 152.153,114.297 C152.884,113.778 154.5,113.377 155.251,112.879 C155.251,112.879 147.891,114.558 145.399,115.533 C144.894,115.516 143.409,116.039 141.814,117.769 C140.419,119.061 136.059,125.072 136.199,125.281 L124.614,125.747 L124.624,126.175 L135.994,125.913 C124.285,145.191 127.162,163.534 134.392,176.371 L134.57,176.491 C134.991,176.774 136.097,175.965 138.391,173.791 C139.336,172.896 140.526,171.784 141.038,171.318 C142.455,170.019 144.475,167.778 145.863,166.16 C137.99,150.113 145.756,128.978 164.18,119.454 C164.211,118.947 163.983,117.399 163.983,117.399 C163.983,117.399 163.287,116.773 162.876,116.838 C142.35,125.879 134.127,148.331 142.472,168.748 L141.096,170.246 C130.609,149.103 141.866,122.676 161.492,115.189 C161.483,114.712 161.058,114.102 160.53,114.469 C139.342,124.306 130.108,149.427 140.487,170.84 L139.179,171.995 C127.371,148.55 139.813,122.278 159.319,113.301 C159.894,113.168 158.807,112.456 158.807,112.456 L158.807,112.456 M44.5966,112.675 C44.5966,112.675 44.4478,113.923 44.8887,114.349 C45.0914,115.24 44.7675,115.144 44.0097,114.963 C42.1443,114.518 43.5993,115.579 45.1254,116.436 C46.6287,117.28 46.427,117.251 45.1158,118.083 C44.2343,118.642 44.326,118.852 44.4445,119.276 C44.6203,119.906 44.7407,119.486 45.1062,119.15 C45.8735,118.445 46.4866,118.269 47.1685,118.271 C48.1927,118.275 48.2964,119.095 48.1152,119.735 C47.7079,121.077 46.3262,121.006 45.1931,120.672 C43.3396,120.126 40.312,116.911 40.3589,115.018 C40.2301,113.323 42.5499,112.597 44.5966,112.675 M52.9305,113.089 C53.6491,113.353 54.5534,113.706 55.5483,114.122 C56.9221,114.559 58.3145,115.27 59.2124,115.868 C61.9463,117.691 61.7795,121.336 61.5822,121.698 L47.457,135.085 C47.457,135.085 46.6592,134.695 45.9078,134.311 C43.533,133.1 42.9622,132.461 44.2802,131.79 C44.9196,131.465 45.1257,130.765 45.2172,130.08 C45.3398,129.163 45.2918,129.32 45.8402,128.902 C46.7946,128.175 46.8401,127.874 46.8448,126.666 C46.8479,125.866 46.9305,125.497 47.2216,124.995 C47.4526,124.596 47.6961,123.763 47.8591,122.807 C47.8859,122.65 47.8937,122.257 47.9244,122.119 C48.0913,121.371 48.3283,121.151 48.487,120.981 C48.6453,120.812 48.8994,120.235 49.0763,119.735 C49.4704,118.62 49.3961,118.785 50.0326,118.909 C50.9571,119.088 50.8245,119.628 50.7233,120.483 C50.6741,120.899 50.3974,121.19 50.4914,121.097 C50.6177,120.972 51.1855,120.703 51.3029,120.677 C51.5987,120.609 51.8934,120.711 51.9694,121.174 C52.0117,121.432 51.8993,121.908 51.9066,122.275 C51.9254,123.228 51.9643,124.369 52.1819,125.12 C53.2305,128.74 53.0219,128.238 52.6649,125.226 C52.5794,124.505 52.4789,123.447 52.5828,122.565 C52.656,121.944 52.8341,121.174 53.0754,120.754 C53.6954,119.674 53.7292,119.46 52.3847,118.928 C51.8852,118.731 51.0345,118.385 50.8585,118.04 C50.6431,117.617 50.0025,117.043 49.168,116.847 C47.1388,116.369 45.9579,114.409 46.2508,114.118 C46.4427,113.927 47.26,114.177 47.777,114.195 C49.6295,114.261 50.0232,114.166 50.844,113.461 C51.2811,113.085 51.4773,112.752 51.8251,112.727 C52.1922,112.72 52.66,112.993 52.9305,113.089 M149.076,115.258 C130.1,130.61 126.775,155.444 136.241,174.608 L134.603,175.895 C122.706,153.416 130.697,129.167 145.313,115.906 L149.076,115.258 M39.5227,117.088 C39.8576,117.057 40.2239,117.548 41.5561,118.972 C42.4534,119.931 43.3879,120.764 43.8793,121.044 C44.9939,121.577 44.7502,121.355 43.8213,122.237 C42.8718,123.326 43.3961,124.222 42.2613,123.676 C39.3087,122.29 37.2355,118.207 39.1556,117.223 C39.3005,117.149 39.4111,117.098 39.5227,117.088 M38.0544,121.382 C38.1265,121.376 38.2043,121.387 38.2814,121.406 C38.6456,121.495 39.0871,122.179 39.5614,122.657 C40.8737,123.978 41.4829,124.564 42.5317,125.028 C43.5626,125.484 43.5906,125.595 42.865,126.4 C42.6011,126.693 42.4439,127.045 42.382,127.24 C42.3201,127.436 42.304,127.686 42.0826,127.728 C40.9333,127.949 37.1131,125.632 36.9629,124.033 C37.0862,122.538 37.4636,121.427 38.0544,121.382 M46.1494,121.826 C46.812,121.809 47.2012,122.4 47.1974,123.357 C47.1948,124.021 46.8215,124.29 46.0624,124.574 C44.44,125.182 43.4404,124.021 44.5748,122.739 C45.0516,122.2 45.6959,121.838 46.1494,121.826 M45.1592,125.724 C46.3831,125.729 46.7376,126.761 45.8402,127.651 C44.9973,128.487 43.2961,128.491 43.2997,127.574 C43.3025,126.854 44.3802,125.721 45.1592,125.724 M37.5707,126.959 C38.3989,127.203 40.4142,128.655 41.3006,128.826 C41.3473,129.316 40.758,129.449 41.5948,130.37 C41.9746,130.788 42.007,131.073 41.6768,131.249 C40.6659,131.788 37.1636,130.085 36.929,128.332 C36.8152,127.476 37.0995,126.989 37.5707,126.959 M42.1405,129.057 C43.3455,129.107 44.7086,129.142 44.5651,129.718 C44.4612,130.136 44.03,131.238 43.4784,131.032 C43.2103,130.932 42.9499,130.665 42.7636,130.486 C42.1206,129.869 41.9497,129.049 42.1405,129.057 M87.7083,134.045 C91.2183,137.223 103.97,170.419 77.3962,194.603 L71.7568,196.293 C97.2711,176.259 93.0265,147.818 86.1418,135.548 C86.1433,135.188 86.0418,135.229 85.4068,135.804 C84.8509,136.307 84.7917,136.416 85.0156,136.509 C92.7966,148.482 95.7046,182.299 65.0488,198.617 C64.5345,199.151 65.5755,199.07 65.5755,199.07 C65.6298,198.63 79.3791,195.29 78.4087,195.205 C91.2235,183.878 102.381,156.863 88.4917,133.317 C88.1564,133.096 87.7083,134.045 87.7083,134.045 M83.2816,137.803 L83.1029,138.552 C94.2255,160.388 83.6085,187.141 62.9333,197.042 C63.2737,197.292 63.6514,197.464 64.0313,197.642 C87.4857,185.013 94.2486,158.283 84.0173,137.58 L83.2816,137.803 M81.4222,139.352 L81.2926,140.144 C90.5005,158.729 83.1905,184.518 61.2143,194.98 C61.0058,196.104 61.2177,195.776 62.2455,195.723 C87.6733,182.086 90.064,156.155 82.1077,139.314 L81.4222,139.352 M79.8427,141.58 C79.1246,142.53 77.8097,143.021 77.3728,144.243 C84.76,163.767 75.2126,182.56 59.0503,190.482 C59.0372,191.465 58.3322,193.896 60.0435,193.508 C80.0116,184.462 88.6994,160.419 79.9687,141.493 C79.9687,141.493 79.8549,141.576 79.8427,141.58 M180.142,179.329 C180.877,179.38 181.536,179.603 182.218,179.692 C184.698,180.013 186.308,181.822 185.199,182.922 C184.835,183.283 184.326,183.075 182.715,182.287 C181.975,181.925 181.856,181.585 181.703,180.769 C181.519,179.79 181.323,179.69 181.075,180.45 C180.823,181.218 180.553,181.694 179.706,181.5 C177.328,180.947 178.227,179.31 180.142,179.329 M153.61,195.951 C147.654,192.571 140.299,186.476 136.094,179.551 C134.004,183.473 131.548,190.611 131.548,190.611 L122.199,188 L122.089,188.195 L131.329,190.857 L130.429,193.94 C130.331,194.274 128.9,197.783 128.9,197.783 L143.332,204.517 C142.438,205.917 141.462,206.821 140.223,208.126 C139.522,208.862 139.502,209.816 139.502,209.816 L159.512,190.73 C159.512,190.73 162.093,194.558 163.053,195.426 C163.954,196.24 164.233,196.437 163.183,196.68 C158.482,197.369 154.833,200.929 156.105,205.704 C156.311,206.235 156.725,206.039 157.616,205.479 C160.738,202.652 168.367,200.035 168.628,200.7 L168.658,203.74 C160.444,203.859 161.286,209.898 161.887,213.136 C161.887,213.206 159.512,215.283 159.512,215.283 C160.352,215.723 161.174,216.179 161.951,216.722 C161.229,220.75 164.661,226.589 171.403,223.6 C171.986,224.198 172.537,224.799 173.18,225.549 C173.869,224.75 174.665,222.869 174.665,222.869 C178.014,224.384 184.963,220.992 181.408,213.222 L183.368,211.354 L181.486,210.167 C181.437,208.192 181.131,206.427 179.951,204.706 C179.951,204.706 183.113,205.512 185.453,205.647 C186.897,205.778 188.115,205.815 187.994,204.941 C187.958,204.684 187.742,203.427 187.601,203.015 C186.904,200.98 183.284,199.486 179.769,199.288 C179.195,199.256 178.578,199.274 178.455,199.125 C178.225,198.846 178.638,198.45 179.015,198.515 C180.94,198.85 182.792,197.427 183.126,195.617 C183.192,195.3 183.585,194.719 184.149,194.101 C185.151,193.004 185.23,193.033 185.211,191.449 C185.198,190.349 185.391,190.105 185.898,189.368 C186.553,188.316 186.857,186.945 186.528,185.526 C186.423,185.076 185.997,184.44 186.36,183.32 C186.951,181.497 185.654,179.83 183.953,178.881 C183.817,178.842 183.858,178.975 183.745,179.11 C182.202,179.59 180.323,178.485 180.323,178.485 C179.936,178.294 181.637,168.407 185.163,169.291 C185.749,169.646 185.997,171.364 185.952,171.395 C186.115,171.391 186.203,170.384 185.974,169.711 C185.736,169.007 185.189,168.335 184.137,168.533 C183.322,168.687 182.38,169.77 181.954,170.312 C180.307,172.411 180.289,173.751 179.739,175.984 C179.474,177.039 179.445,176.978 177.985,175.837 C176.936,175.017 176.428,174.756 176.793,174.275 C176.957,174.059 177.636,173.377 177.636,173.377 L190.398,161.097 L190.398,284.073 L118.23,284.073 L118.735,268.269 C120.089,257.157 117.707,233.822 115.904,231.627 C117.294,230.065 121.609,226.299 121.371,226.13 L120.799,225.791 L118.518,227.889 L112.885,226.183 C110.482,224.524 108.03,222.99 105.486,222.337 C101.333,221.27 93.3329,224.667 93.3258,224.703 C80.5456,225.649 70.3112,230.839 70.4545,230.799 C69.8979,230.288 69.1613,228.656 69.1419,228.666 C62.5541,219.498 56.0775,214.363 47.2295,208.097 L58.4366,201.906 L31.8791,174.158 L31.6451,151.627 L70.1171,114.847 C70.3439,114.212 82.3912,123.356 86.8767,130.797 C87.7368,127.159 89.3387,123.856 90.6734,120.285 C90.813,119.958 98.3274,123.063 100.557,123.195 C100.89,123.214 101.159,122.863 101.159,122.863 L91.241,119.638 L93.2697,113.829 C93.2697,113.829 93.9758,112.251 93.1787,111.989 C88.6578,110.527 84.4155,107.949 80.0918,105.753 C80.0918,105.753 82.1113,103.508 82.1417,103.409 C82.1702,103.315 82.989,102.11 82.7938,101.695 C80.5943,103.829 62.6451,120.475 62.6451,120.475 C62.1345,117.618 61.3319,116.619 59.5869,114.857 C60.5378,114.811 62.0256,113.871 62.8856,113.245 C65.5161,111.328 66.9482,107.909 66.6038,105.911 C64.0786,106.714 61.7985,107.656 58.6355,108.23 C56.8583,108.553 55.1721,109.356 54.1497,110.217 L53.9927,107.029 C53.9988,107.065 58.2481,107.774 60.2162,104.922 C61.9122,102.465 61.2169,99.6518 60.8274,98.2176 C60.8713,97.8991 60.777,97.9349 61.5084,97.2613 C62.0484,96.764 62.8898,96.1214 62.8898,96.1214 C62.926,95.9405 60.6955,95.114 60.3186,94.359 C60.9124,88.451 56.192,86.1702 52.1964,87.2199 C51.4497,87.4451 51.0933,87.5851 50.2053,86.596 C50.073,86.4487 49.0075,85.323 49.0075,85.323 C49.0075,85.323 48.5372,86.4079 48.2963,86.883 C47.5127,88.4281 47.2977,87.963 45.6084,88.0458 C41.3291,88.2556 39.4196,91.7108 40.4018,95.9524 C40.6323,96.948 40.529,96.7945 39.8753,98.0534 C39.5414,98.6963 38.9962,99.5168 38.9962,99.5168 C38.9962,99.5168 39.7811,99.9518 40.31,100.188 C41.0933,100.538 41.1342,100.948 41.1311,101.729 C41.2404,103.45 41.6182,104.603 42.6078,106.081 C39.2556,106.158 36.6838,105.845 33.6485,104.837 C34.1131,109.505 37.5538,111.243 41.7679,111.927 C41.7679,111.927 41.3258,112.34 40.8606,112.524 C39.8748,112.809 39.2575,113.675 39.2667,114.451 C39.1248,115.192 38.6455,115.935 38.2042,116.331 C37.548,116.899 37.0088,117.699 37.2672,119.247 C37.201,120.369 36.9299,120.693 36.6006,121.121 C35.9394,121.981 35.7161,122.836 35.881,123.966 C35.9577,124.492 36.1201,125.618 36.0114,126.782 C35.8301,128.722 36.5251,129.449 37.4072,130.815 C37.9787,131.699 37.8582,131.723 37.726,132.365 C37.4087,133.907 37.0786,134.699 36.7359,135.872 C35.9691,138.495 35.9397,140.484 36.5668,140.996 C37.5116,141.768 38.5812,141.535 39.0789,141.382 C42.8072,140.231 42.1616,136.57 42.358,134.113 C42.4645,133.481 42.6801,133.178 42.8896,133.207 C43.9438,134.441 45.0582,135.155 46.4932,135.932 C41.5313,140.982 38.2903,144.072 32.0179,149.581 L32.1884,26.576 L103.745,26.576 C103.745,26.576 103.82,27.486 103.649,31.9368 C103.34,40.9826 102.959,50.4583 103.553,59.6798 C103.652,62.8712 103.587,66.0225 104.045,69.1802 C104.492,72.2565 104.69,75.5739 106.127,78.4391 C106.705,79.9924 106.723,79.8729 104.522,81.907 C103.442,82.9049 102.525,83.967 102.565,84.1543 C102.578,84.2166 102.517,84.4506 102.683,84.3181 C102.793,84.23 103.591,83.4406 103.679,83.3364 C104.275,82.6333 105.273,83.5357 108.677,84.4958 C109.345,84.6842 110.286,85.3128 111.005,85.8337 C116.094,90.1216 123.253,88.7845 128.605,86.446 C130.124,85.7824 130.497,85.7139 132.938,85.4245 C141.977,84.3528 151.636,80.4033 151.616,80.4155 L152.796,82.3485 C152.796,82.3485 153.24,82.2665 153.556,82.7528 C158.755,92.5726 175.73,103.793 175.428,103.273 L164.333,109.416 C172.41,119.396 190.882,136.328 190.882,136.328 L190.457,160.663 C185.498,164.63 181.136,169.176 176.776,173.616 C175.522,174.857 174.637,175.566 175.113,175.589 C176.245,175.417 177.222,176.533 178.143,177.307 C178.727,177.958 178.586,177.899 177.913,178.787 C177.44,179.411 177.267,179.592 177.265,180.043 C177.281,180.916 177.275,181.501 176.498,182.156 C176.016,182.762 175.74,183.15 175.653,183.868 C175.565,184.585 175.572,185.045 175.079,185.679 C174.243,185.857 174.164,187.074 174.311,187.618 C175.186,188.486 174.787,189.425 174.868,189.228 C173.197,191.042 171.442,192.614 172.562,190.078 C173.067,189.133 173.243,188.351 173.243,188.351 C173.243,188.351 172.439,189.185 172.018,189.578 C171.373,190.175 171.138,189.823 171.118,187.972 C171.036,186.57 170.445,184.615 170.21,184.242 C170.079,184.033 170.057,184.394 170.118,185.744 C170.199,187.519 170.411,188.033 169.786,189.806 C168.942,192.199 168.341,192.538 169.712,192.456 C171.011,192.378 172.109,192.364 172.678,193.139 C172.869,193.4 173.116,193.848 173.641,194.112 C174.709,194.696 175.559,195.344 176.153,195.989 C178.074,198.079 177.523,199.946 173.809,198.68 C171.853,198.013 173.134,197.173 175.236,197.368 C176.527,197.489 176.745,197.011 175.627,196.669 C173.548,196.285 173.213,196.05 171.843,197.681 C166.085,197.111 162.853,193.893 161.299,191.271 C160.649,190.174 160.451,189.964 160.903,189.343 C161.081,189.099 160.973,189.174 160.666,189.513 C160.36,189.851 159.523,190.135 159.247,190.379 C157.313,192.308 155.352,194.381 153.61,195.951 M178.667,182.437 C179.645,182.557 179.625,183.378 178.753,184.167 C177.933,184.787 177.372,184.907 176.909,184.441 C176.099,183.625 177.145,182.431 178.667,182.437 M181.513,183.005 C182.301,183.002 183.305,183.364 184.499,184.356 C185.923,185.54 186.249,188.407 184.941,188.903 C184.393,189.111 184.308,188.908 183.14,187.798 C182.352,187.05 181.498,186.372 180.657,185.972 C178.94,185.155 178.72,184.846 179.88,184.289 C180.125,184.164 180.441,183.869 180.585,183.637 C180.884,183.16 180.974,183.008 181.513,183.005 M179.658,186.822 C179.886,186.829 180.191,186.968 180.667,187.223 C183.562,188.804 184.977,191.282 183.997,192.681 C183.355,193.598 182.309,193.248 181.512,191.947 C181.063,191.214 179.871,190.276 178.518,189.59 C176.968,188.804 176.935,188.692 178.054,188.155 C178.513,187.935 178.858,187.624 179.083,187.228 C179.343,186.768 179.365,186.813 179.658,186.822 M180.586,192.727 C182.772,194.907 182.522,196.088 181.102,196.975 C180.132,197.581 178.576,197.732 178.066,197.231 C177.242,196.51 177.263,195.685 178.175,195.419 C179.024,195.238 178.706,194.897 177.912,194.696 C175.077,193.891 173.334,192.386 176.416,192.713 C177.3,192.806 178.156,192.119 178.619,191.57 C179.288,190.758 180.191,192.334 180.586,192.727 M31.4668,193.567 L95.2854,284.93 L43.6918,284.829 C43.6918,284.829 43.4977,284.158 43.9179,278.682 C44.5387,271.252 43.5854,264.808 41.8266,257.556 C42.0486,257.531 39.3562,248.752 37.2623,244.462 C36.8813,243.564 36.9439,243.477 38.18,243.318 C41.8322,242.731 45.7658,241.847 49.4144,240.304 C51.1102,240.154 53.6005,240.816 53.4661,240.608 C53.4056,240.509 51.2594,238.542 51.2594,238.542 C45.3018,240.922 39.8049,241.793 34.6304,242.384 C41.4991,254.074 43.9504,269.988 41.8909,284.284 L32.0053,284.253 L31.9752,213.901 L31.4668,193.567 M42.873,207.098 C43.7742,207.063 46.02,208.648 46.2943,209.84 C46.3504,210.085 46.9343,211.551 47.5887,212.913 C47.6018,213.165 49.8141,217.16 48.8419,216.812 C46.9078,214.184 43.4525,209.709 42.5832,207.528 C42.5848,207.238 42.6207,207.108 42.873,207.098 M49.7672,211.094 C49.8882,211.755 50.5571,213.481 51.0855,214.618 C52.4628,217.583 54.5958,222.23 54.1621,223.554 C53.8699,224.445 54.1699,224.399 53.3894,223.298 C53.0076,222.759 51.8159,221.097 51.5298,220.714 C50.8319,219.777 51.3015,220.636 50.9031,219.112 C49.9531,214.801 48.4182,212.536 47.4208,210.017 C47.0652,208.834 49.3102,210.618 49.7672,211.094 M50.9937,211.752 C51.1793,211.882 53.7084,213.661 53.9641,213.916 C54.8608,217.104 58.4452,227.318 57.5174,229.143 C57.1941,228.89 55.8281,227.242 55.6385,226.394 C55.2251,221.51 53.6753,217.997 52.0128,214.357 C51.5451,213.26 51.1776,212.163 50.9937,211.752 M55.7513,215.338 C56.5521,215.729 57.3808,216.624 57.8502,217.423 C58.164,217.965 58.3248,218.603 58.6201,219.946 C59.5368,224.113 61.2854,228.337 60.499,232.784 C60.0086,233.449 58.9417,231.941 58.7892,230.456 C58.2838,225.531 57.8499,223.172 56.1183,217.381 C55.7823,216.258 55.5281,215.377 55.7513,215.338 M59.8131,219.158 C59.9842,219.166 60.3346,219.484 60.9192,220.033 C62.0563,221.1 62.2164,221.493 62.2233,223.264 C62.2602,225.866 63.1271,228.837 63.2617,231.465 C63.3394,232.981 63.6169,236.903 63.3824,237.135 C63.0515,237.592 61.5834,235.93 61.6968,233.382 C61.8838,230.32 61.732,228.016 60.4265,222.718 C59.8232,220.27 59.5179,219.224 59.7793,219.163 C59.7891,219.161 59.8018,219.158 59.8131,219.158 M177.639,203.692 C182.198,206.619 180.59,212.021 179.614,212.685 C185.911,220.641 176.123,224.714 173.017,221.854 C168.419,226.423 160.529,222.594 163.567,215.063 C163.564,215.063 157.792,204.033 169.181,204.77 C169.181,204.77 169.377,200.313 169.056,200.109 C164.99,199.836 159.464,203.75 157.899,204.833 C157.03,205.358 156.84,205.107 156.84,205.107 C156.624,202.794 156.618,201.734 157.558,200.445 C159.199,198.194 161.911,197.433 165.473,196.65 C169.882,198.008 174.08,200.139 178.165,199.807 C180.415,199.82 182.715,200.184 184.896,201.354 C186.367,202.048 187.133,204.652 187.133,204.652 C184.824,205.859 177.639,203.692 177.639,203.692 M175.47,187.334 C175.489,186.544 176.381,185.664 177.26,185.766 C178.466,185.853 178.624,187.283 177.551,187.809 C177.241,188.06 176.24,187.69 176.185,187.967 C176.258,188.454 175.768,188.249 175.673,188.073 C175.507,187.867 175.469,187.571 175.47,187.334 M174.738,190.449 C175.181,190.138 175.551,190.111 175.997,190.052 C176.682,189.969 177.558,190.073 177.752,190.79 C177.943,191.495 176.592,191.909 175.499,191.928 C174.943,191.937 174.299,192.046 174.132,191.655 C173.975,191.289 174.514,190.614 174.738,190.449 M36.7262,140.141 C37.6062,137.083 37.0567,135.371 38.5229,131.602 L42.0922,132.79 C42.0922,132.79 42.2436,136.487 41.5241,138.547 C40.8036,140.605 38.4366,142.246 36.7262,140.141 M63.3148,222.844 C63.7363,222.894 64.7704,224.367 65.2371,225.713 C65.6654,226.96 65.524,228.546 65.836,229.89 C66.5368,234.499 66.4953,239.116 66.3094,240.511 C66.2167,241.206 65.7685,240.923 65.155,240.26 C64.2629,239.296 64.3862,239.276 64.3967,236.599 C64.4057,234.305 63.8969,228.637 63.6626,227.485 C63.2293,225.355 63.049,223.323 63.1506,222.974 C63.1791,222.876 63.2368,222.834 63.3148,222.844 M105.062,223.395 C109.659,224.127 113.333,227.265 115.439,232.431 C117.472,237.684 117.972,244.851 118.288,251.44 C118.266,253.017 117.616,252.619 115.914,251.639 C114.053,250.73 113.658,250.994 110.942,251.615 C109.248,252.003 109.401,250.851 112.189,248.94 C113.138,248.32 114.242,247.493 113.879,247.37 C113.695,247.307 112.846,247.535 112.232,248.032 C109.497,250.242 108.756,250.779 109.544,248.63 C109.744,248.087 110.377,246.58 110.642,245.859 C111.633,243.159 110.491,242.003 107.127,240.294 C106.285,239.866 105.731,239.153 106.571,240.647 C107.258,241.868 105.838,242.854 104.079,241.424 C102.857,240.431 100.4,241.093 99.6071,242.332 C98.8391,243.533 99.25,245.773 100.764,246.499 C102.098,247.074 102.596,246.66 101.305,245.765 C99.6459,244.615 99.9687,242.673 101.832,242.68 C102.293,242.682 103.106,243.195 105.161,244.312 C106.632,245.108 107.679,244.772 107.68,243.584 C107.682,242.789 108.136,242.854 109.103,243.332 C110.406,243.975 110.263,244.559 109.575,246.358 C109.111,247.615 108.88,249.044 108.455,250.358 C107.357,254.78 107.212,259.788 108.425,261.349 C111.652,265.5 115.079,265.06 118.013,262.317 L117.888,266.863 C114.896,269.265 111.4,270.902 106.004,279.804 C104.122,277.44 96.0465,267.776 83.0979,265.593 L80.1842,261.606 C80.2336,261.359 78.007,246.779 76.5506,241.815 C76.5506,241.815 78.1526,239.383 79.6078,237.59 C85.4215,230.427 95.2485,222.23 105.062,223.395 M88.1747,227.533 C87.6765,227.691 87.515,226.698 87.7859,226.509 C88.3846,226.459 88.5963,226.478 89.1965,226.522 C89.6495,226.55 89.6388,227.069 88.1747,227.533 L88.1747,227.533 M66.3239,226.79 C66.9704,227.25 67.7593,228.49 68.5311,229.62 C68.9581,230.245 68.7159,231.282 68.7823,232.305 C68.8763,233.756 69.0374,236.148 69.1397,237.618 C69.3391,240.485 69.0706,242.882 68.6519,243.747 C68.2238,244.782 67.3555,244.067 67.1401,242.651 C67.0883,242.311 67.3716,238.795 67.3719,236.865 C67.3719,233.544 66.5234,229.447 66.3239,226.79 M85.9236,226.769 C86.152,226.756 86.3258,226.764 86.477,226.958 C87.1742,227.851 87.4572,228.391 86.822,228.881 C85.9802,229.584 85.214,229.407 84.7468,228.072 C84.4464,227.121 85.1557,226.821 85.9236,226.769 M83.3276,227.556 C84.0791,228.06 84.825,229.386 84.903,230.343 C84.8551,230.605 84.624,230.828 84.1194,231.236 C83.6193,231.694 83.4614,231.664 82.903,230.784 C82.0274,229.416 81.6175,228.515 81.7892,228.043 C82.2267,227.588 82.7961,227.407 83.3276,227.556 M113.935,227.73 C115.19,227.836 116.429,228.409 117.651,228.698 L115.788,230.499 C115.234,229.576 114.603,228.653 113.935,227.73 M80.5431,228.668 C81.2311,229.564 82.431,231.907 82.367,232.777 C82.1915,233.074 81.9195,233.338 81.6311,233.504 C81.4021,233.566 81.196,233.165 80.4196,231.792 C79.0697,229.404 78.6744,228.731 79.3752,228.444 C79.7434,228.403 80.304,228.421 80.5431,228.668 M77.8214,229.224 C78.5723,229.892 80.3734,233.45 80.4254,234.451 C80.4049,234.732 80.3209,234.976 80.1539,235.166 C79.0213,236.384 79.3081,236.188 77.6219,232.717 C76.1981,229.862 75.8224,229.581 76.7638,229.259 C76.9721,229.188 77.4933,229.094 77.8214,229.224 M75.1143,230.152 C75.6085,230.145 75.7475,230.972 76.711,232.854 C78.3239,236.413 78.9293,236.908 78.564,237.288 C78.114,237.856 77.8509,238.255 77.4234,237.565 C76.4507,235.983 75.4856,233.965 74.5799,232.194 C73.8548,230.872 73.79,230.711 74.2558,230.388 C74.5229,230.202 74.9209,230.155 75.1143,230.152 M103.905,231.163 C103.299,231.334 100.862,232.105 102.355,232.245 C102.657,232.273 103.421,232.082 103.958,232.045 C105.467,231.941 108.606,232.225 108.494,231.936 C108.207,230.852 104.728,230.952 103.905,231.163 M73.0043,231.496 C73.0043,231.556 73.3955,232.25 73.7849,232.93 C76.0775,237.359 77.3521,238.972 76.9447,239.672 C76.6096,240.094 76.0917,240.626 75.7854,240.5 C75.2924,240.297 74.6352,238.847 72.9946,235.566 C71.2992,232.174 71.1226,231.92 71.9942,231.48 C72.3511,231.315 72.7842,231.192 73.0043,231.496 M70.7142,233.059 C71.7679,234.771 71.6295,234.546 71.6174,240.12 C71.6099,243.589 71.1641,245.802 70.5838,246.655 C70.2799,247.102 69.7437,246.839 69.4778,245.964 C69.3561,245.564 69.7026,244.97 69.7676,244.337 C70.1776,240.163 69.8912,235.991 69.9008,232.041 C70.2189,232.008 70.544,232.779 70.7142,233.059 M97.8921,234.426 C98.3828,235.126 98.2629,235.691 98.2592,236.633 C98.2539,237.965 98.3503,238.064 99.2703,237.391 C100.086,236.794 100.151,236.756 101.606,237.743 C102.469,238.329 103.558,238.396 104.263,237.748 C104.759,237.292 104.931,237.498 105.596,237.671 C106.319,238.073 106.525,238.135 108.078,237.381 C109.127,236.917 109.169,236.851 109.793,237.179 C110.89,238.146 111.052,237.796 110.904,236.531 C110.907,236.09 111.035,235.266 111.165,234.73 C111.711,232.481 110.827,232.456 109.658,233.89 C109.205,234.445 108.196,234.685 107.243,234.237 C105.877,233.596 103.746,233.855 102.17,234.12 C100.306,234.434 99.4427,233.92 98.6938,233.281 C98.2694,232.919 97.2998,232.596 97.1923,232.873 C97.0848,233.15 97.3046,233.587 97.8921,234.426 M72.8925,237.58 C73.126,237.529 73.4841,238.221 74.0082,239.685 C74.6847,241.576 73.5024,248.148 72.7911,249.225 C72.4148,249.789 72.1732,250.136 71.4001,249.089 C71.0926,248.629 71.3319,248.483 71.6367,247.191 C72.1006,245.225 72.4913,242.044 72.5158,240.565 C72.5223,238.644 72.6279,237.637 72.8925,237.58 M75.2688,243.955 C75.4368,243.967 75.6331,244.346 75.9016,245.095 C76.2817,246.124 76.097,248.107 75.5973,249.625 C75.3079,250.51 75.0327,251.452 74.5395,252.243 C74.3716,252.687 73.5113,252.532 73.2741,251.548 C73.124,250.925 73.6418,250.153 73.8923,249.162 C74.1439,248.167 74.431,246.901 74.5733,246.264 C74.836,244.709 75.0233,243.938 75.2688,243.955 M93.6611,246.868 C93.6403,246.865 93.6212,246.868 93.608,246.872 C93.6118,246.866 93.5982,246.882 93.5934,246.887 C93.5541,246.926 95.3865,248.922 95.878,249.481 C96.135,249.698 98.3423,252.382 96.9695,251.765 C93.506,250.329 89.4529,251.034 86.9572,253.441 C86.6445,253.743 86.3863,253.434 85.4406,253.364 C83.502,253.219 82.7981,253.988 83.9771,254.943 C84.1576,255.089 84.5344,255.155 84.7045,255.39 C84.8606,255.605 84.8141,255.991 84.8953,256.099 C88.6437,261.075 95.5863,262.043 99.9448,258.793 C100.493,258.384 100.801,258.24 101.312,258.392 C102.325,258.693 102.415,257.844 101.519,256.658 C101.129,256.14 100.648,255.544 100.928,255.372 C101.482,254.896 101.755,254.118 100.793,253.826 C100.129,253.625 99.3855,252.887 99.0126,251.857 C98.5771,250.653 94.3079,246.955 93.6611,246.868 L93.6611,246.868 M76.6454,249.046 C77.4598,249.027 77.4976,253.84 76.597,255.301 C76.1344,255.854 75.0762,254.825 75.235,253.769 C75.3558,252.967 76.221,249.349 76.4183,249.162 C76.4984,249.086 76.5763,249.047 76.6454,249.046 M93.2554,252.05 C93.9392,252.043 94.8752,252.349 95.6194,253.021 C96.0218,253.385 96.7262,254.959 96.4335,255.576 C96.3516,255.889 95.5067,255.871 95.4301,255.641 C94.9657,252.465 92.3905,252.004 91.5729,254.969 C91.5729,254.969 91.0429,255.419 90.9752,254.551 C91.1585,252.868 91.9499,252.063 93.2554,252.05 M113.99,252.325 C114.809,252.31 115.589,252.721 115.99,253.596 C116.269,254.205 116.3,254.718 116.189,254.985 C116.106,255.185 115.83,255.099 115.83,255.099 C114.523,251.514 112.745,253.172 112.101,255.153 C112.101,255.153 111.428,255.361 111.344,255.148 C111.26,254.933 111.313,254.53 111.58,253.972 C112.091,252.907 113.063,252.343 113.99,252.325 L113.99,252.325 M96.5059,252.548 C96.9687,252.523 97.761,252.899 98.3534,253.496 C98.9552,254.103 99.0144,254.465 98.5281,254.914 C98.236,255.185 97.1977,255.452 96.9965,254.982 L96.122,252.94 C96.0388,252.745 96.2956,252.559 96.5059,252.548 M90.2077,252.644 C90.7259,252.646 90.8354,252.763 90.0217,254.656 C89.8478,255.061 87.7603,254.473 88.1581,253.692 C88.755,253.071 89.6895,252.643 90.2077,252.644 M111.116,252.794 C111.325,252.784 111.494,252.814 111.566,252.91 C111.379,252.977 110.59,254.972 110.59,254.972 C109.845,254.882 108.954,254.987 108.793,254.378 C108.641,253.802 108.942,253.452 109.991,253.05 C110.309,252.934 110.769,252.81 111.116,252.794 M117.225,253.306 C118.016,253.596 118.201,254.265 118.099,254.61 C118.023,254.871 117.649,254.874 117.385,254.673 C117.133,254.38 116.762,253.882 116.791,253.547 C116.873,253.214 116.973,253.21 117.225,253.306 M77.848,255.149 C78.0909,255.607 78.5296,258.198 78.0171,258.131 C77.5197,258.003 77.288,257.221 77.2008,256.518 C77.1828,256.373 77.6257,255.166 77.848,255.149 M86.5467,256.532 C86.7768,256.499 87.3565,256.702 88.2178,257.189 C91.0521,258.558 93.9575,258.752 97.0437,258.063 C98.8236,257.601 99.2776,257.33 99.5291,257.636 C99.9562,258.155 99.2821,258.674 96.7686,259.518 C94.0125,260.445 91.1528,260.288 87.3923,257.635 C86.3818,256.922 86.2507,256.574 86.5467,256.532 M117.998,257.247 C118.465,258.117 116.876,258.943 116.072,259.175 C114.362,259.67 111.771,259.439 110.308,258.56 C110.185,258.486 110.068,258.408 109.956,258.324 C108.766,257.438 109.258,256.805 110.583,257.489 C112.008,258.223 114.909,258.358 116.447,257.617 C117.217,257.245 117.747,256.778 117.998,257.247 M82.8035,258.87 C82.6454,258.905 82.9128,259.305 83.4652,259.904 C87.3424,264.255 96.5925,266.616 101.792,262.131 C103.42,260.603 103.172,259.915 100.604,261.136 C97.7636,262.071 93.7274,262.193 90.2367,261.676 C88.5201,261.444 85.7242,260.786 84.3056,259.749 C83.412,259.096 82.9429,258.839 82.8035,258.87 M109.537,259 C109.774,259.019 110.189,259.107 111.089,259.575 C112.402,260.258 115.386,260.024 116.362,259.664 C118.421,258.904 118.843,259.869 116.893,260.947 C114.72,262.262 111.722,261.748 109.972,260.053 C109.43,259.568 109.137,258.963 109.375,258.915 C109.398,258.91 109.503,258.998 109.537,259 L109.537,259 M83.8335,266.697 C91.4687,267.395 102.991,274.971 107.484,284.073 L104.898,284.073 C100.384,276.91 93.4394,271.145 85.1974,268.995 C84.8715,268.744 83.6587,267.015 83.8335,266.697 M117.724,268.365 L117.371,270.881 C116.092,271.929 111.402,275.815 107.923,281.899 C107.199,281.865 106.847,280.992 106.968,280.397 C109.753,274.906 113.083,271.874 117.724,268.365 M86.8659,270.334 C88.6175,270.214 100.014,276.334 103.852,284.073 L101.751,284.073 C97.4341,278.451 92.6361,274.783 88.3772,273.311 C87.3416,272.219 86.2078,270.382 86.8659,270.334 M117.371,272.085 L117.352,275.485 C114.625,278.139 112.632,280.809 111.072,284.073 L108.954,284.073 C108.954,284.073 108.484,283.14 108.648,282.559 C111.054,278.228 113.359,275.075 117.371,272.085 M100.058,284.073 L98.0091,284.073 C96.2797,281.628 93.7107,279.275 91.3524,277.876 C90.386,276.678 89.3032,275.2 89.739,274.96 C89.7648,274.076 98.8336,280.204 100.058,284.073 M117.415,277.156 L117.371,279.122 C115.984,280.895 114.822,282.383 113.712,284.073 L111.966,284.073 C113.558,280.635 117.558,276.227 117.415,277.156 M93.8992,280.963 C94.5312,281.129 96.84,283.334 96.7662,284.073 L95.727,284.042 C95.144,283.306 94.4525,282.54 94.0426,281.787 C93.7858,281.31 93.6212,280.869 93.8992,280.963 M117.014,281.57 C117.021,281.568 117.024,281.569 117.028,281.57 C117.031,281.572 117.008,284.073 117.008,284.073 L115.255,284.073 C115.067,284.038 116.104,282.183 117.014,281.57 L117.014,281.57 Z" style="stroke:none;fill-rule:nonzero;fill:#131f67;fill-opacity:1;"/>
        </g>
        <g id="Shape5">
            <desc shapeID="5" type="0" basicInfo-basicType="0" basicInfo-roundedRectRadius="12" basicInfo-polygonSides="6" basicInfo-starPoints="5" bounding="rect(-80.5917,-129.652,161.184,259.303)" text="" font-familyName="" font-pixelSize="20" font-bold="0" font-underline="0" font-alignment="1" strokeStyle="0" markerStart="0" markerEnd="0" shadowEnabled="0" shadowOffsetX="0" shadowOffsetY="2" shadowBlur="4" shadowOpacity="160" blurEnabled="0" blurRadius="4" transform="matrix(1,0,0,1,111.392,155.623)" pers-center="0,0" pers-size="0,0" pers-start="0,0" pers-end="0,0" locked="0" mesh="" flag=""/>
            <path id="shapePath5" d="M153.479,25.9719 C144.889,25.9706 136.203,26.0197 126.538,26.1216 L191.787,118.699 L191.839,98.1329 L170.901,71.1122 C175.666,69.6426 181.485,68.6273 186.067,68.2191 C180.182,55.174 177.239,42.9226 179.831,26.1313 C170.562,26.0248 162.069,25.9732 153.479,25.9719 M178.745,26.5612 C178.234,32.489 177.563,39.0996 178.638,46.441 C175.243,45.2012 174.447,47.3192 173.883,47.542 C173.245,46.1176 170.878,43.6531 168.198,46.5497 C166.805,48.0555 167.482,50.888 170.716,52.1655 C167.013,52.4498 165.088,49.2849 164.439,46.0208 C162.437,44.7397 160.333,43.4733 160.133,38.9813 L161.159,39.1527 C160.818,42.2869 164.074,43.883 165.98,42.3871 C167.212,41.4431 167.344,39.9862 166.858,37.7231 C167.848,37.5204 170.166,36.5499 169.553,33.5718 C168.707,29.4603 164.484,29.9429 162.555,32.6468 C160.951,30.6617 158.011,30.2934 156.831,33.3762 C156.174,35.0934 157.671,37.0217 159.372,37.3946 C155.595,38.1188 153.691,32.9113 153.479,29.3867 L151.915,26.6095 C162.125,26.5501 166.591,26.562 178.745,26.5612 M127.601,26.6626 L135.179,26.6674 L190.486,98.2369 L190.602,116.054 L127.601,26.6626 M146.761,26.6674 L147.969,26.6819 C148.915,32.9812 152.538,37.542 158.734,39.7613 C159.056,44.9077 161.538,51.8987 170.954,54.2607 C170.676,60.0717 174.41,65.6249 178.407,68.2867 C178.407,68.2865 177.328,68.5538 176.484,68.6344 C171.111,64.3738 169.786,58.1005 169.254,55.5116 C169.072,55.1378 168.56,55.0471 168.153,54.9561 C163.554,53.3317 159.684,49.5544 158.102,44.9438 L157.107,40.4182 C157.109,39.8368 156.991,40.1099 155.624,39.6067 C152.077,38.301 148.797,34.4632 147.326,29.8793 C146.553,27.4692 146.761,26.6674 146.761,26.6674 M141.888,26.6819 L146.133,26.6867 C146.133,26.6867 146.158,27.4356 146.22,27.9232 C146.791,32.4361 150.844,38.0998 154.977,39.9786 C155.561,40.2444 156.375,40.6177 156.566,40.7949 C157.721,48.1928 161.075,52.6485 168.153,55.7 C168.265,55.8168 168.584,55.8909 168.679,56.0381 C169.644,60.6129 171.753,65.9164 175.765,68.8325 L174.031,69.0112 L141.888,26.6819 M162.626,34.4464 C163.586,34.4464 164.365,35.2253 164.365,36.1852 C164.365,37.145 163.586,37.9191 162.626,37.9191 C161.667,37.9191 160.888,37.145 160.888,36.1852 C160.888,35.2253 161.667,34.4464 162.626,34.4464 M104.031,43.9343 C104.131,44.1855 80.2849,64.3565 82.6055,102.309 L81.9148,103.081 L82.1031,103.352 C81.3157,104.246 80.5573,104.963 79.6978,105.834 C84.6428,108.986 93.2621,112.426 93.2892,112.335 L91.6422,116.151 L101.944,119.479 L100.563,123.106 C100.563,123.106 93.3956,120.73 90.425,119.74 C88.9595,122.989 88.0724,126.421 87.0055,129.8 C86.905,130.073 86.6708,129.942 86.3052,129.414 C80.9536,120.287 69.9622,113.702 70.3327,114.354 L31.3553,151.337 L31.0897,174.192 L58.0647,201.993 C58.0647,201.993 50.2585,205.834 46.5647,208.354 C49.4371,210.698 52.6883,212.503 55.5435,214.72 C61.4502,218.885 65.4367,225.009 69.2653,229.156 C87.32,220.205 105.503,220.703 121.206,226.138 C119.377,228.063 117.335,229.73 115.449,231.818 C120.013,243.794 118.552,267.579 118.323,268.225 C127.826,258.518 141.962,237.702 140.076,208.393 L144.076,204.384 C144.003,204.178 134.072,198.862 129.934,197.705 L131.078,194.062 L121.167,190.966 L122.273,188.073 L132.146,190.932 C134.015,186.343 135.995,179.915 135.995,179.915 C139.938,185.813 144.283,191.178 153.228,196.637 L191.983,159.557 L191.732,135.717 L165.347,109.331 L176.33,103.608 C175.274,102.757 173.744,101.949 172.659,101.096 C172.582,101.035 172.877,100.852 172.799,100.792 C172.523,100.58 172.322,100.408 172.041,100.212 C171.978,100.168 171.78,100.454 171.717,100.41 C167.99,97.7968 164.262,95.225 161.328,92.0981 C161.255,92.0191 161.363,91.6939 161.289,91.6151 C159.765,89.9862 158.247,88.4706 156.696,86.8673 C155.977,86.1414 154.788,84.4186 154.788,84.4186 L154.721,83.8486 L153.054,81.7525 C147.689,84.9174 124.811,92.8615 102.674,84.066 L106.881,79.8591 C105.761,77.1572 105.034,74.1419 104.746,71.6725 C103.588,61.7688 104.031,43.9343 104.031,43.9343 M173.813,49.5418 C174.826,49.5418 175.649,50.3643 175.649,51.3772 C175.649,52.3901 174.826,53.2126 173.813,53.2126 C172.8,53.2126 171.983,52.3901 171.983,51.3772 C171.983,50.3643 172.8,49.5418 173.813,49.5418 M179.554,51.7249 C180.488,56.2865 182.542,62.9101 184.589,67.3749 L182.151,67.6453 C180.166,66.3555 178.068,64.4737 177.847,61.8045 C172.479,61.8457 170.91,53.4262 172.87,54.4368 C172.62,57.313 174.684,58.4466 176.708,58.1643 C178.451,57.9214 179.958,55.5145 177.884,52.8577 C178.806,52.499 179.256,52.2281 179.554,51.7249 M103.48,65.2149 C103.836,71.0484 104.981,75.3026 106.05,79.7094 L95.4433,89.717 C96.2706,80.5825 98.9536,72.4192 103.48,65.2149 M154.349,84.4282 L155.696,86.3602 C140.368,95.3611 114.207,95.9972 98.2688,88.4081 L100.384,86.394 C114.399,92.7224 137.217,93.1926 154.349,84.4282 M54.7997,87.4324 C53.2553,87.4134 51.4727,88.0023 49.5834,89.4417 C42.5518,86.2383 37.9463,93.7266 42.2951,98.6861 C41.6513,102.256 41.164,102.921 43.8503,106.535 C40.9967,106.898 37.3946,106.151 34.3306,105.68 C34.8483,110.966 42.4183,112.197 45.5698,111.616 C48.9722,110.878 52.1821,112.562 52.322,112.601 C54.3225,113.16 55.5654,114.123 57.5383,114.586 C60.7918,115.36 65.5564,111.547 66.2466,107.926 C66.3118,107.439 66.4622,106.999 66.1935,106.926 C63.9693,107.495 61.5257,108.297 59.3591,108.771 C57.2373,109.292 55.638,109.805 54.0221,111.07 L53.8868,106.704 C64.9023,107.228 60.1084,96.7547 59.4847,96.305 C61.5315,92.1727 59.0695,87.485 54.7997,87.4324 M154.924,87.7609 L157.319,93.5229 L150.953,95.6819 L149.326,90.0406 L154.924,87.7609 M54.3409,87.9347 C58.0851,87.971 61.4337,91.9141 57.8377,96.3291 C64.8083,102.477 55.8751,109.065 51.6216,104.492 C45.9587,109.677 39.9428,104.261 43.1065,98.6136 C37.0673,93.2095 44.5151,85.9613 49.6027,90.6298 C50.8523,88.7092 52.6389,87.9182 54.3409,87.9347 M97.81,90.0454 C98.7062,90.0454 99.4328,90.772 99.4328,91.6682 C99.4328,92.5645 98.7062,93.2911 97.81,93.2911 C96.9136,93.2911 96.1871,92.5645 96.1871,91.6682 C96.1871,90.772 96.9136,90.0454 97.81,90.0454 M56.3356,90.1661 C56.2429,90.1672 56.1322,90.2091 56.012,90.3159 C55.8304,90.3327 55.4362,91.0096 54.4471,92.1561 C52.7281,94.1486 52.5425,94.1674 52.5425,94.1674 C50.711,93.5681 49.4863,93.8918 48.2793,94.6552 C48.2793,94.6552 46.9034,94.3945 45.0046,92.8081 C44.1386,92.0841 43.6726,91.9272 43.5219,92.3155 C43.3613,92.7291 43.754,93.1366 45.4152,94.2667 C47.714,95.8307 47.5714,95.7112 47.5714,95.7112 C47.4292,97.0857 47.6522,98.2029 48.1721,99.2433 C48.1721,99.2433 47.7671,100.22 46.1349,102.357 C45.6734,102.961 45.2953,103.618 45.2944,103.815 C45.2912,104.647 46.0168,104.088 47.6852,101.98 C48.3391,101.154 49.2364,99.971 49.2364,99.971 C51.196,100.65 51.8826,100.237 53.1111,99.8001 C53.1111,99.8001 53.5324,100.113 54.601,100.965 C56.5563,102.524 56.9792,102.69 57.2195,102.492 C57.543,102.226 57.5001,102.139 56.7607,101.603 C54.5553,100.007 53.7966,99.0841 53.7966,99.0841 C54.2451,97.3374 53.7545,95.8924 53.2738,94.9812 C53.2738,94.9812 53.3087,94.7587 54.5534,93.3684 C55.4676,92.3473 56.7188,90.7361 56.6399,90.5042 C56.6609,90.36 56.5392,90.1638 56.3356,90.1661 M101.471,90.5187 L107.204,92.301 L105.939,98.2611 L99.8289,96.2905 L101.471,90.5187 M142.96,91.9822 L144.559,97.7974 L138.594,99.3816 L137.618,93.209 L142.96,91.9822 M147.147,92.0788 C148.044,92.0788 148.77,92.8054 148.77,93.7016 C148.77,94.5979 148.044,95.3245 147.147,95.3245 C146.251,95.3245 145.525,94.5979 145.525,93.7016 C145.525,92.8054 146.251,92.0788 147.147,92.0788 M160.705,92.2865 L165.718,96.7493 L160.154,99.5603 L157.474,93.7451 L160.705,92.2865 M113.43,93.576 L119.255,94.2619 L119.018,100.521 L112.333,99.6279 L113.43,93.576 M93.2216,93.6437 L99.7033,96.4885 L97.3656,103.019 L90.7293,100.169 L93.2216,93.6437 M109.928,94.1508 C112.317,94.5248 111.674,97.3434 109.928,97.3965 C109.032,97.3965 108.305,96.67 108.305,95.7737 C108.305,94.8774 109.032,94.1508 109.928,94.1508 M130.885,94.1556 L131.682,100.42 L125.635,100.787 L125.505,94.4213 L130.885,94.1556 M135.044,94.8705 C135.94,94.8705 136.667,95.597 136.667,96.4933 C136.667,97.3896 135.94,98.1161 135.044,98.1161 C134.147,98.1161 133.421,97.3896 133.421,96.4933 C133.421,95.597 134.147,94.8705 135.044,94.8705 M50.8592,95.4581 C51.7839,95.4581 52.5352,96.2047 52.5352,97.1292 C52.5352,98.0538 51.7839,98.8052 50.8592,98.8052 C49.9348,98.8052 49.1881,98.0538 49.1881,97.1292 C49.1881,96.2047 49.9348,95.4581 50.8592,95.4581 M122.467,95.3969 C123.363,95.3969 124.09,96.1235 124.09,97.0198 C124.09,97.916 123.363,98.6426 122.467,98.6426 C121.57,98.6426 120.844,97.916 120.844,97.0198 C120.844,96.1235 121.57,95.3969 122.467,95.3969 M150.949,95.7978 L153.306,102.236 L146.698,104.366 L144.829,97.7539 L150.949,95.7978 M155.585,95.9717 C156.482,95.9717 157.208,96.6983 157.208,97.5945 C157.208,98.4908 156.482,99.2174 155.585,99.2174 C154.689,99.2174 153.962,98.4908 153.962,97.5945 C153.962,96.6983 154.689,95.9717 155.585,95.9717 M167.008,97.7974 L171.278,100.816 L169.162,101.995 C168.608,100.668 167.629,99.0941 167.008,97.7974 M105.977,98.3818 L112.28,99.7487 L111.319,106.351 L104.441,104.979 L105.977,98.3818 M87.2325,98.744 L90.5796,100.319 L88.3723,105.82 L82.958,102.936 L87.2325,98.744 M102.196,99.1015 C103.092,99.1015 103.818,99.828 103.818,100.724 C103.818,101.621 103.092,102.347 102.196,102.347 C101.299,102.347 100.573,101.621 100.573,100.724 C100.573,99.828 101.299,99.1015 102.196,99.1015 M138.599,99.4637 L139.724,106.066 L132.614,107.066 L132.175,100.333 L138.599,99.4637 M165.216,99.5893 C166.113,99.5893 166.839,100.316 166.839,101.212 C166.839,102.108 166.113,102.835 165.216,102.835 C164.32,102.835 163.593,102.108 163.593,101.212 C163.593,100.316 164.32,99.5893 165.216,99.5893 M160.174,99.6376 L162.526,105.458 L155.571,108.365 L153.513,102.54 L160.174,99.6376 M142.438,100.058 C143.335,100.058 144.061,100.784 144.061,101.681 C144.061,102.577 143.335,103.303 142.438,103.303 C141.542,103.303 140.815,102.577 140.815,101.681 C140.815,100.784 141.542,100.058 142.438,100.058 M118.95,100.719 L125.606,100.84 L125.529,107.515 L118.24,107.312 L118.95,100.719 M172.181,101.183 L174.799,102.999 C147.857,120.324 110.011,122.471 80.4755,105.419 C80.4755,105.419 81.6823,104.216 82.3688,103.511 C108.994,119.445 147.865,117.209 172.181,101.183 M115.343,101.937 C116.239,101.937 116.965,102.663 116.965,103.559 C116.965,104.456 116.239,105.182 115.343,105.182 C114.446,105.182 113.72,104.456 113.72,103.559 C113.72,102.663 114.446,101.937 115.343,101.937 M129.006,102.304 C129.903,102.304 130.629,103.03 130.629,103.927 C130.629,104.823 129.903,105.549 129.006,105.549 C128.11,105.549 127.383,104.823 127.383,103.927 C127.383,103.03 128.11,102.304 129.006,102.304 M97.3077,103.197 L104.258,105.206 L103.075,110.693 L95.453,108.5 L97.3077,103.197 M92.7096,103.236 C93.6061,103.236 94.3325,103.962 94.3325,104.859 C94.3325,105.755 93.6061,106.482 92.7096,106.482 C91.8134,106.482 91.0868,105.755 91.0868,104.859 C91.0868,103.962 91.8134,103.236 92.7096,103.236 M146.693,104.405 L148.355,110.563 L140.671,112.205 L139.743,106.148 L146.693,104.405 M151.108,105.298 C152.004,105.298 152.731,106.025 152.731,106.921 C152.731,107.817 152.004,108.544 151.108,108.544 C150.212,108.544 149.485,107.817 149.485,106.921 C149.485,106.025 150.212,105.298 151.108,105.298 M50.7184,106.255 L50.7039,110.572 C49.4295,109.522 47.9899,108.404 46.5164,107.274 C48.0194,107.353 49.4164,106.939 50.7184,106.255 L50.7184,106.255 M34.8908,106.361 C35.2415,106.357 36.0623,106.644 37.0402,106.641 C40.1694,106.631 46.0144,107.607 47.7432,109.027 C48.3193,109.498 49.1817,109.917 49.651,110.679 C49.6495,111.042 49.1359,111.051 48.3808,110.582 C46.9321,109.682 44.5214,108.88 41.2953,108.433 C40.7123,108.352 40.6397,108.376 40.6384,108.65 C40.6369,108.99 41.1757,109.188 42.8747,109.466 C45.0735,109.827 45.5414,110.043 46.0286,110.176 C47.3343,110.534 46.5,111.012 45.1558,111.14 C39.6699,111.654 35.5628,109.294 34.7363,106.597 C34.6698,106.421 34.7315,106.362 34.8908,106.361 M111.314,106.457 L118.216,107.351 L117.902,113.128 L110.348,112.263 L111.314,106.457 M52.6214,106.96 C53.8271,107.906 52.9978,110.776 52.3413,111.621 C51.9163,112.095 50.9208,111.843 50.9261,111.176 C51.0764,110.577 50.8638,107.723 50.9937,106.839 C51.4743,106.565 52.1822,106.643 52.6214,106.96 M132.605,107.216 L132.962,113.171 L125.432,113.514 L125.49,107.665 L132.605,107.216 M107.199,107.617 C108.096,107.617 108.822,108.343 108.822,109.239 C108.822,110.136 108.096,110.862 107.199,110.862 C106.303,110.862 105.576,110.136 105.576,109.239 C105.576,108.343 106.303,107.617 107.199,107.617 M65.242,107.699 C65.52,112.069 58.808,115.034 56.297,113.693 C55.1851,113.099 55.6476,112.733 57.8522,112.287 C60.7049,111.532 62.5836,110.796 62.5855,110.263 C62.587,109.936 62.1544,109.976 60.9916,110.408 C59.2012,111.01 57.3399,111.268 55.6304,112.036 C54.3525,112.616 53.8553,112.819 53.5681,112.471 C52.9661,111.739 55.8056,109.894 58.7506,109.404 C60.9601,109.036 63.188,107.858 65.242,107.699 M136.758,108.244 C137.655,108.244 138.381,108.971 138.381,109.867 C138.381,110.764 137.655,111.49 136.758,111.49 C135.862,111.49 135.135,110.764 135.135,109.867 C135.135,108.971 135.862,108.244 136.758,108.244 M121.665,109.433 C122.561,109.433 123.288,110.159 123.288,111.055 C123.288,111.952 122.561,112.678 121.665,112.678 C120.768,112.678 120.042,111.952 120.042,111.055 C120.042,110.159 120.768,109.433 121.665,109.433 M157.826,112.191 C168.688,122.533 180.593,134.439 190.414,144.232 C190.4,149.356 190.37,159.606 190.37,159.606 L152.871,195.246 C146.08,191.1 140.332,185.918 135.039,176.713 C135.636,176.198 136.161,175.871 136.613,175.308 L134.657,176.477 C127.74,165.413 124.806,143.37 136.555,125.7 L124.684,126.134 L126.62,122.092 L139.545,121.387 L144.771,115.779 C144.771,115.779 146.427,115.473 147.799,115.156 C149.161,114.842 151.939,114.047 153.977,113.388 C156.014,112.73 157.748,112.19 157.826,112.191 M70.1588,115.055 C70.1588,115.055 81.3201,121.121 87.5175,133.268 C67.4843,150.501 59.933,170.568 58.2289,191.454 C47.3254,181.256 41.8155,175.615 31.9639,165.711 L32.3214,150.931 L70.1588,115.055 M112.295,116.982 C109.407,123.156 106.923,129.919 104.697,137.166 L101.592,136.248 C101.592,136.248 103.601,135.408 104.495,134.877 L102.881,132.278 L105.939,131.022 L104.132,128.82 L107.233,127.023 L105.683,125.077 L108.523,123.657 L106.76,121.628 L109.74,119.967 L108.185,118.025 L112.295,116.982 M113.246,116.996 C113.246,116.996 113.646,117.072 114.116,117.165 C114.229,117.122 113.556,118.783 113.628,118.841 C114.713,119.065 114.776,119.004 115.101,119.102 L115.927,117.392 L117.284,117.648 C114.546,123.827 111.619,130.587 109.938,137.905 L108.339,137.572 C108.339,137.572 108.806,136.029 108.808,135.823 C108.62,135.784 107.72,135.405 107.441,135.292 C107.345,135.533 106.774,137.32 106.774,137.32 L105.509,137.287 C107.58,129.297 111.191,120.437 113.246,116.996 M118.448,117.233 L121.283,119.58 L118.067,120.831 L119.733,123.048 L116.323,124.28 L118.279,126.584 L114.903,127.83 L116.917,130.617 L113.406,131.8 L115.623,134.249 L112.454,135.731 L114.352,137.61 C114.352,137.61 112.375,138.262 112.261,138.291 C111.943,138.373 110.614,138.045 110.614,138.045 C112.617,130.914 115.092,123.687 118.448,117.233 M49.4723,118.421 C48.6895,118.929 49.136,120.036 48.1537,120.981 C47.997,121.15 47.9835,121.539 47.9219,121.879 C47.8753,122.137 47.0992,125.223 47.0992,125.223 C47.0992,125.223 47.2953,124.987 47.6059,124.003 C47.871,123.163 48.1013,121.569 48.2449,121.303 C48.9688,121.082 49.0787,118.72 49.8129,119.044 C50.2369,119.231 50.1559,119.616 49.9167,120.522 C49.3941,122.332 49.1889,123.094 50.0857,121.86 C51.4253,120.247 51.5561,118.792 50.0471,118.484 C49.888,118.453 49.5647,118.424 49.4723,118.421 M69.7289,119.092 L34.688,151.994 L34.5817,164.271 L46.7772,176.631 L55.4324,185.021 C58.5743,166.231 65.7823,148.307 83.528,132.795 C80.8089,128.423 76.1508,122.915 69.7289,119.092 M164.183,119.431 C143.593,129.107 138.859,148.953 145.235,166.918 C155.047,154.299 162.747,142.444 164.183,119.431 M90.9032,120.435 L100.254,123.444 L96.7329,135.451 L88.3144,132.896 L87.4547,130.771 L90.9032,120.435 M163.149,120.749 C162.254,136.806 156.199,152.488 145.665,164.793 C140.338,151.652 143.542,130.642 163.149,120.749 M112.788,120.836 L112.198,122.328 L113.493,122.696 L114.043,121.179 L112.788,120.836 M111.493,124.362 L110.962,125.878 L112.29,126.328 L112.788,124.787 L111.493,124.362 M166.651,124.637 C163.769,146.909 151.736,167.178 139.024,177.505 C143.075,184.076 147.838,188.303 152.678,191.831 L188.487,157.529 L188.347,146.087 L166.651,124.637 M72.0231,130.549 C71.8032,131.363 71.7253,131.777 71.7253,131.777 C71.7253,131.777 72.1376,131.396 73.2263,130.801 C80.2621,127.291 77.9919,132.628 74.6768,134.602 C73.9359,134.996 73.1743,135.465 73.1743,135.465 C73.1743,135.465 73.8784,135.624 74.6413,135.766 C78.9114,136.653 78.0024,139.151 73.5489,138.762 C72.8905,138.704 72.1168,138.58 72.1165,138.617 C72.1165,138.653 72.3834,139.591 72.6917,140.368 C74.193,144.149 71.3924,144.443 69.5502,142.039 C69.2938,141.705 68.7125,140.781 68.7125,140.781 C68.7125,140.781 68.5309,141.48 68.42,142.155 C66.8286,148.082 62.9023,147.932 64.3677,141.919 C64.5512,141.297 64.7745,140.185 64.7745,140.185 C64.7745,140.185 63.8917,140.718 62.9309,141.147 C57.8458,143.418 57.0204,141.081 61.6396,137.665 C62.954,136.693 63.3994,136.311 63.3994,136.311 C62.5814,136.248 61.827,136.123 61.1609,135.956 C57.476,135.031 56.4935,132.828 62.3979,132.931 C63.2701,132.949 64.1584,133.007 64.1584,133.007 C64.1584,133.007 63.8672,131.74 63.5596,130.786 C62.1353,126.368 65.0058,125.843 67.4274,129.8 C67.9426,130.642 68.0904,130.647 68.0904,130.647 C68.016,130.65 68.2425,129.14 68.8293,127.744 C71.7609,122.314 72.9088,127.27 72.0231,130.549 M135.353,126.154 C132.893,130.499 130.749,134.82 129.726,139.325 L120.158,139.161 C120.82,135.166 122.51,131.011 124.529,126.617 C128.424,126.511 131.937,126.34 135.353,126.154 M110.092,128.081 L109.542,129.68 L110.928,130.105 L111.43,128.549 L110.092,128.081 M38.5423,131.08 C37.5172,133.744 37.1742,136.71 36.6055,139.088 C36.3655,140.466 36.61,141.04 37.4362,141.349 C38.6118,141.787 40.308,141.19 41.2567,139.832 C41.7916,139.066 42.1799,137.485 42.2613,134.693 L42.353,132.206 C40.8988,131.935 39.9058,131.546 38.5423,131.08 M108.798,131.428 L108.339,132.896 L109.677,133.394 L110.189,131.911 L108.798,131.428 M170.766,131.979 C172.393,132.019 172.696,132.165 174.171,133.036 L177.016,135.963 C176.27,136.677 175.803,137.68 175.803,138.794 C175.803,140.959 177.56,142.716 179.725,142.716 C180.798,142.716 182.478,141.585 182.478,141.585 L186.987,146.255 C184.359,147.406 181.785,144.757 180.817,143.709 C180.59,143.463 180.531,143.295 180.531,143.295 C180.531,143.295 180.572,143.423 180.477,143.942 C180.1,146.021 178.049,152.156 176.088,151.83 C173.88,151.461 176.128,142.69 176.152,142.892 C174.634,144.497 167.236,146.206 167.754,144.414 C168.784,140.854 174.317,139.482 175.045,138.864 C172.103,137.094 168.373,132.185 170.766,131.979 M38.8997,132.094 C39.8367,132.16 40.4796,132.273 41.1166,132.539 C41.4132,132.618 41.4266,132.866 41.4595,133.099 C41.4651,134.15 41.7287,137.236 40.7543,137.267 C39.672,137.245 38.6561,137.477 37.9434,138.021 C37.3702,138.458 37.1801,138.142 37.3348,137.021 C37.4846,135.935 38.0246,133.652 38.2573,132.727 C38.2943,132.346 38.5974,132.077 38.8997,132.094 M68.1351,132.133 C65.9698,132.133 64.2132,133.89 64.2132,136.055 C64.2132,138.22 65.9698,139.977 68.1351,139.977 C70.3004,139.977 72.0569,138.22 72.0569,136.055 C72.0569,133.89 70.3004,132.133 68.1351,132.133 M68.1351,133.505 C69.5425,133.505 70.6852,134.648 70.6852,136.055 C70.6852,137.462 69.5425,138.6 68.1351,138.6 C66.7276,138.6 65.5849,137.462 65.5849,136.055 C65.5849,134.648 66.7276,133.505 68.1351,133.505 M88.3709,133.552 C97.3602,149.069 96.3187,170.368 85.7208,185.861 L97.1145,185.064 L95.6172,187.981 L83.47,189.165 C81.6141,190.863 79.9247,192.805 78.0992,194.622 L78.0798,195.265 C73.9155,196.232 69.7474,197.345 65.5027,198.875 C63.2622,196.675 59.0478,192.276 59.0754,192.166 L59.3464,190.742 C88.2353,176.003 79.7842,146.444 77.7503,144.014 C80.8493,140.293 84.5486,136.791 88.3709,133.552 M168.549,136.374 C169.719,136.374 170.664,137.324 170.664,138.494 C170.664,139.664 169.719,140.615 168.549,140.615 C167.379,140.615 166.428,139.664 166.428,138.494 C166.428,137.324 167.379,136.374 168.549,136.374 M177.967,136.944 L181.517,140.6 C181.056,141.055 180.424,141.339 179.725,141.339 C178.318,141.339 177.175,140.201 177.175,138.794 C177.175,138.068 177.479,137.408 177.967,136.944 M56.0362,137.398 C57.2063,137.398 58.1517,138.343 58.1517,139.513 C58.1517,140.683 57.2063,141.634 56.0362,141.634 C54.8662,141.634 53.9158,140.683 53.9158,139.513 C53.9158,138.343 54.8662,137.398 56.0362,137.398 M40.2713,138.286 C41.2635,138.618 41.0323,139.545 39.7503,140.361 C38.9208,140.889 38.161,141.005 37.4314,140.615 C36.0487,139.874 38.9175,137.803 40.2713,138.286 M56.6496,143.474 L43.8841,155.824 C44.6874,153.772 44.7169,151.725 44.7776,149.675 C48.6189,150.071 50.2272,148.123 49.6655,144.111 C52.1466,144.259 54.7179,143.998 56.6496,143.474 M77.1042,144.884 C83.0233,161.761 77.8824,179.622 59.3688,189.966 C60.131,173.794 66.9191,158.332 77.1042,144.884 M93.9654,146.362 C104.125,149.021 115.69,150.261 127.697,150.269 C127.788,154.838 128.007,159.67 128.944,164.334 C118.715,161.659 107.291,160.415 94.8106,160.634 C95.3285,155.805 94.4995,150.328 93.9654,146.362 M169.302,148.859 L158.483,161.509 L158.937,154.602 C162.581,155.066 163.879,153.144 163.342,149.347 C165.33,149.593 167.315,149.245 169.302,148.859 M64.1745,149.559 L63.3196,154.612 C61.1605,154.67 59.0411,155.437 59.0693,160.258 L52.6166,160.18 L64.1745,149.559 M183.241,150.492 C184.411,150.492 185.357,151.442 185.357,152.612 C185.357,153.782 184.411,154.732 183.241,154.732 C182.071,154.732 181.121,153.782 181.121,152.612 C181.121,151.442 182.071,150.492 183.241,150.492 M54.3602,151.134 C55.5303,151.134 56.4805,152.084 56.4805,153.254 C56.4805,154.424 55.5303,155.37 54.3602,155.37 C53.1901,155.37 52.2399,154.424 52.2399,153.254 C52.2399,152.084 53.1901,151.134 54.3602,151.134 M178.513,153.307 L177.383,160.958 C174.435,160.699 171.975,161.153 172.731,166.339 C170.237,166.095 166.774,166.684 164.453,166.884 L178.513,153.307 M167.95,154.694 C169.12,154.694 170.07,155.644 170.07,156.814 C170.07,157.984 169.12,158.93 167.95,158.93 C166.78,158.93 165.829,157.984 165.829,156.814 C165.829,155.644 166.78,154.694 167.95,154.694 M38.8272,156.336 C39.9973,156.336 40.9475,157.286 40.9475,158.456 C40.9475,159.626 39.9973,160.572 38.8272,160.572 C37.6571,160.572 36.7117,159.626 36.7117,158.456 C36.7117,157.286 37.6571,156.336 38.8272,156.336 M45.8547,158.843 C48.561,159.45 47.309,165.758 46.7,167.474 C46.6537,167.52 54.2505,163.494 54.7031,165.271 C54.9999,168.834 48.4146,171.318 48.4146,171.318 C48.4146,171.318 52.853,175.174 52.9788,177.597 C52.9897,179.165 51.123,178.874 48.6995,176.887 C47.6637,175.869 46.8621,175.107 46.1494,174.4 C46.9818,173.68 47.5066,172.615 47.5066,171.429 C47.5066,169.264 45.75,167.507 43.5847,167.507 C42.3888,167.507 41.3192,168.044 40.5998,168.889 C40.0377,168.347 39.4017,167.716 38.5471,166.909 C37.1472,165.599 36.1646,164.559 36.306,164.088 C38.1531,162.787 41.8271,166.281 42.155,166.599 C41.8798,165.918 43.9116,159.205 45.8547,158.843 M42.155,166.599 C42.1697,166.636 42.1895,166.657 42.2178,166.657 C42.2178,166.657 42.1703,166.614 42.155,166.599 M157.522,163.769 C158.809,163.751 158.729,166.681 158.271,168.203 C157.957,169.363 157.648,170.314 157.648,170.314 C157.648,170.314 158.733,169.466 159.213,169.241 C162.716,167.601 164.021,169.458 162.255,171.613 C161.407,172.721 160.249,172.967 159.309,173.897 C160.648,173.958 162.186,174.255 163.342,174.936 C164.241,175.473 164.947,176.125 164.946,176.53 C164.942,177.435 162.718,177.923 160.637,177.689 C159.752,177.708 158.087,177.235 158.087,177.235 C158.087,177.235 158.777,178.396 159.029,179.089 C159.806,181.245 159.533,183.769 158.411,183.765 C156.532,183.263 155.615,181.174 154.88,179.674 C154.277,181.346 153.692,183.135 152.349,184.378 C151.017,185.611 150.334,184.587 150.403,182.499 C150.43,181.669 151.04,179.191 151.04,179.191 C143.149,181.855 143.736,178.251 149.894,175.095 C146.101,173.286 143.796,171.658 150.248,171.289 C150.077,171.135 148.951,167.679 150.156,166.87 C151.277,166.118 153.664,168.701 153.779,168.826 C153.731,168.571 154.408,166.547 155.542,165.15 C156.411,164.166 157.056,163.776 157.522,163.769 M150.248,171.289 C150.256,171.296 150.264,171.297 150.268,171.289 C150.268,171.289 150.25,171.289 150.248,171.289 M184.792,169.007 C183.418,169.132 182.563,170.351 181.928,171.414 C181.799,171.63 181.561,171.707 181.472,171.992 C180.903,173.825 180.406,176.021 180.102,178.755 C180.972,179.113 182.936,179.717 183.805,179.392 C184.049,179.29 183.973,178.658 184.056,178.45 C185.426,175 186.103,172.421 186.103,170.837 C186.103,169.559 185.664,168.927 184.792,169.007 M43.5943,168.85 C45.0017,168.85 46.1445,169.993 46.1445,171.4 C46.1445,172.209 45.7669,172.929 45.1785,173.395 C43.5361,171.757 42.6953,170.899 41.5948,169.821 C42.0619,169.23 42.7832,168.85 43.5943,168.85 M185.278,170.064 C185.623,170.901 184.516,171.809 183.083,171.804 C182.23,171.8 181.953,171.921 182.332,171.182 C182.784,170.283 184.619,168.463 185.278,170.064 M166.052,169.473 C167.222,169.473 168.172,170.424 168.172,171.594 C168.172,172.764 167.222,173.709 166.052,173.709 C164.882,173.709 163.931,172.764 163.931,171.594 C163.931,170.423 164.882,169.473 166.052,169.473 M54.2829,169.623 C55.453,169.623 56.4032,170.568 56.4032,171.738 C56.4032,172.908 55.453,173.859 54.2829,173.859 C53.1128,173.859 52.1674,172.908 52.1674,171.738 C52.1674,170.568 53.1128,169.623 54.2829,169.623 M154.523,170.483 C152.357,170.483 150.601,172.239 150.601,174.404 C150.601,176.57 152.357,178.326 154.523,178.326 C156.688,178.326 158.445,176.57 158.445,174.404 C158.445,172.239 156.688,170.483 154.523,170.483 M102.109,171.009 C101.078,175.528 99.4906,179.848 97.4864,184.122 C93.7056,184.35 89.619,184.527 86.9234,184.91 C91.4126,177.047 91.5211,175.198 93.183,171.033 L102.109,171.009 M108.605,171.647 C109.667,171.772 110.831,171.933 111.88,172.134 C109.95,178.927 107.398,185.901 104.103,192.613 L102.109,192.304 L101.162,191.135 L104.33,189.87 L101.862,187.349 L105.953,186.112 L103.437,183.63 L107.479,182.62 L105.316,179.993 L108.943,178.578 L106.639,175.602 L110.503,174.54 L108.605,171.647 M154.523,171.854 C155.93,171.854 157.073,172.997 157.073,174.404 C157.073,175.812 155.93,176.95 154.523,176.95 C153.115,176.95 151.973,175.812 151.973,174.404 C151.973,172.997 153.115,171.854 154.523,171.854 M112.604,172.241 L113.952,172.458 L113.536,173.902 L115.072,174.231 L115.57,172.671 C115.57,172.671 116.805,172.784 116.936,172.883 C115.328,179.44 109.639,193.164 109.566,193.091 L108.103,192.874 L108.489,191.488 L107.127,191.295 L107.127,191.28 L106.47,192.787 L105.016,192.666 C108.538,184.629 110.936,178.458 112.604,172.241 L112.604,172.241 M184.193,172.762 C185.273,172.758 185.207,173.314 184.425,175.351 C183.689,177.265 183.414,178.032 183.056,178.279 C182.205,178.884 180.372,178.377 180.52,177.496 C181.003,174.637 181.174,173.418 181.912,173.029 C182.681,172.878 183.43,172.766 184.193,172.762 M118.023,172.999 L121.539,173.68 L118.598,175.428 L120.467,177.612 L116.854,179.152 L119.047,181.422 L115.56,182.847 L117.68,185.344 L114.063,186.87 L116.526,189.005 L112.459,190.29 L114,192.657 L112.469,193.512 L110.58,193.217 C113.715,185.904 115.73,179.889 118.023,172.999 M126.664,174.747 L133.551,176.621 L134.928,179.08 L131.697,189.991 L122.52,187.296 L126.664,174.747 M112.976,175.8 L112.319,177.592 L113.836,177.906 L114.42,176.061 L112.976,175.8 M111.643,179.915 L110.986,181.707 L112.411,181.987 L113.082,180.176 L111.643,179.915 M110.3,183.533 L109.629,185.315 L111.015,185.6 L111.677,183.813 L110.3,183.533 M175.009,186.812 C175.011,186.813 174.306,187.322 174.121,187.548 C174.274,187.957 174.719,188.585 174.653,188.998 C174.592,189.308 174.246,189.558 173.726,190.111 C172.43,191.621 171.974,191.456 172.727,189.846 C172.974,189.339 173.084,188.87 173.084,188.87 C172.784,189.29 172.558,189.788 172.355,190.182 C171.927,191.005 171.528,191.784 171.528,191.784 C172.354,192.069 172.903,192.683 173.436,193.081 C173.436,193.081 173.708,192.35 173.895,191.652 C174.157,190.678 174.673,190.277 175.306,189.942 C175.705,189.731 176.086,189.346 176.086,189.346 C175.389,188.635 175.31,187.62 175.009,186.812 M108.866,187.252 L108.156,189.15 L109.537,189.488 L110.305,187.551 L108.866,187.252 M30.94,192.024 C30.8139,199.582 31.0645,204.559 30.7999,212.71 L51.2642,239.231 L48.0717,240.304 C48.0717,240.304 48.0369,240.672 47.864,240.719 C43.4909,241.922 36.3978,243.12 36.3978,243.12 C41.6733,255.165 45.0946,270.228 42.7346,285.275 L95.6993,285.135 L30.94,192.024 M142.955,204.833 L141.129,206.663 C114.194,192.085 77.0948,192.143 50.0229,209.793 L47.8157,208.175 C77.3632,189.245 113.715,189.364 142.955,204.833 M31.9301,194.676 L94.2697,284.227 L86.9475,284.333 L31.9832,212.43 L31.9301,194.676 M165.714,196.294 C165.714,196.294 163.913,196.761 162.4,197.245 C158.069,198.632 156.042,201.137 156.44,204.616 C156.558,205.643 156.824,205.629 158.589,204.514 C162.72,201.907 162.979,201.791 168.124,200.283 C168.522,200.167 169.099,200.254 169.099,200.254 L168.872,204.316 C160.296,204.284 160.764,211.096 163.231,214.638 C162.367,216.275 160.478,221.992 166.699,224.167 C169.802,224.785 173.089,222.264 172.987,222.134 C178.711,224.841 185.354,220.302 180.174,212.44 C182.122,209.011 180.749,206.466 178.89,204.277 C178.89,204.277 179.204,204.305 181.913,204.804 C186.023,205.562 187.593,205.427 187.593,205.427 C187.598,201.728 184.535,200.076 178.146,199.573 C173.621,200.211 165.714,196.262 165.714,196.294 M96.7039,196.723 C97.0134,196.722 97.3192,196.722 97.6265,196.728 L97.327,203.046 L90.3671,203.365 L89.9131,197.071 C92.3101,196.906 94.538,196.731 96.7039,196.723 M105.045,196.878 L112.512,197.786 L111.382,203.693 L104.504,202.954 L105.045,196.878 M165.453,196.946 C166.22,196.929 166.053,197.726 165.153,197.902 C163.811,198.165 160.369,200.169 160.367,200.689 C160.365,201.024 160.536,200.976 161.797,200.302 C162.426,199.966 163.741,199.392 164.714,199.023 C165.687,198.652 166.799,198.207 167.187,198.032 C168.344,197.51 168.918,197.871 168.5,198.858 C168.225,199.511 168.116,199.562 165.433,200.414 C163.006,201.183 162.561,201.383 161.019,202.37 C160.444,202.738 159.425,203.326 158.754,203.674 C157.168,204.495 156.847,204.498 156.851,203.394 C156.764,200.121 160.383,197.666 165.289,196.96 C165.348,196.951 165.402,196.947 165.453,196.946 L165.453,196.946 M100.983,197.714 C101.917,197.714 102.674,198.471 102.674,199.404 C102.674,200.338 101.917,201.095 100.983,201.095 C100.05,201.095 99.2928,200.338 99.2928,199.404 C99.2928,198.471 100.05,197.714 100.983,197.714 M82.5089,198.163 L83.0643,203.896 L76.2203,205.654 L74.6554,199.732 C77.2737,199.091 79.8905,198.64 82.5089,198.163 M170.674,198.597 C172.55,198.883 172.401,203.18 171.442,203.925 C169.965,204.988 169.059,202.764 169.718,199.815 C169.903,198.928 170.245,198.618 170.674,198.597 M86.3921,198.829 C87.3257,198.829 88.0826,199.586 88.0826,200.52 C88.0826,201.454 87.3257,202.21 86.3921,202.21 C85.4586,202.21 84.7016,201.454 84.7016,200.52 C84.7016,199.586 85.4586,198.829 86.3921,198.829 M119.825,199.322 L127.562,201.433 L125.669,207.422 L118.41,205.379 L119.825,199.322 M115.613,199.438 C116.547,199.438 117.303,200.195 117.303,201.128 C117.303,202.062 116.547,202.819 115.613,202.819 C114.68,202.819 113.923,202.062 113.923,201.128 C113.923,200.195 114.68,199.438 115.613,199.438 M178.909,199.94 C182.242,199.975 186.638,201.647 186.646,204.224 C186.579,204.957 179.663,203.984 176.47,202.698 C175.337,202.242 173.956,200.853 173.958,200.273 C173.96,199.929 174.634,199.953 174.91,200.288 C175.359,200.834 176.951,201.405 180.609,202.326 C183.419,203.034 183.698,203.062 183.7,202.635 C183.702,202.247 182.041,201.712 180.242,201.413 C179.337,201.265 178.493,200.992 177.103,200.872 C176.454,200.87 176.296,200.463 176.837,200.187 C177.426,200.012 178.14,199.932 178.909,199.94 L178.909,199.94 M173.021,201.273 C173.862,201.668 174.166,202.453 174.63,202.867 C174.053,203.14 173.795,203.416 172.862,203.485 C172.879,202.869 172.711,202.132 173.021,201.273 M71.6947,201.737 C72.6282,201.737 73.3852,202.494 73.3852,203.427 C73.3852,204.361 72.6282,205.118 71.6947,205.118 C70.7611,205.118 70.0042,204.361 70.0042,203.427 C70.0042,202.494 70.7611,201.737 71.6947,201.737 M67.1449,202.215 L68.9706,208.069 L62.4309,210.914 L60.1126,205.113 C62.3733,203.924 64.8462,203.061 67.1449,202.215 M97.3849,203.171 C97.3849,203.171 102.595,203.179 104.393,203.2 L103.973,209.808 L97.4719,209.856 L97.3849,203.171 M90.425,203.534 L90.7873,210.131 L84.5278,210.972 L83.2913,204.335 L90.425,203.534 M130.001,203.592 C130.935,203.592 131.692,204.349 131.692,205.282 C131.692,206.216 130.935,206.973 130.001,206.973 C129.068,206.973 128.311,206.216 128.311,205.282 C128.311,204.349 129.068,203.592 130.001,203.592 M175.291,203.746 C179.103,203.763 182.738,208.147 178.972,212.739 C185.149,217.492 178.433,225.48 172.973,220.825 C165.165,228.493 160.802,218.08 164.033,215.319 C159.261,207.478 165.124,202.524 171.171,205.982 C172.285,204.403 173.8,203.74 175.291,203.746 M111.493,203.935 L118.361,205.461 L116.98,211.986 L110.271,210.624 L111.493,203.935 M134.223,204.094 L140.501,207.214 L135.633,211.899 L132.015,210.097 L134.223,204.094 M93.9654,204.833 C94.899,204.833 95.6559,205.59 95.6559,206.523 C95.6559,207.457 94.899,208.214 93.9654,208.214 C93.0318,208.214 92.2749,207.457 92.2749,206.523 C92.2749,205.59 93.0318,204.833 93.9654,204.833 M107.533,205.045 C108.466,205.045 109.223,205.802 109.223,206.736 C109.223,207.67 108.466,208.426 107.533,208.426 C105.045,208.037 105.714,205.101 107.533,205.045 M76.259,205.997 L77.79,212.522 L71.429,214.671 L69.1542,208.315 L76.259,205.997 M80.63,206.461 C81.5635,206.461 82.3205,207.217 82.3205,208.151 C82.3205,209.085 81.5635,209.841 80.63,209.841 C79.6964,209.841 78.9396,209.085 78.9396,208.151 C78.9396,207.217 79.6964,206.461 80.63,206.461 M174.789,209.47 C174.31,210.064 173.682,210.765 173.682,210.765 C172.099,210.112 170.565,210.373 169.539,211.077 C169.539,211.077 168.448,210.207 167.452,209.402 C165.726,208.007 165.151,207.689 165.148,208.272 C165.148,208.393 165.734,208.989 166.448,209.6 C168.394,211.265 168.792,211.866 168.792,211.866 C168.324,213.377 168.329,214.561 169.223,215.832 C169.223,215.832 169.26,215.997 168.577,216.718 C167.336,218.026 166.058,220.046 166.352,220.343 C166.718,220.712 167.754,219.827 169.055,218.071 C169.981,216.818 170.26,216.791 170.26,216.791 C171.841,217.218 172.717,217.604 174.297,216.299 C174.297,216.299 174.894,216.48 176.085,217.463 C177.941,218.995 178.607,219.325 178.809,218.806 C178.973,218.382 178.729,218.099 177.157,216.903 C176.133,216.124 174.995,215.212 174.995,215.212 C175.329,214.663 175.567,212.712 174.422,211.377 C174.422,211.377 174.467,211.465 176.159,209.272 C177.285,207.813 177.481,207.628 177.107,207.315 C176.61,206.664 174.956,209.262 174.789,209.47 M125.732,207.6 L131.928,210.204 L129.712,216.681 L123.727,214.237 L125.732,207.6 M57.5479,208.035 C58.4816,208.035 59.2384,208.792 59.2384,209.726 C59.2384,210.659 58.4816,211.416 57.5479,211.416 C56.6145,211.416 55.8575,210.659 55.8575,209.726 C55.8575,208.792 56.6145,208.035 57.5479,208.035 M120.94,208.209 C121.874,208.209 122.631,208.966 122.631,209.899 C122.631,210.833 121.874,211.59 120.94,211.59 C120.007,211.59 119.25,210.833 119.25,209.899 C119.25,208.966 120.007,208.209 120.94,208.209 M53.2203,208.673 L55.2489,213.696 L50.6363,210.257 L53.2203,208.673 M104.074,209.967 L110.247,210.696 L109.271,216.579 L103.949,216.096 L104.074,209.967 M97.3367,209.982 L97.2739,216.029 L91.4104,216.28 L90.9129,210.242 L97.3367,209.982 M67.1691,211.083 C68.1025,211.083 68.8596,211.84 68.8596,212.773 C68.8596,213.707 68.1025,214.464 67.1691,214.464 C66.2354,214.464 65.4786,213.707 65.4786,212.773 C65.4786,211.84 66.2354,211.083 67.1691,211.083 M62.4937,211.204 L64.8797,217.28 L61.18,219.067 L56.2197,214.372 L62.4937,211.204 M84.5616,211.281 L85.5179,217.062 L79.4032,218.574 L77.9204,212.691 L84.5616,211.281 M171.959,211.339 C173.29,211.339 174.369,212.418 174.369,213.749 C174.369,215.08 173.29,216.159 171.959,216.159 C170.628,216.159 169.549,215.08 169.549,213.749 C169.549,212.418 170.628,211.339 171.959,211.339 M100.413,211.522 C101.347,211.522 102.104,212.279 102.104,213.213 C102.104,214.146 101.347,214.903 100.413,214.903 C99.4797,214.903 98.7228,214.146 98.7228,213.213 C98.7228,212.279 99.4797,211.522 100.413,211.522 M117.067,212.145 L123.587,214.256 L121.394,219.477 L115.763,217.951 L117.067,212.145 M88.1695,212.363 C89.1031,212.363 89.86,213.12 89.86,214.053 C89.86,214.987 89.1031,215.744 88.1695,215.744 C87.2359,215.744 86.479,214.987 86.479,214.053 C86.479,213.12 87.2359,212.363 88.1695,212.363 M112.961,212.986 C113.895,212.986 114.652,213.743 114.652,214.676 C114.652,215.61 113.895,216.367 112.961,216.367 C112.028,216.367 111.271,215.61 111.271,214.676 C111.271,213.743 112.028,212.986 112.961,212.986 M71.5595,214.966 L73.8054,220.134 L67.6714,222.786 L65.0005,217.516 L71.5595,214.966 M75.9064,215.275 C76.8399,215.275 77.5968,216.032 77.5968,216.966 C77.5968,217.9 76.8399,218.656 75.9064,218.656 C74.9727,218.656 74.2159,217.9 74.2159,216.966 C74.2159,216.032 74.9727,215.275 75.9064,215.275 M98.5055,216.835 C108.576,216.814 117.666,218.92 124.964,221.94 L122.79,223.979 C99.1206,215.845 83.6419,219.509 67.768,226.471 L66.1645,224.491 C77.3844,219.002 88.4353,216.856 98.5055,216.835 M125.282,216.898 C126.216,216.898 126.973,217.655 126.973,218.589 C126.973,219.522 126.216,220.279 125.282,220.279 C124.349,220.279 123.592,219.522 123.592,218.589 C123.592,217.655 124.349,216.898 125.282,216.898 M63.5998,220.607 C64.9579,220.688 65.0877,223.222 64.4547,222.491 L62.9429,220.743 C63.1884,220.637 63.4058,220.596 63.5998,220.607 M126.876,221.655 C126.827,223.577 125.006,236.457 118.864,245.312 C118.491,240.833 117.41,235.479 116.202,231.905 C116.202,231.905 122.812,225.797 126.876,221.655 M48.2987,241.173 L80.2629,284.275 L76.9062,284.251 C76.2047,281.086 75.1898,277.848 73.1968,275.427 C71.5785,273.461 70.1293,271.98 67.2271,270.66 C65.4806,269.866 65.2557,270.035 65.1454,268.694 C64.6182,261.155 58.5137,256.414 53.8386,254.61 C53.3874,250.053 51.3304,245.57 46.1735,241.796 L48.2987,241.173 M45.1862,242.205 C48.1067,244.212 51.3076,245.953 53.0322,253.867 C53.1618,255.521 53.2633,255.345 54.563,255.832 C59.6572,257.325 64.0889,263.448 64.4837,268.8 C64.4795,270.414 65.006,270.558 66.9952,271.394 C69.438,272.42 71.9739,274.59 73.4093,276.726 C75.5444,279.797 76.2982,284.448 76.1141,284.227 L74.356,284.237 C73.1018,276.352 68.1409,273.206 62.8936,271.733 C63.3021,260.601 54.6469,257.127 51.624,256.604 C51.8016,248.587 46.6137,245.279 43.2659,242.588 C43.8902,242.343 45.1862,242.205 45.1862,242.205 M40.0157,243.311 C42.6302,244.165 44.6117,247.809 44.4106,249.485 C47.8592,249.92 51.4824,253.254 50.6872,256.726 C50.4321,256.873 50.0294,256.903 49.6306,256.504 C50.5548,249.768 40.4984,253.102 44.5168,257.976 L42.7201,259.15 C41.275,252.408 39.4958,248.589 37.5648,243.719 C38.2692,243.533 40.0157,243.311 40.0157,243.311 M48.3421,257.435 C49.2353,257.435 49.9553,258.16 49.9553,259.053 C49.9553,259.947 49.2353,260.671 48.3421,260.671 C47.4489,260.671 46.7241,259.947 46.7241,259.053 C46.7241,258.16 47.4489,257.435 48.3421,257.435 M56.9755,264.707 C60.8156,265.793 62.0583,269.68 61.9318,271.094 L61.0926,271.075 C59.7425,264.917 52.723,268.267 55.6533,273.179 C51.9009,274.565 52.197,278.029 53.3018,279.398 C54.8269,281.289 58.7148,281.229 59.9001,278.32 C63.5483,283.039 68.5815,277.744 64.1407,273.345 C67.7776,274.685 68.361,279.557 67.8144,281.079 C69.5025,281.655 71.4475,284.334 71.1876,284.319 L43.9373,284.323 C43.9373,284.323 45.2564,273.327 43.8552,265.028 C45.6682,265.464 46.884,265.902 48.97,263.453 C52.3458,266.249 54.772,264.139 54.5969,261.724 C54.3374,260.036 53.4648,259.197 52.0177,258.305 C54.9723,257.578 57.2066,262.689 56.9755,264.707 M60.016,272.454 C60.9362,272.454 61.6823,273.2 61.6823,274.12 C61.6823,275.04 60.9363,275.786 60.016,275.786 C59.0958,275.786 58.3497,275.04 58.3497,274.12 C58.3497,273.2 59.0958,272.454 60.016,272.454 Z" style="stroke:none;fill-rule:nonzero;fill:#000000;fill-opacity:1;"/>
        </g>
    </g>
</svg>
